<svg width="113" height="123" viewBox="0 0 113 123" fill="none" xmlns="http://www.w3.org/2000/svg">
<path d="M56.4994 0L18.9677 37.5317L30.2438 48.8078L48.526 30.5256V91.0101H64.4728V30.5256L82.755 48.8078L94.031 37.5317L56.4994 0Z" fill="#D3D6D7"/>
<path d="M56.4994 0L18.9677 37.5317L30.2438 48.8078L48.526 30.5256V91.0101H64.4728V30.5256L82.755 48.8078L94.031 37.5317L56.4994 0Z" fill="black" fill-opacity="0.2"/>
<path d="M16.6324 75.0633V106.957H96.3664V75.0633H112.313V106.957C112.313 115.764 105.174 122.904 96.3664 122.904H16.6324C7.82517 122.904 0.685547 115.764 0.685547 106.957V75.0633H16.6324Z" fill="#D3D6D7"/>
<path d="M16.6324 75.0633V106.957H96.3664V75.0633H112.313V106.957C112.313 115.764 105.174 122.904 96.3664 122.904H16.6324C7.82517 122.904 0.685547 115.764 0.685547 106.957V75.0633H16.6324Z" fill="black" fill-opacity="0.2"/>
</svg>
