<svg width="495" height="74" viewBox="0 0 495 74" fill="none" xmlns="http://www.w3.org/2000/svg">
<g clip-path="url(#clip0_767_1402)">
<rect width="495" height="74" fill="#F4F4F4"/>
<path d="M494 1H1V73H494V1Z" stroke="#D3D6D7" stroke-width="2"/>
<path d="M58 10H16C12.6863 10 10 12.6863 10 16V58C10 61.3137 12.6863 64 16 64H58C61.3137 64 64 61.3137 64 58V16C64 12.6863 61.3137 10 58 10Z" stroke="#D3D6D7" stroke-width="4"/>
<path d="M58 10H16C12.6863 10 10 12.6863 10 16V58C10 61.3137 12.6863 64 16 64H58C61.3137 64 64 61.3137 64 58V16C64 12.6863 61.3137 10 58 10Z" stroke="black" stroke-opacity="0.2" stroke-width="4"/>
<path d="M96.5039 48.0006L105.212 28.2606H107.228L116.076 48.0006H113.668L111.204 42.3726L112.24 42.9606H100.172L101.292 42.3726L98.8839 48.0006H96.5039ZM106.192 30.9206L101.656 41.5606L100.984 41.0566H111.4L110.896 41.5606L106.248 30.9206H106.192ZM123.985 48.2526C122.753 48.2526 121.67 47.9633 120.737 47.3846C119.804 46.7873 119.076 45.9473 118.553 44.8646C118.049 43.7819 117.797 42.4846 117.797 40.9726C117.797 39.4419 118.049 38.1353 118.553 37.0526C119.076 35.9699 119.804 35.1393 120.737 34.5606C121.67 33.9819 122.753 33.6926 123.985 33.6926C125.254 33.6926 126.346 34.0099 127.261 34.6446C128.194 35.2793 128.82 36.1379 129.137 37.2206H128.801V27.3926H131.069V48.0006H128.829V44.6406H129.137C128.838 45.7606 128.222 46.6473 127.289 47.3006C126.356 47.9353 125.254 48.2526 123.985 48.2526ZM124.461 46.4046C125.786 46.4046 126.85 45.9473 127.653 45.0326C128.456 44.0993 128.857 42.7459 128.857 40.9726C128.857 39.1806 128.456 37.8273 127.653 36.9126C126.85 35.9793 125.786 35.5126 124.461 35.5126C123.136 35.5126 122.072 35.9793 121.269 36.9126C120.485 37.8273 120.093 39.1806 120.093 40.9726C120.093 42.7459 120.485 44.0993 121.269 45.0326C122.072 45.9473 123.136 46.4046 124.461 46.4046ZM140.774 48.2526C139.542 48.2526 138.46 47.9633 137.526 47.3846C136.593 46.7873 135.865 45.9473 135.342 44.8646C134.838 43.7819 134.586 42.4846 134.586 40.9726C134.586 39.4419 134.838 38.1353 135.342 37.0526C135.865 35.9699 136.593 35.1393 137.526 34.5606C138.46 33.9819 139.542 33.6926 140.774 33.6926C142.044 33.6926 143.136 34.0099 144.05 34.6446C144.984 35.2793 145.609 36.1379 145.926 37.2206H145.59V27.3926H147.858V48.0006H145.618V44.6406H145.926C145.628 45.7606 145.012 46.6473 144.078 47.3006C143.145 47.9353 142.044 48.2526 140.774 48.2526ZM141.25 46.4046C142.576 46.4046 143.64 45.9473 144.442 45.0326C145.245 44.0993 145.646 42.7459 145.646 40.9726C145.646 39.1806 145.245 37.8273 144.442 36.9126C143.64 35.9793 142.576 35.5126 141.25 35.5126C139.925 35.5126 138.861 35.9793 138.058 36.9126C137.274 37.8273 136.882 39.1806 136.882 40.9726C136.882 42.7459 137.274 44.0993 138.058 45.0326C138.861 45.9473 139.925 46.4046 141.25 46.4046ZM165.452 48.2526C164.071 48.2526 162.867 47.9539 161.84 47.3566C160.832 46.7593 160.048 45.9099 159.488 44.8086C158.947 43.7073 158.676 42.4006 158.676 40.8886C158.676 39.3579 158.956 38.0606 159.516 36.9966C160.076 35.9139 160.86 35.0926 161.868 34.5326C162.895 33.9726 164.089 33.6926 165.452 33.6926C166.348 33.6926 167.216 33.8513 168.056 34.1686C168.915 34.4859 169.624 34.9339 170.184 35.5126L169.372 37.1366C168.812 36.5953 168.196 36.1939 167.524 35.9326C166.871 35.6713 166.227 35.5406 165.592 35.5406C164.136 35.5406 163.007 35.9979 162.204 36.9126C161.401 37.8273 161 39.1619 161 40.9166C161 42.6526 161.401 43.9966 162.204 44.9486C163.007 45.9006 164.136 46.3766 165.592 46.3766C166.208 46.3766 166.843 46.2553 167.496 46.0126C168.168 45.7699 168.793 45.3686 169.372 44.8086L170.184 46.4046C169.605 47.0019 168.887 47.4593 168.028 47.7766C167.169 48.0939 166.311 48.2526 165.452 48.2526ZM178.902 48.2526C177.558 48.2526 176.382 47.9633 175.374 47.3846C174.385 46.7873 173.619 45.9473 173.078 44.8646C172.537 43.7633 172.266 42.4659 172.266 40.9726C172.266 39.4606 172.537 38.1633 173.078 37.0806C173.619 35.9979 174.385 35.1673 175.374 34.5886C176.382 33.9913 177.558 33.6926 178.902 33.6926C180.265 33.6926 181.441 33.9913 182.43 34.5886C183.438 35.1673 184.213 35.9979 184.754 37.0806C185.314 38.1633 185.594 39.4606 185.594 40.9726C185.594 42.4659 185.314 43.7633 184.754 44.8646C184.213 45.9473 183.438 46.7873 182.43 47.3846C181.441 47.9633 180.265 48.2526 178.902 48.2526ZM178.902 46.4046C180.246 46.4046 181.31 45.9473 182.094 45.0326C182.878 44.0993 183.27 42.7459 183.27 40.9726C183.27 39.1806 182.869 37.8273 182.066 36.9126C181.282 35.9793 180.227 35.5126 178.902 35.5126C177.577 35.5126 176.522 35.9793 175.738 36.9126C174.954 37.8273 174.562 39.1806 174.562 40.9726C174.562 42.7459 174.954 44.0993 175.738 45.0326C176.522 45.9473 177.577 46.4046 178.902 46.4046ZM189.13 48.0006V27.3926H191.398V48.0006H189.13ZM201.57 48.2526C200.226 48.2526 199.05 47.9633 198.042 47.3846C197.053 46.7873 196.287 45.9473 195.746 44.8646C195.205 43.7633 194.934 42.4659 194.934 40.9726C194.934 39.4606 195.205 38.1633 195.746 37.0806C196.287 35.9979 197.053 35.1673 198.042 34.5886C199.05 33.9913 200.226 33.6926 201.57 33.6926C202.933 33.6926 204.109 33.9913 205.098 34.5886C206.106 35.1673 206.881 35.9979 207.422 37.0806C207.982 38.1633 208.262 39.4606 208.262 40.9726C208.262 42.4659 207.982 43.7633 207.422 44.8646C206.881 45.9473 206.106 46.7873 205.098 47.3846C204.109 47.9633 202.933 48.2526 201.57 48.2526ZM201.57 46.4046C202.914 46.4046 203.978 45.9473 204.762 45.0326C205.546 44.0993 205.938 42.7459 205.938 40.9726C205.938 39.1806 205.537 37.8273 204.734 36.9126C203.95 35.9793 202.895 35.5126 201.57 35.5126C200.245 35.5126 199.19 35.9793 198.406 36.9126C197.622 37.8273 197.23 39.1806 197.23 40.9726C197.23 42.7459 197.622 44.0993 198.406 45.0326C199.19 45.9473 200.245 46.4046 201.57 46.4046ZM211.742 48.0006V37.3326C211.742 36.7726 211.723 36.2033 211.686 35.6246C211.667 35.0459 211.63 34.4859 211.574 33.9446H213.758L214.038 37.3606L213.646 37.3886C213.833 36.5486 214.159 35.8579 214.626 35.3166C215.093 34.7753 215.643 34.3739 216.278 34.1126C216.913 33.8326 217.575 33.6926 218.266 33.6926C218.546 33.6926 218.789 33.7019 218.994 33.7206C219.218 33.7393 219.423 33.7859 219.61 33.8606L219.582 35.8766C219.302 35.7833 219.041 35.7273 218.798 35.7086C218.574 35.6713 218.313 35.6526 218.014 35.6526C217.193 35.6526 216.474 35.8486 215.858 36.2406C215.261 36.6326 214.803 37.1366 214.486 37.7526C214.187 38.3686 214.038 39.0219 214.038 39.7126V48.0006H211.742ZM229.271 48.0006V27.3926H231.539V37.0526H231.175C231.567 35.9513 232.22 35.1206 233.135 34.5606C234.068 33.9819 235.141 33.6926 236.355 33.6926C238.035 33.6926 239.285 34.1499 240.107 35.0646C240.928 35.9606 241.339 37.3233 241.339 39.1526V48.0006H239.071V39.2926C239.071 37.9859 238.809 37.0339 238.287 36.4366C237.783 35.8393 236.961 35.5406 235.823 35.5406C234.516 35.5406 233.471 35.9419 232.687 36.7446C231.921 37.5473 231.539 38.6019 231.539 39.9086V48.0006H229.271ZM251.025 48.2526C249.774 48.2526 248.682 47.9633 247.749 47.3846C246.816 46.7873 246.088 45.9473 245.565 44.8646C245.061 43.7819 244.809 42.4846 244.809 40.9726C244.809 39.4419 245.061 38.1353 245.565 37.0526C246.088 35.9699 246.816 35.1393 247.749 34.5606C248.682 33.9819 249.774 33.6926 251.025 33.6926C252.294 33.6926 253.386 34.0193 254.301 34.6726C255.234 35.3073 255.85 36.1753 256.149 37.2766H255.813L256.121 33.9446H258.305C258.249 34.4859 258.193 35.0366 258.137 35.5966C258.1 36.1379 258.081 36.6699 258.081 37.1926V48.0006H255.813V44.6966H256.121C255.822 45.7979 255.206 46.6659 254.273 47.3006C253.34 47.9353 252.257 48.2526 251.025 48.2526ZM251.473 46.4046C252.817 46.4046 253.881 45.9473 254.665 45.0326C255.449 44.0993 255.841 42.7459 255.841 40.9726C255.841 39.1806 255.449 37.8273 254.665 36.9126C253.881 35.9793 252.817 35.5126 251.473 35.5126C250.148 35.5126 249.084 35.9793 248.281 36.9126C247.497 37.8273 247.105 39.1806 247.105 40.9726C247.105 42.7459 247.497 44.0993 248.281 45.0326C249.084 45.9473 250.148 46.4046 251.473 46.4046ZM262.41 48.0006V37.3326C262.41 36.7726 262.391 36.2033 262.354 35.6246C262.335 35.0459 262.298 34.4859 262.242 33.9446H264.426L264.706 37.3606L264.314 37.3886C264.501 36.5486 264.827 35.8579 265.294 35.3166C265.761 34.7753 266.311 34.3739 266.946 34.1126C267.581 33.8326 268.243 33.6926 268.934 33.6926C269.214 33.6926 269.457 33.7019 269.662 33.7206C269.886 33.7393 270.091 33.7859 270.278 33.8606L270.25 35.8766C269.97 35.7833 269.709 35.7273 269.466 35.7086C269.242 35.6713 268.981 35.6526 268.682 35.6526C267.861 35.6526 267.142 35.8486 266.526 36.2406C265.929 36.6326 265.471 37.1366 265.154 37.7526C264.855 38.3686 264.706 39.0219 264.706 39.7126V48.0006H262.41ZM272.638 48.0006V37.1926C272.638 36.6699 272.61 36.1379 272.554 35.5966C272.516 35.0366 272.47 34.4859 272.414 33.9446H274.598L274.878 37.0246H274.542C274.915 35.9606 275.503 35.1393 276.306 34.5606C277.127 33.9819 278.116 33.6926 279.274 33.6926C280.45 33.6926 281.402 33.9726 282.13 34.5326C282.876 35.0926 283.38 35.9606 283.642 37.1366H283.222C283.576 36.0726 284.202 35.2326 285.098 34.6166C285.994 34.0006 287.039 33.6926 288.234 33.6926C289.783 33.6926 290.95 34.1406 291.734 35.0366C292.518 35.9139 292.91 37.3046 292.91 39.2086V48.0006H290.642V39.3486C290.642 38.0233 290.408 37.0619 289.942 36.4646C289.475 35.8486 288.728 35.5406 287.702 35.5406C286.526 35.5406 285.592 35.9513 284.902 36.7726C284.23 37.5753 283.894 38.6579 283.894 40.0206V48.0006H281.626V39.3486C281.626 38.0233 281.392 37.0619 280.926 36.4646C280.459 35.8486 279.712 35.5406 278.686 35.5406C277.51 35.5406 276.586 35.9513 275.914 36.7726C275.242 37.5753 274.906 38.6579 274.906 40.0206V48.0006H272.638ZM302.988 48.2526C301.644 48.2526 300.468 47.9633 299.46 47.3846C298.47 46.7873 297.705 45.9473 297.164 44.8646C296.622 43.7633 296.352 42.4659 296.352 40.9726C296.352 39.4606 296.622 38.1633 297.164 37.0806C297.705 35.9979 298.47 35.1673 299.46 34.5886C300.468 33.9913 301.644 33.6926 302.988 33.6926C304.35 33.6926 305.526 33.9913 306.516 34.5886C307.524 35.1673 308.298 35.9979 308.84 37.0806C309.4 38.1633 309.68 39.4606 309.68 40.9726C309.68 42.4659 309.4 43.7633 308.84 44.8646C308.298 45.9473 307.524 46.7873 306.516 47.3846C305.526 47.9633 304.35 48.2526 302.988 48.2526ZM302.988 46.4046C304.332 46.4046 305.396 45.9473 306.18 45.0326C306.964 44.0993 307.356 42.7459 307.356 40.9726C307.356 39.1806 306.954 37.8273 306.152 36.9126C305.368 35.9793 304.313 35.5126 302.988 35.5126C301.662 35.5126 300.608 35.9793 299.824 36.9126C299.04 37.8273 298.648 39.1806 298.648 40.9726C298.648 42.7459 299.04 44.0993 299.824 45.0326C300.608 45.9473 301.662 46.4046 302.988 46.4046ZM313.216 48.0006V37.1926C313.216 36.6699 313.188 36.1379 313.132 35.5966C313.095 35.0366 313.048 34.4859 312.992 33.9446H315.176L315.456 37.0246H315.12C315.531 35.9419 316.184 35.1206 317.08 34.5606C317.995 33.9819 319.049 33.6926 320.244 33.6926C321.905 33.6926 323.156 34.1406 323.996 35.0366C324.855 35.9139 325.284 37.3046 325.284 39.2086V48.0006H323.016V39.3486C323.016 38.0233 322.745 37.0619 322.204 36.4646C321.681 35.8486 320.86 35.5406 319.74 35.5406C318.433 35.5406 317.397 35.9419 316.632 36.7446C315.867 37.5473 315.484 38.6206 315.484 39.9646V48.0006H313.216ZM329.622 48.0006V33.9446H331.89V48.0006H329.622ZM329.342 30.7526V28.2046H332.142V30.7526H329.342ZM342.202 48.2526C340.821 48.2526 339.617 47.9539 338.59 47.3566C337.582 46.7593 336.798 45.9099 336.238 44.8086C335.697 43.7073 335.426 42.4006 335.426 40.8886C335.426 39.3579 335.706 38.0606 336.266 36.9966C336.826 35.9139 337.61 35.0926 338.618 34.5326C339.645 33.9726 340.839 33.6926 342.202 33.6926C343.098 33.6926 343.966 33.8513 344.806 34.1686C345.665 34.4859 346.374 34.9339 346.934 35.5126L346.122 37.1366C345.562 36.5953 344.946 36.1939 344.274 35.9326C343.621 35.6713 342.977 35.5406 342.342 35.5406C340.886 35.5406 339.757 35.9979 338.954 36.9126C338.151 37.8273 337.75 39.1619 337.75 40.9166C337.75 42.6526 338.151 43.9966 338.954 44.9486C339.757 45.9006 340.886 46.3766 342.342 46.3766C342.958 46.3766 343.593 46.2553 344.246 46.0126C344.918 45.7699 345.543 45.3686 346.122 44.8086L346.934 46.4046C346.355 47.0019 345.637 47.4593 344.778 47.7766C343.919 48.0939 343.061 48.2526 342.202 48.2526ZM354.833 48.2526C353.713 48.2526 352.668 48.1033 351.697 47.8046C350.727 47.4873 349.924 47.0486 349.289 46.4886L350.073 44.8926C350.764 45.4339 351.511 45.8353 352.313 46.0966C353.135 46.3579 353.984 46.4886 354.861 46.4886C355.981 46.4886 356.821 46.2926 357.381 45.9006C357.96 45.4899 358.249 44.9299 358.249 44.2206C358.249 43.6793 358.063 43.2499 357.689 42.9326C357.335 42.5966 356.747 42.3353 355.925 42.1486L353.321 41.6166C352.127 41.3553 351.231 40.9166 350.633 40.3006C350.036 39.6659 349.737 38.8633 349.737 37.8926C349.737 37.0713 349.952 36.3526 350.381 35.7366C350.811 35.1019 351.436 34.6073 352.257 34.2526C353.079 33.8793 354.04 33.6926 355.141 33.6926C356.168 33.6926 357.111 33.8513 357.969 34.1686C358.847 34.4673 359.575 34.9059 360.153 35.4846L359.341 37.0526C358.781 36.5113 358.137 36.1099 357.409 35.8486C356.7 35.5686 355.963 35.4286 355.197 35.4286C354.096 35.4286 353.265 35.6526 352.705 36.1006C352.164 36.5299 351.893 37.0993 351.893 37.8086C351.893 38.3499 352.061 38.7979 352.397 39.1526C352.752 39.4886 353.293 39.7406 354.021 39.9086L356.625 40.4406C357.895 40.7206 358.837 41.1593 359.453 41.7566C360.088 42.3353 360.405 43.1193 360.405 44.1086C360.405 44.9486 360.172 45.6859 359.705 46.3206C359.239 46.9366 358.585 47.4126 357.745 47.7486C356.924 48.0846 355.953 48.2526 354.833 48.2526ZM376.333 48.2526C374.951 48.2526 373.897 47.8606 373.169 47.0766C372.441 46.2739 372.077 45.0699 372.077 43.4646V35.7086H369.333V33.9446H372.077V30.1086L374.345 29.4646V33.9446H378.377V35.7086H374.345V43.2126C374.345 44.3326 374.531 45.1353 374.905 45.6206C375.297 46.0873 375.875 46.3206 376.641 46.3206C376.995 46.3206 377.313 46.2926 377.593 46.2366C377.873 46.1619 378.125 46.0779 378.349 45.9846V47.8886C378.087 48.0006 377.77 48.0846 377.397 48.1406C377.042 48.2153 376.687 48.2526 376.333 48.2526ZM386.769 48.2526C385.425 48.2526 384.249 47.9633 383.241 47.3846C382.252 46.7873 381.486 45.9473 380.945 44.8646C380.404 43.7633 380.133 42.4659 380.133 40.9726C380.133 39.4606 380.404 38.1633 380.945 37.0806C381.486 35.9979 382.252 35.1673 383.241 34.5886C384.249 33.9913 385.425 33.6926 386.769 33.6926C388.132 33.6926 389.308 33.9913 390.297 34.5886C391.305 35.1673 392.08 35.9979 392.621 37.0806C393.181 38.1633 393.461 39.4606 393.461 40.9726C393.461 42.4659 393.181 43.7633 392.621 44.8646C392.08 45.9473 391.305 46.7873 390.297 47.3846C389.308 47.9633 388.132 48.2526 386.769 48.2526ZM386.769 46.4046C388.113 46.4046 389.177 45.9473 389.961 45.0326C390.745 44.0993 391.137 42.7459 391.137 40.9726C391.137 39.1806 390.736 37.8273 389.933 36.9126C389.149 35.9793 388.094 35.5126 386.769 35.5126C385.444 35.5126 384.389 35.9793 383.605 36.9126C382.821 37.8273 382.429 39.1806 382.429 40.9726C382.429 42.7459 382.821 44.0993 383.605 45.0326C384.389 45.9473 385.444 46.4046 386.769 46.4046ZM410.066 48.2526C408.722 48.2526 407.546 47.9633 406.538 47.3846C405.549 46.7873 404.783 45.9473 404.242 44.8646C403.701 43.7633 403.43 42.4659 403.43 40.9726C403.43 39.4606 403.701 38.1633 404.242 37.0806C404.783 35.9979 405.549 35.1673 406.538 34.5886C407.546 33.9913 408.722 33.6926 410.066 33.6926C411.429 33.6926 412.605 33.9913 413.594 34.5886C414.602 35.1673 415.377 35.9979 415.918 37.0806C416.478 38.1633 416.758 39.4606 416.758 40.9726C416.758 42.4659 416.478 43.7633 415.918 44.8646C415.377 45.9473 414.602 46.7873 413.594 47.3846C412.605 47.9633 411.429 48.2526 410.066 48.2526ZM410.066 46.4046C411.41 46.4046 412.474 45.9473 413.258 45.0326C414.042 44.0993 414.434 42.7459 414.434 40.9726C414.434 39.1806 414.033 37.8273 413.23 36.9126C412.446 35.9793 411.391 35.5126 410.066 35.5126C408.741 35.5126 407.686 35.9793 406.902 36.9126C406.118 37.8273 405.726 39.1806 405.726 40.9726C405.726 42.7459 406.118 44.0993 406.902 45.0326C407.686 45.9473 408.741 46.4046 410.066 46.4046ZM425.25 48.2526C423.589 48.2526 422.329 47.7953 421.47 46.8806C420.63 45.9659 420.21 44.5659 420.21 42.6806V33.9446H422.478V42.6246C422.478 43.9126 422.739 44.8646 423.262 45.4806C423.785 46.0779 424.597 46.3766 425.698 46.3766C426.93 46.3766 427.919 45.9753 428.666 45.1726C429.413 44.3699 429.786 43.2966 429.786 41.9526V33.9446H432.054V48.0006H429.842V44.8366H430.206C429.814 45.9193 429.179 46.7593 428.302 47.3566C427.443 47.9539 426.426 48.2526 425.25 48.2526ZM441.438 48.2526C440.057 48.2526 439.002 47.8606 438.274 47.0766C437.546 46.2739 437.182 45.0699 437.182 43.4646V35.7086H434.438V33.9446H437.182V30.1086L439.45 29.4646V33.9446H443.482V35.7086H439.45V43.2126C439.45 44.3326 439.637 45.1353 440.01 45.6206C440.402 46.0873 440.981 46.3206 441.746 46.3206C442.101 46.3206 442.418 46.2926 442.698 46.2366C442.978 46.1619 443.23 46.0779 443.454 45.9846V47.8886C443.193 48.0006 442.876 48.0846 442.502 48.1406C442.148 48.2153 441.793 48.2526 441.438 48.2526ZM446.243 54.0486V37.1926C446.243 36.6699 446.215 36.1379 446.159 35.5966C446.122 35.0366 446.075 34.4859 446.019 33.9446H448.203L448.511 37.2766H448.175C448.474 36.1753 449.081 35.3073 449.995 34.6726C450.91 34.0193 452.002 33.6926 453.271 33.6926C454.541 33.6926 455.633 33.9819 456.547 34.5606C457.481 35.1393 458.209 35.9699 458.731 37.0526C459.254 38.1353 459.515 39.4419 459.515 40.9726C459.515 42.4846 459.254 43.7819 458.731 44.8646C458.227 45.9473 457.509 46.7873 456.575 47.3846C455.642 47.9633 454.541 48.2526 453.271 48.2526C452.021 48.2526 450.938 47.9353 450.023 47.3006C449.109 46.6659 448.502 45.7979 448.203 44.6966H448.511V54.0486H446.243ZM452.823 46.4046C454.167 46.4046 455.231 45.9473 456.015 45.0326C456.818 44.0993 457.219 42.7459 457.219 40.9726C457.219 39.1806 456.818 37.8273 456.015 36.9126C455.231 35.9793 454.167 35.5126 452.823 35.5126C451.498 35.5126 450.434 35.9793 449.631 36.9126C448.847 37.8273 448.455 39.1806 448.455 40.9726C448.455 42.7459 448.847 44.0993 449.631 45.0326C450.434 45.9473 451.498 46.4046 452.823 46.4046ZM467.988 48.2526C466.327 48.2526 465.067 47.7953 464.208 46.8806C463.368 45.9659 462.948 44.5659 462.948 42.6806V33.9446H465.216V42.6246C465.216 43.9126 465.478 44.8646 466 45.4806C466.523 46.0779 467.335 46.3766 468.436 46.3766C469.668 46.3766 470.658 45.9753 471.404 45.1726C472.151 44.3699 472.524 43.2966 472.524 41.9526V33.9446H474.792V48.0006H472.58V44.8366H472.944C472.552 45.9193 471.918 46.7593 471.04 47.3566C470.182 47.9539 469.164 48.2526 467.988 48.2526ZM484.176 48.2526C482.795 48.2526 481.74 47.8606 481.012 47.0766C480.284 46.2739 479.92 45.0699 479.92 43.4646V35.7086H477.176V33.9446H479.92V30.1086L482.188 29.4646V33.9446H486.22V35.7086H482.188V43.2126C482.188 44.3326 482.375 45.1353 482.748 45.6206C483.14 46.0873 483.719 46.3206 484.484 46.3206C484.839 46.3206 485.156 46.2926 485.436 46.2366C485.716 46.1619 485.968 46.0779 486.192 45.9846V47.8886C485.931 48.0006 485.614 48.0846 485.24 48.1406C484.886 48.2153 484.531 48.2526 484.176 48.2526Z" fill="black"/>
</g>
<defs>
<clipPath id="clip0_767_1402">
<rect width="495" height="74" fill="white"/>
</clipPath>
</defs>
</svg>
