<svg width="5200" height="897" viewBox="0 0 5200 897" fill="none" xmlns="http://www.w3.org/2000/svg">
<rect y="0.824219" width="896" height="896" rx="40" fill="#A3927F"/>
<rect y="0.824219" width="896" height="896" rx="40" fill="#D3D6D7"/>
<path d="M977 516.524V475.724H936.8V458.124H977V418.324H995.2V458.124H1035.2V475.724H995.2V516.524H977Z" fill="black"/>
<rect x="1076" y="0.824219" width="896" height="896" rx="40" fill="#A3927F"/>
<rect x="1076" y="0.824219" width="896" height="896" rx="40" fill="black"/>
<circle cx="1674.5" cy="214.324" r="86.5" fill="#D3D6D7"/>
<circle cx="1674.5" cy="214.324" r="86.5" fill="#A3927F"/>
<path d="M2053 516.524V475.724H2012.8V458.124H2053V418.324H2071.2V458.124H2111.2V475.724H2071.2V516.524H2053Z" fill="black"/>
<rect x="2152" y="0.824219" width="896" height="896" rx="40" fill="#A3927F"/>
<rect x="2152" y="0.824219" width="896" height="896" rx="40" fill="black"/>
<mask id="mask0_439_3522" style="mask-type:alpha" maskUnits="userSpaceOnUse" x="2152" y="0" width="896" height="897">
<rect x="2152" y="0.824219" width="896" height="896" rx="40" fill="#D9D9D9"/>
</mask>
<g mask="url(#mask0_439_3522)">
<rect x="2117" y="1015.39" width="896" height="896" rx="89" transform="rotate(-45 2117 1015.39)" fill="url(#paint0_linear_439_3522)"/>
</g>
<path d="M3129 516.524V475.724H3088.8V458.124H3129V418.324H3147.2V458.124H3187.2V475.724H3147.2V516.524H3129Z" fill="black"/>
<rect x="3228" y="0.824219" width="896" height="896" rx="40" fill="#A3927F"/>
<rect x="3228" y="0.824219" width="896" height="896" rx="40" fill="black"/>
<mask id="mask1_439_3522" style="mask-type:alpha" maskUnits="userSpaceOnUse" x="3228" y="0" width="896" height="897">
<rect x="3228" y="0.824219" width="896" height="896" rx="40" fill="#D9D9D9"/>
</mask>
<g mask="url(#mask1_439_3522)">
<rect x="2872" y="909.391" width="896" height="896" rx="89" transform="rotate(-45 2872 909.391)" fill="url(#paint1_linear_439_3522)"/>
</g>
<path d="M4205 516.524V475.724H4164.8V458.124H4205V418.324H4223.2V458.124H4263.2V475.724H4223.2V516.524H4205Z" fill="black"/>
<rect x="4304" y="0.824219" width="896" height="896" rx="40" fill="#A3927F"/>
<rect x="4304" y="0.824219" width="896" height="896" rx="40" fill="black"/>
<path d="M4665.61 623.18C4665.61 617.892 4669.9 613.605 4675.19 613.605C4680.48 613.605 4684.76 617.892 4684.76 623.18V698.178C4684.76 703.466 4680.48 707.752 4675.19 707.752C4669.9 707.752 4665.61 703.466 4665.61 698.178V623.18Z" fill="#A3927F"/>
<path d="M4674.59 308.824L4729.61 436.481H4715.83L4751.78 490.735H4741.5L4776.52 535.415H4761.1L4797.26 580.095H4782.49L4828.38 631.157H4522L4567.74 580.095H4552.32L4588.36 535.415H4573.86L4608.47 490.735H4598.59L4633.99 436.481H4620.93L4674.59 308.824Z" fill="#8B9569"/>
<defs>
<linearGradient id="paint0_linear_439_3522" x1="3013.31" y1="1015.7" x2="2307.61" y2="1721.39" gradientUnits="userSpaceOnUse">
<stop stop-color="#8B9569"/>
<stop offset="1" stop-color="#515B48"/>
</linearGradient>
<linearGradient id="paint1_linear_439_3522" x1="3768.31" y1="909.696" x2="3076.76" y2="1601.25" gradientUnits="userSpaceOnUse">
<stop stop-color="#515B48"/>
<stop offset="1" stop-color="#303533"/>
</linearGradient>
</defs>
</svg>
