<svg width="785" height="74" viewBox="0 0 785 74" fill="none" xmlns="http://www.w3.org/2000/svg">
<g clip-path="url(#clip0_767_1356)">
<rect width="785" height="74" fill="#F4F4F4"/>
<path d="M784 1H1V73H784V1Z" stroke="#D3D6D7" stroke-width="2"/>
<path d="M58 10H16C12.6863 10 10 12.6863 10 16V58C10 61.3137 12.6863 64 16 64H58C61.3137 64 64 61.3137 64 58V16C64 12.6863 61.3137 10 58 10Z" stroke="#D3D6D7" stroke-width="4"/>
<path d="M58 10H16C12.6863 10 10 12.6863 10 16V58C10 61.3137 12.6863 64 16 64H58C61.3137 64 64 61.3137 64 58V16C64 12.6863 61.3137 10 58 10Z" stroke="black" stroke-opacity="0.2" stroke-width="4"/>
<path d="M96.5039 47.9993L105.212 28.2593H107.228L116.076 47.9993H113.668L111.204 42.3713L112.24 42.9593H100.172L101.292 42.3713L98.8839 47.9993H96.5039ZM106.192 30.9193L101.656 41.5593L100.984 41.0553H111.4L110.896 41.5593L106.248 30.9193H106.192ZM123.758 48.2513C122.097 48.2513 120.837 47.794 119.978 46.8793C119.138 45.9646 118.718 44.5646 118.718 42.6793V33.9433H120.986V42.6233C120.986 43.9113 121.247 44.8633 121.77 45.4793C122.293 46.0766 123.105 46.3753 124.206 46.3753C125.438 46.3753 126.427 45.974 127.174 45.1713C127.921 44.3686 128.294 43.2953 128.294 41.9513V33.9433H130.562V47.9993H128.35V44.8353H128.714C128.322 45.918 127.687 46.758 126.81 47.3553C125.951 47.9526 124.934 48.2513 123.758 48.2513ZM139.946 48.2513C138.565 48.2513 137.51 47.8593 136.782 47.0753C136.054 46.2726 135.69 45.0686 135.69 43.4633V35.7073H132.946V33.9433H135.69V30.1073L137.958 29.4633V33.9433H141.99V35.7073H137.958V43.2113C137.958 44.3313 138.145 45.134 138.518 45.6193C138.91 46.086 139.489 46.3193 140.254 46.3193C140.609 46.3193 140.926 46.2913 141.206 46.2353C141.486 46.1606 141.738 46.0766 141.962 45.9833V47.8873C141.701 47.9993 141.383 48.0833 141.01 48.1393C140.655 48.214 140.301 48.2513 139.946 48.2513ZM150.382 48.2513C149.038 48.2513 147.862 47.962 146.854 47.3833C145.865 46.786 145.1 45.946 144.558 44.8633C144.017 43.762 143.746 42.4646 143.746 40.9713C143.746 39.4593 144.017 38.162 144.558 37.0793C145.1 35.9966 145.865 35.166 146.854 34.5873C147.862 33.99 149.038 33.6913 150.382 33.6913C151.745 33.6913 152.921 33.99 153.91 34.5873C154.918 35.166 155.693 35.9966 156.234 37.0793C156.794 38.162 157.074 39.4593 157.074 40.9713C157.074 42.4646 156.794 43.762 156.234 44.8633C155.693 45.946 154.918 46.786 153.91 47.3833C152.921 47.962 151.745 48.2513 150.382 48.2513ZM150.382 46.4033C151.726 46.4033 152.79 45.946 153.574 45.0313C154.358 44.098 154.75 42.7446 154.75 40.9713C154.75 39.1793 154.349 37.826 153.546 36.9113C152.762 35.978 151.708 35.5113 150.382 35.5113C149.057 35.5113 148.002 35.978 147.218 36.9113C146.434 37.826 146.042 39.1793 146.042 40.9713C146.042 42.7446 146.434 44.098 147.218 45.0313C148.002 45.946 149.057 46.4033 150.382 46.4033ZM160.61 47.9993V37.1913C160.61 36.6686 160.582 36.1366 160.526 35.5953C160.489 35.0353 160.442 34.4846 160.386 33.9433H162.57L162.85 37.0233H162.514C162.888 35.9593 163.476 35.138 164.278 34.5593C165.1 33.9806 166.089 33.6913 167.246 33.6913C168.422 33.6913 169.374 33.9713 170.102 34.5313C170.849 35.0913 171.353 35.9593 171.614 37.1353H171.194C171.549 36.0713 172.174 35.2313 173.07 34.6153C173.966 33.9993 175.012 33.6913 176.206 33.6913C177.756 33.6913 178.922 34.1393 179.706 35.0353C180.49 35.9126 180.882 37.3033 180.882 39.2073V47.9993H178.614V39.3473C178.614 38.022 178.381 37.0606 177.914 36.4633C177.448 35.8473 176.701 35.5393 175.674 35.5393C174.498 35.5393 173.565 35.95 172.874 36.7713C172.202 37.574 171.866 38.6566 171.866 40.0193V47.9993H169.598V39.3473C169.598 38.022 169.365 37.0606 168.898 36.4633C168.432 35.8473 167.685 35.5393 166.658 35.5393C165.482 35.5393 164.558 35.95 163.886 36.7713C163.214 37.574 162.878 38.6566 162.878 40.0193V47.9993H160.61ZM190.54 48.2513C189.29 48.2513 188.198 47.962 187.264 47.3833C186.331 46.786 185.603 45.946 185.08 44.8633C184.576 43.7806 184.324 42.4833 184.324 40.9713C184.324 39.4406 184.576 38.134 185.08 37.0513C185.603 35.9686 186.331 35.138 187.264 34.5593C188.198 33.9806 189.29 33.6913 190.54 33.6913C191.81 33.6913 192.902 34.018 193.816 34.6713C194.75 35.306 195.366 36.174 195.664 37.2753H195.328L195.636 33.9433H197.82C197.764 34.4846 197.708 35.0353 197.652 35.5953C197.615 36.1366 197.596 36.6686 197.596 37.1913V47.9993H195.328V44.6953H195.636C195.338 45.7966 194.722 46.6646 193.788 47.2993C192.855 47.934 191.772 48.2513 190.54 48.2513ZM190.988 46.4033C192.332 46.4033 193.396 45.946 194.18 45.0313C194.964 44.098 195.356 42.7446 195.356 40.9713C195.356 39.1793 194.964 37.826 194.18 36.9113C193.396 35.978 192.332 35.5113 190.988 35.5113C189.663 35.5113 188.599 35.978 187.796 36.9113C187.012 37.826 186.62 39.1793 186.62 40.9713C186.62 42.7446 187.012 44.098 187.796 45.0313C188.599 45.946 189.663 46.4033 190.988 46.4033ZM206.966 48.2513C205.584 48.2513 204.53 47.8593 203.802 47.0753C203.074 46.2726 202.71 45.0686 202.71 43.4633V35.7073H199.966V33.9433H202.71V30.1073L204.978 29.4633V33.9433H209.01V35.7073H204.978V43.2113C204.978 44.3313 205.164 45.134 205.538 45.6193C205.93 46.086 206.508 46.3193 207.274 46.3193C207.628 46.3193 207.946 46.2913 208.226 46.2353C208.506 46.1606 208.758 46.0766 208.982 45.9833V47.8873C208.72 47.9993 208.403 48.0833 208.03 48.1393C207.675 48.214 207.32 48.2513 206.966 48.2513ZM211.771 47.9993V33.9433H214.039V47.9993H211.771ZM211.491 30.7513V28.2033H214.291V30.7513H211.491ZM224.35 48.2513C222.969 48.2513 221.765 47.9526 220.738 47.3553C219.73 46.758 218.946 45.9086 218.386 44.8073C217.845 43.706 217.574 42.3993 217.574 40.8873C217.574 39.3566 217.854 38.0593 218.414 36.9953C218.974 35.9126 219.758 35.0913 220.766 34.5313C221.793 33.9713 222.988 33.6913 224.35 33.6913C225.246 33.6913 226.114 33.85 226.954 34.1673C227.813 34.4846 228.522 34.9326 229.082 35.5113L228.27 37.1353C227.71 36.594 227.094 36.1926 226.422 35.9313C225.769 35.67 225.125 35.5393 224.49 35.5393C223.034 35.5393 221.905 35.9966 221.102 36.9113C220.3 37.826 219.898 39.1606 219.898 40.9153C219.898 42.6513 220.3 43.9953 221.102 44.9473C221.905 45.8993 223.034 46.3753 224.49 46.3753C225.106 46.3753 225.741 46.254 226.394 46.0113C227.066 45.7686 227.692 45.3673 228.27 44.8073L229.082 46.4033C228.504 47.0006 227.785 47.458 226.926 47.7753C226.068 48.0926 225.209 48.2513 224.35 48.2513ZM237.544 48.2513C236.294 48.2513 235.202 47.962 234.268 47.3833C233.335 46.786 232.607 45.946 232.084 44.8633C231.58 43.7806 231.328 42.4833 231.328 40.9713C231.328 39.4406 231.58 38.134 232.084 37.0513C232.607 35.9686 233.335 35.138 234.268 34.5593C235.202 33.9806 236.294 33.6913 237.544 33.6913C238.814 33.6913 239.906 34.018 240.82 34.6713C241.754 35.306 242.37 36.174 242.668 37.2753H242.332L242.64 33.9433H244.824C244.768 34.4846 244.712 35.0353 244.656 35.5953C244.619 36.1366 244.6 36.6686 244.6 37.1913V47.9993H242.332V44.6953H242.64C242.342 45.7966 241.726 46.6646 240.792 47.2993C239.859 47.934 238.776 48.2513 237.544 48.2513ZM237.992 46.4033C239.336 46.4033 240.4 45.946 241.184 45.0313C241.968 44.098 242.36 42.7446 242.36 40.9713C242.36 39.1793 241.968 37.826 241.184 36.9113C240.4 35.978 239.336 35.5113 237.992 35.5113C236.667 35.5113 235.603 35.978 234.8 36.9113C234.016 37.826 233.624 39.1793 233.624 40.9713C233.624 42.7446 234.016 44.098 234.8 45.0313C235.603 45.946 236.667 46.4033 237.992 46.4033ZM248.985 47.9993V27.3913H251.253V47.9993H248.985ZM255.657 47.9993V27.3913H257.925V47.9993H255.657ZM261.769 54.3553L261.237 52.4793C262.115 52.274 262.843 52.0313 263.421 51.7513C264.019 51.49 264.513 51.1353 264.905 50.6873C265.297 50.2393 265.633 49.6793 265.913 49.0073L266.641 47.3553L266.585 48.3073L260.453 33.9433H262.917L267.985 46.2913H267.257L272.269 33.9433H274.649L268.153 49.1753C267.78 50.0713 267.369 50.818 266.921 51.4153C266.473 52.0313 265.988 52.526 265.465 52.8993C264.961 53.2913 264.401 53.5993 263.785 53.8233C263.169 54.0473 262.497 54.2246 261.769 54.3553ZM289.825 48.2513C288.593 48.2513 287.51 47.962 286.577 47.3833C285.644 46.786 284.916 45.946 284.393 44.8633C283.889 43.7806 283.637 42.4833 283.637 40.9713C283.637 39.4406 283.889 38.134 284.393 37.0513C284.916 35.9686 285.644 35.138 286.577 34.5593C287.51 33.9806 288.593 33.6913 289.825 33.6913C291.094 33.6913 292.186 34.0086 293.101 34.6433C294.034 35.278 294.66 36.1366 294.977 37.2193H294.641V27.3913H296.909V47.9993H294.669V44.6393H294.977C294.678 45.7593 294.062 46.646 293.129 47.2993C292.196 47.934 291.094 48.2513 289.825 48.2513ZM290.301 46.4033C291.626 46.4033 292.69 45.946 293.493 45.0313C294.296 44.098 294.697 42.7446 294.697 40.9713C294.697 39.1793 294.296 37.826 293.493 36.9113C292.69 35.978 291.626 35.5113 290.301 35.5113C288.976 35.5113 287.912 35.978 287.109 36.9113C286.325 37.826 285.933 39.1793 285.933 40.9713C285.933 42.7446 286.325 44.098 287.109 45.0313C287.912 45.946 288.976 46.4033 290.301 46.4033ZM307.062 48.2513C305.718 48.2513 304.542 47.962 303.534 47.3833C302.545 46.786 301.779 45.946 301.238 44.8633C300.697 43.762 300.426 42.4646 300.426 40.9713C300.426 39.4593 300.697 38.162 301.238 37.0793C301.779 35.9966 302.545 35.166 303.534 34.5873C304.542 33.99 305.718 33.6913 307.062 33.6913C308.425 33.6913 309.601 33.99 310.59 34.5873C311.598 35.166 312.373 35.9966 312.914 37.0793C313.474 38.162 313.754 39.4593 313.754 40.9713C313.754 42.4646 313.474 43.762 312.914 44.8633C312.373 45.946 311.598 46.786 310.59 47.3833C309.601 47.962 308.425 48.2513 307.062 48.2513ZM307.062 46.4033C308.406 46.4033 309.47 45.946 310.254 45.0313C311.038 44.098 311.43 42.7446 311.43 40.9713C311.43 39.1793 311.029 37.826 310.226 36.9113C309.442 35.978 308.387 35.5113 307.062 35.5113C305.737 35.5113 304.682 35.978 303.898 36.9113C303.114 37.826 302.722 39.1793 302.722 40.9713C302.722 42.7446 303.114 44.098 303.898 45.0313C304.682 45.946 305.737 46.4033 307.062 46.4033ZM320.851 47.9993L315.643 33.9433H318.051L322.391 46.3193H321.663L326.143 33.9433H328.103L332.499 46.3193H331.799L336.167 33.9433H338.463L333.227 47.9993H331.043L326.507 35.4273H327.627L323.063 47.9993H320.851ZM341.435 47.9993V37.1913C341.435 36.6686 341.407 36.1366 341.351 35.5953C341.313 35.0353 341.267 34.4846 341.211 33.9433H343.395L343.675 37.0233H343.339C343.749 35.9406 344.403 35.1193 345.299 34.5593C346.213 33.9806 347.268 33.6913 348.463 33.6913C350.124 33.6913 351.375 34.1393 352.215 35.0353C353.073 35.9126 353.503 37.3033 353.503 39.2073V47.9993H351.235V39.3473C351.235 38.022 350.964 37.0606 350.423 36.4633C349.9 35.8473 349.079 35.5393 347.959 35.5393C346.652 35.5393 345.616 35.9406 344.851 36.7433C344.085 37.546 343.703 38.6193 343.703 39.9633V47.9993H341.435ZM357.841 47.9993V27.3913H360.109V47.9993H357.841ZM370.281 48.2513C368.937 48.2513 367.761 47.962 366.753 47.3833C365.763 46.786 364.998 45.946 364.457 44.8633C363.915 43.762 363.645 42.4646 363.645 40.9713C363.645 39.4593 363.915 38.162 364.457 37.0793C364.998 35.9966 365.763 35.166 366.753 34.5873C367.761 33.99 368.937 33.6913 370.281 33.6913C371.643 33.6913 372.819 33.99 373.809 34.5873C374.817 35.166 375.591 35.9966 376.133 37.0793C376.693 38.162 376.973 39.4593 376.973 40.9713C376.973 42.4646 376.693 43.762 376.133 44.8633C375.591 45.946 374.817 46.786 373.809 47.3833C372.819 47.962 371.643 48.2513 370.281 48.2513ZM370.281 46.4033C371.625 46.4033 372.689 45.946 373.473 45.0313C374.257 44.098 374.649 42.7446 374.649 40.9713C374.649 39.1793 374.247 37.826 373.445 36.9113C372.661 35.978 371.606 35.5113 370.281 35.5113C368.955 35.5113 367.901 35.978 367.117 36.9113C366.333 37.826 365.941 39.1793 365.941 40.9713C365.941 42.7446 366.333 44.098 367.117 45.0313C367.901 45.946 368.955 46.4033 370.281 46.4033ZM385.857 48.2513C384.606 48.2513 383.514 47.962 382.581 47.3833C381.648 46.786 380.92 45.946 380.397 44.8633C379.893 43.7806 379.641 42.4833 379.641 40.9713C379.641 39.4406 379.893 38.134 380.397 37.0513C380.92 35.9686 381.648 35.138 382.581 34.5593C383.514 33.9806 384.606 33.6913 385.857 33.6913C387.126 33.6913 388.218 34.018 389.133 34.6713C390.066 35.306 390.682 36.174 390.981 37.2753H390.645L390.953 33.9433H393.137C393.081 34.4846 393.025 35.0353 392.969 35.5953C392.932 36.1366 392.913 36.6686 392.913 37.1913V47.9993H390.645V44.6953H390.953C390.654 45.7966 390.038 46.6646 389.105 47.2993C388.172 47.934 387.089 48.2513 385.857 48.2513ZM386.305 46.4033C387.649 46.4033 388.713 45.946 389.497 45.0313C390.281 44.098 390.673 42.7446 390.673 40.9713C390.673 39.1793 390.281 37.826 389.497 36.9113C388.713 35.978 387.649 35.5113 386.305 35.5113C384.98 35.5113 383.916 35.978 383.113 36.9113C382.329 37.826 381.937 39.1793 381.937 40.9713C381.937 42.7446 382.329 44.098 383.113 45.0313C383.916 45.946 384.98 46.4033 386.305 46.4033ZM402.618 48.2513C401.386 48.2513 400.303 47.962 399.37 47.3833C398.437 46.786 397.709 45.946 397.186 44.8633C396.682 43.7806 396.43 42.4833 396.43 40.9713C396.43 39.4406 396.682 38.134 397.186 37.0513C397.709 35.9686 398.437 35.138 399.37 34.5593C400.303 33.9806 401.386 33.6913 402.618 33.6913C403.887 33.6913 404.979 34.0086 405.894 34.6433C406.827 35.278 407.453 36.1366 407.77 37.2193H407.434V27.3913H409.702V47.9993H407.462V44.6393H407.77C407.471 45.7593 406.855 46.646 405.922 47.2993C404.989 47.934 403.887 48.2513 402.618 48.2513ZM403.094 46.4033C404.419 46.4033 405.483 45.946 406.286 45.0313C407.089 44.098 407.49 42.7446 407.49 40.9713C407.49 39.1793 407.089 37.826 406.286 36.9113C405.483 35.978 404.419 35.5113 403.094 35.5113C401.769 35.5113 400.705 35.978 399.902 36.9113C399.118 37.826 398.726 39.1793 398.726 40.9713C398.726 42.7446 399.118 44.098 399.902 45.0313C400.705 45.946 401.769 46.4033 403.094 46.4033ZM427.296 48.2513C425.914 48.2513 424.71 47.9526 423.684 47.3553C422.676 46.758 421.892 45.9086 421.332 44.8073C420.79 43.706 420.52 42.3993 420.52 40.8873C420.52 39.3566 420.8 38.0593 421.36 36.9953C421.92 35.9126 422.704 35.0913 423.712 34.5313C424.738 33.9713 425.933 33.6913 427.296 33.6913C428.192 33.6913 429.06 33.85 429.9 34.1673C430.758 34.4846 431.468 34.9326 432.028 35.5113L431.216 37.1353C430.656 36.594 430.04 36.1926 429.368 35.9313C428.714 35.67 428.07 35.5393 427.436 35.5393C425.98 35.5393 424.85 35.9966 424.048 36.9113C423.245 37.826 422.844 39.1606 422.844 40.9153C422.844 42.6513 423.245 43.9953 424.048 44.9473C424.85 45.8993 425.98 46.3753 427.436 46.3753C428.052 46.3753 428.686 46.254 429.34 46.0113C430.012 45.7686 430.637 45.3673 431.216 44.8073L432.028 46.4033C431.449 47.0006 430.73 47.458 429.872 47.7753C429.013 48.0926 428.154 48.2513 427.296 48.2513ZM440.746 48.2513C439.402 48.2513 438.226 47.962 437.218 47.3833C436.228 46.786 435.463 45.946 434.922 44.8633C434.38 43.762 434.11 42.4646 434.11 40.9713C434.11 39.4593 434.38 38.162 434.922 37.0793C435.463 35.9966 436.228 35.166 437.218 34.5873C438.226 33.99 439.402 33.6913 440.746 33.6913C442.108 33.6913 443.284 33.99 444.274 34.5873C445.282 35.166 446.056 35.9966 446.598 37.0793C447.158 38.162 447.438 39.4593 447.438 40.9713C447.438 42.4646 447.158 43.762 446.598 44.8633C446.056 45.946 445.282 46.786 444.274 47.3833C443.284 47.962 442.108 48.2513 440.746 48.2513ZM440.746 46.4033C442.09 46.4033 443.154 45.946 443.938 45.0313C444.722 44.098 445.114 42.7446 445.114 40.9713C445.114 39.1793 444.712 37.826 443.91 36.9113C443.126 35.978 442.071 35.5113 440.746 35.5113C439.42 35.5113 438.366 35.978 437.582 36.9113C436.798 37.826 436.406 39.1793 436.406 40.9713C436.406 42.7446 436.798 44.098 437.582 45.0313C438.366 45.946 439.42 46.4033 440.746 46.4033ZM450.974 47.9993V27.3913H453.242V47.9993H450.974ZM463.414 48.2513C462.07 48.2513 460.894 47.962 459.886 47.3833C458.896 46.786 458.131 45.946 457.59 44.8633C457.048 43.762 456.778 42.4646 456.778 40.9713C456.778 39.4593 457.048 38.162 457.59 37.0793C458.131 35.9966 458.896 35.166 459.886 34.5873C460.894 33.99 462.07 33.6913 463.414 33.6913C464.776 33.6913 465.952 33.99 466.942 34.5873C467.95 35.166 468.724 35.9966 469.266 37.0793C469.826 38.162 470.106 39.4593 470.106 40.9713C470.106 42.4646 469.826 43.762 469.266 44.8633C468.724 45.946 467.95 46.786 466.942 47.3833C465.952 47.962 464.776 48.2513 463.414 48.2513ZM463.414 46.4033C464.758 46.4033 465.822 45.946 466.606 45.0313C467.39 44.098 467.782 42.7446 467.782 40.9713C467.782 39.1793 467.38 37.826 466.578 36.9113C465.794 35.978 464.739 35.5113 463.414 35.5113C462.088 35.5113 461.034 35.978 460.25 36.9113C459.466 37.826 459.074 39.1793 459.074 40.9713C459.074 42.7446 459.466 44.098 460.25 45.0313C461.034 45.946 462.088 46.4033 463.414 46.4033ZM473.586 47.9993V37.3313C473.586 36.7713 473.567 36.202 473.53 35.6233C473.511 35.0446 473.474 34.4846 473.418 33.9433H475.602L475.882 37.3593L475.49 37.3873C475.676 36.5473 476.003 35.8566 476.47 35.3153C476.936 34.774 477.487 34.3726 478.122 34.1113C478.756 33.8313 479.419 33.6913 480.11 33.6913C480.39 33.6913 480.632 33.7006 480.838 33.7193C481.062 33.738 481.267 33.7846 481.454 33.8593L481.426 35.8753C481.146 35.782 480.884 35.726 480.642 35.7073C480.418 35.67 480.156 35.6513 479.858 35.6513C479.036 35.6513 478.318 35.8473 477.702 36.2393C477.104 36.6313 476.647 37.1353 476.33 37.7513C476.031 38.3673 475.882 39.0206 475.882 39.7113V47.9993H473.586ZM495.79 48.2513C494.67 48.2513 493.625 48.102 492.654 47.8033C491.684 47.486 490.881 47.0473 490.246 46.4873L491.03 44.8913C491.721 45.4326 492.468 45.834 493.27 46.0953C494.092 46.3566 494.941 46.4873 495.818 46.4873C496.938 46.4873 497.778 46.2913 498.338 45.8993C498.917 45.4886 499.206 44.9286 499.206 44.2193C499.206 43.678 499.02 43.2486 498.646 42.9313C498.292 42.5953 497.704 42.334 496.882 42.1473L494.278 41.6153C493.084 41.354 492.188 40.9153 491.59 40.2993C490.993 39.6646 490.694 38.862 490.694 37.8913C490.694 37.07 490.909 36.3513 491.338 35.7353C491.768 35.1006 492.393 34.606 493.214 34.2513C494.036 33.878 494.997 33.6913 496.098 33.6913C497.125 33.6913 498.068 33.85 498.926 34.1673C499.804 34.466 500.532 34.9046 501.11 35.4833L500.298 37.0513C499.738 36.51 499.094 36.1086 498.366 35.8473C497.657 35.5673 496.92 35.4273 496.154 35.4273C495.053 35.4273 494.222 35.6513 493.662 36.0993C493.121 36.5286 492.85 37.098 492.85 37.8073C492.85 38.3486 493.018 38.7966 493.354 39.1513C493.709 39.4873 494.25 39.7393 494.978 39.9073L497.582 40.4393C498.852 40.7193 499.794 41.158 500.41 41.7553C501.045 42.334 501.362 43.118 501.362 44.1073C501.362 44.9473 501.129 45.6846 500.662 46.3193C500.196 46.9353 499.542 47.4113 498.702 47.7473C497.881 48.0833 496.91 48.2513 495.79 48.2513ZM510.913 48.2513C509.532 48.2513 508.328 47.9526 507.301 47.3553C506.293 46.758 505.509 45.9086 504.949 44.8073C504.408 43.706 504.137 42.3993 504.137 40.8873C504.137 39.3566 504.417 38.0593 504.977 36.9953C505.537 35.9126 506.321 35.0913 507.329 34.5313C508.356 33.9713 509.55 33.6913 510.913 33.6913C511.809 33.6913 512.677 33.85 513.517 34.1673C514.376 34.4846 515.085 34.9326 515.645 35.5113L514.833 37.1353C514.273 36.594 513.657 36.1926 512.985 35.9313C512.332 35.67 511.688 35.5393 511.053 35.5393C509.597 35.5393 508.468 35.9966 507.665 36.9113C506.862 37.826 506.461 39.1606 506.461 40.9153C506.461 42.6513 506.862 43.9953 507.665 44.9473C508.468 45.8993 509.597 46.3753 511.053 46.3753C511.669 46.3753 512.304 46.254 512.957 46.0113C513.629 45.7686 514.254 45.3673 514.833 44.8073L515.645 46.4033C515.066 47.0006 514.348 47.458 513.489 47.7753C512.63 48.0926 511.772 48.2513 510.913 48.2513ZM518.868 47.9993V27.3913H521.136V37.0513H520.772C521.164 35.95 521.818 35.1193 522.732 34.5593C523.666 33.9806 524.739 33.6913 525.952 33.6913C527.632 33.6913 528.883 34.1486 529.704 35.0633C530.526 35.9593 530.936 37.322 530.936 39.1513V47.9993H528.668V39.2913C528.668 37.9846 528.407 37.0326 527.884 36.4353C527.38 35.838 526.559 35.5393 525.42 35.5393C524.114 35.5393 523.068 35.9406 522.284 36.7433C521.519 37.546 521.136 38.6006 521.136 39.9073V47.9993H518.868ZM541.519 48.2513C539.316 48.2513 537.58 47.6166 536.311 46.3473C535.041 45.0593 534.407 43.2766 534.407 40.9993C534.407 39.5246 534.687 38.246 535.247 37.1633C535.807 36.062 536.591 35.2126 537.599 34.6153C538.607 33.9993 539.764 33.6913 541.071 33.6913C542.359 33.6913 543.441 33.962 544.319 34.5033C545.196 35.0446 545.868 35.8193 546.335 36.8273C546.801 37.8166 547.035 38.9926 547.035 40.3553V41.1953H536.143V39.7673H545.551L545.075 40.1313C545.075 38.638 544.739 37.4713 544.067 36.6313C543.395 35.7913 542.396 35.3713 541.071 35.3713C539.671 35.3713 538.579 35.866 537.795 36.8553C537.011 37.826 536.619 39.142 536.619 40.8033V41.0553C536.619 42.81 537.048 44.1446 537.907 45.0593C538.784 45.9553 540.007 46.4033 541.575 46.4033C542.415 46.4033 543.199 46.282 543.927 46.0393C544.673 45.778 545.383 45.358 546.055 44.7793L546.839 46.3753C546.223 46.9726 545.439 47.4393 544.487 47.7753C543.553 48.0926 542.564 48.2513 541.519 48.2513ZM550.505 47.9993V37.1913C550.505 36.6686 550.477 36.1366 550.421 35.5953C550.384 35.0353 550.337 34.4846 550.281 33.9433H552.465L552.745 37.0233H552.409C552.782 35.9593 553.37 35.138 554.173 34.5593C554.994 33.9806 555.984 33.6913 557.141 33.6913C558.317 33.6913 559.269 33.9713 559.997 34.5313C560.744 35.0913 561.248 35.9593 561.509 37.1353H561.089C561.444 36.0713 562.069 35.2313 562.965 34.6153C563.861 33.9993 564.906 33.6913 566.101 33.6913C567.65 33.6913 568.817 34.1393 569.601 35.0353C570.385 35.9126 570.777 37.3033 570.777 39.2073V47.9993H568.509V39.3473C568.509 38.022 568.276 37.0606 567.809 36.4633C567.342 35.8473 566.596 35.5393 565.569 35.5393C564.393 35.5393 563.46 35.95 562.769 36.7713C562.097 37.574 561.761 38.6566 561.761 40.0193V47.9993H559.493V39.3473C559.493 38.022 559.26 37.0606 558.793 36.4633C558.326 35.8473 557.58 35.5393 556.553 35.5393C555.377 35.5393 554.453 35.95 553.781 36.7713C553.109 37.574 552.773 38.6566 552.773 40.0193V47.9993H550.505ZM581.331 48.2513C579.128 48.2513 577.392 47.6166 576.123 46.3473C574.854 45.0593 574.219 43.2766 574.219 40.9993C574.219 39.5246 574.499 38.246 575.059 37.1633C575.619 36.062 576.403 35.2126 577.411 34.6153C578.419 33.9993 579.576 33.6913 580.883 33.6913C582.171 33.6913 583.254 33.962 584.131 34.5033C585.008 35.0446 585.68 35.8193 586.147 36.8273C586.614 37.8166 586.847 38.9926 586.847 40.3553V41.1953H575.955V39.7673H585.363L584.887 40.1313C584.887 38.638 584.551 37.4713 583.879 36.6313C583.207 35.7913 582.208 35.3713 580.883 35.3713C579.483 35.3713 578.391 35.866 577.607 36.8553C576.823 37.826 576.431 39.142 576.431 40.8033V41.0553C576.431 42.81 576.86 44.1446 577.719 45.0593C578.596 45.9553 579.819 46.4033 581.387 46.4033C582.227 46.4033 583.011 46.282 583.739 46.0393C584.486 45.778 585.195 45.358 585.867 44.7793L586.651 46.3753C586.035 46.9726 585.251 47.4393 584.299 47.7753C583.366 48.0926 582.376 48.2513 581.331 48.2513ZM601.37 47.9993L596.162 33.9433H598.57L602.91 46.3193H602.182L606.662 33.9433H608.622L613.018 46.3193H612.318L616.686 33.9433H618.982L613.746 47.9993H611.562L607.026 35.4273H608.146L603.582 47.9993H601.37ZM621.954 47.9993V27.3913H624.222V37.0513H623.858C624.25 35.95 624.904 35.1193 625.818 34.5593C626.752 33.9806 627.825 33.6913 629.038 33.6913C630.718 33.6913 631.969 34.1486 632.79 35.0633C633.612 35.9593 634.022 37.322 634.022 39.1513V47.9993H631.754V39.2913C631.754 37.9846 631.493 37.0326 630.97 36.4353C630.466 35.838 629.645 35.5393 628.506 35.5393C627.2 35.5393 626.154 35.9406 625.37 36.7433C624.605 37.546 624.222 38.6006 624.222 39.9073V47.9993H621.954ZM644.604 48.2513C642.402 48.2513 640.666 47.6166 639.396 46.3473C638.127 45.0593 637.492 43.2766 637.492 40.9993C637.492 39.5246 637.772 38.246 638.332 37.1633C638.892 36.062 639.676 35.2126 640.684 34.6153C641.692 33.9993 642.85 33.6913 644.156 33.6913C645.444 33.6913 646.527 33.962 647.404 34.5033C648.282 35.0446 648.954 35.8193 649.42 36.8273C649.887 37.8166 650.12 38.9926 650.12 40.3553V41.1953H639.228V39.7673H648.636L648.16 40.1313C648.16 38.638 647.824 37.4713 647.152 36.6313C646.48 35.7913 645.482 35.3713 644.156 35.3713C642.756 35.3713 641.664 35.866 640.88 36.8553C640.096 37.826 639.704 39.142 639.704 40.8033V41.0553C639.704 42.81 640.134 44.1446 640.992 45.0593C641.87 45.9553 643.092 46.4033 644.66 46.4033C645.5 46.4033 646.284 46.282 647.012 46.0393C647.759 45.778 648.468 45.358 649.14 44.7793L649.924 46.3753C649.308 46.9726 648.524 47.4393 647.572 47.7753C646.639 48.0926 645.65 48.2513 644.604 48.2513ZM653.591 47.9993V37.1913C653.591 36.6686 653.563 36.1366 653.507 35.5953C653.47 35.0353 653.423 34.4846 653.367 33.9433H655.551L655.831 37.0233H655.495C655.906 35.9406 656.559 35.1193 657.455 34.5593C658.37 33.9806 659.424 33.6913 660.619 33.6913C662.28 33.6913 663.531 34.1393 664.371 35.0353C665.23 35.9126 665.659 37.3033 665.659 39.2073V47.9993H663.391V39.3473C663.391 38.022 663.12 37.0606 662.579 36.4633C662.056 35.8473 661.235 35.5393 660.115 35.5393C658.808 35.5393 657.772 35.9406 657.007 36.7433C656.242 37.546 655.859 38.6193 655.859 39.9633V47.9993H653.591ZM678.026 47.9993V35.7073H675.282V33.9433H678.642L678.026 34.5313V32.1793C678.026 30.5926 678.418 29.3793 679.202 28.5393C680.005 27.6993 681.143 27.2793 682.618 27.2793C682.973 27.2793 683.346 27.3166 683.738 27.3913C684.149 27.4473 684.494 27.5313 684.774 27.6433V29.5193C684.55 29.426 684.27 29.3513 683.934 29.2953C683.617 29.2206 683.29 29.1833 682.954 29.1833C682.077 29.1833 681.414 29.4446 680.966 29.9673C680.518 30.49 680.294 31.2926 680.294 32.3753V34.4193L679.93 33.9433H688.946V47.9993H686.678V35.7073H680.294V47.9993H678.026ZM686.426 30.7513V28.2033H689.226V30.7513H686.426ZM693.376 47.9993V37.1913C693.376 36.6686 693.348 36.1366 693.292 35.5953C693.255 35.0353 693.208 34.4846 693.152 33.9433H695.336L695.616 37.0233H695.28C695.691 35.9406 696.344 35.1193 697.24 34.5593C698.155 33.9806 699.209 33.6913 700.404 33.6913C702.065 33.6913 703.316 34.1393 704.156 35.0353C705.015 35.9126 705.444 37.3033 705.444 39.2073V47.9993H703.176V39.3473C703.176 38.022 702.905 37.0606 702.364 36.4633C701.841 35.8473 701.02 35.5393 699.9 35.5393C698.593 35.5393 697.557 35.9406 696.792 36.7433C696.027 37.546 695.644 38.6193 695.644 39.9633V47.9993H693.376ZM709.782 47.9993V33.9433H712.05V47.9993H709.782ZM709.502 30.7513V28.2033H712.302V30.7513H709.502ZM721.13 48.2513C720.01 48.2513 718.965 48.102 717.994 47.8033C717.024 47.486 716.221 47.0473 715.586 46.4873L716.37 44.8913C717.061 45.4326 717.808 45.834 718.61 46.0953C719.432 46.3566 720.281 46.4873 721.158 46.4873C722.278 46.4873 723.118 46.2913 723.678 45.8993C724.257 45.4886 724.546 44.9286 724.546 44.2193C724.546 43.678 724.36 43.2486 723.986 42.9313C723.632 42.5953 723.044 42.334 722.222 42.1473L719.618 41.6153C718.424 41.354 717.528 40.9153 716.93 40.2993C716.333 39.6646 716.034 38.862 716.034 37.8913C716.034 37.07 716.249 36.3513 716.678 35.7353C717.108 35.1006 717.733 34.606 718.554 34.2513C719.376 33.878 720.337 33.6913 721.438 33.6913C722.465 33.6913 723.408 33.85 724.266 34.1673C725.144 34.466 725.872 34.9046 726.45 35.4833L725.638 37.0513C725.078 36.51 724.434 36.1086 723.706 35.8473C722.997 35.5673 722.26 35.4273 721.494 35.4273C720.393 35.4273 719.562 35.6513 719.002 36.0993C718.461 36.5286 718.19 37.098 718.19 37.8073C718.19 38.3486 718.358 38.7966 718.694 39.1513C719.049 39.4873 719.59 39.7393 720.318 39.9073L722.922 40.4393C724.192 40.7193 725.134 41.158 725.75 41.7553C726.385 42.334 726.702 43.118 726.702 44.1073C726.702 44.9473 726.469 45.6846 726.002 46.3193C725.536 46.9353 724.882 47.4113 724.042 47.7473C723.221 48.0833 722.25 48.2513 721.13 48.2513ZM730.345 47.9993V27.3913H732.613V37.0513H732.249C732.641 35.95 733.294 35.1193 734.209 34.5593C735.142 33.9806 736.215 33.6913 737.429 33.6913C739.109 33.6913 740.359 34.1486 741.181 35.0633C742.002 35.9593 742.413 37.322 742.413 39.1513V47.9993H740.145V39.2913C740.145 37.9846 739.883 37.0326 739.361 36.4353C738.857 35.838 738.035 35.5393 736.897 35.5393C735.59 35.5393 734.545 35.9406 733.761 36.7433C732.995 37.546 732.613 38.6006 732.613 39.9073V47.9993H730.345ZM752.995 48.2513C750.792 48.2513 749.056 47.6166 747.787 46.3473C746.518 45.0593 745.883 43.2766 745.883 40.9993C745.883 39.5246 746.163 38.246 746.723 37.1633C747.283 36.062 748.067 35.2126 749.075 34.6153C750.083 33.9993 751.24 33.6913 752.547 33.6913C753.835 33.6913 754.918 33.962 755.795 34.5033C756.672 35.0446 757.344 35.8193 757.811 36.8273C758.278 37.8166 758.511 38.9926 758.511 40.3553V41.1953H747.619V39.7673H757.027L756.551 40.1313C756.551 38.638 756.215 37.4713 755.543 36.6313C754.871 35.7913 753.872 35.3713 752.547 35.3713C751.147 35.3713 750.055 35.866 749.271 36.8553C748.487 37.826 748.095 39.142 748.095 40.8033V41.0553C748.095 42.81 748.524 44.1446 749.383 45.0593C750.26 45.9553 751.483 46.4033 753.051 46.4033C753.891 46.4033 754.675 46.282 755.403 46.0393C756.15 45.778 756.859 45.358 757.531 44.7793L758.315 46.3753C757.699 46.9726 756.915 47.4393 755.963 47.7753C755.03 48.0926 754.04 48.2513 752.995 48.2513ZM767.302 48.2513C766.07 48.2513 764.987 47.962 764.054 47.3833C763.12 46.786 762.392 45.946 761.87 44.8633C761.366 43.7806 761.114 42.4833 761.114 40.9713C761.114 39.4406 761.366 38.134 761.87 37.0513C762.392 35.9686 763.12 35.138 764.054 34.5593C764.987 33.9806 766.07 33.6913 767.302 33.6913C768.571 33.6913 769.663 34.0086 770.578 34.6433C771.511 35.278 772.136 36.1366 772.454 37.2193H772.118V27.3913H774.386V47.9993H772.146V44.6393H772.454C772.155 45.7593 771.539 46.646 770.606 47.2993C769.672 47.934 768.571 48.2513 767.302 48.2513ZM767.778 46.4033C769.103 46.4033 770.167 45.946 770.97 45.0313C771.772 44.098 772.174 42.7446 772.174 40.9713C772.174 39.1793 771.772 37.826 770.97 36.9113C770.167 35.978 769.103 35.5113 767.778 35.5113C766.452 35.5113 765.388 35.978 764.586 36.9113C763.802 37.826 763.41 39.1793 763.41 40.9713C763.41 42.7446 763.802 44.098 764.586 45.0313C765.388 45.946 766.452 46.4033 767.778 46.4033Z" fill="black"/>
</g>
<defs>
<clipPath id="clip0_767_1356">
<rect width="785" height="74" fill="white"/>
</clipPath>
</defs>
</svg>
