<svg width="594" height="102" viewBox="0 0 594 102" fill="none" xmlns="http://www.w3.org/2000/svg">
<rect x="1" y="1.82422" width="592" height="99" stroke="#D3D6D7" stroke-width="2"/>
<rect x="2" y="2.82422" width="590" height="97" fill="#FCFCFC"/>
<path d="M19.8896 21.7021H21.6738V33.3301H28.0107V34.8242H19.8896V21.7021ZM35.5556 29.876H35.0195C34.0761 29.876 33.3642 30.043 32.8837 30.377C32.4091 30.7051 32.1718 31.1973 32.1718 31.8535C32.1718 32.4453 32.3505 32.9053 32.708 33.2334C33.0654 33.5615 33.5605 33.7256 34.1933 33.7256C35.0839 33.7256 35.7841 33.418 36.2939 32.8027C36.8037 32.1816 37.0615 31.3262 37.0673 30.2363V29.876H35.5556ZM38.6933 29.208V34.8242H37.0673V33.3652C36.7216 33.9512 36.2851 34.3848 35.7578 34.666C35.2363 34.9414 34.6005 35.0791 33.8505 35.0791C32.8486 35.0791 32.0488 34.7979 31.4511 34.2354C30.8535 33.667 30.5546 32.9082 30.5546 31.959C30.5546 30.8633 30.9209 30.0312 31.6533 29.4629C32.3916 28.8945 33.4726 28.6104 34.8964 28.6104H37.0673V28.3555C37.0615 27.5703 36.8623 27.002 36.4697 26.6504C36.0771 26.293 35.4502 26.1143 34.5888 26.1143C34.038 26.1143 33.4814 26.1934 32.9189 26.3516C32.3564 26.5098 31.8086 26.7412 31.2754 27.0459V25.4287C31.873 25.2002 32.4443 25.0303 32.9892 24.9189C33.54 24.8018 34.0732 24.7432 34.5888 24.7432C35.4033 24.7432 36.0976 24.8633 36.6718 25.1035C37.2519 25.3438 37.7207 25.7041 38.0781 26.1846C38.3007 26.4775 38.4589 26.8408 38.5527 27.2744C38.6464 27.7021 38.6933 28.3467 38.6933 29.208ZM49.3232 25.3232V26.9053C48.8603 26.6357 48.3945 26.4336 47.9257 26.2988C47.457 26.1641 46.9794 26.0967 46.4931 26.0967C45.7607 26.0967 45.2128 26.2168 44.8495 26.457C44.4921 26.6914 44.3134 27.0518 44.3134 27.5381C44.3134 27.9775 44.4482 28.3057 44.7177 28.5225C44.9872 28.7393 45.6581 28.9502 46.7304 29.1553L47.3808 29.2783C48.1835 29.4307 48.79 29.7354 49.2001 30.1924C49.6161 30.6494 49.8241 31.2441 49.8241 31.9766C49.8241 32.9492 49.4784 33.7109 48.787 34.2617C48.0956 34.8066 47.1347 35.0791 45.9042 35.0791C45.4179 35.0791 44.9081 35.0264 44.3749 34.9209C43.8417 34.8213 43.2646 34.6689 42.6435 34.4639V32.7939C43.247 33.1045 43.8241 33.3389 44.3749 33.4971C44.9257 33.6494 45.4472 33.7256 45.9394 33.7256C46.6542 33.7256 47.2079 33.582 47.6005 33.2949C47.9931 33.002 48.1894 32.5947 48.1894 32.0732C48.1894 31.3232 47.4716 30.8047 46.0361 30.5176L45.9657 30.5L45.3593 30.377C44.4277 30.1953 43.748 29.8906 43.3202 29.4629C42.8925 29.0293 42.6786 28.4404 42.6786 27.6963C42.6786 26.7529 42.998 26.0264 43.6366 25.5166C44.2753 25.001 45.1864 24.7432 46.37 24.7432C46.8974 24.7432 47.4042 24.793 47.8905 24.8926C48.3769 24.9863 48.8544 25.1299 49.3232 25.3232ZM57.5536 22.1855V24.9805H61.2274V26.2373H57.5536V31.5811C57.5536 32.3076 57.6913 32.8145 57.9667 33.1016C58.2421 33.3887 58.7225 33.5322 59.4081 33.5322H61.2274V34.8242H59.2499C58.037 34.8242 57.1815 34.5811 56.6835 34.0947C56.1854 33.6084 55.9364 32.7705 55.9364 31.5811V26.2373H53.3085V24.9805H55.9364V22.1855H57.5536ZM80.5447 31.2559C80.5447 31.9824 80.6766 32.5303 80.9402 32.8994C81.2098 33.2686 81.6053 33.4531 82.1268 33.4531H84.0164V34.8242H81.9686C81.0018 34.8242 80.2518 34.5137 79.7186 33.8926C79.1912 33.2715 78.9275 32.3926 78.9275 31.2559V22.3174H76.3348V21.0518H80.5447V31.2559ZM91.7283 26.1143C90.908 26.1143 90.2869 26.4336 89.865 27.0723C89.4431 27.7109 89.2322 28.6572 89.2322 29.9111C89.2322 31.1592 89.4431 32.1055 89.865 32.75C90.2869 33.3887 90.908 33.708 91.7283 33.708C92.5545 33.708 93.1785 33.3887 93.6003 32.75C94.0222 32.1055 94.2332 31.1592 94.2332 29.9111C94.2332 28.6572 94.0222 27.7109 93.6003 27.0723C93.1785 26.4336 92.5545 26.1143 91.7283 26.1143ZM91.7283 24.7432C93.0935 24.7432 94.1365 25.1855 94.8572 26.0703C95.5837 26.9551 95.947 28.2354 95.947 29.9111C95.947 31.5928 95.5867 32.876 94.866 33.7607C94.1453 34.6396 93.0994 35.0791 91.7283 35.0791C90.363 35.0791 89.3201 34.6396 88.5994 33.7607C87.8787 32.876 87.5183 31.5928 87.5183 29.9111C87.5183 28.2354 87.8787 26.9551 88.5994 26.0703C89.3201 25.1855 90.363 24.7432 91.7283 24.7432ZM105.241 29.8232C105.241 28.6104 105.042 27.6904 104.643 27.0635C104.251 26.4307 103.676 26.1143 102.921 26.1143C102.13 26.1143 101.526 26.4307 101.11 27.0635C100.694 27.6904 100.486 28.6104 100.486 29.8232C100.486 31.0361 100.694 31.9619 101.11 32.6006C101.532 33.2334 102.141 33.5498 102.938 33.5498C103.682 33.5498 104.251 33.2305 104.643 32.5918C105.042 31.9531 105.241 31.0303 105.241 29.8232ZM106.858 34.1914C106.858 35.668 106.509 36.7871 105.812 37.5488C105.115 38.3105 104.09 38.6914 102.736 38.6914C102.291 38.6914 101.825 38.6504 101.339 38.5684C100.852 38.4863 100.366 38.3662 99.8796 38.208V36.6084C100.454 36.8779 100.975 37.0771 101.444 37.2061C101.913 37.335 102.343 37.3994 102.736 37.3994C103.609 37.3994 104.245 37.1621 104.643 36.6875C105.042 36.2129 105.241 35.46 105.241 34.4287V34.3584V33.2598C104.983 33.8105 104.632 34.2207 104.186 34.4902C103.741 34.7598 103.199 34.8945 102.56 34.8945C101.412 34.8945 100.495 34.4346 99.8093 33.5146C99.1237 32.5947 98.781 31.3643 98.781 29.8232C98.781 28.2764 99.1237 27.043 99.8093 26.123C100.495 25.2031 101.412 24.7432 102.56 24.7432C103.193 24.7432 103.729 24.8691 104.169 25.1211C104.608 25.373 104.966 25.7627 105.241 26.29V25.0156H106.858V34.1914ZM111.336 24.9805H115.475V33.5674H118.683V34.8242H110.65V33.5674H113.858V26.2373H111.336V24.9805ZM113.858 21.1484H115.475V23.1963H113.858V21.1484ZM129.709 28.7246V34.8242H128.083V28.7246C128.083 27.8398 127.927 27.1895 127.617 26.7734C127.306 26.3574 126.82 26.1494 126.158 26.1494C125.402 26.1494 124.819 26.4189 124.409 26.958C124.005 27.4912 123.802 28.2588 123.802 29.2607V34.8242H122.185V24.9805H123.802V26.457C124.089 25.8945 124.479 25.4697 124.971 25.1826C125.464 24.8896 126.047 24.7432 126.72 24.7432C127.722 24.7432 128.469 25.0742 128.962 25.7363C129.46 26.3926 129.709 27.3887 129.709 28.7246ZM136.155 25.4814H138.37V28.1445H136.155V25.4814ZM136.155 32.1436H138.37V34.8242H136.155V32.1436ZM156.676 21.7021H164.402V23.1963H158.46V27.0635H163.848V28.5576H158.46V34.8242H156.676V21.7021ZM176.166 27.0107C175.82 26.7412 175.468 26.5449 175.111 26.4219C174.753 26.2988 174.361 26.2373 173.933 26.2373C172.925 26.2373 172.155 26.5537 171.622 27.1865C171.088 27.8193 170.822 28.7334 170.822 29.9287V34.8242H169.196V24.9805H170.822V26.9053C171.091 26.208 171.504 25.6748 172.061 25.3057C172.624 24.9307 173.289 24.7432 174.056 24.7432C174.455 24.7432 174.827 24.793 175.172 24.8926C175.518 24.9922 175.849 25.1475 176.166 25.3584V27.0107ZM179.65 24.9805H183.789V33.5674H186.997V34.8242H178.964V33.5674H182.172V26.2373H179.65V24.9805ZM182.172 21.1484H183.789V23.1963H182.172V21.1484ZM200.927 21.7021H203.3L205.568 28.3818L207.853 21.7021H210.235V34.8242H208.591V23.2314L206.253 30.1484H204.909L202.562 23.2314V34.8242H200.927V21.7021ZM217.727 29.876H217.191C216.247 29.876 215.535 30.043 215.055 30.377C214.58 30.7051 214.343 31.1973 214.343 31.8535C214.343 32.4453 214.522 32.9053 214.879 33.2334C215.237 33.5615 215.732 33.7256 216.365 33.7256C217.255 33.7256 217.955 33.418 218.465 32.8027C218.975 32.1816 219.233 31.3262 219.239 30.2363V29.876H217.727ZM220.865 29.208V34.8242H219.239V33.3652C218.893 33.9512 218.456 34.3848 217.929 34.666C217.408 34.9414 216.772 35.0791 216.022 35.0791C215.02 35.0791 214.22 34.7979 213.622 34.2354C213.025 33.667 212.726 32.9082 212.726 31.959C212.726 30.8633 213.092 30.0312 213.825 29.4629C214.563 28.8945 215.644 28.6104 217.068 28.6104H219.239V28.3555C219.233 27.5703 219.034 27.002 218.641 26.6504C218.248 26.293 217.621 26.1143 216.76 26.1143C216.209 26.1143 215.653 26.1934 215.09 26.3516C214.528 26.5098 213.98 26.7412 213.447 27.0459V25.4287C214.044 25.2002 214.616 25.0303 215.16 24.9189C215.711 24.8018 216.244 24.7432 216.76 24.7432C217.575 24.7432 218.269 24.8633 218.843 25.1035C219.423 25.3438 219.892 25.7041 220.249 26.1846C220.472 26.4775 220.63 26.8408 220.724 27.2744C220.818 27.7021 220.865 28.3467 220.865 29.208ZM230.484 31.6602C230.214 32.3457 229.871 33.248 229.455 34.3672C228.875 35.9141 228.486 36.8574 228.286 37.1973C228.017 37.6543 227.68 37.9971 227.276 38.2256C226.871 38.4541 226.4 38.5684 225.861 38.5684H224.56V37.2148H225.518C225.992 37.2148 226.365 37.0771 226.634 36.8018C226.904 36.5264 227.246 35.8145 227.662 34.666L223.857 24.9805H225.571L228.489 32.6797L231.363 24.9805H233.076L230.484 31.6602ZM248.992 33.3301H255.022V34.8242H247.05V33.3301C248.146 32.1758 249.104 31.1562 249.924 30.2715C250.744 29.3867 251.31 28.7627 251.62 28.3994C252.206 27.6846 252.602 27.1074 252.807 26.668C253.012 26.2227 253.114 25.7686 253.114 25.3057C253.114 24.5732 252.898 23.999 252.464 23.583C252.036 23.167 251.447 22.959 250.697 22.959C250.164 22.959 249.605 23.0557 249.019 23.249C248.433 23.4424 247.812 23.7354 247.155 24.1279V22.335C247.759 22.0479 248.351 21.8311 248.931 21.6846C249.517 21.5381 250.094 21.4648 250.662 21.4648C251.946 21.4648 252.977 21.8076 253.756 22.4932C254.541 23.1729 254.934 24.0664 254.934 25.1738C254.934 25.7363 254.802 26.2988 254.538 26.8613C254.28 27.4238 253.859 28.0449 253.273 28.7246C252.945 29.1055 252.467 29.6328 251.84 30.3066C251.219 30.9805 250.27 31.9883 248.992 33.3301ZM265.81 21.9922V23.627C265.441 23.4102 265.048 23.2461 264.632 23.1348C264.216 23.0176 263.782 22.959 263.331 22.959C262.206 22.959 261.354 23.3838 260.774 24.2334C260.194 25.0771 259.903 26.3223 259.903 27.9688C260.185 27.3828 260.574 26.9346 261.072 26.624C261.57 26.3076 262.142 26.1494 262.786 26.1494C264.052 26.1494 265.03 26.5391 265.722 27.3184C266.419 28.0918 266.768 29.1904 266.768 30.6143C266.768 32.0322 266.41 33.1309 265.695 33.9102C264.981 34.6895 263.976 35.0791 262.681 35.0791C261.157 35.0791 260.041 34.5342 259.332 33.4443C258.623 32.3486 258.269 30.626 258.269 28.2764C258.269 26.0615 258.694 24.374 259.543 23.2139C260.399 22.0479 261.635 21.4648 263.252 21.4648C263.686 21.4648 264.119 21.5117 264.553 21.6055C264.986 21.6934 265.405 21.8223 265.81 21.9922ZM262.646 27.5381C261.89 27.5381 261.295 27.8105 260.861 28.3555C260.428 28.9004 260.211 29.6533 260.211 30.6143C260.211 31.5752 260.428 32.3281 260.861 32.873C261.295 33.418 261.89 33.6904 262.646 33.6904C263.431 33.6904 264.023 33.4326 264.421 32.917C264.819 32.3955 265.019 31.6279 265.019 30.6143C265.019 29.5947 264.819 28.8271 264.421 28.3115C264.023 27.7959 263.431 27.5381 262.646 27.5381ZM282.244 33.3301H285.004V23.3018L282.033 23.9697V22.3525L284.986 21.7021H286.762V33.3301H289.486V34.8242H282.244V33.3301ZM297.717 23.3193L293.577 30.2539H297.717V23.3193ZM297.427 21.7021H299.483V30.2539H301.232V31.6953H299.483V34.8242H297.717V31.6953H292.153V30.0166L297.427 21.7021ZM306.94 25.4814H309.155V28.1445H306.94V25.4814ZM306.94 32.1436H309.155V34.8242H306.94V32.1436ZM317.307 33.3301H323.336V34.8242H315.364V33.3301C316.46 32.1758 317.418 31.1562 318.238 30.2715C319.059 29.3867 319.624 28.7627 319.935 28.3994C320.52 27.6846 320.916 27.1074 321.121 26.668C321.326 26.2227 321.429 25.7686 321.429 25.3057C321.429 24.5732 321.212 23.999 320.778 23.583C320.351 23.167 319.762 22.959 319.012 22.959C318.478 22.959 317.919 23.0557 317.333 23.249C316.747 23.4424 316.126 23.7354 315.47 24.1279V22.335C316.073 22.0479 316.665 21.8311 317.245 21.6846C317.831 21.5381 318.408 21.4648 318.977 21.4648C320.26 21.4648 321.291 21.8076 322.07 22.4932C322.855 23.1729 323.248 24.0664 323.248 25.1738C323.248 25.7363 323.116 26.2988 322.853 26.8613C322.595 27.4238 322.173 28.0449 321.587 28.7246C321.259 29.1055 320.781 29.6328 320.154 30.3066C319.533 30.9805 318.584 31.9883 317.307 33.3301ZM331.874 23.3193L327.734 30.2539H331.874V23.3193ZM331.584 21.7021H333.641V30.2539H335.39V31.6953H333.641V34.8242H331.874V31.6953H326.31V30.0166L331.584 21.7021ZM341.098 25.4814H343.312V28.1445H341.098V25.4814ZM341.098 32.1436H343.312V34.8242H341.098V32.1436ZM350.005 21.7021H356.649V23.1963H351.622V26.4219C351.874 26.3281 352.126 26.2607 352.378 26.2197C352.636 26.1729 352.893 26.1494 353.151 26.1494C354.511 26.1494 355.589 26.5508 356.386 27.3535C357.182 28.1562 357.581 29.2432 357.581 30.6143C357.581 31.9971 357.162 33.0869 356.324 33.8838C355.492 34.6807 354.352 35.0791 352.905 35.0791C352.208 35.0791 351.569 35.0322 350.989 34.9385C350.415 34.8447 349.899 34.7041 349.442 34.5166V32.7148C349.981 33.0078 350.523 33.2275 351.068 33.374C351.613 33.5146 352.17 33.585 352.738 33.585C353.717 33.585 354.47 33.3271 354.997 32.8115C355.53 32.2959 355.797 31.5635 355.797 30.6143C355.797 29.6768 355.521 28.9473 354.971 28.4258C354.426 27.9043 353.664 27.6436 352.685 27.6436C352.211 27.6436 351.748 27.6992 351.297 27.8105C350.846 27.916 350.415 28.0771 350.005 28.2939V21.7021ZM366.391 27.8018C367.253 28.0303 367.912 28.4375 368.369 29.0234C368.826 29.6035 369.055 30.3301 369.055 31.2031C369.055 32.4102 368.647 33.3594 367.833 34.0508C367.024 34.7363 365.902 35.0791 364.467 35.0791C363.863 35.0791 363.248 35.0234 362.621 34.9121C361.994 34.8008 361.379 34.6396 360.775 34.4287V32.6621C361.373 32.9727 361.962 33.2041 362.542 33.3564C363.122 33.5088 363.699 33.585 364.273 33.585C365.246 33.585 365.993 33.3652 366.514 32.9258C367.036 32.4863 367.297 31.8535 367.297 31.0273C367.297 30.2656 367.036 29.6621 366.514 29.2168C365.993 28.7656 365.287 28.54 364.396 28.54H363.043V27.0811H364.396C365.211 27.0811 365.846 26.9023 366.304 26.5449C366.761 26.1875 366.989 25.6895 366.989 25.0508C366.989 24.377 366.775 23.8613 366.347 23.5039C365.926 23.1406 365.322 22.959 364.537 22.959C364.015 22.959 363.476 23.0176 362.92 23.1348C362.363 23.252 361.78 23.4277 361.171 23.6621V22.0273C361.88 21.8398 362.51 21.6992 363.06 21.6055C363.617 21.5117 364.109 21.4648 364.537 21.4648C365.814 21.4648 366.834 21.7871 367.596 22.4316C368.363 23.0703 368.747 23.9199 368.747 24.9805C368.747 25.7012 368.545 26.3018 368.14 26.7822C367.742 27.2627 367.159 27.6025 366.391 27.8018ZM387.757 26.1143C386.936 26.1143 386.315 26.4336 385.893 27.0723C385.471 27.7109 385.26 28.6572 385.26 29.9111C385.26 31.1592 385.471 32.1055 385.893 32.75C386.315 33.3887 386.936 33.708 387.757 33.708C388.583 33.708 389.207 33.3887 389.629 32.75C390.051 32.1055 390.261 31.1592 390.261 29.9111C390.261 28.6572 390.051 27.7109 389.629 27.0723C389.207 26.4336 388.583 26.1143 387.757 26.1143ZM387.757 24.7432C389.122 24.7432 390.165 25.1855 390.885 26.0703C391.612 26.9551 391.975 28.2354 391.975 29.9111C391.975 31.5928 391.615 32.876 390.894 33.7607C390.174 34.6396 389.128 35.0791 387.757 35.0791C386.391 35.0791 385.348 34.6396 384.628 33.7607C383.907 32.876 383.547 31.5928 383.547 29.9111C383.547 28.2354 383.907 26.9551 384.628 26.0703C385.348 25.1855 386.391 24.7432 387.757 24.7432ZM402.966 28.7246V34.8242H401.34V28.7246C401.34 27.8398 401.184 27.1895 400.874 26.7734C400.563 26.3574 400.077 26.1494 399.415 26.1494C398.659 26.1494 398.076 26.4189 397.666 26.958C397.261 27.4912 397.059 28.2588 397.059 29.2607V34.8242H395.442V24.9805H397.059V26.457C397.346 25.8945 397.736 25.4697 398.228 25.1826C398.72 24.8896 399.303 24.7432 399.977 24.7432C400.979 24.7432 401.726 25.0742 402.218 25.7363C402.716 26.3926 402.966 27.3887 402.966 28.7246ZM421.896 22.1855V24.9805H425.57V26.2373H421.896V31.5811C421.896 32.3076 422.034 32.8145 422.309 33.1016C422.585 33.3887 423.065 33.5322 423.751 33.5322H425.57V34.8242H423.592C422.379 34.8242 421.524 34.5811 421.026 34.0947C420.528 33.6084 420.279 32.7705 420.279 31.5811V26.2373H417.651V24.9805H420.279V22.1855H421.896ZM433.282 22.1855V24.9805H436.956V26.2373H433.282V31.5811C433.282 32.3076 433.419 32.8145 433.695 33.1016C433.97 33.3887 434.451 33.5322 435.136 33.5322H436.956V34.8242H434.978C433.765 34.8242 432.91 34.5811 432.412 34.0947C431.914 33.6084 431.665 32.7705 431.665 31.5811V26.2373H429.037V24.9805H431.665V22.1855H433.282ZM446.812 31.6602C446.543 32.3457 446.2 33.248 445.784 34.3672C445.204 35.9141 444.814 36.8574 444.615 37.1973C444.345 37.6543 444.008 37.9971 443.604 38.2256C443.2 38.4541 442.728 38.5684 442.189 38.5684H440.888V37.2148H441.846C442.321 37.2148 442.693 37.0771 442.962 36.8018C443.232 36.5264 443.575 35.8145 443.991 34.666L440.185 24.9805H441.899L444.817 32.6797L447.691 24.9805H449.405L446.812 31.6602ZM459.208 25.3232V26.9053C458.746 26.6357 458.28 26.4336 457.811 26.2988C457.342 26.1641 456.865 26.0967 456.378 26.0967C455.646 26.0967 455.098 26.2168 454.735 26.457C454.377 26.6914 454.199 27.0518 454.199 27.5381C454.199 27.9775 454.333 28.3057 454.603 28.5225C454.873 28.7393 455.543 28.9502 456.616 29.1553L457.266 29.2783C458.069 29.4307 458.675 29.7354 459.085 30.1924C459.501 30.6494 459.709 31.2441 459.709 31.9766C459.709 32.9492 459.364 33.7109 458.672 34.2617C457.981 34.8066 457.02 35.0791 455.79 35.0791C455.303 35.0791 454.793 35.0264 454.26 34.9209C453.727 34.8213 453.15 34.6689 452.529 34.4639V32.7939C453.132 33.1045 453.709 33.3389 454.26 33.4971C454.811 33.6494 455.332 33.7256 455.825 33.7256C456.54 33.7256 457.093 33.582 457.486 33.2949C457.878 33.002 458.075 32.5947 458.075 32.0732C458.075 31.3232 457.357 30.8047 455.921 30.5176L455.851 30.5L455.245 30.377C454.313 30.1953 453.633 29.8906 453.206 29.4629C452.778 29.0293 452.564 28.4404 452.564 27.6963C452.564 26.7529 452.883 26.0264 453.522 25.5166C454.161 25.001 455.072 24.7432 456.255 24.7432C456.783 24.7432 457.29 24.793 457.776 24.8926C458.262 24.9863 458.74 25.1299 459.208 25.3232ZM466.288 28.2324C466.288 27.9102 466.399 27.6318 466.622 27.3975C466.85 27.1631 467.122 27.0459 467.439 27.0459C467.767 27.0459 468.048 27.1631 468.283 27.3975C468.517 27.6318 468.634 27.9102 468.634 28.2324C468.634 28.5605 468.517 28.8389 468.283 29.0674C468.054 29.2959 467.773 29.4102 467.439 29.4102C467.111 29.4102 466.835 29.2988 466.613 29.0762C466.396 28.8535 466.288 28.5723 466.288 28.2324ZM467.456 22.8711C466.63 22.8711 466.012 23.3164 465.602 24.207C465.198 25.0977 464.996 26.4541 464.996 28.2764C464.996 30.0928 465.198 31.4463 465.602 32.3369C466.012 33.2275 466.63 33.6729 467.456 33.6729C468.289 33.6729 468.907 33.2275 469.311 32.3369C469.721 31.4463 469.926 30.0928 469.926 28.2764C469.926 26.4541 469.721 25.0977 469.311 24.207C468.907 23.3164 468.289 22.8711 467.456 22.8711ZM467.456 21.4648C468.857 21.4648 469.914 22.0391 470.629 23.1875C471.35 24.3359 471.71 26.0322 471.71 28.2764C471.71 30.5146 471.35 32.208 470.629 33.3564C469.914 34.5049 468.857 35.0791 467.456 35.0791C466.056 35.0791 464.998 34.5049 464.284 33.3564C463.569 32.208 463.211 30.5146 463.211 28.2764C463.211 26.0322 463.569 24.3359 464.284 23.1875C464.998 22.0391 466.056 21.4648 467.456 21.4648ZM477.673 28.2324C477.673 27.9102 477.785 27.6318 478.007 27.3975C478.236 27.1631 478.508 27.0459 478.825 27.0459C479.153 27.0459 479.434 27.1631 479.668 27.3975C479.903 27.6318 480.02 27.9102 480.02 28.2324C480.02 28.5605 479.903 28.8389 479.668 29.0674C479.44 29.2959 479.159 29.4102 478.825 29.4102C478.496 29.4102 478.221 29.2988 477.998 29.0762C477.782 28.8535 477.673 28.5723 477.673 28.2324ZM478.842 22.8711C478.016 22.8711 477.398 23.3164 476.988 24.207C476.583 25.0977 476.381 26.4541 476.381 28.2764C476.381 30.0928 476.583 31.4463 476.988 32.3369C477.398 33.2275 478.016 33.6729 478.842 33.6729C479.674 33.6729 480.292 33.2275 480.697 32.3369C481.107 31.4463 481.312 30.0928 481.312 28.2764C481.312 26.4541 481.107 25.0977 480.697 24.207C480.292 23.3164 479.674 22.8711 478.842 22.8711ZM478.842 21.4648C480.243 21.4648 481.3 22.0391 482.015 23.1875C482.736 24.3359 483.096 26.0322 483.096 28.2764C483.096 30.5146 482.736 32.208 482.015 33.3564C481.3 34.5049 480.243 35.0791 478.842 35.0791C477.442 35.0791 476.384 34.5049 475.669 33.3564C474.954 32.208 474.597 30.5146 474.597 28.2764C474.597 26.0322 474.954 24.3359 475.669 23.1875C476.384 22.0391 477.442 21.4648 478.842 21.4648ZM489.059 28.2324C489.059 27.9102 489.17 27.6318 489.393 27.3975C489.621 27.1631 489.894 27.0459 490.21 27.0459C490.538 27.0459 490.82 27.1631 491.054 27.3975C491.288 27.6318 491.406 27.9102 491.406 28.2324C491.406 28.5605 491.288 28.8389 491.054 29.0674C490.826 29.2959 490.544 29.4102 490.21 29.4102C489.882 29.4102 489.607 29.2988 489.384 29.0762C489.167 28.8535 489.059 28.5723 489.059 28.2324ZM490.228 22.8711C489.402 22.8711 488.784 23.3164 488.373 24.207C487.969 25.0977 487.767 26.4541 487.767 28.2764C487.767 30.0928 487.969 31.4463 488.373 32.3369C488.784 33.2275 489.402 33.6729 490.228 33.6729C491.06 33.6729 491.678 33.2275 492.082 32.3369C492.493 31.4463 492.698 30.0928 492.698 28.2764C492.698 26.4541 492.493 25.0977 492.082 24.207C491.678 23.3164 491.06 22.8711 490.228 22.8711ZM490.228 21.4648C491.628 21.4648 492.686 22.0391 493.401 23.1875C494.121 24.3359 494.482 26.0322 494.482 28.2764C494.482 30.5146 494.121 32.208 493.401 33.3564C492.686 34.5049 491.628 35.0791 490.228 35.0791C488.828 35.0791 487.77 34.5049 487.055 33.3564C486.34 32.208 485.983 30.5146 485.983 28.2764C485.983 26.0322 486.34 24.3359 487.055 23.1875C487.77 22.0391 488.828 21.4648 490.228 21.4648ZM20.0479 67.7021H27.7734V69.1963H21.832V73.0635H27.2197V74.5576H21.832V80.8242H20.0479V67.7021ZM39.1591 75.498V76.2891H32.1543V76.3418C32.1543 77.4141 32.4326 78.2432 32.9892 78.8291C33.5517 79.415 34.3427 79.708 35.3623 79.708C35.8779 79.708 36.417 79.626 36.9795 79.4619C37.542 79.2979 38.1425 79.0488 38.7812 78.7148V80.3232C38.166 80.5752 37.5712 80.7627 36.997 80.8857C36.4287 81.0146 35.8779 81.0791 35.3447 81.0791C33.8154 81.0791 32.6201 80.6221 31.7587 79.708C30.8974 78.7881 30.4668 77.5225 30.4668 75.9111C30.4668 74.3408 30.8886 73.0869 31.7324 72.1494C32.5761 71.2119 33.7011 70.7432 35.1074 70.7432C36.3613 70.7432 37.3486 71.168 38.0693 72.0176C38.7959 72.8672 39.1591 74.0273 39.1591 75.498ZM37.542 75.0234C37.5185 74.0742 37.2929 73.3535 36.8652 72.8613C36.4433 72.3633 35.8339 72.1143 35.0371 72.1143C34.2578 72.1143 33.6162 72.3721 33.1123 72.8877C32.6084 73.4033 32.3095 74.1182 32.2158 75.0322L37.542 75.0234ZM50.0087 74.7246V80.8242H48.3827V74.7246C48.3827 73.8398 48.2275 73.1895 47.9169 72.7734C47.6064 72.3574 47.12 72.1494 46.4579 72.1494C45.7021 72.1494 45.1191 72.4189 44.7089 72.958C44.3046 73.4912 44.1025 74.2588 44.1025 75.2607V80.8242H42.4853V70.9805H44.1025V72.457C44.3896 71.8945 44.7792 71.4697 45.2714 71.1826C45.7636 70.8896 46.3466 70.7432 47.0204 70.7432C48.0224 70.7432 48.7695 71.0742 49.2616 71.7363C49.7597 72.3926 50.0087 73.3887 50.0087 74.7246ZM62.3085 73.0107C61.9628 72.7412 61.6112 72.5449 61.2538 72.4219C60.8964 72.2988 60.5038 72.2373 60.0761 72.2373C59.0682 72.2373 58.2977 72.5537 57.7645 73.1865C57.2313 73.8193 56.9647 74.7334 56.9647 75.9287V80.8242H55.3387V70.9805H56.9647V72.9053C57.2343 72.208 57.6473 71.6748 58.204 71.3057C58.7665 70.9307 59.4315 70.7432 60.1991 70.7432C60.5975 70.7432 60.9696 70.793 61.3153 70.8926C61.661 70.9922 61.9921 71.1475 62.3085 71.3584V73.0107ZM65.7928 70.9805H69.9325V79.5674H73.1405V80.8242H65.1073V79.5674H68.3153V72.2373H65.7928V70.9805ZM68.3153 67.1484H69.9325V69.1963H68.3153V67.1484ZM83.4803 71.3232V72.9053C83.0174 72.6357 82.5516 72.4336 82.0828 72.2988C81.6141 72.1641 81.1365 72.0967 80.6502 72.0967C79.9178 72.0967 79.3699 72.2168 79.0066 72.457C78.6492 72.6914 78.4705 73.0518 78.4705 73.5381C78.4705 73.9775 78.6053 74.3057 78.8748 74.5225C79.1443 74.7393 79.8152 74.9502 80.8875 75.1553L81.5379 75.2783C82.3406 75.4307 82.9471 75.7354 83.3572 76.1924C83.7732 76.6494 83.9813 77.2441 83.9813 77.9766C83.9813 78.9492 83.6355 79.7109 82.9441 80.2617C82.2527 80.8066 81.2918 81.0791 80.0613 81.0791C79.575 81.0791 79.0652 81.0264 78.532 80.9209C77.9988 80.8213 77.4217 80.6689 76.8006 80.4639V78.7939C77.4041 79.1045 77.9813 79.3389 78.532 79.4971C79.0828 79.6494 79.6043 79.7256 80.0965 79.7256C80.8113 79.7256 81.365 79.582 81.7576 79.2949C82.1502 79.002 82.3465 78.5947 82.3465 78.0732C82.3465 77.3232 81.6287 76.8047 80.1932 76.5176L80.1229 76.5L79.5164 76.377C78.5848 76.1953 77.9051 75.8906 77.4773 75.4629C77.0496 75.0293 76.8357 74.4404 76.8357 73.6963C76.8357 72.7529 77.1551 72.0264 77.7938 71.5166C78.4324 71.001 79.3436 70.7432 80.5271 70.7432C81.0545 70.7432 81.5613 70.793 82.0477 70.8926C82.534 70.9863 83.0115 71.1299 83.4803 71.3232ZM89.4431 75.1729H94.0222V76.6143H89.4431V75.1729ZM98.4558 67.7021H100.829L103.096 74.3818L105.382 67.7021H107.763V80.8242H106.12V69.2314L103.782 76.1484H102.437L100.091 69.2314V80.8242H98.4558V67.7021ZM115.256 75.876H114.719C113.776 75.876 113.064 76.043 112.584 76.377C112.109 76.7051 111.872 77.1973 111.872 77.8535C111.872 78.4453 112.05 78.9053 112.408 79.2334C112.765 79.5615 113.26 79.7256 113.893 79.7256C114.784 79.7256 115.484 79.418 115.994 78.8027C116.504 78.1816 116.761 77.3262 116.767 76.2363V75.876H115.256ZM118.393 75.208V80.8242H116.767V79.3652C116.422 79.9512 115.985 80.3848 115.458 80.666C114.936 80.9414 114.3 81.0791 113.55 81.0791C112.549 81.0791 111.749 80.7979 111.151 80.2354C110.553 79.667 110.255 78.9082 110.255 77.959C110.255 76.8633 110.621 76.0312 111.353 75.4629C112.091 74.8945 113.173 74.6104 114.596 74.6104H116.767V74.3555C116.761 73.5703 116.562 73.002 116.17 72.6504C115.777 72.293 115.15 72.1143 114.289 72.1143C113.738 72.1143 113.181 72.1934 112.619 72.3516C112.056 72.5098 111.508 72.7412 110.975 73.0459V71.4287C111.573 71.2002 112.144 71.0303 112.689 70.9189C113.24 70.8018 113.773 70.7432 114.289 70.7432C115.103 70.7432 115.798 70.8633 116.372 71.1035C116.952 71.3438 117.421 71.7041 117.778 72.1846C118.001 72.4775 118.159 72.8408 118.253 73.2744C118.346 73.7021 118.393 74.3467 118.393 75.208ZM129.797 80.3232C129.363 80.5752 128.915 80.7627 128.452 80.8857C127.995 81.0146 127.526 81.0791 127.046 81.0791C125.522 81.0791 124.33 80.6221 123.468 79.708C122.613 78.7939 122.185 77.5283 122.185 75.9111C122.185 74.2939 122.613 73.0283 123.468 72.1143C124.33 71.2002 125.522 70.7432 127.046 70.7432C127.52 70.7432 127.983 70.8047 128.434 70.9277C128.885 71.0508 129.339 71.2412 129.797 71.499V73.1953C129.369 72.8145 128.938 72.5391 128.505 72.3691C128.077 72.1992 127.59 72.1143 127.046 72.1143C126.032 72.1143 125.253 72.4424 124.708 73.0986C124.163 73.7549 123.89 74.6924 123.89 75.9111C123.89 77.124 124.163 78.0615 124.708 78.7236C125.258 79.3799 126.038 79.708 127.046 79.708C127.608 79.708 128.112 79.623 128.557 79.4531C129.003 79.2773 129.416 79.0078 129.797 78.6445V80.3232ZM135.1 74.5576V79.3652H137.201C138.232 79.3652 138.967 79.1865 139.407 78.8291C139.846 78.4658 140.066 77.8711 140.066 77.0449C140.066 76.1895 139.835 75.5625 139.372 75.1641C138.909 74.7598 138.185 74.5576 137.201 74.5576H135.1ZM135.1 69.1611V73.1162H137.166C138.021 73.1162 138.639 72.9521 139.02 72.624C139.407 72.2959 139.6 71.7656 139.6 71.0332C139.6 70.3711 139.41 69.8936 139.029 69.6006C138.654 69.3076 138.033 69.1611 137.166 69.1611H135.1ZM133.316 67.7021H137.201C138.543 67.7021 139.577 67.9922 140.303 68.5723C141.03 69.1523 141.393 69.9727 141.393 71.0332C141.393 71.8359 141.2 72.4688 140.813 72.9316C140.432 73.3945 139.858 73.6846 139.09 73.8018C139.952 73.9307 140.626 74.2998 141.112 74.9092C141.604 75.5127 141.85 76.2832 141.85 77.2207C141.85 78.4102 141.461 79.3096 140.681 79.9189C139.902 80.5225 138.742 80.8242 137.201 80.8242H133.316V67.7021ZM148.657 72.1143C147.836 72.1143 147.215 72.4336 146.794 73.0723C146.372 73.7109 146.161 74.6572 146.161 75.9111C146.161 77.1592 146.372 78.1055 146.794 78.75C147.215 79.3887 147.836 79.708 148.657 79.708C149.483 79.708 150.107 79.3887 150.529 78.75C150.951 78.1055 151.162 77.1592 151.162 75.9111C151.162 74.6572 150.951 73.7109 150.529 73.0723C150.107 72.4336 149.483 72.1143 148.657 72.1143ZM148.657 70.7432C150.022 70.7432 151.065 71.1855 151.786 72.0703C152.512 72.9551 152.876 74.2354 152.876 75.9111C152.876 77.5928 152.515 78.876 151.794 79.7607C151.074 80.6396 150.028 81.0791 148.657 81.0791C147.292 81.0791 146.249 80.6396 145.528 79.7607C144.807 78.876 144.447 77.5928 144.447 75.9111C144.447 74.2354 144.807 72.9551 145.528 72.0703C146.249 71.1855 147.292 70.7432 148.657 70.7432ZM160.042 72.1143C159.222 72.1143 158.601 72.4336 158.179 73.0723C157.757 73.7109 157.546 74.6572 157.546 75.9111C157.546 77.1592 157.757 78.1055 158.179 78.75C158.601 79.3887 159.222 79.708 160.042 79.708C160.869 79.708 161.493 79.3887 161.915 78.75C162.336 78.1055 162.547 77.1592 162.547 75.9111C162.547 74.6572 162.336 73.7109 161.915 73.0723C161.493 72.4336 160.869 72.1143 160.042 72.1143ZM160.042 70.7432C161.408 70.7432 162.451 71.1855 163.171 72.0703C163.898 72.9551 164.261 74.2354 164.261 75.9111C164.261 77.5928 163.901 78.876 163.18 79.7607C162.459 80.6396 161.414 81.0791 160.042 81.0791C158.677 81.0791 157.634 80.6396 156.914 79.7607C156.193 78.876 155.833 77.5928 155.833 75.9111C155.833 74.2354 156.193 72.9551 156.914 72.0703C157.634 71.1855 158.677 70.7432 160.042 70.7432ZM168.088 67.1484H169.758V75.0674L174.003 70.9805H175.972L172.096 74.6895L176.579 80.8242H174.601L170.962 75.7441L169.758 76.8779V80.8242H168.088V67.1484ZM180.529 75.1729H185.108V76.6143H180.529V75.1729ZM192.292 69.1611V74.0918H194.349C195.169 74.0918 195.808 73.875 196.265 73.4414C196.728 73.0078 196.959 72.4014 196.959 71.6221C196.959 70.8428 196.731 70.2393 196.274 69.8115C195.817 69.3779 195.175 69.1611 194.349 69.1611H192.292ZM190.517 67.7021H194.349C195.814 67.7021 196.924 68.0361 197.68 68.7041C198.436 69.3662 198.814 70.3389 198.814 71.6221C198.814 72.917 198.436 73.8955 197.68 74.5576C196.93 75.2197 195.82 75.5508 194.349 75.5508H192.292V80.8242H190.517V67.7021ZM210.323 73.0107C209.977 72.7412 209.625 72.5449 209.268 72.4219C208.911 72.2988 208.518 72.2373 208.09 72.2373C207.082 72.2373 206.312 72.5537 205.779 73.1865C205.245 73.8193 204.979 74.7334 204.979 75.9287V80.8242H203.353V70.9805H204.979V72.9053C205.248 72.208 205.661 71.6748 206.218 71.3057C206.781 70.9307 207.446 70.7432 208.213 70.7432C208.612 70.7432 208.984 70.793 209.329 70.8926C209.675 70.9922 210.006 71.1475 210.323 71.3584V73.0107ZM216.971 72.1143C216.151 72.1143 215.53 72.4336 215.108 73.0723C214.686 73.7109 214.475 74.6572 214.475 75.9111C214.475 77.1592 214.686 78.1055 215.108 78.75C215.53 79.3887 216.151 79.708 216.971 79.708C217.797 79.708 218.421 79.3887 218.843 78.75C219.265 78.1055 219.476 77.1592 219.476 75.9111C219.476 74.6572 219.265 73.7109 218.843 73.0723C218.421 72.4336 217.797 72.1143 216.971 72.1143ZM216.971 70.7432C218.336 70.7432 219.379 71.1855 220.1 72.0703C220.826 72.9551 221.19 74.2354 221.19 75.9111C221.19 77.5928 220.829 78.876 220.109 79.7607C219.388 80.6396 218.342 81.0791 216.971 81.0791C215.606 81.0791 214.563 80.6396 213.842 79.7607C213.121 78.876 212.761 77.5928 212.761 75.9111C212.761 74.2354 213.121 72.9551 213.842 72.0703C214.563 71.1855 215.606 70.7432 216.971 70.7432ZM227.241 71.4814H229.455V74.1445H227.241V71.4814ZM227.241 78.1436H229.455V80.8242H227.241V78.1436ZM244.392 73.9688V75.498C243.952 75.8438 243.522 76.0986 243.1 76.2627C242.684 76.4209 242.244 76.5 241.781 76.5C241.254 76.5 240.659 76.3506 239.997 76.0518C239.868 75.9932 239.772 75.9521 239.707 75.9287C239.256 75.7354 238.878 75.6035 238.573 75.5332C238.275 75.4629 237.976 75.4277 237.677 75.4277C237.214 75.4277 236.775 75.5156 236.359 75.6914C235.948 75.8613 235.53 76.1309 235.102 76.5V74.9707C235.559 74.6191 236.001 74.3643 236.429 74.2061C236.857 74.0479 237.314 73.9688 237.8 73.9688C238.111 73.9688 238.412 74.001 238.705 74.0654C238.998 74.1299 239.362 74.2529 239.795 74.4346C239.865 74.4639 239.962 74.5078 240.085 74.5664C240.765 74.8887 241.377 75.0498 241.922 75.0498C242.332 75.0498 242.737 74.9619 243.135 74.7861C243.539 74.6045 243.958 74.332 244.392 73.9688ZM266.443 67.1484V68.4932H264.606C264.026 68.4932 263.621 68.6133 263.393 68.8535C263.17 69.0879 263.059 69.5068 263.059 70.1104V70.9805H266.443V72.2373H263.059V80.8242H261.442V72.2373H258.814V70.9805H261.442V70.2949C261.442 69.2168 261.688 68.4229 262.18 67.9131C262.678 67.4033 263.451 67.1484 264.5 67.1484H266.443ZM278.259 75.498V76.2891H271.254V76.3418C271.254 77.4141 271.532 78.2432 272.089 78.8291C272.651 79.415 273.443 79.708 274.462 79.708C274.978 79.708 275.517 79.626 276.079 79.4619C276.642 79.2979 277.242 79.0488 277.881 78.7148V80.3232C277.266 80.5752 276.671 80.7627 276.097 80.8857C275.528 81.0146 274.978 81.0791 274.444 81.0791C272.915 81.0791 271.72 80.6221 270.859 79.708C269.997 78.7881 269.567 77.5225 269.567 75.9111C269.567 74.3408 269.988 73.0869 270.832 72.1494C271.676 71.2119 272.801 70.7432 274.207 70.7432C275.461 70.7432 276.448 71.168 277.169 72.0176C277.896 72.8672 278.259 74.0273 278.259 75.498ZM276.642 75.0234C276.618 74.0742 276.393 73.3535 275.965 72.8613C275.543 72.3633 274.934 72.1143 274.137 72.1143C273.358 72.1143 272.716 72.3721 272.212 72.8877C271.708 73.4033 271.409 74.1182 271.316 75.0322L276.642 75.0234ZM289.108 74.7246V80.8242H287.483V74.7246C287.483 73.8398 287.327 73.1895 287.017 72.7734C286.706 72.3574 286.22 72.1494 285.558 72.1494C284.802 72.1494 284.219 72.4189 283.809 72.958C283.404 73.4912 283.202 74.2588 283.202 75.2607V80.8242H281.585V70.9805H283.202V72.457C283.489 71.8945 283.879 71.4697 284.371 71.1826C284.863 70.8896 285.446 70.7432 286.12 70.7432C287.122 70.7432 287.869 71.0742 288.361 71.7363C288.859 72.3926 289.108 73.3887 289.108 74.7246ZM301.408 73.0107C301.063 72.7412 300.711 72.5449 300.354 72.4219C299.996 72.2988 299.604 72.2373 299.176 72.2373C298.168 72.2373 297.397 72.5537 296.864 73.1865C296.331 73.8193 296.064 74.7334 296.064 75.9287V80.8242H294.439V70.9805H296.064V72.9053C296.334 72.208 296.747 71.6748 297.304 71.3057C297.866 70.9307 298.531 70.7432 299.299 70.7432C299.697 70.7432 300.069 70.793 300.415 70.8926C300.761 70.9922 301.092 71.1475 301.408 71.3584V73.0107ZM304.893 70.9805H309.032V79.5674H312.24V80.8242H304.207V79.5674H307.415V72.2373H304.893V70.9805ZM307.415 67.1484H309.032V69.1963H307.415V67.1484ZM322.58 71.3232V72.9053C322.117 72.6357 321.651 72.4336 321.183 72.2988C320.714 72.1641 320.236 72.0967 319.75 72.0967C319.018 72.0967 318.47 72.2168 318.106 72.457C317.749 72.6914 317.57 73.0518 317.57 73.5381C317.57 73.9775 317.705 74.3057 317.975 74.5225C318.244 74.7393 318.915 74.9502 319.987 75.1553L320.638 75.2783C321.44 75.4307 322.047 75.7354 322.457 76.1924C322.873 76.6494 323.081 77.2441 323.081 77.9766C323.081 78.9492 322.735 79.7109 322.044 80.2617C321.353 80.8066 320.392 81.0791 319.161 81.0791C318.675 81.0791 318.165 81.0264 317.632 80.9209C317.099 80.8213 316.521 80.6689 315.9 80.4639V78.7939C316.504 79.1045 317.081 79.3389 317.632 79.4971C318.183 79.6494 318.704 79.7256 319.196 79.7256C319.911 79.7256 320.465 79.582 320.857 79.2949C321.25 79.002 321.446 78.5947 321.446 78.0732C321.446 77.3232 320.728 76.8047 319.293 76.5176L319.223 76.5L318.616 76.377C317.685 76.1953 317.005 75.8906 316.577 75.4629C316.149 75.0293 315.936 74.4404 315.936 73.6963C315.936 72.7529 316.255 72.0264 316.894 71.5166C317.532 71.001 318.443 70.7432 319.627 70.7432C320.154 70.7432 320.661 70.793 321.147 70.8926C321.634 70.9863 322.111 71.1299 322.58 71.3232ZM331.496 75.7266V79.541C332.141 79.5234 332.644 79.3447 333.008 79.0049C333.371 78.665 333.553 78.2021 333.553 77.6162C333.553 77.0713 333.389 76.6494 333.06 76.3506C332.732 76.0459 332.211 75.8379 331.496 75.7266ZM330.617 74.0566V70.4268C330.008 70.4502 329.53 70.626 329.184 70.9541C328.845 71.2822 328.675 71.7217 328.675 72.2725C328.675 72.7764 328.833 73.1748 329.149 73.4678C329.472 73.7607 329.961 73.957 330.617 74.0566ZM331.496 83.4697H330.617L330.608 80.8242C330.011 80.7949 329.416 80.7129 328.824 80.5781C328.238 80.4434 327.658 80.2559 327.084 80.0156V78.4336C327.67 78.7969 328.259 79.0752 328.85 79.2686C329.448 79.4619 330.037 79.5645 330.617 79.5762V75.5508C329.445 75.3691 328.563 75.0117 327.972 74.4785C327.38 73.9453 327.084 73.2393 327.084 72.3604C327.084 71.4404 327.392 70.708 328.007 70.1631C328.628 69.6123 329.498 69.2959 330.617 69.2139V67.1484H331.496L331.505 69.2139C331.968 69.2432 332.436 69.3018 332.911 69.3896C333.386 69.4775 333.869 69.5977 334.361 69.75V71.2705C333.863 71.0186 333.377 70.8252 332.902 70.6904C332.434 70.5498 331.965 70.4678 331.496 70.4443V74.2324C332.703 74.4141 333.623 74.7891 334.256 75.3574C334.889 75.9258 335.205 76.6611 335.205 77.5635C335.205 78.4658 334.862 79.2188 334.177 79.8223C333.497 80.4258 332.606 80.7539 331.505 80.8066L331.496 83.4697ZM353.599 72.1143C352.779 72.1143 352.158 72.4336 351.736 73.0723C351.314 73.7109 351.103 74.6572 351.103 75.9111C351.103 77.1592 351.314 78.1055 351.736 78.75C352.158 79.3887 352.779 79.708 353.599 79.708C354.426 79.708 355.05 79.3887 355.472 78.75C355.893 78.1055 356.104 77.1592 356.104 75.9111C356.104 74.6572 355.893 73.7109 355.472 73.0723C355.05 72.4336 354.426 72.1143 353.599 72.1143ZM353.599 70.7432C354.965 70.7432 356.008 71.1855 356.728 72.0703C357.455 72.9551 357.818 74.2354 357.818 75.9111C357.818 77.5928 357.458 78.876 356.737 79.7607C356.016 80.6396 354.971 81.0791 353.599 81.0791C352.234 81.0791 351.191 80.6396 350.471 79.7607C349.75 78.876 349.389 77.5928 349.389 75.9111C349.389 74.2354 349.75 72.9551 350.471 72.0703C351.191 71.1855 352.234 70.7432 353.599 70.7432ZM362.867 79.585V84.5684H361.241V70.9805H362.867V72.2373C363.137 71.751 363.494 71.3818 363.939 71.1299C364.39 70.8721 364.909 70.7432 365.495 70.7432C366.684 70.7432 367.616 71.2031 368.29 72.123C368.97 73.043 369.309 74.3174 369.309 75.9463C369.309 77.5459 368.97 78.8027 368.29 79.7168C367.61 80.625 366.679 81.0791 365.495 81.0791C364.897 81.0791 364.373 80.9531 363.922 80.7012C363.476 80.4434 363.125 80.0713 362.867 79.585ZM367.613 75.9111C367.613 74.6572 367.414 73.7109 367.015 73.0723C366.623 72.4336 366.037 72.1143 365.258 72.1143C364.472 72.1143 363.878 72.4365 363.473 73.0811C363.069 73.7197 362.867 74.6631 362.867 75.9111C362.867 77.1533 363.069 78.0967 363.473 78.7412C363.878 79.3857 364.472 79.708 365.258 79.708C366.037 79.708 366.623 79.3887 367.015 78.75C367.414 78.1113 367.613 77.165 367.613 75.9111ZM380.73 75.498V76.2891H373.725V76.3418C373.725 77.4141 374.004 78.2432 374.56 78.8291C375.123 79.415 375.914 79.708 376.933 79.708C377.449 79.708 377.988 79.626 378.551 79.4619C379.113 79.2979 379.714 79.0488 380.352 78.7148V80.3232C379.737 80.5752 379.142 80.7627 378.568 80.8857C378 81.0146 377.449 81.0791 376.916 81.0791C375.386 81.0791 374.191 80.6221 373.33 79.708C372.469 78.7881 372.038 77.5225 372.038 75.9111C372.038 74.3408 372.46 73.0869 373.303 72.1494C374.147 71.2119 375.272 70.7432 376.678 70.7432C377.932 70.7432 378.92 71.168 379.64 72.0176C380.367 72.8672 380.73 74.0273 380.73 75.498ZM379.113 75.0234C379.09 74.0742 378.864 73.3535 378.436 72.8613C378.014 72.3633 377.405 72.1143 376.608 72.1143C375.829 72.1143 375.187 72.3721 374.683 72.8877C374.179 73.4033 373.881 74.1182 373.787 75.0322L379.113 75.0234ZM391.58 74.7246V80.8242H389.954V74.7246C389.954 73.8398 389.799 73.1895 389.488 72.7734C389.177 72.3574 388.691 72.1494 388.029 72.1494C387.273 72.1494 386.69 72.4189 386.28 72.958C385.876 73.4912 385.674 74.2588 385.674 75.2607V80.8242H384.056V70.9805H385.674V72.457C385.961 71.8945 386.35 71.4697 386.842 71.1826C387.335 70.8896 387.918 70.7432 388.592 70.7432C389.593 70.7432 390.341 71.0742 390.833 71.7363C391.331 72.3926 391.58 73.3887 391.58 74.7246ZM415.177 73.9688V75.498C414.738 75.8438 414.307 76.0986 413.885 76.2627C413.469 76.4209 413.03 76.5 412.567 76.5C412.04 76.5 411.445 76.3506 410.783 76.0518C410.654 75.9932 410.557 75.9521 410.493 75.9287C410.042 75.7354 409.664 75.6035 409.359 75.5332C409.06 75.4629 408.761 75.4277 408.463 75.4277C408 75.4277 407.56 75.5156 407.144 75.6914C406.734 75.8613 406.315 76.1309 405.887 76.5V74.9707C406.344 74.6191 406.787 74.3643 407.215 74.2061C407.642 74.0479 408.099 73.9688 408.586 73.9688C408.896 73.9688 409.198 74.001 409.491 74.0654C409.784 74.1299 410.147 74.2529 410.581 74.4346C410.651 74.4639 410.748 74.5078 410.871 74.5664C411.55 74.8887 412.163 75.0498 412.708 75.0498C413.118 75.0498 413.522 74.9619 413.921 74.7861C414.325 74.6045 414.744 74.332 415.177 73.9688ZM424.313 67.7021H425.983L419.075 82.4941H417.396L424.313 67.7021ZM432.183 78.1436H434.398V80.8242H432.183V78.1436ZM447.339 75.9111C447.339 74.6572 447.14 73.7109 446.742 73.0723C446.343 72.4336 445.754 72.1143 444.975 72.1143C444.19 72.1143 443.595 72.4365 443.191 73.0811C442.787 73.7197 442.585 74.6631 442.585 75.9111C442.585 77.1533 442.787 78.0967 443.191 78.7412C443.595 79.3857 444.19 79.708 444.975 79.708C445.754 79.708 446.343 79.3887 446.742 78.75C447.14 78.1113 447.339 77.165 447.339 75.9111ZM442.585 72.2373C442.842 71.7568 443.197 71.3877 443.648 71.1299C444.105 70.8721 444.632 70.7432 445.23 70.7432C446.414 70.7432 447.345 71.2002 448.025 72.1143C448.705 73.0225 449.044 74.2764 449.044 75.876C449.044 77.499 448.702 78.7734 448.016 79.6992C447.336 80.6191 446.402 81.0791 445.212 81.0791C444.626 81.0791 444.108 80.9531 443.657 80.7012C443.211 80.4434 442.854 80.0713 442.585 79.585V80.8242H440.967V67.1484H442.585V72.2373ZM456.827 75.876H456.29C455.347 75.876 454.635 76.043 454.155 76.377C453.68 76.7051 453.443 77.1973 453.443 77.8535C453.443 78.4453 453.622 78.9053 453.979 79.2334C454.336 79.5615 454.832 79.7256 455.464 79.7256C456.355 79.7256 457.055 79.418 457.565 78.8027C458.075 78.1816 458.332 77.3262 458.338 76.2363V75.876H456.827ZM459.964 75.208V80.8242H458.338V79.3652C457.993 79.9512 457.556 80.3848 457.029 80.666C456.507 80.9414 455.872 81.0791 455.122 81.0791C454.12 81.0791 453.32 80.7979 452.722 80.2354C452.124 79.667 451.826 78.9082 451.826 77.959C451.826 76.8633 452.192 76.0312 452.924 75.4629C453.663 74.8945 454.744 74.6104 456.167 74.6104H458.338V74.3555C458.332 73.5703 458.133 73.002 457.741 72.6504C457.348 72.293 456.721 72.1143 455.86 72.1143C455.309 72.1143 454.752 72.1934 454.19 72.3516C453.627 72.5098 453.08 72.7412 452.546 73.0459V71.4287C453.144 71.2002 453.715 71.0303 454.26 70.9189C454.811 70.8018 455.344 70.7432 455.86 70.7432C456.674 70.7432 457.369 70.8633 457.943 71.1035C458.523 71.3438 458.992 71.7041 459.349 72.1846C459.572 72.4775 459.73 72.8408 459.824 73.2744C459.917 73.7021 459.964 74.3467 459.964 75.208ZM470.594 71.3232V72.9053C470.131 72.6357 469.665 72.4336 469.197 72.2988C468.728 72.1641 468.25 72.0967 467.764 72.0967C467.032 72.0967 466.484 72.2168 466.121 72.457C465.763 72.6914 465.584 73.0518 465.584 73.5381C465.584 73.9775 465.719 74.3057 465.989 74.5225C466.258 74.7393 466.929 74.9502 468.001 75.1553L468.652 75.2783C469.455 75.4307 470.061 75.7354 470.471 76.1924C470.887 76.6494 471.095 77.2441 471.095 77.9766C471.095 78.9492 470.749 79.7109 470.058 80.2617C469.367 80.8066 468.406 81.0791 467.175 81.0791C466.689 81.0791 466.179 81.0264 465.646 80.9209C465.113 80.8213 464.536 80.6689 463.914 80.4639V78.7939C464.518 79.1045 465.095 79.3389 465.646 79.4971C466.197 79.6494 466.718 79.7256 467.21 79.7256C467.925 79.7256 468.479 79.582 468.872 79.2949C469.264 79.002 469.46 78.5947 469.46 78.0732C469.46 77.3232 468.743 76.8047 467.307 76.5176L467.237 76.5L466.63 76.377C465.699 76.1953 465.019 75.8906 464.591 75.4629C464.164 75.0293 463.95 74.4404 463.95 73.6963C463.95 72.7529 464.269 72.0264 464.908 71.5166C465.546 71.001 466.457 70.7432 467.641 70.7432C468.168 70.7432 468.675 70.793 469.162 70.8926C469.648 70.9863 470.125 71.1299 470.594 71.3232ZM482.665 74.7246V80.8242H481.039V74.7246C481.039 73.8398 480.884 73.1895 480.574 72.7734C480.263 72.3574 479.777 72.1494 479.115 72.1494C478.359 72.1494 477.776 72.4189 477.366 72.958C476.961 73.4912 476.759 74.2588 476.759 75.2607V80.8242H475.142V67.1484H476.759V72.457C477.046 71.8945 477.436 71.4697 477.928 71.1826C478.42 70.8896 479.003 70.7432 479.677 70.7432C480.679 70.7432 481.426 71.0742 481.918 71.7363C482.416 72.3926 482.665 73.3887 482.665 74.7246ZM495.651 84.3662V85.0693H484.814V84.3662H495.651ZM499.495 79.585V84.5684H497.869V70.9805H499.495V72.2373C499.765 71.751 500.122 71.3818 500.568 71.1299C501.019 70.8721 501.537 70.7432 502.123 70.7432C503.313 70.7432 504.244 71.2031 504.918 72.123C505.598 73.043 505.938 74.3174 505.938 75.9463C505.938 77.5459 505.598 78.8027 504.918 79.7168C504.239 80.625 503.307 81.0791 502.123 81.0791C501.526 81.0791 501.001 80.9531 500.55 80.7012C500.105 80.4434 499.753 80.0713 499.495 79.585ZM504.242 75.9111C504.242 74.6572 504.042 73.7109 503.644 73.0723C503.251 72.4336 502.665 72.1143 501.886 72.1143C501.101 72.1143 500.506 72.4365 500.102 73.0811C499.698 73.7197 499.495 74.6631 499.495 75.9111C499.495 77.1533 499.698 78.0967 500.102 78.7412C500.506 79.3857 501.101 79.708 501.886 79.708C502.665 79.708 503.251 79.3887 503.644 78.75C504.042 78.1113 504.242 77.165 504.242 75.9111ZM517.737 73.0107C517.391 72.7412 517.039 72.5449 516.682 72.4219C516.324 72.2988 515.932 72.2373 515.504 72.2373C514.496 72.2373 513.726 72.5537 513.193 73.1865C512.659 73.8193 512.393 74.7334 512.393 75.9287V80.8242H510.767V70.9805H512.393V72.9053C512.662 72.208 513.075 71.6748 513.632 71.3057C514.195 70.9307 514.86 70.7432 515.627 70.7432C516.026 70.7432 516.398 70.793 516.743 70.8926C517.089 70.9922 517.42 71.1475 517.737 71.3584V73.0107ZM524.385 72.1143C523.565 72.1143 522.944 72.4336 522.522 73.0723C522.1 73.7109 521.889 74.6572 521.889 75.9111C521.889 77.1592 522.1 78.1055 522.522 78.75C522.944 79.3887 523.565 79.708 524.385 79.708C525.211 79.708 525.835 79.3887 526.257 78.75C526.679 78.1055 526.89 77.1592 526.89 75.9111C526.89 74.6572 526.679 73.7109 526.257 73.0723C525.835 72.4336 525.211 72.1143 524.385 72.1143ZM524.385 70.7432C525.75 70.7432 526.793 71.1855 527.514 72.0703C528.24 72.9551 528.604 74.2354 528.604 75.9111C528.604 77.5928 528.243 78.876 527.523 79.7607C526.802 80.6396 525.756 81.0791 524.385 81.0791C523.02 81.0791 521.977 80.6396 521.256 79.7607C520.535 78.876 520.175 77.5928 520.175 75.9111C520.175 74.2354 520.535 72.9551 521.256 72.0703C521.977 71.1855 523.02 70.7432 524.385 70.7432ZM539.699 67.1484V68.4932H537.862C537.282 68.4932 536.878 68.6133 536.65 68.8535C536.427 69.0879 536.316 69.5068 536.316 70.1104V70.9805H539.699V72.2373H536.316V80.8242H534.698V72.2373H532.07V70.9805H534.698V70.2949C534.698 69.2168 534.945 68.4229 535.437 67.9131C535.935 67.4033 536.708 67.1484 537.757 67.1484H539.699ZM543.992 70.9805H548.132V79.5674H551.34V80.8242H543.307V79.5674H546.515V72.2373H543.992V70.9805ZM546.515 67.1484H548.132V69.1963H546.515V67.1484ZM558.744 77.2559C558.744 77.9824 558.876 78.5303 559.14 78.8994C559.409 79.2686 559.805 79.4531 560.326 79.4531H562.216V80.8242H560.168C559.201 80.8242 558.451 80.5137 557.918 79.8926C557.391 79.2715 557.127 78.3926 557.127 77.2559V68.3174H554.534V67.0518H558.744V77.2559ZM574.287 75.498V76.2891H567.282V76.3418C567.282 77.4141 567.561 78.2432 568.117 78.8291C568.68 79.415 569.471 79.708 570.49 79.708C571.006 79.708 571.545 79.626 572.107 79.4619C572.67 79.2979 573.271 79.0488 573.909 78.7148V80.3232C573.294 80.5752 572.699 80.7627 572.125 80.8857C571.557 81.0146 571.006 81.0791 570.473 81.0791C568.943 81.0791 567.748 80.6221 566.887 79.708C566.025 78.7881 565.595 77.5225 565.595 75.9111C565.595 74.3408 566.017 73.0869 566.86 72.1494C567.704 71.2119 568.829 70.7432 570.235 70.7432C571.489 70.7432 572.477 71.168 573.197 72.0176C573.924 72.8672 574.287 74.0273 574.287 75.498ZM572.67 75.0234C572.647 74.0742 572.421 73.3535 571.993 72.8613C571.571 72.3633 570.962 72.1143 570.165 72.1143C569.386 72.1143 568.744 72.3721 568.24 72.8877C567.736 73.4033 567.438 74.1182 567.344 75.0322L572.67 75.0234Z" fill="black"/>
</svg>
