<svg width="1299" height="82" viewBox="0 0 1299 82" fill="none" xmlns="http://www.w3.org/2000/svg">
<path fill-rule="evenodd" clip-rule="evenodd" d="M7 0.824219C3.13401 0.824219 0 3.95823 0 7.82422V13.8242V23.8242V30.8242H6.99997H1292H1299V23.8242V13.8242V7.82422C1299 3.95823 1295.87 0.824219 1292 0.824219H7Z" fill="url(#paint0_linear_700_169)"/>
<circle cx="17.5" cy="16.3242" r="7.25" fill="#FE4A52" stroke="#CD464C" stroke-width="2.5"/>
<circle cx="41.5" cy="16.3242" r="7.25" fill="#FFBA26" stroke="#E0B251" stroke-width="2.5"/>
<circle cx="66.5" cy="16.3242" r="7.25" fill="#25C441" stroke="#44AE4B" stroke-width="2.5"/>
<path d="M578.125 22.0586C578.125 21.8138 578.201 21.6081 578.352 21.4414C578.508 21.2695 578.732 21.1836 579.023 21.1836C579.315 21.1836 579.536 21.2695 579.688 21.4414C579.844 21.6081 579.922 21.8138 579.922 22.0586C579.922 22.2982 579.844 22.5013 579.688 22.668C579.536 22.8346 579.315 22.918 579.023 22.918C578.732 22.918 578.508 22.8346 578.352 22.668C578.201 22.5013 578.125 22.2982 578.125 22.0586ZM582.633 10.8242H584.086V21.1836L583.961 22.8242H582.633V10.8242ZM589.797 18.5273V18.6914C589.797 19.306 589.724 19.8763 589.578 20.4023C589.432 20.9232 589.218 21.3763 588.937 21.7617C588.656 22.1471 588.312 22.4466 587.906 22.6602C587.5 22.8737 587.034 22.9805 586.508 22.9805C585.971 22.9805 585.5 22.8893 585.093 22.707C584.692 22.5195 584.354 22.2513 584.078 21.9023C583.802 21.5534 583.58 21.1315 583.414 20.6367C583.252 20.1419 583.14 19.5846 583.078 18.9648V18.2461C583.14 17.6211 583.252 17.0612 583.414 16.5664C583.58 16.0716 583.802 15.6497 584.078 15.3008C584.354 14.9466 584.692 14.6784 585.093 14.4961C585.494 14.3086 585.961 14.2148 586.492 14.2148C587.023 14.2148 587.494 14.319 587.906 14.5273C588.317 14.7305 588.661 15.0221 588.937 15.4023C589.218 15.7826 589.432 16.2383 589.578 16.7695C589.724 17.2956 589.797 17.8815 589.797 18.5273ZM588.343 18.6914V18.5273C588.343 18.1055 588.304 17.7096 588.226 17.3398C588.148 16.9648 588.023 16.6367 587.851 16.3555C587.679 16.069 587.453 15.8451 587.172 15.6836C586.89 15.5169 586.544 15.4336 586.133 15.4336C585.768 15.4336 585.45 15.4961 585.179 15.6211C584.914 15.7461 584.687 15.9154 584.5 16.1289C584.312 16.3372 584.159 16.5768 584.039 16.8477C583.924 17.1133 583.838 17.3893 583.781 17.6758V19.5586C583.864 19.9232 584 20.2747 584.187 20.6133C584.38 20.9466 584.635 21.2201 584.953 21.4336C585.276 21.6471 585.674 21.7539 586.148 21.7539C586.539 21.7539 586.872 21.6758 587.148 21.5195C587.429 21.3581 587.656 21.1367 587.828 20.8555C588.005 20.5742 588.135 20.2487 588.218 19.8789C588.302 19.5091 588.343 19.1133 588.343 18.6914ZM596.929 21.3789V17.0273C596.929 16.694 596.861 16.4049 596.726 16.1602C596.596 15.9102 596.398 15.7174 596.132 15.582C595.867 15.4466 595.538 15.3789 595.148 15.3789C594.783 15.3789 594.463 15.4414 594.187 15.5664C593.916 15.6914 593.703 15.8555 593.546 16.0586C593.395 16.2617 593.32 16.4805 593.32 16.7148H591.874C591.874 16.4128 591.953 16.1133 592.109 15.8164C592.265 15.5195 592.489 15.2513 592.781 15.0117C593.078 14.7669 593.432 14.5742 593.843 14.4336C594.26 14.2878 594.723 14.2148 595.234 14.2148C595.848 14.2148 596.39 14.319 596.859 14.5273C597.333 14.7357 597.703 15.0508 597.968 15.4727C598.239 15.8893 598.374 16.4128 598.374 17.043V20.9805C598.374 21.2617 598.398 21.5612 598.445 21.8789C598.497 22.1966 598.572 22.4701 598.671 22.6992V22.8242H597.163C597.091 22.6576 597.033 22.4362 596.992 22.1602C596.95 21.8789 596.929 21.6185 596.929 21.3789ZM597.179 17.6992L597.195 18.7148H595.734C595.322 18.7148 594.955 18.7487 594.632 18.8164C594.309 18.8789 594.038 18.9753 593.82 19.1055C593.601 19.2357 593.434 19.3997 593.32 19.5977C593.205 19.7904 593.148 20.0169 593.148 20.2773C593.148 20.543 593.208 20.7852 593.328 21.0039C593.447 21.2227 593.627 21.3971 593.867 21.5273C594.111 21.6523 594.411 21.7148 594.765 21.7148C595.208 21.7148 595.598 21.6211 595.937 21.4336C596.275 21.2461 596.544 21.0169 596.742 20.7461C596.945 20.4753 597.054 20.2122 597.07 19.957L597.687 20.6523C597.65 20.8711 597.551 21.1133 597.39 21.3789C597.229 21.6445 597.012 21.8997 596.742 22.1445C596.476 22.3841 596.158 22.5846 595.788 22.7461C595.424 22.9023 595.012 22.9805 594.554 22.9805C593.981 22.9805 593.479 22.8685 593.046 22.6445C592.619 22.4206 592.286 22.1211 592.046 21.7461C591.812 21.3659 591.695 20.9414 591.695 20.4727C591.695 20.0195 591.783 19.6211 591.96 19.2773C592.137 18.9284 592.393 18.6393 592.726 18.4102C593.059 18.1758 593.46 17.9987 593.929 17.8789C594.398 17.7591 594.921 17.6992 595.499 17.6992H597.179ZM605.89 20.582C605.89 20.3737 605.843 20.181 605.749 20.0039C605.661 19.8216 605.476 19.6576 605.194 19.5117C604.918 19.3607 604.502 19.2305 603.944 19.1211C603.476 19.0221 603.051 18.9049 602.671 18.7695C602.296 18.6341 601.976 18.4701 601.71 18.2773C601.45 18.0846 601.249 17.8581 601.108 17.5977C600.968 17.3372 600.897 17.0326 600.897 16.6836C600.897 16.3503 600.97 16.0352 601.116 15.7383C601.267 15.4414 601.478 15.1784 601.749 14.9492C602.025 14.7201 602.356 14.5404 602.741 14.4102C603.127 14.2799 603.556 14.2148 604.03 14.2148C604.707 14.2148 605.286 14.3346 605.765 14.5742C606.244 14.8138 606.611 15.1341 606.866 15.5352C607.121 15.931 607.249 16.3711 607.249 16.8555H605.804C605.804 16.6211 605.733 16.3945 605.593 16.1758C605.457 15.9518 605.257 15.7669 604.991 15.6211C604.731 15.4753 604.411 15.4023 604.03 15.4023C603.629 15.4023 603.304 15.4648 603.054 15.5898C602.809 15.7096 602.629 15.8633 602.515 16.0508C602.405 16.2383 602.351 16.4362 602.351 16.6445C602.351 16.8008 602.377 16.9414 602.429 17.0664C602.486 17.1862 602.585 17.2982 602.726 17.4023C602.866 17.5013 603.064 17.5951 603.319 17.6836C603.575 17.7721 603.9 17.8607 604.296 17.9492C604.989 18.1055 605.559 18.293 606.007 18.5117C606.455 18.7305 606.788 18.9987 607.007 19.3164C607.226 19.6341 607.335 20.0195 607.335 20.4727C607.335 20.8424 607.257 21.181 607.101 21.4883C606.95 21.7956 606.728 22.0612 606.437 22.2852C606.15 22.5039 605.806 22.6758 605.405 22.8008C605.009 22.9206 604.564 22.9805 604.069 22.9805C603.325 22.9805 602.694 22.8477 602.179 22.582C601.663 22.3164 601.272 21.9727 601.007 21.5508C600.741 21.1289 600.608 20.6836 600.608 20.2148H602.062C602.082 20.6107 602.197 20.9258 602.405 21.1602C602.614 21.3893 602.869 21.5534 603.171 21.6523C603.473 21.7461 603.772 21.793 604.069 21.793C604.465 21.793 604.796 21.7409 605.062 21.6367C605.332 21.5326 605.538 21.3893 605.679 21.207C605.819 21.0247 605.89 20.8164 605.89 20.582ZM610.999 10.8242V22.8242H609.553V10.8242H610.999ZM610.655 18.2773L610.053 18.2539C610.059 17.6758 610.145 17.1419 610.311 16.6523C610.478 16.1576 610.712 15.7279 611.014 15.3633C611.316 14.9987 611.676 14.7174 612.093 14.5195C612.514 14.3164 612.981 14.2148 613.491 14.2148C613.908 14.2148 614.283 14.2721 614.616 14.3867C614.949 14.4961 615.233 14.6732 615.468 14.918C615.707 15.1628 615.889 15.4805 616.014 15.8711C616.139 16.2565 616.202 16.7279 616.202 17.2852V22.8242H614.749V17.2695C614.749 16.8268 614.684 16.4727 614.553 16.207C614.423 15.9362 614.233 15.7409 613.983 15.6211C613.733 15.4961 613.426 15.4336 613.061 15.4336C612.702 15.4336 612.374 15.5091 612.077 15.6602C611.785 15.8112 611.533 16.0195 611.319 16.2852C611.111 16.5508 610.947 16.8555 610.827 17.1992C610.712 17.5378 610.655 17.8971 610.655 18.2773ZM624.78 22.8242V24.0117H617.616V22.8242H624.78ZM627.67 15.9961V26.0742H626.217V14.3711H627.545L627.67 15.9961ZM633.365 18.5273V18.6914C633.365 19.306 633.292 19.8763 633.147 20.4023C633.001 20.9232 632.787 21.3763 632.506 21.7617C632.23 22.1471 631.889 22.4466 631.482 22.6602C631.076 22.8737 630.61 22.9805 630.084 22.9805C629.548 22.9805 629.074 22.8919 628.662 22.7148C628.251 22.5378 627.902 22.2799 627.615 21.9414C627.329 21.6029 627.1 21.1966 626.928 20.7227C626.761 20.2487 626.647 19.7148 626.584 19.1211V18.2461C626.647 17.6211 626.764 17.0612 626.936 16.5664C627.107 16.0716 627.334 15.6497 627.615 15.3008C627.902 14.9466 628.248 14.6784 628.654 14.4961C629.061 14.3086 629.529 14.2148 630.061 14.2148C630.592 14.2148 631.063 14.319 631.475 14.5273C631.886 14.7305 632.232 15.0221 632.514 15.4023C632.795 15.7826 633.006 16.2383 633.147 16.7695C633.292 17.2956 633.365 17.8815 633.365 18.5273ZM631.912 18.6914V18.5273C631.912 18.1055 631.868 17.7096 631.779 17.3398C631.691 16.9648 631.553 16.6367 631.365 16.3555C631.183 16.069 630.949 15.8451 630.662 15.6836C630.376 15.5169 630.035 15.4336 629.639 15.4336C629.274 15.4336 628.956 15.4961 628.686 15.6211C628.42 15.7461 628.193 15.9154 628.006 16.1289C627.818 16.3372 627.665 16.5768 627.545 16.8477C627.43 17.1133 627.344 17.3893 627.287 17.6758V19.6992C627.391 20.0638 627.537 20.4076 627.725 20.7305C627.912 21.0482 628.162 21.306 628.475 21.5039C628.787 21.6966 629.18 21.793 629.654 21.793C630.045 21.793 630.381 21.7122 630.662 21.5508C630.949 21.3841 631.183 21.1576 631.365 20.8711C631.553 20.5846 631.691 20.2565 631.779 19.8867C631.868 19.5117 631.912 19.1133 631.912 18.6914ZM636.974 15.6992V22.8242H635.529V14.3711H636.935L636.974 15.6992ZM639.615 14.3242L639.607 15.668C639.487 15.6419 639.373 15.6263 639.263 15.6211C639.159 15.6107 639.039 15.6055 638.904 15.6055C638.571 15.6055 638.276 15.6576 638.021 15.7617C637.766 15.8659 637.55 16.0117 637.373 16.1992C637.196 16.3867 637.055 16.6107 636.951 16.8711C636.852 17.1263 636.787 17.4076 636.756 17.7148L636.349 17.9492C636.349 17.4388 636.399 16.9596 636.498 16.5117C636.602 16.0638 636.761 15.668 636.974 15.3242C637.188 14.9753 637.459 14.7044 637.787 14.5117C638.12 14.3138 638.516 14.2148 638.974 14.2148C639.079 14.2148 639.198 14.2279 639.334 14.2539C639.469 14.2747 639.563 14.2982 639.615 14.3242ZM640.732 18.6914V18.5117C640.732 17.9023 640.82 17.3372 640.998 16.8164C641.175 16.2904 641.43 15.8346 641.763 15.4492C642.096 15.0586 642.5 14.7565 642.974 14.543C643.448 14.3242 643.979 14.2148 644.568 14.2148C645.162 14.2148 645.695 14.3242 646.169 14.543C646.649 14.7565 647.055 15.0586 647.388 15.4492C647.727 15.8346 647.984 16.2904 648.162 16.8164C648.339 17.3372 648.427 17.9023 648.427 18.5117V18.6914C648.427 19.3008 648.339 19.8659 648.162 20.3867C647.984 20.9076 647.727 21.3633 647.388 21.7539C647.055 22.1393 646.651 22.4414 646.177 22.6602C645.708 22.8737 645.177 22.9805 644.583 22.9805C643.99 22.9805 643.456 22.8737 642.982 22.6602C642.508 22.4414 642.102 22.1393 641.763 21.7539C641.43 21.3633 641.175 20.9076 640.998 20.3867C640.82 19.8659 640.732 19.3008 640.732 18.6914ZM642.177 18.5117V18.6914C642.177 19.1133 642.227 19.5117 642.326 19.8867C642.425 20.2565 642.573 20.5846 642.771 20.8711C642.974 21.1576 643.227 21.3841 643.529 21.5508C643.831 21.7122 644.182 21.793 644.583 21.793C644.979 21.793 645.326 21.7122 645.623 21.5508C645.925 21.3841 646.175 21.1576 646.373 20.8711C646.57 20.5846 646.719 20.2565 646.818 19.8867C646.922 19.5117 646.974 19.1133 646.974 18.6914V18.5117C646.974 18.0951 646.922 17.7018 646.818 17.332C646.719 16.957 646.568 16.6263 646.365 16.3398C646.167 16.0482 645.917 15.819 645.615 15.6523C645.318 15.4857 644.969 15.4023 644.568 15.4023C644.172 15.4023 643.823 15.4857 643.521 15.6523C643.224 15.819 642.974 16.0482 642.771 16.3398C642.573 16.6263 642.425 16.957 642.326 17.332C642.227 17.7018 642.177 18.0951 642.177 18.5117ZM652.489 22.8242H651.044V13.6367C651.044 12.9961 651.169 12.4544 651.419 12.0117C651.669 11.569 652.026 11.2331 652.489 11.0039C652.953 10.7747 653.502 10.6602 654.138 10.6602C654.513 10.6602 654.88 10.707 655.239 10.8008C655.599 10.8893 655.969 11.0013 656.349 11.1367L656.107 12.3555C655.867 12.2617 655.588 12.1732 655.271 12.0898C654.958 12.0013 654.614 11.957 654.239 11.957C653.62 11.957 653.172 12.0977 652.896 12.3789C652.625 12.6549 652.489 13.0742 652.489 13.6367V22.8242ZM654.216 14.3711V15.4805H649.708V14.3711H654.216ZM657.06 14.3711V22.8242H655.614V14.3711H657.06ZM661.325 10.8242V22.8242H659.872V10.8242H661.325ZM667.473 22.9805C666.885 22.9805 666.351 22.8815 665.872 22.6836C665.398 22.4805 664.989 22.1966 664.645 21.832C664.306 21.4674 664.046 21.0352 663.864 20.5352C663.681 20.0352 663.59 19.4883 663.59 18.8945V18.5664C663.59 17.8789 663.692 17.2669 663.895 16.7305C664.098 16.1888 664.374 15.7305 664.723 15.3555C665.072 14.9805 665.468 14.6966 665.911 14.5039C666.353 14.3112 666.812 14.2148 667.286 14.2148C667.89 14.2148 668.411 14.319 668.848 14.5273C669.291 14.7357 669.653 15.0273 669.934 15.4023C670.215 15.7721 670.424 16.2096 670.559 16.7148C670.694 17.2148 670.762 17.7617 670.762 18.3555V19.0039H664.45V17.8242H669.317V17.7148C669.296 17.3398 669.218 16.9753 669.082 16.6211C668.952 16.2669 668.744 15.9753 668.457 15.7461C668.171 15.5169 667.78 15.4023 667.286 15.4023C666.957 15.4023 666.655 15.4727 666.379 15.6133C666.103 15.7487 665.866 15.9518 665.668 16.2227C665.471 16.4935 665.317 16.8242 665.207 17.2148C665.098 17.6055 665.043 18.056 665.043 18.5664V18.8945C665.043 19.2956 665.098 19.6732 665.207 20.0273C665.322 20.3763 665.486 20.6836 665.7 20.9492C665.918 21.2148 666.181 21.4232 666.489 21.5742C666.801 21.7253 667.155 21.8008 667.551 21.8008C668.062 21.8008 668.494 21.6966 668.848 21.4883C669.202 21.2799 669.512 21.0013 669.778 20.6523L670.653 21.3477C670.471 21.6237 670.239 21.8867 669.957 22.1367C669.676 22.3867 669.33 22.5898 668.918 22.7461C668.512 22.9023 668.03 22.9805 667.473 22.9805Z" fill="#4D4B50"/>
<path d="M676 18.3242H690.5" stroke="#A4A1A4" stroke-width="2"/>
<path d="M706.547 21.5977V22.8242H700.523V21.5977H706.547ZM700.828 11.4492V22.8242H699.32V11.4492H700.828ZM705.75 16.3398V17.5664H700.523V16.3398H705.75ZM706.469 11.4492V12.6836H700.523V11.4492H706.469ZM713.847 21.1836V10.8242H715.3V22.8242H713.972L713.847 21.1836ZM708.16 18.6914V18.5273C708.16 17.8815 708.238 17.2956 708.394 16.7695C708.556 16.2383 708.782 15.7826 709.074 15.4023C709.371 15.0221 709.722 14.7305 710.128 14.5273C710.54 14.319 710.998 14.2148 711.503 14.2148C712.035 14.2148 712.498 14.3086 712.894 14.4961C713.295 14.6784 713.634 14.9466 713.91 15.3008C714.191 15.6497 714.412 16.0716 714.574 16.5664C714.735 17.0612 714.847 17.6211 714.91 18.2461V18.9648C714.852 19.5846 714.74 20.1419 714.574 20.6367C714.412 21.1315 714.191 21.5534 713.91 21.9023C713.634 22.2513 713.295 22.5195 712.894 22.707C712.493 22.8893 712.024 22.9805 711.488 22.9805C710.993 22.9805 710.54 22.8737 710.128 22.6602C709.722 22.4466 709.371 22.1471 709.074 21.7617C708.782 21.3763 708.556 20.9232 708.394 20.4023C708.238 19.8763 708.16 19.306 708.16 18.6914ZM709.613 18.5273V18.6914C709.613 19.1133 709.654 19.5091 709.738 19.8789C709.826 20.2487 709.962 20.5742 710.144 20.8555C710.326 21.1367 710.558 21.3581 710.839 21.5195C711.121 21.6758 711.457 21.7539 711.847 21.7539C712.326 21.7539 712.72 21.6523 713.027 21.4492C713.339 21.2461 713.589 20.9779 713.777 20.6445C713.964 20.3112 714.11 19.9492 714.214 19.5586V17.6758C714.152 17.3893 714.061 17.1133 713.941 16.8477C713.826 16.5768 713.675 16.3372 713.488 16.1289C713.306 15.9154 713.079 15.7461 712.808 15.6211C712.542 15.4961 712.227 15.4336 711.863 15.4336C711.467 15.4336 711.126 15.5169 710.839 15.6836C710.558 15.8451 710.326 16.069 710.144 16.3555C709.962 16.6367 709.826 16.9648 709.738 17.3398C709.654 17.7096 709.613 18.1055 709.613 18.5273ZM719.601 14.3711V22.8242H718.147V14.3711H719.601ZM718.038 12.1289C718.038 11.8945 718.108 11.6966 718.249 11.5352C718.395 11.3737 718.608 11.293 718.89 11.293C719.166 11.293 719.377 11.3737 719.522 11.5352C719.674 11.6966 719.749 11.8945 719.749 12.1289C719.749 12.3529 719.674 12.5456 719.522 12.707C719.377 12.8633 719.166 12.9414 718.89 12.9414C718.608 12.9414 718.395 12.8633 718.249 12.707C718.108 12.5456 718.038 12.3529 718.038 12.1289ZM725.94 14.3711V15.4805H721.37V14.3711H725.94ZM722.917 12.3164H724.362V20.7305C724.362 21.0169 724.406 21.2331 724.495 21.3789C724.583 21.5247 724.698 21.6211 724.838 21.668C724.979 21.7148 725.13 21.7383 725.292 21.7383C725.411 21.7383 725.536 21.7279 725.667 21.707C725.802 21.681 725.904 21.6602 725.971 21.6445L725.979 22.8242C725.864 22.8607 725.713 22.8945 725.526 22.9258C725.344 22.9622 725.122 22.9805 724.862 22.9805C724.508 22.9805 724.182 22.9102 723.885 22.7695C723.588 22.6289 723.351 22.3945 723.174 22.0664C723.003 21.7331 722.917 21.2852 722.917 20.7227V12.3164ZM731.623 22.9805C731.035 22.9805 730.501 22.8815 730.022 22.6836C729.548 22.4805 729.139 22.1966 728.795 21.832C728.456 21.4674 728.196 21.0352 728.014 20.5352C727.831 20.0352 727.74 19.4883 727.74 18.8945V18.5664C727.74 17.8789 727.842 17.2669 728.045 16.7305C728.248 16.1888 728.524 15.7305 728.873 15.3555C729.222 14.9805 729.618 14.6966 730.061 14.5039C730.503 14.3112 730.962 14.2148 731.436 14.2148C732.04 14.2148 732.561 14.319 732.998 14.5273C733.441 14.7357 733.803 15.0273 734.084 15.4023C734.365 15.7721 734.574 16.2096 734.709 16.7148C734.844 17.2148 734.912 17.7617 734.912 18.3555V19.0039H728.6V17.8242H733.467V17.7148C733.446 17.3398 733.368 16.9753 733.233 16.6211C733.102 16.2669 732.894 15.9753 732.608 15.7461C732.321 15.5169 731.93 15.4023 731.436 15.4023C731.108 15.4023 730.805 15.4727 730.529 15.6133C730.253 15.7487 730.016 15.9518 729.818 16.2227C729.621 16.4935 729.467 16.8242 729.358 17.2148C729.248 17.6055 729.193 18.056 729.193 18.5664V18.8945C729.193 19.2956 729.248 19.6732 729.358 20.0273C729.472 20.3763 729.636 20.6836 729.85 20.9492C730.068 21.2148 730.331 21.4232 730.639 21.5742C730.951 21.7253 731.305 21.8008 731.701 21.8008C732.212 21.8008 732.644 21.6966 732.998 21.4883C733.352 21.2799 733.662 21.0013 733.928 20.6523L734.803 21.3477C734.621 21.6237 734.389 21.8867 734.108 22.1367C733.826 22.3867 733.48 22.5898 733.068 22.7461C732.662 22.9023 732.18 22.9805 731.623 22.9805ZM742.408 21.1836V10.8242H743.861V22.8242H742.533L742.408 21.1836ZM736.72 18.6914V18.5273C736.72 17.8815 736.798 17.2956 736.955 16.7695C737.116 16.2383 737.343 15.7826 737.634 15.4023C737.931 15.0221 738.283 14.7305 738.689 14.5273C739.101 14.319 739.559 14.2148 740.064 14.2148C740.595 14.2148 741.059 14.3086 741.455 14.4961C741.856 14.6784 742.194 14.9466 742.47 15.3008C742.752 15.6497 742.973 16.0716 743.134 16.5664C743.296 17.0612 743.408 17.6211 743.47 18.2461V18.9648C743.413 19.5846 743.301 20.1419 743.134 20.6367C742.973 21.1315 742.752 21.5534 742.47 21.9023C742.194 22.2513 741.856 22.5195 741.455 22.707C741.054 22.8893 740.585 22.9805 740.048 22.9805C739.554 22.9805 739.101 22.8737 738.689 22.6602C738.283 22.4466 737.931 22.1471 737.634 21.7617C737.343 21.3763 737.116 20.9232 736.955 20.4023C736.798 19.8763 736.72 19.306 736.72 18.6914ZM738.173 18.5273V18.6914C738.173 19.1133 738.215 19.5091 738.298 19.8789C738.387 20.2487 738.522 20.5742 738.705 20.8555C738.887 21.1367 739.119 21.3581 739.4 21.5195C739.681 21.6758 740.017 21.7539 740.408 21.7539C740.887 21.7539 741.28 21.6523 741.588 21.4492C741.9 21.2461 742.15 20.9779 742.338 20.6445C742.525 20.3112 742.671 19.9492 742.775 19.5586V17.6758C742.713 17.3893 742.621 17.1133 742.502 16.8477C742.387 16.5768 742.236 16.3372 742.048 16.1289C741.866 15.9154 741.64 15.7461 741.369 15.6211C741.103 15.4961 740.788 15.4336 740.423 15.4336C740.028 15.4336 739.686 15.5169 739.4 15.6836C739.119 15.8451 738.887 16.069 738.705 16.3555C738.522 16.6367 738.387 16.9648 738.298 17.3398C738.215 17.7096 738.173 18.1055 738.173 18.5273Z" fill="#A4A1A4"/>
<rect y="30.8242" width="1299" height="51" fill="white"/>
<path d="M12.0498 49.0293C11.2773 49.0293 10.5767 48.8994 9.94775 48.6396C9.32568 48.373 8.78906 48.0005 8.33789 47.522C7.89355 47.0435 7.55176 46.4761 7.3125 45.8198C7.07324 45.1636 6.95361 44.4458 6.95361 43.6665V43.2358C6.95361 42.3335 7.08691 41.5303 7.35352 40.8262C7.62012 40.1152 7.98242 39.5137 8.44043 39.0215C8.89844 38.5293 9.41797 38.1567 9.99902 37.9038C10.5801 37.6509 11.1816 37.5244 11.8037 37.5244C12.5967 37.5244 13.2803 37.6611 13.8545 37.9346C14.4355 38.208 14.9106 38.5908 15.2798 39.083C15.6489 39.5684 15.9224 40.1426 16.1001 40.8057C16.2778 41.4619 16.3667 42.1797 16.3667 42.959V43.8101H8.08154V42.2617H14.4697V42.1182C14.4424 41.626 14.3398 41.1475 14.1621 40.6826C13.9912 40.2178 13.7178 39.835 13.3418 39.5342C12.9658 39.2334 12.4531 39.083 11.8037 39.083C11.373 39.083 10.9766 39.1753 10.6143 39.3599C10.252 39.5376 9.94092 39.8042 9.68115 40.1597C9.42139 40.5151 9.21973 40.9492 9.07617 41.4619C8.93262 41.9746 8.86084 42.5659 8.86084 43.2358V43.6665C8.86084 44.1929 8.93262 44.6885 9.07617 45.1533C9.22656 45.6113 9.44189 46.0146 9.72217 46.3633C10.0093 46.7119 10.3545 46.9854 10.7578 47.1836C11.168 47.3818 11.6328 47.481 12.1523 47.481C12.8223 47.481 13.3896 47.3442 13.8545 47.0708C14.3193 46.7974 14.7261 46.4316 15.0747 45.9736L16.2231 46.8862C15.9839 47.2485 15.6797 47.5938 15.3105 47.9219C14.9414 48.25 14.4868 48.5166 13.9468 48.7217C13.4136 48.9268 12.7812 49.0293 12.0498 49.0293ZM20.4933 37.7295L22.9235 41.7695L25.3844 37.7295H27.6095L23.9796 43.2051L27.7223 48.8242H25.5279L22.9645 44.6611L20.401 48.8242H18.1964L21.9288 43.2051L18.3092 37.7295H20.4933ZM32.1565 39.8623V53.0898H30.2493V37.7295H31.9924L32.1565 39.8623ZM39.6316 43.1846V43.3999C39.6316 44.2065 39.5359 44.9551 39.3445 45.6455C39.1531 46.3291 38.8728 46.9238 38.5037 47.4297C38.1413 47.9355 37.6936 48.3286 37.1604 48.6089C36.6272 48.8892 36.0154 49.0293 35.3249 49.0293C34.6208 49.0293 33.9988 48.9131 33.4587 48.6807C32.9187 48.4482 32.4607 48.1099 32.0847 47.6655C31.7087 47.2212 31.4079 46.688 31.1824 46.0659C30.9636 45.4438 30.8132 44.7432 30.7312 43.9639V42.8154C30.8132 41.9951 30.967 41.2603 31.1926 40.6108C31.4182 39.9614 31.7156 39.4077 32.0847 38.9497C32.4607 38.4849 32.9153 38.1328 33.4485 37.8936C33.9817 37.6475 34.5969 37.5244 35.2942 37.5244C35.9914 37.5244 36.6101 37.6611 37.1501 37.9346C37.6902 38.2012 38.1448 38.584 38.5139 39.083C38.883 39.582 39.1599 40.1802 39.3445 40.8774C39.5359 41.5679 39.6316 42.3369 39.6316 43.1846ZM37.7244 43.3999V43.1846C37.7244 42.6309 37.6663 42.1113 37.55 41.626C37.4338 41.1338 37.2527 40.7031 37.0066 40.334C36.7673 39.958 36.4597 39.6641 36.0837 39.4521C35.7078 39.2334 35.26 39.124 34.7405 39.124C34.262 39.124 33.845 39.2061 33.4895 39.3701C33.1409 39.5342 32.8435 39.7563 32.5974 40.0366C32.3513 40.3101 32.1496 40.6245 31.9924 40.98C31.842 41.3286 31.7292 41.6909 31.654 42.0669V44.7227C31.7908 45.2012 31.9822 45.6523 32.2283 46.0762C32.4744 46.4932 32.8025 46.8315 33.2126 47.0913C33.6228 47.3442 34.1389 47.4707 34.761 47.4707C35.2737 47.4707 35.7146 47.3647 36.0837 47.1528C36.4597 46.9341 36.7673 46.6367 37.0066 46.2607C37.2527 45.8848 37.4338 45.4541 37.55 44.9688C37.6663 44.4766 37.7244 43.9536 37.7244 43.3999ZM42.1791 43.3999V43.1641C42.1791 42.3643 42.2953 41.6226 42.5277 40.939C42.7601 40.2485 43.0951 39.6504 43.5326 39.1445C43.9701 38.6318 44.4999 38.2354 45.1219 37.9551C45.744 37.668 46.4413 37.5244 47.2137 37.5244C47.993 37.5244 48.6937 37.668 49.3158 37.9551C49.9447 38.2354 50.4779 38.6318 50.9154 39.1445C51.3597 39.6504 51.6981 40.2485 51.9305 40.939C52.1629 41.6226 52.2792 42.3643 52.2792 43.1641V43.3999C52.2792 44.1997 52.1629 44.9414 51.9305 45.625C51.6981 46.3086 51.3597 46.9067 50.9154 47.4194C50.4779 47.9253 49.9481 48.3218 49.326 48.6089C48.7108 48.8892 48.0135 49.0293 47.2342 49.0293C46.4549 49.0293 45.7543 48.8892 45.1322 48.6089C44.5101 48.3218 43.9769 47.9253 43.5326 47.4194C43.0951 46.9067 42.7601 46.3086 42.5277 45.625C42.2953 44.9414 42.1791 44.1997 42.1791 43.3999ZM44.076 43.1641V43.3999C44.076 43.9536 44.141 44.4766 44.2709 44.9688C44.4007 45.4541 44.5956 45.8848 44.8553 46.2607C45.1219 46.6367 45.4535 46.9341 45.85 47.1528C46.2464 47.3647 46.7079 47.4707 47.2342 47.4707C47.7538 47.4707 48.2084 47.3647 48.598 47.1528C48.9945 46.9341 49.3226 46.6367 49.5824 46.2607C49.8421 45.8848 50.037 45.4541 50.1669 44.9688C50.3036 44.4766 50.3719 43.9536 50.3719 43.3999V43.1641C50.3719 42.6172 50.3036 42.1011 50.1669 41.6157C50.037 41.1235 49.8387 40.6895 49.5721 40.3135C49.3124 39.9307 48.9842 39.6299 48.5878 39.4111C48.1981 39.1924 47.7401 39.083 47.2137 39.083C46.6942 39.083 46.2362 39.1924 45.8397 39.4111C45.4501 39.6299 45.1219 39.9307 44.8553 40.3135C44.5956 40.6895 44.4007 41.1235 44.2709 41.6157C44.141 42.1011 44.076 42.6172 44.076 43.1641ZM57.185 39.4727V48.8242H55.2881V37.7295H57.1338L57.185 39.4727ZM60.6509 37.668L60.6406 39.4316C60.4834 39.3975 60.333 39.377 60.1894 39.3701C60.0527 39.3564 59.8955 39.3496 59.7178 39.3496C59.2803 39.3496 58.894 39.418 58.5591 39.5547C58.2241 39.6914 57.9404 39.8828 57.708 40.1289C57.4756 40.375 57.291 40.6689 57.1543 41.0107C57.0244 41.3457 56.9389 41.7148 56.8979 42.1182L56.3647 42.4258C56.3647 41.7559 56.4297 41.127 56.5596 40.5391C56.6963 39.9512 56.9048 39.4316 57.185 38.9805C57.4653 38.5225 57.8208 38.167 58.2514 37.9141C58.6889 37.6543 59.2085 37.5244 59.81 37.5244C59.9468 37.5244 60.104 37.5415 60.2817 37.5757C60.4595 37.603 60.5825 37.6338 60.6509 37.668ZM68.192 37.7295V39.1855H62.1935V37.7295H68.192ZM64.2237 35.0327H66.1207V46.0762C66.1207 46.4521 66.1788 46.7358 66.295 46.9272C66.4112 47.1187 66.5616 47.2451 66.7462 47.3066C66.9308 47.3682 67.129 47.3989 67.3409 47.3989C67.4981 47.3989 67.6622 47.3853 67.8331 47.3579C68.0108 47.3237 68.1441 47.2964 68.233 47.2759L68.2433 48.8242C68.0929 48.8721 67.8946 48.9165 67.6485 48.9575C67.4093 49.0054 67.1188 49.0293 66.777 49.0293C66.3121 49.0293 65.8849 48.937 65.4952 48.7524C65.1056 48.5679 64.7945 48.2603 64.5621 47.8296C64.3365 47.3921 64.2237 46.8042 64.2237 46.0659V35.0327ZM83.4383 44.4663V33.8945H85.4071V44.4663C85.4071 45.4507 85.2054 46.2812 84.8021 46.958C84.3988 47.6348 83.8416 48.1509 83.1307 48.5063C82.4266 48.855 81.6165 49.0293 80.7005 49.0293C79.7845 49.0293 78.971 48.8721 78.2601 48.5576C77.5492 48.2432 76.992 47.7646 76.5887 47.1221C76.1854 46.4795 75.9837 45.6694 75.9837 44.6919H77.9627C77.9627 45.3208 78.0789 45.8369 78.3114 46.2402C78.5438 46.6436 78.8651 46.9409 79.2752 47.1323C79.6922 47.3237 80.1673 47.4194 80.7005 47.4194C81.2201 47.4194 81.6849 47.3101 82.0951 47.0913C82.5121 46.8657 82.8402 46.5342 83.0794 46.0967C83.3187 45.6523 83.4383 45.1089 83.4383 44.4663ZM94.6914 35.2173L89.749 48.8242H87.729L93.4199 33.8945H94.7221L94.6914 35.2173ZM98.8339 48.8242L93.8813 35.2173L93.8505 33.8945H95.1528L100.864 48.8242H98.8339ZM98.5776 43.2974V44.9175H90.1899V43.2974H98.5776ZM107.411 46.5581L111.81 33.8945H113.953L108.426 48.8242H106.898L107.411 46.5581ZM103.299 33.8945L107.657 46.5581L108.2 48.8242H106.672L101.156 33.8945H103.299ZM121.34 35.2173L116.398 48.8242H114.378L120.069 33.8945H121.371L121.34 35.2173ZM125.483 48.8242L120.53 35.2173L120.499 33.8945H121.801L127.513 48.8242H125.483ZM125.226 43.2974V44.9175H116.839V43.2974H125.226ZM137.853 48.8242V50.3828H128.451V48.8242H137.853ZM149.998 40.3135V41.9233H141.918V40.3135H149.998ZM142.226 33.8945V48.8242H140.247V33.8945H142.226ZM151.721 33.8945V48.8242H149.752V33.8945H151.721ZM167.363 40.8877V41.8311C167.363 42.9521 167.223 43.957 166.942 44.8457C166.662 45.7344 166.259 46.4897 165.732 47.1118C165.206 47.7339 164.574 48.209 163.836 48.5371C163.104 48.8652 162.284 49.0293 161.375 49.0293C160.493 49.0293 159.683 48.8652 158.944 48.5371C158.213 48.209 157.577 47.7339 157.037 47.1118C156.504 46.4897 156.09 45.7344 155.796 44.8457C155.503 43.957 155.356 42.9521 155.356 41.8311V40.8877C155.356 39.7666 155.499 38.7651 155.786 37.8833C156.08 36.9946 156.494 36.2393 157.027 35.6172C157.56 34.9883 158.192 34.5098 158.924 34.1816C159.662 33.8535 160.472 33.6895 161.354 33.6895C162.263 33.6895 163.084 33.8535 163.815 34.1816C164.553 34.5098 165.186 34.9883 165.712 35.6172C166.245 36.2393 166.652 36.9946 166.932 37.8833C167.219 38.7651 167.363 39.7666 167.363 40.8877ZM165.404 41.8311V40.8672C165.404 39.9785 165.312 39.1924 165.128 38.5088C164.95 37.8252 164.687 37.251 164.338 36.7861C163.989 36.3213 163.562 35.9692 163.056 35.73C162.557 35.4907 161.99 35.3711 161.354 35.3711C160.739 35.3711 160.182 35.4907 159.683 35.73C159.19 35.9692 158.767 36.3213 158.411 36.7861C158.063 37.251 157.793 37.8252 157.601 38.5088C157.41 39.1924 157.314 39.9785 157.314 40.8672V41.8311C157.314 42.7266 157.41 43.5195 157.601 44.21C157.793 44.8936 158.066 45.4712 158.421 45.9429C158.784 46.4077 159.211 46.7598 159.703 46.999C160.202 47.2383 160.759 47.3579 161.375 47.3579C162.017 47.3579 162.588 47.2383 163.087 46.999C163.586 46.7598 164.006 46.4077 164.348 45.9429C164.697 45.4712 164.96 44.8936 165.138 44.21C165.315 43.5195 165.404 42.7266 165.404 41.8311ZM171.582 33.8945H173.499L178.39 46.0659L183.271 33.8945H185.199L179.129 48.8242H177.632L171.582 33.8945ZM170.956 33.8945H172.648L172.925 43V48.8242H170.956V33.8945ZM184.122 33.8945H185.814V48.8242H183.845V43L184.122 33.8945ZM199.405 47.2144V48.8242H191.499V47.2144H199.405ZM191.899 33.8945V48.8242H189.92V33.8945H191.899ZM198.359 40.3135V41.9233H191.499V40.3135H198.359ZM199.303 33.8945V35.5146H191.499V33.8945H199.303ZM210.863 38.8267V40.4775H202.311V38.8267H210.863ZM210.863 43.082V44.7329H202.311V43.082H210.863ZM220.958 33.8945L214.733 50.106H213.103L219.337 33.8945H220.958ZM233 47.2144V48.8242H225.535V47.2144H233ZM225.925 33.8945V48.8242H223.946V33.8945H225.925ZM237.67 37.7295V48.8242H235.763V37.7295H237.67ZM235.619 34.7866C235.619 34.479 235.712 34.2192 235.896 34.0073C236.088 33.7954 236.368 33.6895 236.737 33.6895C237.099 33.6895 237.376 33.7954 237.568 34.0073C237.766 34.2192 237.865 34.479 237.865 34.7866C237.865 35.0806 237.766 35.3335 237.568 35.5454C237.376 35.7505 237.099 35.853 236.737 35.853C236.368 35.853 236.088 35.7505 235.896 35.5454C235.712 35.3335 235.619 35.0806 235.619 34.7866ZM241.335 33.0742H243.243V46.6709L243.079 48.8242H241.335V33.0742ZM250.738 43.1846V43.3999C250.738 44.2065 250.642 44.9551 250.451 45.6455C250.26 46.3291 249.979 46.9238 249.61 47.4297C249.241 47.9355 248.79 48.3286 248.257 48.6089C247.724 48.8892 247.112 49.0293 246.421 49.0293C245.717 49.0293 245.099 48.9097 244.565 48.6704C244.039 48.4243 243.595 48.0723 243.232 47.6143C242.87 47.1562 242.579 46.6025 242.361 45.9531C242.149 45.3037 242.002 44.5723 241.92 43.7588V42.8154C242.002 41.9951 242.149 41.2603 242.361 40.6108C242.579 39.9614 242.87 39.4077 243.232 38.9497C243.595 38.4849 244.039 38.1328 244.565 37.8936C245.092 37.6475 245.704 37.5244 246.401 37.5244C247.098 37.5244 247.717 37.6611 248.257 37.9346C248.797 38.2012 249.248 38.584 249.61 39.083C249.979 39.582 250.26 40.1802 250.451 40.8774C250.642 41.5679 250.738 42.3369 250.738 43.1846ZM248.831 43.3999V43.1846C248.831 42.6309 248.78 42.1113 248.677 41.626C248.575 41.1338 248.411 40.7031 248.185 40.334C247.959 39.958 247.662 39.6641 247.293 39.4521C246.924 39.2334 246.469 39.124 245.929 39.124C245.451 39.124 245.034 39.2061 244.678 39.3701C244.329 39.5342 244.032 39.7563 243.786 40.0366C243.54 40.3101 243.338 40.6245 243.181 40.98C243.031 41.3286 242.918 41.6909 242.843 42.0669V44.5381C242.952 45.0166 243.13 45.478 243.376 45.9224C243.629 46.3599 243.964 46.7188 244.381 46.999C244.805 47.2793 245.328 47.4194 245.95 47.4194C246.462 47.4194 246.9 47.3169 247.262 47.1118C247.631 46.8999 247.929 46.6094 248.154 46.2402C248.387 45.8711 248.558 45.4438 248.667 44.9585C248.776 44.4731 248.831 43.9536 248.831 43.3999ZM255.665 39.4727V48.8242H253.768V37.7295H255.613L255.665 39.4727ZM259.13 37.668L259.12 39.4316C258.963 39.3975 258.813 39.377 258.669 39.3701C258.532 39.3564 258.375 39.3496 258.197 39.3496C257.76 39.3496 257.374 39.418 257.039 39.5547C256.704 39.6914 256.42 39.8828 256.188 40.1289C255.955 40.375 255.771 40.6689 255.634 41.0107C255.504 41.3457 255.418 41.7148 255.377 42.1182L254.844 42.4258C254.844 41.7559 254.909 41.127 255.039 40.5391C255.176 39.9512 255.384 39.4316 255.665 38.9805C255.945 38.5225 256.3 38.167 256.731 37.9141C257.168 37.6543 257.688 37.5244 258.29 37.5244C258.426 37.5244 258.584 37.5415 258.761 37.5757C258.939 37.603 259.062 37.6338 259.13 37.668ZM267.646 46.9272V41.2158C267.646 40.7783 267.557 40.3989 267.379 40.0776C267.208 39.7495 266.948 39.4966 266.6 39.3188C266.251 39.1411 265.82 39.0522 265.308 39.0522C264.829 39.0522 264.409 39.1343 264.047 39.2983C263.691 39.4624 263.411 39.6777 263.206 39.9443C263.007 40.2109 262.908 40.498 262.908 40.8057H261.011C261.011 40.4092 261.114 40.0161 261.319 39.6265C261.524 39.2368 261.818 38.8848 262.201 38.5703C262.59 38.249 263.055 37.9961 263.595 37.8115C264.142 37.6201 264.751 37.5244 265.421 37.5244C266.227 37.5244 266.938 37.6611 267.553 37.9346C268.175 38.208 268.661 38.6216 269.009 39.1753C269.365 39.7222 269.543 40.4092 269.543 41.2363V46.4043C269.543 46.7734 269.573 47.1665 269.635 47.5835C269.703 48.0005 269.802 48.3594 269.932 48.6602V48.8242H267.953C267.858 48.6055 267.782 48.3149 267.728 47.9526C267.673 47.5835 267.646 47.2417 267.646 46.9272ZM267.974 42.0977L267.994 43.4307H266.077C265.537 43.4307 265.055 43.4751 264.631 43.564C264.207 43.646 263.852 43.7725 263.565 43.9434C263.277 44.1143 263.059 44.3296 262.908 44.5894C262.758 44.8423 262.683 45.1396 262.683 45.4814C262.683 45.8301 262.761 46.1479 262.919 46.4351C263.076 46.7222 263.312 46.9512 263.626 47.1221C263.947 47.2861 264.34 47.3682 264.805 47.3682C265.386 47.3682 265.899 47.2451 266.343 46.999C266.788 46.7529 267.14 46.4521 267.4 46.0967C267.666 45.7412 267.81 45.396 267.83 45.061L268.64 45.9736C268.592 46.2607 268.463 46.5786 268.251 46.9272C268.039 47.2759 267.755 47.6108 267.4 47.9321C267.051 48.2466 266.634 48.5098 266.149 48.7217C265.67 48.9268 265.13 49.0293 264.528 49.0293C263.777 49.0293 263.117 48.8823 262.549 48.5884C261.989 48.2944 261.551 47.9014 261.237 47.4092C260.929 46.9102 260.776 46.353 260.776 45.7378C260.776 45.1431 260.892 44.6201 261.124 44.1689C261.357 43.7109 261.692 43.3315 262.129 43.0308C262.567 42.7231 263.093 42.4907 263.708 42.3335C264.323 42.1763 265.01 42.0977 265.769 42.0977H267.974ZM275.053 39.4727V48.8242H273.156V37.7295H275.002L275.053 39.4727ZM278.519 37.668L278.509 39.4316C278.352 39.3975 278.201 39.377 278.058 39.3701C277.921 39.3564 277.764 39.3496 277.586 39.3496C277.149 39.3496 276.762 39.418 276.427 39.5547C276.093 39.6914 275.809 39.8828 275.576 40.1289C275.344 40.375 275.159 40.6689 275.023 41.0107C274.893 41.3457 274.807 41.7148 274.766 42.1182L274.233 42.4258C274.233 41.7559 274.298 41.127 274.428 40.5391C274.565 39.9512 274.773 39.4316 275.053 38.9805C275.334 38.5225 275.689 38.167 276.12 37.9141C276.557 37.6543 277.077 37.5244 277.678 37.5244C277.815 37.5244 277.972 37.5415 278.15 37.5757C278.328 37.603 278.451 37.6338 278.519 37.668ZM284.204 47.6758L287.291 37.7295H289.321L284.871 50.5366C284.768 50.8101 284.632 51.104 284.461 51.4185C284.297 51.7397 284.085 52.0439 283.825 52.3311C283.565 52.6182 283.251 52.8506 282.882 53.0283C282.519 53.2129 282.085 53.3052 281.579 53.3052C281.429 53.3052 281.238 53.2847 281.005 53.2437C280.773 53.2026 280.609 53.1685 280.513 53.1411L280.503 51.603C280.557 51.6099 280.643 51.6167 280.759 51.6235C280.882 51.6372 280.968 51.644 281.016 51.644C281.446 51.644 281.812 51.5859 282.113 51.4697C282.413 51.3604 282.666 51.1724 282.871 50.9058C283.083 50.646 283.265 50.2871 283.415 49.8291L284.204 47.6758ZM281.938 37.7295L284.82 46.3428L285.312 48.3423L283.948 49.0396L279.867 37.7295H281.938ZM298.267 33.8945L292.043 50.106H290.413L296.647 33.8945H298.267ZM307.521 44.4663V33.8945H309.489V44.4663C309.489 45.4507 309.288 46.2812 308.884 46.958C308.481 47.6348 307.924 48.1509 307.213 48.5063C306.509 48.855 305.699 49.0293 304.783 49.0293C303.867 49.0293 303.053 48.8721 302.342 48.5576C301.631 48.2432 301.074 47.7646 300.671 47.1221C300.268 46.4795 300.066 45.6694 300.066 44.6919H302.045C302.045 45.3208 302.161 45.8369 302.394 46.2402C302.626 46.6436 302.947 46.9409 303.358 47.1323C303.775 47.3237 304.25 47.4194 304.783 47.4194C305.302 47.4194 305.767 47.3101 306.177 47.0913C306.594 46.8657 306.922 46.5342 307.162 46.0967C307.401 45.6523 307.521 45.1089 307.521 44.4663ZM319.727 46.9272V41.2158C319.727 40.7783 319.638 40.3989 319.461 40.0776C319.29 39.7495 319.03 39.4966 318.681 39.3188C318.333 39.1411 317.902 39.0522 317.389 39.0522C316.911 39.0522 316.49 39.1343 316.128 39.2983C315.773 39.4624 315.492 39.6777 315.287 39.9443C315.089 40.2109 314.99 40.498 314.99 40.8057H313.093C313.093 40.4092 313.196 40.0161 313.401 39.6265C313.606 39.2368 313.9 38.8848 314.282 38.5703C314.672 38.249 315.137 37.9961 315.677 37.8115C316.224 37.6201 316.832 37.5244 317.502 37.5244C318.309 37.5244 319.02 37.6611 319.635 37.9346C320.257 38.208 320.742 38.6216 321.091 39.1753C321.447 39.7222 321.624 40.4092 321.624 41.2363V46.4043C321.624 46.7734 321.655 47.1665 321.717 47.5835C321.785 48.0005 321.884 48.3594 322.014 48.6602V48.8242H320.035C319.939 48.6055 319.864 48.3149 319.809 47.9526C319.755 47.5835 319.727 47.2417 319.727 46.9272ZM320.055 42.0977L320.076 43.4307H318.158C317.618 43.4307 317.136 43.4751 316.713 43.564C316.289 43.646 315.933 43.7725 315.646 43.9434C315.359 44.1143 315.14 44.3296 314.99 44.5894C314.84 44.8423 314.764 45.1396 314.764 45.4814C314.764 45.8301 314.843 46.1479 315 46.4351C315.157 46.7222 315.393 46.9512 315.708 47.1221C316.029 47.2861 316.422 47.3682 316.887 47.3682C317.468 47.3682 317.981 47.2451 318.425 46.999C318.869 46.7529 319.221 46.4521 319.481 46.0967C319.748 45.7412 319.891 45.396 319.912 45.061L320.722 45.9736C320.674 46.2607 320.544 46.5786 320.332 46.9272C320.12 47.2759 319.837 47.6108 319.481 47.9321C319.133 48.2466 318.716 48.5098 318.23 48.7217C317.752 48.9268 317.212 49.0293 316.61 49.0293C315.858 49.0293 315.198 48.8823 314.631 48.5884C314.071 48.2944 313.633 47.9014 313.319 47.4092C313.011 46.9102 312.857 46.353 312.857 45.7378C312.857 45.1431 312.973 44.6201 313.206 44.1689C313.438 43.7109 313.773 43.3315 314.211 43.0308C314.648 42.7231 315.175 42.4907 315.79 42.3335C316.405 42.1763 317.092 42.0977 317.851 42.0977H320.055ZM328.448 47.1118L331.483 37.7295H333.421L329.432 48.8242H328.161L328.448 47.1118ZM325.915 37.7295L329.042 47.1631L329.258 48.8242H327.986L323.967 37.7295H325.915ZM342.254 46.9272V41.2158C342.254 40.7783 342.165 40.3989 341.987 40.0776C341.816 39.7495 341.557 39.4966 341.208 39.3188C340.859 39.1411 340.429 39.0522 339.916 39.0522C339.437 39.0522 339.017 39.1343 338.655 39.2983C338.299 39.4624 338.019 39.6777 337.814 39.9443C337.616 40.2109 337.517 40.498 337.517 40.8057H335.62C335.62 40.4092 335.722 40.0161 335.927 39.6265C336.132 39.2368 336.426 38.8848 336.809 38.5703C337.199 38.249 337.664 37.9961 338.204 37.8115C338.75 37.6201 339.359 37.5244 340.029 37.5244C340.835 37.5244 341.546 37.6611 342.162 37.9346C342.784 38.208 343.269 38.6216 343.618 39.1753C343.973 39.7222 344.151 40.4092 344.151 41.2363V46.4043C344.151 46.7734 344.182 47.1665 344.243 47.5835C344.311 48.0005 344.411 48.3594 344.54 48.6602V48.8242H342.561C342.466 48.6055 342.391 48.3149 342.336 47.9526C342.281 47.5835 342.254 47.2417 342.254 46.9272ZM342.582 42.0977L342.603 43.4307H340.685C340.145 43.4307 339.663 43.4751 339.239 43.564C338.815 43.646 338.46 43.7725 338.173 43.9434C337.886 44.1143 337.667 44.3296 337.517 44.5894C337.366 44.8423 337.291 45.1396 337.291 45.4814C337.291 45.8301 337.37 46.1479 337.527 46.4351C337.684 46.7222 337.92 46.9512 338.234 47.1221C338.556 47.2861 338.949 47.3682 339.414 47.3682C339.995 47.3682 340.507 47.2451 340.952 46.999C341.396 46.7529 341.748 46.4521 342.008 46.0967C342.274 45.7412 342.418 45.396 342.438 45.061L343.249 45.9736C343.201 46.2607 343.071 46.5786 342.859 46.9272C342.647 47.2759 342.363 47.6108 342.008 47.9321C341.659 48.2466 341.242 48.5098 340.757 48.7217C340.278 48.9268 339.738 49.0293 339.137 49.0293C338.385 49.0293 337.725 48.8823 337.158 48.5884C336.597 48.2944 336.16 47.9014 335.845 47.4092C335.538 46.9102 335.384 46.353 335.384 45.7378C335.384 45.1431 335.5 44.6201 335.732 44.1689C335.965 43.7109 336.3 43.3315 336.737 43.0308C337.175 42.7231 337.701 42.4907 338.316 42.3335C338.932 42.1763 339.619 42.0977 340.377 42.0977H342.582ZM354.368 33.8945L348.144 50.106H346.514L352.748 33.8945H354.368ZM363.622 44.4663V33.8945H365.591V44.4663C365.591 45.4507 365.389 46.2812 364.986 46.958C364.582 47.6348 364.025 48.1509 363.314 48.5063C362.61 48.855 361.8 49.0293 360.884 49.0293C359.968 49.0293 359.155 48.8721 358.444 48.5576C357.733 48.2432 357.176 47.7646 356.772 47.1221C356.369 46.4795 356.167 45.6694 356.167 44.6919H358.146C358.146 45.3208 358.262 45.8369 358.495 46.2402C358.727 46.6436 359.049 46.9409 359.459 47.1323C359.876 47.3237 360.351 47.4194 360.884 47.4194C361.404 47.4194 361.868 47.3101 362.279 47.0913C362.696 46.8657 363.024 46.5342 363.263 46.0967C363.502 45.6523 363.622 45.1089 363.622 44.4663ZM375.828 46.9272V41.2158C375.828 40.7783 375.74 40.3989 375.562 40.0776C375.391 39.7495 375.131 39.4966 374.783 39.3188C374.434 39.1411 374.003 39.0522 373.491 39.0522C373.012 39.0522 372.592 39.1343 372.229 39.2983C371.874 39.4624 371.594 39.6777 371.389 39.9443C371.19 40.2109 371.091 40.498 371.091 40.8057H369.194C369.194 40.4092 369.297 40.0161 369.502 39.6265C369.707 39.2368 370.001 38.8848 370.384 38.5703C370.773 38.249 371.238 37.9961 371.778 37.8115C372.325 37.6201 372.933 37.5244 373.603 37.5244C374.41 37.5244 375.121 37.6611 375.736 37.9346C376.358 38.208 376.844 38.6216 377.192 39.1753C377.548 39.7222 377.725 40.4092 377.725 41.2363V46.4043C377.725 46.7734 377.756 47.1665 377.818 47.5835C377.886 48.0005 377.985 48.3594 378.115 48.6602V48.8242H376.136C376.04 48.6055 375.965 48.3149 375.91 47.9526C375.856 47.5835 375.828 47.2417 375.828 46.9272ZM376.157 42.0977L376.177 43.4307H374.26C373.72 43.4307 373.238 43.4751 372.814 43.564C372.39 43.646 372.035 43.7725 371.747 43.9434C371.46 44.1143 371.242 44.3296 371.091 44.5894C370.941 44.8423 370.866 45.1396 370.866 45.4814C370.866 45.8301 370.944 46.1479 371.101 46.4351C371.259 46.7222 371.494 46.9512 371.809 47.1221C372.13 47.2861 372.523 47.3682 372.988 47.3682C373.569 47.3682 374.082 47.2451 374.526 46.999C374.971 46.7529 375.323 46.4521 375.582 46.0967C375.849 45.7412 375.993 45.396 376.013 45.061L376.823 45.9736C376.775 46.2607 376.645 46.5786 376.433 46.9272C376.222 47.2759 375.938 47.6108 375.582 47.9321C375.234 48.2466 374.817 48.5098 374.331 48.7217C373.853 48.9268 373.313 49.0293 372.711 49.0293C371.959 49.0293 371.3 48.8823 370.732 48.5884C370.172 48.2944 369.734 47.9014 369.42 47.4092C369.112 46.9102 368.958 46.353 368.958 45.7378C368.958 45.1431 369.075 44.6201 369.307 44.1689C369.539 43.7109 369.874 43.3315 370.312 43.0308C370.749 42.7231 371.276 42.4907 371.891 42.3335C372.506 42.1763 373.193 42.0977 373.952 42.0977H376.157ZM384.549 47.1118L387.584 37.7295H389.522L385.533 48.8242H384.262L384.549 47.1118ZM382.016 37.7295L385.144 47.1631L385.359 48.8242H384.087L380.068 37.7295H382.016ZM398.355 46.9272V41.2158C398.355 40.7783 398.266 40.3989 398.088 40.0776C397.918 39.7495 397.658 39.4966 397.309 39.3188C396.961 39.1411 396.53 39.0522 396.017 39.0522C395.539 39.0522 395.118 39.1343 394.756 39.2983C394.4 39.4624 394.12 39.6777 393.915 39.9443C393.717 40.2109 393.618 40.498 393.618 40.8057H391.721C391.721 40.4092 391.823 40.0161 392.028 39.6265C392.233 39.2368 392.527 38.8848 392.91 38.5703C393.3 38.249 393.765 37.9961 394.305 37.8115C394.852 37.6201 395.46 37.5244 396.13 37.5244C396.937 37.5244 397.648 37.6611 398.263 37.9346C398.885 38.208 399.37 38.6216 399.719 39.1753C400.074 39.7222 400.252 40.4092 400.252 41.2363V46.4043C400.252 46.7734 400.283 47.1665 400.344 47.5835C400.413 48.0005 400.512 48.3594 400.642 48.6602V48.8242H398.663C398.567 48.6055 398.492 48.3149 398.437 47.9526C398.382 47.5835 398.355 47.2417 398.355 46.9272ZM398.683 42.0977L398.704 43.4307H396.786C396.246 43.4307 395.764 43.4751 395.34 43.564C394.917 43.646 394.561 43.7725 394.274 43.9434C393.987 44.1143 393.768 44.3296 393.618 44.5894C393.467 44.8423 393.392 45.1396 393.392 45.4814C393.392 45.8301 393.471 46.1479 393.628 46.4351C393.785 46.7222 394.021 46.9512 394.336 47.1221C394.657 47.2861 395.05 47.3682 395.515 47.3682C396.096 47.3682 396.608 47.2451 397.053 46.999C397.497 46.7529 397.849 46.4521 398.109 46.0967C398.376 45.7412 398.519 45.396 398.54 45.061L399.35 45.9736C399.302 46.2607 399.172 46.5786 398.96 46.9272C398.748 47.2759 398.464 47.6108 398.109 47.9321C397.76 48.2466 397.343 48.5098 396.858 48.7217C396.379 48.9268 395.839 49.0293 395.238 49.0293C394.486 49.0293 393.826 48.8823 393.259 48.5884C392.698 48.2944 392.261 47.9014 391.946 47.4092C391.639 46.9102 391.485 46.353 391.485 45.7378C391.485 45.1431 391.601 44.6201 391.834 44.1689C392.066 43.7109 392.401 43.3315 392.838 43.0308C393.276 42.7231 393.802 42.4907 394.418 42.3335C395.033 42.1763 395.72 42.0977 396.479 42.0977H398.683ZM408.972 46.5581L413.371 33.8945H415.514L409.987 48.8242H408.46L408.972 46.5581ZM404.861 33.8945L409.218 46.5581L409.762 48.8242H408.234L402.717 33.8945H404.861ZM419.928 37.7295V48.8242H418.021V37.7295H419.928ZM417.877 34.7866C417.877 34.479 417.97 34.2192 418.154 34.0073C418.346 33.7954 418.626 33.6895 418.995 33.6895C419.357 33.6895 419.634 33.7954 419.826 34.0073C420.024 34.2192 420.123 34.479 420.123 34.7866C420.123 35.0806 420.024 35.3335 419.826 35.5454C419.634 35.7505 419.357 35.853 418.995 35.853C418.626 35.853 418.346 35.7505 418.154 35.5454C417.97 35.3335 417.877 35.0806 417.877 34.7866ZM425.5 39.4727V48.8242H423.603V37.7295H425.449L425.5 39.4727ZM428.966 37.668L428.956 39.4316C428.799 39.3975 428.648 39.377 428.505 39.3701C428.368 39.3564 428.211 39.3496 428.033 39.3496C427.596 39.3496 427.209 39.418 426.874 39.5547C426.539 39.6914 426.256 39.8828 426.023 40.1289C425.791 40.375 425.606 40.6689 425.47 41.0107C425.34 41.3457 425.254 41.7148 425.213 42.1182L424.68 42.4258C424.68 41.7559 424.745 41.127 424.875 40.5391C425.012 39.9512 425.22 39.4316 425.5 38.9805C425.781 38.5225 426.136 38.167 426.567 37.9141C427.004 37.6543 427.524 37.5244 428.125 37.5244C428.262 37.5244 428.419 37.5415 428.597 37.5757C428.775 37.603 428.898 37.6338 428.966 37.668ZM436.507 37.7295V39.1855H430.509V37.7295H436.507ZM432.539 35.0327H434.436V46.0762C434.436 46.4521 434.494 46.7358 434.61 46.9272C434.727 47.1187 434.877 47.2451 435.062 47.3066C435.246 47.3682 435.444 47.3989 435.656 47.3989C435.814 47.3989 435.978 47.3853 436.148 47.3579C436.326 47.3237 436.46 47.2964 436.548 47.2759L436.559 48.8242C436.408 48.8721 436.21 48.9165 435.964 48.9575C435.725 49.0054 435.434 49.0293 435.092 49.0293C434.628 49.0293 434.2 48.937 433.811 48.7524C433.421 48.5679 433.11 48.2603 432.878 47.8296C432.652 47.3921 432.539 46.8042 432.539 46.0659V35.0327ZM446.151 46.2607V37.7295H448.058V48.8242H446.243L446.151 46.2607ZM446.509 43.9229L447.299 43.9023C447.299 44.6406 447.22 45.3242 447.063 45.9531C446.913 46.5752 446.667 47.1152 446.325 47.5732C445.983 48.0312 445.535 48.3901 444.982 48.6499C444.428 48.9028 443.755 49.0293 442.962 49.0293C442.422 49.0293 441.926 48.9507 441.475 48.7935C441.03 48.6362 440.648 48.3936 440.326 48.0654C440.005 47.7373 439.756 47.3101 439.578 46.7837C439.407 46.2573 439.321 45.625 439.321 44.8867V37.7295H441.218V44.9072C441.218 45.4062 441.273 45.8198 441.383 46.1479C441.499 46.4692 441.653 46.7256 441.844 46.917C442.042 47.1016 442.261 47.2314 442.5 47.3066C442.746 47.3818 442.999 47.4194 443.259 47.4194C444.066 47.4194 444.705 47.2656 445.176 46.958C445.648 46.6436 445.987 46.2231 446.192 45.6968C446.404 45.1636 446.509 44.5723 446.509 43.9229ZM458.121 46.9272V41.2158C458.121 40.7783 458.033 40.3989 457.855 40.0776C457.684 39.7495 457.424 39.4966 457.076 39.3188C456.727 39.1411 456.296 39.0522 455.784 39.0522C455.305 39.0522 454.885 39.1343 454.522 39.2983C454.167 39.4624 453.887 39.6777 453.681 39.9443C453.483 40.2109 453.384 40.498 453.384 40.8057H451.487C451.487 40.4092 451.59 40.0161 451.795 39.6265C452 39.2368 452.294 38.8848 452.677 38.5703C453.066 38.249 453.531 37.9961 454.071 37.8115C454.618 37.6201 455.226 37.5244 455.896 37.5244C456.703 37.5244 457.414 37.6611 458.029 37.9346C458.651 38.208 459.137 38.6216 459.485 39.1753C459.841 39.7222 460.018 40.4092 460.018 41.2363V46.4043C460.018 46.7734 460.049 47.1665 460.111 47.5835C460.179 48.0005 460.278 48.3594 460.408 48.6602V48.8242H458.429C458.333 48.6055 458.258 48.3149 458.203 47.9526C458.149 47.5835 458.121 47.2417 458.121 46.9272ZM458.45 42.0977L458.47 43.4307H456.553C456.013 43.4307 455.531 43.4751 455.107 43.564C454.683 43.646 454.327 43.7725 454.04 43.9434C453.753 44.1143 453.534 44.3296 453.384 44.5894C453.234 44.8423 453.159 45.1396 453.159 45.4814C453.159 45.8301 453.237 46.1479 453.394 46.4351C453.552 46.7222 453.787 46.9512 454.102 47.1221C454.423 47.2861 454.816 47.3682 455.281 47.3682C455.862 47.3682 456.375 47.2451 456.819 46.999C457.263 46.7529 457.616 46.4521 457.875 46.0967C458.142 45.7412 458.285 45.396 458.306 45.061L459.116 45.9736C459.068 46.2607 458.938 46.5786 458.726 46.9272C458.514 47.2759 458.231 47.6108 457.875 47.9321C457.527 48.2466 457.11 48.5098 456.624 48.7217C456.146 48.9268 455.606 49.0293 455.004 49.0293C454.252 49.0293 453.593 48.8823 453.025 48.5884C452.465 48.2944 452.027 47.9014 451.713 47.4092C451.405 46.9102 451.251 46.353 451.251 45.7378C451.251 45.1431 451.367 44.6201 451.6 44.1689C451.832 43.7109 452.167 43.3315 452.605 43.0308C453.042 42.7231 453.569 42.4907 454.184 42.3335C454.799 42.1763 455.486 42.0977 456.245 42.0977H458.45ZM465.693 33.0742V48.8242H463.786V33.0742H465.693ZM470.281 33.8945H472.199L477.09 46.0659L481.971 33.8945H483.898L477.828 48.8242H476.331L470.281 33.8945ZM469.656 33.8945H471.348L471.625 43V48.8242H469.656V33.8945ZM482.822 33.8945H484.514V48.8242H482.545V43L482.822 33.8945ZM494.875 46.9272V41.2158C494.875 40.7783 494.786 40.3989 494.608 40.0776C494.437 39.7495 494.177 39.4966 493.829 39.3188C493.48 39.1411 493.049 39.0522 492.537 39.0522C492.058 39.0522 491.638 39.1343 491.276 39.2983C490.92 39.4624 490.64 39.6777 490.435 39.9443C490.236 40.2109 490.137 40.498 490.137 40.8057H488.24C488.24 40.4092 488.343 40.0161 488.548 39.6265C488.753 39.2368 489.047 38.8848 489.43 38.5703C489.819 38.249 490.284 37.9961 490.824 37.8115C491.371 37.6201 491.98 37.5244 492.65 37.5244C493.456 37.5244 494.167 37.6611 494.782 37.9346C495.404 38.208 495.89 38.6216 496.238 39.1753C496.594 39.7222 496.772 40.4092 496.772 41.2363V46.4043C496.772 46.7734 496.802 47.1665 496.864 47.5835C496.932 48.0005 497.031 48.3594 497.161 48.6602V48.8242H495.182C495.087 48.6055 495.011 48.3149 494.957 47.9526C494.902 47.5835 494.875 47.2417 494.875 46.9272ZM495.203 42.0977L495.223 43.4307H493.306C492.766 43.4307 492.284 43.4751 491.86 43.564C491.436 43.646 491.081 43.7725 490.794 43.9434C490.507 44.1143 490.288 44.3296 490.137 44.5894C489.987 44.8423 489.912 45.1396 489.912 45.4814C489.912 45.8301 489.99 46.1479 490.148 46.4351C490.305 46.7222 490.541 46.9512 490.855 47.1221C491.176 47.2861 491.569 47.3682 492.034 47.3682C492.615 47.3682 493.128 47.2451 493.572 46.999C494.017 46.7529 494.369 46.4521 494.629 46.0967C494.895 45.7412 495.039 45.396 495.059 45.061L495.869 45.9736C495.821 46.2607 495.692 46.5786 495.48 46.9272C495.268 47.2759 494.984 47.6108 494.629 47.9321C494.28 48.2466 493.863 48.5098 493.378 48.7217C492.899 48.9268 492.359 49.0293 491.757 49.0293C491.006 49.0293 490.346 48.8823 489.778 48.5884C489.218 48.2944 488.78 47.9014 488.466 47.4092C488.158 46.9102 488.005 46.353 488.005 45.7378C488.005 45.1431 488.121 44.6201 488.353 44.1689C488.586 43.7109 488.921 43.3315 489.358 43.0308C489.796 42.7231 490.322 42.4907 490.937 42.3335C491.552 42.1763 492.239 42.0977 492.998 42.0977H495.203ZM504.825 47.4707C505.277 47.4707 505.694 47.3784 506.076 47.1938C506.459 47.0093 506.774 46.7563 507.02 46.4351C507.266 46.1069 507.406 45.7344 507.44 45.3174H509.245C509.211 45.9736 508.989 46.5854 508.578 47.1528C508.175 47.7134 507.645 48.168 506.989 48.5166C506.333 48.8584 505.612 49.0293 504.825 49.0293C503.991 49.0293 503.263 48.8823 502.641 48.5884C502.026 48.2944 501.513 47.8911 501.103 47.3784C500.7 46.8657 500.396 46.2778 500.191 45.6147C499.992 44.9448 499.893 44.2373 499.893 43.4922V43.0615C499.893 42.3164 499.992 41.6123 500.191 40.9492C500.396 40.2793 500.7 39.688 501.103 39.1753C501.513 38.6626 502.026 38.2593 502.641 37.9653C503.263 37.6714 503.991 37.5244 504.825 37.5244C505.694 37.5244 506.452 37.7021 507.102 38.0576C507.751 38.4062 508.261 38.8848 508.63 39.4932C509.006 40.0947 509.211 40.7783 509.245 41.5439H507.44C507.406 41.0859 507.276 40.6724 507.051 40.3032C506.832 39.9341 506.531 39.6401 506.148 39.4214C505.772 39.1958 505.331 39.083 504.825 39.083C504.244 39.083 503.756 39.1992 503.359 39.4316C502.97 39.6572 502.658 39.9648 502.426 40.3545C502.2 40.7373 502.036 41.1646 501.934 41.6362C501.838 42.1011 501.79 42.5762 501.79 43.0615V43.4922C501.79 43.9775 501.838 44.4561 501.934 44.9277C502.03 45.3994 502.19 45.8267 502.416 46.2095C502.648 46.5923 502.959 46.8999 503.349 47.1323C503.745 47.3579 504.238 47.4707 504.825 47.4707ZM513.905 33.0742V48.8242H512.008V33.0742H513.905ZM513.454 42.8564L512.664 42.8257C512.671 42.0669 512.784 41.3662 513.002 40.7236C513.221 40.0742 513.529 39.5103 513.925 39.0317C514.322 38.5532 514.793 38.1841 515.34 37.9243C515.894 37.6577 516.506 37.5244 517.176 37.5244C517.723 37.5244 518.215 37.5996 518.652 37.75C519.09 37.8936 519.462 38.126 519.77 38.4473C520.084 38.7686 520.324 39.1855 520.488 39.6982C520.652 40.2041 520.734 40.8228 520.734 41.5542V48.8242H518.827V41.5337C518.827 40.9526 518.741 40.4878 518.57 40.1392C518.399 39.7837 518.15 39.5273 517.822 39.3701C517.494 39.2061 517.09 39.124 516.612 39.124C516.14 39.124 515.709 39.2231 515.32 39.4214C514.937 39.6196 514.605 39.8931 514.325 40.2417C514.052 40.5903 513.836 40.9902 513.679 41.4414C513.529 41.8857 513.454 42.3574 513.454 42.8564ZM526.265 37.7295V48.8242H524.358V37.7295H526.265ZM524.214 34.7866C524.214 34.479 524.307 34.2192 524.491 34.0073C524.683 33.7954 524.963 33.6895 525.332 33.6895C525.694 33.6895 525.971 33.7954 526.163 34.0073C526.361 34.2192 526.46 34.479 526.46 34.7866C526.46 35.0806 526.361 35.3335 526.163 35.5454C525.971 35.7505 525.694 35.853 525.332 35.853C524.963 35.853 524.683 35.7505 524.491 35.5454C524.307 35.3335 524.214 35.0806 524.214 34.7866ZM531.838 40.0981V48.8242H529.941V37.7295H531.735L531.838 40.0981ZM531.386 42.8564L530.597 42.8257C530.604 42.0669 530.716 41.3662 530.935 40.7236C531.154 40.0742 531.462 39.5103 531.858 39.0317C532.255 38.5532 532.726 38.1841 533.273 37.9243C533.827 37.6577 534.439 37.5244 535.109 37.5244C535.655 37.5244 536.148 37.5996 536.585 37.75C537.023 37.8936 537.395 38.126 537.703 38.4473C538.017 38.7686 538.256 39.1855 538.421 39.6982C538.585 40.2041 538.667 40.8228 538.667 41.5542V48.8242H536.759V41.5337C536.759 40.9526 536.674 40.4878 536.503 40.1392C536.332 39.7837 536.083 39.5273 535.755 39.3701C535.426 39.2061 535.023 39.124 534.545 39.124C534.073 39.124 533.642 39.2231 533.253 39.4214C532.87 39.6196 532.538 39.8931 532.258 40.2417C531.984 40.5903 531.769 40.9902 531.612 41.4414C531.462 41.8857 531.386 42.3574 531.386 42.8564ZM546.782 49.0293C546.01 49.0293 545.309 48.8994 544.68 48.6396C544.058 48.373 543.521 48.0005 543.07 47.522C542.626 47.0435 542.284 46.4761 542.045 45.8198C541.805 45.1636 541.686 44.4458 541.686 43.6665V43.2358C541.686 42.3335 541.819 41.5303 542.086 40.8262C542.352 40.1152 542.715 39.5137 543.173 39.0215C543.631 38.5293 544.15 38.1567 544.731 37.9038C545.312 37.6509 545.914 37.5244 546.536 37.5244C547.329 37.5244 548.012 37.6611 548.587 37.9346C549.168 38.208 549.643 38.5908 550.012 39.083C550.381 39.5684 550.655 40.1426 550.832 40.8057C551.01 41.4619 551.099 42.1797 551.099 42.959V43.8101H542.814V42.2617H549.202V42.1182C549.175 41.626 549.072 41.1475 548.894 40.6826C548.723 40.2178 548.45 39.835 548.074 39.5342C547.698 39.2334 547.185 39.083 546.536 39.083C546.105 39.083 545.709 39.1753 545.346 39.3599C544.984 39.5376 544.673 39.8042 544.413 40.1597C544.154 40.5151 543.952 40.9492 543.808 41.4619C543.665 41.9746 543.593 42.5659 543.593 43.2358V43.6665C543.593 44.1929 543.665 44.6885 543.808 45.1533C543.959 45.6113 544.174 46.0146 544.454 46.3633C544.741 46.7119 545.087 46.9854 545.49 47.1836C545.9 47.3818 546.365 47.481 546.885 47.481C547.554 47.481 548.122 47.3442 548.587 47.0708C549.052 46.7974 549.458 46.4316 549.807 45.9736L550.955 46.8862C550.716 47.2485 550.412 47.5938 550.043 47.9219C549.674 48.25 549.219 48.5166 548.679 48.7217C548.146 48.9268 547.513 49.0293 546.782 49.0293ZM560.404 45.8813C560.404 45.6079 560.342 45.355 560.219 45.1226C560.103 44.8833 559.86 44.668 559.491 44.4766C559.129 44.2783 558.582 44.1074 557.85 43.9639C557.235 43.834 556.678 43.6802 556.179 43.5024C555.687 43.3247 555.266 43.1094 554.918 42.8564C554.576 42.6035 554.313 42.3062 554.128 41.9644C553.944 41.6226 553.851 41.2227 553.851 40.7646C553.851 40.3271 553.947 39.9136 554.139 39.5239C554.337 39.1343 554.614 38.7891 554.969 38.4883C555.331 38.1875 555.766 37.9517 556.271 37.7808C556.777 37.6099 557.341 37.5244 557.963 37.5244C558.852 37.5244 559.611 37.6816 560.24 37.9961C560.869 38.3105 561.35 38.731 561.685 39.2573C562.02 39.7769 562.188 40.3545 562.188 40.9902H560.291C560.291 40.6826 560.199 40.3853 560.014 40.0981C559.836 39.8042 559.573 39.5615 559.224 39.3701C558.883 39.1787 558.462 39.083 557.963 39.083C557.437 39.083 557.01 39.165 556.682 39.3291C556.36 39.4863 556.124 39.688 555.974 39.9341C555.83 40.1802 555.759 40.4399 555.759 40.7134C555.759 40.9185 555.793 41.103 555.861 41.2671C555.936 41.4243 556.066 41.5713 556.251 41.708C556.435 41.8379 556.695 41.9609 557.03 42.0771C557.365 42.1934 557.792 42.3096 558.312 42.4258C559.221 42.6309 559.97 42.877 560.557 43.1641C561.145 43.4512 561.583 43.8032 561.87 44.2202C562.157 44.6372 562.301 45.1431 562.301 45.7378C562.301 46.2231 562.198 46.6675 561.993 47.0708C561.795 47.4741 561.504 47.8228 561.121 48.1167C560.745 48.4038 560.294 48.6294 559.768 48.7935C559.248 48.9507 558.664 49.0293 558.015 49.0293C557.037 49.0293 556.21 48.855 555.533 48.5063C554.856 48.1577 554.344 47.7065 553.995 47.1528C553.646 46.5991 553.472 46.0146 553.472 45.3994H555.379C555.407 45.9189 555.557 46.3325 555.83 46.6401C556.104 46.9409 556.439 47.1562 556.835 47.2861C557.232 47.4092 557.625 47.4707 558.015 47.4707C558.534 47.4707 558.968 47.4023 559.317 47.2656C559.672 47.1289 559.942 46.9409 560.127 46.7017C560.311 46.4624 560.404 46.189 560.404 45.8813ZM572.026 33.8945L565.802 50.106H564.171L570.406 33.8945H572.026ZM574.778 37.7295H576.686V50.147C576.686 50.8237 576.576 51.3979 576.358 51.8696C576.146 52.3413 575.824 52.6968 575.394 52.936C574.97 53.1821 574.433 53.3052 573.784 53.3052C573.613 53.3052 573.415 53.2881 573.189 53.2539C572.957 53.2197 572.762 53.1787 572.605 53.1309L572.615 51.603C572.745 51.6304 572.892 51.6509 573.056 51.6646C573.22 51.6851 573.363 51.6953 573.486 51.6953C573.767 51.6953 574.003 51.644 574.194 51.5415C574.385 51.439 574.529 51.2749 574.625 51.0493C574.727 50.8237 574.778 50.5229 574.778 50.147V37.7295ZM574.584 34.7866C574.584 34.479 574.679 34.2192 574.871 34.0073C575.062 33.7954 575.339 33.6895 575.701 33.6895C576.07 33.6895 576.351 33.7954 576.542 34.0073C576.734 34.2192 576.829 34.479 576.829 34.7866C576.829 35.0806 576.734 35.3335 576.542 35.5454C576.351 35.7505 576.07 35.853 575.701 35.853C575.339 35.853 575.062 35.7505 574.871 35.5454C574.679 35.3335 574.584 35.0806 574.584 34.7866ZM587.375 46.6709V33.0742H589.282V48.8242H587.539L587.375 46.6709ZM579.91 43.3999V43.1846C579.91 42.3369 580.012 41.5679 580.218 40.8774C580.429 40.1802 580.727 39.582 581.11 39.083C581.499 38.584 581.961 38.2012 582.494 37.9346C583.034 37.6611 583.635 37.5244 584.299 37.5244C584.996 37.5244 585.604 37.6475 586.124 37.8936C586.65 38.1328 587.094 38.4849 587.457 38.9497C587.826 39.4077 588.116 39.9614 588.328 40.6108C588.54 41.2603 588.687 41.9951 588.769 42.8154V43.7588C588.694 44.5723 588.547 45.3037 588.328 45.9531C588.116 46.6025 587.826 47.1562 587.457 47.6143C587.094 48.0723 586.65 48.4243 586.124 48.6704C585.597 48.9097 584.982 49.0293 584.278 49.0293C583.629 49.0293 583.034 48.8892 582.494 48.6089C581.961 48.3286 581.499 47.9355 581.11 47.4297C580.727 46.9238 580.429 46.3291 580.218 45.6455C580.012 44.9551 579.91 44.2065 579.91 43.3999ZM581.817 43.1846V43.3999C581.817 43.9536 581.872 44.4731 581.981 44.9585C582.097 45.4438 582.275 45.8711 582.514 46.2402C582.754 46.6094 583.058 46.8999 583.427 47.1118C583.796 47.3169 584.237 47.4194 584.75 47.4194C585.379 47.4194 585.895 47.2861 586.298 47.0195C586.708 46.7529 587.036 46.4009 587.282 45.9634C587.529 45.5259 587.72 45.0508 587.857 44.5381V42.0669C587.775 41.6909 587.655 41.3286 587.498 40.98C587.347 40.6245 587.149 40.3101 586.903 40.0366C586.664 39.7563 586.366 39.5342 586.011 39.3701C585.662 39.2061 585.249 39.124 584.77 39.124C584.251 39.124 583.803 39.2334 583.427 39.4521C583.058 39.6641 582.754 39.958 582.514 40.334C582.275 40.7031 582.097 41.1338 581.981 41.626C581.872 42.1113 581.817 42.6309 581.817 43.1846ZM594.772 33.0742V48.8242H592.865V33.0742H594.772ZM601.55 37.7295L596.71 42.9077L594.003 45.7173L593.849 43.6973L595.787 41.3799L599.233 37.7295H601.55ZM599.817 48.8242L595.859 43.5332L596.844 41.8413L602.053 48.8242H599.817ZM608.086 41.6978V43.2563H603.083V41.6978H608.086ZM620.15 47.2656V48.8242H610.378V47.4604L615.269 42.0156C615.87 41.3457 616.335 40.7783 616.663 40.3135C616.998 39.8418 617.231 39.4214 617.36 39.0522C617.497 38.6763 617.566 38.2935 617.566 37.9038C617.566 37.4116 617.463 36.9673 617.258 36.5708C617.06 36.1675 616.766 35.8462 616.376 35.6069C615.986 35.3677 615.515 35.248 614.961 35.248C614.298 35.248 613.744 35.3779 613.3 35.6377C612.862 35.8906 612.534 36.2461 612.316 36.7041C612.097 37.1621 611.987 37.6885 611.987 38.2832H610.09C610.09 37.4424 610.275 36.6733 610.644 35.9761C611.013 35.2788 611.56 34.7251 612.285 34.3149C613.009 33.8979 613.901 33.6895 614.961 33.6895C615.904 33.6895 616.711 33.8569 617.381 34.1919C618.051 34.52 618.564 34.9849 618.919 35.5864C619.281 36.1812 619.463 36.8784 619.463 37.6782C619.463 38.1157 619.387 38.5601 619.237 39.0112C619.093 39.4556 618.892 39.8999 618.632 40.3442C618.379 40.7886 618.082 41.2261 617.74 41.6567C617.405 42.0874 617.046 42.5112 616.663 42.9282L612.664 47.2656H620.15ZM632.182 40.1699V42.4463C632.182 43.6699 632.073 44.7021 631.854 45.543C631.635 46.3838 631.321 47.0605 630.91 47.5732C630.5 48.0859 630.005 48.4585 629.424 48.6909C628.849 48.9165 628.2 49.0293 627.475 49.0293C626.901 49.0293 626.371 48.9575 625.886 48.814C625.401 48.6704 624.963 48.4414 624.573 48.127C624.191 47.8057 623.863 47.3887 623.589 46.876C623.316 46.3633 623.107 45.7412 622.964 45.0098C622.82 44.2783 622.748 43.4238 622.748 42.4463V40.1699C622.748 38.9463 622.858 37.9209 623.076 37.0938C623.302 36.2666 623.62 35.6035 624.03 35.1045C624.44 34.5986 624.932 34.2363 625.507 34.0176C626.088 33.7988 626.737 33.6895 627.455 33.6895C628.036 33.6895 628.569 33.7612 629.054 33.9048C629.547 34.0415 629.984 34.2637 630.367 34.5713C630.75 34.8721 631.074 35.2754 631.341 35.7812C631.615 36.2803 631.823 36.8921 631.967 37.6167C632.11 38.3413 632.182 39.1924 632.182 40.1699ZM630.275 42.7539V39.8521C630.275 39.1821 630.234 38.5942 630.152 38.0884C630.076 37.5757 629.964 37.1382 629.813 36.7759C629.663 36.4136 629.471 36.1196 629.239 35.894C629.013 35.6685 628.75 35.5044 628.449 35.4019C628.156 35.2925 627.824 35.2378 627.455 35.2378C627.004 35.2378 626.604 35.3232 626.255 35.4941C625.906 35.6582 625.613 35.9214 625.373 36.2837C625.141 36.646 624.963 37.1211 624.84 37.709C624.717 38.2969 624.656 39.0112 624.656 39.8521V42.7539C624.656 43.4238 624.693 44.0151 624.768 44.5278C624.85 45.0405 624.97 45.4849 625.127 45.8608C625.284 46.23 625.476 46.5342 625.701 46.7734C625.927 47.0127 626.187 47.1904 626.481 47.3066C626.781 47.416 627.113 47.4707 627.475 47.4707C627.94 47.4707 628.347 47.3818 628.696 47.2041C629.044 47.0264 629.335 46.7495 629.567 46.3735C629.806 45.9907 629.984 45.502 630.1 44.9072C630.217 44.3057 630.275 43.5879 630.275 42.7539ZM635.488 47.8193C635.488 47.498 635.587 47.228 635.785 47.0093C635.991 46.7837 636.284 46.6709 636.667 46.6709C637.05 46.6709 637.341 46.7837 637.539 47.0093C637.744 47.228 637.846 47.498 637.846 47.8193C637.846 48.1338 637.744 48.4004 637.539 48.6191C637.341 48.8379 637.05 48.9473 636.667 48.9473C636.284 48.9473 635.991 48.8379 635.785 48.6191C635.587 48.4004 635.488 48.1338 635.488 47.8193ZM650.791 40.1699V42.4463C650.791 43.6699 650.682 44.7021 650.463 45.543C650.245 46.3838 649.93 47.0605 649.52 47.5732C649.11 48.0859 648.614 48.4585 648.033 48.6909C647.459 48.9165 646.81 49.0293 646.085 49.0293C645.511 49.0293 644.981 48.9575 644.496 48.814C644.01 48.6704 643.573 48.4414 643.183 48.127C642.8 47.8057 642.472 47.3887 642.199 46.876C641.925 46.3633 641.717 45.7412 641.573 45.0098C641.43 44.2783 641.358 43.4238 641.358 42.4463V40.1699C641.358 38.9463 641.467 37.9209 641.686 37.0938C641.912 36.2666 642.229 35.6035 642.64 35.1045C643.05 34.5986 643.542 34.2363 644.116 34.0176C644.697 33.7988 645.347 33.6895 646.064 33.6895C646.645 33.6895 647.179 33.7612 647.664 33.9048C648.156 34.0415 648.594 34.2637 648.977 34.5713C649.359 34.8721 649.684 35.2754 649.951 35.7812C650.224 36.2803 650.433 36.8921 650.576 37.6167C650.72 38.3413 650.791 39.1924 650.791 40.1699ZM648.884 42.7539V39.8521C648.884 39.1821 648.843 38.5942 648.761 38.0884C648.686 37.5757 648.573 37.1382 648.423 36.7759C648.272 36.4136 648.081 36.1196 647.849 35.894C647.623 35.6685 647.36 35.5044 647.059 35.4019C646.765 35.2925 646.434 35.2378 646.064 35.2378C645.613 35.2378 645.213 35.3232 644.865 35.4941C644.516 35.6582 644.222 35.9214 643.983 36.2837C643.75 36.646 643.573 37.1211 643.45 37.709C643.327 38.2969 643.265 39.0112 643.265 39.8521V42.7539C643.265 43.4238 643.303 44.0151 643.378 44.5278C643.46 45.0405 643.58 45.4849 643.737 45.8608C643.894 46.23 644.085 46.5342 644.311 46.7734C644.537 47.0127 644.796 47.1904 645.09 47.3066C645.391 47.416 645.723 47.4707 646.085 47.4707C646.55 47.4707 646.956 47.3818 647.305 47.2041C647.654 47.0264 647.944 46.7495 648.177 46.3735C648.416 45.9907 648.594 45.502 648.71 44.9072C648.826 44.3057 648.884 43.5879 648.884 42.7539ZM654.098 47.8193C654.098 47.498 654.197 47.228 654.395 47.0093C654.6 46.7837 654.894 46.6709 655.277 46.6709C655.66 46.6709 655.95 46.7837 656.148 47.0093C656.354 47.228 656.456 47.498 656.456 47.8193C656.456 48.1338 656.354 48.4004 656.148 48.6191C655.95 48.8379 655.66 48.9473 655.277 48.9473C654.894 48.9473 654.6 48.8379 654.395 48.6191C654.197 48.4004 654.098 48.1338 654.098 47.8193ZM666.263 33.8125V48.8242H664.366V36.1812L660.542 37.5757V35.8633L665.966 33.8125H666.263ZM672.707 47.8193C672.707 47.498 672.806 47.228 673.005 47.0093C673.21 46.7837 673.504 46.6709 673.887 46.6709C674.269 46.6709 674.56 46.7837 674.758 47.0093C674.963 47.228 675.066 47.498 675.066 47.8193C675.066 48.1338 674.963 48.4004 674.758 48.6191C674.56 48.8379 674.269 48.9473 673.887 48.9473C673.504 48.9473 673.21 48.8379 673.005 48.6191C672.806 48.4004 672.707 48.1338 672.707 47.8193ZM678.895 37.7295H680.802V50.147C680.802 50.8237 680.693 51.3979 680.474 51.8696C680.262 52.3413 679.941 52.6968 679.51 52.936C679.086 53.1821 678.55 53.3052 677.9 53.3052C677.729 53.3052 677.531 53.2881 677.306 53.2539C677.073 53.2197 676.878 53.1787 676.721 53.1309L676.731 51.603C676.861 51.6304 677.008 51.6509 677.172 51.6646C677.336 51.6851 677.48 51.6953 677.603 51.6953C677.883 51.6953 678.119 51.644 678.31 51.5415C678.502 51.439 678.645 51.2749 678.741 51.0493C678.844 50.8237 678.895 50.5229 678.895 50.147V37.7295ZM678.7 34.7866C678.7 34.479 678.796 34.2192 678.987 34.0073C679.179 33.7954 679.456 33.6895 679.818 33.6895C680.187 33.6895 680.467 33.7954 680.659 34.0073C680.85 34.2192 680.946 34.479 680.946 34.7866C680.946 35.0806 680.85 35.3335 680.659 35.5454C680.467 35.7505 680.187 35.853 679.818 35.853C679.456 35.853 679.179 35.7505 678.987 35.5454C678.796 35.3335 678.7 35.0806 678.7 34.7866ZM691.491 46.6709V33.0742H693.398V48.8242H691.655L691.491 46.6709ZM684.026 43.3999V43.1846C684.026 42.3369 684.129 41.5679 684.334 40.8774C684.546 40.1802 684.843 39.582 685.226 39.083C685.616 38.584 686.077 38.2012 686.61 37.9346C687.15 37.6611 687.752 37.5244 688.415 37.5244C689.112 37.5244 689.721 37.6475 690.24 37.8936C690.767 38.1328 691.211 38.4849 691.573 38.9497C691.942 39.4077 692.233 39.9614 692.445 40.6108C692.657 41.2603 692.804 41.9951 692.886 42.8154V43.7588C692.811 44.5723 692.664 45.3037 692.445 45.9531C692.233 46.6025 691.942 47.1562 691.573 47.6143C691.211 48.0723 690.767 48.4243 690.24 48.6704C689.714 48.9097 689.099 49.0293 688.395 49.0293C687.745 49.0293 687.15 48.8892 686.61 48.6089C686.077 48.3286 685.616 47.9355 685.226 47.4297C684.843 46.9238 684.546 46.3291 684.334 45.6455C684.129 44.9551 684.026 44.2065 684.026 43.3999ZM685.934 43.1846V43.3999C685.934 43.9536 685.988 44.4731 686.098 44.9585C686.214 45.4438 686.392 45.8711 686.631 46.2402C686.87 46.6094 687.174 46.8999 687.544 47.1118C687.913 47.3169 688.354 47.4194 688.866 47.4194C689.495 47.4194 690.011 47.2861 690.415 47.0195C690.825 46.7529 691.153 46.4009 691.399 45.9634C691.645 45.5259 691.836 45.0508 691.973 44.5381V42.0669C691.891 41.6909 691.772 41.3286 691.614 40.98C691.464 40.6245 691.266 40.3101 691.02 40.0366C690.78 39.7563 690.483 39.5342 690.128 39.3701C689.779 39.2061 689.365 39.124 688.887 39.124C688.367 39.124 687.919 39.2334 687.544 39.4521C687.174 39.6641 686.87 39.958 686.631 40.334C686.392 40.7031 686.214 41.1338 686.098 41.626C685.988 42.1113 685.934 42.6309 685.934 43.1846ZM698.889 33.0742V48.8242H696.982V33.0742H698.889ZM705.667 37.7295L700.827 42.9077L698.12 45.7173L697.966 43.6973L699.904 41.3799L703.349 37.7295H705.667ZM703.934 48.8242L699.976 43.5332L700.96 41.8413L706.169 48.8242H703.934ZM714.859 33.8945L708.635 50.106H707.004L713.239 33.8945H714.859ZM726.86 44.0767H728.829C728.727 45.02 728.456 45.8643 728.019 46.6094C727.581 47.3545 726.963 47.9458 726.163 48.3833C725.363 48.814 724.365 49.0293 723.169 49.0293C722.294 49.0293 721.497 48.8652 720.78 48.5371C720.069 48.209 719.457 47.7441 718.944 47.1426C718.432 46.5342 718.035 45.8062 717.755 44.9585C717.481 44.104 717.345 43.1538 717.345 42.1079V40.6211C717.345 39.5752 717.481 38.6284 717.755 37.7808C718.035 36.9263 718.435 36.1948 718.955 35.5864C719.481 34.978 720.113 34.5098 720.852 34.1816C721.59 33.8535 722.42 33.6895 723.343 33.6895C724.471 33.6895 725.425 33.9014 726.204 34.3252C726.983 34.749 727.588 35.3369 728.019 36.0889C728.456 36.834 728.727 37.6987 728.829 38.6831H726.86C726.765 37.9858 726.587 37.3877 726.327 36.8887C726.067 36.3828 725.698 35.9932 725.22 35.7197C724.741 35.4463 724.116 35.3096 723.343 35.3096C722.68 35.3096 722.096 35.436 721.59 35.689C721.091 35.9419 720.67 36.3008 720.329 36.7656C719.994 37.2305 719.741 37.7876 719.57 38.437C719.399 39.0864 719.313 39.8076 719.313 40.6006V42.1079C719.313 42.8394 719.389 43.5264 719.539 44.1689C719.696 44.8115 719.932 45.3755 720.247 45.8608C720.561 46.3462 720.961 46.729 721.446 47.0093C721.932 47.2827 722.506 47.4194 723.169 47.4194C724.01 47.4194 724.68 47.2861 725.179 47.0195C725.678 46.7529 726.054 46.3701 726.307 45.8711C726.566 45.3721 726.751 44.7739 726.86 44.0767ZM731.366 43.3999V43.1641C731.366 42.3643 731.482 41.6226 731.715 40.939C731.947 40.2485 732.282 39.6504 732.72 39.1445C733.157 38.6318 733.687 38.2354 734.309 37.9551C734.931 37.668 735.628 37.5244 736.401 37.5244C737.18 37.5244 737.881 37.668 738.503 37.9551C739.132 38.2354 739.665 38.6318 740.103 39.1445C740.547 39.6504 740.885 40.2485 741.118 40.939C741.35 41.6226 741.466 42.3643 741.466 43.1641V43.3999C741.466 44.1997 741.35 44.9414 741.118 45.625C740.885 46.3086 740.547 46.9067 740.103 47.4194C739.665 47.9253 739.135 48.3218 738.513 48.6089C737.898 48.8892 737.201 49.0293 736.421 49.0293C735.642 49.0293 734.941 48.8892 734.319 48.6089C733.697 48.3218 733.164 47.9253 732.72 47.4194C732.282 46.9067 731.947 46.3086 731.715 45.625C731.482 44.9414 731.366 44.1997 731.366 43.3999ZM733.263 43.1641V43.3999C733.263 43.9536 733.328 44.4766 733.458 44.9688C733.588 45.4541 733.783 45.8848 734.043 46.2607C734.309 46.6367 734.641 46.9341 735.037 47.1528C735.434 47.3647 735.895 47.4707 736.421 47.4707C736.941 47.4707 737.396 47.3647 737.785 47.1528C738.182 46.9341 738.51 46.6367 738.77 46.2607C739.029 45.8848 739.224 45.4541 739.354 44.9688C739.491 44.4766 739.559 43.9536 739.559 43.3999V43.1641C739.559 42.6172 739.491 42.1011 739.354 41.6157C739.224 41.1235 739.026 40.6895 738.759 40.3135C738.5 39.9307 738.171 39.6299 737.775 39.4111C737.385 39.1924 736.927 39.083 736.401 39.083C735.881 39.083 735.423 39.1924 735.027 39.4111C734.637 39.6299 734.309 39.9307 734.043 40.3135C733.783 40.6895 733.588 41.1235 733.458 41.6157C733.328 42.1011 733.263 42.6172 733.263 43.1641ZM746.372 40.0981V48.8242H744.475V37.7295H746.27L746.372 40.0981ZM745.921 42.8564L745.132 42.8257C745.138 42.0669 745.251 41.3662 745.47 40.7236C745.689 40.0742 745.996 39.5103 746.393 39.0317C746.789 38.5532 747.261 38.1841 747.808 37.9243C748.362 37.6577 748.973 37.5244 749.643 37.5244C750.19 37.5244 750.682 37.5996 751.12 37.75C751.557 37.8936 751.93 38.126 752.237 38.4473C752.552 38.7686 752.791 39.1855 752.955 39.6982C753.119 40.2041 753.201 40.8228 753.201 41.5542V48.8242H751.294V41.5337C751.294 40.9526 751.209 40.4878 751.038 40.1392C750.867 39.7837 750.617 39.5273 750.289 39.3701C749.961 39.2061 749.558 39.124 749.079 39.124C748.608 39.124 748.177 39.2231 747.787 39.4214C747.404 39.6196 747.073 39.8931 746.793 40.2417C746.519 40.5903 746.304 40.9902 746.147 41.4414C745.996 41.8857 745.921 42.3574 745.921 42.8564ZM761.358 37.7295V39.1855H755.359V37.7295H761.358ZM757.389 35.0327H759.286V46.0762C759.286 46.4521 759.344 46.7358 759.461 46.9272C759.577 47.1187 759.727 47.2451 759.912 47.3066C760.096 47.3682 760.295 47.3989 760.507 47.3989C760.664 47.3989 760.828 47.3853 760.999 47.3579C761.177 47.3237 761.31 47.2964 761.399 47.2759L761.409 48.8242C761.259 48.8721 761.06 48.9165 760.814 48.9575C760.575 49.0054 760.284 49.0293 759.943 49.0293C759.478 49.0293 759.051 48.937 758.661 48.7524C758.271 48.5679 757.96 48.2603 757.728 47.8296C757.502 47.3921 757.389 46.8042 757.389 46.0659V35.0327ZM768.817 49.0293C768.044 49.0293 767.344 48.8994 766.715 48.6396C766.093 48.373 765.556 48.0005 765.105 47.522C764.661 47.0435 764.319 46.4761 764.079 45.8198C763.84 45.1636 763.721 44.4458 763.721 43.6665V43.2358C763.721 42.3335 763.854 41.5303 764.12 40.8262C764.387 40.1152 764.749 39.5137 765.207 39.0215C765.665 38.5293 766.185 38.1567 766.766 37.9038C767.347 37.6509 767.949 37.5244 768.571 37.5244C769.364 37.5244 770.047 37.6611 770.621 37.9346C771.203 38.208 771.678 38.5908 772.047 39.083C772.416 39.5684 772.689 40.1426 772.867 40.8057C773.045 41.4619 773.134 42.1797 773.134 42.959V43.8101H764.849V42.2617H771.237V42.1182C771.209 41.626 771.107 41.1475 770.929 40.6826C770.758 40.2178 770.485 39.835 770.109 39.5342C769.733 39.2334 769.22 39.083 768.571 39.083C768.14 39.083 767.744 39.1753 767.381 39.3599C767.019 39.5376 766.708 39.8042 766.448 40.1597C766.188 40.5151 765.987 40.9492 765.843 41.4619C765.7 41.9746 765.628 42.5659 765.628 43.2358V43.6665C765.628 44.1929 765.7 44.6885 765.843 45.1533C765.994 45.6113 766.209 46.0146 766.489 46.3633C766.776 46.7119 767.121 46.9854 767.525 47.1836C767.935 47.3818 768.4 47.481 768.919 47.481C769.589 47.481 770.157 47.3442 770.621 47.0708C771.086 46.7974 771.493 46.4316 771.842 45.9736L772.99 46.8862C772.751 47.2485 772.447 47.5938 772.078 47.9219C771.708 48.25 771.254 48.5166 770.714 48.7217C770.181 48.9268 769.548 49.0293 768.817 49.0293ZM777.875 40.0981V48.8242H775.979V37.7295H777.773L777.875 40.0981ZM777.424 42.8564L776.635 42.8257C776.642 42.0669 776.754 41.3662 776.973 40.7236C777.192 40.0742 777.5 39.5103 777.896 39.0317C778.292 38.5532 778.764 38.1841 779.311 37.9243C779.865 37.6577 780.477 37.5244 781.146 37.5244C781.693 37.5244 782.186 37.5996 782.623 37.75C783.061 37.8936 783.433 38.126 783.741 38.4473C784.055 38.7686 784.294 39.1855 784.458 39.6982C784.623 40.2041 784.705 40.8228 784.705 41.5542V48.8242H782.797V41.5337C782.797 40.9526 782.712 40.4878 782.541 40.1392C782.37 39.7837 782.121 39.5273 781.792 39.3701C781.464 39.2061 781.061 39.124 780.583 39.124C780.111 39.124 779.68 39.2231 779.291 39.4214C778.908 39.6196 778.576 39.8931 778.296 40.2417C778.022 40.5903 777.807 40.9902 777.65 41.4414C777.5 41.8857 777.424 42.3574 777.424 42.8564ZM792.861 37.7295V39.1855H786.862V37.7295H792.861ZM788.893 35.0327H790.79V46.0762C790.79 46.4521 790.848 46.7358 790.964 46.9272C791.08 47.1187 791.231 47.2451 791.415 47.3066C791.6 47.3682 791.798 47.3989 792.01 47.3989C792.167 47.3989 792.331 47.3853 792.502 47.3579C792.68 47.3237 792.813 47.2964 792.902 47.2759L792.912 48.8242C792.762 48.8721 792.564 48.9165 792.318 48.9575C792.078 49.0054 791.788 49.0293 791.446 49.0293C790.981 49.0293 790.554 48.937 790.164 48.7524C789.775 48.5679 789.464 48.2603 789.231 47.8296C789.005 47.3921 788.893 46.8042 788.893 46.0659V35.0327ZM802.176 45.8813C802.176 45.6079 802.115 45.355 801.991 45.1226C801.875 44.8833 801.633 44.668 801.263 44.4766C800.901 44.2783 800.354 44.1074 799.623 43.9639C799.008 43.834 798.45 43.6802 797.951 43.5024C797.459 43.3247 797.039 43.1094 796.69 42.8564C796.348 42.6035 796.085 42.3062 795.901 41.9644C795.716 41.6226 795.624 41.2227 795.624 40.7646C795.624 40.3271 795.719 39.9136 795.911 39.5239C796.109 39.1343 796.386 38.7891 796.741 38.4883C797.104 38.1875 797.538 37.9517 798.044 37.7808C798.55 37.6099 799.114 37.5244 799.736 37.5244C800.624 37.5244 801.383 37.6816 802.012 37.9961C802.641 38.3105 803.123 38.731 803.458 39.2573C803.793 39.7769 803.96 40.3545 803.96 40.9902H802.063C802.063 40.6826 801.971 40.3853 801.786 40.0981C801.609 39.8042 801.345 39.5615 800.997 39.3701C800.655 39.1787 800.235 39.083 799.736 39.083C799.209 39.083 798.782 39.165 798.454 39.3291C798.133 39.4863 797.897 39.688 797.746 39.9341C797.603 40.1802 797.531 40.4399 797.531 40.7134C797.531 40.9185 797.565 41.103 797.634 41.2671C797.709 41.4243 797.839 41.5713 798.023 41.708C798.208 41.8379 798.468 41.9609 798.802 42.0771C799.137 42.1934 799.565 42.3096 800.084 42.4258C800.993 42.6309 801.742 42.877 802.33 43.1641C802.918 43.4512 803.355 43.8032 803.642 44.2202C803.929 44.6372 804.073 45.1431 804.073 45.7378C804.073 46.2231 803.97 46.6675 803.765 47.0708C803.567 47.4741 803.277 47.8228 802.894 48.1167C802.518 48.4038 802.067 48.6294 801.54 48.7935C801.021 48.9507 800.436 49.0293 799.787 49.0293C798.809 49.0293 797.982 48.855 797.305 48.5063C796.629 48.1577 796.116 47.7065 795.767 47.1528C795.419 46.5991 795.244 46.0146 795.244 45.3994H797.152C797.179 45.9189 797.329 46.3325 797.603 46.6401C797.876 46.9409 798.211 47.1562 798.608 47.2861C799.004 47.4092 799.397 47.4707 799.787 47.4707C800.306 47.4707 800.74 47.4023 801.089 47.2656C801.445 47.1289 801.715 46.9409 801.899 46.7017C802.084 46.4624 802.176 46.189 802.176 45.8813ZM813.798 33.8945L807.574 50.106H805.944L812.178 33.8945H813.798ZM826.538 40.3135V41.9233H818.458V40.3135H826.538ZM818.766 33.8945V48.8242H816.787V33.8945H818.766ZM828.261 33.8945V48.8242H826.292V33.8945H828.261ZM831.618 43.3999V43.1641C831.618 42.3643 831.734 41.6226 831.967 40.939C832.199 40.2485 832.534 39.6504 832.972 39.1445C833.409 38.6318 833.939 38.2354 834.561 37.9551C835.183 37.668 835.88 37.5244 836.653 37.5244C837.432 37.5244 838.133 37.668 838.755 37.9551C839.384 38.2354 839.917 38.6318 840.355 39.1445C840.799 39.6504 841.137 40.2485 841.37 40.939C841.602 41.6226 841.718 42.3643 841.718 43.1641V43.3999C841.718 44.1997 841.602 44.9414 841.37 45.625C841.137 46.3086 840.799 46.9067 840.355 47.4194C839.917 47.9253 839.387 48.3218 838.765 48.6089C838.15 48.8892 837.453 49.0293 836.673 49.0293C835.894 49.0293 835.193 48.8892 834.571 48.6089C833.949 48.3218 833.416 47.9253 832.972 47.4194C832.534 46.9067 832.199 46.3086 831.967 45.625C831.734 44.9414 831.618 44.1997 831.618 43.3999ZM833.515 43.1641V43.3999C833.515 43.9536 833.58 44.4766 833.71 44.9688C833.84 45.4541 834.035 45.8848 834.295 46.2607C834.561 46.6367 834.893 46.9341 835.289 47.1528C835.686 47.3647 836.147 47.4707 836.673 47.4707C837.193 47.4707 837.648 47.3647 838.037 47.1528C838.434 46.9341 838.762 46.6367 839.022 46.2607C839.281 45.8848 839.476 45.4541 839.606 44.9688C839.743 44.4766 839.811 43.9536 839.811 43.3999V43.1641C839.811 42.6172 839.743 42.1011 839.606 41.6157C839.476 41.1235 839.278 40.6895 839.011 40.3135C838.752 39.9307 838.423 39.6299 838.027 39.4111C837.637 39.1924 837.179 39.083 836.653 39.083C836.133 39.083 835.675 39.1924 835.279 39.4111C834.889 39.6299 834.561 39.9307 834.295 40.3135C834.035 40.6895 833.84 41.1235 833.71 41.6157C833.58 42.1011 833.515 42.6172 833.515 43.1641ZM846.614 39.9341V48.8242H844.707V37.7295H846.511L846.614 39.9341ZM846.224 42.8564L845.343 42.8257C845.349 42.0669 845.448 41.3662 845.64 40.7236C845.831 40.0742 846.115 39.5103 846.491 39.0317C846.867 38.5532 847.335 38.1841 847.896 37.9243C848.456 37.6577 849.106 37.5244 849.844 37.5244C850.364 37.5244 850.842 37.5996 851.28 37.75C851.717 37.8936 852.096 38.1226 852.418 38.437C852.739 38.7515 852.989 39.1548 853.166 39.647C853.344 40.1392 853.433 40.7339 853.433 41.4312V48.8242H851.536V41.5234C851.536 40.9424 851.437 40.4775 851.239 40.1289C851.047 39.7803 850.774 39.5273 850.418 39.3701C850.063 39.2061 849.646 39.124 849.167 39.124C848.607 39.124 848.138 39.2231 847.762 39.4214C847.386 39.6196 847.086 39.8931 846.86 40.2417C846.635 40.5903 846.47 40.9902 846.368 41.4414C846.272 41.8857 846.224 42.3574 846.224 42.8564ZM853.412 41.8105L852.141 42.2002C852.148 41.5918 852.247 41.0073 852.438 40.4468C852.636 39.8862 852.92 39.3872 853.289 38.9497C853.665 38.5122 854.127 38.167 854.674 37.9141C855.22 37.6543 855.846 37.5244 856.55 37.5244C857.145 37.5244 857.671 37.603 858.129 37.7603C858.594 37.9175 858.984 38.1602 859.298 38.4883C859.619 38.8096 859.862 39.2231 860.026 39.729C860.19 40.2349 860.272 40.8364 860.272 41.5337V48.8242H858.365V41.5132C858.365 40.8911 858.266 40.4092 858.068 40.0674C857.876 39.7188 857.603 39.4761 857.247 39.3394C856.899 39.1958 856.482 39.124 855.996 39.124C855.579 39.124 855.21 39.1958 854.889 39.3394C854.568 39.4829 854.298 39.6812 854.079 39.9341C853.86 40.1802 853.693 40.4639 853.576 40.7852C853.467 41.1064 853.412 41.4482 853.412 41.8105ZM868.377 49.0293C867.605 49.0293 866.904 48.8994 866.275 48.6396C865.653 48.373 865.117 48.0005 864.665 47.522C864.221 47.0435 863.879 46.4761 863.64 45.8198C863.401 45.1636 863.281 44.4458 863.281 43.6665V43.2358C863.281 42.3335 863.414 41.5303 863.681 40.8262C863.948 40.1152 864.31 39.5137 864.768 39.0215C865.226 38.5293 865.745 38.1567 866.327 37.9038C866.908 37.6509 867.509 37.5244 868.131 37.5244C868.924 37.5244 869.608 37.6611 870.182 37.9346C870.763 38.208 871.238 38.5908 871.607 39.083C871.976 39.5684 872.25 40.1426 872.428 40.8057C872.605 41.4619 872.694 42.1797 872.694 42.959V43.8101H864.409V42.2617H870.797V42.1182C870.77 41.626 870.667 41.1475 870.49 40.6826C870.319 40.2178 870.045 39.835 869.669 39.5342C869.293 39.2334 868.781 39.083 868.131 39.083C867.701 39.083 867.304 39.1753 866.942 39.3599C866.579 39.5376 866.268 39.8042 866.009 40.1597C865.749 40.5151 865.547 40.9492 865.404 41.4619C865.26 41.9746 865.188 42.5659 865.188 43.2358V43.6665C865.188 44.1929 865.26 44.6885 865.404 45.1533C865.554 45.6113 865.769 46.0146 866.05 46.3633C866.337 46.7119 866.682 46.9854 867.085 47.1836C867.495 47.3818 867.96 47.481 868.48 47.481C869.15 47.481 869.717 47.3442 870.182 47.0708C870.647 46.7974 871.054 46.4316 871.402 45.9736L872.551 46.8862C872.311 47.2485 872.007 47.5938 871.638 47.9219C871.269 48.25 870.814 48.5166 870.274 48.7217C869.741 48.9268 869.109 49.0293 868.377 49.0293Z" fill="#060407"/>
<path fill-rule="evenodd" clip-rule="evenodd" d="M564.566 8.41001C564.191 8.03493 563.682 7.82422 563.152 7.82422H556.5C556.224 7.82422 556 8.04808 556 8.32422V24.1847C556 24.4609 556.224 24.6847 556.5 24.6847H568.219C568.495 24.6847 568.719 24.4609 568.719 24.1847V13.3917C568.719 12.8613 568.509 12.3526 568.134 11.9775L564.566 8.41001Z" fill="#F4F4F4"/>
<rect x="557.553" y="14.0352" width="9.61344" height="8.33216" rx="0.5" fill="url(#paint1_linear_700_169)"/>
<rect x="557.848" y="14.2578" width="9.07936" height="7.89889" rx="0.5" fill="black"/>
<rect x="558.439" y="14.8477" width="7.91106" height="6.69906" fill="url(#paint2_linear_700_169)"/>
<path d="M558.986 16.895V16.4995L560.084 16.1582V16.1318L558.986 15.7905V15.395L560.486 15.9487V16.3413L558.986 16.895Z" fill="white"/>
<path d="M561 17.3242H562.5" stroke="white" stroke-width="0.3"/>
<mask id="mask0_700_169" style="mask-type:alpha" maskUnits="userSpaceOnUse" x="556" y="7" width="13" height="18">
<path d="M564.24 8.08413C564.074 7.91771 563.848 7.82422 563.613 7.82422H556.518C556.232 7.82422 556 8.05598 556 8.34187V24.1671C556 24.453 556.232 24.6847 556.518 24.6847H568.202C568.488 24.6847 568.719 24.453 568.719 24.1671V12.9307C568.719 12.6954 568.626 12.4697 568.459 12.3032L564.24 8.08413Z" fill="#F4F4F4"/>
</mask>
<g mask="url(#mask0_700_169)">
<g filter="url(#filter0_f_700_169)">
<rect x="563.912" y="6.34375" width="6.06386" height="6.28571" rx="0.5" fill="#4D4D4D"/>
</g>
</g>
<path fill-rule="evenodd" clip-rule="evenodd" d="M568.666 12.629H564.412C564.136 12.629 563.912 12.4052 563.912 12.129V7.875C564.034 7.91882 564.146 7.98928 564.24 8.08274L568.459 12.3018C568.552 12.3952 568.623 12.5072 568.666 12.629Z" fill="url(#paint3_linear_700_169)"/>
<rect x="211.5" y="27.3242" width="667" height="28" stroke="#8B9569" stroke-width="3"/>
<defs>
<filter id="filter0_f_700_169" x="533.912" y="-23.6562" width="66.0645" height="66.2852" filterUnits="userSpaceOnUse" color-interpolation-filters="sRGB">
<feFlood flood-opacity="0" result="BackgroundImageFix"/>
<feBlend mode="normal" in="SourceGraphic" in2="BackgroundImageFix" result="shape"/>
<feGaussianBlur stdDeviation="15" result="effect1_foregroundBlur_700_169"/>
</filter>
<linearGradient id="paint0_linear_700_169" x1="649.5" y1="0.824219" x2="649.5" y2="30.8242" gradientUnits="userSpaceOnUse">
<stop stop-color="#E9E7E9"/>
<stop offset="1" stop-color="#CFCCCF"/>
</linearGradient>
<linearGradient id="paint1_linear_700_169" x1="557.553" y1="14.0352" x2="567.161" y2="22.3732" gradientUnits="userSpaceOnUse">
<stop stop-color="#DEE0E2"/>
<stop offset="1" stop-color="#757275"/>
</linearGradient>
<linearGradient id="paint2_linear_700_169" x1="566.351" y1="14.8477" x2="558.627" y2="21.7568" gradientUnits="userSpaceOnUse">
<stop stop-color="#262626"/>
<stop offset="1" stop-color="#262626"/>
</linearGradient>
<linearGradient id="paint3_linear_700_169" x1="568.645" y1="7.89674" x2="563.912" y2="12.6293" gradientUnits="userSpaceOnUse">
<stop offset="0.579999" stop-color="#E7E7E7"/>
<stop offset="1" stop-color="#FEFEFE"/>
</linearGradient>
</defs>
</svg>
