<svg width="808" height="197" viewBox="0 0 808 197" fill="none" xmlns="http://www.w3.org/2000/svg">
<rect y="0.324219" width="808" height="196" fill="#0C0C0C"/>
<path d="M14.8633 113.383V111.249H17.4912C18.7191 111.249 19.6475 110.946 20.2764 110.339C20.9053 109.725 21.2197 108.831 21.2197 107.655C21.2197 106.622 20.9053 105.84 20.2764 105.308C19.6475 104.777 18.7191 104.511 17.4912 104.511H14.9082V102.377H17.4912C19.4902 102.377 21.0026 102.822 22.0283 103.713C23.0615 104.604 23.5781 105.918 23.5781 107.655C23.5781 109.535 23.0615 110.961 22.0283 111.934C21.0026 112.9 19.4902 113.383 17.4912 113.383H14.8633ZM12.7969 118.324V102.377H15.1328V118.324H12.7969ZM30.5496 118.549C29.6436 118.549 28.7939 118.474 28.0002 118.324C27.2141 118.182 26.4841 117.965 25.8103 117.673L26.1023 115.404C26.9259 115.756 27.7195 116.026 28.4831 116.213C29.2543 116.393 30.003 116.482 30.7292 116.482C31.7774 116.482 32.5561 116.299 33.0652 115.932C33.5743 115.565 33.8288 115.007 33.8288 114.259C33.8288 113.308 33.3422 112.612 32.3689 112.17L29.6062 110.912C28.5206 110.418 27.6858 109.823 27.1018 109.126C26.5253 108.43 26.2371 107.565 26.2371 106.532C26.2371 105.14 26.6563 104.062 27.4949 103.298C28.3334 102.534 29.5201 102.152 31.0549 102.152C32.1256 102.152 33.0727 102.31 33.8962 102.624C34.7198 102.938 35.5134 103.451 36.2771 104.163L34.7048 105.757C34.046 105.218 33.4283 104.829 32.8518 104.589C32.2828 104.342 31.6876 104.219 31.0662 104.219C30.295 104.219 29.696 104.406 29.2693 104.78C28.85 105.147 28.6404 105.694 28.6404 106.42C28.6404 106.937 28.7789 107.36 29.0559 107.689C29.3329 108.011 29.741 108.299 30.28 108.554L32.616 109.654C33.7989 110.208 34.6973 110.833 35.3113 111.53C35.9252 112.226 36.2322 113.121 36.2322 114.214C36.2322 115.659 35.7605 116.744 34.8171 117.471C33.8813 118.189 32.4587 118.549 30.5496 118.549ZM59.4851 118.549C54.5287 118.549 52.0505 115.809 52.0505 110.328C52.0505 107.73 52.6757 105.72 53.926 104.297C55.1763 102.867 56.9395 102.152 59.2155 102.152C60.3161 102.152 61.2745 102.328 62.0905 102.68C62.9066 103.025 63.5018 103.519 63.8762 104.163L62.2141 105.813C61.8772 105.304 61.4467 104.911 60.9226 104.634C60.406 104.357 59.8445 104.219 59.238 104.219C57.793 104.219 56.6325 104.739 55.7566 105.78C54.8881 106.82 54.4538 108.299 54.4538 110.216C54.4538 114.394 56.2582 116.482 59.8669 116.482C60.9525 116.482 62.0232 116.258 63.0788 115.809L63.5954 117.785C62.2927 118.294 60.9226 118.549 59.4851 118.549ZM71.1845 109.52C70.7278 109.52 70.3348 109.359 70.0053 109.037C69.6834 108.707 69.5224 108.314 69.5224 107.857C69.5224 107.393 69.6834 107 70.0053 106.678C70.3348 106.356 70.7278 106.195 71.1845 106.195C71.6487 106.195 72.0418 106.356 72.3637 106.678C72.6857 107 72.8466 107.393 72.8466 107.857C72.8466 108.314 72.6857 108.707 72.3637 109.037C72.0418 109.359 71.6487 109.52 71.1845 109.52ZM71.1845 118.549C70.7278 118.549 70.3348 118.388 70.0053 118.066C69.6834 117.736 69.5224 117.343 69.5224 116.887C69.5224 116.423 69.6834 116.029 70.0053 115.708C70.3348 115.386 70.7278 115.225 71.1845 115.225C71.6487 115.225 72.0418 115.386 72.3637 115.708C72.6857 116.029 72.8466 116.423 72.8466 116.887C72.8466 117.343 72.6857 117.736 72.3637 118.066C72.0418 118.388 71.6487 118.549 71.1845 118.549ZM87.6232 120.458L78.5939 100.243H80.9748L90.0041 120.458H87.6232ZM97.8627 118.549C94.4487 118.549 92.7416 116.767 92.7416 113.203V102.377H95.0776V113.203C95.0776 114.266 95.3059 115.067 95.7626 115.606C96.2193 116.146 96.9343 116.415 97.9077 116.415C99.7944 116.415 100.738 115.344 100.738 113.203V102.377H103.074V113.203C103.074 114.985 102.632 116.321 101.748 117.212C100.865 118.103 99.5698 118.549 97.8627 118.549ZM110.348 118.549C109.45 118.549 108.679 118.523 108.035 118.47C107.398 118.418 106.814 118.332 106.283 118.212L106.552 116.056C107.339 116.175 108.031 116.265 108.63 116.325C109.237 116.385 109.809 116.415 110.348 116.415C111.554 116.415 112.426 116.299 112.965 116.067C113.512 115.827 113.785 115.449 113.785 114.933C113.785 114.573 113.688 114.307 113.493 114.135C113.306 113.956 113.014 113.817 112.617 113.72L109.877 113.023C108.701 112.724 107.836 112.353 107.282 111.912C106.736 111.47 106.463 110.8 106.463 109.901C106.463 108.599 106.96 107.655 107.956 107.071C108.959 106.487 110.573 106.195 112.797 106.195C113.373 106.195 113.908 106.214 114.403 106.251C114.904 106.281 115.417 106.338 115.941 106.42L115.694 108.486C115.088 108.426 114.552 108.385 114.088 108.363C113.624 108.34 113.171 108.329 112.729 108.329C111.396 108.329 110.431 108.445 109.832 108.677C109.233 108.902 108.933 109.272 108.933 109.789C108.933 110.133 109.057 110.384 109.304 110.542C109.551 110.691 109.929 110.83 110.438 110.957L112.639 111.496C113.89 111.796 114.803 112.196 115.38 112.698C115.964 113.199 116.256 113.929 116.256 114.888C116.256 116.168 115.788 117.1 114.852 117.684C113.916 118.261 112.415 118.549 110.348 118.549ZM125.664 118.549C123.635 118.549 122.066 118.017 120.958 116.954C119.858 115.883 119.308 114.349 119.308 112.35C119.308 110.403 119.775 108.891 120.711 107.812C121.647 106.734 122.969 106.195 124.676 106.195C126.285 106.195 127.528 106.682 128.404 107.655C129.288 108.629 129.729 110.044 129.729 111.9C129.729 112.447 129.707 112.956 129.662 113.428H121.307V111.608H127.573C127.573 110.538 127.319 109.718 126.809 109.149C126.3 108.572 125.597 108.284 124.698 108.284C123.687 108.284 122.901 108.629 122.34 109.317C121.786 110.006 121.509 110.979 121.509 112.237C121.509 113.615 121.891 114.663 122.654 115.382C123.425 116.101 124.518 116.46 125.934 116.46C126.428 116.46 126.914 116.434 127.393 116.381C127.873 116.321 128.359 116.243 128.853 116.146L129.145 118.234C128.442 118.369 127.798 118.455 127.214 118.493C126.63 118.53 126.113 118.549 125.664 118.549ZM137.184 113.203L136.487 109.475H137.408C137.543 107.288 138.636 106.195 140.688 106.195C141.916 106.195 142.806 106.547 143.361 107.251C143.915 107.955 144.192 109.093 144.192 110.665H141.833C141.833 109.797 141.702 109.171 141.44 108.79C141.186 108.408 140.77 108.217 140.194 108.217C139.183 108.217 138.427 108.651 137.925 109.52C137.431 110.381 137.184 111.608 137.184 113.203ZM132.152 118.324V116.235H140.104V118.324H132.152ZM134.803 118.324V106.42H136.735L137.184 109.834V118.324H134.803ZM132.602 108.509V106.42H136.577L136.802 108.509H132.602ZM150.433 118.549C149.535 118.549 148.763 118.523 148.12 118.47C147.483 118.418 146.899 118.332 146.368 118.212L146.637 116.056C147.423 116.175 148.116 116.265 148.715 116.325C149.321 116.385 149.894 116.415 150.433 116.415C151.638 116.415 152.511 116.299 153.05 116.067C153.596 115.827 153.87 115.449 153.87 114.933C153.87 114.573 153.772 114.307 153.578 114.135C153.39 113.956 153.098 113.817 152.702 113.72L149.961 113.023C148.786 112.724 147.921 112.353 147.367 111.912C146.821 111.47 146.547 110.8 146.547 109.901C146.547 108.599 147.045 107.655 148.041 107.071C149.044 106.487 150.658 106.195 152.881 106.195C153.458 106.195 153.993 106.214 154.487 106.251C154.989 106.281 155.502 106.338 156.026 106.42L155.779 108.486C155.172 108.426 154.637 108.385 154.173 108.363C153.709 108.34 153.256 108.329 152.814 108.329C151.481 108.329 150.515 108.445 149.916 108.677C149.317 108.902 149.018 109.272 149.018 109.789C149.018 110.133 149.142 110.384 149.389 110.542C149.636 110.691 150.014 110.83 150.523 110.957L152.724 111.496C153.974 111.796 154.888 112.196 155.464 112.698C156.048 113.199 156.34 113.929 156.34 114.888C156.34 116.168 155.872 117.1 154.936 117.684C154.001 118.261 152.499 118.549 150.433 118.549ZM167.793 120.458L158.763 100.243H161.144L170.173 120.458H167.793ZM173.36 118.324V102.377H175.696V118.324H173.36ZM173.36 112.08V109.946H181.895V112.08H173.36ZM173.36 104.511V102.377H183.917V104.511H173.36ZM192.472 118.549C190.443 118.549 188.874 118.017 187.766 116.954C186.666 115.883 186.115 114.349 186.115 112.35C186.115 110.403 186.583 108.891 187.519 107.812C188.455 106.734 189.776 106.195 191.484 106.195C193.093 106.195 194.336 106.682 195.212 107.655C196.095 108.629 196.537 110.044 196.537 111.9C196.537 112.447 196.515 112.956 196.47 113.428H188.114V111.608H194.381C194.381 110.538 194.126 109.718 193.617 109.149C193.108 108.572 192.404 108.284 191.506 108.284C190.495 108.284 189.709 108.629 189.148 109.317C188.594 110.006 188.317 110.979 188.317 112.237C188.317 113.615 188.698 114.663 189.462 115.382C190.233 116.101 191.326 116.46 192.741 116.46C193.235 116.46 193.722 116.434 194.201 116.381C194.68 116.321 195.167 116.243 195.661 116.146L195.953 118.234C195.249 118.369 194.606 118.455 194.022 118.493C193.438 118.53 192.921 118.549 192.472 118.549ZM207.271 118.324V110.575C207.271 109.856 207.084 109.302 206.709 108.913C206.335 108.524 205.811 108.329 205.137 108.329C203.265 108.329 202.329 109.43 202.329 111.631L201.633 108.576H202.554C202.621 107.775 202.913 107.18 203.43 106.791C203.947 106.394 204.703 106.195 205.699 106.195C206.956 106.195 207.93 106.577 208.619 107.341C209.307 108.104 209.652 109.183 209.652 110.575V118.324H207.271ZM199.949 118.324V106.42H202.105L202.329 108.936V118.324H199.949ZM217.353 113.203L216.657 109.475H217.578C217.712 107.288 218.806 106.195 220.857 106.195C222.085 106.195 222.976 106.547 223.53 107.251C224.084 107.955 224.361 109.093 224.361 110.665H222.003C222.003 109.797 221.872 109.171 221.609 108.79C221.355 108.408 220.939 108.217 220.363 108.217C219.352 108.217 218.596 108.651 218.094 109.52C217.6 110.381 217.353 111.608 217.353 113.203ZM212.322 118.324V116.235H220.273V118.324H212.322ZM214.972 118.324V106.42H216.904L217.353 109.834V118.324H214.972ZM212.771 108.509V106.42H216.747L216.971 108.509H212.771ZM231.119 118.324V107.094H233.5V118.324H231.119ZM226.582 118.324V116.235H231.344V118.324H226.582ZM233.275 118.324V116.235H237.161V118.324H233.275ZM227.256 108.509V106.42H233.5V108.509H227.256ZM232.231 104.533C231.774 104.533 231.381 104.372 231.052 104.05C230.73 103.721 230.569 103.328 230.569 102.871C230.569 102.407 230.73 102.014 231.052 101.692C231.381 101.37 231.774 101.209 232.231 101.209C232.695 101.209 233.088 101.37 233.41 101.692C233.732 102.014 233.893 102.407 233.893 102.871C233.893 103.328 233.732 103.721 233.41 104.05C233.088 104.372 232.695 104.533 232.231 104.533ZM243.964 118.549C243.066 118.549 242.294 118.523 241.65 118.47C241.014 118.418 240.43 118.332 239.899 118.212L240.168 116.056C240.954 116.175 241.647 116.265 242.246 116.325C242.852 116.385 243.425 116.415 243.964 116.415C245.169 116.415 246.042 116.299 246.581 116.067C247.127 115.827 247.4 115.449 247.4 114.933C247.4 114.573 247.303 114.307 247.108 114.135C246.921 113.956 246.629 113.817 246.232 113.72L243.492 113.023C242.317 112.724 241.452 112.353 240.898 111.912C240.351 111.47 240.078 110.8 240.078 109.901C240.078 108.599 240.576 107.655 241.572 107.071C242.575 106.487 244.189 106.195 246.412 106.195C246.989 106.195 247.524 106.214 248.018 106.251C248.52 106.281 249.033 106.338 249.557 106.42L249.31 108.486C248.703 108.426 248.168 108.385 247.704 108.363C247.239 108.34 246.787 108.329 246.345 108.329C245.012 108.329 244.046 108.445 243.447 108.677C242.848 108.902 242.549 109.272 242.549 109.789C242.549 110.133 242.672 110.384 242.92 110.542C243.167 110.691 243.545 110.83 244.054 110.957L246.255 111.496C247.505 111.796 248.419 112.196 248.995 112.698C249.579 113.199 249.871 113.929 249.871 114.888C249.871 116.168 249.403 117.1 248.467 117.684C247.531 118.261 246.03 118.549 243.964 118.549ZM253.148 115.921V113.45L261.009 110.463V110.261L253.148 107.273V104.803L263.907 109.228V111.496L253.148 115.921ZM13.0215 150.715L12.9092 148.604L15.1553 148.401C16.3607 148.297 17.2329 147.945 17.772 147.346C18.3185 146.754 18.5918 145.848 18.5918 144.628V141.012H20.9727V144.269C20.9727 145.684 20.763 146.837 20.3438 147.728C19.9245 148.618 19.2694 149.289 18.3784 149.738C17.4875 150.194 16.3382 150.475 14.9307 150.58L13.0215 150.715ZM13.9648 135.509V133.42H18.7715V135.509H13.9648ZM18.5918 141.394V133.42H20.9727V141.394H18.5918ZM19.5352 131.533C19.0785 131.533 18.6854 131.372 18.356 131.05C18.034 130.721 17.873 130.328 17.873 129.871C17.873 129.407 18.034 129.014 18.356 128.692C18.6854 128.37 19.0785 128.209 19.5352 128.209C19.9993 128.209 20.3924 128.37 20.7144 128.692C21.0363 129.014 21.1973 129.407 21.1973 129.871C21.1973 130.328 21.0363 130.721 20.7144 131.05C20.3924 131.372 19.9993 131.533 19.5352 131.533ZM33.5481 145.437L33.3909 141.91L33.0764 140.922V137.845C33.0764 137.051 32.7956 136.471 32.2341 136.104C31.6801 135.73 30.8528 135.528 29.7522 135.498L26.8996 135.419L27.1243 133.308L29.5276 133.341C31.4967 133.371 32.9566 133.798 33.9075 134.622C34.8658 135.438 35.345 136.632 35.345 138.204V143.168L37.3664 143.415V145.324L33.5481 145.437ZM29.3479 145.549C28.1051 145.549 27.143 145.249 26.4617 144.65C25.7803 144.051 25.4397 143.205 25.4397 142.112C25.4397 140.854 25.9076 139.889 26.8435 139.215C27.7869 138.541 29.1158 138.204 30.8303 138.204C31.5416 138.204 32.1742 138.249 32.7283 138.339C33.2898 138.421 33.7877 138.549 34.2219 138.721L33.7278 140.338C33.2261 140.226 32.7357 140.162 32.2566 140.147C31.7774 140.125 31.287 140.113 30.7854 140.113C28.719 140.113 27.6858 140.742 27.6858 142C27.6858 142.524 27.8617 142.928 28.2136 143.213C28.573 143.497 29.0784 143.64 29.7297 143.64C30.4709 143.64 31.0886 143.512 31.5828 143.258C32.0844 143.003 32.4587 142.678 32.7058 142.281C32.9529 141.884 33.0764 141.476 33.0764 141.057V139.754L33.7727 142.809H32.8293L33.2112 142.449C33.2112 143.138 33.0502 143.715 32.7283 144.179C32.4138 144.635 31.9683 144.98 31.3918 145.212C30.8153 145.437 30.134 145.549 29.3479 145.549ZM42.8779 145.324L38.6216 133.42H41.1596L44.3603 143.303H44.5625L47.7632 133.42H50.3013L46.0449 145.324H42.8779ZM60.2712 145.437L60.114 141.91L59.7995 140.922V137.845C59.7995 137.051 59.5188 136.471 58.9572 136.104C58.4032 135.73 57.5759 135.528 56.4753 135.498L53.6228 135.419L53.8474 133.308L56.2507 133.341C58.2198 133.371 59.6797 133.798 60.6306 134.622C61.5889 135.438 62.0681 136.632 62.0681 138.204V143.168L64.0896 143.415V145.324L60.2712 145.437ZM56.071 145.549C54.8282 145.549 53.8661 145.249 53.1848 144.65C52.5035 144.051 52.1628 143.205 52.1628 142.112C52.1628 140.854 52.6307 139.889 53.5666 139.215C54.51 138.541 55.8389 138.204 57.5534 138.204C58.2647 138.204 58.8973 138.249 59.4514 138.339C60.0129 138.421 60.5108 138.549 60.945 138.721L60.4509 140.338C59.9493 140.226 59.4589 140.162 58.9797 140.147C58.5005 140.125 58.0101 140.113 57.5085 140.113C55.4421 140.113 54.4089 140.742 54.4089 142C54.4089 142.524 54.5848 142.928 54.9367 143.213C55.2961 143.497 55.8015 143.64 56.4529 143.64C57.1941 143.64 57.8117 143.512 58.3059 143.258C58.8075 143.003 59.1819 142.678 59.4289 142.281C59.676 141.884 59.7995 141.476 59.7995 141.057V139.754L60.4958 142.809H59.5525L59.9343 142.449C59.9343 143.138 59.7733 143.715 59.4514 144.179C59.1369 144.635 58.6915 144.98 58.115 145.212C57.5385 145.437 56.8571 145.549 56.071 145.549ZM72.33 145.549C70.3011 145.549 68.7325 145.017 67.6245 143.954C66.5239 142.883 65.9736 141.349 65.9736 139.35C65.9736 137.403 66.4939 135.891 67.5346 134.812C68.5828 133.734 70.0765 133.195 72.0156 133.195C73.1761 133.195 74.1681 133.412 74.9917 133.847C75.8227 134.273 76.4142 134.88 76.7661 135.666L74.9355 137.047C74.5986 136.501 74.1681 136.078 73.644 135.778C73.1199 135.479 72.5472 135.329 71.9257 135.329C70.8027 135.329 69.9305 135.67 69.309 136.351C68.6876 137.025 68.3769 137.987 68.3769 139.237C68.3769 140.592 68.74 141.629 69.4663 142.348C70.2 143.059 71.2444 143.415 72.5996 143.415C73.1536 143.415 73.7076 143.389 74.2617 143.336C74.8157 143.284 75.3548 143.213 75.8789 143.123L76.1484 145.212C75.5345 145.347 74.8981 145.437 74.2392 145.481C73.5879 145.526 72.9515 145.549 72.33 145.549ZM92.8764 145.324V142.764C95.3396 141.401 97.1777 139.986 98.3906 138.519C99.6109 137.044 100.221 135.524 100.221 133.959C100.221 133.046 99.9965 132.361 99.5473 131.904C99.0981 131.447 98.4168 131.219 97.5034 131.219C96.8969 131.219 96.2643 131.395 95.6054 131.747C94.9466 132.098 94.3813 132.566 93.9096 133.15L92.3598 131.612C92.8764 130.871 93.6101 130.275 94.561 129.826C95.5118 129.377 96.5076 129.152 97.5483 129.152C99.2328 129.152 100.491 129.553 101.322 130.354C102.16 131.148 102.58 132.349 102.58 133.959C102.58 135.569 102.067 137.115 101.041 138.597C100.023 140.072 98.4692 141.491 96.3803 142.854V145.324H92.8764ZM93.5502 145.324V143.19H103.253V145.324H93.5502ZM111.269 145.549C107.646 145.549 105.834 142.854 105.834 137.463C105.834 131.923 107.646 129.152 111.269 129.152C114.893 129.152 116.705 131.923 116.705 137.463C116.705 142.854 114.893 145.549 111.269 145.549ZM111.269 139.147C110.768 139.147 110.36 138.994 110.045 138.687C109.738 138.373 109.585 137.965 109.585 137.463C109.585 136.954 109.738 136.546 110.045 136.239C110.36 135.932 110.768 135.778 111.269 135.778C111.778 135.778 112.186 135.932 112.493 136.239C112.8 136.546 112.954 136.954 112.954 137.463C112.954 137.965 112.8 138.373 112.493 138.687C112.186 138.994 111.778 139.147 111.269 139.147ZM111.269 143.482C113.291 143.482 114.301 141.476 114.301 137.463C114.301 133.3 113.291 131.219 111.269 131.219C109.248 131.219 108.237 133.3 108.237 137.463C108.237 141.476 109.248 143.482 111.269 143.482ZM124.631 145.549C124.174 145.549 123.781 145.388 123.452 145.066C123.13 144.736 122.969 144.343 122.969 143.887C122.969 143.423 123.13 143.029 123.452 142.708C123.781 142.386 124.174 142.225 124.631 142.225C125.095 142.225 125.488 142.386 125.81 142.708C126.132 143.029 126.293 143.423 126.293 143.887C126.293 144.343 126.132 144.736 125.81 145.066C125.488 145.388 125.095 145.549 124.631 145.549ZM137.992 145.549C134.369 145.549 132.557 142.854 132.557 137.463C132.557 131.923 134.369 129.152 137.992 129.152C141.616 129.152 143.428 131.923 143.428 137.463C143.428 142.854 141.616 145.549 137.992 145.549ZM137.992 139.147C137.491 139.147 137.083 138.994 136.768 138.687C136.461 138.373 136.308 137.965 136.308 137.463C136.308 136.954 136.461 136.546 136.768 136.239C137.083 135.932 137.491 135.778 137.992 135.778C138.501 135.778 138.909 135.932 139.216 136.239C139.523 136.546 139.677 136.954 139.677 137.463C139.677 137.965 139.523 138.373 139.216 138.687C138.909 138.994 138.501 139.147 137.992 139.147ZM137.992 143.482C140.014 143.482 141.025 141.476 141.025 137.463C141.025 133.3 140.014 131.219 137.992 131.219C135.971 131.219 134.96 133.3 134.96 137.463C134.96 141.476 135.971 143.482 137.992 143.482ZM151.354 145.549C150.897 145.549 150.504 145.388 150.175 145.066C149.853 144.736 149.692 144.343 149.692 143.887C149.692 143.423 149.853 143.029 150.175 142.708C150.504 142.386 150.897 142.225 151.354 142.225C151.818 142.225 152.211 142.386 152.533 142.708C152.855 143.029 153.016 143.423 153.016 143.887C153.016 144.343 152.855 144.736 152.533 145.066C152.211 145.388 151.818 145.549 151.354 145.549ZM163.884 145.324V129.377H166.22V145.324H163.884ZM159.886 145.324V143.19H164.109V145.324H159.886ZM165.996 145.324V143.19H169.792V145.324H165.996ZM160.111 132.993V130.725L163.884 129.377V131.69L160.111 132.993ZM14.8633 167.383V165.249H17.4912C18.7191 165.249 19.6475 164.946 20.2764 164.339C20.9053 163.725 21.2197 162.831 21.2197 161.655C21.2197 160.622 20.9053 159.84 20.2764 159.308C19.6475 158.777 18.7191 158.511 17.4912 158.511H14.9082V156.377H17.4912C19.4902 156.377 21.0026 156.822 22.0283 157.713C23.0615 158.604 23.5781 159.918 23.5781 161.655C23.5781 163.535 23.0615 164.961 22.0283 165.934C21.0026 166.9 19.4902 167.383 17.4912 167.383H14.8633ZM12.7969 172.324V156.377H15.1328V172.324H12.7969ZM30.5496 172.549C29.6436 172.549 28.7939 172.474 28.0002 172.324C27.2141 172.182 26.4841 171.965 25.8103 171.673L26.1023 169.404C26.9259 169.756 27.7195 170.026 28.4831 170.213C29.2543 170.393 30.003 170.482 30.7292 170.482C31.7774 170.482 32.5561 170.299 33.0652 169.932C33.5743 169.565 33.8288 169.007 33.8288 168.259C33.8288 167.308 33.3422 166.612 32.3689 166.17L29.6062 164.912C28.5206 164.418 27.6858 163.823 27.1018 163.126C26.5253 162.43 26.2371 161.565 26.2371 160.532C26.2371 159.14 26.6563 158.062 27.4949 157.298C28.3334 156.534 29.5201 156.152 31.0549 156.152C32.1256 156.152 33.0727 156.31 33.8962 156.624C34.7198 156.938 35.5134 157.451 36.2771 158.163L34.7048 159.757C34.046 159.218 33.4283 158.829 32.8518 158.589C32.2828 158.342 31.6876 158.219 31.0662 158.219C30.295 158.219 29.696 158.406 29.2693 158.78C28.85 159.147 28.6404 159.694 28.6404 160.42C28.6404 160.937 28.7789 161.36 29.0559 161.689C29.3329 162.011 29.741 162.299 30.28 162.554L32.616 163.654C33.7989 164.208 34.6973 164.833 35.3113 165.53C35.9252 166.226 36.2322 167.121 36.2322 168.214C36.2322 169.659 35.7605 170.744 34.8171 171.471C33.8813 172.189 32.4587 172.549 30.5496 172.549ZM59.4851 172.549C54.5287 172.549 52.0505 169.809 52.0505 164.328C52.0505 161.73 52.6757 159.72 53.926 158.297C55.1763 156.867 56.9395 156.152 59.2155 156.152C60.3161 156.152 61.2745 156.328 62.0905 156.68C62.9066 157.025 63.5018 157.519 63.8762 158.163L62.2141 159.813C61.8772 159.304 61.4467 158.911 60.9226 158.634C60.406 158.357 59.8445 158.219 59.238 158.219C57.793 158.219 56.6325 158.739 55.7566 159.78C54.8881 160.82 54.4538 162.299 54.4538 164.216C54.4538 168.394 56.2582 170.482 59.8669 170.482C60.9525 170.482 62.0232 170.258 63.0788 169.809L63.5954 171.785C62.2927 172.294 60.9226 172.549 59.4851 172.549ZM71.1845 163.52C70.7278 163.52 70.3348 163.359 70.0053 163.037C69.6834 162.707 69.5224 162.314 69.5224 161.857C69.5224 161.393 69.6834 161 70.0053 160.678C70.3348 160.356 70.7278 160.195 71.1845 160.195C71.6487 160.195 72.0418 160.356 72.3637 160.678C72.6857 161 72.8466 161.393 72.8466 161.857C72.8466 162.314 72.6857 162.707 72.3637 163.037C72.0418 163.359 71.6487 163.52 71.1845 163.52ZM71.1845 172.549C70.7278 172.549 70.3348 172.388 70.0053 172.066C69.6834 171.736 69.5224 171.343 69.5224 170.887C69.5224 170.423 69.6834 170.029 70.0053 169.708C70.3348 169.386 70.7278 169.225 71.1845 169.225C71.6487 169.225 72.0418 169.386 72.3637 169.708C72.6857 170.029 72.8466 170.423 72.8466 170.887C72.8466 171.343 72.6857 171.736 72.3637 172.066C72.0418 172.388 71.6487 172.549 71.1845 172.549ZM87.6232 174.458L78.5939 154.243H80.9748L90.0041 174.458H87.6232ZM97.8627 172.549C94.4487 172.549 92.7416 170.767 92.7416 167.203V156.377H95.0776V167.203C95.0776 168.266 95.3059 169.067 95.7626 169.606C96.2193 170.146 96.9343 170.415 97.9077 170.415C99.7944 170.415 100.738 169.344 100.738 167.203V156.377H103.074V167.203C103.074 168.985 102.632 170.321 101.748 171.212C100.865 172.103 99.5698 172.549 97.8627 172.549ZM110.348 172.549C109.45 172.549 108.679 172.523 108.035 172.47C107.398 172.418 106.814 172.332 106.283 172.212L106.552 170.056C107.339 170.175 108.031 170.265 108.63 170.325C109.237 170.385 109.809 170.415 110.348 170.415C111.554 170.415 112.426 170.299 112.965 170.067C113.512 169.827 113.785 169.449 113.785 168.933C113.785 168.573 113.688 168.307 113.493 168.135C113.306 167.956 113.014 167.817 112.617 167.72L109.877 167.023C108.701 166.724 107.836 166.353 107.282 165.912C106.736 165.47 106.463 164.8 106.463 163.901C106.463 162.599 106.96 161.655 107.956 161.071C108.959 160.487 110.573 160.195 112.797 160.195C113.373 160.195 113.908 160.214 114.403 160.251C114.904 160.281 115.417 160.338 115.941 160.42L115.694 162.486C115.088 162.426 114.552 162.385 114.088 162.363C113.624 162.34 113.171 162.329 112.729 162.329C111.396 162.329 110.431 162.445 109.832 162.677C109.233 162.902 108.933 163.272 108.933 163.789C108.933 164.133 109.057 164.384 109.304 164.542C109.551 164.691 109.929 164.83 110.438 164.957L112.639 165.496C113.89 165.796 114.803 166.196 115.38 166.698C115.964 167.199 116.256 167.929 116.256 168.888C116.256 170.168 115.788 171.1 114.852 171.684C113.916 172.261 112.415 172.549 110.348 172.549ZM125.664 172.549C123.635 172.549 122.066 172.017 120.958 170.954C119.858 169.883 119.308 168.349 119.308 166.35C119.308 164.403 119.775 162.891 120.711 161.812C121.647 160.734 122.969 160.195 124.676 160.195C126.285 160.195 127.528 160.682 128.404 161.655C129.288 162.629 129.729 164.044 129.729 165.9C129.729 166.447 129.707 166.956 129.662 167.428H121.307V165.608H127.573C127.573 164.538 127.319 163.718 126.809 163.149C126.3 162.572 125.597 162.284 124.698 162.284C123.687 162.284 122.901 162.629 122.34 163.317C121.786 164.006 121.509 164.979 121.509 166.237C121.509 167.615 121.891 168.663 122.654 169.382C123.425 170.101 124.518 170.46 125.934 170.46C126.428 170.46 126.914 170.434 127.393 170.381C127.873 170.321 128.359 170.243 128.853 170.146L129.145 172.234C128.442 172.369 127.798 172.455 127.214 172.493C126.63 172.53 126.113 172.549 125.664 172.549ZM137.184 167.203L136.487 163.475H137.408C137.543 161.288 138.636 160.195 140.688 160.195C141.916 160.195 142.806 160.547 143.361 161.251C143.915 161.955 144.192 163.093 144.192 164.665H141.833C141.833 163.797 141.702 163.171 141.44 162.79C141.186 162.408 140.77 162.217 140.194 162.217C139.183 162.217 138.427 162.651 137.925 163.52C137.431 164.381 137.184 165.608 137.184 167.203ZM132.152 172.324V170.235H140.104V172.324H132.152ZM134.803 172.324V160.42H136.735L137.184 163.834V172.324H134.803ZM132.602 162.509V160.42H136.577L136.802 162.509H132.602ZM150.433 172.549C149.535 172.549 148.763 172.523 148.12 172.47C147.483 172.418 146.899 172.332 146.368 172.212L146.637 170.056C147.423 170.175 148.116 170.265 148.715 170.325C149.321 170.385 149.894 170.415 150.433 170.415C151.638 170.415 152.511 170.299 153.05 170.067C153.596 169.827 153.87 169.449 153.87 168.933C153.87 168.573 153.772 168.307 153.578 168.135C153.39 167.956 153.098 167.817 152.702 167.72L149.961 167.023C148.786 166.724 147.921 166.353 147.367 165.912C146.821 165.47 146.547 164.8 146.547 163.901C146.547 162.599 147.045 161.655 148.041 161.071C149.044 160.487 150.658 160.195 152.881 160.195C153.458 160.195 153.993 160.214 154.487 160.251C154.989 160.281 155.502 160.338 156.026 160.42L155.779 162.486C155.172 162.426 154.637 162.385 154.173 162.363C153.709 162.34 153.256 162.329 152.814 162.329C151.481 162.329 150.515 162.445 149.916 162.677C149.317 162.902 149.018 163.272 149.018 163.789C149.018 164.133 149.142 164.384 149.389 164.542C149.636 164.691 150.014 164.83 150.523 164.957L152.724 165.496C153.974 165.796 154.888 166.196 155.464 166.698C156.048 167.199 156.34 167.929 156.34 168.888C156.34 170.168 155.872 171.1 154.936 171.684C154.001 172.261 152.499 172.549 150.433 172.549ZM167.793 174.458L158.763 154.243H161.144L170.173 174.458H167.793ZM173.36 172.324V156.377H175.696V172.324H173.36ZM173.36 166.08V163.946H181.895V166.08H173.36ZM173.36 158.511V156.377H183.917V158.511H173.36ZM192.472 172.549C190.443 172.549 188.874 172.017 187.766 170.954C186.666 169.883 186.115 168.349 186.115 166.35C186.115 164.403 186.583 162.891 187.519 161.812C188.455 160.734 189.776 160.195 191.484 160.195C193.093 160.195 194.336 160.682 195.212 161.655C196.095 162.629 196.537 164.044 196.537 165.9C196.537 166.447 196.515 166.956 196.47 167.428H188.114V165.608H194.381C194.381 164.538 194.126 163.718 193.617 163.149C193.108 162.572 192.404 162.284 191.506 162.284C190.495 162.284 189.709 162.629 189.148 163.317C188.594 164.006 188.317 164.979 188.317 166.237C188.317 167.615 188.698 168.663 189.462 169.382C190.233 170.101 191.326 170.46 192.741 170.46C193.235 170.46 193.722 170.434 194.201 170.381C194.68 170.321 195.167 170.243 195.661 170.146L195.953 172.234C195.249 172.369 194.606 172.455 194.022 172.493C193.438 172.53 192.921 172.549 192.472 172.549ZM207.271 172.324V164.575C207.271 163.856 207.084 163.302 206.709 162.913C206.335 162.524 205.811 162.329 205.137 162.329C203.265 162.329 202.329 163.43 202.329 165.631L201.633 162.576H202.554C202.621 161.775 202.913 161.18 203.43 160.791C203.947 160.394 204.703 160.195 205.699 160.195C206.956 160.195 207.93 160.577 208.619 161.341C209.307 162.104 209.652 163.183 209.652 164.575V172.324H207.271ZM199.949 172.324V160.42H202.105L202.329 162.936V172.324H199.949ZM217.353 167.203L216.657 163.475H217.578C217.712 161.288 218.806 160.195 220.857 160.195C222.085 160.195 222.976 160.547 223.53 161.251C224.084 161.955 224.361 163.093 224.361 164.665H222.003C222.003 163.797 221.872 163.171 221.609 162.79C221.355 162.408 220.939 162.217 220.363 162.217C219.352 162.217 218.596 162.651 218.094 163.52C217.6 164.381 217.353 165.608 217.353 167.203ZM212.322 172.324V170.235H220.273V172.324H212.322ZM214.972 172.324V160.42H216.904L217.353 163.834V172.324H214.972ZM212.771 162.509V160.42H216.747L216.971 162.509H212.771ZM231.119 172.324V161.094H233.5V172.324H231.119ZM226.582 172.324V170.235H231.344V172.324H226.582ZM233.275 172.324V170.235H237.161V172.324H233.275ZM227.256 162.509V160.42H233.5V162.509H227.256ZM232.231 158.533C231.774 158.533 231.381 158.372 231.052 158.05C230.73 157.721 230.569 157.328 230.569 156.871C230.569 156.407 230.73 156.014 231.052 155.692C231.381 155.37 231.774 155.209 232.231 155.209C232.695 155.209 233.088 155.37 233.41 155.692C233.732 156.014 233.893 156.407 233.893 156.871C233.893 157.328 233.732 157.721 233.41 158.05C233.088 158.372 232.695 158.533 232.231 158.533ZM243.964 172.549C243.066 172.549 242.294 172.523 241.65 172.47C241.014 172.418 240.43 172.332 239.899 172.212L240.168 170.056C240.954 170.175 241.647 170.265 242.246 170.325C242.852 170.385 243.425 170.415 243.964 170.415C245.169 170.415 246.042 170.299 246.581 170.067C247.127 169.827 247.4 169.449 247.4 168.933C247.4 168.573 247.303 168.307 247.108 168.135C246.921 167.956 246.629 167.817 246.232 167.72L243.492 167.023C242.317 166.724 241.452 166.353 240.898 165.912C240.351 165.47 240.078 164.8 240.078 163.901C240.078 162.599 240.576 161.655 241.572 161.071C242.575 160.487 244.189 160.195 246.412 160.195C246.989 160.195 247.524 160.214 248.018 160.251C248.52 160.281 249.033 160.338 249.557 160.42L249.31 162.486C248.703 162.426 248.168 162.385 247.704 162.363C247.239 162.34 246.787 162.329 246.345 162.329C245.012 162.329 244.046 162.445 243.447 162.677C242.848 162.902 242.549 163.272 242.549 163.789C242.549 164.133 242.672 164.384 242.92 164.542C243.167 164.691 243.545 164.83 244.054 164.957L246.255 165.496C247.505 165.796 248.419 166.196 248.995 166.698C249.579 167.199 249.871 167.929 249.871 168.888C249.871 170.168 249.403 171.1 248.467 171.684C247.531 172.261 246.03 172.549 243.964 172.549ZM253.148 169.921V167.45L261.009 164.463V164.261L253.148 161.273V158.803L263.907 163.228V165.496L253.148 169.921Z" fill="white"/>
<path d="M280.253 123.715L280.14 121.604L282.387 121.401C283.592 121.297 284.464 120.945 285.003 120.346C285.55 119.754 285.823 118.848 285.823 117.628V114.012H288.204V117.269C288.204 118.684 287.994 119.837 287.575 120.728C287.156 121.618 286.501 122.289 285.61 122.738C284.719 123.194 283.569 123.475 282.162 123.58L280.253 123.715ZM281.196 108.509V106.42H286.003V108.509H281.196ZM285.823 114.394V106.42H288.204V114.394H285.823ZM286.766 104.533C286.31 104.533 285.917 104.372 285.587 104.05C285.265 103.721 285.104 103.328 285.104 102.871C285.104 102.407 285.265 102.014 285.587 101.692C285.917 101.37 286.31 101.209 286.766 101.209C287.231 101.209 287.624 101.37 287.946 101.692C288.268 102.014 288.429 102.407 288.429 102.871C288.429 103.328 288.268 103.721 287.946 104.05C287.624 104.372 287.231 104.533 286.766 104.533ZM300.779 118.437L300.622 114.91L300.308 113.922V110.845C300.308 110.051 300.027 109.471 299.465 109.104C298.911 108.73 298.084 108.528 296.983 108.498L294.131 108.419L294.355 106.308L296.759 106.341C298.728 106.371 300.188 106.798 301.139 107.622C302.097 108.438 302.576 109.632 302.576 111.204V116.168L304.598 116.415V118.324L300.779 118.437ZM296.579 118.549C295.336 118.549 294.374 118.249 293.693 117.65C293.012 117.051 292.671 116.205 292.671 115.112C292.671 113.854 293.139 112.889 294.075 112.215C295.018 111.541 296.347 111.204 298.062 111.204C298.773 111.204 299.405 111.249 299.96 111.339C300.521 111.421 301.019 111.549 301.453 111.721L300.959 113.338C300.457 113.226 299.967 113.162 299.488 113.147C299.009 113.125 298.518 113.113 298.017 113.113C295.95 113.113 294.917 113.742 294.917 115C294.917 115.524 295.093 115.928 295.445 116.213C295.804 116.497 296.31 116.64 296.961 116.64C297.702 116.64 298.32 116.512 298.814 116.258C299.316 116.003 299.69 115.678 299.937 115.281C300.184 114.884 300.308 114.476 300.308 114.057V112.754L301.004 115.809H300.061L300.442 115.449C300.442 116.138 300.281 116.715 299.96 117.179C299.645 117.635 299.2 117.98 298.623 118.212C298.047 118.437 297.365 118.549 296.579 118.549ZM310.109 118.324L305.853 106.42H308.391L311.592 116.303H311.794L314.994 106.42H317.533L313.276 118.324H310.109ZM327.502 118.437L327.345 114.91L327.031 113.922V110.845C327.031 110.051 326.75 109.471 326.189 109.104C325.634 108.73 324.807 108.528 323.707 108.498L320.854 108.419L321.079 106.308L323.482 106.341C325.451 106.371 326.911 106.798 327.862 107.622C328.82 108.438 329.299 109.632 329.299 111.204V116.168L331.321 116.415V118.324L327.502 118.437ZM323.302 118.549C322.059 118.549 321.097 118.249 320.416 117.65C319.735 117.051 319.394 116.205 319.394 115.112C319.394 113.854 319.862 112.889 320.798 112.215C321.741 111.541 323.07 111.204 324.785 111.204C325.496 111.204 326.129 111.249 326.683 111.339C327.244 111.421 327.742 111.549 328.176 111.721L327.682 113.338C327.181 113.226 326.69 113.162 326.211 113.147C325.732 113.125 325.241 113.113 324.74 113.113C322.673 113.113 321.64 113.742 321.64 115C321.64 115.524 321.816 115.928 322.168 116.213C322.527 116.497 323.033 116.64 323.684 116.64C324.425 116.64 325.043 116.512 325.537 116.258C326.039 116.003 326.413 115.678 326.66 115.281C326.907 114.884 327.031 114.476 327.031 114.057V112.754L327.727 115.809H326.784L327.166 115.449C327.166 116.138 327.005 116.715 326.683 117.179C326.368 117.635 325.923 117.98 325.346 118.212C324.77 118.437 324.088 118.549 323.302 118.549ZM339.561 118.549C337.532 118.549 335.964 118.017 334.856 116.954C333.755 115.883 333.205 114.349 333.205 112.35C333.205 110.403 333.725 108.891 334.766 107.812C335.814 106.734 337.308 106.195 339.247 106.195C340.407 106.195 341.399 106.412 342.223 106.847C343.054 107.273 343.645 107.88 343.997 108.666L342.167 110.047C341.83 109.501 341.399 109.078 340.875 108.778C340.351 108.479 339.778 108.329 339.157 108.329C338.034 108.329 337.162 108.67 336.54 109.351C335.919 110.025 335.608 110.987 335.608 112.237C335.608 113.592 335.971 114.629 336.698 115.348C337.431 116.059 338.476 116.415 339.831 116.415C340.385 116.415 340.939 116.389 341.493 116.336C342.047 116.284 342.586 116.213 343.11 116.123L343.38 118.212C342.766 118.347 342.129 118.437 341.47 118.481C340.819 118.526 340.183 118.549 339.561 118.549Z" fill="#F9F1A5"/>
<path d="M373.337 111.406V109.317H382.209V111.406H373.337ZM361.545 111.406V109.317H370.417V111.406H361.545ZM390.279 118.324L386.022 106.42H388.56L391.761 116.303H391.963L395.164 106.42H397.702L393.446 118.324H390.279ZM406.257 118.549C404.228 118.549 402.659 118.017 401.551 116.954C400.451 115.883 399.9 114.349 399.9 112.35C399.9 110.403 400.368 108.891 401.304 107.812C402.24 106.734 403.561 106.195 405.269 106.195C406.878 106.195 408.121 106.682 408.997 107.655C409.881 108.629 410.322 110.044 410.322 111.9C410.322 112.447 410.3 112.956 410.255 113.428H401.899V111.608H408.166C408.166 110.538 407.911 109.718 407.402 109.149C406.893 108.572 406.189 108.284 405.291 108.284C404.28 108.284 403.494 108.629 402.933 109.317C402.379 110.006 402.102 110.979 402.102 112.237C402.102 113.615 402.483 114.663 403.247 115.382C404.018 116.101 405.111 116.46 406.526 116.46C407.02 116.46 407.507 116.434 407.986 116.381C408.465 116.321 408.952 116.243 409.446 116.146L409.738 118.234C409.034 118.369 408.391 118.455 407.807 118.493C407.223 118.53 406.706 118.549 406.257 118.549ZM417.777 113.203L417.08 109.475H418.001C418.136 107.288 419.229 106.195 421.28 106.195C422.508 106.195 423.399 106.547 423.953 107.251C424.507 107.955 424.784 109.093 424.784 110.665H422.426C422.426 109.797 422.295 109.171 422.033 108.79C421.778 108.408 421.363 108.217 420.786 108.217C419.776 108.217 419.019 108.651 418.518 109.52C418.024 110.381 417.777 111.608 417.777 113.203ZM412.745 118.324V116.235H420.696V118.324H412.745ZM415.396 118.324V106.42H417.327L417.777 109.834V118.324H415.396ZM413.195 108.509V106.42H417.17L417.395 108.509H413.195ZM431.026 118.549C430.127 118.549 429.356 118.523 428.712 118.47C428.076 118.418 427.492 118.332 426.96 118.212L427.23 116.056C428.016 116.175 428.709 116.265 429.308 116.325C429.914 116.385 430.487 116.415 431.026 116.415C432.231 116.415 433.103 116.299 433.643 116.067C434.189 115.827 434.462 115.449 434.462 114.933C434.462 114.573 434.365 114.307 434.17 114.135C433.983 113.956 433.691 113.817 433.294 113.72L430.554 113.023C429.379 112.724 428.514 112.353 427.96 111.912C427.413 111.47 427.14 110.8 427.14 109.901C427.14 108.599 427.638 107.655 428.634 107.071C429.637 106.487 431.25 106.195 433.474 106.195C434.051 106.195 434.586 106.214 435.08 106.251C435.582 106.281 436.095 106.338 436.619 106.42L436.372 108.486C435.765 108.426 435.23 108.385 434.766 108.363C434.301 108.34 433.848 108.329 433.407 108.329C432.074 108.329 431.108 108.445 430.509 108.677C429.91 108.902 429.611 109.272 429.611 109.789C429.611 110.133 429.734 110.384 429.981 110.542C430.228 110.691 430.607 110.83 431.116 110.957L433.317 111.496C434.567 111.796 435.481 112.196 436.057 112.698C436.641 113.199 436.933 113.929 436.933 114.888C436.933 116.168 436.465 117.1 435.529 117.684C434.593 118.261 433.092 118.549 431.026 118.549ZM444.904 118.324V107.094H447.285V118.324H444.904ZM440.367 118.324V116.235H445.129V118.324H440.367ZM447.06 118.324V116.235H450.946V118.324H447.06ZM441.041 108.509V106.42H447.285V108.509H441.041ZM446.016 104.533C445.559 104.533 445.166 104.372 444.837 104.05C444.515 103.721 444.354 103.328 444.354 102.871C444.354 102.407 444.515 102.014 444.837 101.692C445.166 101.37 445.559 101.209 446.016 101.209C446.48 101.209 446.873 101.37 447.195 101.692C447.517 102.014 447.678 102.407 447.678 102.871C447.678 103.328 447.517 103.721 447.195 104.05C446.873 104.372 446.48 104.533 446.016 104.533ZM458.67 118.549C457.023 118.549 455.742 118.01 454.829 116.932C453.916 115.854 453.459 114.334 453.459 112.372C453.459 110.403 453.916 108.883 454.829 107.812C455.742 106.734 457.023 106.195 458.67 106.195C460.324 106.195 461.605 106.734 462.511 107.812C463.424 108.883 463.881 110.403 463.881 112.372C463.881 114.334 463.424 115.854 462.511 116.932C461.605 118.01 460.324 118.549 458.67 118.549ZM458.67 116.415C459.546 116.415 460.22 116.063 460.691 115.359C461.17 114.656 461.41 113.66 461.41 112.372C461.41 111.077 461.17 110.081 460.691 109.385C460.22 108.681 459.546 108.329 458.67 108.329C457.794 108.329 457.116 108.681 456.637 109.385C456.165 110.081 455.93 111.077 455.93 112.372C455.93 113.66 456.165 114.656 456.637 115.359C457.116 116.063 457.794 116.415 458.67 116.415ZM474.502 118.324V110.575C474.502 109.856 474.315 109.302 473.941 108.913C473.566 108.524 473.042 108.329 472.368 108.329C470.497 108.329 469.561 109.43 469.561 111.631L468.864 108.576H469.785C469.853 107.775 470.145 107.18 470.661 106.791C471.178 106.394 471.934 106.195 472.93 106.195C474.188 106.195 475.161 106.577 475.85 107.341C476.539 108.104 476.883 109.183 476.883 110.575V118.324H474.502ZM467.18 118.324V106.42H469.336L469.561 108.936V118.324H467.18Z" fill="#767676"/>
<path d="M13.0215 35.3242L11.2246 19.377H13.583L14.9307 33.5273H15.1553L16.6265 23.4199H18.8726L18.1201 25.6436H17.6709L16.4917 35.3242H13.0215ZM18.9849 35.3242L17.8057 25.6436H17.3564L16.6265 23.4199H18.8726L20.3213 33.5273H20.5459L21.8936 19.377H24.252L22.4551 35.3242H18.9849ZM30.6955 35.3242V24.0938H33.0764V35.3242H30.6955ZM26.1584 35.3242V33.2354H30.9202V35.3242H26.1584ZM32.8518 35.3242V33.2354H36.7375V35.3242H32.8518ZM26.8323 25.5088V23.4199H33.0764V25.5088H26.8323ZM31.8074 21.5332C31.3507 21.5332 30.9576 21.3722 30.6282 21.0503C30.3062 20.7209 30.1453 20.3278 30.1453 19.8711C30.1453 19.4069 30.3062 19.0138 30.6282 18.6919C30.9576 18.37 31.3507 18.209 31.8074 18.209C32.2716 18.209 32.6646 18.37 32.9866 18.6919C33.3085 19.0138 33.4695 19.4069 33.4695 19.8711C33.4695 20.3278 33.3085 20.7209 32.9866 21.0503C32.6646 21.3722 32.2716 21.5332 31.8074 21.5332ZM46.9321 35.3242V27.5752C46.9321 26.8564 46.7449 26.3024 46.3706 25.9131C45.9962 25.5238 45.4721 25.3291 44.7983 25.3291C42.9266 25.3291 41.9907 26.4297 41.9907 28.6309L41.2944 25.5762H42.2153C42.2827 24.7751 42.5747 24.1799 43.0913 23.7905C43.6079 23.3937 44.3641 23.1953 45.3598 23.1953C46.6177 23.1953 47.591 23.5771 48.2798 24.3408C48.9686 25.1045 49.313 26.1826 49.313 27.5752V35.3242H46.9321ZM39.6098 35.3242V23.4199H41.7661L41.9907 25.9355V35.3242H39.6098ZM56.9133 35.5488C55.356 35.5488 54.1731 35.036 53.3645 34.0103C52.5634 32.9845 52.1628 31.4759 52.1628 29.4844C52.1628 27.418 52.5634 25.8532 53.3645 24.79C54.1731 23.7269 55.356 23.1953 56.9133 23.1953C57.8043 23.1953 58.5267 23.4049 59.0808 23.8242C59.6423 24.2435 59.9717 24.8275 60.0691 25.5762H60.99L60.2937 28.9678C60.2937 27.7399 60.0503 26.8078 59.5637 26.1714C59.0845 25.535 58.377 25.2168 57.4411 25.2168C56.4828 25.2168 55.7566 25.5762 55.2624 26.2949C54.7683 27.0137 54.5212 28.0768 54.5212 29.4844C54.5212 30.8171 54.7683 31.8241 55.2624 32.5054C55.7566 33.1867 56.4828 33.5273 57.4411 33.5273C58.377 33.5273 59.0845 33.2091 59.5637 32.5728C60.0503 31.9364 60.2937 31.0042 60.2937 29.7764L61.1023 33.168H60.0691C59.9942 33.9167 59.676 34.5007 59.1145 34.9199C58.5604 35.3392 57.8267 35.5488 56.9133 35.5488ZM60.5407 35.4365L60.2937 33.1006V18.4785H62.6745V35.3242L60.5407 35.4365ZM71.1845 35.5488C69.5374 35.5488 68.2571 35.0098 67.3437 33.9316C66.4303 32.8535 65.9736 31.3337 65.9736 29.3721C65.9736 27.403 66.4303 25.8831 67.3437 24.8125C68.2571 23.7344 69.5374 23.1953 71.1845 23.1953C72.8392 23.1953 74.1194 23.7344 75.0254 24.8125C75.9388 25.8831 76.3955 27.403 76.3955 29.3721C76.3955 31.3337 75.9388 32.8535 75.0254 33.9316C74.1194 35.0098 72.8392 35.5488 71.1845 35.5488ZM71.1845 33.415C72.0605 33.415 72.7343 33.0632 73.206 32.3594C73.6852 31.6556 73.9248 30.6598 73.9248 29.3721C73.9248 28.0768 73.6852 27.0811 73.206 26.3848C72.7343 25.681 72.0605 25.3291 71.1845 25.3291C70.3086 25.3291 69.631 25.681 69.1518 26.3848C68.6801 27.0811 68.4443 28.0768 68.4443 29.3721C68.4443 30.6598 68.6801 31.6556 69.1518 32.3594C69.631 33.0632 70.3086 33.415 71.1845 33.415ZM85.8938 35.3242L84.5012 25.8682H84.3215L83.3444 23.4199H85.5231L86.927 33.5273H87.1291L88.1398 23.4199H90.4982L88.8137 35.3242H85.8938ZM79.9416 35.3242L78.5939 23.4199H80.84L81.7385 33.5273H81.9406L83.3444 23.4199H85.5231L84.5236 25.8682H84.3664L82.9738 35.3242H79.9416ZM96.9868 35.5488C96.0883 35.5488 95.3172 35.5226 94.6733 35.4702C94.0369 35.4178 93.4529 35.3317 92.9213 35.2119L93.1909 33.0557C93.977 33.1755 94.6695 33.2653 95.2685 33.3252C95.8749 33.3851 96.4477 33.415 96.9868 33.415C98.1922 33.415 99.0644 33.299 99.6035 33.0669C100.15 32.8273 100.423 32.4492 100.423 31.9326C100.423 31.5732 100.326 31.3075 100.131 31.1353C99.9441 30.9556 99.6521 30.8171 99.2553 30.7197L96.5151 30.0234C95.3396 29.724 94.4749 29.3534 93.9208 28.9116C93.3743 28.4699 93.101 27.7998 93.101 26.9014C93.101 25.5986 93.5989 24.6553 94.5947 24.0713C95.5979 23.4873 97.2114 23.1953 99.435 23.1953C100.011 23.1953 100.547 23.214 101.041 23.2515C101.543 23.2814 102.055 23.3376 102.58 23.4199L102.332 25.4863C101.726 25.4264 101.191 25.3853 100.727 25.3628C100.262 25.3403 99.8093 25.3291 99.3676 25.3291C98.0349 25.3291 97.0691 25.4451 96.4702 25.6772C95.8712 25.9019 95.5717 26.2725 95.5717 26.7891C95.5717 27.1335 95.6953 27.3843 95.9423 27.5415C96.1894 27.6912 96.5675 27.8298 97.0766 27.957L99.2778 28.4961C100.528 28.7956 101.442 29.1961 102.018 29.6978C102.602 30.1994 102.894 30.9294 102.894 31.8877C102.894 33.168 102.426 34.1001 101.49 34.6841C100.554 35.2606 99.0532 35.5488 96.9868 35.5488ZM121.756 30.3828V28.249H124.384C125.612 28.249 126.54 27.9458 127.169 27.3394C127.798 26.7254 128.112 25.8307 128.112 24.6553C128.112 23.6221 127.798 22.8397 127.169 22.3081C126.54 21.7765 125.612 21.5107 124.384 21.5107H121.801V19.377H124.384C126.383 19.377 127.895 19.8224 128.921 20.7134C129.954 21.6043 130.471 22.9183 130.471 24.6553C130.471 26.5345 129.954 27.9608 128.921 28.9341C127.895 29.8999 126.383 30.3828 124.384 30.3828H121.756ZM119.689 35.3242V19.377H122.025V35.3242H119.689ZM137.992 35.5488C136.345 35.5488 135.065 35.0098 134.152 33.9316C133.238 32.8535 132.781 31.3337 132.781 29.3721C132.781 27.403 133.238 25.8831 134.152 24.8125C135.065 23.7344 136.345 23.1953 137.992 23.1953C139.647 23.1953 140.927 23.7344 141.833 24.8125C142.747 25.8831 143.203 27.403 143.203 29.3721C143.203 31.3337 142.747 32.8535 141.833 33.9316C140.927 35.0098 139.647 35.5488 137.992 35.5488ZM137.992 33.415C138.868 33.415 139.542 33.0632 140.014 32.3594C140.493 31.6556 140.733 30.6598 140.733 29.3721C140.733 28.0768 140.493 27.0811 140.014 26.3848C139.542 25.681 138.868 25.3291 137.992 25.3291C137.116 25.3291 136.439 25.681 135.96 26.3848C135.488 27.0811 135.252 28.0768 135.252 29.3721C135.252 30.6598 135.488 31.6556 135.96 32.3594C136.439 33.0632 137.116 33.415 137.992 33.415ZM152.702 35.3242L151.309 25.8682H151.129L150.152 23.4199H152.331L153.735 33.5273H153.937L154.948 23.4199H157.306L155.621 35.3242H152.702ZM146.749 35.3242L145.402 23.4199H147.648L148.546 33.5273H148.748L150.152 23.4199H152.331L151.331 25.8682H151.174L149.782 35.3242H146.749ZM165.749 35.5488C163.72 35.5488 162.151 35.0173 161.043 33.9541C159.943 32.8835 159.392 31.3486 159.392 29.3496C159.392 27.403 159.86 25.8906 160.796 24.8125C161.732 23.7344 163.053 23.1953 164.76 23.1953C166.37 23.1953 167.613 23.682 168.489 24.6553C169.372 25.6286 169.814 27.0436 169.814 28.9004C169.814 29.4469 169.792 29.9561 169.747 30.4277H161.391V28.6084H167.658C167.658 27.5378 167.403 26.7179 166.894 26.1489C166.385 25.5724 165.681 25.2842 164.783 25.2842C163.772 25.2842 162.986 25.6286 162.424 26.3174C161.87 27.0062 161.593 27.9795 161.593 29.2373C161.593 30.6149 161.975 31.6631 162.739 32.3818C163.51 33.1006 164.603 33.46 166.018 33.46C166.512 33.46 166.999 33.4338 167.478 33.3813C167.957 33.3215 168.444 33.2428 168.938 33.1455L169.23 35.2344C168.526 35.3691 167.882 35.4552 167.298 35.4927C166.714 35.5301 166.198 35.5488 165.749 35.5488ZM177.268 30.2031L176.572 26.4746H177.493C177.628 24.2884 178.721 23.1953 180.772 23.1953C182 23.1953 182.891 23.5472 183.445 24.251C183.999 24.9548 184.276 26.0928 184.276 27.665H181.918C181.918 26.7965 181.787 26.1714 181.525 25.7896C181.27 25.4077 180.855 25.2168 180.278 25.2168C179.267 25.2168 178.511 25.651 178.01 26.5195C177.516 27.3805 177.268 28.6084 177.268 30.2031ZM172.237 35.3242V33.2354H180.188V35.3242H172.237ZM174.888 35.3242V23.4199H176.819L177.268 26.834V35.3242H174.888ZM172.686 25.5088V23.4199H176.662L176.887 25.5088H172.686ZM190.888 35.5488C189.982 35.5488 189.133 35.474 188.339 35.3242C187.553 35.182 186.823 34.9648 186.149 34.6729L186.441 32.4043C187.265 32.7562 188.058 33.0257 188.822 33.2129C189.593 33.3926 190.342 33.4824 191.068 33.4824C192.116 33.4824 192.895 33.299 193.404 32.9321C193.913 32.5653 194.168 32.0075 194.168 31.2588C194.168 30.3079 193.681 29.6117 192.708 29.1699L189.945 27.9121C188.859 27.418 188.025 26.8228 187.441 26.1265C186.864 25.4302 186.576 24.5654 186.576 23.5322C186.576 22.1396 186.995 21.0615 187.834 20.2979C188.672 19.5342 189.859 19.1523 191.394 19.1523C192.464 19.1523 193.411 19.3096 194.235 19.624C195.059 19.9385 195.852 20.4513 196.616 21.1626L195.044 22.7573C194.385 22.2183 193.767 21.8289 193.191 21.5894C192.622 21.3423 192.026 21.2188 191.405 21.2188C190.634 21.2188 190.035 21.4059 189.608 21.7803C189.189 22.1471 188.979 22.6937 188.979 23.4199C188.979 23.9365 189.118 24.3595 189.395 24.689C189.672 25.0109 190.08 25.2992 190.619 25.5537L192.955 26.6543C194.138 27.2083 195.036 27.8335 195.65 28.5298C196.264 29.2261 196.571 30.1208 196.571 31.2139C196.571 32.6589 196.099 33.7445 195.156 34.4707C194.22 35.1895 192.797 35.5488 190.888 35.5488ZM207.271 35.3242V27.5752C207.271 26.819 207.084 26.2388 206.709 25.8345C206.335 25.4227 205.811 25.2168 205.137 25.2168C203.265 25.2168 202.329 26.3548 202.329 28.6309L201.633 25.5762H202.554C202.621 24.7751 202.913 24.1799 203.43 23.7905C203.947 23.3937 204.703 23.1953 205.699 23.1953C206.956 23.1953 207.93 23.5771 208.619 24.3408C209.307 25.1045 209.652 26.1826 209.652 27.5752V35.3242H207.271ZM199.949 35.3242V18.4785H202.329V35.3242H199.949ZM219.195 35.5488C217.166 35.5488 215.597 35.0173 214.489 33.9541C213.389 32.8835 212.838 31.3486 212.838 29.3496C212.838 27.403 213.306 25.8906 214.242 24.8125C215.178 23.7344 216.5 23.1953 218.207 23.1953C219.816 23.1953 221.059 23.682 221.935 24.6553C222.819 25.6286 223.26 27.0436 223.26 28.9004C223.26 29.4469 223.238 29.9561 223.193 30.4277H214.837V28.6084H221.104C221.104 27.5378 220.85 26.7179 220.34 26.1489C219.831 25.5724 219.128 25.2842 218.229 25.2842C217.218 25.2842 216.432 25.6286 215.871 26.3174C215.317 27.0062 215.04 27.9795 215.04 29.2373C215.04 30.6149 215.421 31.6631 216.185 32.3818C216.956 33.1006 218.049 33.46 219.464 33.46C219.959 33.46 220.445 33.4338 220.924 33.3813C221.404 33.3215 221.89 33.2428 222.384 33.1455L222.676 35.2344C221.973 35.3691 221.329 35.4552 220.745 35.4927C220.161 35.5301 219.644 35.5488 219.195 35.5488ZM233.298 35.5488C231.92 35.5488 230.924 35.1745 230.31 34.4258C229.696 33.6771 229.389 32.4792 229.389 30.832V18.4785H231.77V30.7197C231.77 31.3486 231.83 31.8615 231.95 32.2583C232.07 32.6551 232.302 32.9471 232.646 33.1343C232.998 33.3215 233.515 33.415 234.196 33.415C234.818 33.415 235.611 33.2728 236.577 32.9883L236.847 35.0771C236.24 35.2419 235.656 35.3617 235.095 35.4365C234.541 35.5114 233.942 35.5488 233.298 35.5488ZM225.886 20.5674V18.4785H229.592V20.5674H225.886ZM246.659 35.5488C245.282 35.5488 244.286 35.1745 243.672 34.4258C243.058 33.6771 242.751 32.4792 242.751 30.832V18.4785H245.132V30.7197C245.132 31.3486 245.192 31.8615 245.312 32.2583C245.431 32.6551 245.663 32.9471 246.008 33.1343C246.36 33.3215 246.876 33.415 247.558 33.415C248.179 33.415 248.973 33.2728 249.939 32.9883L250.208 35.0771C249.602 35.2419 249.018 35.3617 248.456 35.4365C247.902 35.5114 247.303 35.5488 246.659 35.5488ZM239.247 20.5674V18.4785H242.953V20.5674H239.247ZM19.4004 62.5488C14.444 62.5488 11.9658 59.8086 11.9658 54.3281C11.9658 51.7301 12.591 49.7199 13.8413 48.2974C15.0916 46.8674 16.8548 46.1523 19.1309 46.1523C20.2314 46.1523 21.1898 46.3283 22.0059 46.6802C22.8219 47.0246 23.4172 47.5187 23.7915 48.1626L22.1294 49.8135C21.7925 49.3044 21.362 48.9113 20.8379 48.6343C20.3213 48.3573 19.7598 48.2188 19.1533 48.2188C17.7083 48.2188 16.5479 48.7391 15.6719 49.7798C14.8034 50.8205 14.3691 52.2992 14.3691 54.2158C14.3691 58.3936 16.1735 60.4824 19.7822 60.4824C20.8678 60.4824 21.9385 60.2578 22.9941 59.8086L23.5107 61.7852C22.208 62.2943 20.8379 62.5488 19.4004 62.5488ZM31.0998 62.5488C29.4527 62.5488 28.1724 62.0098 27.259 60.9316C26.3456 59.8535 25.8889 58.3337 25.8889 56.3721C25.8889 54.403 26.3456 52.8831 27.259 51.8125C28.1724 50.7344 29.4527 50.1953 31.0998 50.1953C32.7545 50.1953 34.0347 50.7344 34.9407 51.8125C35.8541 52.8831 36.3108 54.403 36.3108 56.3721C36.3108 58.3337 35.8541 59.8535 34.9407 60.9316C34.0347 62.0098 32.7545 62.5488 31.0998 62.5488ZM31.0998 60.415C31.9758 60.415 32.6496 60.0632 33.1213 59.3594C33.6005 58.6556 33.8401 57.6598 33.8401 56.3721C33.8401 55.0768 33.6005 54.0811 33.1213 53.3848C32.6496 52.681 31.9758 52.3291 31.0998 52.3291C30.2239 52.3291 29.5463 52.681 29.0671 53.3848C28.5954 54.0811 28.3596 55.0768 28.3596 56.3721C28.3596 57.6598 28.5954 58.6556 29.0671 59.3594C29.5463 60.0632 30.2239 60.415 31.0998 60.415ZM39.6098 67.4902V50.4199H41.7661L41.9907 52.9355V67.4902H39.6098ZM45.3711 62.5488C44.4577 62.5488 43.7202 62.3392 43.1587 61.9199C42.6046 61.5007 42.2902 60.9167 42.2153 60.168H41.1821L41.9907 56.7764C41.9907 58.0042 42.2303 58.9364 42.7095 59.5728C43.1961 60.2091 43.9074 60.5273 44.8432 60.5273C45.8016 60.5273 46.5278 60.1867 47.022 59.5054C47.5161 58.8241 47.7632 57.8171 47.7632 56.4844C47.7632 55.0768 47.5161 54.0137 47.022 53.2949C46.5278 52.5762 45.8016 52.2168 44.8432 52.2168C43.9074 52.2168 43.1961 52.535 42.7095 53.1714C42.2303 53.8078 41.9907 54.7399 41.9907 55.9678L41.1821 52.5762H42.103C42.2078 51.8275 42.5447 51.2435 43.1138 50.8242C43.6902 50.4049 44.4427 50.1953 45.3711 50.1953C46.9359 50.1953 48.1188 50.7269 48.9199 51.79C49.721 52.8532 50.1216 54.418 50.1216 56.4844C50.1216 58.4759 49.721 59.9845 48.9199 61.0103C48.1188 62.036 46.9359 62.5488 45.3711 62.5488ZM51.927 67.7148L51.8147 65.5811L53.6789 65.3564C54.4651 65.2591 55.1351 65.0457 55.6892 64.7163C56.2507 64.3869 56.7299 63.8965 57.1267 63.2451C57.5235 62.6012 57.8716 61.7552 58.1711 60.707L61.136 50.4199H63.6067L60.1701 61.2686C59.7209 62.6911 59.2155 63.8366 58.654 64.7051C58.1 65.5736 57.4411 66.2249 56.6775 66.6592C55.9213 67.0934 55.0116 67.3704 53.9485 67.4902L51.927 67.7148ZM56.4416 62.3242L51.7024 50.4199H54.1731L58.0588 60.5273H58.4182V62.3242H56.4416ZM70.3759 57.2031L69.6796 53.4746H70.6005C70.7353 51.2884 71.8284 50.1953 73.8798 50.1953C75.1077 50.1953 75.9987 50.5472 76.5527 51.251C77.1067 51.9548 77.3838 53.0928 77.3838 54.665H75.0254C75.0254 53.7965 74.8943 53.1714 74.6323 52.7896C74.3777 52.4077 73.9622 52.2168 73.3857 52.2168C72.375 52.2168 71.6188 52.651 71.1171 53.5195C70.623 54.3805 70.3759 55.6084 70.3759 57.2031ZM65.3447 62.3242V60.2354H73.2959V62.3242H65.3447ZM67.9951 62.3242V50.4199H69.9267L70.3759 53.834V62.3242H67.9951ZM65.7939 52.5088V50.4199H69.7695L69.9941 52.5088H65.7939ZM84.1418 62.3242V51.0938H86.5227V62.3242H84.1418ZM79.6047 62.3242V60.2354H84.3664V62.3242H79.6047ZM86.298 62.3242V60.2354H90.1838V62.3242H86.298ZM80.2785 52.5088V50.4199H86.5227V52.5088H80.2785ZM85.2536 48.5332C84.7969 48.5332 84.4038 48.3722 84.0744 48.0503C83.7525 47.7209 83.5915 47.3278 83.5915 46.8711C83.5915 46.4069 83.7525 46.0138 84.0744 45.6919C84.4038 45.37 84.7969 45.209 85.2536 45.209C85.7178 45.209 86.1109 45.37 86.4328 45.6919C86.7548 46.0138 86.9157 46.4069 86.9157 46.8711C86.9157 47.3278 86.7548 47.7209 86.4328 48.0503C86.1109 48.3722 85.7178 48.5332 85.2536 48.5332ZM93.2133 67.6924L93.101 65.5137L96.9194 65.4014C98.1248 65.3639 99.0008 65.0308 99.5473 64.4019C100.094 63.7729 100.371 62.8483 100.378 61.6279V52.9355L100.603 50.4199H102.759V61.2686C102.759 63.3874 102.276 64.9521 101.31 65.9629C100.345 66.9736 98.8061 67.5127 96.6948 67.5801L93.2133 67.6924ZM96.998 62.5488C95.4407 62.5488 94.2578 62.036 93.4492 61.0103C92.6481 59.9845 92.2475 58.4759 92.2475 56.4844C92.2475 54.418 92.6481 52.8532 93.4492 51.79C94.2578 50.7269 95.4407 50.1953 96.998 50.1953C97.9264 50.1953 98.6788 50.4049 99.2553 50.8242C99.8318 51.2435 100.169 51.8275 100.266 52.5762H101.187L100.378 55.9678C100.378 54.7399 100.135 53.8078 99.6484 53.1714C99.1692 52.535 98.4617 52.2168 97.5258 52.2168C96.5675 52.2168 95.8412 52.5762 95.3471 53.2949C94.853 54.0137 94.6059 55.0768 94.6059 56.4844C94.6059 57.8171 94.853 58.8241 95.3471 59.5054C95.8412 60.1867 96.5675 60.5273 97.5258 60.5273C98.4617 60.5273 99.1692 60.2091 99.6484 59.5728C100.135 58.9364 100.378 58.0042 100.378 56.7764L101.187 60.168H100.154C100.079 60.9167 99.7607 61.5007 99.1992 61.9199C98.6451 62.3392 97.9114 62.5488 96.998 62.5488ZM113.74 62.3242V54.5752C113.74 53.819 113.553 53.2388 113.178 52.8345C112.804 52.4227 112.28 52.2168 111.606 52.2168C109.734 52.2168 108.799 53.3548 108.799 55.6309L108.102 52.5762H109.023C109.091 51.7751 109.382 51.1799 109.899 50.7905C110.416 50.3937 111.172 50.1953 112.168 50.1953C113.425 50.1953 114.399 50.5771 115.088 51.3408C115.776 52.1045 116.121 53.1826 116.121 54.5752V62.3242H113.74ZM106.418 62.3242V45.4785H108.799V62.3242H106.418ZM126.787 62.5488C124.983 62.5488 123.676 62.1745 122.868 61.4258C122.066 60.6771 121.666 59.4792 121.666 57.832V55.8105H124.047V57.7197C124.047 58.6631 124.275 59.3481 124.732 59.7749C125.196 60.2017 125.956 60.415 127.012 60.415C127.386 60.415 127.783 60.3963 128.202 60.3589C128.621 60.314 129.101 60.2578 129.64 60.1904L129.909 62.2793C129.385 62.3691 128.872 62.4365 128.371 62.4814C127.876 62.5264 127.349 62.5488 126.787 62.5488ZM121.666 56.709V46.8262H124.047V56.709H121.666ZM118.679 52.5088V50.4199H129.46V52.5088H118.679ZM155.285 64.5703C152.851 64.5703 150.961 63.6756 149.613 61.8862C148.273 60.0894 147.603 57.555 147.603 54.2832C147.603 51.0563 148.273 48.5594 149.613 46.7925C150.961 45.0181 152.851 44.1309 155.285 44.1309H155.824V46.1523H155.509C153.735 46.1523 152.365 46.8636 151.399 48.2861C150.441 49.7087 149.961 51.7077 149.961 54.2832C149.961 56.9036 150.441 58.9364 151.399 60.3813C152.365 61.8263 153.735 62.5488 155.509 62.5488H155.824V64.5703H155.285ZM166.378 62.5488C161.421 62.5488 158.943 59.8086 158.943 54.3281C158.943 51.7301 159.568 49.7199 160.818 48.2974C162.069 46.8674 163.832 46.1523 166.108 46.1523C167.209 46.1523 168.167 46.3283 168.983 46.6802C169.799 47.0246 170.394 47.5187 170.769 48.1626L169.107 49.8135C168.77 49.3044 168.339 48.9113 167.815 48.6343C167.298 48.3573 166.737 48.2188 166.131 48.2188C164.686 48.2188 163.525 48.7391 162.649 49.7798C161.781 50.8205 161.346 52.2992 161.346 54.2158C161.346 58.3936 163.151 60.4824 166.759 60.4824C167.845 60.4824 168.916 60.2578 169.971 59.8086L170.488 61.7852C169.185 62.2943 167.815 62.5488 166.378 62.5488ZM173.607 64.5703V62.5488H173.922C175.696 62.5488 177.063 61.8263 178.021 60.3813C178.987 58.9364 179.47 56.9036 179.47 54.2832C179.47 51.7077 178.987 49.7087 178.021 48.2861C177.063 46.8636 175.696 46.1523 173.922 46.1523H173.607V44.1309H174.146C176.587 44.1309 178.478 45.0181 179.818 46.7925C181.158 48.5594 181.828 51.0563 181.828 54.2832C181.828 57.555 181.158 60.0894 179.818 61.8862C178.478 63.6756 176.587 64.5703 174.146 64.5703H173.607ZM204.418 55.8105L204.755 53.2275H204.89L206.619 46.377H208.214V49.207H207.563L205.833 55.8105H204.418ZM199.499 62.3242V46.377H201.745V62.3242H199.499ZM203.767 55.8105L202.037 49.207H201.386V46.377H202.981L204.71 53.2275H204.8L205.025 55.8105H203.767ZM207.855 62.3242V46.377H210.101V62.3242H207.855ZM217.757 62.3242V51.0938H220.138V62.3242H217.757ZM213.22 62.3242V60.2354H217.982V62.3242H213.22ZM219.914 62.3242V60.2354H223.799V62.3242H219.914ZM213.894 52.5088V50.4199H220.138V52.5088H213.894ZM218.869 48.5332C218.413 48.5332 218.019 48.3722 217.69 48.0503C217.368 47.7209 217.207 47.3278 217.207 46.8711C217.207 46.4069 217.368 46.0138 217.69 45.6919C218.019 45.37 218.413 45.209 218.869 45.209C219.333 45.209 219.726 45.37 220.048 45.6919C220.37 46.0138 220.531 46.4069 220.531 46.8711C220.531 47.3278 220.37 47.7209 220.048 48.0503C219.726 48.3722 219.333 48.5332 218.869 48.5332ZM232.669 62.5488C230.64 62.5488 229.071 62.0173 227.963 60.9541C226.863 59.8835 226.312 58.3486 226.312 56.3496C226.312 54.403 226.833 52.8906 227.873 51.8125C228.922 50.7344 230.415 50.1953 232.354 50.1953C233.515 50.1953 234.507 50.4124 235.33 50.8467C236.161 51.2734 236.753 51.8799 237.105 52.666L235.274 54.0474C234.937 53.5008 234.507 53.0778 233.983 52.7783C233.459 52.4788 232.886 52.3291 232.264 52.3291C231.141 52.3291 230.269 52.6698 229.648 53.3511C229.026 54.0249 228.716 54.987 228.716 56.2373C228.716 57.5924 229.079 58.6294 229.805 59.3481C230.539 60.0594 231.583 60.415 232.938 60.415C233.492 60.415 234.046 60.3888 234.6 60.3364C235.154 60.284 235.694 60.2129 236.218 60.123L236.487 62.2119C235.873 62.3467 235.237 62.4365 234.578 62.4814C233.927 62.5264 233.29 62.5488 232.669 62.5488ZM244.076 57.2031L243.38 53.4746H244.301C244.436 51.2884 245.529 50.1953 247.58 50.1953C248.808 50.1953 249.699 50.5472 250.253 51.251C250.807 51.9548 251.084 53.0928 251.084 54.665H248.726C248.726 53.7965 248.595 53.1714 248.333 52.7896C248.078 52.4077 247.663 52.2168 247.086 52.2168C246.075 52.2168 245.319 52.651 244.817 53.5195C244.323 54.3805 244.076 55.6084 244.076 57.2031ZM239.045 62.3242V60.2354H246.996V62.3242H239.045ZM241.695 62.3242V50.4199H243.627L244.076 53.834V62.3242H241.695ZM239.494 52.5088V50.4199H243.47L243.694 52.5088H239.494ZM258.246 62.5488C256.599 62.5488 255.319 62.0098 254.406 60.9316C253.492 59.8535 253.035 58.3337 253.035 56.3721C253.035 54.403 253.492 52.8831 254.406 51.8125C255.319 50.7344 256.599 50.1953 258.246 50.1953C259.901 50.1953 261.181 50.7344 262.087 51.8125C263.001 52.8831 263.457 54.403 263.457 56.3721C263.457 58.3337 263.001 59.8535 262.087 60.9316C261.181 62.0098 259.901 62.5488 258.246 62.5488ZM258.246 60.415C259.122 60.415 259.796 60.0632 260.268 59.3594C260.747 58.6556 260.987 57.6598 260.987 56.3721C260.987 55.0768 260.747 54.0811 260.268 53.3848C259.796 52.681 259.122 52.3291 258.246 52.3291C257.37 52.3291 256.693 52.681 256.214 53.3848C255.742 54.0811 255.506 55.0768 255.506 56.3721C255.506 57.6598 255.742 58.6556 256.214 59.3594C256.693 60.0632 257.37 60.415 258.246 60.415ZM270.687 62.5488C269.789 62.5488 269.017 62.5226 268.374 62.4702C267.737 62.4178 267.153 62.3317 266.622 62.2119L266.891 60.0557C267.677 60.1755 268.37 60.2653 268.969 60.3252C269.575 60.3851 270.148 60.415 270.687 60.415C271.892 60.415 272.765 60.299 273.304 60.0669C273.85 59.8273 274.124 59.4492 274.124 58.9326C274.124 58.5732 274.026 58.3075 273.832 58.1353C273.644 57.9556 273.352 57.8171 272.956 57.7197L270.215 57.0234C269.04 56.724 268.175 56.3534 267.621 55.9116C267.075 55.4699 266.801 54.7998 266.801 53.9014C266.801 52.5986 267.299 51.6553 268.295 51.0713C269.298 50.4873 270.912 50.1953 273.135 50.1953C273.712 50.1953 274.247 50.214 274.741 50.2515C275.243 50.2814 275.756 50.3376 276.28 50.4199L276.033 52.4863C275.426 52.4264 274.891 52.3853 274.427 52.3628C273.963 52.3403 273.51 52.3291 273.068 52.3291C271.735 52.3291 270.769 52.4451 270.17 52.6772C269.572 52.9019 269.272 53.2725 269.272 53.7891C269.272 54.1335 269.396 54.3843 269.643 54.5415C269.89 54.6912 270.268 54.8298 270.777 54.957L272.978 55.4961C274.228 55.7956 275.142 56.1961 275.718 56.6978C276.302 57.1994 276.594 57.9294 276.594 58.8877C276.594 60.168 276.126 61.1001 275.19 61.6841C274.255 62.2606 272.753 62.5488 270.687 62.5488ZM284.97 62.5488C283.322 62.5488 282.042 62.0098 281.129 60.9316C280.215 59.8535 279.759 58.3337 279.759 56.3721C279.759 54.403 280.215 52.8831 281.129 51.8125C282.042 50.7344 283.322 50.1953 284.97 50.1953C286.624 50.1953 287.904 50.7344 288.81 51.8125C289.724 52.8831 290.18 54.403 290.18 56.3721C290.18 58.3337 289.724 59.8535 288.81 60.9316C287.904 62.0098 286.624 62.5488 284.97 62.5488ZM284.97 60.415C285.846 60.415 286.519 60.0632 286.991 59.3594C287.47 58.6556 287.71 57.6598 287.71 56.3721C287.71 55.0768 287.47 54.0811 286.991 53.3848C286.519 52.681 285.846 52.3291 284.97 52.3291C284.094 52.3291 283.416 52.681 282.937 53.3848C282.465 54.0811 282.229 55.0768 282.229 56.3721C282.229 57.6598 282.465 58.6556 282.937 59.3594C283.416 60.0632 284.094 60.415 284.97 60.415ZM296.107 62.3242V51.4307C296.107 47.3128 297.987 45.2539 301.745 45.2539C302.599 45.2539 303.422 45.3288 304.216 45.4785L303.969 47.5449C303.497 47.485 303.082 47.4438 302.722 47.4214C302.363 47.3989 302.015 47.3877 301.678 47.3877C299.551 47.3877 298.488 48.6979 298.488 51.3184V62.3242H296.107ZM292.356 55.1367V53.0479H303.362V55.1367H292.356ZM313.849 62.5488C312.045 62.5488 310.738 62.1745 309.929 61.4258C309.128 60.6771 308.728 59.4792 308.728 57.832V55.8105H311.109V57.7197C311.109 58.6631 311.337 59.3481 311.794 59.7749C312.258 60.2017 313.018 60.415 314.074 60.415C314.448 60.415 314.845 60.3963 315.264 60.3589C315.683 60.314 316.162 60.2578 316.701 60.1904L316.971 62.2793C316.447 62.3691 315.934 62.4365 315.432 62.4814C314.938 62.5264 314.41 62.5488 313.849 62.5488ZM308.728 56.709V46.8262H311.109V56.709H308.728ZM305.741 52.5088V50.4199H316.522V52.5088H305.741ZM340.078 62.5488C335.122 62.5488 332.643 59.8086 332.643 54.3281C332.643 51.7301 333.268 49.7199 334.519 48.2974C335.769 46.8674 337.532 46.1523 339.808 46.1523C340.909 46.1523 341.867 46.3283 342.683 46.6802C343.499 47.0246 344.095 47.5187 344.469 48.1626L342.807 49.8135C342.47 49.3044 342.039 48.9113 341.515 48.6343C340.999 48.3573 340.437 48.2188 339.831 48.2188C338.386 48.2188 337.225 48.7391 336.349 49.7798C335.481 50.8205 335.047 52.2992 335.047 54.2158C335.047 58.3936 336.851 60.4824 340.46 60.4824C341.545 60.4824 342.616 60.2578 343.672 59.8086L344.188 61.7852C342.885 62.2943 341.515 62.5488 340.078 62.5488ZM351.777 62.5488C350.13 62.5488 348.85 62.0098 347.937 60.9316C347.023 59.8535 346.566 58.3337 346.566 56.3721C346.566 54.403 347.023 52.8831 347.937 51.8125C348.85 50.7344 350.13 50.1953 351.777 50.1953C353.432 50.1953 354.712 50.7344 355.618 51.8125C356.532 52.8831 356.988 54.403 356.988 56.3721C356.988 58.3337 356.532 59.8535 355.618 60.9316C354.712 62.0098 353.432 62.5488 351.777 62.5488ZM351.777 60.415C352.653 60.415 353.327 60.0632 353.799 59.3594C354.278 58.6556 354.518 57.6598 354.518 56.3721C354.518 55.0768 354.278 54.0811 353.799 53.3848C353.327 52.681 352.653 52.3291 351.777 52.3291C350.901 52.3291 350.224 52.681 349.745 53.3848C349.273 54.0811 349.037 55.0768 349.037 56.3721C349.037 57.6598 349.273 58.6556 349.745 59.3594C350.224 60.0632 350.901 60.415 351.777 60.415ZM364.33 57.2031L363.634 53.4746H364.555C364.69 51.2884 365.783 50.1953 367.834 50.1953C369.062 50.1953 369.953 50.5472 370.507 51.251C371.061 51.9548 371.338 53.0928 371.338 54.665H368.98C368.98 53.7965 368.849 53.1714 368.587 52.7896C368.332 52.4077 367.917 52.2168 367.34 52.2168C366.329 52.2168 365.573 52.651 365.072 53.5195C364.577 54.3805 364.33 55.6084 364.33 57.2031ZM359.299 62.3242V60.2354H367.25V62.3242H359.299ZM361.949 62.3242V50.4199H363.881L364.33 53.834V62.3242H361.949ZM359.748 52.5088V50.4199H363.724L363.948 52.5088H359.748ZM373.649 67.4902V50.4199H375.805L376.03 52.9355V67.4902H373.649ZM379.41 62.5488C378.497 62.5488 377.759 62.3392 377.198 61.9199C376.644 61.5007 376.329 60.9167 376.254 60.168H375.221L376.03 56.7764C376.03 58.0042 376.269 58.9364 376.749 59.5728C377.235 60.2091 377.946 60.5273 378.882 60.5273C379.841 60.5273 380.567 60.1867 381.061 59.5054C381.555 58.8241 381.802 57.8171 381.802 56.4844C381.802 55.0768 381.555 54.0137 381.061 53.2949C380.567 52.5762 379.841 52.2168 378.882 52.2168C377.946 52.2168 377.235 52.535 376.749 53.1714C376.269 53.8078 376.03 54.7399 376.03 55.9678L375.221 52.5762H376.142C376.247 51.8275 376.584 51.2435 377.153 50.8242C377.729 50.4049 378.482 50.1953 379.41 50.1953C380.975 50.1953 382.158 50.7269 382.959 51.79C383.76 52.8532 384.161 54.418 384.161 56.4844C384.161 58.4759 383.76 59.9845 382.959 61.0103C382.158 62.036 380.975 62.5488 379.41 62.5488ZM391.862 62.5488C390.215 62.5488 388.935 62.0098 388.021 60.9316C387.108 59.8535 386.651 58.3337 386.651 56.3721C386.651 54.403 387.108 52.8831 388.021 51.8125C388.935 50.7344 390.215 50.1953 391.862 50.1953C393.517 50.1953 394.797 50.7344 395.703 51.8125C396.616 52.8831 397.073 54.403 397.073 56.3721C397.073 58.3337 396.616 59.8535 395.703 60.9316C394.797 62.0098 393.517 62.5488 391.862 62.5488ZM391.862 60.415C392.738 60.415 393.412 60.0632 393.884 59.3594C394.363 58.6556 394.602 57.6598 394.602 56.3721C394.602 55.0768 394.363 54.0811 393.884 53.3848C393.412 52.681 392.738 52.3291 391.862 52.3291C390.986 52.3291 390.308 52.681 389.829 53.3848C389.358 54.0811 389.122 55.0768 389.122 56.3721C389.122 57.6598 389.358 58.6556 389.829 59.3594C390.308 60.0632 390.986 60.415 391.862 60.415ZM404.415 57.2031L403.719 53.4746H404.64C404.774 51.2884 405.867 50.1953 407.919 50.1953C409.147 50.1953 410.038 50.5472 410.592 51.251C411.146 51.9548 411.423 53.0928 411.423 54.665H409.064C409.064 53.7965 408.933 53.1714 408.671 52.7896C408.417 52.4077 408.001 52.2168 407.425 52.2168C406.414 52.2168 405.658 52.651 405.156 53.5195C404.662 54.3805 404.415 55.6084 404.415 57.2031ZM399.384 62.3242V60.2354H407.335V62.3242H399.384ZM402.034 62.3242V50.4199H403.966L404.415 53.834V62.3242H402.034ZM399.833 52.5088V50.4199H403.809L404.033 52.5088H399.833ZM421.033 62.4365L420.876 58.9102L420.562 57.9219V54.8447C420.562 54.0511 420.281 53.4709 419.719 53.104C419.165 52.7297 418.338 52.5275 417.237 52.4976L414.385 52.4189L414.61 50.3076L417.013 50.3413C418.982 50.3713 420.442 50.798 421.393 51.6216C422.351 52.4377 422.83 53.6318 422.83 55.2041V60.168L424.852 60.415V62.3242L421.033 62.4365ZM416.833 62.5488C415.59 62.5488 414.628 62.2493 413.947 61.6504C413.266 61.0514 412.925 60.2054 412.925 59.1123C412.925 57.8545 413.393 56.8887 414.329 56.2148C415.272 55.541 416.601 55.2041 418.316 55.2041C419.027 55.2041 419.66 55.249 420.214 55.3389C420.775 55.4212 421.273 55.5485 421.707 55.7207L421.213 57.3379C420.711 57.2256 420.221 57.1619 419.742 57.147C419.263 57.1245 418.772 57.1133 418.271 57.1133C416.204 57.1133 415.171 57.7422 415.171 59C415.171 59.5241 415.347 59.9284 415.699 60.2129C416.058 60.4974 416.564 60.6396 417.215 60.6396C417.956 60.6396 418.574 60.5124 419.068 60.2578C419.57 60.0033 419.944 59.6776 420.191 59.2808C420.438 58.884 420.562 58.4759 420.562 58.0566V56.7539L421.258 59.8086H420.315L420.696 59.4492C420.696 60.138 420.536 60.7145 420.214 61.1787C419.899 61.6354 419.454 61.9798 418.877 62.2119C418.301 62.4365 417.619 62.5488 416.833 62.5488ZM434.103 62.5488C432.299 62.5488 430.992 62.1745 430.184 61.4258C429.382 60.6771 428.982 59.4792 428.982 57.832V55.8105H431.363V57.7197C431.363 58.6631 431.591 59.3481 432.048 59.7749C432.512 60.2017 433.272 60.415 434.328 60.415C434.702 60.415 435.099 60.3963 435.518 60.3589C435.937 60.314 436.416 60.2578 436.956 60.1904L437.225 62.2793C436.701 62.3691 436.188 62.4365 435.686 62.4814C435.192 62.5264 434.664 62.5488 434.103 62.5488ZM428.982 56.709V46.8262H431.363V56.709H428.982ZM425.995 52.5088V50.4199H436.776V52.5088H425.995ZM444.904 62.3242V51.0938H447.285V62.3242H444.904ZM440.367 62.3242V60.2354H445.129V62.3242H440.367ZM447.06 62.3242V60.2354H450.946V62.3242H447.06ZM441.041 52.5088V50.4199H447.285V52.5088H441.041ZM446.016 48.5332C445.559 48.5332 445.166 48.3722 444.837 48.0503C444.515 47.7209 444.354 47.3278 444.354 46.8711C444.354 46.4069 444.515 46.0138 444.837 45.6919C445.166 45.37 445.559 45.209 446.016 45.209C446.48 45.209 446.873 45.37 447.195 45.6919C447.517 46.0138 447.678 46.4069 447.678 46.8711C447.678 47.3278 447.517 47.7209 447.195 48.0503C446.873 48.3722 446.48 48.5332 446.016 48.5332ZM458.67 62.5488C457.023 62.5488 455.742 62.0098 454.829 60.9316C453.916 59.8535 453.459 58.3337 453.459 56.3721C453.459 54.403 453.916 52.8831 454.829 51.8125C455.742 50.7344 457.023 50.1953 458.67 50.1953C460.324 50.1953 461.605 50.7344 462.511 51.8125C463.424 52.8831 463.881 54.403 463.881 56.3721C463.881 58.3337 463.424 59.8535 462.511 60.9316C461.605 62.0098 460.324 62.5488 458.67 62.5488ZM458.67 60.415C459.546 60.415 460.22 60.0632 460.691 59.3594C461.17 58.6556 461.41 57.6598 461.41 56.3721C461.41 55.0768 461.17 54.0811 460.691 53.3848C460.22 52.681 459.546 52.3291 458.67 52.3291C457.794 52.3291 457.116 52.681 456.637 53.3848C456.165 54.0811 455.93 55.0768 455.93 56.3721C455.93 57.6598 456.165 58.6556 456.637 59.3594C457.116 60.0632 457.794 60.415 458.67 60.415ZM474.502 62.3242V54.5752C474.502 53.8564 474.315 53.3024 473.941 52.9131C473.566 52.5238 473.042 52.3291 472.368 52.3291C470.497 52.3291 469.561 53.4297 469.561 55.6309L468.864 52.5762H469.785C469.853 51.7751 470.145 51.1799 470.661 50.7905C471.178 50.3937 471.934 50.1953 472.93 50.1953C474.188 50.1953 475.161 50.5771 475.85 51.3408C476.539 52.1045 476.883 53.1826 476.883 54.5752V62.3242H474.502ZM467.18 62.3242V50.4199H469.336L469.561 52.9355V62.3242H467.18ZM485.393 62.5488C484.936 62.5488 484.543 62.3879 484.214 62.0659C483.892 61.7365 483.731 61.3434 483.731 60.8867C483.731 60.4225 483.892 60.0295 484.214 59.7075C484.543 59.3856 484.936 59.2246 485.393 59.2246C485.857 59.2246 486.25 59.3856 486.572 59.7075C486.894 60.0295 487.055 60.4225 487.055 60.8867C487.055 61.3434 486.894 61.7365 486.572 62.0659C486.25 62.3879 485.857 62.5488 485.393 62.5488ZM505.883 62.3242L510.488 46.377H513.745L518.349 62.3242H515.991L512.217 48.3086H512.015L508.242 62.3242H505.883ZM508.017 58.4385V56.3047H516.103V58.4385H508.017ZM527.252 62.5488C525.874 62.5488 524.879 62.1745 524.265 61.4258C523.651 60.6771 523.344 59.4792 523.344 57.832V45.4785H525.725V57.7197C525.725 58.3486 525.785 58.8615 525.904 59.2583C526.024 59.6551 526.256 59.9471 526.601 60.1343C526.953 60.3215 527.469 60.415 528.151 60.415C528.772 60.415 529.566 60.2728 530.531 59.9883L530.801 62.0771C530.194 62.2419 529.61 62.3617 529.049 62.4365C528.495 62.5114 527.896 62.5488 527.252 62.5488ZM519.84 47.5674V45.4785H523.546V47.5674H519.84ZM540.614 62.5488C539.236 62.5488 538.24 62.1745 537.626 61.4258C537.012 60.6771 536.705 59.4792 536.705 57.832V45.4785H539.086V57.7197C539.086 58.3486 539.146 58.8615 539.266 59.2583C539.386 59.6551 539.618 59.9471 539.962 60.1343C540.314 60.3215 540.831 60.415 541.512 60.415C542.134 60.415 542.927 60.2728 543.893 59.9883L544.162 62.0771C543.556 62.2419 542.972 62.3617 542.411 62.4365C541.856 62.5114 541.258 62.5488 540.614 62.5488ZM533.202 47.5674V45.4785H536.908V47.5674H533.202ZM564.754 57.2031L564.057 53.4746H564.978C565.113 51.2884 566.206 50.1953 568.258 50.1953C569.485 50.1953 570.376 50.5472 570.93 51.251C571.485 51.9548 571.762 53.0928 571.762 54.665H569.403C569.403 53.7965 569.272 53.1714 569.01 52.7896C568.756 52.4077 568.34 52.2168 567.763 52.2168C566.753 52.2168 565.997 52.651 565.495 53.5195C565.001 54.3805 564.754 55.6084 564.754 57.2031ZM559.722 62.3242V60.2354H567.674V62.3242H559.722ZM562.373 62.3242V50.4199H564.305L564.754 53.834V62.3242H562.373ZM560.172 52.5088V50.4199H564.147L564.372 52.5088H560.172ZM578.52 62.3242V51.0938H580.9V62.3242H578.52ZM573.982 62.3242V60.2354H578.744V62.3242H573.982ZM580.676 62.3242V60.2354H584.562V62.3242H580.676ZM574.656 52.5088V50.4199H580.9V52.5088H574.656ZM579.631 48.5332C579.175 48.5332 578.782 48.3722 578.452 48.0503C578.13 47.7209 577.969 47.3278 577.969 46.8711C577.969 46.4069 578.13 46.0138 578.452 45.6919C578.782 45.37 579.175 45.209 579.631 45.209C580.096 45.209 580.489 45.37 580.811 45.6919C581.133 46.0138 581.294 46.4069 581.294 46.8711C581.294 47.3278 581.133 47.7209 580.811 48.0503C580.489 48.3722 580.096 48.5332 579.631 48.5332ZM587.591 67.6924L587.479 65.5137L591.297 65.4014C592.503 65.3639 593.379 65.0308 593.925 64.4019C594.472 63.7729 594.749 62.8483 594.756 61.6279V52.9355L594.981 50.4199H597.137V61.2686C597.137 63.3874 596.654 64.9521 595.688 65.9629C594.722 66.9736 593.184 67.5127 591.073 67.5801L587.591 67.6924ZM591.376 62.5488C589.819 62.5488 588.636 62.036 587.827 61.0103C587.026 59.9845 586.625 58.4759 586.625 56.4844C586.625 54.418 587.026 52.8532 587.827 51.79C588.636 50.7269 589.819 50.1953 591.376 50.1953C592.304 50.1953 593.057 50.4049 593.633 50.8242C594.21 51.2435 594.547 51.8275 594.644 52.5762H595.565L594.756 55.9678C594.756 54.7399 594.513 53.8078 594.026 53.1714C593.547 52.535 592.839 52.2168 591.904 52.2168C590.945 52.2168 590.219 52.5762 589.725 53.2949C589.231 54.0137 588.984 55.0768 588.984 56.4844C588.984 57.8171 589.231 58.8241 589.725 59.5054C590.219 60.1867 590.945 60.5273 591.904 60.5273C592.839 60.5273 593.547 60.2091 594.026 59.5728C594.513 58.9364 594.756 58.0042 594.756 56.7764L595.565 60.168H594.532C594.457 60.9167 594.138 61.5007 593.577 61.9199C593.023 62.3392 592.289 62.5488 591.376 62.5488ZM608.118 62.3242V54.5752C608.118 53.819 607.931 53.2388 607.556 52.8345C607.182 52.4227 606.658 52.2168 605.984 52.2168C604.112 52.2168 603.176 53.3548 603.176 55.6309L602.48 52.5762H603.401C603.468 51.7751 603.76 51.1799 604.277 50.7905C604.794 50.3937 605.55 50.1953 606.545 50.1953C607.803 50.1953 608.777 50.5771 609.465 51.3408C610.154 52.1045 610.499 53.1826 610.499 54.5752V62.3242H608.118ZM600.795 62.3242V45.4785H603.176V62.3242H600.795ZM621.165 62.5488C619.36 62.5488 618.054 62.1745 617.245 61.4258C616.444 60.6771 616.044 59.4792 616.044 57.832V55.8105H618.425V57.7197C618.425 58.6631 618.653 59.3481 619.11 59.7749C619.574 60.2017 620.334 60.415 621.389 60.415C621.764 60.415 622.161 60.3963 622.58 60.3589C622.999 60.314 623.478 60.2578 624.017 60.1904L624.287 62.2793C623.763 62.3691 623.25 62.4365 622.748 62.4814C622.254 62.5264 621.726 62.5488 621.165 62.5488ZM616.044 56.709V46.8262H618.425V56.709H616.044ZM613.056 52.5088V50.4199H623.838V52.5088H613.056ZM631.449 62.5488C630.551 62.5488 629.78 62.5226 629.136 62.4702C628.499 62.4178 627.915 62.3317 627.384 62.2119L627.653 60.0557C628.44 60.1755 629.132 60.2653 629.731 60.3252C630.337 60.3851 630.91 60.415 631.449 60.415C632.655 60.415 633.527 60.299 634.066 60.0669C634.613 59.8273 634.886 59.4492 634.886 58.9326C634.886 58.5732 634.788 58.3075 634.594 58.1353C634.407 57.9556 634.115 57.8171 633.718 57.7197L630.978 57.0234C629.802 56.724 628.937 56.3534 628.383 55.9116C627.837 55.4699 627.564 54.7998 627.564 53.9014C627.564 52.5986 628.061 51.6553 629.057 51.0713C630.06 50.4873 631.674 50.1953 633.898 50.1953C634.474 50.1953 635.009 50.214 635.503 50.2515C636.005 50.2814 636.518 50.3376 637.042 50.4199L636.795 52.4863C636.189 52.4264 635.653 52.3853 635.189 52.3628C634.725 52.3403 634.272 52.3291 633.83 52.3291C632.497 52.3291 631.532 52.4451 630.933 52.6772C630.334 52.9019 630.034 53.2725 630.034 53.7891C630.034 54.1335 630.158 54.3843 630.405 54.5415C630.652 54.6912 631.03 54.8298 631.539 54.957L633.74 55.4961C634.991 55.7956 635.904 56.1961 636.481 56.6978C637.065 57.1994 637.357 57.9294 637.357 58.8877C637.357 60.168 636.889 61.1001 635.953 61.6841C635.017 62.2606 633.516 62.5488 631.449 62.5488ZM658.285 57.2031L657.588 53.4746H658.509C658.644 51.2884 659.737 50.1953 661.789 50.1953C663.016 50.1953 663.907 50.5472 664.461 51.251C665.015 51.9548 665.292 53.0928 665.292 54.665H662.934C662.934 53.7965 662.803 53.1714 662.541 52.7896C662.286 52.4077 661.871 52.2168 661.294 52.2168C660.284 52.2168 659.528 52.651 659.026 53.5195C658.532 54.3805 658.285 55.6084 658.285 57.2031ZM653.253 62.3242V60.2354H661.205V62.3242H653.253ZM655.904 62.3242V50.4199H657.835L658.285 53.834V62.3242H655.904ZM653.703 52.5088V50.4199H657.678L657.903 52.5088H653.703ZM673.488 62.5488C671.459 62.5488 669.891 62.0173 668.782 60.9541C667.682 59.8835 667.132 58.3486 667.132 56.3496C667.132 54.403 667.6 52.8906 668.535 51.8125C669.471 50.7344 670.793 50.1953 672.5 50.1953C674.109 50.1953 675.352 50.682 676.228 51.6553C677.112 52.6286 677.553 54.0436 677.553 55.9004C677.553 56.4469 677.531 56.9561 677.486 57.4277H669.131V55.6084H675.397C675.397 54.5378 675.143 53.7179 674.634 53.1489C674.124 52.5724 673.421 52.2842 672.522 52.2842C671.511 52.2842 670.725 52.6286 670.164 53.3174C669.61 54.0062 669.333 54.9795 669.333 56.2373C669.333 57.6149 669.715 58.6631 670.478 59.3818C671.249 60.1006 672.343 60.46 673.758 60.46C674.252 60.46 674.738 60.4338 675.218 60.3813C675.697 60.3215 676.183 60.2428 676.677 60.1455L676.969 62.2344C676.266 62.3691 675.622 62.4552 675.038 62.4927C674.454 62.5301 673.937 62.5488 673.488 62.5488ZM684.896 62.5488C683.997 62.5488 683.226 62.5226 682.582 62.4702C681.946 62.4178 681.362 62.3317 680.83 62.2119L681.1 60.0557C681.886 60.1755 682.578 60.2653 683.177 60.3252C683.784 60.3851 684.356 60.415 684.896 60.415C686.101 60.415 686.973 60.299 687.512 60.0669C688.059 59.8273 688.332 59.4492 688.332 58.9326C688.332 58.5732 688.235 58.3075 688.04 58.1353C687.853 57.9556 687.561 57.8171 687.164 57.7197L684.424 57.0234C683.248 56.724 682.384 56.3534 681.83 55.9116C681.283 55.4699 681.01 54.7998 681.01 53.9014C681.01 52.5986 681.508 51.6553 682.503 51.0713C683.507 50.4873 685.12 50.1953 687.344 50.1953C687.92 50.1953 688.456 50.214 688.95 50.2515C689.451 50.2814 689.964 50.3376 690.488 50.4199L690.241 52.4863C689.635 52.4264 689.099 52.3853 688.635 52.3628C688.171 52.3403 687.718 52.3291 687.276 52.3291C685.944 52.3291 684.978 52.4451 684.379 52.6772C683.78 52.9019 683.48 53.2725 683.48 53.7891C683.48 54.1335 683.604 54.3843 683.851 54.5415C684.098 54.6912 684.476 54.8298 684.985 54.957L687.187 55.4961C688.437 55.7956 689.35 56.1961 689.927 56.6978C690.511 57.1994 690.803 57.9294 690.803 58.8877C690.803 60.168 690.335 61.1001 689.399 61.6841C688.463 62.2606 686.962 62.5488 684.896 62.5488ZM700.211 62.5488C698.182 62.5488 696.614 62.0173 695.506 60.9541C694.405 59.8835 693.855 58.3486 693.855 56.3496C693.855 54.403 694.323 52.8906 695.259 51.8125C696.194 50.7344 697.516 50.1953 699.223 50.1953C700.833 50.1953 702.075 50.682 702.951 51.6553C703.835 52.6286 704.277 54.0436 704.277 55.9004C704.277 56.4469 704.254 56.9561 704.209 57.4277H695.854V55.6084H702.12C702.12 54.5378 701.866 53.7179 701.357 53.1489C700.848 52.5724 700.144 52.2842 699.245 52.2842C698.235 52.2842 697.448 52.6286 696.887 53.3174C696.333 54.0062 696.056 54.9795 696.056 56.2373C696.056 57.6149 696.438 58.6631 697.201 59.3818C697.973 60.1006 699.066 60.46 700.481 60.46C700.975 60.46 701.462 60.4338 701.941 60.3813C702.42 60.3215 702.906 60.2428 703.401 60.1455L703.693 62.2344C702.989 62.3691 702.345 62.4552 701.761 62.4927C701.177 62.5301 700.66 62.5488 700.211 62.5488ZM711.731 57.2031L711.035 53.4746H711.956C712.09 51.2884 713.183 50.1953 715.235 50.1953C716.463 50.1953 717.354 50.5472 717.908 51.251C718.462 51.9548 718.739 53.0928 718.739 54.665H716.38C716.38 53.7965 716.249 53.1714 715.987 52.7896C715.733 52.4077 715.317 52.2168 714.741 52.2168C713.73 52.2168 712.974 52.651 712.472 53.5195C711.978 54.3805 711.731 55.6084 711.731 57.2031ZM706.7 62.3242V60.2354H714.651V62.3242H706.7ZM709.35 62.3242V50.4199H711.282L711.731 53.834V62.3242H709.35ZM707.149 52.5088V50.4199H711.125L711.349 52.5088H707.149ZM724.318 62.3242L720.061 50.4199H722.599L725.8 60.3027H726.002L729.203 50.4199H731.741L727.485 62.3242H724.318ZM740.296 62.5488C738.267 62.5488 736.698 62.0173 735.59 60.9541C734.49 59.8835 733.939 58.3486 733.939 56.3496C733.939 54.403 734.407 52.8906 735.343 51.8125C736.279 50.7344 737.601 50.1953 739.308 50.1953C740.917 50.1953 742.16 50.682 743.036 51.6553C743.92 52.6286 744.361 54.0436 744.361 55.9004C744.361 56.4469 744.339 56.9561 744.294 57.4277H735.938V55.6084H742.205C742.205 54.5378 741.95 53.7179 741.441 53.1489C740.932 52.5724 740.228 52.2842 739.33 52.2842C738.319 52.2842 737.533 52.6286 736.972 53.3174C736.418 54.0062 736.141 54.9795 736.141 56.2373C736.141 57.6149 736.522 58.6631 737.286 59.3818C738.057 60.1006 739.15 60.46 740.565 60.46C741.06 60.46 741.546 60.4338 742.025 60.3813C742.504 60.3215 742.991 60.2428 743.485 60.1455L743.777 62.2344C743.074 62.3691 742.43 62.4552 741.846 62.4927C741.262 62.5301 740.745 62.5488 740.296 62.5488ZM751.715 62.5488C750.157 62.5488 748.974 62.036 748.166 61.0103C747.365 59.9845 746.964 58.4759 746.964 56.4844C746.964 54.418 747.365 52.8532 748.166 51.79C748.974 50.7269 750.157 50.1953 751.715 50.1953C752.605 50.1953 753.328 50.4049 753.882 50.8242C754.444 51.2435 754.773 51.8275 754.87 52.5762H755.791L755.095 55.9678C755.095 54.7399 754.852 53.8078 754.365 53.1714C753.886 52.535 753.178 52.2168 752.242 52.2168C751.284 52.2168 750.558 52.5762 750.064 53.2949C749.57 54.0137 749.322 55.0768 749.322 56.4844C749.322 57.8171 749.57 58.8241 750.064 59.5054C750.558 60.1867 751.284 60.5273 752.242 60.5273C753.178 60.5273 753.886 60.2091 754.365 59.5728C754.852 58.9364 755.095 58.0042 755.095 56.7764L755.904 60.168H754.87C754.795 60.9167 754.477 61.5007 753.916 61.9199C753.362 62.3392 752.628 62.5488 751.715 62.5488ZM755.342 62.4365L755.095 60.1006V45.4785H757.476V62.3242L755.342 62.4365ZM765.986 62.5488C765.529 62.5488 765.136 62.3879 764.807 62.0659C764.485 61.7365 764.324 61.3434 764.324 60.8867C764.324 60.4225 764.485 60.0295 764.807 59.7075C765.136 59.3856 765.529 59.2246 765.986 59.2246C766.45 59.2246 766.843 59.3856 767.165 59.7075C767.487 60.0295 767.648 60.4225 767.648 60.8867C767.648 61.3434 767.487 61.7365 767.165 62.0659C766.843 62.3879 766.45 62.5488 765.986 62.5488Z" fill="white"/>
</svg>
