<svg width="554" height="150" viewBox="0 0 554 150" fill="none" xmlns="http://www.w3.org/2000/svg">
<g clip-path="url(#clip0_767_1658)">
<rect width="554" height="150" fill="#F4F4F4"/>
<path d="M553 1H1V149H553V1Z" stroke="#D3D6D7" stroke-width="2"/>
<path d="M10.4648 35.9993V16.2593H12.2848L24.9408 33.0593H24.2968V16.2593H26.4528V35.9993H24.6608L12.0048 19.1993H12.6208V35.9993H10.4648ZM36.0868 36.2513C34.4254 36.2513 33.1654 35.794 32.3068 34.8793C31.4668 33.9646 31.0468 32.5646 31.0468 30.6793V21.9433H33.3148V30.6233C33.3148 31.9113 33.5761 32.8633 34.0988 33.4793C34.6214 34.0766 35.4334 34.3753 36.5348 34.3753C37.7668 34.3753 38.7561 33.974 39.5028 33.1713C40.2494 32.3686 40.6228 31.2953 40.6228 29.9513V21.9433H42.8908V35.9993H40.6788V32.8353H41.0428C40.6508 33.918 40.0161 34.758 39.1388 35.3553C38.2801 35.9526 37.2628 36.2513 36.0868 36.2513ZM47.2909 35.9993V25.1913C47.2909 24.6686 47.2629 24.1366 47.2069 23.5953C47.1696 23.0353 47.1229 22.4846 47.0669 21.9433H49.2509L49.5309 25.0233H49.1949C49.5683 23.9593 50.1563 23.138 50.9589 22.5593C51.7803 21.9806 52.7696 21.6913 53.9269 21.6913C55.1029 21.6913 56.0549 21.9713 56.7829 22.5313C57.5296 23.0913 58.0336 23.9593 58.2949 25.1353H57.8749C58.2296 24.0713 58.8549 23.2313 59.7509 22.6153C60.6469 21.9993 61.6923 21.6913 62.8869 21.6913C64.4363 21.6913 65.6029 22.1393 66.3869 23.0353C67.1709 23.9126 67.5629 25.3033 67.5629 27.2073V35.9993H65.2949V27.3473C65.2949 26.022 65.0616 25.0606 64.5949 24.4633C64.1283 23.8473 63.3816 23.5393 62.3549 23.5393C61.1789 23.5393 60.2456 23.95 59.5549 24.7713C58.8829 25.574 58.5469 26.6566 58.5469 28.0193V35.9993H56.2789V27.3473C56.2789 26.022 56.0456 25.0606 55.5789 24.4633C55.1123 23.8473 54.3656 23.5393 53.3389 23.5393C52.1629 23.5393 51.2389 23.95 50.5669 24.7713C49.8949 25.574 49.5589 26.6566 49.5589 28.0193V35.9993H47.2909ZM78.929 36.2513C77.6596 36.2513 76.5676 35.934 75.653 35.2993C74.7383 34.646 74.1223 33.7593 73.805 32.6393H74.113V35.9993H71.873V15.3913H74.141V25.2193H73.805C74.1223 24.1366 74.7383 23.278 75.653 22.6433C76.5676 22.0086 77.6596 21.6913 78.929 21.6913C80.1983 21.6913 81.2903 21.99 82.205 22.5873C83.1383 23.166 83.857 23.9966 84.361 25.0793C84.8836 26.162 85.1451 27.4593 85.1451 28.9713C85.1451 30.4833 84.8836 31.7806 84.361 32.8633C83.8383 33.946 83.1103 34.786 82.177 35.3833C81.2623 35.962 80.1796 36.2513 78.929 36.2513ZM78.453 34.4033C79.7783 34.4033 80.8424 33.946 81.6451 33.0313C82.4477 32.1166 82.849 30.7633 82.849 28.9713C82.849 27.1793 82.4477 25.826 81.6451 24.9113C80.8424 23.978 79.7783 23.5113 78.453 23.5113C77.1276 23.5113 76.0636 23.978 75.261 24.9113C74.477 25.826 74.085 27.1793 74.085 28.9713C74.085 30.7446 74.477 32.098 75.261 33.0313C76.0636 33.946 77.1276 34.4033 78.453 34.4033ZM94.906 36.2513C92.7034 36.2513 90.9674 35.6166 89.698 34.3473C88.4287 33.0593 87.794 31.2766 87.794 28.9993C87.794 27.5246 88.074 26.246 88.634 25.1633C89.194 24.062 89.978 23.2126 90.986 22.6153C91.994 21.9993 93.1514 21.6913 94.458 21.6913C95.746 21.6913 96.8287 21.962 97.706 22.5033C98.5834 23.0446 99.2554 23.8193 99.722 24.8273C100.189 25.8166 100.422 26.9926 100.422 28.3553V29.1953H89.53V27.7673H98.938L98.462 28.1313C98.462 26.638 98.126 25.4713 97.454 24.6313C96.782 23.7913 95.7834 23.3713 94.458 23.3713C93.058 23.3713 91.966 23.866 91.182 24.8553C90.398 25.826 90.0061 27.142 90.0061 28.8033V29.0553C90.0061 30.81 90.4354 32.1446 91.294 33.0593C92.1714 33.9553 93.394 34.4033 94.962 34.4033C95.802 34.4033 96.586 34.282 97.314 34.0393C98.0607 33.778 98.77 33.358 99.442 32.7793L100.226 34.3753C99.61 34.9726 98.826 35.4393 97.874 35.7753C96.9407 36.0926 95.9514 36.2513 94.906 36.2513ZM103.837 35.9993V25.3313C103.837 24.7713 103.818 24.202 103.781 23.6233C103.762 23.0446 103.725 22.4846 103.669 21.9433H105.853L106.133 25.3593L105.741 25.3873C105.927 24.5473 106.254 23.8566 106.721 23.3153C107.187 22.774 107.738 22.3726 108.373 22.1113C109.007 21.8313 109.67 21.6913 110.361 21.6913C110.641 21.6913 110.883 21.7006 111.089 21.7193C111.313 21.738 111.518 21.7846 111.705 21.8593L111.677 23.8753C111.397 23.782 111.135 23.726 110.893 23.7073C110.669 23.67 110.407 23.6513 110.109 23.6513C109.287 23.6513 108.569 23.8473 107.953 24.2393C107.355 24.6313 106.898 25.1353 106.581 25.7513C106.282 26.3673 106.133 27.0206 106.133 27.7113V35.9993H103.837ZM127.133 36.2513C125.789 36.2513 124.613 35.962 123.605 35.3833C122.616 34.786 121.851 33.946 121.309 32.8633C120.768 31.762 120.497 30.4646 120.497 28.9713C120.497 27.4593 120.768 26.162 121.309 25.0793C121.851 23.9966 122.616 23.166 123.605 22.5873C124.613 21.99 125.789 21.6913 127.133 21.6913C128.496 21.6913 129.672 21.99 130.661 22.5873C131.669 23.166 132.444 23.9966 132.985 25.0793C133.545 26.162 133.825 27.4593 133.825 28.9713C133.825 30.4646 133.545 31.762 132.985 32.8633C132.444 33.946 131.669 34.786 130.661 35.3833C129.672 35.962 128.496 36.2513 127.133 36.2513ZM127.133 34.4033C128.477 34.4033 129.541 33.946 130.325 33.0313C131.109 32.098 131.501 30.7446 131.501 28.9713C131.501 27.1793 131.1 25.826 130.297 24.9113C129.513 23.978 128.459 23.5113 127.133 23.5113C125.808 23.5113 124.753 23.978 123.969 24.9113C123.185 25.826 122.793 27.1793 122.793 28.9713C122.793 30.7446 123.185 32.098 123.969 33.0313C124.753 33.946 125.808 34.4033 127.133 34.4033ZM137.953 35.9993V23.7073H135.209V21.9433H138.569L137.953 22.5313V20.1793C137.953 18.5926 138.354 17.3793 139.157 16.5393C139.959 15.6993 141.107 15.2793 142.601 15.2793C142.974 15.2793 143.357 15.3166 143.749 15.3913C144.159 15.4473 144.495 15.5313 144.757 15.6433V17.5193C144.533 17.426 144.253 17.3513 143.917 17.2953C143.599 17.2206 143.273 17.1833 142.937 17.1833C142.358 17.1833 141.863 17.3046 141.453 17.5473C141.042 17.7713 140.734 18.1166 140.529 18.5833C140.323 19.05 140.221 19.6473 140.221 20.3753V22.4193L139.857 21.9433H144.141V23.7073H140.221V35.9993H137.953ZM159.894 36.2513C158.513 36.2513 157.309 35.9526 156.282 35.3553C155.274 34.758 154.49 33.9086 153.93 32.8073C153.389 31.706 153.118 30.3993 153.118 28.8873C153.118 27.3566 153.398 26.0593 153.958 24.9953C154.518 23.9126 155.302 23.0913 156.31 22.5313C157.337 21.9713 158.532 21.6913 159.894 21.6913C160.79 21.6913 161.658 21.85 162.498 22.1673C163.357 22.4846 164.066 22.9326 164.626 23.5113L163.814 25.1353C163.254 24.594 162.638 24.1926 161.966 23.9313C161.313 23.67 160.669 23.5393 160.034 23.5393C158.578 23.5393 157.449 23.9966 156.646 24.9113C155.844 25.826 155.442 27.1606 155.442 28.9153C155.442 30.6513 155.844 31.9953 156.646 32.9473C157.449 33.8993 158.578 34.3753 160.034 34.3753C160.65 34.3753 161.285 34.254 161.938 34.0113C162.61 33.7686 163.236 33.3673 163.814 32.8073L164.626 34.4033C164.048 35.0006 163.329 35.458 162.47 35.7753C161.612 36.0926 160.753 36.2513 159.894 36.2513ZM173.344 36.2513C172 36.2513 170.824 35.962 169.816 35.3833C168.827 34.786 168.062 33.946 167.52 32.8633C166.979 31.762 166.708 30.4646 166.708 28.9713C166.708 27.4593 166.979 26.162 167.52 25.0793C168.062 23.9966 168.827 23.166 169.816 22.5873C170.824 21.99 172 21.6913 173.344 21.6913C174.707 21.6913 175.883 21.99 176.872 22.5873C177.88 23.166 178.655 23.9966 179.196 25.0793C179.756 26.162 180.036 27.4593 180.036 28.9713C180.036 30.4646 179.756 31.762 179.196 32.8633C178.655 33.946 177.88 34.786 176.872 35.3833C175.883 35.962 174.707 36.2513 173.344 36.2513ZM173.344 34.4033C174.688 34.4033 175.752 33.946 176.536 33.0313C177.32 32.098 177.712 30.7446 177.712 28.9713C177.712 27.1793 177.311 25.826 176.508 24.9113C175.724 23.978 174.67 23.5113 173.344 23.5113C172.019 23.5113 170.964 23.978 170.18 24.9113C169.396 25.826 169.004 27.1793 169.004 28.9713C169.004 30.7446 169.396 32.098 170.18 33.0313C170.964 33.946 172.019 34.4033 173.344 34.4033ZM183.572 35.9993V15.3913H185.84V35.9993H183.572ZM196.012 36.2513C194.668 36.2513 193.492 35.962 192.484 35.3833C191.495 34.786 190.73 33.946 190.188 32.8633C189.647 31.762 189.376 30.4646 189.376 28.9713C189.376 27.4593 189.647 26.162 190.188 25.0793C190.73 23.9966 191.495 23.166 192.484 22.5873C193.492 21.99 194.668 21.6913 196.012 21.6913C197.375 21.6913 198.551 21.99 199.54 22.5873C200.548 23.166 201.323 23.9966 201.864 25.0793C202.424 26.162 202.704 27.4593 202.704 28.9713C202.704 30.4646 202.424 31.762 201.864 32.8633C201.323 33.946 200.548 34.786 199.54 35.3833C198.551 35.962 197.375 36.2513 196.012 36.2513ZM196.012 34.4033C197.356 34.4033 198.42 33.946 199.204 33.0313C199.988 32.098 200.38 30.7446 200.38 28.9713C200.38 27.1793 199.979 25.826 199.176 24.9113C198.392 23.978 197.338 23.5113 196.012 23.5113C194.687 23.5113 193.632 23.978 192.848 24.9113C192.064 25.826 191.672 27.1793 191.672 28.9713C191.672 30.7446 192.064 32.098 192.848 33.0313C193.632 33.946 194.687 34.4033 196.012 34.4033ZM206.184 35.9993V25.3313C206.184 24.7713 206.166 24.202 206.128 23.6233C206.11 23.0446 206.072 22.4846 206.016 21.9433H208.2L208.48 25.3593L208.088 25.3873C208.275 24.5473 208.602 23.8566 209.068 23.3153C209.535 22.774 210.086 22.3726 210.72 22.1113C211.355 21.8313 212.018 21.6913 212.708 21.6913C212.988 21.6913 213.231 21.7006 213.436 21.7193C213.66 21.738 213.866 21.7846 214.052 21.8593L214.024 23.8753C213.744 23.782 213.483 23.726 213.24 23.7073C213.016 23.67 212.755 23.6513 212.456 23.6513C211.635 23.6513 210.916 23.8473 210.3 24.2393C209.703 24.6313 209.246 25.1353 208.928 25.7513C208.63 26.3673 208.48 27.0206 208.48 27.7113V35.9993H206.184ZM220.952 36.2513C219.832 36.2513 218.786 36.102 217.816 35.8033C216.845 35.486 216.042 35.0473 215.408 34.4873L216.192 32.8913C216.882 33.4326 217.629 33.834 218.432 34.0953C219.253 34.3566 220.102 34.4873 220.98 34.4873C222.1 34.4873 222.94 34.2913 223.5 33.8993C224.078 33.4886 224.368 32.9286 224.368 32.2193C224.368 31.678 224.181 31.2486 223.808 30.9313C223.453 30.5953 222.865 30.334 222.044 30.1473L219.44 29.6153C218.245 29.354 217.349 28.9153 216.752 28.2993C216.154 27.6646 215.856 26.862 215.856 25.8913C215.856 25.07 216.07 24.3513 216.5 23.7353C216.929 23.1006 217.554 22.606 218.376 22.2513C219.197 21.878 220.158 21.6913 221.259 21.6913C222.286 21.6913 223.229 21.85 224.088 22.1673C224.965 22.466 225.693 22.9046 226.272 23.4833L225.46 25.0513C224.9 24.51 224.256 24.1086 223.528 23.8473C222.818 23.5673 222.081 23.4273 221.316 23.4273C220.214 23.4273 219.384 23.6513 218.824 24.0993C218.282 24.5286 218.012 25.098 218.012 25.8073C218.012 26.3486 218.18 26.7966 218.516 27.1513C218.87 27.4873 219.412 27.7393 220.14 27.9073L222.744 28.4393C224.013 28.7193 224.956 29.158 225.572 29.7553C226.206 30.334 226.524 31.118 226.524 32.1073C226.524 32.9473 226.29 33.6846 225.824 34.3193C225.357 34.9353 224.704 35.4113 223.864 35.7473C223.042 36.0833 222.072 36.2513 220.952 36.2513ZM242.451 36.2513C241.07 36.2513 240.015 35.8593 239.287 35.0753C238.559 34.2726 238.195 33.0686 238.195 31.4633V23.7073H235.451V21.9433H238.195V18.1073L240.463 17.4633V21.9433H244.495V23.7073H240.463V31.2113C240.463 32.3313 240.65 33.134 241.023 33.6193C241.415 34.086 241.994 34.3193 242.759 34.3193C243.114 34.3193 243.431 34.2913 243.711 34.2353C243.991 34.1606 244.243 34.0766 244.467 33.9833V35.8873C244.206 35.9993 243.888 36.0833 243.515 36.1393C243.16 36.214 242.806 36.2513 242.451 36.2513ZM252.887 36.2513C251.543 36.2513 250.367 35.962 249.359 35.3833C248.37 34.786 247.605 33.946 247.063 32.8633C246.522 31.762 246.251 30.4646 246.251 28.9713C246.251 27.4593 246.522 26.162 247.063 25.0793C247.605 23.9966 248.37 23.166 249.359 22.5873C250.367 21.99 251.543 21.6913 252.887 21.6913C254.25 21.6913 255.426 21.99 256.415 22.5873C257.423 23.166 258.198 23.9966 258.739 25.0793C259.299 26.162 259.579 27.4593 259.579 28.9713C259.579 30.4646 259.299 31.762 258.739 32.8633C258.198 33.946 257.423 34.786 256.415 35.3833C255.426 35.962 254.25 36.2513 252.887 36.2513ZM252.887 34.4033C254.231 34.4033 255.295 33.946 256.079 33.0313C256.863 32.098 257.255 30.7446 257.255 28.9713C257.255 27.1793 256.854 25.826 256.051 24.9113C255.267 23.978 254.213 23.5113 252.887 23.5113C251.562 23.5113 250.507 23.978 249.723 24.9113C248.939 25.826 248.547 27.1793 248.547 28.9713C248.547 30.7446 248.939 32.098 249.723 33.0313C250.507 33.946 251.562 34.4033 252.887 34.4033ZM277.472 36.2513C276.203 36.2513 275.111 35.934 274.196 35.2993C273.281 34.646 272.665 33.7593 272.348 32.6393H272.656V35.9993H270.416V15.3913H272.684V25.2193H272.348C272.665 24.1366 273.281 23.278 274.196 22.6433C275.111 22.0086 276.203 21.6913 277.472 21.6913C278.741 21.6913 279.833 21.99 280.748 22.5873C281.681 23.166 282.4 23.9966 282.904 25.0793C283.427 26.162 283.688 27.4593 283.688 28.9713C283.688 30.4833 283.427 31.7806 282.904 32.8633C282.381 33.946 281.653 34.786 280.72 35.3833C279.805 35.962 278.723 36.2513 277.472 36.2513ZM276.996 34.4033C278.321 34.4033 279.385 33.946 280.188 33.0313C280.991 32.1166 281.392 30.7633 281.392 28.9713C281.392 27.1793 280.991 25.826 280.188 24.9113C279.385 23.978 278.321 23.5113 276.996 23.5113C275.671 23.5113 274.607 23.978 273.804 24.9113C273.02 25.826 272.628 27.1793 272.628 28.9713C272.628 30.7446 273.02 32.098 273.804 33.0313C274.607 33.946 275.671 34.4033 276.996 34.4033ZM293.449 36.2513C291.247 36.2513 289.511 35.6166 288.241 34.3473C286.972 33.0593 286.337 31.2766 286.337 28.9993C286.337 27.5246 286.617 26.246 287.177 25.1633C287.737 24.062 288.521 23.2126 289.529 22.6153C290.537 21.9993 291.695 21.6913 293.001 21.6913C294.289 21.6913 295.372 21.962 296.249 22.5033C297.127 23.0446 297.799 23.8193 298.265 24.8273C298.732 25.8166 298.965 26.9926 298.965 28.3553V29.1953H288.073V27.7673H297.481L297.005 28.1313C297.005 26.638 296.669 25.4713 295.997 24.6313C295.325 23.7913 294.327 23.3713 293.001 23.3713C291.601 23.3713 290.509 23.866 289.725 24.8553C288.941 25.826 288.549 27.142 288.549 28.8033V29.0553C288.549 30.81 288.979 32.1446 289.837 33.0593C290.715 33.9553 291.937 34.4033 293.505 34.4033C294.345 34.4033 295.129 34.282 295.857 34.0393C296.604 33.778 297.313 33.358 297.985 32.7793L298.769 34.3753C298.153 34.9726 297.369 35.4393 296.417 35.7753C295.484 36.0926 294.495 36.2513 293.449 36.2513ZM309.736 42.0473V25.1913C309.736 24.6686 309.708 24.1366 309.652 23.5953C309.615 23.0353 309.568 22.4846 309.512 21.9433H311.696L312.004 25.2753H311.668C311.967 24.174 312.574 23.306 313.488 22.6713C314.403 22.018 315.495 21.6913 316.764 21.6913C318.034 21.6913 319.126 21.9806 320.04 22.5593C320.974 23.138 321.702 23.9686 322.224 25.0513C322.747 26.134 323.008 27.4406 323.008 28.9713C323.008 30.4833 322.747 31.7806 322.224 32.8633C321.72 33.946 321.002 34.786 320.068 35.3833C319.135 35.962 318.034 36.2513 316.764 36.2513C315.514 36.2513 314.431 35.934 313.516 35.2993C312.602 34.6646 311.995 33.7966 311.696 32.6953H312.004V42.0473H309.736ZM316.316 34.4033C317.66 34.4033 318.724 33.946 319.508 33.0313C320.311 32.098 320.712 30.7446 320.712 28.9713C320.712 27.1793 320.311 25.826 319.508 24.9113C318.724 23.978 317.66 23.5113 316.316 23.5113C314.991 23.5113 313.927 23.978 313.124 24.9113C312.34 25.826 311.948 27.1793 311.948 28.9713C311.948 30.7446 312.34 32.098 313.124 33.0313C313.927 33.946 314.991 34.4033 316.316 34.4033ZM326.526 35.9993V21.9433H328.794V35.9993H326.526ZM326.246 18.7513V16.2033H329.046V18.7513H326.246ZM339.105 36.2513C337.724 36.2513 336.52 35.9526 335.493 35.3553C334.485 34.758 333.701 33.9086 333.141 32.8073C332.6 31.706 332.329 30.3993 332.329 28.8873C332.329 27.3566 332.609 26.0593 333.169 24.9953C333.729 23.9126 334.513 23.0913 335.521 22.5313C336.548 21.9713 337.743 21.6913 339.105 21.6913C340.001 21.6913 340.869 21.85 341.709 22.1673C342.568 22.4846 343.277 22.9326 343.837 23.5113L343.025 25.1353C342.465 24.594 341.849 24.1926 341.177 23.9313C340.524 23.67 339.88 23.5393 339.245 23.5393C337.789 23.5393 336.66 23.9966 335.857 24.9113C335.055 25.826 334.653 27.1606 334.653 28.9153C334.653 30.6513 335.055 31.9953 335.857 32.9473C336.66 33.8993 337.789 34.3753 339.245 34.3753C339.861 34.3753 340.496 34.254 341.149 34.0113C341.821 33.7686 342.447 33.3673 343.025 32.8073L343.837 34.4033C343.259 35.0006 342.54 35.458 341.681 35.7753C340.823 36.0926 339.964 36.2513 339.105 36.2513ZM347.061 35.9993V15.3913H349.329V28.1873H349.385L355.909 21.9433H358.765L351.065 29.2793L351.121 28.1313L359.493 35.9993H356.553L349.385 29.3913H349.329V35.9993H347.061ZM367.359 36.2513C365.157 36.2513 363.421 35.6166 362.151 34.3473C360.882 33.0593 360.247 31.2766 360.247 28.9993C360.247 27.5246 360.527 26.246 361.087 25.1633C361.647 24.062 362.431 23.2126 363.439 22.6153C364.447 21.9993 365.605 21.6913 366.911 21.6913C368.199 21.6913 369.282 21.962 370.159 22.5033C371.037 23.0446 371.709 23.8193 372.175 24.8273C372.642 25.8166 372.875 26.9926 372.875 28.3553V29.1953H361.983V27.7673H371.391L370.915 28.1313C370.915 26.638 370.579 25.4713 369.907 24.6313C369.235 23.7913 368.237 23.3713 366.911 23.3713C365.511 23.3713 364.419 23.866 363.635 24.8553C362.851 25.826 362.459 27.142 362.459 28.8033V29.0553C362.459 30.81 362.889 32.1446 363.747 33.0593C364.625 33.9553 365.847 34.4033 367.415 34.4033C368.255 34.4033 369.039 34.282 369.767 34.0393C370.514 33.778 371.223 33.358 371.895 32.7793L372.679 34.3753C372.063 34.9726 371.279 35.4393 370.327 35.7753C369.394 36.0926 368.405 36.2513 367.359 36.2513ZM381.666 36.2513C380.434 36.2513 379.351 35.962 378.418 35.3833C377.484 34.786 376.756 33.946 376.234 32.8633C375.73 31.7806 375.478 30.4833 375.478 28.9713C375.478 27.4406 375.73 26.134 376.234 25.0513C376.756 23.9686 377.484 23.138 378.418 22.5593C379.351 21.9806 380.434 21.6913 381.666 21.6913C382.935 21.6913 384.027 22.0086 384.942 22.6433C385.875 23.278 386.5 24.1366 386.818 25.2193H386.482V15.3913H388.75V35.9993H386.51V32.6393H386.818C386.519 33.7593 385.903 34.646 384.97 35.2993C384.036 35.934 382.935 36.2513 381.666 36.2513ZM382.142 34.4033C383.467 34.4033 384.531 33.946 385.334 33.0313C386.136 32.098 386.538 30.7446 386.538 28.9713C386.538 27.1793 386.136 25.826 385.334 24.9113C384.531 23.978 383.467 23.5113 382.142 23.5113C380.816 23.5113 379.752 23.978 378.95 24.9113C378.166 25.826 377.774 27.1793 377.774 28.9713C377.774 30.7446 378.166 32.098 378.95 33.0313C379.752 33.946 380.816 34.4033 382.142 34.4033ZM401.164 35.9993V23.7073H398.42V21.9433H401.78L401.164 22.5313V20.1793C401.164 18.5926 401.565 17.3793 402.368 16.5393C403.17 15.6993 404.318 15.2793 405.812 15.2793C406.185 15.2793 406.568 15.3166 406.96 15.3913C407.37 15.4473 407.706 15.5313 407.968 15.6433V17.5193C407.744 17.426 407.464 17.3513 407.128 17.2953C406.81 17.2206 406.484 17.1833 406.148 17.1833C405.569 17.1833 405.074 17.3046 404.664 17.5473C404.253 17.7713 403.945 18.1166 403.74 18.5833C403.534 19.05 403.432 19.6473 403.432 20.3753V22.4193L403.068 21.9433H407.352V23.7073H403.432V35.9993H401.164ZM409.841 35.9993V25.3313C409.841 24.7713 409.822 24.202 409.785 23.6233C409.766 23.0446 409.729 22.4846 409.673 21.9433H411.857L412.137 25.3593L411.745 25.3873C411.931 24.5473 412.258 23.8566 412.725 23.3153C413.191 22.774 413.742 22.3726 414.377 22.1113C415.011 21.8313 415.674 21.6913 416.365 21.6913C416.645 21.6913 416.887 21.7006 417.093 21.7193C417.317 21.738 417.522 21.7846 417.709 21.8593L417.681 23.8753C417.401 23.782 417.139 23.726 416.897 23.7073C416.673 23.67 416.411 23.6513 416.113 23.6513C415.291 23.6513 414.573 23.8473 413.957 24.2393C413.359 24.6313 412.902 25.1353 412.585 25.7513C412.286 26.3673 412.137 27.0206 412.137 27.7113V35.9993H409.841ZM425.672 36.2513C424.328 36.2513 423.152 35.962 422.144 35.3833C421.155 34.786 420.39 33.946 419.848 32.8633C419.307 31.762 419.036 30.4646 419.036 28.9713C419.036 27.4593 419.307 26.162 419.848 25.0793C420.39 23.9966 421.155 23.166 422.144 22.5873C423.152 21.99 424.328 21.6913 425.672 21.6913C427.035 21.6913 428.211 21.99 429.2 22.5873C430.208 23.166 430.983 23.9966 431.524 25.0793C432.084 26.162 432.364 27.4593 432.364 28.9713C432.364 30.4646 432.084 31.762 431.524 32.8633C430.983 33.946 430.208 34.786 429.2 35.3833C428.211 35.962 427.035 36.2513 425.672 36.2513ZM425.672 34.4033C427.016 34.4033 428.08 33.946 428.864 33.0313C429.648 32.098 430.04 30.7446 430.04 28.9713C430.04 27.1793 429.639 25.826 428.836 24.9113C428.052 23.978 426.998 23.5113 425.672 23.5113C424.347 23.5113 423.292 23.978 422.508 24.9113C421.724 25.826 421.332 27.1793 421.332 28.9713C421.332 30.7446 421.724 32.098 422.508 33.0313C423.292 33.946 424.347 34.4033 425.672 34.4033ZM435.901 35.9993V25.1913C435.901 24.6686 435.873 24.1366 435.817 23.5953C435.779 23.0353 435.733 22.4846 435.677 21.9433H437.861L438.141 25.0233H437.804C438.178 23.9593 438.766 23.138 439.569 22.5593C440.39 21.9806 441.379 21.6913 442.537 21.6913C443.713 21.6913 444.665 21.9713 445.393 22.5313C446.139 23.0913 446.643 23.9593 446.905 25.1353H446.485C446.839 24.0713 447.465 23.2313 448.361 22.6153C449.257 21.9993 450.302 21.6913 451.497 21.6913C453.046 21.6913 454.213 22.1393 454.997 23.0353C455.781 23.9126 456.173 25.3033 456.173 27.2073V35.9993H453.905V27.3473C453.905 26.022 453.671 25.0606 453.205 24.4633C452.738 23.8473 451.991 23.5393 450.965 23.5393C449.789 23.5393 448.855 23.95 448.165 24.7713C447.493 25.574 447.157 26.6566 447.157 28.0193V35.9993H444.889V27.3473C444.889 26.022 444.655 25.0606 444.189 24.4633C443.722 23.8473 442.975 23.5393 441.949 23.5393C440.773 23.5393 439.849 23.95 439.177 24.7713C438.505 25.574 438.169 26.6566 438.169 28.0193V35.9993H435.901ZM467.783 35.9993V21.9433H470.051V35.9993H467.783ZM467.503 18.7513V16.2033H470.303V18.7513H467.503ZM474.455 35.9993V25.1913C474.455 24.6686 474.427 24.1366 474.371 23.5953C474.334 23.0353 474.287 22.4846 474.231 21.9433H476.415L476.695 25.0233H476.359C476.733 23.9593 477.321 23.138 478.123 22.5593C478.945 21.9806 479.934 21.6913 481.091 21.6913C482.267 21.6913 483.219 21.9713 483.947 22.5313C484.694 23.0913 485.198 23.9593 485.459 25.1353H485.039C485.394 24.0713 486.019 23.2313 486.915 22.6153C487.811 21.9993 488.857 21.6913 490.051 21.6913C491.601 21.6913 492.767 22.1393 493.551 23.0353C494.335 23.9126 494.727 25.3033 494.727 27.2073V35.9993H492.459V27.3473C492.459 26.022 492.226 25.0606 491.759 24.4633C491.293 23.8473 490.546 23.5393 489.519 23.5393C488.343 23.5393 487.41 23.95 486.719 24.7713C486.047 25.574 485.711 26.6566 485.711 28.0193V35.9993H483.443V27.3473C483.443 26.022 483.21 25.0606 482.743 24.4633C482.277 23.8473 481.53 23.5393 480.503 23.5393C479.327 23.5393 478.403 23.95 477.731 24.7713C477.059 25.574 476.723 26.6566 476.723 28.0193V35.9993H474.455ZM504.385 36.2513C503.135 36.2513 502.043 35.962 501.109 35.3833C500.176 34.786 499.448 33.946 498.925 32.8633C498.421 31.7806 498.169 30.4833 498.169 28.9713C498.169 27.4406 498.421 26.134 498.925 25.0513C499.448 23.9686 500.176 23.138 501.109 22.5593C502.043 21.9806 503.135 21.6913 504.385 21.6913C505.655 21.6913 506.747 22.018 507.661 22.6713C508.595 23.306 509.211 24.174 509.509 25.2753H509.173L509.481 21.9433H511.665C511.609 22.4846 511.553 23.0353 511.497 23.5953C511.46 24.1366 511.441 24.6686 511.441 25.1913V35.9993H509.173V32.6953H509.481C509.183 33.7966 508.567 34.6646 507.633 35.2993C506.7 35.934 505.617 36.2513 504.385 36.2513ZM504.833 34.4033C506.177 34.4033 507.241 33.946 508.025 33.0313C508.809 32.098 509.201 30.7446 509.201 28.9713C509.201 27.1793 508.809 25.826 508.025 24.9113C507.241 23.978 506.177 23.5113 504.833 23.5113C503.508 23.5113 502.444 23.978 501.641 24.9113C500.857 25.826 500.465 27.1793 500.465 28.9713C500.465 30.7446 500.857 32.098 501.641 33.0313C502.444 33.946 503.508 34.4033 504.833 34.4033ZM522.014 42.2433C520.801 42.2433 519.681 42.094 518.654 41.7953C517.628 41.4966 516.704 41.0393 515.882 40.4233L516.554 38.7153C517.133 39.126 517.702 39.4526 518.262 39.6953C518.822 39.938 519.401 40.1153 519.998 40.2273C520.596 40.358 521.23 40.4233 521.902 40.4233C523.284 40.4233 524.329 40.0593 525.038 39.3313C525.748 38.6033 526.102 37.5673 526.102 36.2233V32.1073H526.382C526.084 33.2086 525.468 34.086 524.534 34.7393C523.601 35.374 522.509 35.6913 521.258 35.6913C519.97 35.6913 518.85 35.4113 517.898 34.8513C516.965 34.2726 516.237 33.4606 515.714 32.4153C515.21 31.3513 514.958 30.1006 514.958 28.6633C514.958 27.2446 515.21 26.0126 515.714 24.9673C516.237 23.922 516.965 23.1193 517.898 22.5593C518.85 21.9806 519.97 21.6913 521.258 21.6913C522.528 21.6913 523.62 22.0086 524.534 22.6433C525.468 23.278 526.084 24.1553 526.382 25.2753L526.102 24.9953L526.354 21.9433H528.566C528.492 22.4846 528.436 23.0353 528.398 23.5953C528.361 24.1366 528.342 24.6686 528.342 25.1913V35.9153C528.342 38.006 527.801 39.5833 526.718 40.6473C525.654 41.7113 524.086 42.2433 522.014 42.2433ZM521.678 33.8433C523.041 33.8433 524.114 33.3953 524.898 32.4993C525.682 31.5846 526.074 30.306 526.074 28.6633C526.074 27.0206 525.682 25.7513 524.898 24.8553C524.114 23.9593 523.041 23.5113 521.678 23.5113C520.334 23.5113 519.261 23.9593 518.458 24.8553C517.656 25.7513 517.254 27.0206 517.254 28.6633C517.254 30.306 517.656 31.5846 518.458 32.4993C519.261 33.3953 520.334 33.8433 521.678 33.8433ZM538.941 36.2513C536.739 36.2513 535.003 35.6166 533.733 34.3473C532.464 33.0593 531.829 31.2766 531.829 28.9993C531.829 27.5246 532.109 26.246 532.669 25.1633C533.229 24.062 534.013 23.2126 535.021 22.6153C536.029 21.9993 537.187 21.6913 538.493 21.6913C539.781 21.6913 540.864 21.962 541.741 22.5033C542.619 23.0446 543.291 23.8193 543.757 24.8273C544.224 25.8166 544.457 26.9926 544.457 28.3553V29.1953H533.565V27.7673H542.973L542.497 28.1313C542.497 26.638 542.161 25.4713 541.489 24.6313C540.817 23.7913 539.819 23.3713 538.493 23.3713C537.093 23.3713 536.001 23.866 535.217 24.8553C534.433 25.826 534.041 27.142 534.041 28.8033V29.0553C534.041 30.81 534.471 32.1446 535.329 33.0593C536.207 33.9553 537.429 34.4033 538.997 34.4033C539.837 34.4033 540.621 34.282 541.349 34.0393C542.096 33.778 542.805 33.358 543.477 32.7793L544.261 34.3753C543.645 34.9726 542.861 35.4393 541.909 35.7753C540.976 36.0926 539.987 36.2513 538.941 36.2513Z" fill="black"/>
<path d="M400 58H16C12.6863 58 10 60.6863 10 64V134C10 137.314 12.6863 140 16 140H400C403.314 140 406 137.314 406 134V64C406 60.6863 403.314 58 400 58Z" stroke="#D3D6D7" stroke-width="4"/>
<path d="M400 58H16C12.6863 58 10 60.6863 10 64V134C10 137.314 12.6863 140 16 140H400C403.314 140 406 137.314 406 134V64C406 60.6863 403.314 58 400 58Z" stroke="black" stroke-opacity="0.2" stroke-width="4"/>
<path d="M40 100H70" stroke="#D3D6D7" stroke-width="4"/>
<path d="M40 100H70" stroke="black" stroke-opacity="0.2" stroke-width="4"/>
<path d="M210.808 110V105.716H201.4V104.036L211.172 90.2598H213.076V103.84H216.1V105.716H213.076V110H210.808ZM210.808 103.84V93.0038H211.424L203.304 104.428V103.84H210.808Z" fill="black"/>
<path d="M342 101H372" stroke="#D3D6D7" stroke-width="4"/>
<path d="M342 101H372" stroke="black" stroke-opacity="0.2" stroke-width="4"/>
<path d="M357 86V116" stroke="#D3D6D7" stroke-width="4"/>
<path d="M357 86V116" stroke="black" stroke-opacity="0.2" stroke-width="4"/>
</g>
<defs>
<clipPath id="clip0_767_1658">
<rect width="554" height="150" fill="white"/>
</clipPath>
</defs>
</svg>
