<svg width="710" height="351" viewBox="0 0 710 351" fill="none" xmlns="http://www.w3.org/2000/svg">
<path fill-rule="evenodd" clip-rule="evenodd" d="M13 0.324219C5.8203 0.324219 0 6.14452 0 13.3242V305.324V337.324V350.324H13H697H710V337.324V305.324V13.3242C710 6.14452 704.18 0.324219 697 0.324219H13Z" fill="#333538"/>
<path d="M275.56 225.356C275.389 224.546 275.112 223.842 274.728 223.244C274.344 222.626 273.864 222.114 273.288 221.708C272.733 221.303 272.104 221.004 271.4 220.812C270.696 220.599 269.949 220.492 269.16 220.492C267.795 220.492 266.621 220.748 265.64 221.26C264.68 221.772 263.88 222.466 263.24 223.34C262.621 224.194 262.163 225.175 261.864 226.284C261.565 227.394 261.416 228.546 261.416 229.74C261.416 231.042 261.565 232.279 261.864 233.452C262.163 234.604 262.621 235.618 263.24 236.492C263.88 237.346 264.691 238.028 265.672 238.54C266.653 239.052 267.827 239.308 269.192 239.308C270.195 239.308 271.08 239.148 271.848 238.828C272.637 238.487 273.309 238.028 273.864 237.452C274.44 236.855 274.888 236.151 275.208 235.34C275.528 234.53 275.72 233.655 275.784 232.716H278.824C278.525 235.575 277.523 237.815 275.816 239.436C274.131 241.058 271.837 241.868 268.936 241.868C267.165 241.868 265.619 241.559 264.296 240.94C262.973 240.322 261.875 239.479 261 238.412C260.125 237.346 259.464 236.087 259.016 234.636C258.589 233.186 258.376 231.628 258.376 229.964C258.376 228.3 258.611 226.743 259.08 225.292C259.549 223.82 260.232 222.54 261.128 221.452C262.045 220.364 263.176 219.511 264.52 218.892C265.864 218.252 267.421 217.932 269.192 217.932C270.387 217.932 271.517 218.092 272.584 218.412C273.651 218.732 274.6 219.202 275.432 219.82C276.264 220.439 276.957 221.218 277.512 222.156C278.067 223.074 278.429 224.14 278.6 225.356H275.56ZM281.246 233.068C281.246 231.852 281.416 230.722 281.758 229.676C282.099 228.61 282.611 227.692 283.294 226.924C283.976 226.135 284.808 225.516 285.79 225.068C286.792 224.62 287.955 224.396 289.278 224.396C290.579 224.396 291.731 224.62 292.734 225.068C293.736 225.516 294.579 226.135 295.262 226.924C295.944 227.692 296.456 228.61 296.798 229.676C297.139 230.722 297.31 231.852 297.31 233.068C297.31 234.284 297.139 235.415 296.798 236.46C296.456 237.506 295.944 238.423 295.262 239.212C294.579 239.98 293.736 240.588 292.734 241.036C291.731 241.484 290.579 241.708 289.278 241.708C287.955 241.708 286.792 241.484 285.79 241.036C284.808 240.588 283.976 239.98 283.294 239.212C282.611 238.423 282.099 237.506 281.758 236.46C281.416 235.415 281.246 234.284 281.246 233.068ZM284.126 233.068C284.126 234.071 284.254 234.967 284.51 235.756C284.787 236.524 285.16 237.175 285.63 237.708C286.099 238.22 286.643 238.615 287.262 238.892C287.902 239.17 288.574 239.308 289.278 239.308C289.982 239.308 290.643 239.17 291.262 238.892C291.902 238.615 292.456 238.22 292.926 237.708C293.395 237.175 293.758 236.524 294.014 235.756C294.291 234.967 294.43 234.071 294.43 233.068C294.43 232.066 294.291 231.18 294.014 230.412C293.758 229.623 293.395 228.962 292.926 228.428C292.456 227.895 291.902 227.49 291.262 227.212C290.643 226.935 289.982 226.796 289.278 226.796C288.574 226.796 287.902 226.935 287.262 227.212C286.643 227.49 286.099 227.895 285.63 228.428C285.16 228.962 284.787 229.623 284.51 230.412C284.254 231.18 284.126 232.066 284.126 233.068ZM300.517 224.78H303.077V227.404H303.141C303.717 226.38 304.453 225.623 305.349 225.132C306.266 224.642 307.322 224.396 308.517 224.396C309.605 224.396 310.511 224.546 311.237 224.844C311.962 225.143 312.549 225.559 312.997 226.092C313.445 226.626 313.754 227.266 313.925 228.012C314.117 228.738 314.213 229.548 314.213 230.444V241.324H311.493V230.124C311.493 229.1 311.194 228.29 310.597 227.692C309.999 227.095 309.178 226.796 308.133 226.796C307.301 226.796 306.575 226.924 305.957 227.18C305.359 227.436 304.858 227.799 304.453 228.268C304.047 228.738 303.738 229.292 303.525 229.932C303.333 230.551 303.237 231.234 303.237 231.98V241.324H300.517V224.78ZM322.074 224.78H325.37V227.18H322.074V237.452C322.074 237.772 322.095 238.028 322.138 238.22C322.202 238.412 322.309 238.562 322.458 238.668C322.607 238.775 322.81 238.85 323.066 238.892C323.343 238.914 323.695 238.924 324.122 238.924H325.37V241.324H323.29C322.586 241.324 321.978 241.282 321.466 241.196C320.975 241.09 320.57 240.908 320.25 240.652C319.951 240.396 319.727 240.034 319.578 239.564C319.429 239.095 319.354 238.476 319.354 237.708V227.18H316.538V224.78H319.354V219.82H322.074V224.78ZM328.296 224.78H330.856V228.268H330.92C331.581 226.924 332.392 225.932 333.352 225.292C334.312 224.652 335.528 224.354 337 224.396V227.276C335.912 227.276 334.984 227.426 334.216 227.724C333.448 228.023 332.829 228.46 332.36 229.036C331.89 229.612 331.549 230.316 331.336 231.148C331.122 231.98 331.016 232.919 331.016 233.964V241.324H328.296V224.78ZM337.59 233.068C337.59 231.852 337.76 230.722 338.102 229.676C338.443 228.61 338.955 227.692 339.638 226.924C340.32 226.135 341.152 225.516 342.134 225.068C343.136 224.62 344.299 224.396 345.622 224.396C346.923 224.396 348.075 224.62 349.078 225.068C350.08 225.516 350.923 226.135 351.606 226.924C352.288 227.692 352.8 228.61 353.142 229.676C353.483 230.722 353.654 231.852 353.654 233.068C353.654 234.284 353.483 235.415 353.142 236.46C352.8 237.506 352.288 238.423 351.606 239.212C350.923 239.98 350.08 240.588 349.078 241.036C348.075 241.484 346.923 241.708 345.622 241.708C344.299 241.708 343.136 241.484 342.134 241.036C341.152 240.588 340.32 239.98 339.638 239.212C338.955 238.423 338.443 237.506 338.102 236.46C337.76 235.415 337.59 234.284 337.59 233.068ZM340.47 233.068C340.47 234.071 340.598 234.967 340.854 235.756C341.131 236.524 341.504 237.175 341.974 237.708C342.443 238.22 342.987 238.615 343.606 238.892C344.246 239.17 344.918 239.308 345.622 239.308C346.326 239.308 346.987 239.17 347.606 238.892C348.246 238.615 348.8 238.22 349.27 237.708C349.739 237.175 350.102 236.524 350.358 235.756C350.635 234.967 350.774 234.071 350.774 233.068C350.774 232.066 350.635 231.18 350.358 230.412C350.102 229.623 349.739 228.962 349.27 228.428C348.8 227.895 348.246 227.49 347.606 227.212C346.987 226.935 346.326 226.796 345.622 226.796C344.918 226.796 344.246 226.935 343.606 227.212C342.987 227.49 342.443 227.895 341.974 228.428C341.504 228.962 341.131 229.623 340.854 230.412C340.598 231.18 340.47 232.066 340.47 233.068ZM357.021 218.476H359.741V241.324H357.021V218.476ZM373.309 218.476H383.325C385.607 218.476 387.346 219.074 388.541 220.268C389.735 221.442 390.333 223.095 390.333 225.228C390.333 227.362 389.735 229.026 388.541 230.22C387.346 231.415 385.607 232.002 383.325 231.98H376.349V241.324H373.309V218.476ZM376.349 229.42H382.301C384.029 229.442 385.287 229.09 386.077 228.364C386.887 227.639 387.293 226.594 387.293 225.228C387.293 223.863 386.887 222.828 386.077 222.124C385.287 221.399 384.029 221.036 382.301 221.036H376.349V229.42ZM403.851 232.78C403.595 232.972 403.275 233.122 402.891 233.228C402.507 233.335 402.101 233.431 401.675 233.516C401.248 233.58 400.789 233.644 400.299 233.708C399.829 233.751 399.371 233.815 398.923 233.9C398.475 233.986 398.048 234.092 397.643 234.22C397.237 234.348 396.885 234.53 396.587 234.764C396.288 234.978 396.043 235.255 395.851 235.596C395.68 235.938 395.595 236.364 395.595 236.876C395.595 237.324 395.68 237.708 395.851 238.028C396.043 238.327 396.277 238.572 396.555 238.764C396.853 238.956 397.195 239.095 397.579 239.18C397.963 239.266 398.368 239.308 398.795 239.308C399.691 239.308 400.459 239.191 401.099 238.956C401.739 238.7 402.261 238.391 402.667 238.028C403.072 237.644 403.371 237.239 403.563 236.812C403.755 236.364 403.851 235.948 403.851 235.564V232.78ZM408.267 241.26C407.776 241.559 407.125 241.708 406.315 241.708C405.611 241.708 405.045 241.506 404.619 241.1C404.213 240.695 404.011 240.044 404.011 239.148C403.264 240.044 402.389 240.695 401.387 241.1C400.405 241.506 399.339 241.708 398.187 241.708C397.44 241.708 396.725 241.623 396.043 241.452C395.381 241.282 394.805 241.015 394.315 240.652C393.824 240.268 393.429 239.788 393.131 239.212C392.853 238.615 392.715 237.9 392.715 237.068C392.715 236.13 392.875 235.362 393.195 234.764C393.515 234.167 393.931 233.687 394.443 233.324C394.976 232.962 395.573 232.684 396.235 232.492C396.917 232.279 397.611 232.108 398.315 231.98C399.061 231.831 399.765 231.724 400.427 231.66C401.109 231.575 401.707 231.468 402.219 231.34C402.731 231.191 403.136 230.988 403.435 230.732C403.733 230.455 403.883 230.06 403.883 229.548C403.883 228.951 403.765 228.471 403.531 228.108C403.317 227.746 403.029 227.468 402.667 227.276C402.325 227.084 401.931 226.956 401.483 226.892C401.056 226.828 400.629 226.796 400.203 226.796C399.051 226.796 398.091 227.02 397.323 227.468C396.555 227.895 396.139 228.716 396.075 229.932H393.355C393.397 228.908 393.611 228.044 393.995 227.34C394.379 226.636 394.891 226.071 395.531 225.644C396.171 225.196 396.907 224.876 397.739 224.684C398.571 224.492 399.445 224.396 400.363 224.396C401.109 224.396 401.845 224.45 402.571 224.556C403.317 224.663 403.989 224.887 404.587 225.228C405.184 225.548 405.664 226.007 406.027 226.604C406.389 227.202 406.571 227.98 406.571 228.94V237.452C406.571 238.092 406.603 238.562 406.667 238.86C406.752 239.159 407.008 239.308 407.435 239.308C407.691 239.308 407.968 239.255 408.267 239.148V241.26ZM410.798 224.78H413.358V227.404H413.422C413.998 226.38 414.734 225.623 415.63 225.132C416.547 224.642 417.603 224.396 418.798 224.396C419.886 224.396 420.793 224.546 421.518 224.844C422.243 225.143 422.83 225.559 423.278 226.092C423.726 226.626 424.035 227.266 424.206 228.012C424.398 228.738 424.494 229.548 424.494 230.444V241.324H421.774V230.124C421.774 229.1 421.475 228.29 420.878 227.692C420.281 227.095 419.459 226.796 418.414 226.796C417.582 226.796 416.857 226.924 416.238 227.18C415.641 227.436 415.139 227.799 414.734 228.268C414.329 228.738 414.019 229.292 413.806 229.932C413.614 230.551 413.518 231.234 413.518 231.98V241.324H410.798V224.78ZM442.691 236.076C442.329 237.911 441.529 239.308 440.291 240.268C439.054 241.228 437.497 241.708 435.619 241.708C434.297 241.708 433.145 241.495 432.163 241.068C431.203 240.62 430.393 240.012 429.731 239.244C429.07 238.476 428.569 237.559 428.227 236.492C427.907 235.426 427.726 234.263 427.683 233.004C427.683 231.767 427.875 230.626 428.259 229.58C428.643 228.514 429.177 227.596 429.859 226.828C430.563 226.06 431.385 225.463 432.323 225.036C433.283 224.61 434.329 224.396 435.459 224.396C436.931 224.396 438.147 224.706 439.107 225.324C440.089 225.922 440.867 226.69 441.443 227.628C442.041 228.567 442.446 229.591 442.659 230.7C442.894 231.81 442.99 232.866 442.947 233.868H430.563C430.542 234.594 430.627 235.287 430.819 235.948C431.011 236.588 431.321 237.164 431.747 237.676C432.174 238.167 432.718 238.562 433.379 238.86C434.041 239.159 434.819 239.308 435.715 239.308C436.846 239.308 437.785 239.042 438.531 238.508C439.278 237.975 439.769 237.164 440.003 236.076H442.691ZM440.067 231.468C440.025 230.828 439.875 230.22 439.619 229.644C439.385 229.068 439.054 228.578 438.627 228.172C438.222 227.746 437.731 227.415 437.155 227.18C436.579 226.924 435.961 226.796 435.299 226.796C434.595 226.796 433.955 226.924 433.379 227.18C432.825 227.415 432.345 227.746 431.939 228.172C431.534 228.599 431.214 229.1 430.979 229.676C430.745 230.231 430.606 230.828 430.563 231.468H440.067ZM445.927 218.476H448.647V241.324H445.927V218.476Z" fill="white"/>
<path d="M339.984 266.616H342.294L348.432 282.324H346.122L344.406 277.594H337.762L336.002 282.324H333.846L339.984 266.616ZM338.422 275.834H343.746L341.128 268.508H341.084L338.422 275.834ZM359.2 276.538C359.2 276.01 359.126 275.497 358.98 274.998C358.848 274.485 358.635 274.03 358.342 273.634C358.063 273.238 357.696 272.923 357.242 272.688C356.802 272.454 356.281 272.336 355.68 272.336C355.049 272.336 354.514 272.461 354.074 272.71C353.634 272.96 353.274 273.29 352.996 273.7C352.717 274.096 352.512 274.551 352.38 275.064C352.262 275.578 352.204 276.098 352.204 276.626C352.204 277.184 352.27 277.726 352.402 278.254C352.534 278.768 352.739 279.222 353.018 279.618C353.311 280.014 353.685 280.337 354.14 280.586C354.594 280.821 355.144 280.938 355.79 280.938C356.42 280.938 356.956 280.814 357.396 280.564C357.836 280.315 358.188 279.985 358.452 279.574C358.716 279.164 358.906 278.694 359.024 278.166C359.141 277.638 359.2 277.096 359.2 276.538ZM350.4 270.95H352.27V272.49H352.314C352.622 271.86 353.106 271.405 353.766 271.126C354.426 270.833 355.152 270.686 355.944 270.686C356.824 270.686 357.586 270.848 358.232 271.17C358.892 271.493 359.434 271.933 359.86 272.49C360.3 273.033 360.63 273.664 360.85 274.382C361.07 275.101 361.18 275.864 361.18 276.67C361.18 277.477 361.07 278.24 360.85 278.958C360.644 279.677 360.322 280.308 359.882 280.85C359.456 281.378 358.914 281.804 358.254 282.126C357.608 282.434 356.853 282.588 355.988 282.588C355.694 282.588 355.379 282.559 355.042 282.5C354.704 282.442 354.367 282.346 354.03 282.214C353.692 282.068 353.37 281.884 353.062 281.664C352.768 281.43 352.519 281.144 352.314 280.806H352.27V286.68H350.4V270.95ZM372.901 276.538C372.901 276.01 372.827 275.497 372.681 274.998C372.549 274.485 372.336 274.03 372.043 273.634C371.764 273.238 371.397 272.923 370.943 272.688C370.503 272.454 369.982 272.336 369.381 272.336C368.75 272.336 368.215 272.461 367.775 272.71C367.335 272.96 366.975 273.29 366.697 273.7C366.418 274.096 366.213 274.551 366.081 275.064C365.963 275.578 365.905 276.098 365.905 276.626C365.905 277.184 365.971 277.726 366.103 278.254C366.235 278.768 366.44 279.222 366.719 279.618C367.012 280.014 367.386 280.337 367.841 280.586C368.295 280.821 368.845 280.938 369.491 280.938C370.121 280.938 370.657 280.814 371.097 280.564C371.537 280.315 371.889 279.985 372.153 279.574C372.417 279.164 372.607 278.694 372.725 278.166C372.842 277.638 372.901 277.096 372.901 276.538ZM364.101 270.95H365.971V272.49H366.015C366.323 271.86 366.807 271.405 367.467 271.126C368.127 270.833 368.853 270.686 369.645 270.686C370.525 270.686 371.287 270.848 371.933 271.17C372.593 271.493 373.135 271.933 373.561 272.49C374.001 273.033 374.331 273.664 374.551 274.382C374.771 275.101 374.881 275.864 374.881 276.67C374.881 277.477 374.771 278.24 374.551 278.958C374.345 279.677 374.023 280.308 373.583 280.85C373.157 281.378 372.615 281.804 371.955 282.126C371.309 282.434 370.554 282.588 369.689 282.588C369.395 282.588 369.08 282.559 368.743 282.5C368.405 282.442 368.068 282.346 367.731 282.214C367.393 282.068 367.071 281.884 366.763 281.664C366.469 281.43 366.22 281.144 366.015 280.806H365.971V286.68H364.101V270.95Z" fill="#D6D7D7"/>
<path d="M29 342.324H680" stroke="#464646" stroke-width="3.5"/>
<rect x="303" y="81.3242" width="103" height="73" rx="2" fill="url(#paint0_linear_439_1906)"/>
<path fill-rule="evenodd" clip-rule="evenodd" d="M302 73.3242C298.686 73.3242 296 76.0105 296 79.3242V156.324C296 159.638 298.686 162.324 302 162.324H408C411.314 162.324 414 159.638 414 156.324V79.3242C414 76.0105 411.314 73.3242 408 73.3242H302ZM305 81.3242C303.895 81.3242 303 82.2197 303 83.3242V152.324C303 153.429 303.895 154.324 305 154.324H404C405.105 154.324 406 153.429 406 152.324V83.3242C406 82.2196 405.105 81.3242 404 81.3242H305Z" fill="url(#paint1_linear_439_1906)"/>
<path d="M310.5 145.324V141.824H354V145.324H310.5Z" fill="#F18C0A"/>
<path d="M355.5 145.324V141.824H399V145.324H355.5Z" fill="#0078D4"/>
<circle cx="354.5" cy="143.824" r="4.75" fill="#046CC2" stroke="#F9FDFE" stroke-width="1.5"/>
<path d="M355 112.324H367C367.276 112.324 367.5 112.1 367.5 111.824V94.3242C367.5 94.0481 367.724 93.8242 368 93.8242H381" stroke="#0C59A4" stroke-width="3.5"/>
<circle cx="334" cy="111.324" r="23" fill="url(#paint2_linear_439_1906)"/>
<path fill-rule="evenodd" clip-rule="evenodd" d="M356.979 112.324H333V88.3456C333.332 88.3314 333.665 88.3242 334 88.3242C346.703 88.3242 357 98.6217 357 111.324C357 111.659 356.993 111.993 356.979 112.324Z" fill="white"/>
<path fill-rule="evenodd" clip-rule="evenodd" d="M356.98 111.324H334V88.3447C334.318 88.3311 334.637 88.3242 334.959 88.3242C347.103 88.3242 356.953 98.1454 357 110.278V110.453C356.999 110.745 356.992 111.035 356.98 111.324Z" fill="#F18C0A"/>
<rect x="378" y="89.3242" width="20" height="9" rx="3" fill="white" stroke="#1493DF" stroke-width="2"/>
<circle cx="394.5" cy="93.8242" r="4.5" fill="#0B62B0"/>
<rect x="378" y="89.3242" width="20" height="9" rx="3" stroke="#1493DF" stroke-width="2"/>
<rect x="378" y="106.324" width="20" height="9" rx="3" fill="white" stroke="#1493DF" stroke-width="2"/>
<circle cx="394.5" cy="110.824" r="4.5" fill="#0B62B0"/>
<rect x="378" y="106.324" width="20" height="9" rx="3" stroke="#1493DF" stroke-width="2"/>
<rect x="378" y="122.324" width="20" height="9" rx="3" fill="white" stroke="#1493DF" stroke-width="2"/>
<circle cx="381.5" cy="126.824" r="4.5" fill="#0B62B0"/>
<rect x="378" y="122.324" width="20" height="9" rx="3" stroke="#1493DF" stroke-width="2"/>
<defs>
<linearGradient id="paint0_linear_439_1906" x1="304" y1="81.3242" x2="405.5" y2="153.824" gradientUnits="userSpaceOnUse">
<stop stop-color="#ACE8FA"/>
<stop offset="1" stop-color="#9CD2F1"/>
</linearGradient>
<linearGradient id="paint1_linear_439_1906" x1="355" y1="73.3242" x2="355" y2="162.324" gradientUnits="userSpaceOnUse">
<stop stop-color="#38C5F2"/>
<stop offset="1" stop-color="#2098DF"/>
</linearGradient>
<linearGradient id="paint2_linear_439_1906" x1="321.5" y1="90.3242" x2="347" y2="131.324" gradientUnits="userSpaceOnUse">
<stop stop-color="#26ADE9"/>
<stop offset="1" stop-color="#0D83D7"/>
</linearGradient>
</defs>
</svg>
