<svg width="1000" height="760" viewBox="0 0 1000 760" fill="none" xmlns="http://www.w3.org/2000/svg">
<mask id="mask0_681_3" style="mask-type:alpha" maskUnits="userSpaceOnUse" x="0" y="0" width="1000" height="760">
<path fill-rule="evenodd" clip-rule="evenodd" d="M754.989 0C761.315 0 766.443 5.12822 766.443 11.4542V748.34C766.443 754.666 761.315 759.794 754.989 759.794H560.268C553.942 759.794 548.814 754.666 548.814 748.34V11.4542C548.814 5.12821 553.942 0 560.268 0H754.989ZM739.717 26.7264C741.826 26.7264 743.535 28.4358 743.535 30.5445V733.068C743.535 735.176 741.826 736.886 739.717 736.886H575.54C573.432 736.886 571.722 735.176 571.722 733.068V30.5445C571.722 28.4358 573.432 26.7264 575.54 26.7264H739.717Z" fill="#FF0000"/>
<path d="M548.813 705.883L207.618 114.916C204.455 109.438 206.332 102.433 211.811 99.2696L380.444 1.90904C385.923 -1.25395 392.928 0.623115 396.091 6.10157L548.813 270.625V316.441L385.797 34.0884C384.743 32.2623 382.408 31.6366 380.581 32.6909L238.4 114.779C236.574 115.834 235.948 118.169 237.003 119.995L548.813 660.067V705.883Z" fill="#FF0000"/>
<path d="M5.72937 388.921L548.279 702.162L525.371 662.484L33.7162 378.627C31.8901 377.572 31.2644 375.237 32.3187 373.411L114.407 231.23C115.461 229.404 117.796 228.778 119.623 229.832L353.558 364.895L330.65 325.217L114.544 200.448C109.066 197.285 102.06 199.162 98.8974 204.641L1.53687 373.274C-1.6261 378.752 0.250916 385.758 5.72937 388.921Z" fill="#FF0000"/>
<path d="M560.256 759.794L18.1039 759.794C11.7779 759.794 6.64972 754.666 6.64972 748.34V553.619C6.64972 547.293 11.7779 542.165 18.1039 542.165L271.156 542.165L310.834 565.073L37.1942 565.073C35.0854 565.073 33.3762 566.782 33.3762 568.891V733.068C33.3762 735.176 35.0854 736.886 37.1942 736.886L548.814 736.886V748.34C548.814 754.662 553.936 759.787 560.256 759.794Z" fill="#FF0000"/>
<circle cx="38.1806" cy="38.1806" r="38.1806" transform="matrix(-1 0 0 1 697.718 610.89)" fill="#FF0000"/>
<circle cx="13.3632" cy="13.3632" r="13.3632" transform="matrix(-1 0 0 1 216.643 710.16)" fill="#FF0000"/>
<circle cx="13.3632" cy="13.3632" r="13.3632" transform="matrix(-1 0 0 1 216.643 660.525)" fill="#FF0000"/>
<circle cx="13.3632" cy="13.3632" r="13.3632" transform="matrix(-1 0 0 1 216.643 614.708)" fill="#FF0000"/>
<circle cx="13.3632" cy="13.3632" r="13.3632" transform="matrix(-1 0 0 1 216.643 565.073)" fill="#FF0000"/>
<circle cx="13.3632" cy="13.3632" r="13.3632" transform="matrix(-0.866025 -0.5 -0.5 0.866025 201.37 444.457)" fill="#FF0000"/>
<circle cx="13.3632" cy="13.3632" r="13.3632" transform="matrix(-0.866025 -0.5 -0.5 0.866025 226.188 401.472)" fill="#FF0000"/>
<circle cx="13.3632" cy="13.3632" r="13.3632" transform="matrix(-0.866025 -0.5 -0.5 0.866025 249.096 361.793)" fill="#FF0000"/>
<circle cx="13.3632" cy="13.3632" r="13.3632" transform="matrix(-0.866025 -0.5 -0.5 0.866025 273.913 318.808)" fill="#FF0000"/>
<circle cx="13.3632" cy="13.3632" r="13.3632" transform="matrix(-0.5 -0.866025 -0.866025 0.5 354.44 267.501)" fill="#FF0000"/>
<circle cx="13.3632" cy="13.3632" r="13.3632" transform="matrix(-0.5 -0.866025 -0.866025 0.5 397.426 242.684)" fill="#FF0000"/>
<circle cx="13.3632" cy="13.3632" r="13.3632" transform="matrix(-0.5 -0.866025 -0.866025 0.5 437.104 219.776)" fill="#FF0000"/>
<circle cx="13.3632" cy="13.3632" r="13.3632" transform="matrix(-0.5 -0.866025 -0.866025 0.5 480.089 194.958)" fill="#FF0000"/>
<circle cx="13.3632" cy="13.3632" r="13.3632" transform="matrix(-0.5 -0.866025 -0.866025 0.5 442.256 416.406)" fill="#FF0000"/>
<circle cx="13.3632" cy="13.3632" r="13.3632" transform="matrix(-0.5 -0.866025 -0.866025 0.5 485.241 391.588)" fill="#FF0000"/>
<circle cx="13.3632" cy="13.3632" r="13.3632" transform="matrix(-0.5 -0.866025 -0.866025 0.5 524.919 368.68)" fill="#FF0000"/>
<circle cx="13.3632" cy="13.3632" r="13.3632" transform="matrix(-0.5 -0.866025 -0.866025 0.5 567.904 343.863)" fill="#FF0000"/>
<circle cx="13.3632" cy="13.3632" r="13.3632" transform="matrix(-0.866025 -0.5 -0.5 0.866025 354.093 532.272)" fill="#FF0000"/>
<circle cx="13.3632" cy="13.3632" r="13.3632" transform="matrix(-0.866025 -0.5 -0.5 0.866025 378.91 489.287)" fill="#FF0000"/>
<circle cx="13.3632" cy="13.3632" r="13.3632" transform="matrix(-0.866025 -0.5 -0.5 0.866025 401.818 449.608)" fill="#FF0000"/>
<circle cx="13.3632" cy="13.3632" r="13.3632" transform="matrix(-1 0 0 1 388.455 710.16)" fill="#FF0000"/>
<circle cx="13.3632" cy="13.3632" r="13.3632" transform="matrix(-1 0 0 1 388.455 660.525)" fill="#FF0000"/>
<circle cx="13.3632" cy="13.3632" r="13.3632" transform="matrix(-1 0 0 1 388.455 614.708)" fill="#FF0000"/>
<path d="M997.646 35.0972C1000.63 38.0793 1000.63 42.9142 997.646 45.8963L765.465 278.077C762.483 281.059 757.648 281.059 754.666 278.077L752.158 275.569V217.63H744.919L957.149 5.39965C960.131 2.41756 964.966 2.41756 967.948 5.39965L997.646 35.0972Z" fill="#FF0000"/>
<path d="M997.763 262.791C1000.75 265.773 1000.75 270.608 997.763 273.59L765.582 505.771C762.6 508.753 757.765 508.753 754.783 505.771L752.158 503.146V439.077H751.283L957.267 233.094C960.249 230.111 965.084 230.111 968.066 233.094L997.763 262.791Z" fill="#FF0000"/>
</mask>
<g mask="url(#mask0_681_3)">
<rect width="1000.45" height="759.883" fill="url(#paint0_linear_681_3)"/>
</g>
<defs>
<linearGradient id="paint0_linear_681_3" x1="500.225" y1="0" x2="500.225" y2="883.985" gradientUnits="userSpaceOnUse">
<stop stop-color="#515B48"/>
<stop offset="0.369152" stop-color="#8B9569"/>
<stop offset="0.720787" stop-color="#A3927F"/>
<stop offset="1" stop-color="#D3D6D7"/>
</linearGradient>
</defs>
</svg>
