<svg width="268" height="84" viewBox="0 0 268 84" fill="none" xmlns="http://www.w3.org/2000/svg">
<rect width="268" height="84" rx="8" fill="#515B48"/>
<path d="M66.184 52V32.26H73.352C75.6107 32.26 77.5147 32.652 79.064 33.436C80.632 34.2013 81.8173 35.3213 82.62 36.796C83.4227 38.252 83.824 40.0253 83.824 42.116C83.824 44.188 83.4227 45.9613 82.62 47.436C81.8173 48.9107 80.632 50.04 79.064 50.824C77.5147 51.608 75.6107 52 73.352 52H66.184ZM69.796 49.004H73.128C75.5173 49.004 77.2907 48.4347 78.448 47.296C79.6053 46.1573 80.184 44.4307 80.184 42.116C80.184 39.7827 79.6053 38.056 78.448 36.936C77.2907 35.7973 75.5173 35.228 73.128 35.228H69.796V49.004ZM93.6161 52.28C92.1601 52.28 90.9001 51.9813 89.8361 51.384C88.7721 50.7867 87.9415 49.9373 87.3441 48.836C86.7655 47.7347 86.4761 46.428 86.4761 44.916C86.4761 43.404 86.7655 42.1067 87.3441 41.024C87.9415 39.9227 88.7721 39.0733 89.8361 38.476C90.9001 37.8787 92.1601 37.58 93.6161 37.58C95.0721 37.58 96.3321 37.8787 97.3961 38.476C98.4788 39.0733 99.3095 39.9227 99.8881 41.024C100.485 42.1067 100.784 43.404 100.784 44.916C100.784 46.428 100.485 47.7347 99.8881 48.836C99.3095 49.9373 98.4788 50.7867 97.3961 51.384C96.3321 51.9813 95.0721 52.28 93.6161 52.28ZM93.6161 49.592C94.7175 49.592 95.5948 49.2093 96.2481 48.444C96.9015 47.66 97.2281 46.484 97.2281 44.916C97.2281 43.348 96.9015 42.1813 96.2481 41.416C95.5948 40.6507 94.7175 40.268 93.6161 40.268C92.5148 40.268 91.6375 40.6507 90.9841 41.416C90.3308 42.1813 90.0041 43.348 90.0041 44.916C90.0041 46.484 90.3308 47.66 90.9841 48.444C91.6375 49.2093 92.5148 49.592 93.6161 49.592ZM107.449 52L101.933 37.86H105.545L109.521 48.864H108.793L112.825 37.86H115.317L119.321 48.864H118.677L122.625 37.86H126.041L120.525 52H117.445L113.217 40.744H114.701L110.557 52H107.449ZM128.248 52V41.388C128.248 40.8093 128.229 40.2213 128.192 39.624C128.154 39.0267 128.098 38.4387 128.024 37.86H131.412L131.692 40.66H131.356C131.804 39.6707 132.466 38.9147 133.344 38.392C134.221 37.8507 135.238 37.58 136.396 37.58C138.057 37.58 139.308 38.0467 140.148 38.98C140.988 39.9133 141.408 41.3693 141.408 43.348V52H137.908V43.516C137.908 42.3773 137.684 41.5653 137.236 41.08C136.806 40.576 136.153 40.324 135.276 40.324C134.193 40.324 133.334 40.66 132.7 41.332C132.065 42.004 131.748 42.9 131.748 44.02V52H128.248ZM145.119 52V31.392H148.619V52H145.119ZM158.804 52.28C157.348 52.28 156.088 51.9813 155.024 51.384C153.96 50.7867 153.129 49.9373 152.532 48.836C151.953 47.7347 151.664 46.428 151.664 44.916C151.664 43.404 151.953 42.1067 152.532 41.024C153.129 39.9227 153.96 39.0733 155.024 38.476C156.088 37.8787 157.348 37.58 158.804 37.58C160.26 37.58 161.52 37.8787 162.584 38.476C163.666 39.0733 164.497 39.9227 165.076 41.024C165.673 42.1067 165.972 43.404 165.972 44.916C165.972 46.428 165.673 47.7347 165.076 48.836C164.497 49.9373 163.666 50.7867 162.584 51.384C161.52 51.9813 160.26 52.28 158.804 52.28ZM158.804 49.592C159.905 49.592 160.782 49.2093 161.436 48.444C162.089 47.66 162.416 46.484 162.416 44.916C162.416 43.348 162.089 42.1813 161.436 41.416C160.782 40.6507 159.905 40.268 158.804 40.268C157.702 40.268 156.825 40.6507 156.172 41.416C155.518 42.1813 155.192 43.348 155.192 44.916C155.192 46.484 155.518 47.66 156.172 48.444C156.825 49.2093 157.702 49.592 158.804 49.592ZM174.45 52.28C173.218 52.28 172.135 51.9907 171.202 51.412C170.269 50.8147 169.541 49.9653 169.018 48.864C168.495 47.7627 168.234 46.4467 168.234 44.916C168.234 43.3853 168.495 42.0787 169.018 40.996C169.541 39.8947 170.269 39.0547 171.202 38.476C172.135 37.8787 173.218 37.58 174.45 37.58C175.645 37.58 176.69 37.8787 177.586 38.476C178.501 39.0547 179.107 39.8387 179.406 40.828H179.098L179.406 37.86H182.766C182.71 38.4387 182.654 39.0267 182.598 39.624C182.561 40.2213 182.542 40.8093 182.542 41.388V52H179.07L179.042 49.088H179.378C179.079 50.0587 178.473 50.8333 177.558 51.412C176.643 51.9907 175.607 52.28 174.45 52.28ZM175.43 49.592C176.531 49.592 177.418 49.2093 178.09 48.444C178.762 47.66 179.098 46.484 179.098 44.916C179.098 43.348 178.762 42.1813 178.09 41.416C177.418 40.6507 176.531 40.268 175.43 40.268C174.329 40.268 173.442 40.6507 172.77 41.416C172.098 42.1813 171.762 43.348 171.762 44.916C171.762 46.484 172.089 47.66 172.742 48.444C173.414 49.2093 174.31 49.592 175.43 49.592ZM191.841 52.28C190.609 52.28 189.517 51.9907 188.565 51.412C187.632 50.8147 186.904 49.9653 186.381 48.864C185.859 47.7627 185.597 46.4467 185.597 44.916C185.597 43.3853 185.859 42.0787 186.381 40.996C186.904 39.8947 187.632 39.0547 188.565 38.476C189.517 37.8787 190.609 37.58 191.841 37.58C193.017 37.58 194.053 37.8693 194.949 38.448C195.864 39.008 196.471 39.7733 196.769 40.744H196.405V31.392H199.905V52H196.461V49.004H196.797C196.499 50.012 195.892 50.8147 194.977 51.412C194.081 51.9907 193.036 52.28 191.841 52.28ZM192.821 49.592C193.923 49.592 194.809 49.2093 195.481 48.444C196.153 47.66 196.489 46.484 196.489 44.916C196.489 43.348 196.153 42.1813 195.481 41.416C194.809 40.6507 193.923 40.268 192.821 40.268C191.72 40.268 190.824 40.6507 190.133 41.416C189.461 42.1813 189.125 43.348 189.125 44.916C189.125 46.484 189.461 47.66 190.133 48.444C190.824 49.2093 191.72 49.592 192.821 49.592Z" fill="#D8D9D9"/>
</svg>
