<svg width="1689" height="181" viewBox="0 0 1689 181" fill="none" xmlns="http://www.w3.org/2000/svg">
<path d="M154.5 180.324H0.5V29.3242H154.5V180.324Z" fill="#FED094" stroke="black"/>
<path d="M154.5 180.324V29.1663L225.5 1.55514V152.484L154.905 180.324H154.5Z" fill="#FED094" stroke="black"/>
<path d="M0.5 29.1645L71.095 1.32422H225.5V1.48218L153.906 29.3242H0.5V29.1645Z" fill="#E49A67" stroke="black"/>
<path d="M71 1.32422V28.3242" stroke="black"/>
<path d="M363.5 180.324H209.5V29.3242H363.5V180.324Z" fill="#FED094" stroke="black"/>
<path d="M363.5 180.324V29.1663L434.5 1.55514V152.484L363.905 180.324H363.5Z" fill="#FED094" stroke="black"/>
<path d="M209.5 29.1645L280.095 1.32422H434.5V1.48218L362.906 29.3242H209.5V29.1645Z" fill="#E49A67" stroke="black"/>
<path d="M280 1.32422V28.3242" stroke="black"/>
<path d="M572.5 180.324H418.5V29.3242H572.5V180.324Z" fill="#FED094" stroke="black"/>
<path d="M572.5 180.324V29.1663L643.5 1.55514V152.484L572.905 180.324H572.5Z" fill="#FED094" stroke="black"/>
<path d="M418.5 29.1645L489.095 1.32422H643.5V1.48218L571.906 29.3242H418.5V29.1645Z" fill="#E49A67" stroke="black"/>
<path d="M489 1.32422V28.3242" stroke="black"/>
<path d="M781.5 180.324H627.5V29.3242H781.5V180.324Z" fill="#FED094" stroke="black"/>
<path d="M781.5 180.324V29.1663L852.5 1.55514V152.484L781.905 180.324H781.5Z" fill="#FED094" stroke="black"/>
<path d="M627.5 29.1645L698.095 1.32422H852.5V1.48218L780.906 29.3242H627.5V29.1645Z" fill="#E49A67" stroke="black"/>
<path d="M698 1.32422V28.3242" stroke="black"/>
<path d="M990.5 180.324H836.5V29.3242H990.5V180.324Z" fill="#FED094" stroke="black"/>
<path d="M990.5 180.324V29.1663L1061.5 1.55514V152.484L990.905 180.324H990.5Z" fill="#FED094" stroke="black"/>
<path d="M836.5 29.1645L907.095 1.32422H1061.5V1.48218L989.906 29.3242H836.5V29.1645Z" fill="#E49A67" stroke="black"/>
<path d="M907 1.32422V28.3242" stroke="black"/>
<path d="M1199.5 180.324H1045.5V29.3242H1199.5V180.324Z" fill="#FED094" stroke="black"/>
<path d="M1199.5 180.324V29.1663L1270.5 1.55514V152.484L1199.9 180.324H1199.5Z" fill="#FED094" stroke="black"/>
<path d="M1045.5 29.1645L1116.1 1.32422H1270.5V1.48218L1198.91 29.3242H1045.5V29.1645Z" fill="#E49A67" stroke="black"/>
<path d="M1116 1.32422V28.3242" stroke="black"/>
<path d="M1408.5 180.324H1254.5V29.3242H1408.5V180.324Z" fill="#FED094" stroke="black"/>
<path d="M1408.5 180.324V29.1663L1479.5 1.55514V152.484L1408.9 180.324H1408.5Z" fill="#FED094" stroke="black"/>
<path d="M1254.5 29.1645L1325.1 1.32422H1479.5V1.48218L1407.91 29.3242H1254.5V29.1645Z" fill="#E49A67" stroke="black"/>
<path d="M1325 1.32422V28.3242" stroke="black"/>
<path d="M1617.5 180.324H1463.5V29.3242H1617.5V180.324Z" fill="#FED094" stroke="black"/>
<path d="M1617.5 180.324V29.1663L1688.5 1.55514V152.484L1617.9 180.324H1617.5Z" fill="#FED094" stroke="black"/>
<path d="M1463.5 29.1645L1534.1 1.32422H1688.5V1.48218L1616.91 29.3242H1463.5V29.1645Z" fill="#E49A67" stroke="black"/>
<path d="M1534 1.32422V28.3242" stroke="black"/>
<mask id="path-33-outside-1_439_983" maskUnits="userSpaceOnUse" x="65" y="85.8242" width="19" height="37" fill="black">
<rect fill="white" x="65" y="85.8242" width="19" height="37"/>
<path d="M82.6 121.824H75.5V99.1242H66.7V93.7742C67.9333 93.8076 69.1167 93.7242 70.25 93.5242C71.4167 93.2909 72.4667 92.9076 73.4 92.3742C74.3333 91.8076 75.1 91.0742 75.7 90.1742C76.3333 89.2742 76.75 88.1576 76.95 86.8242H82.6V121.824Z"/>
</mask>
<path d="M82.6 121.824H75.5V99.1242H66.7V93.7742C67.9333 93.8076 69.1167 93.7242 70.25 93.5242C71.4167 93.2909 72.4667 92.9076 73.4 92.3742C74.3333 91.8076 75.1 91.0742 75.7 90.1742C76.3333 89.2742 76.75 88.1576 76.95 86.8242H82.6V121.824Z" fill="white"/>
<path d="M82.6 121.824V122.824H83.6V121.824H82.6ZM75.5 121.824H74.5V122.824H75.5V121.824ZM75.5 99.1242H76.5V98.1242H75.5V99.1242ZM66.7 99.1242H65.7V100.124H66.7V99.1242ZM66.7 93.7742L66.727 92.7746L65.7 92.7468V93.7742H66.7ZM70.25 93.5242L70.4238 94.509L70.435 94.507L70.4461 94.5048L70.25 93.5242ZM73.4 92.3742L73.8961 93.2425L73.9076 93.2359L73.919 93.229L73.4 92.3742ZM75.7 90.1742L74.8822 89.5987L74.8749 89.609L74.8679 89.6195L75.7 90.1742ZM76.95 86.8242V85.8242H76.0888L75.9611 86.6759L76.95 86.8242ZM82.6 86.8242H83.6V85.8242H82.6V86.8242ZM82.6 120.824H75.5V122.824H82.6V120.824ZM76.5 121.824V99.1242H74.5V121.824H76.5ZM75.5 98.1242H66.7V100.124H75.5V98.1242ZM67.7 99.1242V93.7742H65.7V99.1242H67.7ZM66.673 94.7739C67.9688 94.8089 69.2196 94.7215 70.4238 94.509L70.0762 92.5394C69.0137 92.7269 67.8979 92.8062 66.727 92.7746L66.673 94.7739ZM70.4461 94.5048C71.707 94.2526 72.8601 93.8345 73.8961 93.2425L72.9039 91.506C72.0733 91.9806 71.1263 92.3291 70.0539 92.5436L70.4461 94.5048ZM73.919 93.229C74.9761 92.5872 75.8501 91.7518 76.5321 90.7289L74.8679 89.6195C74.3499 90.3966 73.6905 91.0279 72.881 91.5194L73.919 93.229ZM76.5178 90.7497C77.2585 89.6971 77.721 88.4256 77.9389 86.9726L75.9611 86.6759C75.779 87.8895 75.4082 88.8513 74.8822 89.5987L76.5178 90.7497ZM76.95 87.8242H82.6V85.8242H76.95V87.8242ZM81.6 86.8242V121.824H83.6V86.8242H81.6Z" fill="black" mask="url(#path-33-outside-1_439_983)"/>
<mask id="path-35-outside-2_439_983" maskUnits="userSpaceOnUse" x="272" y="84.8242" width="28" height="38" fill="black">
<rect fill="white" x="272" y="84.8242" width="28" height="38"/>
<path d="M273.85 100.274C273.783 98.2742 274.017 96.4242 274.55 94.7242C275.083 92.9909 275.883 91.4909 276.95 90.2242C278.017 88.9242 279.35 87.9242 280.95 87.2242C282.583 86.4909 284.45 86.1242 286.55 86.1242C288.15 86.1242 289.667 86.3742 291.1 86.8742C292.567 87.3742 293.85 88.0909 294.95 89.0242C296.05 89.9576 296.917 91.1076 297.55 92.4742C298.217 93.8409 298.55 95.3742 298.55 97.0742C298.55 98.3742 298.383 99.5576 298.05 100.624C297.717 101.658 297.267 102.591 296.7 103.424C296.133 104.258 295.467 105.024 294.7 105.724C293.967 106.424 293.167 107.074 292.3 107.674C291.433 108.274 290.533 108.874 289.6 109.474C288.7 110.041 287.8 110.641 286.9 111.274C286.033 111.908 285.183 112.591 284.35 113.324C283.55 114.024 282.833 114.824 282.2 115.724H298.75V121.824H273.05C273.05 119.791 273.333 118.024 273.9 116.524C274.5 115.024 275.3 113.691 276.3 112.524C277.3 111.324 278.467 110.224 279.8 109.224C281.167 108.224 282.6 107.208 284.1 106.174C284.867 105.641 285.683 105.108 286.55 104.574C287.417 104.008 288.2 103.391 288.9 102.724C289.633 102.058 290.233 101.308 290.7 100.474C291.2 99.6409 291.45 98.6909 291.45 97.6242C291.45 95.9576 290.95 94.6409 289.95 93.6742C288.983 92.7076 287.733 92.2242 286.2 92.2242C285.133 92.2242 284.25 92.4742 283.55 92.9742C282.85 93.4742 282.283 94.1076 281.85 94.8742C281.417 95.6409 281.1 96.5076 280.9 97.4742C280.733 98.4076 280.65 99.3409 280.65 100.274H273.85Z"/>
</mask>
<path d="M273.85 100.274C273.783 98.2742 274.017 96.4242 274.55 94.7242C275.083 92.9909 275.883 91.4909 276.95 90.2242C278.017 88.9242 279.35 87.9242 280.95 87.2242C282.583 86.4909 284.45 86.1242 286.55 86.1242C288.15 86.1242 289.667 86.3742 291.1 86.8742C292.567 87.3742 293.85 88.0909 294.95 89.0242C296.05 89.9576 296.917 91.1076 297.55 92.4742C298.217 93.8409 298.55 95.3742 298.55 97.0742C298.55 98.3742 298.383 99.5576 298.05 100.624C297.717 101.658 297.267 102.591 296.7 103.424C296.133 104.258 295.467 105.024 294.7 105.724C293.967 106.424 293.167 107.074 292.3 107.674C291.433 108.274 290.533 108.874 289.6 109.474C288.7 110.041 287.8 110.641 286.9 111.274C286.033 111.908 285.183 112.591 284.35 113.324C283.55 114.024 282.833 114.824 282.2 115.724H298.75V121.824H273.05C273.05 119.791 273.333 118.024 273.9 116.524C274.5 115.024 275.3 113.691 276.3 112.524C277.3 111.324 278.467 110.224 279.8 109.224C281.167 108.224 282.6 107.208 284.1 106.174C284.867 105.641 285.683 105.108 286.55 104.574C287.417 104.008 288.2 103.391 288.9 102.724C289.633 102.058 290.233 101.308 290.7 100.474C291.2 99.6409 291.45 98.6909 291.45 97.6242C291.45 95.9576 290.95 94.6409 289.95 93.6742C288.983 92.7076 287.733 92.2242 286.2 92.2242C285.133 92.2242 284.25 92.4742 283.55 92.9742C282.85 93.4742 282.283 94.1076 281.85 94.8742C281.417 95.6409 281.1 96.5076 280.9 97.4742C280.733 98.4076 280.65 99.3409 280.65 100.274H273.85Z" fill="white"/>
<path d="M273.85 100.274L272.851 100.308L272.883 101.274H273.85V100.274ZM274.55 94.7242L275.504 95.0236L275.506 95.0183L274.55 94.7242ZM276.95 90.2242L277.715 90.8684L277.723 90.8585L276.95 90.2242ZM280.95 87.2242L281.351 88.1404L281.36 88.1365L280.95 87.2242ZM291.1 86.8742L290.771 87.8184L290.777 87.8207L291.1 86.8742ZM294.95 89.0242L295.597 88.2617L294.95 89.0242ZM297.55 92.4742L296.643 92.8947L296.647 92.9037L296.651 92.9126L297.55 92.4742ZM298.05 100.624L299.002 100.931L299.004 100.922L298.05 100.624ZM296.7 103.424L295.873 102.862L295.873 102.862L296.7 103.424ZM294.7 105.724L294.026 104.986L294.018 104.993L294.01 105.001L294.7 105.724ZM289.6 109.474L290.133 110.32L290.141 110.315L289.6 109.474ZM286.9 111.274L286.325 110.456L286.317 110.462L286.31 110.467L286.9 111.274ZM284.35 113.324L285.009 114.077L285.011 114.075L284.35 113.324ZM282.2 115.724L281.382 115.149L280.274 116.724H282.2V115.724ZM298.75 115.724H299.75V114.724H298.75V115.724ZM298.75 121.824V122.824H299.75V121.824H298.75ZM273.05 121.824H272.05V122.824H273.05V121.824ZM273.9 116.524L272.972 116.153L272.968 116.162L272.965 116.171L273.9 116.524ZM276.3 112.524L277.059 113.175L277.068 113.164L276.3 112.524ZM279.8 109.224L279.209 108.417L279.2 108.424L279.8 109.224ZM284.1 106.174L284.667 106.998L284.671 106.995L284.1 106.174ZM286.55 104.574L287.074 105.426L287.086 105.419L287.097 105.411L286.55 104.574ZM288.9 102.724L288.227 101.984L288.219 101.992L288.21 102L288.9 102.724ZM290.7 100.474L289.843 99.9597L289.835 99.9726L289.827 99.9856L290.7 100.474ZM289.95 93.6742L289.243 94.3813L289.249 94.3873L289.255 94.3932L289.95 93.6742ZM280.9 97.4742L279.921 97.2716L279.918 97.285L279.916 97.2984L280.9 97.4742ZM280.65 100.274V101.274H281.65V100.274H280.65ZM274.849 100.241C274.786 98.3398 275.008 96.6036 275.504 95.0236L273.596 94.4249C273.025 96.2448 272.781 98.2086 272.851 100.308L274.849 100.241ZM275.506 95.0183C276.003 93.401 276.743 92.0229 277.715 90.8684L276.185 89.5801C275.024 90.9588 274.163 92.5808 273.594 94.4301L275.506 95.0183ZM277.723 90.8585C278.686 89.6853 279.89 88.7796 281.351 88.1404L280.549 86.3081C278.81 87.0688 277.348 88.1631 276.177 89.5899L277.723 90.8585ZM281.36 88.1365C282.844 87.4701 284.567 87.1242 286.55 87.1242V85.1242C284.333 85.1242 282.323 85.5116 280.54 86.3119L281.36 88.1365ZM286.55 87.1242C288.044 87.1242 289.449 87.3573 290.771 87.8184L291.429 85.93C289.885 85.3911 288.256 85.1242 286.55 85.1242V87.1242ZM290.777 87.8207C292.134 88.2833 293.306 88.9404 294.303 89.7867L295.597 88.2617C294.394 87.2414 292.999 86.4651 291.423 85.9277L290.777 87.8207ZM294.303 89.7867C295.288 90.6221 296.068 91.6536 296.643 92.8947L298.457 92.0538C297.766 90.5615 296.812 89.293 295.597 88.2617L294.303 89.7867ZM296.651 92.9126C297.244 94.1274 297.55 95.5081 297.55 97.0742H299.55C299.55 95.2404 299.19 93.5544 298.449 92.0358L296.651 92.9126ZM297.55 97.0742C297.55 98.2892 297.394 99.3701 297.096 100.326L299.004 100.922C299.372 99.745 299.55 98.4593 299.55 97.0742H297.55ZM297.098 100.317C296.792 101.267 296.382 102.113 295.873 102.862L297.527 103.987C298.151 103.069 298.641 102.048 299.002 100.931L297.098 100.317ZM295.873 102.862C295.352 103.629 294.737 104.337 294.026 104.986L295.374 106.463C296.197 105.712 296.915 104.886 297.527 103.987L295.873 102.862ZM294.01 105.001C293.315 105.663 292.556 106.281 291.731 106.852L292.869 108.496C293.777 107.868 294.618 107.185 295.39 106.448L294.01 105.001ZM291.731 106.852C290.874 107.445 289.983 108.039 289.059 108.633L290.141 110.315C291.083 109.71 291.993 109.103 292.869 108.496L291.731 106.852ZM289.067 108.628C288.152 109.204 287.238 109.814 286.325 110.456L287.475 112.092C288.362 111.468 289.248 110.878 290.133 110.32L289.067 108.628ZM286.31 110.467C285.418 111.119 284.545 111.821 283.689 112.574L285.011 114.075C285.822 113.361 286.649 112.697 287.49 112.082L286.31 110.467ZM283.691 112.572C282.829 113.326 282.06 114.186 281.382 115.149L283.018 116.3C283.607 115.463 284.271 114.723 285.009 114.077L283.691 112.572ZM282.2 116.724H298.75V114.724H282.2V116.724ZM297.75 115.724V121.824H299.75V115.724H297.75ZM298.75 120.824H273.05V122.824H298.75V120.824ZM274.05 121.824C274.05 119.881 274.321 118.239 274.835 116.878L272.965 116.171C272.345 117.809 272.05 119.701 272.05 121.824H274.05ZM274.828 116.896C275.39 115.492 276.134 114.254 277.059 113.175L275.541 111.873C274.466 113.128 273.61 114.556 272.972 116.153L274.828 116.896ZM277.068 113.164C278.015 112.028 279.125 110.981 280.4 110.024L279.2 108.424C277.809 109.468 276.585 110.621 275.532 111.884L277.068 113.164ZM280.391 110.031C281.749 109.037 283.175 108.026 284.667 106.998L283.533 105.351C282.025 106.389 280.584 107.411 279.209 108.417L280.391 110.031ZM284.671 106.995C285.421 106.473 286.222 105.95 287.074 105.426L286.026 103.723C285.145 104.265 284.312 104.808 283.529 105.353L284.671 106.995ZM287.097 105.411C288.011 104.814 288.843 104.16 289.59 103.448L288.21 102C287.557 102.622 286.822 103.201 286.003 103.737L287.097 105.411ZM289.573 103.464C290.383 102.728 291.051 101.894 291.573 100.963L289.827 99.9856C289.415 100.721 288.884 101.387 288.227 101.984L289.573 103.464ZM291.557 100.989C292.16 99.985 292.45 98.8539 292.45 97.6242H290.45C290.45 98.5279 290.24 99.2967 289.843 99.9597L291.557 100.989ZM292.45 97.6242C292.45 95.7443 291.878 94.1471 290.645 92.9552L289.255 94.3932C290.022 95.1347 290.45 96.1708 290.45 97.6242H292.45ZM290.657 92.9671C289.479 91.7894 287.963 91.2242 286.2 91.2242V93.2242C287.503 93.2242 288.487 93.6257 289.243 94.3813L290.657 92.9671ZM286.2 91.2242C284.976 91.2242 283.875 91.5129 282.969 92.1605L284.131 93.788C284.625 93.4355 285.291 93.2242 286.2 93.2242V91.2242ZM282.969 92.1605C282.147 92.7474 281.483 93.4915 280.979 94.3822L282.721 95.3663C283.084 94.7236 283.553 94.2011 284.131 93.788L282.969 92.1605ZM280.979 94.3822C280.489 95.2493 280.139 96.2155 279.921 97.2716L281.879 97.6768C282.061 96.7996 282.344 96.0325 282.721 95.3663L280.979 94.3822ZM279.916 97.2984C279.739 98.2889 279.65 99.281 279.65 100.274H281.65C281.65 99.4008 281.728 98.5262 281.884 97.65L279.916 97.2984ZM280.65 99.2742H273.85V101.274H280.65V99.2742Z" fill="black" mask="url(#path-35-outside-2_439_983)"/>
<mask id="path-37-outside-3_439_983" maskUnits="userSpaceOnUse" x="480" y="84.8242" width="29" height="39" fill="black">
<rect fill="white" x="480" y="84.8242" width="29" height="39"/>
<path d="M492.4 100.974C493.167 101.041 493.983 101.041 494.85 100.974C495.717 100.908 496.517 100.724 497.25 100.424C498.017 100.091 498.633 99.6242 499.1 99.0242C499.6 98.4242 499.85 97.6242 499.85 96.6242C499.85 95.1242 499.35 93.9742 498.35 93.1742C497.35 92.3742 496.2 91.9742 494.9 91.9742C493.1 91.9742 491.733 92.5742 490.8 93.7742C489.9 94.9409 489.467 96.4242 489.5 98.2242H482.75C482.817 96.4242 483.133 94.7909 483.7 93.3242C484.3 91.8242 485.117 90.5409 486.15 89.4742C487.217 88.4076 488.483 87.5909 489.95 87.0242C491.417 86.4242 493.05 86.1242 494.85 86.1242C496.25 86.1242 497.65 86.3409 499.05 86.7742C500.45 87.1742 501.7 87.7909 502.8 88.6242C503.933 89.4575 504.85 90.4742 505.55 91.6742C506.25 92.8742 506.6 94.2576 506.6 95.8242C506.6 97.4909 506.183 98.9909 505.35 100.324C504.55 101.624 503.333 102.508 501.7 102.974V103.074C503.633 103.508 505.15 104.458 506.25 105.924C507.35 107.358 507.9 109.058 507.9 111.024C507.9 112.858 507.533 114.491 506.8 115.924C506.1 117.358 505.15 118.558 503.95 119.524C502.75 120.491 501.367 121.241 499.8 121.774C498.233 122.274 496.6 122.524 494.9 122.524C492.933 122.524 491.133 122.241 489.5 121.674C487.9 121.108 486.533 120.274 485.4 119.174C484.267 118.074 483.383 116.741 482.75 115.174C482.15 113.574 481.867 111.774 481.9 109.774H488.65C488.683 110.741 488.833 111.641 489.1 112.474C489.367 113.308 489.75 114.041 490.25 114.674C490.75 115.274 491.367 115.758 492.1 116.124C492.867 116.491 493.767 116.674 494.8 116.674C496.4 116.674 497.75 116.174 498.85 115.174C499.95 114.174 500.5 112.841 500.5 111.174C500.5 109.841 500.233 108.824 499.7 108.124C499.2 107.424 498.55 106.924 497.75 106.624C496.95 106.291 496.067 106.108 495.1 106.074C494.167 106.008 493.267 105.974 492.4 105.974V100.974Z"/>
</mask>
<path d="M492.4 100.974C493.167 101.041 493.983 101.041 494.85 100.974C495.717 100.908 496.517 100.724 497.25 100.424C498.017 100.091 498.633 99.6242 499.1 99.0242C499.6 98.4242 499.85 97.6242 499.85 96.6242C499.85 95.1242 499.35 93.9742 498.35 93.1742C497.35 92.3742 496.2 91.9742 494.9 91.9742C493.1 91.9742 491.733 92.5742 490.8 93.7742C489.9 94.9409 489.467 96.4242 489.5 98.2242H482.75C482.817 96.4242 483.133 94.7909 483.7 93.3242C484.3 91.8242 485.117 90.5409 486.15 89.4742C487.217 88.4076 488.483 87.5909 489.95 87.0242C491.417 86.4242 493.05 86.1242 494.85 86.1242C496.25 86.1242 497.65 86.3409 499.05 86.7742C500.45 87.1742 501.7 87.7909 502.8 88.6242C503.933 89.4575 504.85 90.4742 505.55 91.6742C506.25 92.8742 506.6 94.2576 506.6 95.8242C506.6 97.4909 506.183 98.9909 505.35 100.324C504.55 101.624 503.333 102.508 501.7 102.974V103.074C503.633 103.508 505.15 104.458 506.25 105.924C507.35 107.358 507.9 109.058 507.9 111.024C507.9 112.858 507.533 114.491 506.8 115.924C506.1 117.358 505.15 118.558 503.95 119.524C502.75 120.491 501.367 121.241 499.8 121.774C498.233 122.274 496.6 122.524 494.9 122.524C492.933 122.524 491.133 122.241 489.5 121.674C487.9 121.108 486.533 120.274 485.4 119.174C484.267 118.074 483.383 116.741 482.75 115.174C482.15 113.574 481.867 111.774 481.9 109.774H488.65C488.683 110.741 488.833 111.641 489.1 112.474C489.367 113.308 489.75 114.041 490.25 114.674C490.75 115.274 491.367 115.758 492.1 116.124C492.867 116.491 493.767 116.674 494.8 116.674C496.4 116.674 497.75 116.174 498.85 115.174C499.95 114.174 500.5 112.841 500.5 111.174C500.5 109.841 500.233 108.824 499.7 108.124C499.2 107.424 498.55 106.924 497.75 106.624C496.95 106.291 496.067 106.108 495.1 106.074C494.167 106.008 493.267 105.974 492.4 105.974V100.974Z" fill="white"/>
<path d="M492.4 100.974L492.487 99.978L491.4 99.8835V100.974H492.4ZM497.25 100.424L497.629 101.35L497.639 101.346L497.649 101.341L497.25 100.424ZM499.1 99.0242L498.332 98.384L498.321 98.397L498.311 98.4103L499.1 99.0242ZM490.8 93.7742L490.011 93.1603L490.008 93.1634L490.8 93.7742ZM489.5 98.2242V99.2242H490.519L490.5 98.2057L489.5 98.2242ZM482.75 98.2242L481.751 98.1872L481.712 99.2242H482.75V98.2242ZM483.7 93.3242L482.771 92.9528L482.767 92.9638L483.7 93.3242ZM486.15 89.4742L485.443 88.7671L485.437 88.7727L485.432 88.7784L486.15 89.4742ZM489.95 87.0242L490.31 87.957L490.32 87.9535L490.329 87.9498L489.95 87.0242ZM499.05 86.7742L498.754 87.7295L498.765 87.7327L498.775 87.7357L499.05 86.7742ZM502.8 88.6242L502.196 89.4213L502.202 89.4256L502.208 89.4299L502.8 88.6242ZM505.35 100.324L504.502 99.7942L504.498 99.8001L505.35 100.324ZM501.7 102.974L501.425 102.013L500.7 102.22V102.974H501.7ZM501.7 103.074H500.7V103.875L501.481 104.05L501.7 103.074ZM506.25 105.924L505.45 106.524L505.457 106.533L506.25 105.924ZM506.8 115.924L505.91 115.469L505.906 115.477L505.901 115.485L506.8 115.924ZM503.95 119.524L503.323 118.745L503.95 119.524ZM499.8 121.774L500.104 122.727L500.113 122.724L500.122 122.721L499.8 121.774ZM489.5 121.674L489.166 122.617L489.172 122.619L489.5 121.674ZM485.4 119.174L486.096 118.457L485.4 119.174ZM482.75 115.174L481.814 115.525L481.818 115.537L481.823 115.549L482.75 115.174ZM481.9 109.774V108.774H480.917L480.9 109.758L481.9 109.774ZM488.65 109.774L489.649 109.74L489.616 108.774H488.65V109.774ZM489.1 112.474L488.148 112.779L489.1 112.474ZM490.25 114.674L489.465 115.294L489.473 115.304L489.482 115.314L490.25 114.674ZM492.1 116.124L491.653 117.019L491.661 117.023L491.669 117.026L492.1 116.124ZM498.85 115.174L499.523 115.914V115.914L498.85 115.174ZM499.7 108.124L498.886 108.705L498.895 108.718L498.905 108.73L499.7 108.124ZM497.75 106.624L497.365 107.547L497.382 107.554L497.399 107.561L497.75 106.624ZM495.1 106.074L495.029 107.072L495.047 107.073L495.066 107.074L495.1 106.074ZM492.4 105.974H491.4V106.974H492.4V105.974ZM492.313 101.97C493.141 102.042 494.013 102.042 494.927 101.971L494.773 99.9772C493.954 100.04 493.193 100.039 492.487 99.978L492.313 101.97ZM494.927 101.971C495.887 101.897 496.79 101.693 497.629 101.35L496.871 99.4987C496.243 99.7556 495.546 99.9177 494.773 99.9772L494.927 101.971ZM497.649 101.341C498.553 100.948 499.31 100.383 499.889 99.6382L498.311 98.4103C497.957 98.8653 497.48 99.2338 496.851 99.5071L497.649 101.341ZM499.868 99.6644C500.556 98.8392 500.85 97.7912 500.85 96.6242H498.85C498.85 97.4572 498.644 98.0092 498.332 98.384L499.868 99.6644ZM500.85 96.6242C500.85 94.8787 500.254 93.4168 498.975 92.3933L497.725 93.9551C498.446 94.5317 498.85 95.3697 498.85 96.6242H500.85ZM498.975 92.3933C497.794 91.4492 496.423 90.9742 494.9 90.9742V92.9742C495.977 92.9742 496.906 93.2993 497.725 93.9551L498.975 92.3933ZM494.9 90.9742C492.855 90.9742 491.169 91.6705 490.011 93.1603L491.589 94.3882C492.297 93.478 493.345 92.9742 494.9 92.9742V90.9742ZM490.008 93.1634C488.941 94.5474 488.464 96.2674 488.5 98.2427L490.5 98.2057C490.47 96.581 490.859 95.3344 491.592 94.385L490.008 93.1634ZM489.5 97.2242H482.75V99.2242H489.5V97.2242ZM483.749 98.2612C483.812 96.5561 484.111 95.0341 484.633 93.6846L482.767 92.9638C482.155 94.5477 481.821 96.2923 481.751 98.1872L483.749 98.2612ZM484.628 93.6956C485.184 92.3057 485.933 91.1353 486.868 90.17L485.432 88.7784C484.3 89.9464 483.416 91.3427 482.772 92.9528L484.628 93.6956ZM486.857 90.1813C487.821 89.2174 488.968 88.4756 490.31 87.957L489.59 86.0914C487.999 86.7062 486.612 87.5977 485.443 88.7671L486.857 90.1813ZM490.329 87.9498C491.66 87.4052 493.162 87.1242 494.85 87.1242V85.1242C492.938 85.1242 491.173 85.4433 489.571 86.0987L490.329 87.9498ZM494.85 87.1242C496.145 87.1242 497.446 87.3244 498.754 87.7295L499.346 85.8189C497.854 85.3574 496.355 85.1242 494.85 85.1242V87.1242ZM498.775 87.7357C500.063 88.1037 501.2 88.6667 502.196 89.4213L503.404 87.8271C502.2 86.915 500.837 86.2448 499.325 85.8127L498.775 87.7357ZM502.208 89.4299C503.232 90.1833 504.056 91.0977 504.686 92.1781L506.414 91.1703C505.644 89.8507 504.634 88.7318 503.392 87.8186L502.208 89.4299ZM504.686 92.1781C505.286 93.2064 505.6 94.4115 505.6 95.8242H507.6C507.6 94.1036 507.214 92.5421 506.414 91.1703L504.686 92.1781ZM505.6 95.8242C505.6 97.3152 505.23 98.6295 504.502 99.7942L506.198 100.854C507.137 99.3523 507.6 97.6665 507.6 95.8242H505.6ZM504.498 99.8001C503.844 100.863 502.848 101.606 501.425 102.013L501.975 103.936C503.819 103.409 505.256 102.386 506.202 100.848L504.498 99.8001ZM500.7 102.974V103.074H502.7V102.974H500.7ZM501.481 104.05C503.203 104.436 504.505 105.264 505.45 106.524L507.05 105.324C505.795 103.651 504.064 102.579 501.919 102.098L501.481 104.05ZM505.457 106.533C506.411 107.776 506.9 109.257 506.9 111.024H508.9C508.9 108.858 508.289 106.939 507.043 105.315L505.457 106.533ZM506.9 111.024C506.9 112.721 506.562 114.195 505.91 115.469L507.69 116.38C508.505 114.787 508.9 112.994 508.9 111.024H506.9ZM505.901 115.485C505.263 116.792 504.404 117.874 503.323 118.745L504.577 120.303C505.896 119.241 506.937 117.923 507.699 116.363L505.901 115.485ZM503.323 118.745C502.22 119.633 500.942 120.329 499.478 120.828L500.122 122.721C501.791 122.153 503.28 121.348 504.577 120.303L503.323 118.745ZM499.496 120.822C498.031 121.289 496.5 121.524 494.9 121.524V123.524C496.7 123.524 498.436 123.259 500.104 122.727L499.496 120.822ZM494.9 121.524C493.03 121.524 491.342 121.255 489.828 120.729L489.172 122.619C490.924 123.227 492.837 123.524 494.9 123.524V121.524ZM489.834 120.732C488.359 120.209 487.119 119.449 486.096 118.457L484.704 119.892C485.948 121.099 487.441 122.006 489.166 122.617L489.834 120.732ZM486.096 118.457C485.07 117.46 484.262 116.246 483.677 114.799L481.823 115.549C482.505 117.236 483.463 118.688 484.704 119.892L486.096 118.457ZM483.686 114.823C483.137 113.359 482.868 111.686 482.9 109.791L480.9 109.758C480.865 111.862 481.163 113.79 481.814 115.525L483.686 114.823ZM481.9 110.774H488.65V108.774H481.9V110.774ZM487.651 109.809C487.687 110.858 487.85 111.849 488.148 112.779L490.052 112.169C489.817 111.432 489.68 110.624 489.649 109.74L487.651 109.809ZM488.148 112.779C488.448 113.717 488.885 114.559 489.465 115.294L491.035 114.055C490.615 113.523 490.286 112.898 490.052 112.169L488.148 112.779ZM489.482 115.314C490.074 116.026 490.802 116.593 491.653 117.019L492.547 115.23C491.931 114.922 491.426 114.523 491.018 114.034L489.482 115.314ZM491.669 117.026C492.596 117.47 493.649 117.674 494.8 117.674V115.674C493.884 115.674 493.137 115.512 492.531 115.222L491.669 117.026ZM494.8 117.674C496.628 117.674 498.224 117.095 499.523 115.914L498.177 114.434C497.276 115.254 496.172 115.674 494.8 115.674V117.674ZM499.523 115.914C500.858 114.701 501.5 113.085 501.5 111.174H499.5C499.5 112.597 499.042 113.648 498.177 114.434L499.523 115.914ZM501.5 111.174C501.5 109.729 501.214 108.462 500.495 107.518L498.905 108.73C499.252 109.187 499.5 109.953 499.5 111.174H501.5ZM500.514 107.543C499.899 106.682 499.089 106.058 498.101 105.688L497.399 107.561C498.011 107.79 498.501 108.166 498.886 108.705L500.514 107.543ZM498.135 105.701C497.211 105.316 496.208 105.112 495.134 105.075L495.066 107.074C495.926 107.103 496.689 107.265 497.365 107.547L498.135 105.701ZM495.171 105.077C494.216 105.009 493.292 104.974 492.4 104.974V106.974C493.241 106.974 494.117 107.007 495.029 107.072L495.171 105.077ZM493.4 105.974V100.974H491.4V105.974H493.4Z" fill="black" mask="url(#path-37-outside-3_439_983)"/>
<mask id="path-39-outside-4_439_983" maskUnits="userSpaceOnUse" x="689" y="85.8242" width="29" height="37" fill="black">
<rect fill="white" x="689" y="85.8242" width="29" height="37"/>
<path d="M705.6 113.724H690.8V107.224L706 86.8242H712.35V107.874H717V113.724H712.35V121.824H705.6V113.724ZM705.6 95.7242H705.45L696.4 107.874H705.6V95.7242Z"/>
</mask>
<path d="M705.6 113.724H690.8V107.224L706 86.8242H712.35V107.874H717V113.724H712.35V121.824H705.6V113.724ZM705.6 95.7242H705.45L696.4 107.874H705.6V95.7242Z" fill="white"/>
<path d="M705.6 113.724H706.6V112.724H705.6V113.724ZM690.8 113.724H689.8V114.724H690.8V113.724ZM690.8 107.224L689.998 106.627L689.8 106.893V107.224H690.8ZM706 86.8242V85.8242H705.498L705.198 86.2267L706 86.8242ZM712.35 86.8242H713.35V85.8242H712.35V86.8242ZM712.35 107.874H711.35V108.874H712.35V107.874ZM717 107.874H718V106.874H717V107.874ZM717 113.724V114.724H718V113.724H717ZM712.35 113.724V112.724H711.35V113.724H712.35ZM712.35 121.824V122.824H713.35V121.824H712.35ZM705.6 121.824H704.6V122.824H705.6V121.824ZM705.6 95.7242H706.6V94.7242H705.6V95.7242ZM705.45 95.7242V94.7242H704.948L704.648 95.1269L705.45 95.7242ZM696.4 107.874L695.598 107.277L694.408 108.874H696.4V107.874ZM705.6 107.874V108.874H706.6V107.874H705.6ZM705.6 112.724H690.8V114.724H705.6V112.724ZM691.8 113.724V107.224H689.8V113.724H691.8ZM691.602 107.822L706.802 87.4217L705.198 86.2267L689.998 106.627L691.602 107.822ZM706 87.8242H712.35V85.8242H706V87.8242ZM711.35 86.8242V107.874H713.35V86.8242H711.35ZM712.35 108.874H717V106.874H712.35V108.874ZM716 107.874V113.724H718V107.874H716ZM717 112.724H712.35V114.724H717V112.724ZM711.35 113.724V121.824H713.35V113.724H711.35ZM712.35 120.824H705.6V122.824H712.35V120.824ZM706.6 121.824V113.724H704.6V121.824H706.6ZM705.6 94.7242H705.45V96.7242H705.6V94.7242ZM704.648 95.1269L695.598 107.277L697.202 108.472L706.252 96.3216L704.648 95.1269ZM696.4 108.874H705.6V106.874H696.4V108.874ZM706.6 107.874V95.7242H704.6V107.874H706.6Z" fill="black" mask="url(#path-39-outside-4_439_983)"/>
<mask id="path-41-outside-5_439_983" maskUnits="userSpaceOnUse" x="898" y="85.8242" width="29" height="38" fill="black">
<rect fill="white" x="898" y="85.8242" width="29" height="38"/>
<path d="M924 92.6742H909.55L908.15 100.624L908.25 100.724C909.217 99.7576 910.25 99.0742 911.35 98.6742C912.45 98.2409 913.7 98.0242 915.1 98.0242C916.833 98.0242 918.367 98.3409 919.7 98.9742C921.033 99.6076 922.15 100.458 923.05 101.524C923.983 102.591 924.683 103.858 925.15 105.324C925.65 106.758 925.9 108.291 925.9 109.924C925.9 111.724 925.55 113.408 924.85 114.974C924.15 116.508 923.2 117.841 922 118.974C920.833 120.108 919.467 120.991 917.9 121.624C916.333 122.258 914.667 122.558 912.9 122.524C911.2 122.524 909.567 122.291 908 121.824C906.467 121.358 905.1 120.658 903.9 119.724C902.7 118.791 901.733 117.641 901 116.274C900.3 114.874 899.933 113.258 899.9 111.424H907C907.167 112.991 907.767 114.258 908.8 115.224C909.867 116.191 911.183 116.674 912.75 116.674C913.683 116.674 914.517 116.491 915.25 116.124C915.983 115.758 916.617 115.258 917.15 114.624C917.683 113.991 918.083 113.274 918.35 112.474C918.65 111.641 918.8 110.791 918.8 109.924C918.8 109.024 918.667 108.174 918.4 107.374C918.133 106.574 917.733 105.874 917.2 105.274C916.667 104.674 916.017 104.208 915.25 103.874C914.517 103.541 913.683 103.374 912.75 103.374C911.483 103.374 910.45 103.608 909.65 104.074C908.85 104.508 908.1 105.208 907.4 106.174H901L904.45 86.8242H924V92.6742Z"/>
</mask>
<path d="M924 92.6742H909.55L908.15 100.624L908.25 100.724C909.217 99.7576 910.25 99.0742 911.35 98.6742C912.45 98.2409 913.7 98.0242 915.1 98.0242C916.833 98.0242 918.367 98.3409 919.7 98.9742C921.033 99.6076 922.15 100.458 923.05 101.524C923.983 102.591 924.683 103.858 925.15 105.324C925.65 106.758 925.9 108.291 925.9 109.924C925.9 111.724 925.55 113.408 924.85 114.974C924.15 116.508 923.2 117.841 922 118.974C920.833 120.108 919.467 120.991 917.9 121.624C916.333 122.258 914.667 122.558 912.9 122.524C911.2 122.524 909.567 122.291 908 121.824C906.467 121.358 905.1 120.658 903.9 119.724C902.7 118.791 901.733 117.641 901 116.274C900.3 114.874 899.933 113.258 899.9 111.424H907C907.167 112.991 907.767 114.258 908.8 115.224C909.867 116.191 911.183 116.674 912.75 116.674C913.683 116.674 914.517 116.491 915.25 116.124C915.983 115.758 916.617 115.258 917.15 114.624C917.683 113.991 918.083 113.274 918.35 112.474C918.65 111.641 918.8 110.791 918.8 109.924C918.8 109.024 918.667 108.174 918.4 107.374C918.133 106.574 917.733 105.874 917.2 105.274C916.667 104.674 916.017 104.208 915.25 103.874C914.517 103.541 913.683 103.374 912.75 103.374C911.483 103.374 910.45 103.608 909.65 104.074C908.85 104.508 908.1 105.208 907.4 106.174H901L904.45 86.8242H924V92.6742Z" fill="white"/>
<path d="M924 92.6742V93.6742H925V92.6742H924ZM909.55 92.6742V91.6742H908.711L908.565 92.5008L909.55 92.6742ZM908.15 100.624L907.165 100.451L907.075 100.963L907.443 101.331L908.15 100.624ZM908.25 100.724L907.543 101.431L908.25 102.138L908.957 101.431L908.25 100.724ZM911.35 98.6742L911.692 99.614L911.704 99.6095L911.717 99.6046L911.35 98.6742ZM919.7 98.9742L920.129 98.0709L919.7 98.9742ZM923.05 101.524L922.286 102.169L922.292 102.176L922.297 102.183L923.05 101.524ZM925.15 105.324L924.197 105.627L924.201 105.641L924.206 105.654L925.15 105.324ZM924.85 114.974L925.76 115.39L925.763 115.382L924.85 114.974ZM922 118.974L921.313 118.247L921.303 118.257L922 118.974ZM917.9 121.624L918.275 122.551L917.9 121.624ZM912.9 122.524L912.919 121.524L912.909 121.524H912.9V122.524ZM908 121.824L907.709 122.781L907.715 122.783L908 121.824ZM903.9 119.724L904.514 118.935L903.9 119.724ZM901 116.274L900.106 116.721L900.112 116.734L900.119 116.747L901 116.274ZM899.9 111.424V110.424H898.882L898.9 111.442L899.9 111.424ZM907 111.424L907.994 111.318L907.899 110.424H907V111.424ZM908.8 115.224L908.117 115.954L908.123 115.96L908.128 115.965L908.8 115.224ZM915.25 116.124L915.697 117.019L915.25 116.124ZM917.15 114.624L916.385 113.98V113.98L917.15 114.624ZM918.35 112.474L917.409 112.135L917.405 112.147L917.401 112.158L918.35 112.474ZM918.4 107.374L917.451 107.69V107.69L918.4 107.374ZM917.2 105.274L917.947 104.61L917.2 105.274ZM915.25 103.874L914.836 104.785L914.844 104.788L914.851 104.791L915.25 103.874ZM909.65 104.074L910.126 104.954L910.14 104.946L910.154 104.938L909.65 104.074ZM907.4 106.174V107.174H907.911L908.21 106.761L907.4 106.174ZM901 106.174L900.016 105.999L899.806 107.174H901V106.174ZM904.45 86.8242V85.8242H903.613L903.466 86.6487L904.45 86.8242ZM924 86.8242H925V85.8242H924V86.8242ZM924 91.6742H909.55V93.6742H924V91.6742ZM908.565 92.5008L907.165 100.451L909.135 100.798L910.535 92.8477L908.565 92.5008ZM907.443 101.331L907.543 101.431L908.957 100.017L908.857 99.9171L907.443 101.331ZM908.957 101.431C909.838 100.551 910.75 99.9564 911.692 99.614L911.008 97.7344C909.75 98.1921 908.596 98.9644 907.543 100.017L908.957 101.431ZM911.717 99.6046C912.68 99.2249 913.803 99.0242 915.1 99.0242V97.0242C913.597 97.0242 912.22 97.2569 910.983 97.7438L911.717 99.6046ZM915.1 99.0242C916.711 99.0242 918.093 99.318 919.271 99.8775L920.129 98.0709C918.64 97.3638 916.956 97.0242 915.1 97.0242V99.0242ZM919.271 99.8775C920.483 100.453 921.483 101.218 922.286 102.169L923.814 100.879C922.817 99.6974 921.584 98.7619 920.129 98.0709L919.271 99.8775ZM922.297 102.183C923.133 103.137 923.768 104.28 924.197 105.627L926.103 105.021C925.598 103.435 924.834 102.044 923.803 100.866L922.297 102.183ZM924.206 105.654C924.666 106.973 924.9 108.394 924.9 109.924H926.9C926.9 108.187 926.634 106.542 926.094 104.995L924.206 105.654ZM924.9 109.924C924.9 111.591 924.577 113.134 923.937 114.566L925.763 115.382C926.523 113.681 926.9 111.858 926.9 109.924H924.9ZM923.94 114.559C923.293 115.977 922.418 117.204 921.313 118.247L922.687 119.701C923.982 118.477 925.007 117.038 925.76 115.39L923.94 114.559ZM921.303 118.257C920.233 119.297 918.977 120.11 917.525 120.697L918.275 122.551C919.957 121.871 921.434 120.918 922.697 119.691L921.303 118.257ZM917.525 120.697C916.089 121.278 914.557 121.555 912.919 121.524L912.881 123.524C914.776 123.56 916.577 123.237 918.275 122.551L917.525 120.697ZM912.9 121.524C911.293 121.524 909.756 121.304 908.285 120.866L907.715 122.783C909.377 123.278 911.107 123.524 912.9 123.524V121.524ZM908.291 120.868C906.868 120.435 905.612 119.789 904.514 118.935L903.286 120.514C904.588 121.526 906.065 122.281 907.709 122.781L908.291 120.868ZM904.514 118.935C903.426 118.089 902.55 117.048 901.881 115.801L900.119 116.747C900.917 118.234 901.974 119.493 903.286 120.514L904.514 118.935ZM901.894 115.827C901.272 114.581 900.931 113.116 900.9 111.406L898.9 111.442C898.936 113.399 899.328 115.167 900.106 116.721L901.894 115.827ZM899.9 112.424H907V110.424H899.9V112.424ZM906.006 111.53C906.195 113.306 906.888 114.805 908.117 115.954L909.483 114.494C908.645 113.71 908.139 112.675 907.994 111.318L906.006 111.53ZM908.128 115.965C909.396 117.114 910.959 117.674 912.75 117.674V115.674C911.408 115.674 910.337 115.268 909.472 114.483L908.128 115.965ZM912.75 117.674C913.817 117.674 914.807 117.464 915.697 117.019L914.803 115.23C914.226 115.518 913.55 115.674 912.75 115.674V117.674ZM915.697 117.019C916.554 116.59 917.295 116.005 917.915 115.268L916.385 113.98C915.939 114.51 915.413 114.925 914.803 115.23L915.697 117.019ZM917.915 115.268C918.531 114.537 918.993 113.708 919.299 112.79L917.401 112.158C917.174 112.84 916.835 113.445 916.385 113.98L917.915 115.268ZM919.291 112.813C919.629 111.873 919.8 110.909 919.8 109.924H917.8C917.8 110.673 917.671 111.408 917.409 112.135L919.291 112.813ZM919.8 109.924C919.8 108.924 919.652 107.967 919.349 107.058L917.451 107.69C917.682 108.382 917.8 109.124 917.8 109.924H919.8ZM919.349 107.058C919.041 106.136 918.575 105.316 917.947 104.61L916.453 105.939C916.891 106.432 917.225 107.012 917.451 107.69L919.349 107.058ZM917.947 104.61C917.314 103.897 916.543 103.346 915.649 102.957L914.851 104.791C915.49 105.069 916.02 105.452 916.453 105.939L917.947 104.61ZM915.664 102.964C914.781 102.563 913.804 102.374 912.75 102.374V104.374C913.563 104.374 914.252 104.519 914.836 104.785L915.664 102.964ZM912.75 102.374C911.369 102.374 910.145 102.628 909.146 103.21L910.154 104.938C910.755 104.587 911.598 104.374 912.75 104.374V102.374ZM909.174 103.195C908.208 103.718 907.352 104.536 906.59 105.588L908.21 106.761C908.848 105.879 909.492 105.297 910.126 104.954L909.174 103.195ZM907.4 105.174H901V107.174H907.4V105.174ZM901.984 106.35L905.434 86.9997L903.466 86.6487L900.016 105.999L901.984 106.35ZM904.45 87.8242H924V85.8242H904.45V87.8242ZM923 86.8242V92.6742H925V86.8242H923Z" fill="black" mask="url(#path-41-outside-5_439_983)"/>
<mask id="path-43-outside-6_439_983" maskUnits="userSpaceOnUse" x="1108" y="84.8242" width="28" height="39" fill="black">
<rect fill="white" x="1108" y="84.8242" width="28" height="39"/>
<path d="M1127.4 95.8242C1127.17 94.6576 1126.63 93.6409 1125.8 92.7742C1124.97 91.9075 1123.93 91.4742 1122.7 91.4742C1121.4 91.4742 1120.33 91.8575 1119.5 92.6242C1118.67 93.3576 1118 94.2742 1117.5 95.3742C1117 96.4409 1116.63 97.5909 1116.4 98.8242C1116.17 100.058 1116.03 101.158 1116 102.124L1116.1 102.224C1117.07 100.824 1118.2 99.8242 1119.5 99.2242C1120.8 98.6242 1122.3 98.3242 1124 98.3242C1125.5 98.3242 1126.97 98.6576 1128.4 99.3242C1129.83 99.9576 1131.05 100.824 1132.05 101.924C1132.98 102.991 1133.67 104.208 1134.1 105.574C1134.53 106.941 1134.75 108.324 1134.75 109.724C1134.75 111.524 1134.45 113.208 1133.85 114.774C1133.25 116.308 1132.42 117.658 1131.35 118.824C1130.28 119.958 1129 120.858 1127.5 121.524C1126 122.191 1124.33 122.524 1122.5 122.524C1119.83 122.524 1117.63 122.008 1115.9 120.974C1114.2 119.908 1112.83 118.524 1111.8 116.824C1110.77 115.091 1110.05 113.141 1109.65 110.974C1109.25 108.808 1109.05 106.624 1109.05 104.424C1109.05 102.291 1109.3 100.141 1109.8 97.9742C1110.3 95.7742 1111.1 93.8076 1112.2 92.0742C1113.3 90.3076 1114.72 88.8742 1116.45 87.7742C1118.18 86.6742 1120.3 86.1242 1122.8 86.1242C1125.83 86.1242 1128.38 86.9742 1130.45 88.6742C1132.52 90.3409 1133.75 92.7242 1134.15 95.8242H1127.4ZM1122.3 103.674C1121.33 103.674 1120.5 103.858 1119.8 104.224C1119.1 104.558 1118.52 105.024 1118.05 105.624C1117.58 106.224 1117.23 106.924 1117 107.724C1116.77 108.491 1116.65 109.308 1116.65 110.174C1116.65 110.974 1116.77 111.774 1117 112.574C1117.27 113.341 1117.63 114.041 1118.1 114.674C1118.6 115.274 1119.2 115.758 1119.9 116.124C1120.6 116.491 1121.4 116.674 1122.3 116.674C1123.13 116.674 1123.88 116.491 1124.55 116.124C1125.22 115.758 1125.78 115.274 1126.25 114.674C1126.72 114.074 1127.07 113.391 1127.3 112.624C1127.53 111.858 1127.65 111.074 1127.65 110.274C1127.65 109.441 1127.53 108.641 1127.3 107.874C1127.1 107.074 1126.78 106.374 1126.35 105.774C1125.92 105.141 1125.35 104.641 1124.65 104.274C1123.98 103.874 1123.2 103.674 1122.3 103.674Z"/>
</mask>
<path d="M1127.4 95.8242C1127.17 94.6576 1126.63 93.6409 1125.8 92.7742C1124.97 91.9075 1123.93 91.4742 1122.7 91.4742C1121.4 91.4742 1120.33 91.8575 1119.5 92.6242C1118.67 93.3576 1118 94.2742 1117.5 95.3742C1117 96.4409 1116.63 97.5909 1116.4 98.8242C1116.17 100.058 1116.03 101.158 1116 102.124L1116.1 102.224C1117.07 100.824 1118.2 99.8242 1119.5 99.2242C1120.8 98.6242 1122.3 98.3242 1124 98.3242C1125.5 98.3242 1126.97 98.6576 1128.4 99.3242C1129.83 99.9576 1131.05 100.824 1132.05 101.924C1132.98 102.991 1133.67 104.208 1134.1 105.574C1134.53 106.941 1134.75 108.324 1134.75 109.724C1134.75 111.524 1134.45 113.208 1133.85 114.774C1133.25 116.308 1132.42 117.658 1131.35 118.824C1130.28 119.958 1129 120.858 1127.5 121.524C1126 122.191 1124.33 122.524 1122.5 122.524C1119.83 122.524 1117.63 122.008 1115.9 120.974C1114.2 119.908 1112.83 118.524 1111.8 116.824C1110.77 115.091 1110.05 113.141 1109.65 110.974C1109.25 108.808 1109.05 106.624 1109.05 104.424C1109.05 102.291 1109.3 100.141 1109.8 97.9742C1110.3 95.7742 1111.1 93.8076 1112.2 92.0742C1113.3 90.3076 1114.72 88.8742 1116.45 87.7742C1118.18 86.6742 1120.3 86.1242 1122.8 86.1242C1125.83 86.1242 1128.38 86.9742 1130.45 88.6742C1132.52 90.3409 1133.75 92.7242 1134.15 95.8242H1127.4ZM1122.3 103.674C1121.33 103.674 1120.5 103.858 1119.8 104.224C1119.1 104.558 1118.52 105.024 1118.05 105.624C1117.58 106.224 1117.23 106.924 1117 107.724C1116.77 108.491 1116.65 109.308 1116.65 110.174C1116.65 110.974 1116.77 111.774 1117 112.574C1117.27 113.341 1117.63 114.041 1118.1 114.674C1118.6 115.274 1119.2 115.758 1119.9 116.124C1120.6 116.491 1121.4 116.674 1122.3 116.674C1123.13 116.674 1123.88 116.491 1124.55 116.124C1125.22 115.758 1125.78 115.274 1126.25 114.674C1126.72 114.074 1127.07 113.391 1127.3 112.624C1127.53 111.858 1127.65 111.074 1127.65 110.274C1127.65 109.441 1127.53 108.641 1127.3 107.874C1127.1 107.074 1126.78 106.374 1126.35 105.774C1125.92 105.141 1125.35 104.641 1124.65 104.274C1123.98 103.874 1123.2 103.674 1122.3 103.674Z" fill="white"/>
<path d="M1127.4 95.8242L1126.42 96.0203L1126.58 96.8242H1127.4V95.8242ZM1125.8 92.7742L1125.08 93.4673V93.4673L1125.8 92.7742ZM1119.5 92.6242L1120.16 93.3749L1120.17 93.3676L1120.18 93.3601L1119.5 92.6242ZM1117.5 95.3742L1118.41 95.7987L1118.41 95.788L1117.5 95.3742ZM1116 102.124L1115 102.09L1114.99 102.524L1115.29 102.831L1116 102.124ZM1116.1 102.224L1115.39 102.931L1116.24 103.78L1116.92 102.792L1116.1 102.224ZM1119.5 99.2242L1119.08 98.3163L1119.5 99.2242ZM1128.4 99.3242L1127.98 100.231L1127.99 100.235L1128 100.239L1128.4 99.3242ZM1132.05 101.924L1132.8 101.266L1132.8 101.259L1132.79 101.252L1132.05 101.924ZM1133.85 114.774L1134.78 115.139L1134.78 115.132L1133.85 114.774ZM1131.35 118.824L1132.08 119.51L1132.08 119.504L1132.09 119.499L1131.35 118.824ZM1127.5 121.524L1127.09 120.61L1127.5 121.524ZM1115.9 120.974L1115.37 121.821L1115.38 121.827L1115.39 121.833L1115.9 120.974ZM1111.8 116.824L1110.94 117.336L1110.95 117.344L1111.8 116.824ZM1109.65 110.974L1108.67 111.156L1109.65 110.974ZM1109.8 97.9742L1110.77 98.1991L1110.78 98.1958L1109.8 97.9742ZM1112.2 92.0742L1113.04 92.6101L1113.05 92.6028L1112.2 92.0742ZM1116.45 87.7742L1115.91 86.9299L1115.91 86.9299L1116.45 87.7742ZM1130.45 88.6742L1129.81 89.4465L1129.82 89.4526L1130.45 88.6742ZM1134.15 95.8242V96.8242H1135.29L1135.14 95.6962L1134.15 95.8242ZM1119.8 104.224L1120.23 105.127L1120.25 105.119L1120.26 105.11L1119.8 104.224ZM1118.05 105.624L1118.84 106.238H1118.84L1118.05 105.624ZM1117 107.724L1117.96 108.015L1117.96 108.004L1117 107.724ZM1117 112.574L1116.04 112.854L1116.05 112.879L1116.06 112.903L1117 112.574ZM1118.1 114.674L1117.29 115.267L1117.31 115.291L1117.33 115.314L1118.1 114.674ZM1119.9 116.124L1120.36 115.238L1119.9 116.124ZM1124.55 116.124L1125.03 117L1124.55 116.124ZM1127.3 107.874L1126.33 108.117L1126.34 108.141L1126.34 108.165L1127.3 107.874ZM1126.35 105.774L1125.52 106.339L1125.53 106.349L1125.54 106.36L1126.35 105.774ZM1124.65 104.274L1124.14 105.132L1124.16 105.147L1124.19 105.16L1124.65 104.274ZM1128.38 95.6281C1128.11 94.2723 1127.48 93.0837 1126.52 92.0811L1125.08 93.4673C1125.78 94.198 1126.22 95.0428 1126.42 96.0203L1128.38 95.6281ZM1126.52 92.0811C1125.49 91.0127 1124.2 90.4742 1122.7 90.4742V92.4742C1123.67 92.4742 1124.44 92.8024 1125.08 93.4673L1126.52 92.0811ZM1122.7 90.4742C1121.19 90.4742 1119.87 90.9267 1118.82 91.8883L1120.18 93.3601C1120.8 92.7884 1121.61 92.4742 1122.7 92.4742V90.4742ZM1118.84 91.8735C1117.89 92.7082 1117.14 93.7432 1116.59 94.9604L1118.41 95.788C1118.86 94.8052 1119.44 94.0069 1120.16 93.3749L1118.84 91.8735ZM1116.59 94.9498C1116.06 96.0972 1115.67 97.3279 1115.42 98.6383L1117.38 99.0101C1117.6 97.8538 1117.94 96.7846 1118.41 95.7986L1116.59 94.9498ZM1115.42 98.6383C1115.18 99.9078 1115.04 101.06 1115 102.09L1117 102.159C1117.03 101.255 1117.16 100.207 1117.38 99.0101L1115.42 98.6383ZM1115.29 102.831L1115.39 102.931L1116.81 101.517L1116.71 101.417L1115.29 102.831ZM1116.92 102.792C1117.81 101.512 1118.81 100.644 1119.92 100.132L1119.08 98.3163C1117.59 99.0044 1116.33 100.137 1115.28 101.656L1116.92 102.792ZM1119.92 100.132C1121.07 99.6031 1122.42 99.3242 1124 99.3242V97.3242C1122.18 97.3242 1120.53 97.6453 1119.08 98.3163L1119.92 100.132ZM1124 99.3242C1125.35 99.3242 1126.67 99.6223 1127.98 100.231L1128.82 98.4175C1127.26 97.6928 1125.65 97.3242 1124 97.3242V99.3242ZM1128 100.239C1129.31 100.819 1130.41 101.606 1131.31 102.597L1132.79 101.252C1131.69 100.043 1130.36 99.0961 1128.8 98.4095L1128 100.239ZM1131.3 102.583C1132.14 103.544 1132.75 104.64 1133.15 105.876L1135.05 105.272C1134.58 103.776 1133.83 102.437 1132.8 101.266L1131.3 102.583ZM1133.15 105.876C1133.55 107.148 1133.75 108.429 1133.75 109.724H1135.75C1135.75 108.219 1135.52 106.734 1135.05 105.272L1133.15 105.876ZM1133.75 109.724C1133.75 111.411 1133.47 112.972 1132.92 114.417L1134.78 115.132C1135.43 113.443 1135.75 111.637 1135.75 109.724H1133.75ZM1132.92 114.41C1132.36 115.834 1131.59 117.077 1130.61 118.149L1132.09 119.499C1133.24 118.238 1134.14 116.782 1134.78 115.139L1132.92 114.41ZM1130.62 118.139C1129.65 119.17 1128.48 119.995 1127.09 120.61L1127.91 122.438C1129.52 121.72 1130.92 120.745 1132.08 119.51L1130.62 118.139ZM1127.09 120.61C1125.74 121.214 1124.21 121.524 1122.5 121.524V123.524C1124.46 123.524 1126.26 123.168 1127.91 122.438L1127.09 120.61ZM1122.5 121.524C1119.96 121.524 1117.95 121.031 1116.41 120.115L1115.39 121.833C1117.32 122.984 1119.71 123.524 1122.5 123.524V121.524ZM1116.43 120.127C1114.86 119.142 1113.61 117.871 1112.65 116.305L1110.95 117.344C1112.06 119.178 1113.54 120.673 1115.37 121.821L1116.43 120.127ZM1112.66 116.312C1111.69 114.69 1111.01 112.853 1110.63 110.793L1108.67 111.156C1109.09 113.428 1109.84 115.492 1110.94 117.336L1112.66 116.312ZM1110.63 110.793C1110.24 108.686 1110.05 106.563 1110.05 104.424H1108.05C1108.05 106.685 1108.26 108.929 1108.67 111.156L1110.63 110.793ZM1110.05 104.424C1110.05 102.37 1110.29 100.295 1110.77 98.1991L1108.83 97.7494C1108.31 99.9866 1108.05 102.212 1108.05 104.424H1110.05ZM1110.78 98.1958C1111.25 96.0963 1112.01 94.2378 1113.04 92.61L1111.36 91.5384C1110.19 93.3773 1109.35 95.4522 1108.82 97.7526L1110.78 98.1958ZM1113.05 92.6028C1114.07 90.9617 1115.38 89.637 1116.99 88.6185L1115.91 86.9299C1114.05 88.1115 1112.53 89.6534 1111.35 91.5457L1113.05 92.6028ZM1116.99 88.6185C1118.53 87.6404 1120.45 87.1242 1122.8 87.1242V85.1242C1120.15 85.1242 1117.84 85.708 1115.91 86.9299L1116.99 88.6185ZM1122.8 87.1242C1125.63 87.1242 1127.95 87.9133 1129.81 89.4465L1131.09 87.9019C1128.82 86.0352 1126.03 85.1242 1122.8 85.1242V87.1242ZM1129.82 89.4526C1131.65 90.9292 1132.78 93.0593 1133.16 95.9522L1135.14 95.6962C1134.72 92.3891 1133.38 89.7526 1131.08 87.8958L1129.82 89.4526ZM1134.15 94.8242H1127.4V96.8242H1134.15V94.8242ZM1122.3 102.674C1121.21 102.674 1120.21 102.882 1119.34 103.338L1120.26 105.11C1120.79 104.833 1121.46 104.674 1122.3 104.674V102.674ZM1119.37 103.321C1118.53 103.72 1117.82 104.285 1117.26 105.01L1118.84 106.238C1119.21 105.764 1119.67 105.395 1120.23 105.127L1119.37 103.321ZM1117.26 105.01C1116.71 105.719 1116.31 106.535 1116.04 107.444L1117.96 108.004C1118.16 107.314 1118.46 106.729 1118.84 106.238L1117.26 105.01ZM1116.04 107.433C1115.78 108.301 1115.65 109.217 1115.65 110.174H1117.65C1117.65 109.398 1117.75 108.68 1117.96 108.015L1116.04 107.433ZM1115.65 110.174C1115.65 111.073 1115.78 111.967 1116.04 112.854L1117.96 112.294C1117.75 111.581 1117.65 110.876 1117.65 110.174H1115.65ZM1116.06 112.903C1116.35 113.761 1116.77 114.551 1117.29 115.267L1118.91 114.081C1118.5 113.531 1118.18 112.921 1117.94 112.246L1116.06 112.903ZM1117.33 115.314C1117.92 116.017 1118.62 116.583 1119.44 117.01L1120.36 115.238C1119.78 114.932 1119.28 114.532 1118.87 114.034L1117.33 115.314ZM1119.44 117.01C1120.3 117.462 1121.26 117.674 1122.3 117.674V115.674C1121.54 115.674 1120.9 115.52 1120.36 115.238L1119.44 117.01ZM1122.3 117.674C1123.29 117.674 1124.2 117.456 1125.03 117L1124.07 115.248C1123.56 115.526 1122.98 115.674 1122.3 115.674V117.674ZM1125.03 117C1125.82 116.568 1126.49 115.996 1127.04 115.288L1125.46 114.06C1125.08 114.553 1124.62 114.947 1124.07 115.248L1125.03 117ZM1127.04 115.288C1127.59 114.587 1127.99 113.793 1128.26 112.915L1126.34 112.333C1126.14 112.989 1125.85 113.562 1125.46 114.06L1127.04 115.288ZM1128.26 112.915C1128.52 112.054 1128.65 111.173 1128.65 110.274H1126.65C1126.65 110.975 1126.55 111.661 1126.34 112.333L1128.26 112.915ZM1128.65 110.274C1128.65 109.346 1128.52 108.448 1128.26 107.583L1126.34 108.165C1126.55 108.834 1126.65 109.536 1126.65 110.274H1128.65ZM1128.27 107.632C1128.04 106.722 1127.68 105.903 1127.16 105.189L1125.54 106.36C1125.89 106.845 1126.16 107.426 1126.33 108.117L1128.27 107.632ZM1127.18 105.21C1126.65 104.437 1125.95 103.829 1125.11 103.388L1124.19 105.16C1124.75 105.453 1125.19 105.845 1125.52 106.339L1127.18 105.21ZM1125.16 103.417C1124.32 102.91 1123.35 102.674 1122.3 102.674V104.674C1123.05 104.674 1123.65 104.839 1124.14 105.132L1125.16 103.417Z" fill="black" mask="url(#path-43-outside-6_439_983)"/>
<mask id="path-45-outside-7_439_983" maskUnits="userSpaceOnUse" x="1317" y="85.8242" width="27" height="37" fill="black">
<rect fill="white" x="1317" y="85.8242" width="27" height="37"/>
<path d="M1342.85 92.9242C1341.02 94.5242 1339.38 96.4909 1337.95 98.8242C1336.55 101.158 1335.37 103.641 1334.4 106.274C1333.43 108.908 1332.7 111.574 1332.2 114.274C1331.7 116.974 1331.43 119.491 1331.4 121.824H1323.8C1324.2 116.624 1325.42 111.608 1327.45 106.774C1329.52 101.908 1332.22 97.4576 1335.55 93.4242H1318.95V86.8242H1342.85V92.9242Z"/>
</mask>
<path d="M1342.85 92.9242C1341.02 94.5242 1339.38 96.4909 1337.95 98.8242C1336.55 101.158 1335.37 103.641 1334.4 106.274C1333.43 108.908 1332.7 111.574 1332.2 114.274C1331.7 116.974 1331.43 119.491 1331.4 121.824H1323.8C1324.2 116.624 1325.42 111.608 1327.45 106.774C1329.52 101.908 1332.22 97.4576 1335.55 93.4242H1318.95V86.8242H1342.85V92.9242Z" fill="white"/>
<path d="M1342.85 92.9242L1343.51 93.6776L1343.85 93.3788V92.9242H1342.85ZM1337.95 98.8242L1337.1 98.3008L1337.09 98.3097L1337.95 98.8242ZM1334.4 106.274L1335.34 106.619L1334.4 106.274ZM1332.2 114.274L1333.18 114.456L1332.2 114.274ZM1331.4 121.824V122.824H1332.39L1332.4 121.839L1331.4 121.824ZM1323.8 121.824L1322.8 121.748L1322.72 122.824H1323.8V121.824ZM1327.45 106.774L1326.53 106.383L1326.53 106.386L1327.45 106.774ZM1335.55 93.4242L1336.32 94.0613L1337.67 92.4242H1335.55V93.4242ZM1318.95 93.4242H1317.95V94.4242H1318.95V93.4242ZM1318.95 86.8242V85.8242H1317.95V86.8242H1318.95ZM1342.85 86.8242H1343.85V85.8242H1342.85V86.8242ZM1342.19 92.1708C1340.27 93.8449 1338.58 95.892 1337.1 98.3008L1338.8 99.3476C1340.19 97.0897 1341.76 95.2035 1343.51 93.6776L1342.19 92.1708ZM1337.09 98.3097C1335.66 100.699 1334.45 103.239 1333.46 105.93L1335.34 106.619C1336.28 104.043 1337.44 101.616 1338.81 99.3387L1337.09 98.3097ZM1333.46 105.93C1332.48 108.615 1331.73 111.336 1331.22 114.092L1333.18 114.456C1333.67 111.813 1334.39 109.2 1335.34 106.619L1333.46 105.93ZM1331.22 114.092C1330.71 116.838 1330.43 119.411 1330.4 121.81L1332.4 121.839C1332.43 119.57 1332.69 117.11 1333.18 114.456L1331.22 114.092ZM1331.4 120.824H1323.8V122.824H1331.4V120.824ZM1324.8 121.901C1325.19 116.809 1326.38 111.897 1328.37 107.162L1326.53 106.386C1324.45 111.318 1323.21 116.44 1322.8 121.748L1324.8 121.901ZM1328.37 107.165C1330.4 102.386 1333.05 98.0194 1336.32 94.0613L1334.78 92.7872C1331.38 96.8957 1328.63 101.429 1326.53 106.383L1328.37 107.165ZM1335.55 92.4242H1318.95V94.4242H1335.55V92.4242ZM1319.95 93.4242V86.8242H1317.95V93.4242H1319.95ZM1318.95 87.8242H1342.85V85.8242H1318.95V87.8242ZM1341.85 86.8242V92.9242H1343.85V86.8242H1341.85Z" fill="black" mask="url(#path-45-outside-7_439_983)"/>
<mask id="path-47-outside-8_439_983" maskUnits="userSpaceOnUse" x="1525" y="84.8242" width="30" height="39" fill="black">
<rect fill="white" x="1525" y="84.8242" width="30" height="39"/>
<path d="M1533.8 111.224C1533.8 112.124 1533.97 112.941 1534.3 113.674C1534.63 114.408 1535.07 115.041 1535.6 115.574C1536.17 116.074 1536.82 116.474 1537.55 116.774C1538.32 117.041 1539.13 117.174 1540 117.174C1540.83 117.174 1541.62 117.041 1542.35 116.774C1543.08 116.474 1543.72 116.074 1544.25 115.574C1544.82 115.041 1545.25 114.408 1545.55 113.674C1545.85 112.941 1546 112.141 1546 111.274C1546 110.441 1545.83 109.691 1545.5 109.024C1545.2 108.324 1544.77 107.724 1544.2 107.224C1543.67 106.724 1543.03 106.341 1542.3 106.074C1541.6 105.808 1540.83 105.674 1540 105.674C1538.27 105.674 1536.8 106.158 1535.6 107.124C1534.4 108.058 1533.8 109.424 1533.8 111.224ZM1528.15 95.6742C1528.15 94.1076 1528.5 92.7242 1529.2 91.5242C1529.9 90.3242 1530.8 89.3242 1531.9 88.5242C1533.03 87.7242 1534.3 87.1242 1535.7 86.7242C1537.1 86.3242 1538.52 86.1242 1539.95 86.1242C1542.12 86.1242 1543.95 86.4576 1545.45 87.1242C1546.95 87.7909 1548.15 88.6076 1549.05 89.5742C1549.98 90.5075 1550.65 91.5242 1551.05 92.6242C1551.45 93.7242 1551.65 94.6909 1551.65 95.5242C1551.65 97.2576 1551.22 98.7742 1550.35 100.074C1549.48 101.374 1548.22 102.308 1546.55 102.874V102.974C1548.65 103.441 1550.27 104.441 1551.4 105.974C1552.53 107.474 1553.1 109.324 1553.1 111.524C1553.1 113.358 1552.72 114.974 1551.95 116.374C1551.22 117.741 1550.23 118.891 1549 119.824C1547.77 120.724 1546.37 121.391 1544.8 121.824C1543.23 122.291 1541.63 122.524 1540 122.524C1538.3 122.524 1536.65 122.308 1535.05 121.874C1533.48 121.441 1532.07 120.774 1530.8 119.874C1529.57 118.974 1528.57 117.841 1527.8 116.474C1527.07 115.108 1526.7 113.474 1526.7 111.574C1526.7 109.341 1527.28 107.474 1528.45 105.974C1529.62 104.474 1531.23 103.474 1533.3 102.974V102.874C1531.6 102.408 1530.32 101.524 1529.45 100.224C1528.58 98.9242 1528.15 97.4076 1528.15 95.6742ZM1534.6 96.3242C1534.6 97.0909 1534.73 97.7576 1535 98.3242C1535.3 98.8909 1535.7 99.3742 1536.2 99.7742C1536.7 100.141 1537.27 100.424 1537.9 100.624C1538.57 100.824 1539.25 100.924 1539.95 100.924C1541.42 100.924 1542.65 100.541 1543.65 99.7742C1544.68 98.9742 1545.2 97.8242 1545.2 96.3242C1545.2 95.8909 1545.13 95.3909 1545 94.8242C1544.87 94.2576 1544.6 93.7242 1544.2 93.2242C1543.83 92.7242 1543.3 92.3076 1542.6 91.9742C1541.93 91.6409 1541.05 91.4742 1539.95 91.4742C1538.52 91.4742 1537.27 91.8909 1536.2 92.7242C1535.13 93.5576 1534.6 94.7575 1534.6 96.3242Z"/>
</mask>
<path d="M1533.8 111.224C1533.8 112.124 1533.97 112.941 1534.3 113.674C1534.63 114.408 1535.07 115.041 1535.6 115.574C1536.17 116.074 1536.82 116.474 1537.55 116.774C1538.32 117.041 1539.13 117.174 1540 117.174C1540.83 117.174 1541.62 117.041 1542.35 116.774C1543.08 116.474 1543.72 116.074 1544.25 115.574C1544.82 115.041 1545.25 114.408 1545.55 113.674C1545.85 112.941 1546 112.141 1546 111.274C1546 110.441 1545.83 109.691 1545.5 109.024C1545.2 108.324 1544.77 107.724 1544.2 107.224C1543.67 106.724 1543.03 106.341 1542.3 106.074C1541.6 105.808 1540.83 105.674 1540 105.674C1538.27 105.674 1536.8 106.158 1535.6 107.124C1534.4 108.058 1533.8 109.424 1533.8 111.224ZM1528.15 95.6742C1528.15 94.1076 1528.5 92.7242 1529.2 91.5242C1529.9 90.3242 1530.8 89.3242 1531.9 88.5242C1533.03 87.7242 1534.3 87.1242 1535.7 86.7242C1537.1 86.3242 1538.52 86.1242 1539.95 86.1242C1542.12 86.1242 1543.95 86.4576 1545.45 87.1242C1546.95 87.7909 1548.15 88.6076 1549.05 89.5742C1549.98 90.5075 1550.65 91.5242 1551.05 92.6242C1551.45 93.7242 1551.65 94.6909 1551.65 95.5242C1551.65 97.2576 1551.22 98.7742 1550.35 100.074C1549.48 101.374 1548.22 102.308 1546.55 102.874V102.974C1548.65 103.441 1550.27 104.441 1551.4 105.974C1552.53 107.474 1553.1 109.324 1553.1 111.524C1553.1 113.358 1552.72 114.974 1551.95 116.374C1551.22 117.741 1550.23 118.891 1549 119.824C1547.77 120.724 1546.37 121.391 1544.8 121.824C1543.23 122.291 1541.63 122.524 1540 122.524C1538.3 122.524 1536.65 122.308 1535.05 121.874C1533.48 121.441 1532.07 120.774 1530.8 119.874C1529.57 118.974 1528.57 117.841 1527.8 116.474C1527.07 115.108 1526.7 113.474 1526.7 111.574C1526.7 109.341 1527.28 107.474 1528.45 105.974C1529.62 104.474 1531.23 103.474 1533.3 102.974V102.874C1531.6 102.408 1530.32 101.524 1529.45 100.224C1528.58 98.9242 1528.15 97.4076 1528.15 95.6742ZM1534.6 96.3242C1534.6 97.0909 1534.73 97.7576 1535 98.3242C1535.3 98.8909 1535.7 99.3742 1536.2 99.7742C1536.7 100.141 1537.27 100.424 1537.9 100.624C1538.57 100.824 1539.25 100.924 1539.95 100.924C1541.42 100.924 1542.65 100.541 1543.65 99.7742C1544.68 98.9742 1545.2 97.8242 1545.2 96.3242C1545.2 95.8909 1545.13 95.3909 1545 94.8242C1544.87 94.2576 1544.6 93.7242 1544.2 93.2242C1543.83 92.7242 1543.3 92.3076 1542.6 91.9742C1541.93 91.6409 1541.05 91.4742 1539.95 91.4742C1538.52 91.4742 1537.27 91.8909 1536.2 92.7242C1535.13 93.5576 1534.6 94.7575 1534.6 96.3242Z" fill="white"/>
<path d="M1535.6 115.574L1534.89 116.281L1534.91 116.303L1534.94 116.324L1535.6 115.574ZM1537.55 116.774L1537.17 117.7L1537.2 117.71L1537.22 117.719L1537.55 116.774ZM1542.35 116.774L1542.69 117.714L1542.71 117.707L1542.73 117.7L1542.35 116.774ZM1544.25 115.574L1544.93 116.304L1544.94 116.302L1544.25 115.574ZM1545.55 113.674L1546.48 114.053H1546.48L1545.55 113.674ZM1545.5 109.024L1544.58 109.418L1544.59 109.445L1544.61 109.471L1545.5 109.024ZM1544.2 107.224L1543.52 107.954L1543.53 107.964L1543.54 107.974L1544.2 107.224ZM1542.3 106.074L1541.94 107.009L1541.95 107.011L1541.96 107.014L1542.3 106.074ZM1535.6 107.124L1536.21 107.914L1536.22 107.908L1536.23 107.903L1535.6 107.124ZM1529.2 91.5242L1530.06 92.0281L1530.06 92.0281L1529.2 91.5242ZM1531.9 88.5242L1531.32 87.7072L1531.31 87.7155L1531.9 88.5242ZM1535.7 86.7242L1535.97 87.6857L1535.97 87.6857L1535.7 86.7242ZM1545.45 87.1242L1545.04 88.038V88.038L1545.45 87.1242ZM1549.05 89.5742L1548.32 90.2556L1548.33 90.2687L1548.34 90.2813L1549.05 89.5742ZM1551.05 92.6242L1551.99 92.2825V92.2825L1551.05 92.6242ZM1546.55 102.874L1546.23 101.927L1545.55 102.158V102.874H1546.55ZM1546.55 102.974H1545.55V103.776L1546.33 103.95L1546.55 102.974ZM1551.4 105.974L1550.6 106.569L1550.6 106.577L1551.4 105.974ZM1551.95 116.374L1551.07 115.894L1551.07 115.901L1551.95 116.374ZM1549 119.824L1549.59 120.632L1549.6 120.627L1549.6 120.622L1549 119.824ZM1544.8 121.824L1544.53 120.86L1544.52 120.863L1544.51 120.866L1544.8 121.824ZM1535.05 121.874L1534.78 122.838L1534.79 122.839L1535.05 121.874ZM1530.8 119.874L1530.21 120.682L1530.22 120.689L1530.8 119.874ZM1527.8 116.474L1526.92 116.947L1526.92 116.955L1526.93 116.963L1527.8 116.474ZM1528.45 105.974L1529.24 106.588H1529.24L1528.45 105.974ZM1533.3 102.974L1533.54 103.946L1534.3 103.761V102.974H1533.3ZM1533.3 102.874H1534.3V102.112L1533.56 101.91L1533.3 102.874ZM1529.45 100.224L1530.28 99.6695V99.6695L1529.45 100.224ZM1535 98.3242L1534.1 98.75L1534.11 98.7713L1534.12 98.7921L1535 98.3242ZM1536.2 99.7742L1535.58 100.555L1535.59 100.568L1535.61 100.581L1536.2 99.7742ZM1537.9 100.624L1537.6 101.578L1537.61 101.58L1537.61 101.582L1537.9 100.624ZM1543.65 99.7742L1544.26 100.568L1544.26 100.565L1543.65 99.7742ZM1545 94.8242L1545.97 94.5952V94.5952L1545 94.8242ZM1544.2 93.2242L1543.39 93.8156L1543.41 93.8325L1543.42 93.8489L1544.2 93.2242ZM1542.6 91.9742L1542.15 92.8686L1542.16 92.8729L1542.17 92.8771L1542.6 91.9742ZM1536.2 92.7242L1536.82 93.5122H1536.82L1536.2 92.7242ZM1532.8 111.224C1532.8 112.25 1532.99 113.21 1533.39 114.088L1535.21 113.26C1534.94 112.672 1534.8 111.998 1534.8 111.224H1532.8ZM1533.39 114.088C1533.77 114.923 1534.27 115.658 1534.89 116.281L1536.31 114.867C1535.86 114.424 1535.5 113.892 1535.21 113.26L1533.39 114.088ZM1534.94 116.324C1535.59 116.902 1536.34 117.359 1537.17 117.7L1537.93 115.849C1537.29 115.589 1536.74 115.247 1536.26 114.824L1534.94 116.324ZM1537.22 117.719C1538.1 118.025 1539.03 118.174 1540 118.174V116.174C1539.24 116.174 1538.53 116.057 1537.88 115.83L1537.22 117.719ZM1540 118.174C1540.94 118.174 1541.84 118.023 1542.69 117.714L1542.01 115.834C1541.39 116.059 1540.72 116.174 1540 116.174V118.174ZM1542.73 117.7C1543.57 117.357 1544.3 116.894 1544.93 116.304L1543.57 114.845C1543.13 115.255 1542.6 115.591 1541.97 115.849L1542.73 117.7ZM1544.94 116.302C1545.61 115.669 1546.12 114.916 1546.48 114.053L1544.62 113.296C1544.38 113.899 1544.03 114.413 1543.56 114.846L1544.94 116.302ZM1546.48 114.053C1546.83 113.189 1547 112.258 1547 111.274H1545C1545 112.023 1544.87 112.693 1544.62 113.296L1546.48 114.053ZM1547 111.274C1547 110.304 1546.81 109.398 1546.39 108.577L1544.61 109.471C1544.86 109.984 1545 110.578 1545 111.274H1547ZM1546.42 108.63C1546.06 107.795 1545.54 107.073 1544.86 106.474L1543.54 107.974C1543.99 108.375 1544.34 108.853 1544.58 109.418L1546.42 108.63ZM1544.88 106.495C1544.25 105.896 1543.49 105.444 1542.64 105.134L1541.96 107.014C1542.57 107.238 1543.09 107.552 1543.52 107.954L1544.88 106.495ZM1542.66 105.14C1541.83 104.825 1540.94 104.674 1540 104.674V106.674C1540.73 106.674 1541.37 106.79 1541.94 107.009L1542.66 105.14ZM1540 104.674C1538.07 104.674 1536.37 105.218 1534.97 106.345L1536.23 107.903C1537.23 107.097 1538.46 106.674 1540 106.674V104.674ZM1534.99 106.335C1533.5 107.494 1532.8 109.179 1532.8 111.224H1534.8C1534.8 109.669 1535.3 108.622 1536.21 107.914L1534.99 106.335ZM1529.15 95.6742C1529.15 94.2615 1529.46 93.0564 1530.06 92.0281L1528.34 91.0203C1527.54 92.3921 1527.15 93.9536 1527.15 95.6742H1529.15ZM1530.06 92.0281C1530.7 90.9451 1531.5 90.0497 1532.49 89.333L1531.31 87.7155C1530.1 88.5987 1529.1 89.7034 1528.34 91.0203L1530.06 92.0281ZM1532.48 89.3412C1533.51 88.6092 1534.68 88.0564 1535.97 87.6857L1535.43 85.7627C1533.92 86.192 1532.55 86.8393 1531.32 87.7073L1532.48 89.3412ZM1535.97 87.6857C1537.29 87.3109 1538.61 87.1242 1539.95 87.1242V85.1242C1538.42 85.1242 1536.91 85.3376 1535.43 85.7627L1535.97 87.6857ZM1539.95 87.1242C1542.02 87.1242 1543.71 87.4433 1545.04 88.038L1545.86 86.2104C1544.19 85.4718 1542.21 85.1242 1539.95 85.1242V87.1242ZM1545.04 88.038C1546.45 88.6628 1547.53 89.4084 1548.32 90.2556L1549.78 88.8928C1548.77 87.8067 1547.45 86.9189 1545.86 86.2104L1545.04 88.038ZM1548.34 90.2813C1549.19 91.1246 1549.77 92.0199 1550.11 92.966L1551.99 92.2825C1551.53 91.0286 1550.78 89.8905 1549.76 88.8671L1548.34 90.2813ZM1550.11 92.966C1550.49 93.9973 1550.65 94.8442 1550.65 95.5242H1552.65C1552.65 94.5376 1552.41 93.4511 1551.99 92.2825L1550.11 92.966ZM1550.65 95.5242C1550.65 97.0826 1550.26 98.4015 1549.52 99.5195L1551.18 100.629C1552.17 99.1469 1552.65 97.4325 1552.65 95.5242H1550.65ZM1549.52 99.5195C1548.79 100.613 1547.71 101.422 1546.23 101.927L1546.87 103.821C1548.72 103.193 1550.18 102.135 1551.18 100.629L1549.52 99.5195ZM1545.55 102.874V102.974H1547.55V102.874H1545.55ZM1546.33 103.95C1548.23 104.372 1549.62 105.254 1550.6 106.569L1552.2 105.38C1550.91 103.628 1549.07 102.51 1546.77 101.998L1546.33 103.95ZM1550.6 106.577C1551.58 107.875 1552.1 109.503 1552.1 111.524H1554.1C1554.1 109.145 1553.48 107.073 1552.2 105.371L1550.6 106.577ZM1552.1 111.524C1552.1 113.215 1551.75 114.662 1551.07 115.894L1552.83 116.855C1553.69 115.287 1554.1 113.5 1554.1 111.524H1552.1ZM1551.07 115.901C1550.4 117.141 1549.51 118.181 1548.4 119.027L1549.6 120.622C1550.95 119.601 1552.03 118.34 1552.83 116.847L1551.07 115.901ZM1548.41 119.016C1547.28 119.841 1545.99 120.457 1544.53 120.86L1545.07 122.788C1546.74 122.325 1548.25 121.608 1549.59 120.632L1548.41 119.016ZM1544.51 120.866C1543.04 121.305 1541.54 121.524 1540 121.524V123.524C1541.73 123.524 1543.43 123.277 1545.09 122.783L1544.51 120.866ZM1540 121.524C1538.39 121.524 1536.82 121.319 1535.31 120.909L1534.79 122.839C1536.48 123.296 1538.21 123.524 1540 123.524V121.524ZM1535.32 120.91C1533.86 120.507 1532.55 119.889 1531.38 119.059L1530.22 120.689C1531.59 121.66 1533.11 122.375 1534.78 122.838L1535.32 120.91ZM1531.39 119.066C1530.28 118.253 1529.37 117.23 1528.67 115.985L1526.93 116.963C1527.76 118.452 1528.86 119.695 1530.21 120.682L1531.39 119.066ZM1528.68 116.001C1528.04 114.809 1527.7 113.346 1527.7 111.574H1525.7C1525.7 113.603 1526.09 115.406 1526.92 116.947L1528.68 116.001ZM1527.7 111.574C1527.7 109.523 1528.23 107.883 1529.24 106.588L1527.66 105.36C1526.33 107.065 1525.7 109.159 1525.7 111.574H1527.7ZM1529.24 106.588C1530.25 105.288 1531.66 104.4 1533.54 103.946L1533.06 102.002C1530.81 102.549 1528.98 103.66 1527.66 105.36L1529.24 106.588ZM1534.3 102.974V102.874H1532.3V102.974H1534.3ZM1533.56 101.91C1532.07 101.498 1531 100.743 1530.28 99.6695L1528.62 100.779C1529.64 102.305 1531.13 103.317 1533.04 103.839L1533.56 101.91ZM1530.28 99.6695C1529.54 98.5515 1529.15 97.2326 1529.15 95.6742H1527.15C1527.15 97.5825 1527.63 99.2969 1528.62 100.779L1530.28 99.6695ZM1533.6 96.3242C1533.6 97.2058 1533.75 98.0237 1534.1 98.75L1535.9 97.8984C1535.71 97.4914 1535.6 96.976 1535.6 96.3242H1533.6ZM1534.12 98.7921C1534.48 99.4796 1534.97 100.069 1535.58 100.555L1536.82 98.9933C1536.43 98.679 1536.12 98.3022 1535.88 97.8563L1534.12 98.7921ZM1535.61 100.581C1536.2 101.016 1536.87 101.347 1537.6 101.578L1538.2 99.6706C1537.66 99.5012 1537.2 99.2655 1536.79 98.9678L1535.61 100.581ZM1537.61 101.582C1538.37 101.81 1539.15 101.924 1539.95 101.924V99.9242C1539.35 99.9242 1538.76 99.8383 1538.19 99.6664L1537.61 101.582ZM1539.95 101.924C1541.6 101.924 1543.06 101.49 1544.26 100.568L1543.04 98.9806C1542.24 99.5923 1541.23 99.9242 1539.95 99.9242V101.924ZM1544.26 100.565C1545.58 99.5459 1546.2 98.0818 1546.2 96.3242H1544.2C1544.2 97.5667 1543.79 98.4025 1543.04 98.9835L1544.26 100.565ZM1546.2 96.3242C1546.2 95.7926 1546.12 95.2131 1545.97 94.5952L1544.03 95.0533C1544.15 95.5687 1544.2 95.9892 1544.2 96.3242H1546.2ZM1545.97 94.5952C1545.8 93.87 1545.46 93.2037 1544.98 92.5995L1543.42 93.8489C1543.74 94.2447 1543.93 94.6451 1544.03 95.0533L1545.97 94.5952ZM1545.01 92.6329C1544.52 91.9701 1543.84 91.4583 1543.03 91.0714L1542.17 92.8771C1542.76 93.1568 1543.15 93.4783 1543.39 93.8156L1545.01 92.6329ZM1543.05 91.0798C1542.19 90.6519 1541.14 90.4742 1539.95 90.4742V92.4742C1540.96 92.4742 1541.68 92.6298 1542.15 92.8686L1543.05 91.0798ZM1539.95 90.4742C1538.31 90.4742 1536.84 90.9571 1535.58 91.9362L1536.82 93.5122C1537.7 92.8247 1538.73 92.4742 1539.95 92.4742V90.4742ZM1535.58 91.9362C1534.24 92.9903 1533.6 94.5044 1533.6 96.3242H1535.6C1535.6 95.0107 1536.03 94.1248 1536.82 93.5122L1535.58 91.9362Z" fill="black" mask="url(#path-47-outside-8_439_983)"/>
</svg>
