<svg width="896" height="897" viewBox="0 0 896 897" fill="none" xmlns="http://www.w3.org/2000/svg">
<rect y="0.824219" width="896" height="896" rx="40" fill="#D3D6D7"/>
<path d="M361.614 623.18C361.614 617.892 365.9 613.605 371.188 613.605C376.476 613.605 380.762 617.892 380.762 623.18V698.178C380.762 703.466 376.476 707.752 371.188 707.752C365.9 707.752 361.614 703.466 361.614 698.178V623.18Z" fill="#A3927F"/>
<path d="M370.59 308.824L425.606 436.481H411.829L447.782 490.735H437.498L472.515 535.415H457.104L493.26 580.095H478.488L524.376 631.157H218L263.739 580.095H248.318L284.356 535.415H269.861L304.467 490.735H294.594L329.989 436.481H316.934L370.59 308.824Z" fill="#8B9569"/>
</svg>
