<svg width="1002" height="132" viewBox="0 0 1002 132" fill="none" xmlns="http://www.w3.org/2000/svg">
<rect x="1" y="1.82422" width="1000" height="129" stroke="#D3D6D7" stroke-width="2"/>
<rect x="2" y="2.82422" width="998" height="127" fill="#FCFCFC"/>
<path d="M17.5195 26.3281H19.8984V41.832H28.3477V43.8242H17.5195V26.3281ZM38.4075 37.2266H37.6927C36.4348 37.2266 35.4856 37.4492 34.845 37.8945C34.2122 38.332 33.8958 38.9883 33.8958 39.8633C33.8958 40.6523 34.1341 41.2656 34.6106 41.7031C35.0872 42.1406 35.7473 42.3594 36.5911 42.3594C37.7786 42.3594 38.7122 41.9492 39.3919 41.1289C40.0716 40.3008 40.4153 39.1602 40.4231 37.707V37.2266H38.4075ZM42.5911 36.3359V43.8242H40.4231V41.8789C39.9622 42.6602 39.3802 43.2383 38.677 43.6133C37.9817 43.9805 37.1341 44.1641 36.1341 44.1641C34.7981 44.1641 33.7317 43.7891 32.9348 43.0391C32.138 42.2812 31.7395 41.2695 31.7395 40.0039C31.7395 38.543 32.2278 37.4336 33.2044 36.6758C34.1888 35.918 35.6302 35.5391 37.5286 35.5391H40.4231V35.1992C40.4153 34.1523 40.1497 33.3945 39.6263 32.9258C39.1028 32.4492 38.2669 32.2109 37.1184 32.2109C36.3841 32.2109 35.6419 32.3164 34.8919 32.5273C34.1419 32.7383 33.4114 33.0469 32.7005 33.4531V31.2969C33.4973 30.9922 34.2591 30.7656 34.9856 30.6172C35.72 30.4609 36.4309 30.3828 37.1184 30.3828C38.2044 30.3828 39.1302 30.543 39.8958 30.8633C40.6692 31.1836 41.2942 31.6641 41.7708 32.3047C42.0677 32.6953 42.2786 33.1797 42.4036 33.7578C42.5286 34.3281 42.5911 35.1875 42.5911 36.3359ZM56.7642 31.1562V33.2656C56.147 32.9062 55.5259 32.6367 54.9009 32.457C54.2759 32.2773 53.6392 32.1875 52.9908 32.1875C52.0142 32.1875 51.2838 32.3477 50.7994 32.668C50.3228 32.9805 50.0845 33.4609 50.0845 34.1094C50.0845 34.6953 50.2642 35.1328 50.6236 35.4219C50.983 35.7109 51.8775 35.9922 53.3072 36.2656L54.1744 36.4297C55.2447 36.6328 56.0533 37.0391 56.6002 37.6484C57.1548 38.2578 57.4322 39.0508 57.4322 40.0273C57.4322 41.3242 56.9713 42.3398 56.0494 43.0742C55.1275 43.8008 53.8463 44.1641 52.2056 44.1641C51.5572 44.1641 50.8775 44.0938 50.1666 43.9531C49.4556 43.8203 48.6861 43.6172 47.858 43.3438V41.1172C48.6627 41.5312 49.4322 41.8438 50.1666 42.0547C50.9009 42.2578 51.5963 42.3594 52.2525 42.3594C53.2056 42.3594 53.9439 42.168 54.4673 41.7852C54.9908 41.3945 55.2525 40.8516 55.2525 40.1562C55.2525 39.1562 54.2955 38.4648 52.3814 38.082L52.2877 38.0586L51.4791 37.8945C50.2369 37.6523 49.3306 37.2461 48.7603 36.6758C48.19 36.0977 47.9048 35.3125 47.9048 34.3203C47.9048 33.0625 48.3306 32.0938 49.1822 31.4141C50.0338 30.7266 51.2486 30.3828 52.8267 30.3828C53.5298 30.3828 54.2056 30.4492 54.8541 30.582C55.5025 30.707 56.1392 30.8984 56.7642 31.1562ZM67.7381 26.9727V30.6992H72.6366V32.375H67.7381V39.5C67.7381 40.4688 67.9217 41.1445 68.2889 41.5273C68.6561 41.9102 69.2967 42.1016 70.2108 42.1016H72.6366V43.8242H69.9998C68.3827 43.8242 67.242 43.5 66.578 42.8516C65.9139 42.2031 65.5819 41.0859 65.5819 39.5V32.375H62.078V30.6992H65.5819V26.9727H67.7381ZM98.393 39.0664C98.393 40.0352 98.5687 40.7656 98.9203 41.2578C99.2797 41.75 99.807 41.9961 100.502 41.9961H103.022V43.8242H100.291C99.0023 43.8242 98.0023 43.4102 97.2914 42.582C96.5883 41.7539 96.2367 40.582 96.2367 39.0664V27.1484H92.7797V25.4609H98.393V39.0664ZM113.304 32.2109C112.211 32.2109 111.382 32.6367 110.82 33.4883C110.257 34.3398 109.976 35.6016 109.976 37.2734C109.976 38.9375 110.257 40.1992 110.82 41.0586C111.382 41.9102 112.211 42.3359 113.304 42.3359C114.406 42.3359 115.238 41.9102 115.8 41.0586C116.363 40.1992 116.644 38.9375 116.644 37.2734C116.644 35.6016 116.363 34.3398 115.8 33.4883C115.238 32.6367 114.406 32.2109 113.304 32.2109ZM113.304 30.3828C115.125 30.3828 116.515 30.9727 117.476 32.1523C118.445 33.332 118.929 35.0391 118.929 37.2734C118.929 39.5156 118.449 41.2266 117.488 42.4062C116.527 43.5781 115.132 44.1641 113.304 44.1641C111.484 44.1641 110.093 43.5781 109.132 42.4062C108.172 41.2266 107.691 39.5156 107.691 37.2734C107.691 35.0391 108.172 33.332 109.132 32.1523C110.093 30.9727 111.484 30.3828 113.304 30.3828ZM131.321 37.1562C131.321 35.5391 131.056 34.3125 130.524 33.4766C130.001 32.6328 129.235 32.2109 128.228 32.2109C127.173 32.2109 126.368 32.6328 125.813 33.4766C125.259 34.3125 124.981 35.5391 124.981 37.1562C124.981 38.7734 125.259 40.0078 125.813 40.8594C126.376 41.7031 127.188 42.125 128.251 42.125C129.243 42.125 130.001 41.6992 130.524 40.8477C131.056 39.9961 131.321 38.7656 131.321 37.1562ZM133.478 42.9805C133.478 44.9492 133.013 46.4414 132.083 47.457C131.153 48.4727 129.786 48.9805 127.981 48.9805C127.388 48.9805 126.767 48.9258 126.118 48.8164C125.47 48.707 124.821 48.5469 124.173 48.3359V46.2031C124.938 46.5625 125.634 46.8281 126.259 47C126.884 47.1719 127.458 47.2578 127.981 47.2578C129.145 47.2578 129.993 46.9414 130.524 46.3086C131.056 45.6758 131.321 44.6719 131.321 43.2969V43.2031V41.7383C130.978 42.4727 130.509 43.0195 129.915 43.3789C129.321 43.7383 128.599 43.918 127.747 43.918C126.216 43.918 124.993 43.3047 124.079 42.0781C123.165 40.8516 122.708 39.2109 122.708 37.1562C122.708 35.0938 123.165 33.4492 124.079 32.2227C124.993 30.9961 126.216 30.3828 127.747 30.3828C128.591 30.3828 129.306 30.5508 129.892 30.8867C130.478 31.2227 130.954 31.7422 131.321 32.4453V30.7461H133.478V42.9805ZM139.448 30.6992H144.967V42.1484H149.244V43.8242H138.533V42.1484H142.811V32.375H139.448V30.6992ZM142.811 25.5898H144.967V28.3203H142.811V25.5898ZM163.945 35.6914V43.8242H161.777V35.6914C161.777 34.5117 161.57 33.6445 161.156 33.0898C160.742 32.5352 160.093 32.2578 159.21 32.2578C158.203 32.2578 157.425 32.6172 156.878 33.3359C156.339 34.0469 156.07 35.0703 156.07 36.4062V43.8242H153.914V30.6992H156.07V32.668C156.453 31.918 156.972 31.3516 157.628 30.9688C158.285 30.5781 159.062 30.3828 159.96 30.3828C161.296 30.3828 162.292 30.8242 162.949 31.707C163.613 32.582 163.945 33.9102 163.945 35.6914ZM172.54 31.3672H175.493V34.918H172.54V31.3672ZM172.54 40.25H175.493V43.8242H172.54V40.25ZM199.902 26.3281H210.202V28.3203H202.281V33.4766H209.464V35.4688H202.281V43.8242H199.902V26.3281ZM225.887 33.4062C225.426 33.0469 224.958 32.7852 224.481 32.6211C224.005 32.457 223.481 32.375 222.911 32.375C221.567 32.375 220.54 32.7969 219.829 33.6406C219.118 34.4844 218.762 35.7031 218.762 37.2969V43.8242H216.594V30.6992H218.762V33.2656C219.122 32.3359 219.673 31.625 220.415 31.1328C221.165 30.6328 222.051 30.3828 223.075 30.3828C223.606 30.3828 224.102 30.4492 224.563 30.582C225.024 30.7148 225.465 30.9219 225.887 31.2031V33.4062ZM230.533 30.6992H236.053V42.1484H240.33V43.8242H229.619V42.1484H233.896V32.375H230.533V30.6992ZM233.896 25.5898H236.053V28.3203H233.896V25.5898ZM258.903 26.3281H262.067L265.09 35.2344L268.137 26.3281H271.313V43.8242H269.122V28.3672L266.004 37.5898H264.211L261.083 28.3672V43.8242H258.903V26.3281ZM281.302 37.2266H280.588C279.33 37.2266 278.381 37.4492 277.74 37.8945C277.107 38.332 276.791 38.9883 276.791 39.8633C276.791 40.6523 277.029 41.2656 277.506 41.7031C277.982 42.1406 278.642 42.3594 279.486 42.3594C280.674 42.3594 281.607 41.9492 282.287 41.1289C282.967 40.3008 283.31 39.1602 283.318 37.707V37.2266H281.302ZM285.486 36.3359V43.8242H283.318V41.8789C282.857 42.6602 282.275 43.2383 281.572 43.6133C280.877 43.9805 280.029 44.1641 279.029 44.1641C277.693 44.1641 276.627 43.7891 275.83 43.0391C275.033 42.2812 274.635 41.2695 274.635 40.0039C274.635 38.543 275.123 37.4336 276.099 36.6758C277.084 35.918 278.525 35.5391 280.424 35.5391H283.318V35.1992C283.31 34.1523 283.045 33.3945 282.521 32.9258C281.998 32.4492 281.162 32.2109 280.013 32.2109C279.279 32.2109 278.537 32.3164 277.787 32.5273C277.037 32.7383 276.306 33.0469 275.595 33.4531V31.2969C276.392 30.9922 277.154 30.7656 277.881 30.6172C278.615 30.4609 279.326 30.3828 280.013 30.3828C281.099 30.3828 282.025 30.543 282.791 30.8633C283.564 31.1836 284.189 31.6641 284.666 32.3047C284.963 32.6953 285.174 33.1797 285.299 33.7578C285.424 34.3281 285.486 35.1875 285.486 36.3359ZM298.312 39.6055C297.952 40.5195 297.495 41.7227 296.94 43.2148C296.167 45.2773 295.647 46.5352 295.382 46.9883C295.022 47.5977 294.573 48.0547 294.034 48.3594C293.495 48.6641 292.866 48.8164 292.147 48.8164H290.413V47.0117H291.69C292.323 47.0117 292.819 46.8281 293.179 46.4609C293.538 46.0938 293.995 45.1445 294.55 43.6133L289.476 30.6992H291.761L295.651 40.9648L299.483 30.6992H301.769L298.312 39.6055ZM322.99 41.832H331.029V43.8242H320.4V41.832C321.861 40.293 323.138 38.9336 324.232 37.7539C325.326 36.5742 326.08 35.7422 326.494 35.2578C327.275 34.3047 327.802 33.5352 328.076 32.9492C328.349 32.3555 328.486 31.75 328.486 31.1328C328.486 30.1562 328.197 29.3906 327.619 28.8359C327.048 28.2812 326.263 28.0039 325.263 28.0039C324.552 28.0039 323.806 28.1328 323.025 28.3906C322.244 28.6484 321.416 29.0391 320.541 29.5625V27.1719C321.345 26.7891 322.134 26.5 322.908 26.3047C323.689 26.1094 324.459 26.0117 325.216 26.0117C326.927 26.0117 328.302 26.4688 329.341 27.3828C330.388 28.2891 330.912 29.4805 330.912 30.957C330.912 31.707 330.736 32.457 330.384 33.207C330.041 33.957 329.478 34.7852 328.697 35.6914C328.259 36.1992 327.623 36.9023 326.787 37.8008C325.959 38.6992 324.693 40.043 322.99 41.832ZM345.413 26.7148V28.8945C344.921 28.6055 344.397 28.3867 343.843 28.2383C343.288 28.082 342.71 28.0039 342.108 28.0039C340.608 28.0039 339.472 28.5703 338.698 29.7031C337.925 30.8281 337.538 32.4883 337.538 34.6836C337.913 33.9023 338.432 33.3047 339.097 32.8906C339.761 32.4688 340.522 32.2578 341.382 32.2578C343.069 32.2578 344.374 32.7773 345.296 33.8164C346.225 34.8477 346.69 36.3125 346.69 38.2109C346.69 40.1016 346.214 41.5664 345.261 42.6055C344.307 43.6445 342.968 44.1641 341.241 44.1641C339.21 44.1641 337.722 43.4375 336.776 41.9844C335.831 40.5234 335.358 38.2266 335.358 35.0938C335.358 32.1406 335.925 29.8906 337.057 28.3438C338.198 26.7891 339.847 26.0117 342.003 26.0117C342.581 26.0117 343.159 26.0742 343.737 26.1992C344.315 26.3164 344.874 26.4883 345.413 26.7148ZM341.194 34.1094C340.186 34.1094 339.393 34.4727 338.815 35.1992C338.237 35.9258 337.948 36.9297 337.948 38.2109C337.948 39.4922 338.237 40.4961 338.815 41.2227C339.393 41.9492 340.186 42.3125 341.194 42.3125C342.241 42.3125 343.03 41.9688 343.561 41.2812C344.093 40.5859 344.358 39.5625 344.358 38.2109C344.358 36.8516 344.093 35.8281 343.561 35.1406C343.03 34.4531 342.241 34.1094 341.194 34.1094ZM367.326 41.832H371.005V28.4609L367.044 29.3516V27.1953L370.982 26.3281H373.349V41.832H376.982V43.8242H367.326V41.832ZM387.956 28.4844L382.436 37.7305H387.956V28.4844ZM387.569 26.3281H390.311V37.7305H392.643V39.6523H390.311V43.8242H387.956V39.6523H380.538V37.4141L387.569 26.3281ZM400.254 31.3672H403.207V34.918H400.254V31.3672ZM400.254 40.25H403.207V43.8242H400.254V40.25ZM414.075 41.832H422.115V43.8242H411.486V41.832C412.947 40.293 414.224 38.9336 415.318 37.7539C416.411 36.5742 417.165 35.7422 417.579 35.2578C418.361 34.3047 418.888 33.5352 419.161 32.9492C419.435 32.3555 419.572 31.75 419.572 31.1328C419.572 30.1562 419.283 29.3906 418.704 28.8359C418.134 28.2812 417.349 28.0039 416.349 28.0039C415.638 28.0039 414.892 28.1328 414.111 28.3906C413.329 28.6484 412.501 29.0391 411.626 29.5625V27.1719C412.431 26.7891 413.22 26.5 413.993 26.3047C414.775 26.1094 415.544 26.0117 416.302 26.0117C418.013 26.0117 419.388 26.4688 420.427 27.3828C421.474 28.2891 421.997 29.4805 421.997 30.957C421.997 31.707 421.822 32.457 421.47 33.207C421.126 33.957 420.564 34.7852 419.783 35.6914C419.345 36.1992 418.708 36.9023 417.872 37.8008C417.044 38.6992 415.779 40.043 414.075 41.832ZM433.499 28.4844L427.979 37.7305H433.499V28.4844ZM433.112 26.3281H435.854V37.7305H438.186V39.6523H435.854V43.8242H433.499V39.6523H426.081V37.4141L433.112 26.3281ZM445.797 31.3672H448.75V34.918H445.797V31.3672ZM445.797 40.25H448.75V43.8242H445.797V40.25ZM457.673 26.3281H466.532V28.3203H459.829V32.6211C460.165 32.4961 460.501 32.4062 460.837 32.3516C461.181 32.2891 461.525 32.2578 461.868 32.2578C463.681 32.2578 465.118 32.793 466.181 33.8633C467.243 34.9336 467.775 36.3828 467.775 38.2109C467.775 40.0547 467.216 41.5078 466.099 42.5703C464.989 43.6328 463.47 44.1641 461.54 44.1641C460.61 44.1641 459.759 44.1016 458.985 43.9766C458.22 43.8516 457.532 43.6641 456.923 43.4141V41.0117C457.642 41.4023 458.364 41.6953 459.091 41.8906C459.818 42.0781 460.56 42.1719 461.318 42.1719C462.622 42.1719 463.626 41.8281 464.329 41.1406C465.04 40.4531 465.396 39.4766 465.396 38.2109C465.396 36.9609 465.028 35.9883 464.294 35.293C463.568 34.5977 462.552 34.25 461.247 34.25C460.614 34.25 459.997 34.3242 459.396 34.4727C458.794 34.6133 458.22 34.8281 457.673 35.1172V26.3281ZM479.522 34.4609C480.67 34.7656 481.549 35.3086 482.159 36.0898C482.768 36.8633 483.073 37.832 483.073 38.9961C483.073 40.6055 482.53 41.8711 481.444 42.793C480.366 43.707 478.87 44.1641 476.955 44.1641C476.151 44.1641 475.33 44.0898 474.495 43.9414C473.659 43.793 472.838 43.5781 472.034 43.2969V40.9414C472.83 41.3555 473.616 41.6641 474.389 41.8672C475.163 42.0703 475.932 42.1719 476.698 42.1719C477.995 42.1719 478.991 41.8789 479.686 41.293C480.381 40.707 480.729 39.8633 480.729 38.7617C480.729 37.7461 480.381 36.9414 479.686 36.3477C478.991 35.7461 478.049 35.4453 476.862 35.4453H475.057V33.5H476.862C477.948 33.5 478.795 33.2617 479.405 32.7852C480.014 32.3086 480.319 31.6445 480.319 30.793C480.319 29.8945 480.034 29.207 479.463 28.7305C478.901 28.2461 478.096 28.0039 477.049 28.0039C476.354 28.0039 475.635 28.082 474.893 28.2383C474.151 28.3945 473.373 28.6289 472.561 28.9414V26.7617C473.506 26.5117 474.346 26.3242 475.08 26.1992C475.823 26.0742 476.479 26.0117 477.049 26.0117C478.752 26.0117 480.112 26.4414 481.127 27.3008C482.151 28.1523 482.663 29.2852 482.663 30.6992C482.663 31.6602 482.393 32.4609 481.854 33.1016C481.323 33.7422 480.545 34.1953 479.522 34.4609ZM508.009 32.2109C506.915 32.2109 506.087 32.6367 505.524 33.4883C504.962 34.3398 504.681 35.6016 504.681 37.2734C504.681 38.9375 504.962 40.1992 505.524 41.0586C506.087 41.9102 506.915 42.3359 508.009 42.3359C509.11 42.3359 509.942 41.9102 510.505 41.0586C511.067 40.1992 511.349 38.9375 511.349 37.2734C511.349 35.6016 511.067 34.3398 510.505 33.4883C509.942 32.6367 509.11 32.2109 508.009 32.2109ZM508.009 30.3828C509.829 30.3828 511.22 30.9727 512.181 32.1523C513.149 33.332 513.634 35.0391 513.634 37.2734C513.634 39.5156 513.153 41.2266 512.192 42.4062C511.231 43.5781 509.837 44.1641 508.009 44.1641C506.188 44.1641 504.798 43.5781 503.837 42.4062C502.876 41.2266 502.395 39.5156 502.395 37.2734C502.395 35.0391 502.876 33.332 503.837 32.1523C504.798 30.9727 506.188 30.3828 508.009 30.3828ZM528.287 35.6914V43.8242H526.119V35.6914C526.119 34.5117 525.912 33.6445 525.498 33.0898C525.084 32.5352 524.436 32.2578 523.553 32.2578C522.545 32.2578 521.768 32.6172 521.221 33.3359C520.682 34.0469 520.412 35.0703 520.412 36.4062V43.8242H518.256V30.6992H520.412V32.668C520.795 31.918 521.315 31.3516 521.971 30.9688C522.627 30.5781 523.405 30.3828 524.303 30.3828C525.639 30.3828 526.635 30.8242 527.291 31.707C527.955 32.582 528.287 33.9102 528.287 35.6914ZM553.528 26.9727V30.6992H558.427V32.375H553.528V39.5C553.528 40.4688 553.712 41.1445 554.079 41.5273C554.446 41.9102 555.087 42.1016 556.001 42.1016H558.427V43.8242H555.79C554.173 43.8242 553.032 43.5 552.368 42.8516C551.704 42.2031 551.372 41.0859 551.372 39.5V32.375H547.868V30.6992H551.372V26.9727H553.528ZM568.709 26.9727V30.6992H573.607V32.375H568.709V39.5C568.709 40.4688 568.893 41.1445 569.26 41.5273C569.627 41.9102 570.268 42.1016 571.182 42.1016H573.607V43.8242H570.971C569.354 43.8242 568.213 43.5 567.549 42.8516C566.885 42.2031 566.553 41.0859 566.553 39.5V32.375H563.049V30.6992H566.553V26.9727H568.709ZM586.749 39.6055C586.39 40.5195 585.933 41.7227 585.378 43.2148C584.605 45.2773 584.085 46.5352 583.82 46.9883C583.46 47.5977 583.011 48.0547 582.472 48.3594C581.933 48.6641 581.304 48.8164 580.585 48.8164H578.851V47.0117H580.128C580.761 47.0117 581.257 46.8281 581.617 46.4609C581.976 46.0938 582.433 45.1445 582.988 43.6133L577.913 30.6992H580.199L584.089 40.9648L587.921 30.6992H590.206L586.749 39.6055ZM603.278 31.1562V33.2656C602.661 32.9062 602.04 32.6367 601.415 32.457C600.79 32.2773 600.153 32.1875 599.505 32.1875C598.528 32.1875 597.797 32.3477 597.313 32.668C596.837 32.9805 596.598 33.4609 596.598 34.1094C596.598 34.6953 596.778 35.1328 597.137 35.4219C597.497 35.7109 598.391 35.9922 599.821 36.2656L600.688 36.4297C601.758 36.6328 602.567 37.0391 603.114 37.6484C603.669 38.2578 603.946 39.0508 603.946 40.0273C603.946 41.3242 603.485 42.3398 602.563 43.0742C601.641 43.8008 600.36 44.1641 598.719 44.1641C598.071 44.1641 597.391 44.0938 596.68 43.9531C595.969 43.8203 595.2 43.6172 594.372 43.3438V41.1172C595.176 41.5312 595.946 41.8438 596.68 42.0547C597.415 42.2578 598.11 42.3594 598.766 42.3594C599.719 42.3594 600.458 42.168 600.981 41.7852C601.505 41.3945 601.766 40.8516 601.766 40.1562C601.766 39.1562 600.809 38.4648 598.895 38.082L598.801 38.0586L597.993 37.8945C596.751 37.6523 595.844 37.2461 595.274 36.6758C594.704 36.0977 594.419 35.3125 594.419 34.3203C594.419 33.0625 594.844 32.0938 595.696 31.4141C596.547 30.7266 597.762 30.3828 599.34 30.3828C600.044 30.3828 600.719 30.4492 601.368 30.582C602.016 30.707 602.653 30.8984 603.278 31.1562ZM612.717 35.0352C612.717 34.6055 612.865 34.2344 613.162 33.9219C613.467 33.6094 613.83 33.4531 614.252 33.4531C614.689 33.4531 615.064 33.6094 615.377 33.9219C615.689 34.2344 615.846 34.6055 615.846 35.0352C615.846 35.4727 615.689 35.8438 615.377 36.1484C615.072 36.4531 614.697 36.6055 614.252 36.6055C613.814 36.6055 613.447 36.457 613.15 36.1602C612.861 35.8633 612.717 35.4883 612.717 35.0352ZM614.275 27.8867C613.174 27.8867 612.35 28.4805 611.803 29.668C611.264 30.8555 610.994 32.6641 610.994 35.0938C610.994 37.5156 611.264 39.3203 611.803 40.5078C612.35 41.6953 613.174 42.2891 614.275 42.2891C615.385 42.2891 616.209 41.6953 616.748 40.5078C617.295 39.3203 617.568 37.5156 617.568 35.0938C617.568 32.6641 617.295 30.8555 616.748 29.668C616.209 28.4805 615.385 27.8867 614.275 27.8867ZM614.275 26.0117C616.143 26.0117 617.553 26.7773 618.506 28.3086C619.467 29.8398 619.947 32.1016 619.947 35.0938C619.947 38.0781 619.467 40.3359 618.506 41.8672C617.553 43.3984 616.143 44.1641 614.275 44.1641C612.408 44.1641 610.998 43.3984 610.045 41.8672C609.092 40.3359 608.615 38.0781 608.615 35.0938C608.615 32.1016 609.092 29.8398 610.045 28.3086C610.998 26.7773 612.408 26.0117 614.275 26.0117ZM627.898 35.0352C627.898 34.6055 628.046 34.2344 628.343 33.9219C628.648 33.6094 629.011 33.4531 629.433 33.4531C629.87 33.4531 630.245 33.6094 630.558 33.9219C630.87 34.2344 631.027 34.6055 631.027 35.0352C631.027 35.4727 630.87 35.8438 630.558 36.1484C630.253 36.4531 629.878 36.6055 629.433 36.6055C628.995 36.6055 628.628 36.457 628.331 36.1602C628.042 35.8633 627.898 35.4883 627.898 35.0352ZM629.456 27.8867C628.355 27.8867 627.53 28.4805 626.984 29.668C626.445 30.8555 626.175 32.6641 626.175 35.0938C626.175 37.5156 626.445 39.3203 626.984 40.5078C627.53 41.6953 628.355 42.2891 629.456 42.2891C630.566 42.2891 631.39 41.6953 631.929 40.5078C632.476 39.3203 632.749 37.5156 632.749 35.0938C632.749 32.6641 632.476 30.8555 631.929 29.668C631.39 28.4805 630.566 27.8867 629.456 27.8867ZM629.456 26.0117C631.323 26.0117 632.734 26.7773 633.687 28.3086C634.648 29.8398 635.128 32.1016 635.128 35.0938C635.128 38.0781 634.648 40.3359 633.687 41.8672C632.734 43.3984 631.323 44.1641 629.456 44.1641C627.589 44.1641 626.179 43.3984 625.226 41.8672C624.273 40.3359 623.796 38.0781 623.796 35.0938C623.796 32.1016 624.273 29.8398 625.226 28.3086C626.179 26.7773 627.589 26.0117 629.456 26.0117ZM643.079 35.0352C643.079 34.6055 643.227 34.2344 643.524 33.9219C643.829 33.6094 644.192 33.4531 644.614 33.4531C645.051 33.4531 645.426 33.6094 645.739 33.9219C646.051 34.2344 646.208 34.6055 646.208 35.0352C646.208 35.4727 646.051 35.8438 645.739 36.1484C645.434 36.4531 645.059 36.6055 644.614 36.6055C644.176 36.6055 643.809 36.457 643.512 36.1602C643.223 35.8633 643.079 35.4883 643.079 35.0352ZM644.637 27.8867C643.536 27.8867 642.711 28.4805 642.165 29.668C641.625 30.8555 641.356 32.6641 641.356 35.0938C641.356 37.5156 641.625 39.3203 642.165 40.5078C642.711 41.6953 643.536 42.2891 644.637 42.2891C645.747 42.2891 646.571 41.6953 647.11 40.5078C647.657 39.3203 647.93 37.5156 647.93 35.0938C647.93 32.6641 647.657 30.8555 647.11 29.668C646.571 28.4805 645.747 27.8867 644.637 27.8867ZM644.637 26.0117C646.504 26.0117 647.915 26.7773 648.868 28.3086C649.829 29.8398 650.309 32.1016 650.309 35.0938C650.309 38.0781 649.829 40.3359 648.868 41.8672C647.915 43.3984 646.504 44.1641 644.637 44.1641C642.77 44.1641 641.36 43.3984 640.407 41.8672C639.454 40.3359 638.977 38.0781 638.977 35.0938C638.977 32.1016 639.454 29.8398 640.407 28.3086C641.36 26.7773 642.77 26.0117 644.637 26.0117ZM17.7305 56.3281H28.0312V58.3203H20.1094V63.4766H27.293V65.4688H20.1094V73.8242H17.7305V56.3281ZM43.2122 66.7227V67.7773H33.8723V67.8477C33.8723 69.2773 34.2434 70.3828 34.9856 71.1641C35.7356 71.9453 36.7903 72.3359 38.1497 72.3359C38.8372 72.3359 39.5559 72.2266 40.3059 72.0078C41.0559 71.7891 41.8567 71.457 42.7083 71.0117V73.1562C41.888 73.4922 41.095 73.7422 40.3294 73.9062C39.5716 74.0781 38.8372 74.1641 38.1263 74.1641C36.0872 74.1641 34.4934 73.5547 33.345 72.3359C32.1966 71.1094 31.6223 69.4219 31.6223 67.2734C31.6223 65.1797 32.1848 63.5078 33.3098 62.2578C34.4348 61.0078 35.9348 60.3828 37.8098 60.3828C39.4817 60.3828 40.7981 60.9492 41.7591 62.082C42.7278 63.2148 43.2122 64.7617 43.2122 66.7227ZM41.0559 66.0898C41.0247 64.8242 40.7239 63.8633 40.1536 63.207C39.5911 62.543 38.7786 62.2109 37.7161 62.2109C36.677 62.2109 35.8216 62.5547 35.1497 63.2422C34.4778 63.9297 34.0794 64.8828 33.9544 66.1016L41.0559 66.0898ZM57.6783 65.6914V73.8242H55.5103V65.6914C55.5103 64.5117 55.3033 63.6445 54.8892 63.0898C54.4752 62.5352 53.8267 62.2578 52.9439 62.2578C51.9361 62.2578 51.1588 62.6172 50.6119 63.3359C50.0728 64.0469 49.8033 65.0703 49.8033 66.4062V73.8242H47.647V60.6992H49.8033V62.668C50.1861 61.918 50.7056 61.3516 51.3619 60.9688C52.0181 60.5781 52.7955 60.3828 53.6939 60.3828C55.0298 60.3828 56.0259 60.8242 56.6822 61.707C57.3463 62.582 57.6783 63.9102 57.6783 65.6914ZM74.078 63.4062C73.617 63.0469 73.1483 62.7852 72.6717 62.6211C72.1952 62.457 71.6717 62.375 71.1014 62.375C69.7577 62.375 68.7303 62.7969 68.0194 63.6406C67.3084 64.4844 66.953 65.7031 66.953 67.2969V73.8242H64.785V60.6992H66.953V63.2656C67.3123 62.3359 67.8631 61.625 68.6053 61.1328C69.3553 60.6328 70.242 60.3828 71.2655 60.3828C71.7967 60.3828 72.2928 60.4492 72.7537 60.582C73.2147 60.7148 73.6561 60.9219 74.078 61.2031V63.4062ZM78.7238 60.6992H84.2433V72.1484H88.5206V73.8242H77.8097V72.1484H82.087V62.375H78.7238V60.6992ZM82.087 55.5898H84.2433V58.3203H82.087V55.5898ZM102.307 61.1562V63.2656C101.69 62.9062 101.069 62.6367 100.444 62.457C99.8187 62.2773 99.182 62.1875 98.5336 62.1875C97.557 62.1875 96.8266 62.3477 96.3422 62.668C95.8656 62.9805 95.6273 63.4609 95.6273 64.1094C95.6273 64.6953 95.807 65.1328 96.1664 65.4219C96.5258 65.7109 97.4203 65.9922 98.85 66.2656L99.7172 66.4297C100.787 66.6328 101.596 67.0391 102.143 67.6484C102.698 68.2578 102.975 69.0508 102.975 70.0273C102.975 71.3242 102.514 72.3398 101.592 73.0742C100.67 73.8008 99.3891 74.1641 97.7484 74.1641C97.1 74.1641 96.4203 74.0938 95.7094 73.9531C94.9984 73.8203 94.2289 73.6172 93.4008 73.3438V71.1172C94.2055 71.5312 94.975 71.8438 95.7094 72.0547C96.4437 72.2578 97.1391 72.3594 97.7953 72.3594C98.7484 72.3594 99.4867 72.168 100.01 71.7852C100.534 71.3945 100.795 70.8516 100.795 70.1562C100.795 69.1562 99.8383 68.4648 97.9242 68.082L97.8305 68.0586L97.0219 67.8945C95.7797 67.6523 94.8734 67.2461 94.3031 66.6758C93.7328 66.0977 93.4477 65.3125 93.4477 64.3203C93.4477 63.0625 93.8734 62.0938 94.725 61.4141C95.5766 60.7266 96.7914 60.3828 98.3695 60.3828C99.0727 60.3828 99.7484 60.4492 100.397 60.582C101.045 60.707 101.682 60.8984 102.307 61.1562ZM110.257 66.2891H116.363V68.2109H110.257V66.2891ZM122.274 56.3281H125.438L128.462 65.2344L131.509 56.3281H134.685V73.8242H132.493V58.3672L129.376 67.5898H127.583L124.454 58.3672V73.8242H122.274V56.3281ZM144.674 67.2266H143.959C142.701 67.2266 141.752 67.4492 141.112 67.8945C140.479 68.332 140.162 68.9883 140.162 69.8633C140.162 70.6523 140.401 71.2656 140.877 71.7031C141.354 72.1406 142.014 72.3594 142.858 72.3594C144.045 72.3594 144.979 71.9492 145.658 71.1289C146.338 70.3008 146.682 69.1602 146.69 67.707V67.2266H144.674ZM148.858 66.3359V73.8242H146.69V71.8789C146.229 72.6602 145.647 73.2383 144.944 73.6133C144.248 73.9805 143.401 74.1641 142.401 74.1641C141.065 74.1641 139.998 73.7891 139.201 73.0391C138.405 72.2812 138.006 71.2695 138.006 70.0039C138.006 68.543 138.494 67.4336 139.471 66.6758C140.455 65.918 141.897 65.5391 143.795 65.5391H146.69V65.1992C146.682 64.1523 146.416 63.3945 145.893 62.9258C145.369 62.4492 144.533 62.2109 143.385 62.2109C142.651 62.2109 141.908 62.3164 141.158 62.5273C140.408 62.7383 139.678 63.0469 138.967 63.4531V61.2969C139.764 60.9922 140.526 60.7656 141.252 60.6172C141.987 60.4609 142.698 60.3828 143.385 60.3828C144.471 60.3828 145.397 60.543 146.162 60.8633C146.936 61.1836 147.561 61.6641 148.037 62.3047C148.334 62.6953 148.545 63.1797 148.67 63.7578C148.795 64.3281 148.858 65.1875 148.858 66.3359ZM164.062 73.1562C163.484 73.4922 162.886 73.7422 162.269 73.9062C161.66 74.0781 161.035 74.1641 160.394 74.1641C158.363 74.1641 156.773 73.5547 155.625 72.3359C154.484 71.1172 153.914 69.4297 153.914 67.2734C153.914 65.1172 154.484 63.4297 155.625 62.2109C156.773 60.9922 158.363 60.3828 160.394 60.3828C161.027 60.3828 161.644 60.4648 162.246 60.6289C162.847 60.793 163.453 61.0469 164.062 61.3906V63.6523C163.492 63.1445 162.917 62.7773 162.339 62.5508C161.769 62.3242 161.121 62.2109 160.394 62.2109C159.042 62.2109 158.003 62.6484 157.277 63.5234C156.55 64.3984 156.187 65.6484 156.187 67.2734C156.187 68.8906 156.55 70.1406 157.277 71.0234C158.011 71.8984 159.05 72.3359 160.394 72.3359C161.144 72.3359 161.816 72.2227 162.41 71.9961C163.003 71.7617 163.554 71.4023 164.062 70.918V73.1562ZM171.134 65.4688V71.8789H173.934C175.309 71.8789 176.29 71.6406 176.876 71.1641C177.462 70.6797 177.755 69.8867 177.755 68.7852C177.755 67.6445 177.446 66.8086 176.829 66.2773C176.212 65.7383 175.247 65.4688 173.934 65.4688H171.134ZM171.134 58.2734V63.5469H173.887C175.028 63.5469 175.852 63.3281 176.36 62.8906C176.876 62.4531 177.134 61.7461 177.134 60.7695C177.134 59.8867 176.88 59.25 176.372 58.8594C175.872 58.4688 175.044 58.2734 173.887 58.2734H171.134ZM168.755 56.3281H173.934C175.723 56.3281 177.102 56.7148 178.071 57.4883C179.04 58.2617 179.524 59.3555 179.524 60.7695C179.524 61.8398 179.266 62.6836 178.751 63.3008C178.243 63.918 177.477 64.3047 176.454 64.4609C177.602 64.6328 178.501 65.125 179.149 65.9375C179.805 66.7422 180.134 67.7695 180.134 69.0195C180.134 70.6055 179.614 71.8047 178.575 72.6172C177.536 73.4219 175.989 73.8242 173.934 73.8242H168.755V56.3281ZM189.209 62.2109C188.115 62.2109 187.287 62.6367 186.725 63.4883C186.162 64.3398 185.881 65.6016 185.881 67.2734C185.881 68.9375 186.162 70.1992 186.725 71.0586C187.287 71.9102 188.115 72.3359 189.209 72.3359C190.311 72.3359 191.143 71.9102 191.705 71.0586C192.268 70.1992 192.549 68.9375 192.549 67.2734C192.549 65.6016 192.268 64.3398 191.705 63.4883C191.143 62.6367 190.311 62.2109 189.209 62.2109ZM189.209 60.3828C191.029 60.3828 192.42 60.9727 193.381 62.1523C194.35 63.332 194.834 65.0391 194.834 67.2734C194.834 69.5156 194.354 71.2266 193.393 72.4062C192.432 73.5781 191.037 74.1641 189.209 74.1641C187.389 74.1641 185.998 73.5781 185.037 72.4062C184.076 71.2266 183.596 69.5156 183.596 67.2734C183.596 65.0391 184.076 63.332 185.037 62.1523C185.998 60.9727 187.389 60.3828 189.209 60.3828ZM204.39 62.2109C203.296 62.2109 202.468 62.6367 201.906 63.4883C201.343 64.3398 201.062 65.6016 201.062 67.2734C201.062 68.9375 201.343 70.1992 201.906 71.0586C202.468 71.9102 203.296 72.3359 204.39 72.3359C205.492 72.3359 206.324 71.9102 206.886 71.0586C207.449 70.1992 207.73 68.9375 207.73 67.2734C207.73 65.6016 207.449 64.3398 206.886 63.4883C206.324 62.6367 205.492 62.2109 204.39 62.2109ZM204.39 60.3828C206.21 60.3828 207.601 60.9727 208.562 62.1523C209.531 63.332 210.015 65.0391 210.015 67.2734C210.015 69.5156 209.535 71.2266 208.574 72.4062C207.613 73.5781 206.218 74.1641 204.39 74.1641C202.57 74.1641 201.179 73.5781 200.218 72.4062C199.257 71.2266 198.777 69.5156 198.777 67.2734C198.777 65.0391 199.257 63.332 200.218 62.1523C201.179 60.9727 202.57 60.3828 204.39 60.3828ZM215.118 55.5898H217.344V66.1484L223.005 60.6992H225.63L220.462 65.6445L226.438 73.8242H223.801L218.95 67.0508L217.344 68.5625V73.8242H215.118V55.5898ZM231.705 66.2891H237.81V68.2109H231.705V66.2891ZM247.39 58.2734V64.8477H250.132C251.226 64.8477 252.077 64.5586 252.687 63.9805C253.304 63.4023 253.613 62.5938 253.613 61.5547C253.613 60.5156 253.308 59.7109 252.698 59.1406C252.089 58.5625 251.234 58.2734 250.132 58.2734H247.39ZM245.023 56.3281H250.132C252.085 56.3281 253.566 56.7734 254.573 57.6641C255.581 58.5469 256.085 59.8438 256.085 61.5547C256.085 63.2812 255.581 64.5859 254.573 65.4688C253.573 66.3516 252.093 66.793 250.132 66.793H247.39V73.8242H245.023V56.3281ZM271.43 63.4062C270.969 63.0469 270.5 62.7852 270.024 62.6211C269.547 62.457 269.024 62.375 268.454 62.375C267.11 62.375 266.083 62.7969 265.372 63.6406C264.661 64.4844 264.305 65.7031 264.305 67.2969V73.8242H262.137V60.6992H264.305V63.2656C264.665 62.3359 265.215 61.625 265.958 61.1328C266.708 60.6328 267.594 60.3828 268.618 60.3828C269.149 60.3828 269.645 60.4492 270.106 60.582C270.567 60.7148 271.008 60.9219 271.43 61.2031V63.4062ZM280.295 62.2109C279.201 62.2109 278.373 62.6367 277.81 63.4883C277.248 64.3398 276.967 65.6016 276.967 67.2734C276.967 68.9375 277.248 70.1992 277.81 71.0586C278.373 71.9102 279.201 72.3359 280.295 72.3359C281.396 72.3359 282.228 71.9102 282.791 71.0586C283.353 70.1992 283.635 68.9375 283.635 67.2734C283.635 65.6016 283.353 64.3398 282.791 63.4883C282.228 62.6367 281.396 62.2109 280.295 62.2109ZM280.295 60.3828C282.115 60.3828 283.506 60.9727 284.467 62.1523C285.435 63.332 285.92 65.0391 285.92 67.2734C285.92 69.5156 285.439 71.2266 284.478 72.4062C283.517 73.5781 282.123 74.1641 280.295 74.1641C278.474 74.1641 277.084 73.5781 276.123 72.4062C275.162 71.2266 274.681 69.5156 274.681 67.2734C274.681 65.0391 275.162 63.332 276.123 62.1523C277.084 60.9727 278.474 60.3828 280.295 60.3828ZM293.987 61.3672H296.94V64.918H293.987V61.3672ZM293.987 70.25H296.94V73.8242H293.987V70.25ZM316.856 64.6836V66.7227C316.27 67.1836 315.696 67.5234 315.133 67.7422C314.578 67.9531 313.992 68.0586 313.375 68.0586C312.672 68.0586 311.879 67.8594 310.996 67.4609C310.825 67.3828 310.696 67.3281 310.61 67.2969C310.008 67.0391 309.504 66.8633 309.098 66.7695C308.7 66.6758 308.301 66.6289 307.903 66.6289C307.285 66.6289 306.7 66.7461 306.145 66.9805C305.598 67.207 305.039 67.5664 304.469 68.0586V66.0195C305.078 65.5508 305.668 65.2109 306.239 65C306.809 64.7891 307.418 64.6836 308.067 64.6836C308.481 64.6836 308.883 64.7266 309.274 64.8125C309.664 64.8984 310.149 65.0625 310.727 65.3047C310.821 65.3438 310.95 65.4023 311.114 65.4805C312.02 65.9102 312.836 66.125 313.563 66.125C314.11 66.125 314.649 66.0078 315.18 65.7734C315.719 65.5312 316.278 65.168 316.856 64.6836ZM346.257 55.5898V57.3828H343.807C343.034 57.3828 342.495 57.543 342.19 57.8633C341.893 58.1758 341.745 58.7344 341.745 59.5391V60.6992H346.257V62.375H341.745V73.8242H339.589V62.375H336.085V60.6992H339.589V59.7852C339.589 58.3477 339.917 57.2891 340.573 56.6094C341.237 55.9297 342.268 55.5898 343.667 55.5898H346.257ZM362.012 66.7227V67.7773H352.672V67.8477C352.672 69.2773 353.043 70.3828 353.785 71.1641C354.535 71.9453 355.59 72.3359 356.949 72.3359C357.637 72.3359 358.356 72.2266 359.106 72.0078C359.856 71.7891 360.656 71.457 361.508 71.0117V73.1562C360.688 73.4922 359.895 73.7422 359.129 73.9062C358.371 74.0781 357.637 74.1641 356.926 74.1641C354.887 74.1641 353.293 73.5547 352.145 72.3359C350.996 71.1094 350.422 69.4219 350.422 67.2734C350.422 65.1797 350.985 63.5078 352.11 62.2578C353.235 61.0078 354.735 60.3828 356.61 60.3828C358.281 60.3828 359.598 60.9492 360.559 62.082C361.527 63.2148 362.012 64.7617 362.012 66.7227ZM359.856 66.0898C359.824 64.8242 359.524 63.8633 358.953 63.207C358.391 62.543 357.578 62.2109 356.516 62.2109C355.477 62.2109 354.621 62.5547 353.949 63.2422C353.277 63.9297 352.879 64.8828 352.754 66.1016L359.856 66.0898ZM376.478 65.6914V73.8242H374.31V65.6914C374.31 64.5117 374.103 63.6445 373.689 63.0898C373.275 62.5352 372.626 62.2578 371.744 62.2578C370.736 62.2578 369.958 62.6172 369.412 63.3359C368.872 64.0469 368.603 65.0703 368.603 66.4062V73.8242H366.447V60.6992H368.603V62.668C368.986 61.918 369.505 61.3516 370.162 60.9688C370.818 60.5781 371.595 60.3828 372.494 60.3828C373.83 60.3828 374.826 60.8242 375.482 61.707C376.146 62.582 376.478 63.9102 376.478 65.6914ZM392.878 63.4062C392.417 63.0469 391.948 62.7852 391.471 62.6211C390.995 62.457 390.471 62.375 389.901 62.375C388.557 62.375 387.53 62.7969 386.819 63.6406C386.108 64.4844 385.753 65.7031 385.753 67.2969V73.8242H383.585V60.6992H385.753V63.2656C386.112 62.3359 386.663 61.625 387.405 61.1328C388.155 60.6328 389.042 60.3828 390.065 60.3828C390.596 60.3828 391.092 60.4492 391.553 60.582C392.014 60.7148 392.456 60.9219 392.878 61.2031V63.4062ZM397.523 60.6992H403.043V72.1484H407.32V73.8242H396.609V72.1484H400.887V62.375H397.523V60.6992ZM400.887 55.5898H403.043V58.3203H400.887V55.5898ZM421.107 61.1562V63.2656C420.49 62.9062 419.868 62.6367 419.243 62.457C418.618 62.2773 417.982 62.1875 417.333 62.1875C416.357 62.1875 415.626 62.3477 415.142 62.668C414.665 62.9805 414.427 63.4609 414.427 64.1094C414.427 64.6953 414.607 65.1328 414.966 65.4219C415.325 65.7109 416.22 65.9922 417.65 66.2656L418.517 66.4297C419.587 66.6328 420.396 67.0391 420.943 67.6484C421.497 68.2578 421.775 69.0508 421.775 70.0273C421.775 71.3242 421.314 72.3398 420.392 73.0742C419.47 73.8008 418.189 74.1641 416.548 74.1641C415.9 74.1641 415.22 74.0938 414.509 73.9531C413.798 73.8203 413.029 73.6172 412.2 73.3438V71.1172C413.005 71.5312 413.775 71.8438 414.509 72.0547C415.243 72.2578 415.939 72.3594 416.595 72.3594C417.548 72.3594 418.286 72.168 418.81 71.7852C419.333 71.3945 419.595 70.8516 419.595 70.1562C419.595 69.1562 418.638 68.4648 416.724 68.082L416.63 68.0586L415.822 67.8945C414.579 67.6523 413.673 67.2461 413.103 66.6758C412.533 66.0977 412.247 65.3125 412.247 64.3203C412.247 63.0625 412.673 62.0938 413.525 61.4141C414.376 60.7266 415.591 60.3828 417.169 60.3828C417.872 60.3828 418.548 60.4492 419.197 60.582C419.845 60.707 420.482 60.8984 421.107 61.1562ZM432.995 67.0273V72.1133C433.854 72.0898 434.526 71.8516 435.01 71.3984C435.495 70.9453 435.737 70.3281 435.737 69.5469C435.737 68.8203 435.518 68.2578 435.081 67.8594C434.643 67.4531 433.948 67.1758 432.995 67.0273ZM431.823 64.8008V59.9609C431.01 59.9922 430.374 60.2266 429.913 60.6641C429.46 61.1016 429.233 61.6875 429.233 62.4219C429.233 63.0938 429.444 63.625 429.866 64.0156C430.295 64.4062 430.948 64.668 431.823 64.8008ZM432.995 77.3516H431.823L431.811 73.8242C431.014 73.7852 430.221 73.6758 429.432 73.4961C428.651 73.3164 427.878 73.0664 427.112 72.7461V70.6367C427.893 71.1211 428.678 71.4922 429.467 71.75C430.264 72.0078 431.049 72.1445 431.823 72.1602V66.793C430.26 66.5508 429.085 66.0742 428.295 65.3633C427.506 64.6523 427.112 63.7109 427.112 62.5391C427.112 61.3125 427.522 60.3359 428.342 59.6094C429.17 58.875 430.331 58.4531 431.823 58.3438V55.5898H432.995L433.006 58.3438C433.624 58.3828 434.249 58.4609 434.881 58.5781C435.514 58.6953 436.159 58.8555 436.815 59.0586V61.0859C436.151 60.75 435.503 60.4922 434.87 60.3125C434.245 60.125 433.62 60.0156 432.995 59.9844V65.0352C434.604 65.2773 435.831 65.7773 436.674 66.5352C437.518 67.293 437.94 68.2734 437.94 69.4766C437.94 70.6797 437.483 71.6836 436.569 72.4883C435.663 73.293 434.475 73.7305 433.006 73.8008L432.995 77.3516ZM465.665 56.3281H467.892L458.681 76.0508H456.443L465.665 56.3281ZM472.713 68.8555V60.7227H474.87V68.8555C474.87 70.0352 475.077 70.9023 475.491 71.457C475.913 72.0117 476.561 72.2891 477.436 72.2891C478.452 72.2891 479.229 71.9336 479.768 71.2227C480.307 70.5039 480.577 69.4766 480.577 68.1406V60.7227H482.745V73.8242H480.577V71.8555C480.194 72.6133 479.67 73.1875 479.006 73.5781C478.35 73.9688 477.58 74.1641 476.698 74.1641C475.354 74.1641 474.354 73.7266 473.698 72.8516C473.041 71.9688 472.713 70.6367 472.713 68.8555ZM497.011 61.1562V63.2656C496.394 62.9062 495.773 62.6367 495.148 62.457C494.523 62.2773 493.886 62.1875 493.238 62.1875C492.261 62.1875 491.531 62.3477 491.047 62.668C490.57 62.9805 490.332 63.4609 490.332 64.1094C490.332 64.6953 490.511 65.1328 490.871 65.4219C491.23 65.7109 492.125 65.9922 493.554 66.2656L494.422 66.4297C495.492 66.6328 496.3 67.0391 496.847 67.6484C497.402 68.2578 497.679 69.0508 497.679 70.0273C497.679 71.3242 497.218 72.3398 496.297 73.0742C495.375 73.8008 494.093 74.1641 492.453 74.1641C491.804 74.1641 491.125 74.0938 490.414 73.9531C489.703 73.8203 488.933 73.6172 488.105 73.3438V71.1172C488.91 71.5312 489.679 71.8438 490.414 72.0547C491.148 72.2578 491.843 72.3594 492.5 72.3594C493.453 72.3594 494.191 72.168 494.715 71.7852C495.238 71.3945 495.5 70.8516 495.5 70.1562C495.5 69.1562 494.543 68.4648 492.629 68.082L492.535 68.0586L491.726 67.8945C490.484 67.6523 489.578 67.2461 489.008 66.6758C488.437 66.0977 488.152 65.3125 488.152 64.3203C488.152 63.0625 488.578 62.0938 489.429 61.4141C490.281 60.7266 491.496 60.3828 493.074 60.3828C493.777 60.3828 494.453 60.4492 495.101 60.582C495.75 60.707 496.386 60.8984 497.011 61.1562ZM514.325 63.4062C513.864 63.0469 513.395 62.7852 512.919 62.6211C512.442 62.457 511.919 62.375 511.349 62.375C510.005 62.375 508.978 62.7969 508.267 63.6406C507.556 64.4844 507.2 65.7031 507.2 67.2969V73.8242H505.032V60.6992H507.2V63.2656C507.56 62.3359 508.11 61.625 508.853 61.1328C509.603 60.6328 510.489 60.3828 511.513 60.3828C512.044 60.3828 512.54 60.4492 513.001 60.582C513.462 60.7148 513.903 60.9219 514.325 61.2031V63.4062ZM526.389 56.3281H528.615L519.405 76.0508H517.166L526.389 56.3281ZM538.64 69.0664C538.64 70.0352 538.816 70.7656 539.167 71.2578C539.527 71.75 540.054 71.9961 540.75 71.9961H543.269V73.8242H540.539C539.25 73.8242 538.25 73.4102 537.539 72.582C536.835 71.7539 536.484 70.582 536.484 69.0664V57.1484H533.027V55.4609H538.64V69.0664ZM549.333 60.6992H554.852V72.1484H559.13V73.8242H548.419V72.1484H552.696V62.375H549.333V60.6992ZM552.696 55.5898H554.852V58.3203H552.696V55.5898ZM572.272 67.2734C572.272 65.6016 572.006 64.3398 571.475 63.4883C570.943 62.6367 570.158 62.2109 569.119 62.2109C568.072 62.2109 567.279 62.6406 566.74 63.5C566.201 64.3516 565.932 65.6094 565.932 67.2734C565.932 68.9297 566.201 70.1875 566.74 71.0469C567.279 71.9062 568.072 72.3359 569.119 72.3359C570.158 72.3359 570.943 71.9102 571.475 71.0586C572.006 70.207 572.272 68.9453 572.272 67.2734ZM565.932 62.375C566.275 61.7344 566.748 61.2422 567.35 60.8984C567.959 60.5547 568.662 60.3828 569.459 60.3828C571.037 60.3828 572.279 60.9922 573.186 62.2109C574.092 63.4219 574.545 65.0938 574.545 67.2266C574.545 69.3906 574.088 71.0898 573.174 72.3242C572.268 73.5508 571.022 74.1641 569.436 74.1641C568.654 74.1641 567.963 73.9961 567.361 73.6602C566.768 73.3164 566.291 72.8203 565.932 72.1719V73.8242H563.775V55.5898H565.932V62.375ZM589.726 66.7227V67.7773H580.386V67.8477C580.386 69.2773 580.757 70.3828 581.499 71.1641C582.249 71.9453 583.304 72.3359 584.663 72.3359C585.351 72.3359 586.07 72.2266 586.82 72.0078C587.57 71.7891 588.37 71.457 589.222 71.0117V73.1562C588.402 73.4922 587.609 73.7422 586.843 73.9062C586.085 74.0781 585.351 74.1641 584.64 74.1641C582.601 74.1641 581.007 73.5547 579.859 72.3359C578.71 71.1094 578.136 69.4219 578.136 67.2734C578.136 65.1797 578.699 63.5078 579.824 62.2578C580.949 61.0078 582.449 60.3828 584.324 60.3828C585.995 60.3828 587.312 60.9492 588.273 62.082C589.242 63.2148 589.726 64.7617 589.726 66.7227ZM587.57 66.0898C587.538 64.8242 587.238 63.8633 586.667 63.207C586.105 62.543 585.292 62.2109 584.23 62.2109C583.191 62.2109 582.335 62.5547 581.663 63.2422C580.992 63.9297 580.593 64.8828 580.468 66.1016L587.57 66.0898ZM604.977 60.6992L600.278 66.9805L605.434 73.8242H602.938L599.094 68.5625L595.262 73.8242H592.766L597.922 66.9805L593.223 60.6992H595.614L599.094 65.4453L602.551 60.6992H604.977ZM620.088 66.7227V67.7773H610.748V67.8477C610.748 69.2773 611.119 70.3828 611.861 71.1641C612.611 71.9453 613.666 72.3359 615.025 72.3359C615.713 72.3359 616.432 72.2266 617.182 72.0078C617.932 71.7891 618.732 71.457 619.584 71.0117V73.1562C618.764 73.4922 617.971 73.7422 617.205 73.9062C616.447 74.0781 615.713 74.1641 615.002 74.1641C612.963 74.1641 611.369 73.5547 610.221 72.3359C609.072 71.1094 608.498 69.4219 608.498 67.2734C608.498 65.1797 609.06 63.5078 610.185 62.2578C611.31 61.0078 612.81 60.3828 614.685 60.3828C616.357 60.3828 617.674 60.9492 618.635 62.082C619.603 63.2148 620.088 64.7617 620.088 66.7227ZM617.932 66.0898C617.9 64.8242 617.6 63.8633 617.029 63.207C616.467 62.543 615.654 62.2109 614.592 62.2109C613.553 62.2109 612.697 62.5547 612.025 63.2422C611.353 63.9297 610.955 64.8828 610.83 66.1016L617.932 66.0898ZM634.671 73.1562C634.093 73.4922 633.495 73.7422 632.878 73.9062C632.269 74.0781 631.644 74.1641 631.003 74.1641C628.972 74.1641 627.382 73.5547 626.234 72.3359C625.093 71.1172 624.523 69.4297 624.523 67.2734C624.523 65.1172 625.093 63.4297 626.234 62.2109C627.382 60.9922 628.972 60.3828 631.003 60.3828C631.636 60.3828 632.253 60.4648 632.855 60.6289C633.456 60.793 634.062 61.0469 634.671 61.3906V63.6523C634.101 63.1445 633.527 62.7773 632.948 62.5508C632.378 62.3242 631.73 62.2109 631.003 62.2109C629.652 62.2109 628.612 62.6484 627.886 63.5234C627.159 64.3984 626.796 65.6484 626.796 67.2734C626.796 68.8906 627.159 70.1406 627.886 71.0234C628.62 71.8984 629.659 72.3359 631.003 72.3359C631.753 72.3359 632.425 72.2227 633.019 71.9961C633.612 71.7617 634.163 71.4023 634.671 70.918V73.1562ZM647.836 56.3281H650.063L640.852 76.0508H638.614L647.836 56.3281ZM659.631 74.0586V62.375H655.916V60.6992H661.787V74.0586C661.787 75.582 661.435 76.7539 660.732 77.5742C660.037 78.4023 659.045 78.8164 657.756 78.8164H654.779V76.9883H657.521C658.224 76.9883 658.752 76.7422 659.103 76.25C659.455 75.7656 659.631 75.0352 659.631 74.0586ZM659.631 55.5898H661.787V58.3203H659.631V55.5898ZM676.007 67.2266H675.292C674.034 67.2266 673.085 67.4492 672.444 67.8945C671.812 68.332 671.495 68.9883 671.495 69.8633C671.495 70.6523 671.733 71.2656 672.21 71.7031C672.687 72.1406 673.347 72.3594 674.19 72.3594C675.378 72.3594 676.312 71.9492 676.991 71.1289C677.671 70.3008 678.015 69.1602 678.023 67.707V67.2266H676.007ZM680.19 66.3359V73.8242H678.023V71.8789C677.562 72.6602 676.98 73.2383 676.276 73.6133C675.581 73.9805 674.733 74.1641 673.733 74.1641C672.398 74.1641 671.331 73.7891 670.534 73.0391C669.737 72.2812 669.339 71.2695 669.339 70.0039C669.339 68.543 669.827 67.4336 670.804 66.6758C671.788 65.918 673.23 65.5391 675.128 65.5391H678.023V65.1992C678.015 64.1523 677.749 63.3945 677.226 62.9258C676.702 62.4492 675.866 62.2109 674.718 62.2109C673.983 62.2109 673.241 62.3164 672.491 62.5273C671.741 62.7383 671.011 63.0469 670.3 63.4531V61.2969C671.097 60.9922 671.858 60.7656 672.585 60.6172C673.319 60.4609 674.03 60.3828 674.718 60.3828C675.804 60.3828 676.73 60.543 677.495 60.8633C678.269 61.1836 678.894 61.6641 679.37 62.3047C679.667 62.6953 679.878 63.1797 680.003 63.7578C680.128 64.3281 680.19 65.1875 680.19 66.3359ZM684.133 60.6992H686.371L690.18 71.7148L694 60.6992H696.239L691.575 73.8242H688.797L684.133 60.6992ZM706.369 67.2266H705.654C704.396 67.2266 703.447 67.4492 702.806 67.8945C702.173 68.332 701.857 68.9883 701.857 69.8633C701.857 70.6523 702.095 71.2656 702.572 71.7031C703.048 72.1406 703.709 72.3594 704.552 72.3594C705.74 72.3594 706.673 71.9492 707.353 71.1289C708.033 70.3008 708.377 69.1602 708.384 67.707V67.2266H706.369ZM710.552 66.3359V73.8242H708.384V71.8789C707.923 72.6602 707.341 73.2383 706.638 73.6133C705.943 73.9805 705.095 74.1641 704.095 74.1641C702.759 74.1641 701.693 73.7891 700.896 73.0391C700.099 72.2812 699.701 71.2695 699.701 70.0039C699.701 68.543 700.189 67.4336 701.166 66.6758C702.15 65.918 703.591 65.5391 705.49 65.5391H708.384V65.1992C708.377 64.1523 708.111 63.3945 707.588 62.9258C707.064 62.4492 706.228 62.2109 705.08 62.2109C704.345 62.2109 703.603 62.3164 702.853 62.5273C702.103 62.7383 701.373 63.0469 700.662 63.4531V61.2969C701.459 60.9922 702.22 60.7656 702.947 60.6172C703.681 60.4609 704.392 60.3828 705.08 60.3828C706.166 60.3828 707.091 60.543 707.857 60.8633C708.63 61.1836 709.255 61.6641 709.732 62.3047C710.029 62.6953 710.24 63.1797 710.365 63.7578C710.49 64.3281 710.552 65.1875 710.552 66.3359ZM727.772 78.5469V79.4844H713.323V78.5469H727.772ZM740.82 65.6914V73.8242H738.653V65.6914C738.653 64.5117 738.445 63.6445 738.031 63.0898C737.617 62.5352 736.969 62.2578 736.086 62.2578C735.078 62.2578 734.301 62.6172 733.754 63.3359C733.215 64.0469 732.945 65.0703 732.945 66.4062V73.8242H730.789V55.5898H732.945V62.668C733.328 61.918 733.848 61.3516 734.504 60.9688C735.16 60.5781 735.938 60.3828 736.836 60.3828C738.172 60.3828 739.168 60.8242 739.824 61.707C740.488 62.582 740.82 63.9102 740.82 65.6914ZM750.904 62.2109C749.81 62.2109 748.982 62.6367 748.419 63.4883C747.857 64.3398 747.576 65.6016 747.576 67.2734C747.576 68.9375 747.857 70.1992 748.419 71.0586C748.982 71.9102 749.81 72.3359 750.904 72.3359C752.005 72.3359 752.837 71.9102 753.4 71.0586C753.962 70.1992 754.244 68.9375 754.244 67.2734C754.244 65.6016 753.962 64.3398 753.4 63.4883C752.837 62.6367 752.005 62.2109 750.904 62.2109ZM750.904 60.3828C752.724 60.3828 754.115 60.9727 755.076 62.1523C756.044 63.332 756.529 65.0391 756.529 67.2734C756.529 69.5156 756.048 71.2266 755.087 72.4062C754.126 73.5781 752.732 74.1641 750.904 74.1641C749.083 74.1641 747.693 73.5781 746.732 72.4062C745.771 71.2266 745.29 69.5156 745.29 67.2734C745.29 65.0391 745.771 63.332 746.732 62.1523C747.693 60.9727 749.083 60.3828 750.904 60.3828ZM766.788 62.0352C767.053 61.4727 767.389 61.0586 767.796 60.793C768.21 60.5195 768.706 60.3828 769.284 60.3828C770.339 60.3828 771.081 60.793 771.51 61.6133C771.948 62.4258 772.167 63.9609 772.167 66.2188V73.8242H770.198V66.3125C770.198 64.4609 770.093 63.3125 769.882 62.8672C769.678 62.4141 769.303 62.1875 768.757 62.1875C768.132 62.1875 767.702 62.4297 767.468 62.9141C767.241 63.3906 767.128 64.5234 767.128 66.3125V73.8242H765.159V66.3125C765.159 64.4375 765.046 63.2812 764.819 62.8438C764.6 62.4062 764.202 62.1875 763.624 62.1875C763.053 62.1875 762.655 62.4297 762.428 62.9141C762.21 63.3906 762.1 64.5234 762.1 66.3125V73.8242H760.143V60.6992H762.1V61.8242C762.358 61.3555 762.678 61 763.061 60.7578C763.452 60.5078 763.893 60.3828 764.385 60.3828C764.979 60.3828 765.471 60.5195 765.862 60.793C766.26 61.0664 766.569 61.4805 766.788 62.0352ZM787.078 66.7227V67.7773H777.738V67.8477C777.738 69.2773 778.109 70.3828 778.852 71.1641C779.602 71.9453 780.656 72.3359 782.016 72.3359C782.703 72.3359 783.422 72.2266 784.172 72.0078C784.922 71.7891 785.723 71.457 786.574 71.0117V73.1562C785.754 73.4922 784.961 73.7422 784.195 73.9062C783.438 74.0781 782.703 74.1641 781.992 74.1641C779.953 74.1641 778.359 73.5547 777.211 72.3359C776.062 71.1094 775.488 69.4219 775.488 67.2734C775.488 65.1797 776.051 63.5078 777.176 62.2578C778.301 61.0078 779.801 60.3828 781.676 60.3828C783.348 60.3828 784.664 60.9492 785.625 62.082C786.594 63.2148 787.078 64.7617 787.078 66.7227ZM784.922 66.0898C784.891 64.8242 784.59 63.8633 784.02 63.207C783.457 62.543 782.645 62.2109 781.582 62.2109C780.543 62.2109 779.688 62.5547 779.016 63.2422C778.344 63.9297 777.945 64.8828 777.82 66.1016L784.922 66.0898ZM25.418 86.3281H27.6445L18.4336 106.051H16.1953L25.418 86.3281ZM32.7005 86.3281H35.0794V101.832H43.5286V103.824H32.7005V86.3281ZM48.3619 90.6992H53.8814V102.148H58.1588V103.824H47.4478V102.148H51.7252V92.375H48.3619V90.6992ZM51.7252 85.5898H53.8814V88.3203H51.7252V85.5898ZM71.3006 97.2734C71.3006 95.6016 71.035 94.3398 70.5037 93.4883C69.9725 92.6367 69.1873 92.2109 68.1483 92.2109C67.1014 92.2109 66.3084 92.6406 65.7694 93.5C65.2303 94.3516 64.9608 95.6094 64.9608 97.2734C64.9608 98.9297 65.2303 100.188 65.7694 101.047C66.3084 101.906 67.1014 102.336 68.1483 102.336C69.1873 102.336 69.9725 101.91 70.5037 101.059C71.035 100.207 71.3006 98.9453 71.3006 97.2734ZM64.9608 92.375C65.3045 91.7344 65.7772 91.2422 66.3787 90.8984C66.9881 90.5547 67.6912 90.3828 68.4881 90.3828C70.0662 90.3828 71.3084 90.9922 72.2147 92.2109C73.1209 93.4219 73.5741 95.0938 73.5741 97.2266C73.5741 99.3906 73.117 101.09 72.203 102.324C71.2967 103.551 70.0506 104.164 68.4647 104.164C67.6834 104.164 66.992 103.996 66.3905 103.66C65.7967 103.316 65.3202 102.82 64.9608 102.172V103.824H62.8045V85.5898H64.9608V92.375ZM89.2589 93.4062C88.798 93.0469 88.3292 92.7852 87.8527 92.6211C87.3761 92.457 86.8527 92.375 86.2823 92.375C84.9386 92.375 83.9113 92.7969 83.2003 93.6406C82.4894 94.4844 82.1339 95.7031 82.1339 97.2969V103.824H79.9659V90.6992H82.1339V93.2656C82.4933 92.3359 83.0441 91.625 83.7863 91.1328C84.5363 90.6328 85.423 90.3828 86.4464 90.3828C86.9777 90.3828 87.4738 90.4492 87.9347 90.582C88.3956 90.7148 88.837 90.9219 89.2589 91.2031V93.4062ZM99.1312 97.2266H98.4164C97.1586 97.2266 96.2094 97.4492 95.5687 97.8945C94.9359 98.332 94.6195 98.9883 94.6195 99.8633C94.6195 100.652 94.8578 101.266 95.3344 101.703C95.8109 102.141 96.4711 102.359 97.3148 102.359C98.5023 102.359 99.4359 101.949 100.116 101.129C100.795 100.301 101.139 99.1602 101.147 97.707V97.2266H99.1312ZM103.315 96.3359V103.824H101.147V101.879C100.686 102.66 100.104 103.238 99.4008 103.613C98.7055 103.98 97.8578 104.164 96.8578 104.164C95.5219 104.164 94.4555 103.789 93.6586 103.039C92.8617 102.281 92.4633 101.27 92.4633 100.004C92.4633 98.543 92.9516 97.4336 93.9281 96.6758C94.9125 95.918 96.3539 95.5391 98.2523 95.5391H101.147V95.1992C101.139 94.1523 100.873 93.3945 100.35 92.9258C99.8266 92.4492 98.9906 92.2109 97.8422 92.2109C97.1078 92.2109 96.3656 92.3164 95.6156 92.5273C94.8656 92.7383 94.1352 93.0469 93.4242 93.4531V91.2969C94.2211 90.9922 94.9828 90.7656 95.7094 90.6172C96.4437 90.4609 97.1547 90.3828 97.8422 90.3828C98.9281 90.3828 99.8539 90.543 100.62 90.8633C101.393 91.1836 102.018 91.6641 102.495 92.3047C102.791 92.6953 103.002 93.1797 103.127 93.7578C103.252 94.3281 103.315 95.1875 103.315 96.3359ZM119.621 93.4062C119.16 93.0469 118.691 92.7852 118.215 92.6211C117.738 92.457 117.215 92.375 116.644 92.375C115.3 92.375 114.273 92.7969 113.562 93.6406C112.851 94.4844 112.496 95.7031 112.496 97.2969V103.824H110.328V90.6992H112.496V93.2656C112.855 92.3359 113.406 91.625 114.148 91.1328C114.898 90.6328 115.785 90.3828 116.808 90.3828C117.34 90.3828 117.836 90.4492 118.297 90.582C118.757 90.7148 119.199 90.9219 119.621 91.2031V93.4062ZM131.321 99.6055C130.962 100.52 130.505 101.723 129.95 103.215C129.177 105.277 128.657 106.535 128.392 106.988C128.032 107.598 127.583 108.055 127.044 108.359C126.505 108.664 125.876 108.816 125.157 108.816H123.423V107.012H124.7C125.333 107.012 125.829 106.828 126.188 106.461C126.548 106.094 127.005 105.145 127.56 103.613L122.485 90.6992H124.77L128.661 100.965L132.493 90.6992H134.778L131.321 99.6055ZM146.865 86.3281H149.092L139.881 106.051H137.643L146.865 86.3281ZM152.906 103.109V100.344C153.617 100.977 154.351 101.453 155.109 101.773C155.867 102.086 156.652 102.242 157.464 102.242C158.582 102.242 159.359 101.953 159.796 101.375C160.242 100.789 160.464 99.7031 160.464 98.1172V88.3203H156V86.3281H162.832V98.1172C162.832 100.32 162.417 101.879 161.589 102.793C160.769 103.707 159.394 104.164 157.464 104.164C156.714 104.164 155.968 104.078 155.226 103.906C154.484 103.734 153.71 103.469 152.906 103.109ZM175.036 97.2266H174.321C173.063 97.2266 172.114 97.4492 171.473 97.8945C170.841 98.332 170.524 98.9883 170.524 99.8633C170.524 100.652 170.762 101.266 171.239 101.703C171.716 102.141 172.376 102.359 173.22 102.359C174.407 102.359 175.341 101.949 176.02 101.129C176.7 100.301 177.044 99.1602 177.052 97.707V97.2266H175.036ZM179.22 96.3359V103.824H177.052V101.879C176.591 102.66 176.009 103.238 175.305 103.613C174.61 103.98 173.762 104.164 172.762 104.164C171.427 104.164 170.36 103.789 169.563 103.039C168.766 102.281 168.368 101.27 168.368 100.004C168.368 98.543 168.856 97.4336 169.833 96.6758C170.817 95.918 172.259 95.5391 174.157 95.5391H177.052V95.1992C177.044 94.1523 176.778 93.3945 176.255 92.9258C175.731 92.4492 174.895 92.2109 173.747 92.2109C173.012 92.2109 172.27 92.3164 171.52 92.5273C170.77 92.7383 170.04 93.0469 169.329 93.4531V91.2969C170.126 90.9922 170.887 90.7656 171.614 90.6172C172.348 90.4609 173.059 90.3828 173.747 90.3828C174.833 90.3828 175.759 90.543 176.524 90.8633C177.298 91.1836 177.923 91.6641 178.399 92.3047C178.696 92.6953 178.907 93.1797 179.032 93.7578C179.157 94.3281 179.22 95.1875 179.22 96.3359ZM183.162 90.6992H185.4L189.209 101.715L193.029 90.6992H195.268L190.604 103.824H187.826L183.162 90.6992ZM205.398 97.2266H204.683C203.425 97.2266 202.476 97.4492 201.835 97.8945C201.202 98.332 200.886 98.9883 200.886 99.8633C200.886 100.652 201.124 101.266 201.601 101.703C202.077 102.141 202.738 102.359 203.581 102.359C204.769 102.359 205.702 101.949 206.382 101.129C207.062 100.301 207.406 99.1602 207.413 97.707V97.2266H205.398ZM209.581 96.3359V103.824H207.413V101.879C206.952 102.66 206.37 103.238 205.667 103.613C204.972 103.98 204.124 104.164 203.124 104.164C201.788 104.164 200.722 103.789 199.925 103.039C199.128 102.281 198.73 101.27 198.73 100.004C198.73 98.543 199.218 97.4336 200.195 96.6758C201.179 95.918 202.62 95.5391 204.519 95.5391H207.413V95.1992C207.406 94.1523 207.14 93.3945 206.617 92.9258C206.093 92.4492 205.257 92.2109 204.109 92.2109C203.374 92.2109 202.632 92.3164 201.882 92.5273C201.132 92.7383 200.402 93.0469 199.691 93.4531V91.2969C200.488 90.9922 201.249 90.7656 201.976 90.6172C202.71 90.4609 203.421 90.3828 204.109 90.3828C205.195 90.3828 206.12 90.543 206.886 90.8633C207.66 91.1836 208.285 91.6641 208.761 92.3047C209.058 92.6953 209.269 93.1797 209.394 93.7578C209.519 94.3281 209.581 95.1875 209.581 96.3359ZM222.77 86.3281H224.997L215.786 106.051H213.548L222.77 86.3281ZM228.81 103.109V100.344C229.521 100.977 230.256 101.453 231.014 101.773C231.771 102.086 232.557 102.242 233.369 102.242C234.486 102.242 235.264 101.953 235.701 101.375C236.146 100.789 236.369 99.7031 236.369 98.1172V88.3203H231.904V86.3281H238.736V98.1172C238.736 100.32 238.322 101.879 237.494 102.793C236.674 103.707 235.299 104.164 233.369 104.164C232.619 104.164 231.873 104.078 231.131 103.906C230.389 103.734 229.615 103.469 228.81 103.109ZM250.941 97.2266H250.226C248.968 97.2266 248.019 97.4492 247.378 97.8945C246.745 98.332 246.429 98.9883 246.429 99.8633C246.429 100.652 246.667 101.266 247.144 101.703C247.62 102.141 248.28 102.359 249.124 102.359C250.312 102.359 251.245 101.949 251.925 101.129C252.605 100.301 252.948 99.1602 252.956 97.707V97.2266H250.941ZM255.124 96.3359V103.824H252.956V101.879C252.495 102.66 251.913 103.238 251.21 103.613C250.515 103.98 249.667 104.164 248.667 104.164C247.331 104.164 246.265 103.789 245.468 103.039C244.671 102.281 244.273 101.27 244.273 100.004C244.273 98.543 244.761 97.4336 245.738 96.6758C246.722 95.918 248.163 95.5391 250.062 95.5391H252.956V95.1992C252.948 94.1523 252.683 93.3945 252.159 92.9258C251.636 92.4492 250.8 92.2109 249.652 92.2109C248.917 92.2109 248.175 92.3164 247.425 92.5273C246.675 92.7383 245.945 93.0469 245.234 93.4531V91.2969C246.03 90.9922 246.792 90.7656 247.519 90.6172C248.253 90.4609 248.964 90.3828 249.652 90.3828C250.738 90.3828 251.663 90.543 252.429 90.8633C253.202 91.1836 253.827 91.6641 254.304 92.3047C254.601 92.6953 254.812 93.1797 254.937 93.7578C255.062 94.3281 255.124 95.1875 255.124 96.3359ZM259.067 90.6992H261.305L265.114 101.715L268.934 90.6992H271.172L266.508 103.824H263.731L259.067 90.6992ZM281.302 97.2266H280.588C279.33 97.2266 278.381 97.4492 277.74 97.8945C277.107 98.332 276.791 98.9883 276.791 99.8633C276.791 100.652 277.029 101.266 277.506 101.703C277.982 102.141 278.642 102.359 279.486 102.359C280.674 102.359 281.607 101.949 282.287 101.129C282.967 100.301 283.31 99.1602 283.318 97.707V97.2266H281.302ZM285.486 96.3359V103.824H283.318V101.879C282.857 102.66 282.275 103.238 281.572 103.613C280.877 103.98 280.029 104.164 279.029 104.164C277.693 104.164 276.627 103.789 275.83 103.039C275.033 102.281 274.635 101.27 274.635 100.004C274.635 98.543 275.123 97.4336 276.099 96.6758C277.084 95.918 278.525 95.5391 280.424 95.5391H283.318V95.1992C283.31 94.1523 283.045 93.3945 282.521 92.9258C281.998 92.4492 281.162 92.2109 280.013 92.2109C279.279 92.2109 278.537 92.3164 277.787 92.5273C277.037 92.7383 276.306 93.0469 275.595 93.4531V91.2969C276.392 90.9922 277.154 90.7656 277.881 90.6172C278.615 90.4609 279.326 90.3828 280.013 90.3828C281.099 90.3828 282.025 90.543 282.791 90.8633C283.564 91.1836 284.189 91.6641 284.666 92.3047C284.963 92.6953 285.174 93.1797 285.299 93.7578C285.424 94.3281 285.486 95.1875 285.486 96.3359ZM295.476 101.832L299.589 86.3281H302.038L296.917 103.824H294.046L288.925 86.3281H291.374L295.476 101.832ZM306.438 90.6992H311.957V102.148H316.235V103.824H305.524V102.148H309.801V92.375H306.438V90.6992ZM309.801 85.5898H311.957V88.3203H309.801V85.5898ZM332.154 93.4062C331.693 93.0469 331.224 92.7852 330.748 92.6211C330.271 92.457 329.748 92.375 329.177 92.375C327.834 92.375 326.806 92.7969 326.095 93.6406C325.384 94.4844 325.029 95.7031 325.029 97.2969V103.824H322.861V90.6992H325.029V93.2656C325.388 92.3359 325.939 91.625 326.681 91.1328C327.431 90.6328 328.318 90.3828 329.341 90.3828C329.873 90.3828 330.369 90.4492 330.83 90.582C331.291 90.7148 331.732 90.9219 332.154 91.2031V93.4062ZM340.995 86.9727V90.6992H345.893V92.375H340.995V99.5C340.995 100.469 341.179 101.145 341.546 101.527C341.913 101.91 342.554 102.102 343.468 102.102H345.893V103.824H343.257C341.64 103.824 340.499 103.5 339.835 102.852C339.171 102.203 338.839 101.086 338.839 99.5V92.375H335.335V90.6992H338.839V86.9727H340.995ZM351.266 98.8555V90.7227H353.422V98.8555C353.422 100.035 353.629 100.902 354.043 101.457C354.465 102.012 355.113 102.289 355.988 102.289C357.004 102.289 357.781 101.934 358.32 101.223C358.86 100.504 359.129 99.4766 359.129 98.1406V90.7227H361.297V103.824H359.129V101.855C358.746 102.613 358.223 103.188 357.559 103.578C356.902 103.969 356.133 104.164 355.25 104.164C353.906 104.164 352.906 103.727 352.25 102.852C351.594 101.969 351.266 100.637 351.266 98.8555ZM372.388 97.2266H371.673C370.415 97.2266 369.466 97.4492 368.826 97.8945C368.193 98.332 367.876 98.9883 367.876 99.8633C367.876 100.652 368.115 101.266 368.591 101.703C369.068 102.141 369.728 102.359 370.572 102.359C371.759 102.359 372.693 101.949 373.372 101.129C374.052 100.301 374.396 99.1602 374.404 97.707V97.2266H372.388ZM376.572 96.3359V103.824H374.404V101.879C373.943 102.66 373.361 103.238 372.658 103.613C371.962 103.98 371.115 104.164 370.115 104.164C368.779 104.164 367.712 103.789 366.915 103.039C366.119 102.281 365.72 101.27 365.72 100.004C365.72 98.543 366.208 97.4336 367.185 96.6758C368.169 95.918 369.611 95.5391 371.509 95.5391H374.404V95.1992C374.396 94.1523 374.13 93.3945 373.607 92.9258C373.083 92.4492 372.247 92.2109 371.099 92.2109C370.365 92.2109 369.622 92.3164 368.872 92.5273C368.122 92.7383 367.392 93.0469 366.681 93.4531V91.2969C367.478 90.9922 368.24 90.7656 368.966 90.6172C369.701 90.4609 370.412 90.3828 371.099 90.3828C372.185 90.3828 373.111 90.543 373.876 90.8633C374.65 91.1836 375.275 91.6641 375.751 92.3047C376.048 92.6953 376.259 93.1797 376.384 93.7578C376.509 94.3281 376.572 95.1875 376.572 96.3359ZM386.831 99.0664C386.831 100.035 387.007 100.766 387.358 101.258C387.717 101.75 388.245 101.996 388.94 101.996H391.46V103.824H388.729C387.44 103.824 386.44 103.41 385.729 102.582C385.026 101.754 384.675 100.582 384.675 99.0664V87.1484H381.217V85.4609H386.831V99.0664ZM395.531 86.3281H398.695L401.719 95.2344L404.766 86.3281H407.941V103.824H405.75V88.3672L402.633 97.5898H400.84L397.711 88.3672V103.824H395.531V86.3281ZM417.931 97.2266H417.216C415.958 97.2266 415.009 97.4492 414.368 97.8945C413.736 98.332 413.419 98.9883 413.419 99.8633C413.419 100.652 413.658 101.266 414.134 101.703C414.611 102.141 415.271 102.359 416.115 102.359C417.302 102.359 418.236 101.949 418.915 101.129C419.595 100.301 419.939 99.1602 419.947 97.707V97.2266H417.931ZM422.115 96.3359V103.824H419.947V101.879C419.486 102.66 418.904 103.238 418.2 103.613C417.505 103.98 416.658 104.164 415.658 104.164C414.322 104.164 413.255 103.789 412.458 103.039C411.661 102.281 411.263 101.27 411.263 100.004C411.263 98.543 411.751 97.4336 412.728 96.6758C413.712 95.918 415.154 95.5391 417.052 95.5391H419.947V95.1992C419.939 94.1523 419.673 93.3945 419.15 92.9258C418.626 92.4492 417.79 92.2109 416.642 92.2109C415.908 92.2109 415.165 92.3164 414.415 92.5273C413.665 92.7383 412.935 93.0469 412.224 93.4531V91.2969C413.021 90.9922 413.783 90.7656 414.509 90.6172C415.243 90.4609 415.954 90.3828 416.642 90.3828C417.728 90.3828 418.654 90.543 419.419 90.8633C420.193 91.1836 420.818 91.6641 421.294 92.3047C421.591 92.6953 421.802 93.1797 421.927 93.7578C422.052 94.3281 422.115 95.1875 422.115 96.3359ZM437.319 103.156C436.741 103.492 436.143 103.742 435.526 103.906C434.917 104.078 434.292 104.164 433.651 104.164C431.62 104.164 430.03 103.555 428.881 102.336C427.741 101.117 427.17 99.4297 427.17 97.2734C427.17 95.1172 427.741 93.4297 428.881 92.2109C430.03 90.9922 431.62 90.3828 433.651 90.3828C434.284 90.3828 434.901 90.4648 435.503 90.6289C436.104 90.793 436.71 91.0469 437.319 91.3906V93.6523C436.749 93.1445 436.174 92.7773 435.596 92.5508C435.026 92.3242 434.378 92.2109 433.651 92.2109C432.299 92.2109 431.26 92.6484 430.534 93.5234C429.807 94.3984 429.444 95.6484 429.444 97.2734C429.444 98.8906 429.807 100.141 430.534 101.023C431.268 101.898 432.307 102.336 433.651 102.336C434.401 102.336 435.073 102.223 435.667 101.996C436.26 101.762 436.811 101.402 437.319 100.918V103.156ZM452.383 95.6914V103.824H450.215V95.6914C450.215 94.5117 450.008 93.6445 449.594 93.0898C449.18 92.5352 448.531 92.2578 447.648 92.2578C446.64 92.2578 445.863 92.6172 445.316 93.3359C444.777 94.0469 444.508 95.0703 444.508 96.4062V103.824H442.351V85.5898H444.508V92.668C444.89 91.918 445.41 91.3516 446.066 90.9688C446.723 90.5781 447.5 90.3828 448.398 90.3828C449.734 90.3828 450.73 90.8242 451.387 91.707C452.051 92.582 452.383 93.9102 452.383 95.6914ZM458.247 90.6992H463.767V102.148H468.044V103.824H457.333V102.148H461.61V92.375H458.247V90.6992ZM461.61 85.5898H463.767V88.3203H461.61V85.5898ZM482.745 95.6914V103.824H480.577V95.6914C480.577 94.5117 480.37 93.6445 479.955 93.0898C479.541 92.5352 478.893 92.2578 478.01 92.2578C477.002 92.2578 476.225 92.6172 475.678 93.3359C475.139 94.0469 474.87 95.0703 474.87 96.4062V103.824H472.713V90.6992H474.87V92.668C475.252 91.918 475.772 91.3516 476.428 90.9688C477.084 90.5781 477.862 90.3828 478.76 90.3828C480.096 90.3828 481.092 90.8242 481.748 91.707C482.413 92.582 482.745 93.9102 482.745 95.6914ZM498.64 96.7227V97.7773H489.3V97.8477C489.3 99.2773 489.672 100.383 490.414 101.164C491.164 101.945 492.218 102.336 493.578 102.336C494.265 102.336 494.984 102.227 495.734 102.008C496.484 101.789 497.285 101.457 498.136 101.012V103.156C497.316 103.492 496.523 103.742 495.758 103.906C495 104.078 494.265 104.164 493.554 104.164C491.515 104.164 489.922 103.555 488.773 102.336C487.625 101.109 487.05 99.4219 487.05 97.2734C487.05 95.1797 487.613 93.5078 488.738 92.2578C489.863 91.0078 491.363 90.3828 493.238 90.3828C494.91 90.3828 496.226 90.9492 497.187 92.082C498.156 93.2148 498.64 94.7617 498.64 96.7227ZM496.484 96.0898C496.453 94.8242 496.152 93.8633 495.582 93.207C495.019 92.543 494.207 92.2109 493.144 92.2109C492.105 92.2109 491.25 92.5547 490.578 93.2422C489.906 93.9297 489.508 94.8828 489.383 96.1016L496.484 96.0898ZM512.192 91.1562V93.2656C511.575 92.9062 510.954 92.6367 510.329 92.457C509.704 92.2773 509.067 92.1875 508.419 92.1875C507.442 92.1875 506.712 92.3477 506.228 92.668C505.751 92.9805 505.513 93.4609 505.513 94.1094C505.513 94.6953 505.692 95.1328 506.052 95.4219C506.411 95.7109 507.306 95.9922 508.735 96.2656L509.603 96.4297C510.673 96.6328 511.481 97.0391 512.028 97.6484C512.583 98.2578 512.86 99.0508 512.86 100.027C512.86 101.324 512.399 102.34 511.478 103.074C510.556 103.801 509.274 104.164 507.634 104.164C506.985 104.164 506.306 104.094 505.595 103.953C504.884 103.82 504.114 103.617 503.286 103.344V101.117C504.091 101.531 504.86 101.844 505.595 102.055C506.329 102.258 507.024 102.359 507.681 102.359C508.634 102.359 509.372 102.168 509.895 101.785C510.419 101.395 510.681 100.852 510.681 100.156C510.681 99.1562 509.724 98.4648 507.81 98.082L507.716 98.0586L506.907 97.8945C505.665 97.6523 504.759 97.2461 504.188 96.6758C503.618 96.0977 503.333 95.3125 503.333 94.3203C503.333 93.0625 503.759 92.0938 504.61 91.4141C505.462 90.7266 506.677 90.3828 508.255 90.3828C508.958 90.3828 509.634 90.4492 510.282 90.582C510.931 90.707 511.567 90.8984 512.192 91.1562ZM526.389 86.3281H528.615L519.405 106.051H517.166L526.389 86.3281ZM538.183 104.059V92.375H534.468V90.6992H540.339V104.059C540.339 105.582 539.988 106.754 539.285 107.574C538.589 108.402 537.597 108.816 536.308 108.816H533.332V106.988H536.074C536.777 106.988 537.304 106.742 537.656 106.25C538.007 105.766 538.183 105.035 538.183 104.059ZM538.183 85.5898H540.339V88.3203H538.183V85.5898ZM556.388 92.375V85.5898H558.544V103.824H556.388V102.172C556.028 102.82 555.548 103.316 554.946 103.66C554.352 103.996 553.665 104.164 552.884 104.164C551.298 104.164 550.048 103.551 549.134 102.324C548.227 101.09 547.774 99.3906 547.774 97.2266C547.774 95.0938 548.231 93.4219 549.145 92.2109C550.059 90.9922 551.305 90.3828 552.884 90.3828C553.673 90.3828 554.368 90.5547 554.97 90.8984C555.571 91.2344 556.044 91.7266 556.388 92.375ZM550.048 97.2734C550.048 98.9453 550.313 100.207 550.845 101.059C551.376 101.91 552.161 102.336 553.2 102.336C554.239 102.336 555.028 101.906 555.567 101.047C556.114 100.188 556.388 98.9297 556.388 97.2734C556.388 95.6094 556.114 94.3516 555.567 93.5C555.028 92.6406 554.239 92.2109 553.2 92.2109C552.161 92.2109 551.376 92.6367 550.845 93.4883C550.313 94.3398 550.048 95.6016 550.048 97.2734ZM564.279 85.5898H566.506V96.1484L572.166 90.6992H574.791L569.623 95.6445L575.6 103.824H572.963L568.111 97.0508L566.506 98.5625V103.824H564.279V85.5898ZM579.859 101.832H583.538V88.4609L579.578 89.3516V87.1953L583.515 86.3281H585.882V101.832H589.515V103.824H579.859V101.832ZM597.606 100.25H600.559V103.824H597.606V100.25ZM614.275 95.5156C613.221 95.5156 612.404 95.8125 611.826 96.4062C611.256 96.9922 610.971 97.8242 610.971 98.9023C610.971 99.9805 611.26 100.82 611.838 101.422C612.424 102.016 613.236 102.312 614.275 102.312C615.338 102.312 616.154 102.02 616.725 101.434C617.303 100.84 617.592 99.9961 617.592 98.9023C617.592 97.832 617.299 97 616.713 96.4062C616.135 95.8125 615.322 95.5156 614.275 95.5156ZM612.213 94.5312C611.205 94.2734 610.416 93.793 609.846 93.0898C609.283 92.3867 609.002 91.5391 609.002 90.5469C609.002 89.1562 609.475 88.0547 610.42 87.2422C611.365 86.4219 612.65 86.0117 614.275 86.0117C615.908 86.0117 617.197 86.4219 618.143 87.2422C619.088 88.0547 619.56 89.1562 619.56 90.5469C619.56 91.5391 619.275 92.3867 618.705 93.0898C618.143 93.793 617.357 94.2734 616.35 94.5312C617.521 94.7891 618.416 95.3086 619.033 96.0898C619.658 96.8711 619.971 97.8828 619.971 99.125C619.971 100.703 619.467 101.938 618.459 102.828C617.451 103.719 616.057 104.164 614.275 104.164C612.494 104.164 611.1 103.723 610.092 102.84C609.092 101.949 608.592 100.719 608.592 99.1484C608.592 97.8984 608.9 96.8828 609.518 96.1016C610.143 95.3125 611.041 94.7891 612.213 94.5312ZM611.357 90.7695C611.357 91.707 611.607 92.4219 612.107 92.9141C612.607 93.4062 613.33 93.6523 614.275 93.6523C615.228 93.6523 615.955 93.4062 616.455 92.9141C616.955 92.4219 617.205 91.707 617.205 90.7695C617.205 89.8164 616.955 89.0898 616.455 88.5898C615.963 88.0898 615.236 87.8398 614.275 87.8398C613.33 87.8398 612.607 88.0938 612.107 88.6016C611.607 89.1016 611.357 89.8242 611.357 90.7695ZM627.968 100.25H630.921V103.824H627.968V100.25ZM643.079 95.0352C643.079 94.6055 643.227 94.2344 643.524 93.9219C643.829 93.6094 644.192 93.4531 644.614 93.4531C645.051 93.4531 645.426 93.6094 645.739 93.9219C646.051 94.2344 646.208 94.6055 646.208 95.0352C646.208 95.4727 646.051 95.8438 645.739 96.1484C645.434 96.4531 645.059 96.6055 644.614 96.6055C644.176 96.6055 643.809 96.457 643.512 96.1602C643.223 95.8633 643.079 95.4883 643.079 95.0352ZM644.637 87.8867C643.536 87.8867 642.711 88.4805 642.165 89.668C641.625 90.8555 641.356 92.6641 641.356 95.0938C641.356 97.5156 641.625 99.3203 642.165 100.508C642.711 101.695 643.536 102.289 644.637 102.289C645.747 102.289 646.571 101.695 647.11 100.508C647.657 99.3203 647.93 97.5156 647.93 95.0938C647.93 92.6641 647.657 90.8555 647.11 89.668C646.571 88.4805 645.747 87.8867 644.637 87.8867ZM644.637 86.0117C646.504 86.0117 647.915 86.7773 648.868 88.3086C649.829 89.8398 650.309 92.1016 650.309 95.0938C650.309 98.0781 649.829 100.336 648.868 101.867C647.915 103.398 646.504 104.164 644.637 104.164C642.77 104.164 641.36 103.398 640.407 101.867C639.454 100.336 638.977 98.0781 638.977 95.0938C638.977 92.1016 639.454 89.8398 640.407 88.3086C641.36 86.7773 642.77 86.0117 644.637 86.0117ZM667.049 108.547V109.484H652.599V108.547H667.049ZM672.151 101.832H680.19V103.824H669.562V101.832C671.023 100.293 672.3 98.9336 673.394 97.7539C674.487 96.5742 675.241 95.7422 675.655 95.2578C676.437 94.3047 676.964 93.5352 677.237 92.9492C677.511 92.3555 677.648 91.75 677.648 91.1328C677.648 90.1562 677.358 89.3906 676.78 88.8359C676.21 88.2812 675.425 88.0039 674.425 88.0039C673.714 88.0039 672.968 88.1328 672.187 88.3906C671.405 88.6484 670.577 89.0391 669.702 89.5625V87.1719C670.507 86.7891 671.296 86.5 672.069 86.3047C672.851 86.1094 673.62 86.0117 674.378 86.0117C676.089 86.0117 677.464 86.4688 678.503 87.3828C679.55 88.2891 680.073 89.4805 680.073 90.957C680.073 91.707 679.898 92.457 679.546 93.207C679.202 93.957 678.64 94.7852 677.858 95.6914C677.421 96.1992 676.784 96.9023 675.948 97.8008C675.12 98.6992 673.855 100.043 672.151 101.832ZM689.946 96.0664C690.953 96.0664 691.742 95.7031 692.313 94.9766C692.891 94.25 693.18 93.2461 693.18 91.9648C693.18 90.6836 692.891 89.6797 692.313 88.9531C691.742 88.2266 690.953 87.8633 689.946 87.8633C688.899 87.8633 688.11 88.2109 687.578 88.9062C687.047 89.5938 686.782 90.6133 686.782 91.9648C686.782 93.3242 687.043 94.3477 687.567 95.0352C688.098 95.7227 688.891 96.0664 689.946 96.0664ZM685.727 103.461V101.281C686.219 101.57 686.742 101.793 687.297 101.949C687.852 102.098 688.43 102.172 689.032 102.172C690.532 102.172 691.664 101.609 692.43 100.484C693.203 99.3516 693.59 97.6875 693.59 95.4922C693.223 96.2734 692.707 96.875 692.043 97.2969C691.379 97.7109 690.617 97.918 689.758 97.918C688.071 97.918 686.762 97.3984 685.832 96.3594C684.91 95.3203 684.45 93.8477 684.45 91.9414C684.45 90.0586 684.922 88.6016 685.867 87.5703C686.821 86.5312 688.164 86.0117 689.899 86.0117C691.93 86.0117 693.418 86.7422 694.364 88.2031C695.309 89.6641 695.782 91.9609 695.782 95.0938C695.782 98.0391 695.211 100.289 694.071 101.844C692.938 103.391 691.289 104.164 689.125 104.164C688.555 104.164 687.981 104.102 687.403 103.977C686.825 103.859 686.266 103.688 685.727 103.461ZM701.306 101.832H704.986V88.4609L701.025 89.3516V87.1953L704.963 86.3281H707.33V101.832H710.963V103.824H701.306V101.832ZM719.054 100.25H722.007V103.824H719.054V100.25ZM735.535 104.059V92.375H731.82V90.6992H737.692V104.059C737.692 105.582 737.34 106.754 736.637 107.574C735.942 108.402 734.949 108.816 733.66 108.816H730.684V106.988H733.426C734.129 106.988 734.656 106.742 735.008 106.25C735.36 105.766 735.535 105.035 735.535 104.059ZM735.535 85.5898H737.692V88.3203H735.535V85.5898ZM753.74 92.375V85.5898H755.896V103.824H753.74V102.172C753.38 102.82 752.9 103.316 752.298 103.66C751.705 103.996 751.017 104.164 750.236 104.164C748.65 104.164 747.4 103.551 746.486 102.324C745.58 101.09 745.126 99.3906 745.126 97.2266C745.126 95.0938 745.583 93.4219 746.497 92.2109C747.412 90.9922 748.658 90.3828 750.236 90.3828C751.025 90.3828 751.72 90.5547 752.322 90.8984C752.923 91.2344 753.396 91.7266 753.74 92.375ZM747.4 97.2734C747.4 98.9453 747.665 100.207 748.197 101.059C748.728 101.91 749.513 102.336 750.552 102.336C751.591 102.336 752.38 101.906 752.919 101.047C753.466 100.188 753.74 98.9297 753.74 97.2734C753.74 95.6094 753.466 94.3516 752.919 93.5C752.38 92.6406 751.591 92.2109 750.552 92.2109C749.513 92.2109 748.728 92.6367 748.197 93.4883C747.665 94.3398 747.4 95.6016 747.4 97.2734ZM761.632 85.5898H763.858V96.1484L769.518 90.6992H772.143L766.975 95.6445L772.952 103.824H770.315L765.464 97.0508L763.858 98.5625V103.824H761.632V85.5898ZM784.465 86.3281H786.691L777.48 106.051H775.242L784.465 86.3281ZM801.802 103.203C801.201 103.523 800.583 103.762 799.951 103.918C799.318 104.082 798.646 104.164 797.935 104.164C795.693 104.164 793.951 103.371 792.708 101.785C791.474 100.199 790.857 97.9688 790.857 95.0938C790.857 92.2344 791.478 90.0078 792.72 88.4141C793.97 86.8125 795.708 86.0117 797.935 86.0117C798.646 86.0117 799.318 86.0938 799.951 86.2578C800.583 86.4141 801.201 86.6523 801.802 86.9727V89.3984C801.224 88.9219 800.603 88.5586 799.939 88.3086C799.275 88.0586 798.607 87.9336 797.935 87.9336C796.396 87.9336 795.243 88.5273 794.478 89.7148C793.712 90.9023 793.329 92.6953 793.329 95.0938C793.329 97.4844 793.712 99.2734 794.478 100.461C795.243 101.648 796.396 102.242 797.935 102.242C798.622 102.242 799.294 102.117 799.951 101.867C800.615 101.617 801.232 101.254 801.802 100.777V103.203ZM811.628 92.2109C810.534 92.2109 809.706 92.6367 809.143 93.4883C808.581 94.3398 808.299 95.6016 808.299 97.2734C808.299 98.9375 808.581 100.199 809.143 101.059C809.706 101.91 810.534 102.336 811.628 102.336C812.729 102.336 813.561 101.91 814.124 101.059C814.686 100.199 814.967 98.9375 814.967 97.2734C814.967 95.6016 814.686 94.3398 814.124 93.4883C813.561 92.6367 812.729 92.2109 811.628 92.2109ZM811.628 90.3828C813.448 90.3828 814.838 90.9727 815.799 92.1523C816.768 93.332 817.253 95.0391 817.253 97.2734C817.253 99.5156 816.772 101.227 815.811 102.406C814.85 103.578 813.456 104.164 811.628 104.164C809.807 104.164 808.417 103.578 807.456 102.406C806.495 101.227 806.014 99.5156 806.014 97.2734C806.014 95.0391 806.495 93.332 807.456 92.1523C808.417 90.9727 809.807 90.3828 811.628 90.3828ZM831.906 95.6914V103.824H829.738V95.6914C829.738 94.5117 829.531 93.6445 829.117 93.0898C828.703 92.5352 828.055 92.2578 827.172 92.2578C826.164 92.2578 825.387 92.6172 824.84 93.3359C824.301 94.0469 824.031 95.0703 824.031 96.4062V103.824H821.875V90.6992H824.031V92.668C824.414 91.918 824.933 91.3516 825.59 90.9688C826.246 90.5781 827.023 90.3828 827.922 90.3828C829.258 90.3828 830.254 90.8242 830.91 91.707C831.574 92.582 831.906 93.9102 831.906 95.6914ZM841.966 86.9727V90.6992H846.864V92.375H841.966V99.5C841.966 100.469 842.15 101.145 842.517 101.527C842.884 101.91 843.525 102.102 844.439 102.102H846.864V103.824H844.228C842.61 103.824 841.47 103.5 840.806 102.852C840.142 102.203 839.81 101.086 839.81 99.5V92.375H836.306V90.6992H839.81V86.9727H841.966ZM862.983 96.7227V97.7773H853.643V97.8477C853.643 99.2773 854.014 100.383 854.756 101.164C855.506 101.945 856.561 102.336 857.92 102.336C858.608 102.336 859.327 102.227 860.077 102.008C860.827 101.789 861.627 101.457 862.479 101.012V103.156C861.659 103.492 860.866 103.742 860.1 103.906C859.342 104.078 858.608 104.164 857.897 104.164C855.858 104.164 854.264 103.555 853.116 102.336C851.967 101.109 851.393 99.4219 851.393 97.2734C851.393 95.1797 851.955 93.5078 853.08 92.2578C854.205 91.0078 855.705 90.3828 857.58 90.3828C859.252 90.3828 860.569 90.9492 861.53 92.082C862.498 93.2148 862.983 94.7617 862.983 96.7227ZM860.827 96.0898C860.795 94.8242 860.495 93.8633 859.924 93.207C859.362 92.543 858.549 92.2109 857.487 92.2109C856.448 92.2109 855.592 92.5547 854.92 93.2422C854.248 93.9297 853.85 94.8828 853.725 96.1016L860.827 96.0898ZM877.449 95.6914V103.824H875.281V95.6914C875.281 94.5117 875.074 93.6445 874.66 93.0898C874.246 92.5352 873.597 92.2578 872.715 92.2578C871.707 92.2578 870.929 92.6172 870.383 93.3359C869.843 94.0469 869.574 95.0703 869.574 96.4062V103.824H867.418V90.6992H869.574V92.668C869.957 91.918 870.476 91.3516 871.133 90.9688C871.789 90.5781 872.566 90.3828 873.465 90.3828C874.8 90.3828 875.797 90.8242 876.453 91.707C877.117 92.582 877.449 93.9102 877.449 95.6914ZM887.509 86.9727V90.6992H892.407V92.375H887.509V99.5C887.509 100.469 887.692 101.145 888.06 101.527C888.427 101.91 889.067 102.102 889.981 102.102H892.407V103.824H889.77C888.153 103.824 887.013 103.5 886.349 102.852C885.685 102.203 885.352 101.086 885.352 99.5V92.375H881.849V90.6992H885.352V86.9727H887.509ZM906.897 91.1562V93.2656C906.28 92.9062 905.658 92.6367 905.033 92.457C904.408 92.2773 903.772 92.1875 903.123 92.1875C902.147 92.1875 901.416 92.3477 900.932 92.668C900.455 92.9805 900.217 93.4609 900.217 94.1094C900.217 94.6953 900.397 95.1328 900.756 95.4219C901.115 95.7109 902.01 95.9922 903.44 96.2656L904.307 96.4297C905.377 96.6328 906.186 97.0391 906.733 97.6484C907.287 98.2578 907.565 99.0508 907.565 100.027C907.565 101.324 907.104 102.34 906.182 103.074C905.26 103.801 903.979 104.164 902.338 104.164C901.69 104.164 901.01 104.094 900.299 103.953C899.588 103.82 898.819 103.617 897.99 103.344V101.117C898.795 101.531 899.565 101.844 900.299 102.055C901.033 102.258 901.729 102.359 902.385 102.359C903.338 102.359 904.076 102.168 904.6 101.785C905.123 101.395 905.385 100.852 905.385 100.156C905.385 99.1562 904.428 98.4648 902.514 98.082L902.42 98.0586L901.612 97.8945C900.369 97.6523 899.463 97.2461 898.893 96.6758C898.323 96.0977 898.037 95.3125 898.037 94.3203C898.037 93.0625 898.463 92.0938 899.315 91.4141C900.166 90.7266 901.381 90.3828 902.959 90.3828C903.662 90.3828 904.338 90.4492 904.987 90.582C905.635 90.707 906.272 90.8984 906.897 91.1562ZM921.093 86.3281H923.32L914.109 106.051H911.871L921.093 86.3281ZM927.462 86.3281H929.841V93.5H936.321V86.3281H938.7V103.824H936.321V95.4922H929.841V103.824H927.462V86.3281ZM948.256 92.2109C947.162 92.2109 946.334 92.6367 945.772 93.4883C945.209 94.3398 944.928 95.6016 944.928 97.2734C944.928 98.9375 945.209 100.199 945.772 101.059C946.334 101.91 947.162 102.336 948.256 102.336C949.357 102.336 950.19 101.91 950.752 101.059C951.315 100.199 951.596 98.9375 951.596 97.2734C951.596 95.6016 951.315 94.3398 950.752 93.4883C950.19 92.6367 949.357 92.2109 948.256 92.2109ZM948.256 90.3828C950.076 90.3828 951.467 90.9727 952.428 92.1523C953.397 93.332 953.881 95.0391 953.881 97.2734C953.881 99.5156 953.4 101.227 952.44 102.406C951.479 103.578 950.084 104.164 948.256 104.164C946.436 104.164 945.045 103.578 944.084 102.406C943.123 101.227 942.643 99.5156 942.643 97.2734C942.643 95.0391 943.123 93.332 944.084 92.1523C945.045 90.9727 946.436 90.3828 948.256 90.3828ZM964.14 92.0352C964.406 91.4727 964.742 91.0586 965.148 90.793C965.562 90.5195 966.058 90.3828 966.636 90.3828C967.691 90.3828 968.433 90.793 968.863 91.6133C969.3 92.4258 969.519 93.9609 969.519 96.2188V103.824H967.55V96.3125C967.55 94.4609 967.445 93.3125 967.234 92.8672C967.031 92.4141 966.656 92.1875 966.109 92.1875C965.484 92.1875 965.054 92.4297 964.82 92.9141C964.593 93.3906 964.48 94.5234 964.48 96.3125V103.824H962.511V96.3125C962.511 94.4375 962.398 93.2812 962.171 92.8438C961.953 92.4062 961.554 92.1875 960.976 92.1875C960.406 92.1875 960.007 92.4297 959.781 92.9141C959.562 93.3906 959.453 94.5234 959.453 96.3125V103.824H957.495V90.6992H959.453V91.8242C959.71 91.3555 960.031 91 960.413 90.7578C960.804 90.5078 961.245 90.3828 961.738 90.3828C962.331 90.3828 962.824 90.5195 963.214 90.793C963.613 91.0664 963.921 91.4805 964.14 92.0352ZM984.43 96.7227V97.7773H975.09V97.8477C975.09 99.2773 975.462 100.383 976.204 101.164C976.954 101.945 978.008 102.336 979.368 102.336C980.055 102.336 980.774 102.227 981.524 102.008C982.274 101.789 983.075 101.457 983.926 101.012V103.156C983.106 103.492 982.313 103.742 981.547 103.906C980.79 104.078 980.055 104.164 979.344 104.164C977.305 104.164 975.712 103.555 974.563 102.336C973.415 101.109 972.84 99.4219 972.84 97.2734C972.84 95.1797 973.403 93.5078 974.528 92.2578C975.653 91.0078 977.153 90.3828 979.028 90.3828C980.7 90.3828 982.016 90.9492 982.977 92.082C983.946 93.2148 984.43 94.7617 984.43 96.7227ZM982.274 96.0898C982.243 94.8242 981.942 93.8633 981.372 93.207C980.809 92.543 979.997 92.2109 978.934 92.2109C977.895 92.2109 977.04 92.5547 976.368 93.2422C975.696 93.9297 975.297 94.8828 975.172 96.1016L982.274 96.0898Z" fill="black"/>
</svg>
