<svg width="721" height="114" viewBox="0 0 721 114" fill="none" xmlns="http://www.w3.org/2000/svg">
<rect x="1" y="1.82422" width="719" height="111" stroke="#D3D6D7" stroke-width="2"/>
<rect x="2" y="2.82422" width="716.617" height="109" fill="white"/>
<path d="M11.1094 35.8242V17.1035H13.8516V35.8242H11.1094ZM11.1094 35.8242V33.3193H23.502V35.8242H11.1094ZM35.6045 35.9561L35.4199 31.8164L35.0508 30.6562V27.0439C35.0508 26.1123 34.7212 25.4312 34.062 25.0005C33.4116 24.561 32.4404 24.3237 31.1484 24.2886L27.7998 24.1963L28.0635 21.7178L30.8848 21.7573C33.1963 21.7925 34.9102 22.2935 36.0264 23.2603C37.1514 24.2183 37.7139 25.6201 37.7139 27.4658V33.293L40.0869 33.583V35.8242L35.6045 35.9561ZM30.6738 36.0879C29.2148 36.0879 28.0854 35.7363 27.2856 35.0332C26.4858 34.3301 26.0859 33.3369 26.0859 32.0537C26.0859 30.5771 26.6353 29.4434 27.7339 28.6523C28.8413 27.8613 30.4014 27.4658 32.4141 27.4658C33.249 27.4658 33.9917 27.5186 34.6421 27.624C35.3013 27.7207 35.8857 27.8701 36.3955 28.0723L35.8154 29.9707C35.2266 29.8389 34.6509 29.7642 34.0884 29.7466C33.5259 29.7202 32.9502 29.707 32.3613 29.707C29.9355 29.707 28.7227 30.4453 28.7227 31.9219C28.7227 32.5371 28.9292 33.0117 29.3423 33.3457C29.7642 33.6797 30.3574 33.8467 31.1221 33.8467C31.9922 33.8467 32.7173 33.6973 33.2974 33.3984C33.8862 33.0996 34.3257 32.7173 34.6157 32.2515C34.9058 31.7856 35.0508 31.3066 35.0508 30.8145V29.2852L35.8682 32.8711H34.7607L35.209 32.4492C35.209 33.2578 35.02 33.9346 34.6421 34.4795C34.2729 35.0156 33.75 35.4199 33.0732 35.6924C32.3965 35.9561 31.5967 36.0879 30.6738 36.0879ZM47.4697 36.0879C46.415 36.0879 45.5098 36.0571 44.7539 35.9956C44.0068 35.9341 43.3213 35.833 42.6973 35.6924L43.0137 33.1611C43.9365 33.3018 44.7495 33.4072 45.4526 33.4775C46.1646 33.5479 46.8369 33.583 47.4697 33.583C48.8848 33.583 49.9087 33.4468 50.5415 33.1743C51.1831 32.8931 51.5039 32.4492 51.5039 31.8428C51.5039 31.4209 51.3896 31.1089 51.1611 30.9067C50.9414 30.6958 50.5986 30.5332 50.1328 30.4189L46.916 29.6016C45.5361 29.25 44.521 28.8149 43.8706 28.2964C43.229 27.7778 42.9082 26.9912 42.9082 25.9365C42.9082 24.4072 43.4927 23.2998 44.6616 22.6143C45.8394 21.9287 47.7334 21.5859 50.3438 21.5859C51.0205 21.5859 51.6489 21.6079 52.229 21.6519C52.8179 21.687 53.4199 21.7529 54.0352 21.8496L53.7451 24.2754C53.0332 24.2051 52.4048 24.1567 51.8599 24.1304C51.3149 24.104 50.7832 24.0908 50.2646 24.0908C48.7002 24.0908 47.5664 24.2271 46.8633 24.4995C46.1602 24.7632 45.8086 25.1982 45.8086 25.8047C45.8086 26.209 45.9536 26.5034 46.2437 26.688C46.5337 26.8638 46.9775 27.0264 47.5752 27.1758L50.1592 27.8086C51.627 28.1602 52.6992 28.6304 53.376 29.2192C54.0615 29.8081 54.4043 30.665 54.4043 31.79C54.4043 33.293 53.855 34.3872 52.7563 35.0728C51.6577 35.7495 49.8955 36.0879 47.4697 36.0879ZM66.9023 36.0879C64.7842 36.0879 63.2505 35.6484 62.3013 34.7695C61.3608 33.8906 60.8906 32.4844 60.8906 30.5508V28.1777H63.6855V30.4189C63.6855 31.5264 63.9536 32.3306 64.4897 32.8315C65.0347 33.3325 65.9268 33.583 67.166 33.583C67.6055 33.583 68.0713 33.561 68.5635 33.5171C69.0557 33.4644 69.6182 33.3984 70.251 33.3193L70.5674 35.7715C69.9521 35.877 69.3501 35.9561 68.7612 36.0088C68.1812 36.0615 67.5615 36.0879 66.9023 36.0879ZM60.8906 29.2324V17.6309H63.6855V29.2324H60.8906ZM57.3838 24.3018V21.8496H70.04V24.3018H57.3838ZM98.0947 36.0879C96.4775 36.0879 95.3086 35.6484 94.5879 34.7695C93.8672 33.8906 93.5068 32.4844 93.5068 30.5508V16.0488H96.3018V30.4189C96.3018 31.1572 96.3721 31.7593 96.5127 32.2251C96.6533 32.6909 96.9258 33.0337 97.3301 33.2534C97.7432 33.4731 98.3496 33.583 99.1494 33.583C99.8789 33.583 100.811 33.416 101.944 33.082L102.261 35.5342C101.549 35.7275 100.863 35.8682 100.204 35.9561C99.5537 36.0439 98.8506 36.0879 98.0947 36.0879ZM89.3936 18.501V16.0488H93.7441V18.501H89.3936ZM111.832 36.0879C109.898 36.0879 108.396 35.4551 107.323 34.1895C106.251 32.9238 105.715 31.1396 105.715 28.8369C105.715 26.5254 106.251 24.7412 107.323 23.4844C108.396 22.2188 109.898 21.5859 111.832 21.5859C113.774 21.5859 115.277 22.2188 116.341 23.4844C117.413 24.7412 117.949 26.5254 117.949 28.8369C117.949 31.1396 117.413 32.9238 116.341 34.1895C115.277 35.4551 113.774 36.0879 111.832 36.0879ZM111.832 33.583C112.86 33.583 113.651 33.1699 114.205 32.3438C114.768 31.5176 115.049 30.3486 115.049 28.8369C115.049 27.3164 114.768 26.1475 114.205 25.3301C113.651 24.5039 112.86 24.0908 111.832 24.0908C110.804 24.0908 110.008 24.5039 109.446 25.3301C108.892 26.1475 108.615 27.3164 108.615 28.8369C108.615 30.3486 108.892 31.5176 109.446 32.3438C110.008 33.1699 110.804 33.583 111.832 33.583ZM122.142 42.126L122.01 39.5684L126.492 39.4365C127.907 39.3926 128.936 39.0015 129.577 38.2632C130.219 37.5249 130.544 36.4395 130.553 35.0068V24.8027L130.816 21.8496H133.348V34.585C133.348 37.0723 132.781 38.9092 131.647 40.0957C130.513 41.2822 128.707 41.915 126.229 41.9941L122.142 42.126ZM126.584 36.0879C124.756 36.0879 123.368 35.4858 122.418 34.2817C121.478 33.0776 121.008 31.3066 121.008 28.9688C121.008 26.543 121.478 24.7061 122.418 23.458C123.368 22.21 124.756 21.5859 126.584 21.5859C127.674 21.5859 128.558 21.832 129.234 22.3242C129.911 22.8164 130.307 23.502 130.421 24.3809H131.502L130.553 28.3623C130.553 26.9209 130.267 25.8267 129.696 25.0796C129.133 24.3325 128.303 23.959 127.204 23.959C126.079 23.959 125.227 24.3809 124.646 25.2246C124.066 26.0684 123.776 27.3164 123.776 28.9688C123.776 30.5332 124.066 31.7153 124.646 32.5151C125.227 33.3149 126.079 33.7148 127.204 33.7148C128.303 33.7148 129.133 33.3413 129.696 32.5942C130.267 31.8472 130.553 30.7529 130.553 29.3115L131.502 33.293H130.289C130.201 34.1719 129.828 34.8574 129.168 35.3496C128.518 35.8418 127.657 36.0879 126.584 36.0879ZM142.998 35.8242V22.6406H145.793V35.8242H142.998ZM137.672 35.8242V33.3721H143.262V35.8242H137.672ZM145.529 35.8242V33.3721H150.091V35.8242H145.529ZM138.463 24.3018V21.8496H145.793V24.3018H138.463ZM144.303 19.6348C143.767 19.6348 143.306 19.4458 142.919 19.0679C142.541 18.6812 142.352 18.2197 142.352 17.6836C142.352 17.1387 142.541 16.6772 142.919 16.2993C143.306 15.9214 143.767 15.7324 144.303 15.7324C144.848 15.7324 145.31 15.9214 145.688 16.2993C146.065 16.6772 146.254 17.1387 146.254 17.6836C146.254 18.2197 146.065 18.6812 145.688 19.0679C145.31 19.4458 144.848 19.6348 144.303 19.6348ZM162.193 35.8242V26.7275C162.193 25.8838 161.974 25.2334 161.534 24.7764C161.095 24.3193 160.479 24.0908 159.688 24.0908C157.491 24.0908 156.393 25.3828 156.393 27.9668L155.575 24.3809H156.656C156.735 23.4404 157.078 22.7417 157.685 22.2847C158.291 21.8188 159.179 21.5859 160.348 21.5859C161.824 21.5859 162.967 22.0342 163.775 22.9307C164.584 23.8271 164.988 25.0928 164.988 26.7275V35.8242H162.193ZM153.598 35.8242V21.8496H156.129L156.393 24.8027V35.8242H153.598ZM175.113 25.4883C174.577 25.4883 174.116 25.2993 173.729 24.9214C173.351 24.5347 173.162 24.0732 173.162 23.5371C173.162 22.9922 173.351 22.5308 173.729 22.1528C174.116 21.7749 174.577 21.5859 175.113 21.5859C175.658 21.5859 176.12 21.7749 176.498 22.1528C176.875 22.5308 177.064 22.9922 177.064 23.5371C177.064 24.0732 176.875 24.5347 176.498 24.9214C176.12 25.2993 175.658 25.4883 175.113 25.4883ZM175.113 36.0879C174.577 36.0879 174.116 35.8989 173.729 35.521C173.351 35.1343 173.162 34.6729 173.162 34.1367C173.162 33.5918 173.351 33.1304 173.729 32.7524C174.116 32.3745 174.577 32.1855 175.113 32.1855C175.658 32.1855 176.12 32.3745 176.498 32.7524C176.875 33.1304 177.064 33.5918 177.064 34.1367C177.064 34.6729 176.875 35.1343 176.498 35.521C176.12 35.8989 175.658 36.0879 175.113 36.0879ZM201.217 35.8242L199.107 17.1035H201.876L203.458 33.7148H203.722L205.449 21.8496H208.085L207.202 24.46H206.675L205.291 35.8242H201.217ZM208.217 35.8242L206.833 24.46H206.306L205.449 21.8496H208.085L209.786 33.7148H210.05L211.632 17.1035H214.4L212.291 35.8242H208.217ZM223.787 36.0879C221.405 36.0879 219.564 35.4639 218.263 34.2158C216.971 32.959 216.325 31.1572 216.325 28.8105C216.325 26.5254 216.875 24.75 217.973 23.4844C219.072 22.2188 220.623 21.5859 222.627 21.5859C224.517 21.5859 225.976 22.1572 227.004 23.2998C228.041 24.4424 228.56 26.1035 228.56 28.2832C228.56 28.9248 228.533 29.5225 228.48 30.0762H218.672V27.9404H226.028C226.028 26.6836 225.729 25.7212 225.132 25.0532C224.534 24.3765 223.708 24.0381 222.653 24.0381C221.467 24.0381 220.544 24.4424 219.885 25.251C219.234 26.0596 218.909 27.2021 218.909 28.6787C218.909 30.2959 219.357 31.5264 220.254 32.3701C221.159 33.2139 222.442 33.6357 224.104 33.6357C224.684 33.6357 225.255 33.605 225.817 33.5435C226.38 33.4731 226.951 33.3809 227.531 33.2666L227.874 35.7188C227.048 35.877 226.292 35.978 225.606 36.022C224.921 36.0659 224.314 36.0879 223.787 36.0879ZM237.327 36.0879C235.499 36.0879 234.11 35.4858 233.161 34.2817C232.22 33.0776 231.75 31.3066 231.75 28.9688C231.75 26.543 232.22 24.7061 233.161 23.458C234.11 22.21 235.499 21.5859 237.327 21.5859C238.373 21.5859 239.221 21.832 239.871 22.3242C240.53 22.8164 240.917 23.502 241.031 24.3809H242.112L241.295 28.3623C241.295 26.9209 241.009 25.8267 240.438 25.0796C239.875 24.3325 239.045 23.959 237.946 23.959C236.821 23.959 235.969 24.3809 235.389 25.2246C234.809 26.0684 234.519 27.3164 234.519 28.9688C234.519 30.5332 234.809 31.7153 235.389 32.5151C235.969 33.3149 236.821 33.7148 237.946 33.7148C239.045 33.7148 239.875 33.3413 240.438 32.5942C241.009 31.8472 241.295 30.7529 241.295 29.3115L242.244 33.293H241.031C240.943 34.1719 240.57 34.8574 239.911 35.3496C239.26 35.8418 238.399 36.0879 237.327 36.0879ZM241.585 35.9561L241.295 33.2139V16.0488H244.09V35.8242L241.585 35.9561ZM269.587 28.1777L269.982 25.1455H270.141L272.171 17.1035H274.043V20.4258H273.278L271.248 28.1777H269.587ZM263.812 35.8242V17.1035H266.449V35.8242H263.812ZM268.822 28.1777L266.792 20.4258H266.027V17.1035H267.899L269.93 25.1455H270.035L270.299 28.1777H268.822ZM273.621 35.8242V17.1035H276.258V35.8242H273.621ZM288.729 35.9561L288.545 31.8164L288.176 30.6562V27.0439C288.176 26.1123 287.846 25.4312 287.187 25.0005C286.537 24.561 285.565 24.3237 284.273 24.2886L280.925 24.1963L281.188 21.7178L284.01 21.7573C286.321 21.7925 288.035 22.2935 289.151 23.2603C290.276 24.2183 290.839 25.6201 290.839 27.4658V33.293L293.212 33.583V35.8242L288.729 35.9561ZM283.799 36.0879C282.34 36.0879 281.21 35.7363 280.411 35.0332C279.611 34.3301 279.211 33.3369 279.211 32.0537C279.211 30.5771 279.76 29.4434 280.859 28.6523C281.966 27.8613 283.526 27.4658 285.539 27.4658C286.374 27.4658 287.117 27.5186 287.767 27.624C288.426 27.7207 289.011 27.8701 289.521 28.0723L288.94 29.9707C288.352 29.8389 287.776 29.7642 287.213 29.7466C286.651 29.7202 286.075 29.707 285.486 29.707C283.061 29.707 281.848 30.4453 281.848 31.9219C281.848 32.5371 282.054 33.0117 282.467 33.3457C282.889 33.6797 283.482 33.8467 284.247 33.8467C285.117 33.8467 285.842 33.6973 286.422 33.3984C287.011 33.0996 287.451 32.7173 287.741 32.2515C288.031 31.7856 288.176 31.3066 288.176 30.8145V29.2852L288.993 32.8711H287.886L288.334 32.4492C288.334 33.2578 288.145 33.9346 287.767 34.4795C287.398 35.0156 286.875 35.4199 286.198 35.6924C285.521 35.9561 284.722 36.0879 283.799 36.0879ZM294.754 42.1523L294.623 39.6475L296.811 39.3838C297.734 39.2695 298.521 39.019 299.171 38.6323C299.83 38.2456 300.393 37.6699 300.858 36.9053C301.324 36.1494 301.733 35.1562 302.084 33.9258L305.565 21.8496H308.465L304.431 34.585C303.904 36.2549 303.311 37.5996 302.651 38.6191C302.001 39.6387 301.228 40.4033 300.331 40.9131C299.443 41.4229 298.375 41.748 297.127 41.8887L294.754 42.1523ZM300.054 35.8242L294.491 21.8496H297.391L301.953 33.7148H302.375V35.8242H300.054ZM332.183 36.0879C331.216 36.0879 330.328 36.0308 329.52 35.9165C328.72 35.8022 328.008 35.6484 327.384 35.4551L327.713 32.937C328.25 33.0864 328.852 33.2446 329.52 33.4116C330.196 33.5786 331.049 33.6621 332.077 33.6621C333.448 33.6621 334.512 33.3896 335.268 32.8447C336.023 32.2998 336.401 31.5352 336.401 30.5508C336.401 29.8477 336.182 29.25 335.742 28.7578C335.312 28.2656 334.683 27.8921 333.857 27.6372C333.031 27.3823 332.024 27.2549 330.838 27.2549H330.416L330.1 25.541L334.134 25.8574C335.628 25.9717 336.841 26.4595 337.772 27.3208C338.704 28.1733 339.17 29.3379 339.17 30.8145C339.17 32.4844 338.559 33.7808 337.337 34.7036C336.125 35.6265 334.406 36.0879 332.183 36.0879ZM330.416 27.2549L330.1 25.541C331.488 25.3564 332.613 25.084 333.475 24.7236C334.345 24.3633 334.982 23.9282 335.386 23.4185C335.799 22.8999 336.006 22.3242 336.006 21.6914C336.006 20.9268 335.755 20.3335 335.254 19.9116C334.762 19.481 334.055 19.2656 333.132 19.2656C332.464 19.2656 331.752 19.4326 330.996 19.7666C330.249 20.1006 329.542 20.6016 328.874 21.2695L327.054 19.4634C327.863 18.5493 328.799 17.8857 329.862 17.4727C330.926 17.0508 332.112 16.8398 333.422 16.8398C335.127 16.8398 336.445 17.2046 337.377 17.9341C338.309 18.6548 338.774 19.6875 338.774 21.0322C338.774 22.1572 338.414 23.1372 337.693 23.9722C336.973 24.7983 336.032 25.3652 334.872 25.6729V27.2549H330.416ZM348.161 35.8242V17.1035H350.903V35.8242H348.161ZM343.468 35.8242V33.3193H348.425V35.8242H343.468ZM350.64 35.8242V33.3193H355.096V35.8242H350.64ZM343.731 21.3486V18.6855L348.161 17.1035V19.8193L343.731 21.3486ZM380.777 36.0879C376.523 36.0879 374.396 32.9238 374.396 26.5957C374.396 20.0918 376.523 16.8398 380.777 16.8398C385.031 16.8398 387.158 20.0918 387.158 26.5957C387.158 32.9238 385.031 36.0879 380.777 36.0879ZM376.98 32.7656L375.899 31.3682L384.363 21.0586L385.655 22.1133L376.98 32.7656ZM380.777 33.6621C383.15 33.6621 384.337 31.3066 384.337 26.5957C384.337 21.709 383.15 19.2656 380.777 19.2656C378.404 19.2656 377.218 21.709 377.218 26.5957C377.218 31.3066 378.404 33.6621 380.777 33.6621ZM396.598 36.0879C392.344 36.0879 390.217 32.9238 390.217 26.5957C390.217 20.0918 392.344 16.8398 396.598 16.8398C400.852 16.8398 402.979 20.0918 402.979 26.5957C402.979 32.9238 400.852 36.0879 396.598 36.0879ZM392.801 32.7656L391.72 31.3682L400.184 21.0586L401.476 22.1133L392.801 32.7656ZM396.598 33.6621C398.971 33.6621 400.157 31.3066 400.157 26.5957C400.157 21.709 398.971 19.2656 396.598 19.2656C394.225 19.2656 393.038 21.709 393.038 26.5957C393.038 31.3066 394.225 33.6621 396.598 33.6621ZM412.418 25.4883C411.882 25.4883 411.42 25.2993 411.034 24.9214C410.656 24.5347 410.467 24.0732 410.467 23.5371C410.467 22.9922 410.656 22.5308 411.034 22.1528C411.42 21.7749 411.882 21.5859 412.418 21.5859C412.963 21.5859 413.424 21.7749 413.802 22.1528C414.18 22.5308 414.369 22.9922 414.369 23.5371C414.369 24.0732 414.18 24.5347 413.802 24.9214C413.424 25.2993 412.963 25.4883 412.418 25.4883ZM412.418 36.0879C411.882 36.0879 411.42 35.8989 411.034 35.521C410.656 35.1343 410.467 34.6729 410.467 34.1367C410.467 33.5918 410.656 33.1304 411.034 32.7524C411.42 32.3745 411.882 32.1855 412.418 32.1855C412.963 32.1855 413.424 32.3745 413.802 32.7524C414.18 33.1304 414.369 33.5918 414.369 34.1367C414.369 34.6729 414.18 35.1343 413.802 35.521C413.424 35.8989 412.963 36.0879 412.418 36.0879ZM428.423 36.0879C426.401 36.0879 424.837 35.6089 423.729 34.6509C422.622 33.6841 422.068 32.3262 422.068 30.5771H424.89C424.89 31.5527 425.197 32.313 425.812 32.8579C426.428 33.394 427.307 33.6621 428.449 33.6621C429.574 33.6621 430.444 33.3237 431.06 32.647C431.675 31.9702 431.982 31.0166 431.982 29.7861C431.982 28.582 431.648 27.6504 430.98 26.9912C430.312 26.3232 429.363 25.9893 428.133 25.9893C426.902 25.9893 425.751 26.2793 424.679 26.8594L424.916 24.6182C425.61 24.2227 426.3 23.959 426.986 23.8271C427.671 23.6865 428.361 23.6162 429.056 23.6162C430.866 23.6162 432.268 24.1523 433.261 25.2246C434.254 26.2969 434.751 27.8174 434.751 29.7861C434.751 31.1221 434.5 32.2603 434 33.2007C433.507 34.1411 432.791 34.8574 431.851 35.3496C430.91 35.8418 429.768 36.0879 428.423 36.0879ZM423.202 26.8594L423.466 17.1035H426.287L426.023 25.2246L424.679 26.8594H423.202ZM424.731 19.5557L424.494 17.1035H433.564V19.5557H424.731ZM442.793 29.1533C441.158 29.1533 439.897 28.6479 439.009 27.6372C438.122 26.6265 437.678 25.1982 437.678 23.3525C437.678 21.3574 438.24 19.8062 439.365 18.6987C440.499 17.5825 442.072 17.0244 444.085 17.0244C446.256 17.0244 447.851 17.5649 448.871 18.646C449.899 19.7271 450.413 21.4102 450.413 23.6953L448.225 26.0947H447.249C446.985 27.0703 446.458 27.8262 445.667 28.3623C444.885 28.8896 443.927 29.1533 442.793 29.1533ZM439.392 36.0879L439.128 33.583C444.7 33.3457 447.486 30.8408 447.486 26.0684V24.5654L450.413 23.6953V24.8555C450.413 28.4238 449.503 31.144 447.684 33.0161C445.874 34.8794 443.109 35.9033 439.392 36.0879ZM443.782 26.7275C445.003 26.7275 445.944 26.4111 446.603 25.7783C447.262 25.1455 447.592 24.249 447.592 23.0889C447.592 21.9463 447.275 21.0542 446.643 20.4126C446.01 19.771 445.126 19.4502 443.993 19.4502C442.876 19.4502 442.006 19.793 441.382 20.4785C440.758 21.1641 440.446 22.1221 440.446 23.3525C440.446 24.4336 440.732 25.2686 441.303 25.8574C441.883 26.4375 442.709 26.7275 443.782 26.7275ZM459.879 25.4883C459.343 25.4883 458.881 25.2993 458.495 24.9214C458.117 24.5347 457.928 24.0732 457.928 23.5371C457.928 22.9922 458.117 22.5308 458.495 22.1528C458.881 21.7749 459.343 21.5859 459.879 21.5859C460.424 21.5859 460.885 21.7749 461.263 22.1528C461.641 22.5308 461.83 22.9922 461.83 23.5371C461.83 24.0732 461.641 24.5347 461.263 24.9214C460.885 25.2993 460.424 25.4883 459.879 25.4883ZM459.879 36.0879C459.343 36.0879 458.881 35.8989 458.495 35.521C458.117 35.1343 457.928 34.6729 457.928 34.1367C457.928 33.5918 458.117 33.1304 458.495 32.7524C458.881 32.3745 459.343 32.1855 459.879 32.1855C460.424 32.1855 460.885 32.3745 461.263 32.7524C461.641 33.1304 461.83 33.5918 461.83 34.1367C461.83 34.6729 461.641 35.1343 461.263 35.521C460.885 35.8989 460.424 36.0879 459.879 36.0879ZM469.793 35.8242V32.8184C472.685 31.2188 474.842 29.5576 476.266 27.835C477.699 26.1035 478.415 24.3193 478.415 22.4824C478.415 21.4102 478.151 20.606 477.624 20.0698C477.097 19.5337 476.297 19.2656 475.225 19.2656C474.513 19.2656 473.77 19.4722 472.997 19.8853C472.223 20.2983 471.56 20.8477 471.006 21.5332L469.187 19.7271C469.793 18.8569 470.654 18.1582 471.771 17.6309C472.887 17.1035 474.056 16.8398 475.277 16.8398C477.255 16.8398 478.731 17.3101 479.707 18.2505C480.691 19.1821 481.184 20.5928 481.184 22.4824C481.184 24.3721 480.582 26.187 479.377 27.9272C478.182 29.6587 476.358 31.3242 473.906 32.9238V35.8242H469.793ZM470.584 35.8242V33.3193H481.975V35.8242H470.584ZM484.585 31.6318L487.222 18.1582H490.069L487.406 31.6318H484.585ZM484.585 31.6318L486.431 29.1797H494.13V31.6318H484.585ZM496.345 31.6318V29.1797H498.375V31.6318H496.345ZM493.866 35.8242V17.1035H496.608V35.8242H493.866ZM523.16 36.0879C521.227 36.0879 519.724 35.4551 518.651 34.1895C517.579 32.9238 517.043 31.1396 517.043 28.8369C517.043 26.5254 517.579 24.7412 518.651 23.4844C519.724 22.2188 521.227 21.5859 523.16 21.5859C525.103 21.5859 526.605 22.2188 527.669 23.4844C528.741 24.7412 529.277 26.5254 529.277 28.8369C529.277 31.1396 528.741 32.9238 527.669 34.1895C526.605 35.4551 525.103 36.0879 523.16 36.0879ZM523.16 33.583C524.188 33.583 524.979 33.1699 525.533 32.3438C526.096 31.5176 526.377 30.3486 526.377 28.8369C526.377 27.3164 526.096 26.1475 525.533 25.3301C524.979 24.5039 524.188 24.0908 523.16 24.0908C522.132 24.0908 521.336 24.5039 520.774 25.3301C520.22 26.1475 519.943 27.3164 519.943 28.8369C519.943 30.3486 520.22 31.5176 520.774 32.3438C521.336 33.1699 522.132 33.583 523.16 33.583ZM541.881 35.8242V26.7275C541.881 25.8838 541.661 25.2334 541.222 24.7764C540.782 24.3193 540.167 24.0908 539.376 24.0908C537.179 24.0908 536.08 25.3828 536.08 27.9668L535.263 24.3809H536.344C536.423 23.4404 536.766 22.7417 537.372 22.2847C537.979 21.8188 538.866 21.5859 540.035 21.5859C541.512 21.5859 542.654 22.0342 543.463 22.9307C544.271 23.8271 544.676 25.0928 544.676 26.7275V35.8242H541.881ZM533.285 35.8242V21.8496H535.816L536.08 24.8027V35.8242H533.285ZM573.152 36.0879C571.034 36.0879 569.5 35.6484 568.551 34.7695C567.611 33.8906 567.141 32.4844 567.141 30.5508V28.1777H569.936V30.4189C569.936 31.5264 570.204 32.3306 570.74 32.8315C571.285 33.3325 572.177 33.583 573.416 33.583C573.855 33.583 574.321 33.561 574.813 33.5171C575.306 33.4644 575.868 33.3984 576.501 33.3193L576.817 35.7715C576.202 35.877 575.6 35.9561 575.011 36.0088C574.431 36.0615 573.812 36.0879 573.152 36.0879ZM567.141 29.2324V17.6309H569.936V29.2324H567.141ZM563.634 24.3018V21.8496H576.29V24.3018H563.634ZM588.973 36.0879C586.854 36.0879 585.321 35.6484 584.372 34.7695C583.431 33.8906 582.961 32.4844 582.961 30.5508V28.1777H585.756V30.4189C585.756 31.5264 586.024 32.3306 586.56 32.8315C587.105 33.3325 587.997 33.583 589.236 33.583C589.676 33.583 590.142 33.561 590.634 33.5171C591.126 33.4644 591.688 33.3984 592.321 33.3193L592.638 35.7715C592.022 35.877 591.42 35.9561 590.832 36.0088C590.251 36.0615 589.632 36.0879 588.973 36.0879ZM582.961 29.2324V17.6309H585.756V29.2324H582.961ZM579.454 24.3018V21.8496H592.11V24.3018H579.454ZM595.34 42.1523L595.208 39.6475L597.397 39.3838C598.32 39.2695 599.106 39.019 599.757 38.6323C600.416 38.2456 600.979 37.6699 601.444 36.9053C601.91 36.1494 602.319 35.1562 602.67 33.9258L606.151 21.8496H609.051L605.017 34.585C604.49 36.2549 603.896 37.5996 603.237 38.6191C602.587 39.6387 601.813 40.4033 600.917 40.9131C600.029 41.4229 598.961 41.748 597.713 41.8887L595.34 42.1523ZM600.64 35.8242L595.077 21.8496H597.977L602.539 33.7148H602.96V35.8242H600.64ZM617.001 36.0879C615.946 36.0879 615.041 36.0571 614.285 35.9956C613.538 35.9341 612.853 35.833 612.229 35.6924L612.545 33.1611C613.468 33.3018 614.281 33.4072 614.984 33.4775C615.696 33.5479 616.368 33.583 617.001 33.583C618.416 33.583 619.44 33.4468 620.073 33.1743C620.714 32.8931 621.035 32.4492 621.035 31.8428C621.035 31.4209 620.921 31.1089 620.692 30.9067C620.473 30.6958 620.13 30.5332 619.664 30.4189L616.447 29.6016C615.067 29.25 614.052 28.8149 613.402 28.2964C612.76 27.7778 612.439 26.9912 612.439 25.9365C612.439 24.4072 613.024 23.2998 614.193 22.6143C615.371 21.9287 617.265 21.5859 619.875 21.5859C620.552 21.5859 621.18 21.6079 621.76 21.6519C622.349 21.687 622.951 21.7529 623.566 21.8496L623.276 24.2754C622.564 24.2051 621.936 24.1567 621.391 24.1304C620.846 24.104 620.314 24.0908 619.796 24.0908C618.231 24.0908 617.098 24.2271 616.395 24.4995C615.691 24.7632 615.34 25.1982 615.34 25.8047C615.34 26.209 615.485 26.5034 615.775 26.688C616.065 26.8638 616.509 27.0264 617.106 27.1758L619.69 27.8086C621.158 28.1602 622.23 28.6304 622.907 29.2192C623.593 29.8081 623.936 30.665 623.936 31.79C623.936 33.293 623.386 34.3872 622.288 35.0728C621.189 35.7495 619.427 36.0879 617.001 36.0879ZM633.902 36.0879C629.648 36.0879 627.521 32.9238 627.521 26.5957C627.521 20.0918 629.648 16.8398 633.902 16.8398C638.156 16.8398 640.283 20.0918 640.283 26.5957C640.283 32.9238 638.156 36.0879 633.902 36.0879ZM630.105 32.7656L629.024 31.3682L637.488 21.0586L638.78 22.1133L630.105 32.7656ZM633.902 33.6621C636.275 33.6621 637.462 31.3066 637.462 26.5957C637.462 21.709 636.275 19.2656 633.902 19.2656C631.529 19.2656 630.343 21.709 630.343 26.5957C630.343 31.3066 631.529 33.6621 633.902 33.6621ZM649.723 36.0879C645.469 36.0879 643.342 32.9238 643.342 26.5957C643.342 20.0918 645.469 16.8398 649.723 16.8398C653.977 16.8398 656.104 20.0918 656.104 26.5957C656.104 32.9238 653.977 36.0879 649.723 36.0879ZM645.926 32.7656L644.845 31.3682L653.309 21.0586L654.601 22.1133L645.926 32.7656ZM649.723 33.6621C652.096 33.6621 653.282 31.3066 653.282 26.5957C653.282 21.709 652.096 19.2656 649.723 19.2656C647.35 19.2656 646.163 21.709 646.163 26.5957C646.163 31.3066 647.35 33.6621 649.723 33.6621ZM665.543 36.0879C661.289 36.0879 659.162 32.9238 659.162 26.5957C659.162 20.0918 661.289 16.8398 665.543 16.8398C669.797 16.8398 671.924 20.0918 671.924 26.5957C671.924 32.9238 669.797 36.0879 665.543 36.0879ZM661.746 32.7656L660.665 31.3682L669.129 21.0586L670.421 22.1133L661.746 32.7656ZM665.543 33.6621C667.916 33.6621 669.103 31.3066 669.103 26.5957C669.103 21.709 667.916 19.2656 665.543 19.2656C663.17 19.2656 661.983 21.709 661.983 26.5957C661.983 31.3066 663.17 33.6621 665.543 33.6621ZM11.373 66.8242V48.1035H14.1152V66.8242H11.373ZM11.373 59.4941V56.9893H21.3926V59.4941H11.373ZM11.373 50.6084V48.1035H23.7656V50.6084H11.373ZM33.9434 67.0879C31.5615 67.0879 29.7202 66.4639 28.4194 65.2158C27.1274 63.959 26.4814 62.1572 26.4814 59.8105C26.4814 57.5254 27.0308 55.75 28.1294 54.4844C29.228 53.2188 30.7793 52.5859 32.7832 52.5859C34.6729 52.5859 36.1318 53.1572 37.1602 54.2998C38.1973 55.4424 38.7158 57.1035 38.7158 59.2832C38.7158 59.9248 38.6895 60.5225 38.6367 61.0762H28.8281V58.9404H36.1846C36.1846 57.6836 35.8857 56.7212 35.2881 56.0532C34.6904 55.3765 33.8643 55.0381 32.8096 55.0381C31.623 55.0381 30.7002 55.4424 30.041 56.251C29.3906 57.0596 29.0654 58.2021 29.0654 59.6787C29.0654 61.2959 29.5137 62.5264 30.4102 63.3701C31.3154 64.2139 32.5986 64.6357 34.2598 64.6357C34.8398 64.6357 35.4111 64.605 35.9736 64.5435C36.5361 64.4731 37.1074 64.3809 37.6875 64.2666L38.0303 66.7188C37.2041 66.877 36.4482 66.978 35.7627 67.022C35.0771 67.0659 34.4707 67.0879 33.9434 67.0879ZM51.4512 66.8242V57.7275C51.4512 56.8838 51.2314 56.2334 50.792 55.7764C50.3525 55.3193 49.7373 55.0908 48.9463 55.0908C46.749 55.0908 45.6504 56.3828 45.6504 58.9668L44.833 55.3809H45.9141C45.9932 54.4404 46.3359 53.7417 46.9424 53.2847C47.5488 52.8188 48.4365 52.5859 49.6055 52.5859C51.082 52.5859 52.2246 53.0342 53.0332 53.9307C53.8418 54.8271 54.2461 56.0928 54.2461 57.7275V66.8242H51.4512ZM42.8555 66.8242V52.8496H45.3867L45.6504 55.8027V66.8242H42.8555ZM63.4219 60.8125L62.6045 56.4355H63.6855C63.8438 53.8691 65.127 52.5859 67.5352 52.5859C68.9766 52.5859 70.0225 52.999 70.6729 53.8252C71.3232 54.6514 71.6484 55.9873 71.6484 57.833H68.8799C68.8799 56.8135 68.7261 56.0796 68.4185 55.6313C68.1196 55.1831 67.6318 54.959 66.9551 54.959C65.7686 54.959 64.8809 55.4688 64.292 56.4883C63.7119 57.499 63.4219 58.9404 63.4219 60.8125ZM57.5156 66.8242V64.3721H66.8496V66.8242H57.5156ZM60.627 66.8242V52.8496H62.8945L63.4219 56.8574V66.8242H60.627ZM58.043 55.3018V52.8496H62.71L62.9736 55.3018H58.043ZM79.7168 66.8242V53.6406H82.5117V66.8242H79.7168ZM74.3906 66.8242V64.3721H79.9805V66.8242H74.3906ZM82.248 66.8242V64.3721H86.8096V66.8242H82.248ZM75.1816 55.3018V52.8496H82.5117V55.3018H75.1816ZM81.022 50.6348C80.4858 50.6348 80.0244 50.4458 79.6377 50.0679C79.2598 49.6812 79.0708 49.2197 79.0708 48.6836C79.0708 48.1387 79.2598 47.6772 79.6377 47.2993C80.0244 46.9214 80.4858 46.7324 81.022 46.7324C81.5669 46.7324 82.0283 46.9214 82.4062 47.2993C82.7842 47.6772 82.9731 48.1387 82.9731 48.6836C82.9731 49.2197 82.7842 49.6812 82.4062 50.0679C82.0283 50.4458 81.5669 50.6348 81.022 50.6348ZM94.9307 67.0879C93.876 67.0879 92.9707 67.0571 92.2148 66.9956C91.4678 66.9341 90.7822 66.833 90.1582 66.6924L90.4746 64.1611C91.3975 64.3018 92.2104 64.4072 92.9136 64.4775C93.6255 64.5479 94.2979 64.583 94.9307 64.583C96.3457 64.583 97.3696 64.4468 98.0024 64.1743C98.644 63.8931 98.9648 63.4492 98.9648 62.8428C98.9648 62.4209 98.8506 62.1089 98.6221 61.9067C98.4023 61.6958 98.0596 61.5332 97.5938 61.4189L94.377 60.6016C92.9971 60.25 91.9819 59.8149 91.3315 59.2964C90.6899 58.7778 90.3691 57.9912 90.3691 56.9365C90.3691 55.4072 90.9536 54.2998 92.1226 53.6143C93.3003 52.9287 95.1943 52.5859 97.8047 52.5859C98.4814 52.5859 99.1099 52.6079 99.6899 52.6519C100.279 52.687 100.881 52.7529 101.496 52.8496L101.206 55.2754C100.494 55.2051 99.8657 55.1567 99.3208 55.1304C98.7759 55.104 98.2441 55.0908 97.7256 55.0908C96.1611 55.0908 95.0273 55.2271 94.3242 55.4995C93.6211 55.7632 93.2695 56.1982 93.2695 56.8047C93.2695 57.209 93.4146 57.5034 93.7046 57.688C93.9946 57.8638 94.4385 58.0264 95.0361 58.1758L97.6201 58.8086C99.0879 59.1602 100.16 59.6304 100.837 60.2192C101.522 60.8081 101.865 61.665 101.865 62.79C101.865 64.293 101.316 65.3872 100.217 66.0728C99.1187 66.7495 97.3564 67.0879 94.9307 67.0879ZM105.24 58.7031V56.251H118.424V58.7031H105.24ZM127.204 59.1777L127.6 56.1455H127.758L129.788 48.1035H131.66V51.4258H130.896L128.865 59.1777H127.204ZM121.43 66.8242V48.1035H124.066V66.8242H121.43ZM126.439 59.1777L124.409 51.4258H123.645V48.1035H125.517L127.547 56.1455H127.652L127.916 59.1777H126.439ZM131.238 66.8242V48.1035H133.875V66.8242H131.238ZM146.347 66.9561L146.162 62.8164L145.793 61.6562V58.0439C145.793 57.1123 145.463 56.4312 144.804 56.0005C144.154 55.561 143.183 55.3237 141.891 55.2886L138.542 55.1963L138.806 52.7178L141.627 52.7573C143.938 52.7925 145.652 53.2935 146.769 54.2603C147.894 55.2183 148.456 56.6201 148.456 58.4658V64.293L150.829 64.583V66.8242L146.347 66.9561ZM141.416 67.0879C139.957 67.0879 138.828 66.7363 138.028 66.0332C137.228 65.3301 136.828 64.3369 136.828 63.0537C136.828 61.5771 137.377 60.4434 138.476 59.6523C139.583 58.8613 141.144 58.4658 143.156 58.4658C143.991 58.4658 144.734 58.5186 145.384 58.624C146.043 58.7207 146.628 58.8701 147.138 59.0723L146.558 60.9707C145.969 60.8389 145.393 60.7642 144.831 60.7466C144.268 60.7202 143.692 60.707 143.104 60.707C140.678 60.707 139.465 61.4453 139.465 62.9219C139.465 63.5371 139.671 64.0117 140.084 64.3457C140.506 64.6797 141.1 64.8467 141.864 64.8467C142.734 64.8467 143.459 64.6973 144.04 64.3984C144.628 64.0996 145.068 63.7173 145.358 63.2515C145.648 62.7856 145.793 62.3066 145.793 61.8145V60.2852L146.61 63.8711H145.503L145.951 63.4492C145.951 64.2578 145.762 64.9346 145.384 65.4795C145.015 66.0156 144.492 66.4199 143.815 66.6924C143.139 66.9561 142.339 67.0879 141.416 67.0879ZM160.638 67.0879C158.256 67.0879 156.415 66.4639 155.114 65.2158C153.822 63.959 153.176 62.1572 153.176 59.8105C153.176 57.5254 153.787 55.75 155.008 54.4844C156.239 53.2188 157.992 52.5859 160.269 52.5859C161.631 52.5859 162.795 52.8408 163.762 53.3506C164.738 53.8516 165.432 54.5635 165.845 55.4863L163.696 57.1079C163.301 56.4663 162.795 55.9697 162.18 55.6182C161.565 55.2666 160.893 55.0908 160.163 55.0908C158.845 55.0908 157.821 55.4907 157.091 56.2905C156.362 57.0815 155.997 58.2109 155.997 59.6787C155.997 61.2695 156.423 62.4868 157.276 63.3306C158.137 64.1655 159.363 64.583 160.954 64.583C161.604 64.583 162.255 64.5522 162.905 64.4907C163.556 64.4292 164.188 64.3457 164.804 64.2402L165.12 66.6924C164.399 66.8506 163.652 66.9561 162.879 67.0088C162.114 67.0615 161.367 67.0879 160.638 67.0879ZM168.521 58.7031V56.251H181.705V58.7031H168.521ZM194.572 66.8242V56.1455C194.572 55.1787 194.212 54.6953 193.491 54.6953C192.577 54.6953 192.12 55.3281 192.12 56.5938L191.171 54.5898H192.252C192.296 54.0449 192.511 53.5747 192.898 53.1792C193.293 52.7837 193.86 52.5859 194.599 52.5859C195.565 52.5859 196.269 52.8452 196.708 53.3638C197.147 53.8823 197.367 54.7217 197.367 55.8818V66.8242H194.572ZM184.5 66.8242V52.8496H186.979L187.295 55.8027V66.8242H184.5ZM189.747 66.8242V55.8818C189.747 55.0908 189.378 54.6953 188.64 54.6953C187.743 54.6953 187.295 55.3281 187.295 56.5938L186.478 54.5898H187.374C187.479 53.2539 188.279 52.5859 189.773 52.5859C190.503 52.5859 191.074 52.8364 191.487 53.3374C191.909 53.8384 192.12 54.5986 192.12 55.6182V66.8242H189.747ZM206.279 66.8242V53.6406H209.074V66.8242H206.279ZM200.953 66.8242V64.3721H206.543V66.8242H200.953ZM208.811 66.8242V64.3721H213.372V66.8242H208.811ZM201.744 55.3018V52.8496H209.074V55.3018H201.744ZM207.584 50.6348C207.048 50.6348 206.587 50.4458 206.2 50.0679C205.822 49.6812 205.633 49.2197 205.633 48.6836C205.633 48.1387 205.822 47.6772 206.2 47.2993C206.587 46.9214 207.048 46.7324 207.584 46.7324C208.129 46.7324 208.591 46.9214 208.969 47.2993C209.347 47.6772 209.536 48.1387 209.536 48.6836C209.536 49.2197 209.347 49.6812 208.969 50.0679C208.591 50.4458 208.129 50.6348 207.584 50.6348ZM225.475 66.8242V57.7275C225.475 56.8838 225.255 56.2334 224.815 55.7764C224.376 55.3193 223.761 55.0908 222.97 55.0908C220.772 55.0908 219.674 56.3828 219.674 58.9668L218.856 55.3809H219.938C220.017 54.4404 220.359 53.7417 220.966 53.2847C221.572 52.8188 222.46 52.5859 223.629 52.5859C225.105 52.5859 226.248 53.0342 227.057 53.9307C227.865 54.8271 228.27 56.0928 228.27 57.7275V66.8242H225.475ZM216.879 66.8242V52.8496H219.41L219.674 55.8027V66.8242H216.879ZM237.92 66.8242V53.6406H240.715V66.8242H237.92ZM232.594 66.8242V64.3721H238.184V66.8242H232.594ZM240.451 66.8242V64.3721H245.013V66.8242H240.451ZM233.385 55.3018V52.8496H240.715V55.3018H233.385ZM239.225 50.6348C238.689 50.6348 238.228 50.4458 237.841 50.0679C237.463 49.6812 237.274 49.2197 237.274 48.6836C237.274 48.1387 237.463 47.6772 237.841 47.2993C238.228 46.9214 238.689 46.7324 239.225 46.7324C239.77 46.7324 240.231 46.9214 240.609 47.2993C240.987 47.6772 241.176 48.1387 241.176 48.6836C241.176 49.2197 240.987 49.6812 240.609 50.0679C240.231 50.4458 239.77 50.6348 239.225 50.6348ZM254.215 56.4883C253.679 56.4883 253.217 56.2993 252.831 55.9214C252.453 55.5347 252.264 55.0732 252.264 54.5371C252.264 53.9922 252.453 53.5308 252.831 53.1528C253.217 52.7749 253.679 52.5859 254.215 52.5859C254.76 52.5859 255.221 52.7749 255.599 53.1528C255.977 53.5308 256.166 53.9922 256.166 54.5371C256.166 55.0732 255.977 55.5347 255.599 55.9214C255.221 56.2993 254.76 56.4883 254.215 56.4883ZM254.215 67.0879C253.679 67.0879 253.217 66.8989 252.831 66.521C252.453 66.1343 252.264 65.6729 252.264 65.1367C252.264 64.5918 252.453 64.1304 252.831 63.7524C253.217 63.3745 253.679 63.1855 254.215 63.1855C254.76 63.1855 255.221 63.3745 255.599 63.7524C255.977 64.1304 256.166 64.5918 256.166 65.1367C256.166 65.6729 255.977 66.1343 255.599 66.521C255.221 66.8989 254.76 67.0879 254.215 67.0879ZM263.443 60.417V59.3623C263.443 57.8418 263.725 56.7388 264.287 56.0532C264.85 55.3589 265.755 55.0117 267.003 55.0117C267.645 55.0117 268.247 55.1304 268.809 55.3677C269.38 55.605 269.921 55.8774 270.431 56.1851C270.861 56.4399 271.266 56.6948 271.644 56.9497C272.03 57.1958 272.43 57.3188 272.843 57.3188C273.239 57.3188 273.524 57.1958 273.7 56.9497C273.876 56.6948 273.964 56.2949 273.964 55.75V54.5635H276.627V55.6182C276.627 57.1387 276.376 58.2461 275.875 58.9404C275.375 59.626 274.57 59.9688 273.463 59.9688C272.839 59.9688 272.246 59.8501 271.683 59.6128C271.121 59.3667 270.589 59.0942 270.088 58.7954C269.64 58.5229 269.209 58.2681 268.796 58.0308C268.392 57.7847 267.965 57.6616 267.517 57.6616C267.025 57.6616 266.665 57.7891 266.436 58.0439C266.216 58.29 266.106 58.6855 266.106 59.2305V60.417H263.443ZM299.065 66.8242V54.0361C299.065 49.2021 301.271 46.7852 305.684 46.7852C306.686 46.7852 307.652 46.873 308.584 47.0488L308.294 49.4746C307.74 49.4043 307.252 49.356 306.831 49.3296C306.409 49.3032 306 49.29 305.604 49.29C303.108 49.29 301.86 50.8281 301.86 53.9043V66.8242H299.065ZM294.662 58.3867V55.9346H307.582V58.3867H294.662ZM318.709 67.0879C316.327 67.0879 314.486 66.4639 313.185 65.2158C311.893 63.959 311.247 62.1572 311.247 59.8105C311.247 57.5254 311.796 55.75 312.895 54.4844C313.994 53.2188 315.545 52.5859 317.549 52.5859C319.438 52.5859 320.897 53.1572 321.926 54.2998C322.963 55.4424 323.481 57.1035 323.481 59.2832C323.481 59.9248 323.455 60.5225 323.402 61.0762H313.594V58.9404H320.95C320.95 57.6836 320.651 56.7212 320.054 56.0532C319.456 55.3765 318.63 55.0381 317.575 55.0381C316.389 55.0381 315.466 55.4424 314.807 56.251C314.156 57.0596 313.831 58.2021 313.831 59.6787C313.831 61.2959 314.279 62.5264 315.176 63.3701C316.081 64.2139 317.364 64.6357 319.025 64.6357C319.605 64.6357 320.177 64.605 320.739 64.5435C321.302 64.4731 321.873 64.3809 322.453 64.2666L322.796 66.7188C321.97 66.877 321.214 66.978 320.528 67.022C319.843 67.0659 319.236 67.0879 318.709 67.0879ZM336.217 66.8242V57.7275C336.217 56.8838 335.997 56.2334 335.558 55.7764C335.118 55.3193 334.503 55.0908 333.712 55.0908C331.515 55.0908 330.416 56.3828 330.416 58.9668L329.599 55.3809H330.68C330.759 54.4404 331.102 53.7417 331.708 53.2847C332.314 52.8188 333.202 52.5859 334.371 52.5859C335.848 52.5859 336.99 53.0342 337.799 53.9307C338.607 54.8271 339.012 56.0928 339.012 57.7275V66.8242H336.217ZM327.621 66.8242V52.8496H330.152L330.416 55.8027V66.8242H327.621ZM348.188 60.8125L347.37 56.4355H348.451C348.609 53.8691 349.893 52.5859 352.301 52.5859C353.742 52.5859 354.788 52.999 355.438 53.8252C356.089 54.6514 356.414 55.9873 356.414 57.833H353.646C353.646 56.8135 353.492 56.0796 353.184 55.6313C352.885 55.1831 352.397 54.959 351.721 54.959C350.534 54.959 349.646 55.4688 349.058 56.4883C348.478 57.499 348.188 58.9404 348.188 60.8125ZM342.281 66.8242V64.3721H351.615V66.8242H342.281ZM345.393 66.8242V52.8496H347.66L348.188 56.8574V66.8242H345.393ZM342.809 55.3018V52.8496H347.476L347.739 55.3018H342.809ZM364.482 66.8242V53.6406H367.277V66.8242H364.482ZM359.156 66.8242V64.3721H364.746V66.8242H359.156ZM367.014 66.8242V64.3721H371.575V66.8242H367.014ZM359.947 55.3018V52.8496H367.277V55.3018H359.947ZM365.788 50.6348C365.251 50.6348 364.79 50.4458 364.403 50.0679C364.025 49.6812 363.836 49.2197 363.836 48.6836C363.836 48.1387 364.025 47.6772 364.403 47.2993C364.79 46.9214 365.251 46.7324 365.788 46.7324C366.333 46.7324 366.794 46.9214 367.172 47.2993C367.55 47.6772 367.739 48.1387 367.739 48.6836C367.739 49.2197 367.55 49.6812 367.172 50.0679C366.794 50.4458 366.333 50.6348 365.788 50.6348ZM379.696 67.0879C378.642 67.0879 377.736 67.0571 376.98 66.9956C376.233 66.9341 375.548 66.833 374.924 66.6924L375.24 64.1611C376.163 64.3018 376.976 64.4072 377.679 64.4775C378.391 64.5479 379.063 64.583 379.696 64.583C381.111 64.583 382.135 64.4468 382.768 64.1743C383.41 63.8931 383.73 63.4492 383.73 62.8428C383.73 62.4209 383.616 62.1089 383.388 61.9067C383.168 61.6958 382.825 61.5332 382.359 61.4189L379.143 60.6016C377.763 60.25 376.748 59.8149 376.097 59.2964C375.456 58.7778 375.135 57.9912 375.135 56.9365C375.135 55.4072 375.719 54.2998 376.888 53.6143C378.066 52.9287 379.96 52.5859 382.57 52.5859C383.247 52.5859 383.875 52.6079 384.456 52.6519C385.044 52.687 385.646 52.7529 386.262 52.8496L385.972 55.2754C385.26 55.2051 384.631 55.1567 384.086 55.1304C383.542 55.104 383.01 55.0908 382.491 55.0908C380.927 55.0908 379.793 55.2271 379.09 55.4995C378.387 55.7632 378.035 56.1982 378.035 56.8047C378.035 57.209 378.18 57.5034 378.47 57.688C378.76 57.8638 379.204 58.0264 379.802 58.1758L382.386 58.8086C383.854 59.1602 384.926 59.6304 385.603 60.2192C386.288 60.8081 386.631 61.665 386.631 62.79C386.631 64.293 386.082 65.3872 384.983 66.0728C383.884 66.7495 382.122 67.0879 379.696 67.0879ZM397.942 67.0879C395.561 67.0879 393.719 66.4639 392.418 65.2158C391.126 63.959 390.48 62.1572 390.48 59.8105C390.48 57.5254 391.091 55.75 392.313 54.4844C393.543 53.2188 395.297 52.5859 397.573 52.5859C398.936 52.5859 400.1 52.8408 401.067 53.3506C402.042 53.8516 402.737 54.5635 403.15 55.4863L401.001 57.1079C400.605 56.4663 400.1 55.9697 399.485 55.6182C398.87 55.2666 398.197 55.0908 397.468 55.0908C396.149 55.0908 395.125 55.4907 394.396 56.2905C393.667 57.0815 393.302 58.2109 393.302 59.6787C393.302 61.2695 393.728 62.4868 394.581 63.3306C395.442 64.1655 396.668 64.583 398.259 64.583C398.909 64.583 399.56 64.5522 400.21 64.4907C400.86 64.4292 401.493 64.3457 402.108 64.2402L402.425 66.6924C401.704 66.8506 400.957 66.9561 400.184 67.0088C399.419 67.0615 398.672 67.0879 397.942 67.0879ZM411.68 71.043V43.8848H413.499V71.043H411.68ZM411.772 67.0879C410.708 67.0879 409.711 67 408.779 66.8242C407.856 66.6572 407 66.4023 406.208 66.0596L406.551 63.3965C407.518 63.8096 408.45 64.126 409.346 64.3457C410.251 64.5566 411.13 64.6621 411.983 64.6621C413.213 64.6621 414.127 64.4468 414.725 64.0161C415.323 63.5854 415.622 62.9307 415.622 62.0518C415.622 60.9355 415.05 60.1182 413.908 59.5996L410.665 58.123C409.39 57.543 408.41 56.8442 407.725 56.0269C407.048 55.2095 406.709 54.1943 406.709 52.9814C406.709 51.3467 407.202 50.0811 408.186 49.1846C409.17 48.2881 410.563 47.8398 412.365 47.8398C413.622 47.8398 414.734 48.0244 415.701 48.3936C416.667 48.7627 417.599 49.3647 418.496 50.1997L416.65 52.0718C415.876 51.439 415.151 50.9819 414.475 50.7007C413.807 50.4106 413.108 50.2656 412.378 50.2656C411.473 50.2656 410.77 50.4854 410.269 50.9248C409.777 51.3555 409.531 51.9971 409.531 52.8496C409.531 53.4561 409.693 53.9526 410.019 54.3394C410.344 54.7173 410.823 55.0557 411.456 55.3545L414.198 56.6465C415.586 57.2969 416.641 58.0308 417.362 58.8481C418.083 59.6655 418.443 60.7158 418.443 61.999C418.443 63.6953 417.889 64.9697 416.782 65.8223C415.683 66.666 414.013 67.0879 411.772 67.0879ZM438.548 73.126L438.416 70.5684L442.898 70.4365C444.313 70.3926 445.342 70.0015 445.983 69.2632C446.625 68.5249 446.95 67.4395 446.959 66.0068V55.8027L447.223 52.8496H449.754V65.585C449.754 68.0723 449.187 69.9092 448.053 71.0957C446.919 72.2822 445.113 72.915 442.635 72.9941L438.548 73.126ZM442.991 67.0879C441.163 67.0879 439.774 66.4858 438.825 65.2817C437.884 64.0776 437.414 62.3066 437.414 59.9688C437.414 57.543 437.884 55.7061 438.825 54.458C439.774 53.21 441.163 52.5859 442.991 52.5859C444.081 52.5859 444.964 52.832 445.641 53.3242C446.317 53.8164 446.713 54.502 446.827 55.3809H447.908L446.959 59.3623C446.959 57.9209 446.673 56.8267 446.102 56.0796C445.54 55.3325 444.709 54.959 443.61 54.959C442.485 54.959 441.633 55.3809 441.053 56.2246C440.473 57.0684 440.183 58.3164 440.183 59.9688C440.183 61.5332 440.473 62.7153 441.053 63.5151C441.633 64.3149 442.485 64.7148 443.61 64.7148C444.709 64.7148 445.54 64.3413 446.102 63.5942C446.673 62.8472 446.959 61.7529 446.959 60.3115L447.908 64.293H446.695C446.607 65.1719 446.234 65.8574 445.575 66.3496C444.924 66.8418 444.063 67.0879 442.991 67.0879ZM461.092 67.0879C458.71 67.0879 456.869 66.4639 455.568 65.2158C454.276 63.959 453.63 62.1572 453.63 59.8105C453.63 57.5254 454.179 55.75 455.278 54.4844C456.376 53.2188 457.928 52.5859 459.932 52.5859C461.821 52.5859 463.28 53.1572 464.309 54.2998C465.346 55.4424 465.864 57.1035 465.864 59.2832C465.864 59.9248 465.838 60.5225 465.785 61.0762H455.977V58.9404H463.333C463.333 57.6836 463.034 56.7212 462.437 56.0532C461.839 55.3765 461.013 55.0381 459.958 55.0381C458.771 55.0381 457.849 55.4424 457.189 56.251C456.539 57.0596 456.214 58.2021 456.214 59.6787C456.214 61.2959 456.662 62.5264 457.559 63.3701C458.464 64.2139 459.747 64.6357 461.408 64.6357C461.988 64.6357 462.56 64.605 463.122 64.5435C463.685 64.4731 464.256 64.3809 464.836 64.2666L465.179 66.7188C464.353 66.877 463.597 66.978 462.911 67.022C462.226 67.0659 461.619 67.0879 461.092 67.0879ZM478.23 67.0879C476.112 67.0879 474.579 66.6484 473.629 65.7695C472.689 64.8906 472.219 63.4844 472.219 61.5508V59.1777H475.014V61.4189C475.014 62.5264 475.282 63.3306 475.818 63.8315C476.363 64.3325 477.255 64.583 478.494 64.583C478.934 64.583 479.399 64.561 479.892 64.5171C480.384 64.4644 480.946 64.3984 481.579 64.3193L481.896 66.7715C481.28 66.877 480.678 66.9561 480.089 67.0088C479.509 67.0615 478.89 67.0879 478.23 67.0879ZM472.219 60.2324V48.6309H475.014V60.2324H472.219ZM468.712 55.3018V52.8496H481.368V55.3018H468.712ZM492.864 67.0879C490.482 67.0879 488.641 66.4639 487.34 65.2158C486.048 63.959 485.402 62.1572 485.402 59.8105C485.402 57.5254 486.013 55.75 487.235 54.4844C488.465 53.2188 490.219 52.5859 492.495 52.5859C493.857 52.5859 495.022 52.8408 495.989 53.3506C496.964 53.8516 497.659 54.5635 498.072 55.4863L495.923 57.1079C495.527 56.4663 495.022 55.9697 494.407 55.6182C493.792 55.2666 493.119 55.0908 492.39 55.0908C491.071 55.0908 490.047 55.4907 489.318 56.2905C488.588 57.0815 488.224 58.2109 488.224 59.6787C488.224 61.2695 488.65 62.4868 489.502 63.3306C490.364 64.1655 491.59 64.583 493.181 64.583C493.831 64.583 494.481 64.5522 495.132 64.4907C495.782 64.4292 496.415 64.3457 497.03 64.2402L497.347 66.6924C496.626 66.8506 495.879 66.9561 495.105 67.0088C494.341 67.0615 493.594 67.0879 492.864 67.0879ZM507.34 67.0879C505.406 67.0879 503.903 66.4551 502.831 65.1895C501.759 63.9238 501.223 62.1396 501.223 59.8369C501.223 57.5254 501.759 55.7412 502.831 54.4844C503.903 53.2188 505.406 52.5859 507.34 52.5859C509.282 52.5859 510.785 53.2188 511.849 54.4844C512.921 55.7412 513.457 57.5254 513.457 59.8369C513.457 62.1396 512.921 63.9238 511.849 65.1895C510.785 66.4551 509.282 67.0879 507.34 67.0879ZM507.34 64.583C508.368 64.583 509.159 64.1699 509.713 63.3438C510.275 62.5176 510.557 61.3486 510.557 59.8369C510.557 58.3164 510.275 57.1475 509.713 56.3301C509.159 55.5039 508.368 55.0908 507.34 55.0908C506.312 55.0908 505.516 55.5039 504.954 56.3301C504.4 57.1475 504.123 58.3164 504.123 59.8369C504.123 61.3486 504.4 62.5176 504.954 63.3438C505.516 64.1699 506.312 64.583 507.34 64.583ZM526.061 66.8242V57.7275C526.061 56.8838 525.841 56.2334 525.401 55.7764C524.962 55.3193 524.347 55.0908 523.556 55.0908C521.358 55.0908 520.26 56.3828 520.26 58.9668L519.442 55.3809H520.523C520.603 54.4404 520.945 53.7417 521.552 53.2847C522.158 52.8188 523.046 52.5859 524.215 52.5859C525.691 52.5859 526.834 53.0342 527.643 53.9307C528.451 54.8271 528.855 56.0928 528.855 57.7275V66.8242H526.061ZM517.465 66.8242V52.8496H519.996L520.26 55.8027V66.8242H517.465ZM536.37 66.8242V54.0361C536.37 49.2021 538.576 46.7852 542.988 46.7852C543.99 46.7852 544.957 46.873 545.889 47.0488L545.599 49.4746C545.045 49.4043 544.557 49.356 544.135 49.3296C543.713 49.3032 543.305 49.29 542.909 49.29C540.413 49.29 539.165 50.8281 539.165 53.9043V66.8242H536.37ZM531.967 58.3867V55.9346H544.887V58.3867H531.967ZM564.82 66.8242V48.1035H567.562V66.8242H564.82ZM564.82 66.8242V64.3193H577.213V66.8242H564.82ZM586.441 67.0879C581.836 67.0879 579.533 63.9238 579.533 57.5957C579.533 51.0918 581.836 47.8398 586.441 47.8398C591.047 47.8398 593.35 51.0918 593.35 57.5957C593.35 63.9238 591.047 67.0879 586.441 67.0879ZM586.441 64.6621C589.166 64.6621 590.528 62.3066 590.528 57.5957C590.528 52.709 589.166 50.2656 586.441 50.2656C583.717 50.2656 582.354 52.709 582.354 57.5957C582.354 62.3066 583.717 64.6621 586.441 64.6621ZM604.688 66.8242L599.309 52.5859H598.096V48.1035H599.836L605.215 62.3418H605.874V66.8242H604.688ZM596.303 66.8242V48.1035H599.045V66.8242H596.303ZM605.479 66.8242V48.1035H608.221V66.8242H605.479ZM619.427 67.0879C616.632 67.0879 614.536 66.2837 613.138 64.6753C611.741 63.0669 611.042 60.6543 611.042 57.4375C611.042 54.3877 611.767 52.0278 613.217 50.3579C614.667 48.6792 616.702 47.8398 619.321 47.8398C620.631 47.8398 621.778 48.0464 622.762 48.4595C623.747 48.8638 624.472 49.4395 624.938 50.1865L622.973 52.1377C622.569 51.54 622.059 51.0786 621.444 50.7534C620.837 50.4282 620.183 50.2656 619.479 50.2656C617.704 50.2656 616.324 50.8809 615.34 52.1113C614.355 53.333 613.863 55.0645 613.863 57.3057C613.863 59.7578 614.355 61.5991 615.34 62.8296C616.324 64.0513 617.792 64.6621 619.743 64.6621C620.578 64.6621 621.312 64.583 621.945 64.4248C622.586 64.2578 623.109 64.1172 623.514 64.0029L624.542 66.2969C624.173 66.4111 623.522 66.5737 622.591 66.7847C621.668 66.9868 620.613 67.0879 619.427 67.0879ZM621.932 66.2969V57.4639H624.542V66.2969H621.932ZM618.214 59.9688V57.4639H624.463V59.9688H618.214ZM627.311 69.2764V66.8242H640.494V69.2764H627.311ZM646.479 66.8242V64.3193H650.329C651.489 64.3193 652.39 64.0557 653.032 63.5283C653.673 62.9922 653.994 62.2451 653.994 61.2871C653.994 60.3027 653.66 59.5425 652.992 59.0063C652.324 58.4614 651.375 58.189 650.145 58.189H646.532L646.216 56.9893H650.804C652.702 56.9893 654.17 57.3979 655.207 58.2153C656.244 59.0327 656.763 60.1885 656.763 61.6826C656.763 63.3174 656.271 64.583 655.286 65.4795C654.302 66.376 652.904 66.8242 651.094 66.8242H646.479ZM643.922 66.8242V48.1035H646.664V66.8242H643.922ZM645.583 57.6221V56.3301H650.962V57.6221H645.583ZM646.479 56.8838V55.6841H649.538C650.531 55.6841 651.3 55.4644 651.845 55.0249C652.399 54.5767 652.676 53.9395 652.676 53.1133C652.676 52.3047 652.386 51.6851 651.806 51.2544C651.234 50.8237 650.417 50.6084 649.354 50.6084H646.532L646.216 48.1035H649.485C651.384 48.1035 652.852 48.5166 653.889 49.3428C654.926 50.1602 655.444 51.3291 655.444 52.8496C655.444 54.1416 654.952 55.1392 653.968 55.8423C652.983 56.5366 651.586 56.8838 649.775 56.8838H646.479ZM664.159 66.8242V48.1035H666.901V66.8242H664.159ZM659.848 66.8242V64.3193H671.238V66.8242H659.848ZM659.848 50.6084V48.1035H671.238V50.6084H659.848ZM679.992 66.8242V48.1035H682.734V66.8242H679.992ZM674.508 50.6084V48.1035H688.219V50.6084H674.508ZM17.0156 98.0879C14.8447 98.0879 13.2451 97.5474 12.2168 96.4663C11.1973 95.3853 10.6875 93.7021 10.6875 91.417L12.876 89.0176H13.8516C14.1152 88.042 14.6382 87.2905 15.4204 86.7632C16.2114 86.2271 17.1738 85.959 18.3076 85.959C19.9424 85.959 21.2036 86.4644 22.0913 87.4751C22.979 88.4858 23.4229 89.9141 23.4229 91.7598C23.4229 93.7461 22.856 95.2974 21.7222 96.4136C20.5972 97.5298 19.0283 98.0879 17.0156 98.0879ZM17.1079 95.6621C18.2241 95.6621 19.0942 95.3193 19.7183 94.6338C20.3423 93.9395 20.6543 92.9814 20.6543 91.7598C20.6543 90.6787 20.3643 89.8481 19.7842 89.2681C19.2129 88.6792 18.3911 88.3848 17.3188 88.3848C16.0972 88.3848 15.1567 88.7012 14.4976 89.334C13.8384 89.9668 13.5088 90.8633 13.5088 92.0234C13.5088 93.166 13.8252 94.0581 14.458 94.6997C15.0908 95.3413 15.9741 95.6621 17.1079 95.6621ZM10.6875 91.417V90.2568C10.6875 86.6797 11.5928 83.9595 13.4033 82.0962C15.2227 80.2329 17.9912 79.209 21.709 79.0244L21.9727 81.5293C16.4004 81.7666 13.6143 84.2715 13.6143 89.0439V90.5469L10.6875 91.417ZM25.7959 93.6318L28.4326 80.1582H31.2803L28.6172 93.6318H25.7959ZM25.7959 93.6318L27.6416 91.1797H35.3408V93.6318H25.7959ZM37.5557 93.6318V91.1797H39.5859V93.6318H37.5557ZM35.0771 97.8242V79.1035H37.8193V97.8242H35.0771Z" fill="black"/>
<rect x="434" y="43.8242" width="258" height="32" stroke="#8B9569" stroke-width="2"/>
<rect x="5.63818" y="72.7188" width="41.4255" height="32.1489" stroke="#8B9569" stroke-width="2"/>
</svg>
