<svg width="3048" height="905" viewBox="0 0 3048 905" fill="none" xmlns="http://www.w3.org/2000/svg">
<rect y="4.82422" width="896" height="896" rx="40" fill="#A3927F"/>
<rect y="4.82422" width="896" height="896" rx="40" fill="#D3D6D7"/>
<mask id="mask0_439_3458" style="mask-type:alpha" maskUnits="userSpaceOnUse" x="0" y="4" width="896" height="897">
<rect y="4.82422" width="896" height="896" rx="40" fill="#D9D9D9"/>
</mask>
<g mask="url(#mask0_439_3458)">
<rect x="-35" y="1019.39" width="896" height="896" rx="89" transform="rotate(-45 -35 1019.39)" fill="url(#paint0_linear_439_3458)"/>
<rect x="-356" y="913.391" width="896" height="896" rx="89" transform="rotate(-45 -356 913.391)" fill="url(#paint1_linear_439_3458)"/>
</g>
<circle cx="598.5" cy="218.324" r="86.5" fill="#D3D6D7"/>
<circle cx="598.5" cy="218.324" r="86.5" fill="#A3927F"/>
<path d="M951.6 518.124L939.2 505.724L973.6 471.124L939.2 436.724L951.6 424.324L986 458.724L1020.6 424.324L1033 436.724L998.4 471.124L1033 505.724L1020.6 518.124L986 483.724L951.6 518.124Z" fill="black"/>
<rect x="1074" y="2.82422" width="900" height="900" rx="42" fill="white" stroke="#D3D6D7" stroke-width="4"/>
<path d="M1437.61 627.18C1437.61 621.892 1441.9 617.605 1447.19 617.605C1452.48 617.605 1456.76 621.892 1456.76 627.18V702.178C1456.76 707.466 1452.48 711.752 1447.19 711.752C1441.9 711.752 1437.61 707.466 1437.61 702.178V627.18Z" fill="black"/>
<path d="M1446.59 312.824L1501.61 440.481H1487.83L1523.78 494.735H1513.5L1548.52 539.415H1533.1L1569.26 584.095H1554.49L1600.38 635.157H1294L1339.74 584.095H1324.32L1360.36 539.415H1345.86L1380.47 494.735H1370.59L1405.99 440.481H1392.93L1446.59 312.824Z" fill="black"/>
<path d="M2012.8 459.724V442.124H2111.2V459.724H2012.8ZM2012.8 499.524V482.124H2111.2V499.524H2012.8Z" fill="black"/>
<rect x="2152" y="4.82422" width="896" height="896" rx="40" fill="#A3927F"/>
<rect x="2152" y="4.82422" width="896" height="896" rx="40" fill="#D3D6D7"/>
<mask id="mask1_439_3458" style="mask-type:alpha" maskUnits="userSpaceOnUse" x="2152" y="4" width="896" height="897">
<rect x="2152" y="4.82422" width="896" height="896" rx="40" fill="#D9D9D9"/>
</mask>
<g mask="url(#mask1_439_3458)">
<rect x="2117" y="1019.39" width="896" height="896" rx="89" transform="rotate(-45 2117 1019.39)" fill="url(#paint2_linear_439_3458)"/>
<rect x="1796" y="913.391" width="896" height="896" rx="89" transform="rotate(-45 1796 913.391)" fill="url(#paint3_linear_439_3458)"/>
</g>
<circle cx="2750.5" cy="218.324" r="86.5" fill="#D3D6D7"/>
<circle cx="2750.5" cy="218.324" r="86.5" fill="#A3927F"/>
<path d="M2513.61 627.18C2513.61 621.892 2517.9 617.605 2523.19 617.605C2528.48 617.605 2532.76 621.892 2532.76 627.18V702.178C2532.76 707.466 2528.48 711.752 2523.19 711.752C2517.9 711.752 2513.61 707.466 2513.61 702.178V627.18Z" fill="black"/>
<path d="M2522.59 312.824L2577.61 440.481H2563.83L2599.78 494.735H2589.5L2624.52 539.415H2609.1L2645.26 584.095H2630.49L2676.38 635.157H2370L2415.74 584.095H2400.32L2436.36 539.415H2421.86L2456.47 494.735H2446.59L2481.99 440.481H2468.93L2522.59 312.824Z" fill="black"/>
<defs>
<linearGradient id="paint0_linear_439_3458" x1="861.306" y1="1019.7" x2="155.613" y2="1725.39" gradientUnits="userSpaceOnUse">
<stop stop-color="#8B9569"/>
<stop offset="1" stop-color="#515B48"/>
</linearGradient>
<linearGradient id="paint1_linear_439_3458" x1="540.306" y1="913.696" x2="-151.245" y2="1605.25" gradientUnits="userSpaceOnUse">
<stop stop-color="#515B48"/>
<stop offset="1" stop-color="#303533"/>
</linearGradient>
<linearGradient id="paint2_linear_439_3458" x1="3013.31" y1="1019.7" x2="2307.61" y2="1725.39" gradientUnits="userSpaceOnUse">
<stop stop-color="#8B9569"/>
<stop offset="1" stop-color="#515B48"/>
</linearGradient>
<linearGradient id="paint3_linear_439_3458" x1="2692.31" y1="913.696" x2="2000.76" y2="1605.25" gradientUnits="userSpaceOnUse">
<stop stop-color="#515B48"/>
<stop offset="1" stop-color="#303533"/>
</linearGradient>
</defs>
</svg>
