<svg width="3008" height="897" viewBox="0 0 3008 897" fill="none" xmlns="http://www.w3.org/2000/svg">
<rect y="0.824219" width="896" height="896" rx="40" fill="#D3D6D7"/>
<path d="M361.614 623.18C361.614 617.892 365.9 613.605 371.188 613.605C376.476 613.605 380.762 617.892 380.762 623.18V698.178C380.762 703.466 376.476 707.752 371.188 707.752C365.9 707.752 361.614 703.466 361.614 698.178V623.18Z" fill="#A3927F"/>
<path d="M370.59 308.824L425.606 436.481H411.829L447.782 490.735H437.498L472.515 535.415H457.104L493.26 580.095H478.488L524.376 631.157H218L263.739 580.095H248.318L284.356 535.415H269.861L304.467 490.735H294.594L329.989 436.481H316.934L370.59 308.824Z" fill="#8B9569"/>
<path d="M941.6 514.124L929.2 501.724L963.6 467.124L929.2 432.724L941.6 420.324L976 454.724L1010.6 420.324L1023 432.724L988.4 467.124L1023 501.724L1010.6 514.124L976 479.724L941.6 514.124Z" fill="white"/>
<rect x="1056" y="0.824219" width="896" height="896" rx="40" fill="black"/>
<path d="M1405.61 623.18C1405.61 617.892 1409.9 613.605 1415.19 613.605C1420.48 613.605 1424.76 617.892 1424.76 623.18V698.178C1424.76 703.466 1420.48 707.752 1415.19 707.752C1409.9 707.752 1405.61 703.466 1405.61 698.178V623.18Z" fill="white"/>
<path d="M1414.59 308.824L1469.61 436.481H1455.83L1491.78 490.735H1481.5L1516.52 535.415H1501.1L1537.26 580.095H1522.49L1568.38 631.157H1262L1307.74 580.095H1292.32L1328.36 535.415H1313.86L1348.47 490.735H1338.59L1373.99 436.481H1360.93L1414.59 308.824Z" fill="white"/>
<path d="M1982.8 455.724V438.124H2081.2V455.724H1982.8ZM1982.8 495.524V478.124H2081.2V495.524H1982.8Z" fill="white"/>
<rect x="2112" y="0.824219" width="896" height="896" rx="40" fill="black"/>
<path d="M2473.61 623.18C2473.61 617.892 2477.9 613.605 2483.19 613.605C2488.48 613.605 2492.76 617.892 2492.76 623.18V698.178C2492.76 703.466 2488.48 707.752 2483.19 707.752C2477.9 707.752 2473.61 703.466 2473.61 698.178V623.18Z" fill="#A3927F"/>
<path d="M2482.59 308.824L2537.61 436.481H2523.83L2559.78 490.735H2549.5L2584.52 535.415H2569.1L2605.26 580.095H2590.49L2636.38 631.157H2330L2375.74 580.095H2360.32L2396.36 535.415H2381.86L2416.47 490.735H2406.59L2441.99 436.481H2428.93L2482.59 308.824Z" fill="#8B9569"/>
</svg>
