<svg width="1329" height="334" viewBox="0 0 1329 334" fill="none" xmlns="http://www.w3.org/2000/svg">
<mask id="mask0_439_1633" style="mask-type:alpha" maskUnits="userSpaceOnUse" x="0" y="0" width="1329" height="334">
<rect y="0.824219" width="1329" height="333" rx="16" fill="#D9D9D9"/>
</mask>
<g mask="url(#mask0_439_1633)">
<rect y="0.824219" width="1329" height="333" rx="16" fill="#F0F0F0"/>
<rect y="0.824219" width="1329" height="61" fill="#F5F4E8"/>
</g>
<path d="M32.0825 39.8242H29.8813L20.9307 26.0332H20.8408C20.8633 26.4001 20.8895 26.8193 20.9194 27.291C20.9494 27.7552 20.9718 28.2531 20.9868 28.7847C21.0093 29.3088 21.0205 29.8441 21.0205 30.3906V39.8242H19.2461V23.4053H21.436L30.353 37.1514H30.4316C30.4167 36.8893 30.3979 36.5187 30.3755 36.0396C30.353 35.5529 30.3306 35.0326 30.3081 34.4785C30.2931 33.917 30.2856 33.3966 30.2856 32.9175V23.4053H32.0825V39.8242ZM41.022 27.291C42.0701 27.291 42.9686 27.5231 43.7173 27.9873C44.466 28.4515 45.0387 29.1029 45.4355 29.9414C45.8324 30.7725 46.0308 31.7458 46.0308 32.8613V34.0181H37.5293C37.5518 35.4631 37.9111 36.5636 38.6074 37.3198C39.3037 38.076 40.2845 38.4541 41.5498 38.4541C42.3285 38.4541 43.0173 38.383 43.6162 38.2407C44.2152 38.0985 44.8366 37.8888 45.4805 37.6118V39.2515C44.859 39.5285 44.2414 39.7306 43.6274 39.8579C43.021 39.9852 42.3022 40.0488 41.4712 40.0488C40.2882 40.0488 39.255 39.8092 38.3716 39.3301C37.4956 38.8434 36.8143 38.1322 36.3276 37.1963C35.841 36.2604 35.5977 35.1149 35.5977 33.7598C35.5977 32.4346 35.8185 31.2891 36.2603 30.3232C36.7095 29.3499 37.3384 28.6012 38.147 28.0771C38.9631 27.5531 39.9214 27.291 41.022 27.291ZM40.9995 28.8184C40.0037 28.8184 39.2101 29.144 38.6187 29.7954C38.0272 30.4468 37.6753 31.3564 37.563 32.5244H44.0767C44.0692 31.7907 43.9531 31.1468 43.7285 30.5928C43.5114 30.0312 43.1782 29.597 42.729 29.29C42.2798 28.9756 41.7033 28.8184 40.9995 28.8184ZM59.2153 39.8018L57.0254 32.6367C56.9281 32.3298 56.8345 32.0303 56.7446 31.7383C56.6623 31.4388 56.5837 31.1543 56.5088 30.8848C56.4414 30.6077 56.3778 30.3532 56.3179 30.1211C56.2655 29.8815 56.2205 29.6756 56.1831 29.5034H56.1045C56.0745 29.6756 56.0334 29.8815 55.981 30.1211C55.9285 30.3532 55.8649 30.6077 55.79 30.8848C55.7227 31.1618 55.6478 31.4538 55.5654 31.7607C55.4831 32.0602 55.3895 32.3634 55.2847 32.6704L52.9937 39.8018H50.8936L47.502 27.4932H49.4336L51.208 34.2876C51.3278 34.7368 51.4401 35.1823 51.5449 35.624C51.6572 36.0583 51.7508 36.4701 51.8257 36.8594C51.908 37.2412 51.9679 37.5744 52.0054 37.8589H52.0952C52.1401 37.6717 52.1888 37.4471 52.2412 37.1851C52.3011 36.923 52.3647 36.646 52.4321 36.354C52.507 36.0545 52.5856 35.7588 52.668 35.4668C52.7503 35.1673 52.8327 34.8866 52.915 34.6245L55.1836 27.4932H57.1938L59.3838 34.6133C59.4961 34.9727 59.6047 35.347 59.7095 35.7363C59.8218 36.1257 59.9229 36.5037 60.0127 36.8706C60.1025 37.23 60.1662 37.5519 60.2036 37.8364H60.2935C60.3234 37.5819 60.3796 37.2674 60.4619 36.8931C60.5443 36.5187 60.6379 36.1069 60.7427 35.6577C60.855 35.2085 60.971 34.7518 61.0908 34.2876L62.8877 27.4932H64.7856L61.3828 39.8018H59.2153ZM82.5522 35.4556C82.5522 36.4289 82.3089 37.2599 81.8223 37.9487C81.3431 38.63 80.6693 39.1504 79.8008 39.5098C78.9323 39.8691 77.9103 40.0488 76.7349 40.0488C76.1134 40.0488 75.5257 40.0189 74.9717 39.959C74.4176 39.8991 73.9085 39.813 73.4443 39.7007C72.9801 39.5884 72.5721 39.4499 72.2202 39.2852V37.4546C72.7817 37.6867 73.4668 37.9038 74.2754 38.106C75.084 38.3006 75.93 38.3979 76.8135 38.3979C77.637 38.3979 78.3333 38.2894 78.9023 38.0723C79.4714 37.8477 79.9019 37.5295 80.1938 37.1177C80.4933 36.6984 80.6431 36.1968 80.6431 35.6128C80.6431 35.0513 80.5195 34.5833 80.2725 34.209C80.0254 33.8271 79.6136 33.4827 79.0371 33.1758C78.4681 32.8613 77.6895 32.5282 76.7012 32.1763C76.0049 31.9292 75.391 31.6597 74.8594 31.3677C74.3278 31.0682 73.8823 30.7313 73.5229 30.3569C73.1636 29.9826 72.8903 29.5483 72.7031 29.0542C72.5234 28.5601 72.4336 27.9948 72.4336 27.3584C72.4336 26.4824 72.6545 25.7337 73.0962 25.1123C73.5454 24.4834 74.1631 24.0042 74.9492 23.6748C75.7428 23.3379 76.6525 23.1694 77.6782 23.1694C78.5542 23.1694 79.3628 23.2518 80.104 23.4165C80.8527 23.5812 81.5378 23.8021 82.1592 24.0791L81.564 25.7188C80.9725 25.4717 80.3436 25.2658 79.6772 25.1011C79.0184 24.9364 78.3371 24.854 77.6333 24.854C76.9295 24.854 76.3343 24.9588 75.8477 25.1685C75.3685 25.3706 75.0016 25.6589 74.7471 26.0332C74.4925 26.4076 74.3652 26.853 74.3652 27.3696C74.3652 27.9461 74.485 28.4253 74.7246 28.8071C74.9717 29.189 75.361 29.5296 75.8926 29.8291C76.4316 30.1211 77.1429 30.4281 78.0264 30.75C78.9922 31.1019 79.812 31.4762 80.4858 31.873C81.1597 32.2624 81.6725 32.7415 82.0244 33.3105C82.3763 33.8721 82.5522 34.5871 82.5522 35.4556ZM83.6865 27.5156H85.6855L88.4033 34.6582C88.5605 35.0775 88.7065 35.4818 88.8413 35.8711C88.9761 36.2529 89.0959 36.6198 89.2007 36.9717C89.3055 37.3236 89.3879 37.6642 89.4478 37.9937H89.5264C89.6312 37.6193 89.7809 37.1289 89.9756 36.5225C90.1702 35.9085 90.3799 35.2834 90.6045 34.647L93.1763 27.5156H95.1865L89.8296 41.6323C89.5451 42.3885 89.2119 43.0474 88.8301 43.6089C88.4557 44.1704 87.999 44.6009 87.46 44.9004C86.9209 45.2074 86.2695 45.3608 85.5059 45.3608C85.154 45.3608 84.8433 45.3384 84.5737 45.2935C84.3042 45.256 84.0721 45.2111 83.8774 45.1587V43.665C84.0422 43.7025 84.2406 43.7362 84.4727 43.7661C84.7122 43.7961 84.9593 43.811 85.2139 43.811C85.6781 43.811 86.0786 43.7212 86.4155 43.5415C86.7599 43.3693 87.0557 43.1147 87.3027 42.7778C87.5498 42.4409 87.7632 42.0404 87.9429 41.5762L88.6167 39.8467L83.6865 27.5156ZM105.114 36.4551C105.114 37.2412 104.916 37.9038 104.519 38.4429C104.13 38.9744 103.568 39.375 102.834 39.6445C102.108 39.9141 101.24 40.0488 100.229 40.0488C99.368 40.0488 98.623 39.9814 97.9941 39.8467C97.3652 39.7119 96.8149 39.521 96.3433 39.2739V37.5557C96.8449 37.8027 97.4438 38.0273 98.1401 38.2295C98.8364 38.4316 99.5477 38.5327 100.274 38.5327C101.337 38.5327 102.108 38.3605 102.587 38.0161C103.067 37.6717 103.306 37.2038 103.306 36.6123C103.306 36.2754 103.209 35.9797 103.014 35.7251C102.827 35.4631 102.509 35.2122 102.06 34.9727C101.61 34.7256 100.989 34.4561 100.195 34.1641C99.4092 33.8646 98.7279 33.5688 98.1514 33.2769C97.5824 32.9774 97.1406 32.6143 96.8262 32.1875C96.5192 31.7607 96.3657 31.2067 96.3657 30.5254C96.3657 29.4847 96.785 28.6873 97.6235 28.1333C98.4696 27.5718 99.5776 27.291 100.948 27.291C101.689 27.291 102.382 27.3659 103.025 27.5156C103.677 27.6579 104.283 27.8525 104.845 28.0996L104.216 29.5933C103.707 29.3761 103.164 29.1927 102.587 29.043C102.011 28.8932 101.423 28.8184 100.824 28.8184C99.9632 28.8184 99.3006 28.9606 98.8364 29.2451C98.3797 29.5296 98.1514 29.9189 98.1514 30.4131C98.1514 30.7949 98.2562 31.1094 98.4658 31.3564C98.6829 31.6035 99.0273 31.8356 99.499 32.0527C99.9707 32.2699 100.592 32.5244 101.363 32.8164C102.134 33.1009 102.801 33.3966 103.362 33.7036C103.924 34.0031 104.354 34.37 104.654 34.8042C104.961 35.231 105.114 35.7812 105.114 36.4551ZM112.088 38.5215C112.395 38.5215 112.71 38.4953 113.032 38.4429C113.354 38.3905 113.616 38.3268 113.818 38.252V39.7007C113.601 39.798 113.298 39.8804 112.908 39.9478C112.526 40.0151 112.152 40.0488 111.785 40.0488C111.134 40.0488 110.542 39.9365 110.011 39.7119C109.479 39.4798 109.052 39.0905 108.73 38.5439C108.416 37.9974 108.259 37.2412 108.259 36.2754V28.9756H106.507V28.0659L108.27 27.3359L109.011 24.6631H110.134V27.5156H113.739V28.9756H110.134V36.2192C110.134 36.9904 110.31 37.5669 110.662 37.9487C111.021 38.3306 111.497 38.5215 112.088 38.5215ZM121.05 27.291C122.098 27.291 122.997 27.5231 123.746 27.9873C124.494 28.4515 125.067 29.1029 125.464 29.9414C125.861 30.7725 126.059 31.7458 126.059 32.8613V34.0181H117.558C117.58 35.4631 117.939 36.5636 118.636 37.3198C119.332 38.076 120.313 38.4541 121.578 38.4541C122.357 38.4541 123.046 38.383 123.645 38.2407C124.243 38.0985 124.865 37.8888 125.509 37.6118V39.2515C124.887 39.5285 124.27 39.7306 123.656 39.8579C123.049 39.9852 122.331 40.0488 121.5 40.0488C120.317 40.0488 119.283 39.8092 118.4 39.3301C117.524 38.8434 116.843 38.1322 116.356 37.1963C115.869 36.2604 115.626 35.1149 115.626 33.7598C115.626 32.4346 115.847 31.2891 116.289 30.3232C116.738 29.3499 117.367 28.6012 118.175 28.0771C118.991 27.5531 119.95 27.291 121.05 27.291ZM121.028 28.8184C120.032 28.8184 119.238 29.144 118.647 29.7954C118.056 30.4468 117.704 31.3564 117.591 32.5244H124.105C124.097 31.7907 123.981 31.1468 123.757 30.5928C123.54 30.0312 123.207 29.597 122.757 29.29C122.308 28.9756 121.732 28.8184 121.028 28.8184ZM142.59 27.291C143.945 27.291 144.967 27.6466 145.656 28.3579C146.345 29.0617 146.689 30.196 146.689 31.7607V39.8242H144.848V31.8506C144.848 30.8548 144.631 30.1099 144.196 29.6157C143.77 29.1141 143.133 28.8633 142.287 28.8633C141.097 28.8633 140.232 29.2077 139.693 29.8965C139.154 30.5853 138.884 31.5998 138.884 32.9399V39.8242H137.031V31.8506C137.031 31.1842 136.934 30.6302 136.739 30.1885C136.552 29.7467 136.268 29.4173 135.886 29.2002C135.511 28.9756 135.036 28.8633 134.459 28.8633C133.643 28.8633 132.988 29.0317 132.494 29.3687C132 29.7056 131.641 30.2072 131.416 30.8735C131.199 31.5324 131.09 32.3447 131.09 33.3105V39.8242H129.226V27.5156H130.731L131.012 29.2563H131.113C131.36 28.8296 131.671 28.4702 132.045 28.1782C132.419 27.8862 132.839 27.6654 133.303 27.5156C133.767 27.3659 134.261 27.291 134.785 27.291C135.721 27.291 136.503 27.467 137.132 27.8188C137.769 28.1632 138.229 28.6911 138.514 29.4023H138.615C139.019 28.6911 139.573 28.1632 140.277 27.8188C140.981 27.467 141.752 27.291 142.59 27.291ZM168.241 23.4053L162.345 39.8242H160.424L154.528 23.4053H156.527L160.368 34.2202C160.525 34.6545 160.664 35.07 160.784 35.4668C160.911 35.8636 161.023 36.2454 161.121 36.6123C161.218 36.9792 161.304 37.3348 161.379 37.6792C161.454 37.3348 161.54 36.9792 161.637 36.6123C161.735 36.238 161.847 35.8524 161.974 35.4556C162.101 35.0513 162.244 34.6283 162.401 34.1865L166.219 23.4053H168.241ZM174.822 27.3135C176.289 27.3135 177.379 27.6429 178.09 28.3018C178.801 28.9606 179.157 30.0125 179.157 31.4575V39.8242H177.798L177.438 38.0049H177.349C177.004 38.4541 176.645 38.8322 176.271 39.1392C175.896 39.4386 175.462 39.667 174.968 39.8242C174.481 39.974 173.882 40.0488 173.171 40.0488C172.422 40.0488 171.756 39.9178 171.172 39.6558C170.595 39.3937 170.139 38.9969 169.802 38.4653C169.472 37.9338 169.308 37.2599 169.308 36.4438C169.308 35.216 169.794 34.2726 170.768 33.6138C171.741 32.9549 173.223 32.5955 175.215 32.5356L177.337 32.4458V31.6934C177.337 30.6302 177.109 29.8853 176.652 29.4585C176.196 29.0317 175.552 28.8184 174.721 28.8184C174.077 28.8184 173.463 28.9119 172.879 29.0991C172.295 29.2863 171.741 29.5072 171.217 29.7617L170.644 28.3467C171.198 28.0622 171.834 27.8188 172.553 27.6167C173.272 27.4146 174.028 27.3135 174.822 27.3135ZM177.315 33.7598L175.439 33.8384C173.905 33.8983 172.823 34.1491 172.194 34.5908C171.565 35.0326 171.25 35.6577 171.25 36.4663C171.25 37.1701 171.464 37.6904 171.891 38.0273C172.317 38.3643 172.883 38.5327 173.586 38.5327C174.68 38.5327 175.574 38.2295 176.271 37.623C176.967 37.0166 177.315 36.1069 177.315 34.894V33.7598ZM188.59 27.291C188.837 27.291 189.096 27.306 189.365 27.3359C189.635 27.3584 189.874 27.3921 190.084 27.437L189.848 29.1665C189.646 29.1141 189.421 29.0729 189.174 29.043C188.927 29.013 188.695 28.998 188.478 28.998C187.984 28.998 187.516 29.0991 187.074 29.3013C186.64 29.4959 186.258 29.7804 185.929 30.1548C185.599 30.5216 185.341 30.9671 185.154 31.4912C184.967 32.0078 184.873 32.5843 184.873 33.2207V39.8242H182.998V27.5156H184.547L184.75 29.7842H184.828C185.083 29.3275 185.39 28.9119 185.749 28.5376C186.108 28.1558 186.524 27.8525 186.996 27.6279C187.475 27.4033 188.006 27.291 188.59 27.291ZM194.273 27.5156V39.8242H192.409V27.5156H194.273ZM193.363 22.9111C193.67 22.9111 193.932 23.0122 194.149 23.2144C194.374 23.409 194.486 23.716 194.486 24.1353C194.486 24.547 194.374 24.854 194.149 25.0562C193.932 25.2583 193.67 25.3594 193.363 25.3594C193.041 25.3594 192.772 25.2583 192.555 25.0562C192.345 24.854 192.24 24.547 192.24 24.1353C192.24 23.716 192.345 23.409 192.555 23.2144C192.772 23.0122 193.041 22.9111 193.363 22.9111ZM202.831 27.3135C204.298 27.3135 205.387 27.6429 206.099 28.3018C206.81 28.9606 207.166 30.0125 207.166 31.4575V39.8242H205.807L205.447 38.0049H205.357C205.013 38.4541 204.654 38.8322 204.279 39.1392C203.905 39.4386 203.471 39.667 202.977 39.8242C202.49 39.974 201.891 40.0488 201.18 40.0488C200.431 40.0488 199.765 39.9178 199.181 39.6558C198.604 39.3937 198.147 38.9969 197.811 38.4653C197.481 37.9338 197.316 37.2599 197.316 36.4438C197.316 35.216 197.803 34.2726 198.776 33.6138C199.75 32.9549 201.232 32.5955 203.224 32.5356L205.346 32.4458V31.6934C205.346 30.6302 205.118 29.8853 204.661 29.4585C204.204 29.0317 203.561 28.8184 202.729 28.8184C202.086 28.8184 201.472 28.9119 200.888 29.0991C200.304 29.2863 199.75 29.5072 199.226 29.7617L198.653 28.3467C199.207 28.0622 199.843 27.8188 200.562 27.6167C201.281 27.4146 202.037 27.3135 202.831 27.3135ZM205.324 33.7598L203.448 33.8384C201.913 33.8983 200.832 34.1491 200.203 34.5908C199.574 35.0326 199.259 35.6577 199.259 36.4663C199.259 37.1701 199.473 37.6904 199.899 38.0273C200.326 38.3643 200.891 38.5327 201.595 38.5327C202.688 38.5327 203.583 38.2295 204.279 37.623C204.976 37.0166 205.324 36.1069 205.324 34.894V33.7598ZM212.871 22.3496V26.7183C212.871 27.2199 212.856 27.7065 212.826 28.1782C212.803 28.6499 212.785 29.0168 212.77 29.2788H212.871C213.208 28.7248 213.694 28.2568 214.331 27.875C214.967 27.4932 215.779 27.3022 216.768 27.3022C218.31 27.3022 219.538 27.8376 220.451 28.9082C221.372 29.9714 221.833 31.5549 221.833 33.6587C221.833 35.0438 221.623 36.2118 221.204 37.1626C220.784 38.1134 220.193 38.8322 219.429 39.3188C218.666 39.8055 217.763 40.0488 216.723 40.0488C215.749 40.0488 214.948 39.8691 214.319 39.5098C213.698 39.1429 213.219 38.6974 212.882 38.1733H212.736L212.354 39.8242H211.006V22.3496H212.871ZM216.464 28.8633C215.573 28.8633 214.866 29.0392 214.342 29.3911C213.818 29.7355 213.44 30.2596 213.208 30.9634C212.983 31.6597 212.871 32.5431 212.871 33.6138V33.7148C212.871 35.2646 213.129 36.4513 213.646 37.2749C214.162 38.091 215.102 38.499 216.464 38.499C217.61 38.499 218.467 38.0798 219.036 37.2412C219.613 36.4027 219.901 35.2048 219.901 33.6475C219.901 32.0602 219.616 30.866 219.047 30.0649C218.486 29.2638 217.625 28.8633 216.464 28.8633ZM226.965 39.8242H225.089V22.3496H226.965V39.8242ZM235.646 27.291C236.694 27.291 237.593 27.5231 238.341 27.9873C239.09 28.4515 239.663 29.1029 240.06 29.9414C240.456 30.7725 240.655 31.7458 240.655 32.8613V34.0181H232.153C232.176 35.4631 232.535 36.5636 233.231 37.3198C233.928 38.076 234.909 38.4541 236.174 38.4541C236.952 38.4541 237.641 38.383 238.24 38.2407C238.839 38.0985 239.461 37.8888 240.104 37.6118V39.2515C239.483 39.5285 238.865 39.7306 238.251 39.8579C237.645 39.9852 236.926 40.0488 236.095 40.0488C234.912 40.0488 233.879 39.8092 232.996 39.3301C232.12 38.8434 231.438 38.1322 230.952 37.1963C230.465 36.2604 230.222 35.1149 230.222 33.7598C230.222 32.4346 230.443 31.2891 230.884 30.3232C231.333 29.3499 231.962 28.6012 232.771 28.0771C233.587 27.5531 234.545 27.291 235.646 27.291ZM235.624 28.8184C234.628 28.8184 233.834 29.144 233.243 29.7954C232.651 30.4468 232.299 31.3564 232.187 32.5244H238.701C238.693 31.7907 238.577 31.1468 238.353 30.5928C238.135 30.0312 237.802 29.597 237.353 29.29C236.904 28.9756 236.327 28.8184 235.624 28.8184Z" fill="black"/>
<rect x="1126" y="256.824" width="173" height="47" rx="5" fill="#FDFDFD" stroke="#D0D0D0" stroke-width="2"/>
<path d="M1185.45 273.371C1184.5 273.371 1183.65 273.535 1182.89 273.863C1182.14 274.184 1181.5 274.652 1180.97 275.27C1180.45 275.879 1180.04 276.617 1179.76 277.484C1179.48 278.352 1179.34 279.328 1179.34 280.414C1179.34 281.852 1179.56 283.102 1180.01 284.164C1180.46 285.219 1181.13 286.035 1182.02 286.613C1182.92 287.191 1184.04 287.48 1185.39 287.48C1186.15 287.48 1186.87 287.418 1187.54 287.293C1188.22 287.16 1188.88 286.996 1189.52 286.801V288.535C1188.9 288.77 1188.24 288.941 1187.56 289.051C1186.87 289.168 1186.05 289.227 1185.11 289.227C1183.36 289.227 1181.91 288.867 1180.73 288.148C1179.57 287.422 1178.7 286.398 1178.11 285.078C1177.53 283.758 1177.24 282.199 1177.24 280.402C1177.24 279.105 1177.42 277.922 1177.78 276.852C1178.15 275.773 1178.68 274.844 1179.38 274.062C1180.08 273.281 1180.94 272.68 1181.95 272.258C1182.98 271.828 1184.15 271.613 1185.47 271.613C1186.34 271.613 1187.17 271.699 1187.98 271.871C1188.78 272.043 1189.51 272.289 1190.16 272.609L1189.36 274.297C1188.81 274.047 1188.21 273.832 1187.56 273.652C1186.91 273.465 1186.2 273.371 1185.45 273.371ZM1197.75 275.938C1199.28 275.938 1200.42 276.281 1201.16 276.969C1201.9 277.656 1202.27 278.754 1202.27 280.262V288.992H1200.86L1200.48 287.094H1200.39C1200.03 287.562 1199.65 287.957 1199.26 288.277C1198.87 288.59 1198.42 288.828 1197.9 288.992C1197.4 289.148 1196.77 289.227 1196.03 289.227C1195.25 289.227 1194.55 289.09 1193.94 288.816C1193.34 288.543 1192.86 288.129 1192.51 287.574C1192.17 287.02 1192 286.316 1192 285.465C1192 284.184 1192.5 283.199 1193.52 282.512C1194.54 281.824 1196.08 281.449 1198.16 281.387L1200.38 281.293V280.508C1200.38 279.398 1200.14 278.621 1199.66 278.176C1199.18 277.73 1198.51 277.508 1197.65 277.508C1196.97 277.508 1196.33 277.605 1195.72 277.801C1195.11 277.996 1194.54 278.227 1193.99 278.492L1193.39 277.016C1193.97 276.719 1194.63 276.465 1195.38 276.254C1196.13 276.043 1196.92 275.938 1197.75 275.938ZM1200.35 282.664L1198.4 282.746C1196.79 282.809 1195.66 283.07 1195.01 283.531C1194.35 283.992 1194.02 284.645 1194.02 285.488C1194.02 286.223 1194.25 286.766 1194.69 287.117C1195.14 287.469 1195.73 287.645 1196.46 287.645C1197.6 287.645 1198.54 287.328 1199.26 286.695C1199.99 286.062 1200.35 285.113 1200.35 283.848V282.664ZM1212.36 275.914C1213.89 275.914 1215.04 276.289 1215.82 277.039C1216.6 277.781 1216.99 278.977 1216.99 280.625V288.992H1215.07V280.754C1215.07 279.684 1214.82 278.883 1214.33 278.352C1213.85 277.82 1213.1 277.555 1212.09 277.555C1210.67 277.555 1209.67 277.957 1209.09 278.762C1208.52 279.566 1208.23 280.734 1208.23 282.266V288.992H1206.28V276.148H1207.85L1208.15 278H1208.25C1208.52 277.547 1208.87 277.168 1209.29 276.863C1209.72 276.551 1210.19 276.316 1210.71 276.16C1211.23 275.996 1211.79 275.914 1212.36 275.914ZM1226.15 289.227C1224.99 289.227 1223.97 288.988 1223.09 288.512C1222.2 288.035 1221.52 287.309 1221.02 286.332C1220.53 285.355 1220.29 284.125 1220.29 282.641C1220.29 281.086 1220.54 279.816 1221.06 278.832C1221.58 277.84 1222.3 277.105 1223.22 276.629C1224.13 276.152 1225.17 275.914 1226.33 275.914C1226.97 275.914 1227.59 275.98 1228.18 276.113C1228.79 276.238 1229.28 276.398 1229.66 276.594L1229.07 278.223C1228.68 278.066 1228.23 277.926 1227.72 277.801C1227.21 277.676 1226.73 277.613 1226.29 277.613C1225.4 277.613 1224.65 277.805 1224.06 278.188C1223.47 278.57 1223.03 279.133 1222.73 279.875C1222.45 280.617 1222.3 281.531 1222.3 282.617C1222.3 283.656 1222.44 284.543 1222.72 285.277C1223.01 286.012 1223.44 286.574 1224 286.965C1224.57 287.348 1225.28 287.539 1226.13 287.539C1226.81 287.539 1227.43 287.469 1227.97 287.328C1228.52 287.18 1229.02 287.008 1229.46 286.812V288.547C1229.03 288.766 1228.55 288.934 1228.02 289.051C1227.5 289.168 1226.87 289.227 1226.15 289.227ZM1237.45 275.914C1238.55 275.914 1239.48 276.156 1240.27 276.641C1241.05 277.125 1241.65 277.805 1242.06 278.68C1242.47 279.547 1242.68 280.562 1242.68 281.727V282.934H1233.81C1233.83 284.441 1234.21 285.59 1234.93 286.379C1235.66 287.168 1236.68 287.562 1238 287.562C1238.82 287.562 1239.54 287.488 1240.16 287.34C1240.79 287.191 1241.43 286.973 1242.11 286.684V288.395C1241.46 288.684 1240.81 288.895 1240.17 289.027C1239.54 289.16 1238.79 289.227 1237.92 289.227C1236.69 289.227 1235.61 288.977 1234.69 288.477C1233.77 287.969 1233.06 287.227 1232.56 286.25C1232.05 285.273 1231.79 284.078 1231.79 282.664C1231.79 281.281 1232.02 280.086 1232.48 279.078C1232.95 278.062 1233.61 277.281 1234.45 276.734C1235.31 276.188 1236.31 275.914 1237.45 275.914ZM1237.43 277.508C1236.39 277.508 1235.56 277.848 1234.95 278.527C1234.33 279.207 1233.96 280.156 1233.84 281.375H1240.64C1240.63 280.609 1240.51 279.938 1240.28 279.359C1240.05 278.773 1239.7 278.32 1239.23 278C1238.77 277.672 1238.16 277.508 1237.43 277.508ZM1247.94 288.992H1245.98V270.758H1247.94V288.992Z" fill="black"/>
<rect x="932" y="256.824" width="173" height="47" rx="5" fill="#FDFDFD" stroke="#D0D0D0" stroke-width="2"/>
<path d="M1019.04 280.402C1019.04 281.723 1018.87 282.926 1018.53 284.012C1018.2 285.09 1017.7 286.02 1017.03 286.801C1016.38 287.574 1015.56 288.172 1014.58 288.594C1013.61 289.016 1012.47 289.227 1011.18 289.227C1009.86 289.227 1008.7 289.016 1007.7 288.594C1006.72 288.172 1005.9 287.57 1005.24 286.789C1004.6 286.008 1004.11 285.074 1003.78 283.988C1003.46 282.902 1003.3 281.699 1003.3 280.379C1003.3 278.629 1003.59 277.094 1004.17 275.773C1004.74 274.453 1005.62 273.426 1006.79 272.691C1007.97 271.957 1009.45 271.59 1011.22 271.59C1012.92 271.59 1014.34 271.953 1015.5 272.68C1016.66 273.406 1017.54 274.43 1018.13 275.75C1018.74 277.062 1019.04 278.613 1019.04 280.402ZM1005.4 280.402C1005.4 281.855 1005.6 283.113 1006.02 284.176C1006.43 285.238 1007.06 286.059 1007.92 286.637C1008.77 287.215 1009.86 287.504 1011.18 287.504C1012.51 287.504 1013.6 287.215 1014.44 286.637C1015.29 286.059 1015.92 285.238 1016.33 284.176C1016.74 283.113 1016.94 281.855 1016.94 280.402C1016.94 278.191 1016.47 276.465 1015.54 275.223C1014.62 273.973 1013.18 273.348 1011.22 273.348C1009.89 273.348 1008.8 273.633 1007.94 274.203C1007.08 274.773 1006.44 275.586 1006.02 276.641C1005.6 277.688 1005.4 278.941 1005.4 280.402ZM1034.25 288.992H1031.89L1025.72 280.66L1023.89 282.301V288.992H1021.9V271.859H1023.89V280.402C1024.33 279.895 1024.79 279.391 1025.26 278.891C1025.73 278.383 1026.19 277.871 1026.65 277.355L1031.66 271.859H1033.99L1027.17 279.289L1034.25 288.992Z" fill="black"/>
<rect x="312" y="256.824" width="261" height="47" rx="5" fill="#FDFDFD" stroke="#D0D0D0" stroke-width="2"/>
<path d="M373.344 271.859H378.195C380.336 271.859 381.945 272.18 383.023 272.82C384.102 273.461 384.641 274.551 384.641 276.09C384.641 276.754 384.512 277.352 384.254 277.883C384.004 278.406 383.637 278.84 383.152 279.184C382.668 279.527 382.07 279.766 381.359 279.898V280.016C382.109 280.133 382.773 280.348 383.352 280.66C383.93 280.973 384.383 281.41 384.711 281.973C385.039 282.535 385.203 283.25 385.203 284.117C385.203 285.172 384.957 286.062 384.465 286.789C383.98 287.516 383.293 288.066 382.402 288.441C381.512 288.809 380.457 288.992 379.238 288.992H373.344V271.859ZM375.336 279.207H378.617C380.109 279.207 381.141 278.961 381.711 278.469C382.289 277.977 382.578 277.258 382.578 276.312C382.578 275.336 382.234 274.633 381.547 274.203C380.867 273.773 379.781 273.559 378.289 273.559H375.336V279.207ZM375.336 280.883V287.293H378.898C380.422 287.293 381.5 286.996 382.133 286.402C382.766 285.801 383.082 284.992 383.082 283.977C383.082 283.328 382.938 282.773 382.648 282.312C382.367 281.852 381.906 281.5 381.266 281.258C380.633 281.008 379.785 280.883 378.723 280.883H375.336ZM393.922 275.914C394.18 275.914 394.45 275.93 394.731 275.961C395.012 275.984 395.262 276.02 395.481 276.066L395.235 277.871C395.024 277.816 394.79 277.773 394.532 277.742C394.274 277.711 394.032 277.695 393.805 277.695C393.29 277.695 392.801 277.801 392.34 278.012C391.887 278.215 391.489 278.512 391.145 278.902C390.801 279.285 390.532 279.75 390.336 280.297C390.141 280.836 390.043 281.438 390.043 282.102V288.992H388.086V276.148H389.704L389.915 278.516H389.997C390.262 278.039 390.583 277.605 390.958 277.215C391.333 276.816 391.766 276.5 392.258 276.266C392.758 276.031 393.313 275.914 393.922 275.914ZM408.501 282.547C408.501 283.602 408.364 284.543 408.091 285.371C407.817 286.199 407.423 286.898 406.907 287.469C406.392 288.039 405.767 288.477 405.032 288.781C404.306 289.078 403.481 289.227 402.56 289.227C401.7 289.227 400.911 289.078 400.192 288.781C399.481 288.477 398.864 288.039 398.341 287.469C397.825 286.898 397.423 286.199 397.134 285.371C396.853 284.543 396.712 283.602 396.712 282.547C396.712 281.141 396.95 279.945 397.427 278.961C397.903 277.969 398.583 277.215 399.466 276.699C400.356 276.176 401.415 275.914 402.642 275.914C403.813 275.914 404.837 276.176 405.712 276.699C406.595 277.223 407.278 277.98 407.763 278.973C408.255 279.957 408.501 281.148 408.501 282.547ZM398.728 282.547C398.728 283.578 398.864 284.473 399.138 285.23C399.411 285.988 399.833 286.574 400.403 286.988C400.974 287.402 401.708 287.609 402.606 287.609C403.497 287.609 404.228 287.402 404.798 286.988C405.376 286.574 405.802 285.988 406.075 285.23C406.349 284.473 406.485 283.578 406.485 282.547C406.485 281.523 406.349 280.641 406.075 279.898C405.802 279.148 405.38 278.57 404.81 278.164C404.239 277.758 403.501 277.555 402.595 277.555C401.259 277.555 400.278 277.996 399.653 278.879C399.036 279.762 398.728 280.984 398.728 282.547ZM421.837 288.969L419.552 281.492C419.451 281.172 419.353 280.859 419.259 280.555C419.173 280.242 419.091 279.945 419.013 279.664C418.943 279.375 418.876 279.109 418.814 278.867C418.759 278.617 418.712 278.402 418.673 278.223H418.591C418.56 278.402 418.517 278.617 418.462 278.867C418.408 279.109 418.341 279.375 418.263 279.664C418.193 279.953 418.115 280.258 418.029 280.578C417.943 280.891 417.845 281.207 417.736 281.527L415.345 288.969H413.154L409.615 276.125H411.63L413.482 283.215C413.607 283.684 413.724 284.148 413.833 284.609C413.951 285.062 414.048 285.492 414.126 285.898C414.212 286.297 414.275 286.645 414.314 286.941H414.408C414.455 286.746 414.505 286.512 414.56 286.238C414.623 285.965 414.689 285.676 414.759 285.371C414.837 285.059 414.919 284.75 415.005 284.445C415.091 284.133 415.177 283.84 415.263 283.566L417.63 276.125H419.728L422.013 283.555C422.13 283.93 422.244 284.32 422.353 284.727C422.47 285.133 422.576 285.527 422.669 285.91C422.763 286.285 422.83 286.621 422.869 286.918H422.962C422.994 286.652 423.052 286.324 423.138 285.934C423.224 285.543 423.322 285.113 423.431 284.645C423.548 284.176 423.669 283.699 423.794 283.215L425.669 276.125H427.65L424.099 288.969H421.837ZM437.822 285.477C437.822 286.297 437.615 286.988 437.201 287.551C436.795 288.105 436.209 288.523 435.443 288.805C434.685 289.086 433.779 289.227 432.725 289.227C431.826 289.227 431.049 289.156 430.393 289.016C429.736 288.875 429.162 288.676 428.67 288.418V286.625C429.193 286.883 429.818 287.117 430.545 287.328C431.271 287.539 432.014 287.645 432.771 287.645C433.881 287.645 434.685 287.465 435.185 287.105C435.685 286.746 435.935 286.258 435.935 285.641C435.935 285.289 435.834 284.98 435.631 284.715C435.435 284.441 435.103 284.18 434.635 283.93C434.166 283.672 433.518 283.391 432.689 283.086C431.869 282.773 431.158 282.465 430.557 282.16C429.963 281.848 429.502 281.469 429.174 281.023C428.853 280.578 428.693 280 428.693 279.289C428.693 278.203 429.131 277.371 430.006 276.793C430.889 276.207 432.045 275.914 433.475 275.914C434.248 275.914 434.971 275.992 435.643 276.148C436.322 276.297 436.955 276.5 437.541 276.758L436.885 278.316C436.353 278.09 435.787 277.898 435.185 277.742C434.584 277.586 433.971 277.508 433.346 277.508C432.447 277.508 431.756 277.656 431.271 277.953C430.795 278.25 430.557 278.656 430.557 279.172C430.557 279.57 430.666 279.898 430.885 280.156C431.111 280.414 431.471 280.656 431.963 280.883C432.455 281.109 433.103 281.375 433.908 281.68C434.713 281.977 435.408 282.285 435.994 282.605C436.58 282.918 437.029 283.301 437.342 283.754C437.662 284.199 437.822 284.773 437.822 285.477ZM445.416 275.914C446.51 275.914 447.448 276.156 448.229 276.641C449.01 277.125 449.608 277.805 450.022 278.68C450.436 279.547 450.643 280.562 450.643 281.727V282.934H441.772C441.795 284.441 442.17 285.59 442.897 286.379C443.623 287.168 444.647 287.562 445.967 287.562C446.78 287.562 447.498 287.488 448.123 287.34C448.748 287.191 449.397 286.973 450.069 286.684V288.395C449.42 288.684 448.776 288.895 448.135 289.027C447.502 289.16 446.752 289.227 445.885 289.227C444.651 289.227 443.573 288.977 442.651 288.477C441.737 287.969 441.026 287.227 440.518 286.25C440.01 285.273 439.756 284.078 439.756 282.664C439.756 281.281 439.987 280.086 440.448 279.078C440.916 278.062 441.573 277.281 442.416 276.734C443.268 276.188 444.268 275.914 445.416 275.914ZM445.393 277.508C444.354 277.508 443.526 277.848 442.909 278.527C442.291 279.207 441.924 280.156 441.807 281.375H448.604C448.596 280.609 448.475 279.938 448.241 279.359C448.014 278.773 447.666 278.32 447.198 278C446.729 277.672 446.127 277.508 445.393 277.508ZM461.507 288.992H459.515V271.859H469.054V273.617H461.507V279.898H468.597V281.645H461.507V288.992ZM473.086 276.148V288.992H471.14V276.148H473.086ZM472.137 271.344C472.457 271.344 472.73 271.449 472.957 271.66C473.191 271.863 473.308 272.184 473.308 272.621C473.308 273.051 473.191 273.371 472.957 273.582C472.73 273.793 472.457 273.898 472.137 273.898C471.801 273.898 471.519 273.793 471.293 273.582C471.074 273.371 470.965 273.051 470.965 272.621C470.965 272.184 471.074 271.863 471.293 271.66C471.519 271.449 471.801 271.344 472.137 271.344ZM478.688 288.992H476.731V270.758H478.688V288.992ZM487.266 275.914C488.36 275.914 489.298 276.156 490.079 276.641C490.86 277.125 491.458 277.805 491.872 278.68C492.286 279.547 492.493 280.562 492.493 281.727V282.934H483.622C483.645 284.441 484.02 285.59 484.747 286.379C485.473 287.168 486.497 287.562 487.817 287.562C488.63 287.562 489.348 287.488 489.973 287.34C490.598 287.191 491.247 286.973 491.919 286.684V288.395C491.27 288.684 490.626 288.895 489.985 289.027C489.352 289.16 488.602 289.227 487.735 289.227C486.501 289.227 485.423 288.977 484.501 288.477C483.587 287.969 482.876 287.227 482.368 286.25C481.86 285.273 481.606 284.078 481.606 282.664C481.606 281.281 481.837 280.086 482.298 279.078C482.766 278.062 483.423 277.281 484.266 276.734C485.118 276.188 486.118 275.914 487.266 275.914ZM487.243 277.508C486.204 277.508 485.376 277.848 484.759 278.527C484.141 279.207 483.774 280.156 483.657 281.375H490.454C490.446 280.609 490.325 279.938 490.091 279.359C489.864 278.773 489.516 278.32 489.048 278C488.579 277.672 487.977 277.508 487.243 277.508ZM495.025 287.773C495.025 287.227 495.158 286.84 495.423 286.613C495.689 286.379 496.013 286.262 496.396 286.262C496.794 286.262 497.13 286.379 497.404 286.613C497.677 286.84 497.814 287.227 497.814 287.773C497.814 288.312 497.677 288.707 497.404 288.957C497.13 289.199 496.794 289.32 496.396 289.32C496.013 289.32 495.689 289.199 495.423 288.957C495.158 288.707 495.025 288.312 495.025 287.773ZM500.849 287.773C500.849 287.227 500.982 286.84 501.248 286.613C501.513 286.379 501.838 286.262 502.22 286.262C502.619 286.262 502.955 286.379 503.228 286.613C503.502 286.84 503.638 287.227 503.638 287.773C503.638 288.312 503.502 288.707 503.228 288.957C502.955 289.199 502.619 289.32 502.22 289.32C501.838 289.32 501.513 289.199 501.248 288.957C500.982 288.707 500.849 288.312 500.849 287.773ZM506.674 287.773C506.674 287.227 506.807 286.84 507.072 286.613C507.338 286.379 507.662 286.262 508.045 286.262C508.444 286.262 508.78 286.379 509.053 286.613C509.326 286.84 509.463 287.227 509.463 287.773C509.463 288.312 509.326 288.707 509.053 288.957C508.78 289.199 508.444 289.32 508.045 289.32C507.662 289.32 507.338 289.199 507.072 288.957C506.807 288.707 506.674 288.312 506.674 287.773Z" fill="black"/>
<rect x="28" y="256.824" width="261" height="47" rx="5" fill="#FDFDFD" stroke="#D0D0D0" stroke-width="2"/>
<path d="M59.3438 271.859H64.1953C66.3359 271.859 67.9453 272.18 69.0234 272.82C70.1016 273.461 70.6406 274.551 70.6406 276.09C70.6406 276.754 70.5117 277.352 70.2539 277.883C70.0039 278.406 69.6367 278.84 69.1523 279.184C68.668 279.527 68.0703 279.766 67.3594 279.898V280.016C68.1094 280.133 68.7734 280.348 69.3516 280.66C69.9297 280.973 70.3828 281.41 70.7109 281.973C71.0391 282.535 71.2031 283.25 71.2031 284.117C71.2031 285.172 70.957 286.062 70.4648 286.789C69.9805 287.516 69.293 288.066 68.4023 288.441C67.5117 288.809 66.457 288.992 65.2383 288.992H59.3438V271.859ZM61.3359 279.207H64.6172C66.1094 279.207 67.1406 278.961 67.7109 278.469C68.2891 277.977 68.5781 277.258 68.5781 276.312C68.5781 275.336 68.2344 274.633 67.5469 274.203C66.8672 273.773 65.7812 273.559 64.2891 273.559H61.3359V279.207ZM61.3359 280.883V287.293H64.8984C66.4219 287.293 67.5 286.996 68.1328 286.402C68.7656 285.801 69.082 284.992 69.082 283.977C69.082 283.328 68.9375 282.773 68.6484 282.312C68.3672 281.852 67.9062 281.5 67.2656 281.258C66.6328 281.008 65.7852 280.883 64.7227 280.883H61.3359ZM79.6823 275.914C79.9402 275.914 80.2097 275.93 80.4909 275.961C80.7722 275.984 81.0222 276.02 81.2409 276.066L80.9948 277.871C80.7839 277.816 80.5495 277.773 80.2917 277.742C80.0339 277.711 79.7917 277.695 79.5652 277.695C79.0495 277.695 78.5612 277.801 78.1003 278.012C77.6472 278.215 77.2487 278.512 76.905 278.902C76.5612 279.285 76.2917 279.75 76.0964 280.297C75.9011 280.836 75.8034 281.438 75.8034 282.102V288.992H73.8464V276.148H75.4636L75.6745 278.516H75.7566C76.0222 278.039 76.3425 277.605 76.7175 277.215C77.0925 276.816 77.5261 276.5 78.0183 276.266C78.5183 276.031 79.073 275.914 79.6823 275.914ZM94.0209 282.547C94.0209 283.602 93.8842 284.543 93.6108 285.371C93.3373 286.199 92.9428 286.898 92.4272 287.469C91.9116 288.039 91.2866 288.477 90.5522 288.781C89.8256 289.078 89.0014 289.227 88.0795 289.227C87.2202 289.227 86.4311 289.078 85.7123 288.781C85.0014 288.477 84.3842 288.039 83.8608 287.469C83.3452 286.898 82.9428 286.199 82.6537 285.371C82.3725 284.543 82.2319 283.602 82.2319 282.547C82.2319 281.141 82.4702 279.945 82.9467 278.961C83.4233 277.969 84.103 277.215 84.9858 276.699C85.8764 276.176 86.935 275.914 88.1616 275.914C89.3334 275.914 90.3569 276.176 91.2319 276.699C92.1147 277.223 92.7983 277.98 93.2827 278.973C93.7748 279.957 94.0209 281.148 94.0209 282.547ZM84.2475 282.547C84.2475 283.578 84.3842 284.473 84.6577 285.23C84.9311 285.988 85.353 286.574 85.9233 286.988C86.4936 287.402 87.228 287.609 88.1264 287.609C89.017 287.609 89.7475 287.402 90.3178 286.988C90.8959 286.574 91.3217 285.988 91.5952 285.23C91.8686 284.473 92.0053 283.578 92.0053 282.547C92.0053 281.523 91.8686 280.641 91.5952 279.898C91.3217 279.148 90.8998 278.57 90.3295 278.164C89.7592 277.758 89.0209 277.555 88.1147 277.555C86.7787 277.555 85.7983 277.996 85.1733 278.879C84.5561 279.762 84.2475 280.984 84.2475 282.547ZM107.117 288.969L104.832 281.492C104.731 281.172 104.633 280.859 104.539 280.555C104.453 280.242 104.371 279.945 104.293 279.664C104.223 279.375 104.156 279.109 104.094 278.867C104.039 278.617 103.992 278.402 103.953 278.223H103.871C103.84 278.402 103.797 278.617 103.742 278.867C103.688 279.109 103.621 279.375 103.543 279.664C103.473 279.953 103.395 280.258 103.309 280.578C103.223 280.891 103.125 281.207 103.016 281.527L100.625 288.969H98.4338L94.8947 276.125H96.9103L98.7619 283.215C98.8869 283.684 99.0041 284.148 99.1134 284.609C99.2306 285.062 99.3283 285.492 99.4064 285.898C99.4923 286.297 99.5548 286.645 99.5939 286.941H99.6877C99.7345 286.746 99.7853 286.512 99.84 286.238C99.9025 285.965 99.9689 285.676 100.039 285.371C100.117 285.059 100.199 284.75 100.285 284.445C100.371 284.133 100.457 283.84 100.543 283.566L102.91 276.125H105.008L107.293 283.555C107.41 283.93 107.524 284.32 107.633 284.727C107.75 285.133 107.856 285.527 107.949 285.91C108.043 286.285 108.11 286.621 108.149 286.918H108.242C108.274 286.652 108.332 286.324 108.418 285.934C108.504 285.543 108.602 285.113 108.711 284.645C108.828 284.176 108.949 283.699 109.074 283.215L110.949 276.125H112.93L109.379 288.969H107.117ZM122.862 285.477C122.862 286.297 122.655 286.988 122.241 287.551C121.835 288.105 121.249 288.523 120.483 288.805C119.725 289.086 118.819 289.227 117.765 289.227C116.866 289.227 116.089 289.156 115.432 289.016C114.776 288.875 114.202 288.676 113.71 288.418V286.625C114.233 286.883 114.858 287.117 115.585 287.328C116.311 287.539 117.054 287.645 117.811 287.645C118.921 287.645 119.725 287.465 120.225 287.105C120.725 286.746 120.975 286.258 120.975 285.641C120.975 285.289 120.874 284.98 120.671 284.715C120.475 284.441 120.143 284.18 119.675 283.93C119.206 283.672 118.557 283.391 117.729 283.086C116.909 282.773 116.198 282.465 115.597 282.16C115.003 281.848 114.542 281.469 114.214 281.023C113.893 280.578 113.733 280 113.733 279.289C113.733 278.203 114.171 277.371 115.046 276.793C115.929 276.207 117.085 275.914 118.515 275.914C119.288 275.914 120.011 275.992 120.682 276.148C121.362 276.297 121.995 276.5 122.581 276.758L121.925 278.316C121.393 278.09 120.827 277.898 120.225 277.742C119.624 277.586 119.011 277.508 118.386 277.508C117.487 277.508 116.796 277.656 116.311 277.953C115.835 278.25 115.597 278.656 115.597 279.172C115.597 279.57 115.706 279.898 115.925 280.156C116.151 280.414 116.511 280.656 117.003 280.883C117.495 281.109 118.143 281.375 118.948 281.68C119.753 281.977 120.448 282.285 121.034 282.605C121.62 282.918 122.069 283.301 122.382 283.754C122.702 284.199 122.862 284.773 122.862 285.477ZM130.216 275.914C131.31 275.914 132.248 276.156 133.029 276.641C133.81 277.125 134.408 277.805 134.822 278.68C135.236 279.547 135.443 280.562 135.443 281.727V282.934H126.572C126.595 284.441 126.97 285.59 127.697 286.379C128.423 287.168 129.447 287.562 130.767 287.562C131.58 287.562 132.298 287.488 132.923 287.34C133.548 287.191 134.197 286.973 134.869 286.684V288.395C134.22 288.684 133.576 288.895 132.935 289.027C132.302 289.16 131.552 289.227 130.685 289.227C129.451 289.227 128.373 288.977 127.451 288.477C126.537 287.969 125.826 287.227 125.318 286.25C124.81 285.273 124.556 284.078 124.556 282.664C124.556 281.281 124.787 280.086 125.248 279.078C125.716 278.062 126.373 277.281 127.216 276.734C128.068 276.188 129.068 275.914 130.216 275.914ZM130.193 277.508C129.154 277.508 128.326 277.848 127.709 278.527C127.091 279.207 126.724 280.156 126.607 281.375H133.404C133.396 280.609 133.275 279.938 133.041 279.359C132.814 278.773 132.466 278.32 131.998 278C131.529 277.672 130.927 277.508 130.193 277.508ZM157.44 280.262C157.44 282.191 157.089 283.805 156.386 285.102C155.683 286.391 154.663 287.363 153.327 288.02C151.999 288.668 150.386 288.992 148.487 288.992H143.835V271.859H149.003C150.745 271.859 152.245 272.18 153.503 272.82C154.761 273.453 155.73 274.395 156.409 275.645C157.097 276.887 157.44 278.426 157.44 280.262ZM155.343 280.332C155.343 278.793 155.085 277.523 154.569 276.523C154.062 275.523 153.312 274.781 152.319 274.297C151.335 273.805 150.128 273.559 148.698 273.559H145.827V287.281H148.253C150.612 287.281 152.382 286.699 153.562 285.535C154.749 284.371 155.343 282.637 155.343 280.332ZM162.181 276.148V288.992H160.236V276.148H162.181ZM161.232 271.344C161.552 271.344 161.826 271.449 162.052 271.66C162.287 271.863 162.404 272.184 162.404 272.621C162.404 273.051 162.287 273.371 162.052 273.582C161.826 273.793 161.552 273.898 161.232 273.898C160.896 273.898 160.615 273.793 160.388 273.582C160.17 273.371 160.06 273.051 160.06 272.621C160.06 272.184 160.17 271.863 160.388 271.66C160.615 271.449 160.896 271.344 161.232 271.344ZM171.422 275.914C171.68 275.914 171.95 275.93 172.231 275.961C172.512 275.984 172.762 276.02 172.981 276.066L172.735 277.871C172.524 277.816 172.29 277.773 172.032 277.742C171.774 277.711 171.532 277.695 171.305 277.695C170.79 277.695 170.301 277.801 169.84 278.012C169.387 278.215 168.989 278.512 168.645 278.902C168.301 279.285 168.032 279.75 167.836 280.297C167.641 280.836 167.543 281.438 167.543 282.102V288.992H165.586V276.148H167.204L167.415 278.516H167.497C167.762 278.039 168.082 277.605 168.457 277.215C168.832 276.816 169.266 276.5 169.758 276.266C170.258 276.031 170.813 275.914 171.422 275.914ZM179.632 275.914C180.726 275.914 181.663 276.156 182.445 276.641C183.226 277.125 183.823 277.805 184.238 278.68C184.652 279.547 184.859 280.562 184.859 281.727V282.934H175.988C176.011 284.441 176.386 285.59 177.113 286.379C177.839 287.168 178.863 287.562 180.183 287.562C180.995 287.562 181.714 287.488 182.339 287.34C182.964 287.191 183.613 286.973 184.284 286.684V288.395C183.636 288.684 182.991 288.895 182.351 289.027C181.718 289.16 180.968 289.227 180.101 289.227C178.866 289.227 177.788 288.977 176.866 288.477C175.952 287.969 175.241 287.227 174.734 286.25C174.226 285.273 173.972 284.078 173.972 282.664C173.972 281.281 174.202 280.086 174.663 279.078C175.132 278.062 175.788 277.281 176.632 276.734C177.484 276.188 178.484 275.914 179.632 275.914ZM179.609 277.508C178.57 277.508 177.741 277.848 177.124 278.527C176.507 279.207 176.14 280.156 176.023 281.375H182.82C182.812 280.609 182.691 279.938 182.456 279.359C182.23 278.773 181.882 278.32 181.413 278C180.945 277.672 180.343 277.508 179.609 277.508ZM192.588 289.227C191.432 289.227 190.412 288.988 189.529 288.512C188.646 288.035 187.959 287.309 187.467 286.332C186.975 285.355 186.728 284.125 186.728 282.641C186.728 281.086 186.986 279.816 187.502 278.832C188.025 277.84 188.744 277.105 189.658 276.629C190.572 276.152 191.611 275.914 192.775 275.914C193.416 275.914 194.033 275.98 194.627 276.113C195.228 276.238 195.721 276.398 196.103 276.594L195.518 278.223C195.127 278.066 194.674 277.926 194.158 277.801C193.65 277.676 193.174 277.613 192.728 277.613C191.838 277.613 191.096 277.805 190.502 278.188C189.916 278.57 189.475 279.133 189.178 279.875C188.889 280.617 188.744 281.531 188.744 282.617C188.744 283.656 188.885 284.543 189.166 285.277C189.455 286.012 189.881 286.574 190.443 286.965C191.014 287.348 191.725 287.539 192.576 287.539C193.256 287.539 193.869 287.469 194.416 287.328C194.963 287.18 195.459 287.008 195.904 286.812V288.547C195.475 288.766 194.994 288.934 194.463 289.051C193.939 289.168 193.314 289.227 192.588 289.227ZM202.38 287.633C202.7 287.633 203.028 287.605 203.364 287.551C203.7 287.496 203.973 287.43 204.184 287.352V288.863C203.958 288.965 203.641 289.051 203.235 289.121C202.837 289.191 202.446 289.227 202.063 289.227C201.383 289.227 200.766 289.109 200.212 288.875C199.657 288.633 199.212 288.227 198.876 287.656C198.548 287.086 198.383 286.297 198.383 285.289V277.672H196.555V276.723L198.395 275.961L199.169 273.172H200.34V276.148H204.102V277.672H200.34V285.23C200.34 286.035 200.524 286.637 200.891 287.035C201.266 287.434 201.762 287.633 202.38 287.633ZM217.14 282.547C217.14 283.602 217.003 284.543 216.73 285.371C216.456 286.199 216.062 286.898 215.546 287.469C215.031 288.039 214.406 288.477 213.671 288.781C212.945 289.078 212.12 289.227 211.199 289.227C210.339 289.227 209.55 289.078 208.831 288.781C208.12 288.477 207.503 288.039 206.98 287.469C206.464 286.898 206.062 286.199 205.773 285.371C205.492 284.543 205.351 283.602 205.351 282.547C205.351 281.141 205.589 279.945 206.066 278.961C206.542 277.969 207.222 277.215 208.105 276.699C208.995 276.176 210.054 275.914 211.281 275.914C212.452 275.914 213.476 276.176 214.351 276.699C215.234 277.223 215.917 277.98 216.402 278.973C216.894 279.957 217.14 281.148 217.14 282.547ZM207.367 282.547C207.367 283.578 207.503 284.473 207.777 285.23C208.05 285.988 208.472 286.574 209.042 286.988C209.613 287.402 210.347 287.609 211.245 287.609C212.136 287.609 212.867 287.402 213.437 286.988C214.015 286.574 214.441 285.988 214.714 285.23C214.988 284.473 215.124 283.578 215.124 282.547C215.124 281.523 214.988 280.641 214.714 279.898C214.441 279.148 214.019 278.57 213.449 278.164C212.878 277.758 212.14 277.555 211.234 277.555C209.898 277.555 208.917 277.996 208.292 278.879C207.675 279.762 207.367 280.984 207.367 282.547ZM225.619 275.914C225.877 275.914 226.147 275.93 226.428 275.961C226.709 275.984 226.959 276.02 227.178 276.066L226.932 277.871C226.721 277.816 226.486 277.773 226.229 277.742C225.971 277.711 225.729 277.695 225.502 277.695C224.986 277.695 224.498 277.801 224.037 278.012C223.584 278.215 223.186 278.512 222.842 278.902C222.498 279.285 222.229 279.75 222.033 280.297C221.838 280.836 221.74 281.438 221.74 282.102V288.992H219.783V276.148H221.4L221.611 278.516H221.693C221.959 278.039 222.279 277.605 222.654 277.215C223.029 276.816 223.463 276.5 223.955 276.266C224.455 276.031 225.01 275.914 225.619 275.914ZM226.856 276.148H228.942L231.778 283.602C231.942 284.039 232.095 284.461 232.235 284.867C232.376 285.266 232.501 285.648 232.61 286.016C232.72 286.383 232.805 286.738 232.868 287.082H232.95C233.059 286.691 233.216 286.18 233.419 285.547C233.622 284.906 233.841 284.254 234.075 283.59L236.759 276.148H238.856L233.266 290.879C232.97 291.668 232.622 292.355 232.223 292.941C231.833 293.527 231.356 293.977 230.794 294.289C230.231 294.609 229.552 294.77 228.755 294.77C228.387 294.77 228.063 294.746 227.782 294.699C227.501 294.66 227.259 294.613 227.055 294.559V293C227.227 293.039 227.434 293.074 227.677 293.105C227.927 293.137 228.184 293.152 228.45 293.152C228.934 293.152 229.352 293.059 229.704 292.871C230.063 292.691 230.372 292.426 230.63 292.074C230.887 291.723 231.11 291.305 231.298 290.82L232.001 289.016L226.856 276.148ZM239.894 287.773C239.894 287.227 240.027 286.84 240.292 286.613C240.558 286.379 240.882 286.262 241.265 286.262C241.664 286.262 242 286.379 242.273 286.613C242.546 286.84 242.683 287.227 242.683 287.773C242.683 288.312 242.546 288.707 242.273 288.957C242 289.199 241.664 289.32 241.265 289.32C240.882 289.32 240.558 289.199 240.292 288.957C240.027 288.707 239.894 288.312 239.894 287.773ZM245.479 287.773C245.479 287.227 245.612 286.84 245.877 286.613C246.143 286.379 246.467 286.262 246.85 286.262C247.248 286.262 247.584 286.379 247.858 286.613C248.131 286.84 248.268 287.227 248.268 287.773C248.268 288.312 248.131 288.707 247.858 288.957C247.584 289.199 247.248 289.32 246.85 289.32C246.467 289.32 246.143 289.199 245.877 288.957C245.612 288.707 245.479 288.312 245.479 287.773ZM251.063 287.773C251.063 287.227 251.196 286.84 251.462 286.613C251.727 286.379 252.052 286.262 252.435 286.262C252.833 286.262 253.169 286.379 253.442 286.613C253.716 286.84 253.852 287.227 253.852 287.773C253.852 288.312 253.716 288.707 253.442 288.957C253.169 289.199 252.833 289.32 252.435 289.32C252.052 289.32 251.727 289.199 251.462 288.957C251.196 288.707 251.063 288.312 251.063 287.773Z" fill="black"/>
<path fill-rule="evenodd" clip-rule="evenodd" d="M1298 31.2385L1307.29 40.5314L1308.71 39.1172L1299.41 29.8243L1308.71 20.5314L1307.29 19.1172L1298 28.4101L1288.71 19.1172L1287.29 20.5314L1296.59 29.8243L1287.29 39.1172L1288.71 40.5314L1298 31.2385Z" fill="black"/>
<path d="M38.7124 123.405L32.8164 139.824H30.896L25 123.405H26.999L30.8398 134.22C30.9971 134.654 31.1356 135.07 31.2554 135.467C31.3826 135.864 31.495 136.245 31.5923 136.612C31.6896 136.979 31.7757 137.335 31.8506 137.679C31.9255 137.335 32.0116 136.979 32.1089 136.612C32.2062 136.238 32.3185 135.852 32.4458 135.456C32.5731 135.051 32.7153 134.628 32.8726 134.187L36.6909 123.405H38.7124ZM45.0635 127.313C46.5309 127.313 47.6203 127.643 48.3315 128.302C49.0428 128.961 49.3984 130.013 49.3984 131.458V139.824H48.0395L47.6802 138.005H47.5903C47.2459 138.454 46.8865 138.832 46.5122 139.139C46.1378 139.439 45.7036 139.667 45.2095 139.824C44.7228 139.974 44.1238 140.049 43.4126 140.049C42.6639 140.049 41.9975 139.918 41.4136 139.656C40.8371 139.394 40.3804 138.997 40.0434 138.465C39.714 137.934 39.5493 137.26 39.5493 136.444C39.5493 135.216 40.036 134.273 41.0093 133.614C41.9826 132.955 43.465 132.596 45.4565 132.536L47.5791 132.446V131.693C47.5791 130.63 47.3507 129.885 46.894 129.458C46.4373 129.032 45.7934 128.818 44.9624 128.818C44.3185 128.818 43.7046 128.912 43.1206 129.099C42.5366 129.286 41.9826 129.507 41.4585 129.762L40.8857 128.347C41.4398 128.062 42.0762 127.819 42.7949 127.617C43.5137 127.415 44.2698 127.313 45.0635 127.313ZM47.5566 133.76L45.6811 133.838C44.1463 133.898 43.0644 134.149 42.4355 134.591C41.8066 135.033 41.4922 135.658 41.4922 136.466C41.4922 137.17 41.7055 137.69 42.1323 138.027C42.5591 138.364 43.1243 138.533 43.8281 138.533C44.9212 138.533 45.8159 138.229 46.5122 137.623C47.2085 137.017 47.5566 136.107 47.5566 134.894V133.76ZM58.602 127.291C58.8491 127.291 59.1074 127.306 59.3769 127.336C59.6464 127.358 59.886 127.392 60.0957 127.437L59.8598 129.167C59.6577 129.114 59.4331 129.073 59.186 129.043C58.9389 129.013 58.7068 128.998 58.4897 128.998C57.9956 128.998 57.5276 129.099 57.0859 129.301C56.6517 129.496 56.2698 129.78 55.9404 130.155C55.611 130.522 55.3527 130.967 55.1655 131.491C54.9783 132.008 54.8847 132.584 54.8847 133.221V139.824H53.0092V127.516H54.559L54.7612 129.784H54.8398C55.0944 129.327 55.4013 128.912 55.7607 128.538C56.1201 128.156 56.5356 127.853 57.0073 127.628C57.4865 127.403 58.018 127.291 58.602 127.291ZM64.0546 127.516V139.824H62.1904V127.516H64.0546ZM63.145 122.911C63.4519 122.911 63.714 123.012 63.9311 123.214C64.1557 123.409 64.268 123.716 64.268 124.135C64.268 124.547 64.1557 124.854 63.9311 125.056C63.714 125.258 63.4519 125.359 63.145 125.359C62.823 125.359 62.5535 125.258 62.3364 125.056C62.1267 124.854 62.0219 124.547 62.0219 124.135C62.0219 123.716 62.1267 123.409 62.3364 123.214C62.5535 123.012 62.823 122.911 63.145 122.911ZM72.3822 127.313C73.8497 127.313 74.9391 127.643 75.6503 128.302C76.3616 128.961 76.7172 130.013 76.7172 131.458V139.824H75.3583L74.9989 138.005H74.9091C74.5647 138.454 74.2053 138.832 73.831 139.139C73.4566 139.439 73.0224 139.667 72.5282 139.824C72.0416 139.974 71.4426 140.049 70.7314 140.049C69.9827 140.049 69.3163 139.918 68.7323 139.656C68.1558 139.394 67.6991 138.997 67.3622 138.465C67.0328 137.934 66.8681 137.26 66.8681 136.444C66.8681 135.216 67.3547 134.273 68.328 133.614C69.3014 132.955 70.7838 132.596 72.7753 132.536L74.8979 132.446V131.693C74.8979 130.63 74.6695 129.885 74.2128 129.458C73.7561 129.032 73.1122 128.818 72.2812 128.818C71.6373 128.818 71.0234 128.912 70.4394 129.099C69.8554 129.286 69.3014 129.507 68.7773 129.762L68.2045 128.347C68.7586 128.062 69.3949 127.819 70.1137 127.617C70.8324 127.415 71.5886 127.313 72.3822 127.313ZM74.8754 133.76L72.9999 133.838C71.4651 133.898 70.3832 134.149 69.7543 134.591C69.1254 135.033 68.811 135.658 68.811 136.466C68.811 137.17 69.0243 137.69 69.4511 138.027C69.8779 138.364 70.4431 138.533 71.1469 138.533C72.24 138.533 73.1347 138.229 73.831 137.623C74.5273 137.017 74.8754 136.107 74.8754 134.894V133.76ZM82.1923 122.35V126.718C82.1923 127.22 82.1773 127.707 82.1474 128.178C82.1249 128.65 82.1062 129.017 82.0912 129.279H82.1923C82.5292 128.725 83.0159 128.257 83.6522 127.875C84.2886 127.493 85.101 127.302 86.0893 127.302C87.6316 127.302 88.8594 127.838 89.7729 128.908C90.6937 129.971 91.1542 131.555 91.1542 133.659C91.1542 135.044 90.9446 136.212 90.5253 137.163C90.106 138.113 89.5145 138.832 88.7509 139.319C87.9872 139.806 87.085 140.049 86.0443 140.049C85.071 140.049 84.2699 139.869 83.641 139.51C83.0196 139.143 82.5404 138.697 82.2035 138.173H82.0575L81.6757 139.824H80.328V122.35H82.1923ZM85.786 128.863C84.8951 128.863 84.1876 129.039 83.6635 129.391C83.1394 129.736 82.7613 130.26 82.5292 130.963C82.3046 131.66 82.1923 132.543 82.1923 133.614V133.715C82.1923 135.265 82.4506 136.451 82.9672 137.275C83.4838 138.091 84.4234 138.499 85.786 138.499C86.9315 138.499 87.7888 138.08 88.3578 137.241C88.9343 136.403 89.2226 135.205 89.2226 133.647C89.2226 132.06 88.9381 130.866 88.369 130.065C87.8075 129.264 86.9465 128.863 85.786 128.863ZM96.0565 139.824H94.181V122.35H96.0565V139.824ZM104.508 127.291C105.556 127.291 106.454 127.523 107.203 127.987C107.952 128.451 108.524 129.103 108.921 129.941C109.318 130.772 109.516 131.746 109.516 132.861V134.018H101.015C101.037 135.463 101.397 136.564 102.093 137.32C102.789 138.076 103.77 138.454 105.036 138.454C105.814 138.454 106.503 138.383 107.102 138.241C107.701 138.098 108.322 137.889 108.966 137.612V139.251C108.345 139.528 107.727 139.731 107.113 139.858C106.507 139.985 105.788 140.049 104.957 140.049C103.774 140.049 102.741 139.809 101.857 139.33C100.981 138.843 100.3 138.132 99.8133 137.196C99.3267 136.26 99.0834 135.115 99.0834 133.76C99.0834 132.435 99.3042 131.289 99.746 130.323C100.195 129.35 100.824 128.601 101.633 128.077C102.449 127.553 103.407 127.291 104.508 127.291ZM104.485 128.818C103.489 128.818 102.696 129.144 102.104 129.795C101.513 130.447 101.161 131.356 101.049 132.524H107.562C107.555 131.791 107.439 131.147 107.214 130.593C106.997 130.031 106.664 129.597 106.215 129.29C105.765 128.976 105.189 128.818 104.485 128.818ZM124.027 127.291C125.487 127.291 126.591 127.65 127.34 128.369C128.088 129.08 128.463 130.226 128.463 131.806V139.824H126.621V131.929C126.621 130.903 126.385 130.136 125.913 129.627C125.449 129.118 124.734 128.863 123.768 128.863C122.406 128.863 121.447 129.249 120.893 130.02C120.339 130.791 120.062 131.91 120.062 133.378V139.824H118.198V127.516H119.703L119.984 129.29H120.085C120.347 128.856 120.68 128.493 121.084 128.201C121.489 127.901 121.942 127.677 122.443 127.527C122.945 127.37 123.473 127.291 124.027 127.291ZM136.678 127.313C138.145 127.313 139.235 127.643 139.946 128.302C140.657 128.961 141.013 130.013 141.013 131.458V139.824H139.654L139.295 138.005H139.205C138.86 138.454 138.501 138.832 138.127 139.139C137.752 139.439 137.318 139.667 136.824 139.824C136.337 139.974 135.738 140.049 135.027 140.049C134.278 140.049 133.612 139.918 133.028 139.656C132.452 139.394 131.995 138.997 131.658 138.465C131.329 137.934 131.164 137.26 131.164 136.444C131.164 135.216 131.651 134.273 132.624 133.614C133.597 132.955 135.08 132.596 137.071 132.536L139.194 132.446V131.693C139.194 130.63 138.965 129.885 138.509 129.458C138.052 129.032 137.408 128.818 136.577 128.818C135.933 128.818 135.319 128.912 134.735 129.099C134.151 129.286 133.597 129.507 133.073 129.762L132.5 128.347C133.054 128.062 133.691 127.819 134.409 127.617C135.128 127.415 135.884 127.313 136.678 127.313ZM139.171 133.76L137.296 133.838C135.761 133.898 134.679 134.149 134.05 134.591C133.421 135.033 133.107 135.658 133.107 136.466C133.107 137.17 133.32 137.69 133.747 138.027C134.174 138.364 134.739 138.533 135.443 138.533C136.536 138.533 137.43 138.229 138.127 137.623C138.823 137.017 139.171 136.107 139.171 134.894V133.76ZM157.988 127.291C159.343 127.291 160.365 127.647 161.054 128.358C161.743 129.062 162.087 130.196 162.087 131.761V139.824H160.245V131.851C160.245 130.855 160.028 130.11 159.594 129.616C159.167 129.114 158.531 128.863 157.685 128.863C156.494 128.863 155.63 129.208 155.091 129.896C154.552 130.585 154.282 131.6 154.282 132.94V139.824H152.429V131.851C152.429 131.184 152.332 130.63 152.137 130.188C151.95 129.747 151.665 129.417 151.283 129.2C150.909 128.976 150.434 128.863 149.857 128.863C149.041 128.863 148.386 129.032 147.892 129.369C147.398 129.706 147.038 130.207 146.814 130.874C146.597 131.532 146.488 132.345 146.488 133.311V139.824H144.624V127.516H146.129L146.409 129.256H146.511C146.758 128.83 147.068 128.47 147.443 128.178C147.817 127.886 148.236 127.665 148.7 127.516C149.165 127.366 149.659 127.291 150.183 127.291C151.119 127.291 151.901 127.467 152.53 127.819C153.166 128.163 153.627 128.691 153.911 129.402H154.012C154.417 128.691 154.971 128.163 155.675 127.819C156.378 127.467 157.15 127.291 157.988 127.291ZM170.426 127.291C171.474 127.291 172.373 127.523 173.121 127.987C173.87 128.451 174.443 129.103 174.84 129.941C175.236 130.772 175.435 131.746 175.435 132.861V134.018H166.933C166.956 135.463 167.315 136.564 168.011 137.32C168.708 138.076 169.689 138.454 170.954 138.454C171.733 138.454 172.421 138.383 173.02 138.241C173.619 138.098 174.241 137.889 174.885 137.612V139.251C174.263 139.528 173.645 139.731 173.032 139.858C172.425 139.985 171.706 140.049 170.875 140.049C169.692 140.049 168.659 139.809 167.776 139.33C166.9 138.843 166.218 138.132 165.732 137.196C165.245 136.26 165.002 135.115 165.002 133.76C165.002 132.435 165.223 131.289 165.664 130.323C166.114 129.35 166.742 128.601 167.551 128.077C168.367 127.553 169.325 127.291 170.426 127.291ZM170.404 128.818C169.408 128.818 168.614 129.144 168.023 129.795C167.431 130.447 167.079 131.356 166.967 132.524H173.481C173.473 131.791 173.357 131.147 173.133 130.593C172.915 130.031 172.582 129.597 172.133 129.29C171.684 128.976 171.107 128.818 170.404 128.818ZM178.091 138.656C178.091 138.132 178.218 137.762 178.473 137.544C178.727 137.32 179.038 137.208 179.405 137.208C179.787 137.208 180.109 137.32 180.371 137.544C180.633 137.762 180.764 138.132 180.764 138.656C180.764 139.173 180.633 139.551 180.371 139.791C180.109 140.023 179.787 140.139 179.405 140.139C179.038 140.139 178.727 140.023 178.473 139.791C178.218 139.551 178.091 139.173 178.091 138.656ZM178.091 128.695C178.091 128.156 178.218 127.778 178.473 127.561C178.727 127.336 179.038 127.224 179.405 127.224C179.787 127.224 180.109 127.336 180.371 127.561C180.633 127.778 180.764 128.156 180.764 128.695C180.764 129.204 180.633 129.575 180.371 129.807C180.109 130.039 179.787 130.155 179.405 130.155C179.038 130.155 178.727 130.039 178.473 129.807C178.218 129.575 178.091 129.204 178.091 128.695Z" fill="black"/>
<path d="M38.7124 192.405L32.8164 208.824H30.896L25 192.405H26.999L30.8398 203.22C30.9971 203.654 31.1356 204.07 31.2554 204.467C31.3826 204.864 31.495 205.245 31.5923 205.612C31.6896 205.979 31.7757 206.335 31.8506 206.679C31.9255 206.335 32.0116 205.979 32.1089 205.612C32.2062 205.238 32.3185 204.852 32.4458 204.456C32.5731 204.051 32.7153 203.628 32.8726 203.187L36.6909 192.405H38.7124ZM45.0635 196.313C46.5309 196.313 47.6203 196.643 48.3315 197.302C49.0428 197.961 49.3984 199.013 49.3984 200.458V208.824H48.0395L47.6802 207.005H47.5903C47.2459 207.454 46.8865 207.832 46.5122 208.139C46.1378 208.439 45.7036 208.667 45.2095 208.824C44.7228 208.974 44.1238 209.049 43.4126 209.049C42.6639 209.049 41.9975 208.918 41.4136 208.656C40.8371 208.394 40.3804 207.997 40.0434 207.465C39.714 206.934 39.5493 206.26 39.5493 205.444C39.5493 204.216 40.036 203.273 41.0093 202.614C41.9826 201.955 43.465 201.596 45.4565 201.536L47.5791 201.446V200.693C47.5791 199.63 47.3507 198.885 46.894 198.458C46.4373 198.032 45.7934 197.818 44.9624 197.818C44.3185 197.818 43.7046 197.912 43.1206 198.099C42.5366 198.286 41.9826 198.507 41.4585 198.762L40.8857 197.347C41.4398 197.062 42.0762 196.819 42.7949 196.617C43.5137 196.415 44.2698 196.313 45.0635 196.313ZM47.5566 202.76L45.6811 202.838C44.1463 202.898 43.0644 203.149 42.4355 203.591C41.8066 204.033 41.4922 204.658 41.4922 205.466C41.4922 206.17 41.7055 206.69 42.1323 207.027C42.5591 207.364 43.1243 207.533 43.8281 207.533C44.9212 207.533 45.8159 207.229 46.5122 206.623C47.2085 206.017 47.5566 205.107 47.5566 203.894V202.76ZM58.602 196.291C58.8491 196.291 59.1074 196.306 59.3769 196.336C59.6464 196.358 59.886 196.392 60.0957 196.437L59.8598 198.167C59.6577 198.114 59.4331 198.073 59.186 198.043C58.9389 198.013 58.7068 197.998 58.4897 197.998C57.9956 197.998 57.5276 198.099 57.0859 198.301C56.6517 198.496 56.2698 198.78 55.9404 199.155C55.611 199.522 55.3527 199.967 55.1655 200.491C54.9783 201.008 54.8847 201.584 54.8847 202.221V208.824H53.0092V196.516H54.559L54.7612 198.784H54.8398C55.0944 198.327 55.4013 197.912 55.7607 197.538C56.1201 197.156 56.5356 196.853 57.0073 196.628C57.4865 196.403 58.018 196.291 58.602 196.291ZM64.0546 196.516V208.824H62.1904V196.516H64.0546ZM63.145 191.911C63.4519 191.911 63.714 192.012 63.9311 192.214C64.1557 192.409 64.268 192.716 64.268 193.135C64.268 193.547 64.1557 193.854 63.9311 194.056C63.714 194.258 63.4519 194.359 63.145 194.359C62.823 194.359 62.5535 194.258 62.3364 194.056C62.1267 193.854 62.0219 193.547 62.0219 193.135C62.0219 192.716 62.1267 192.409 62.3364 192.214C62.5535 192.012 62.823 191.911 63.145 191.911ZM72.3822 196.313C73.8497 196.313 74.9391 196.643 75.6503 197.302C76.3616 197.961 76.7172 199.013 76.7172 200.458V208.824H75.3583L74.9989 207.005H74.9091C74.5647 207.454 74.2053 207.832 73.831 208.139C73.4566 208.439 73.0224 208.667 72.5282 208.824C72.0416 208.974 71.4426 209.049 70.7314 209.049C69.9827 209.049 69.3163 208.918 68.7323 208.656C68.1558 208.394 67.6991 207.997 67.3622 207.465C67.0328 206.934 66.8681 206.26 66.8681 205.444C66.8681 204.216 67.3547 203.273 68.328 202.614C69.3014 201.955 70.7838 201.596 72.7753 201.536L74.8979 201.446V200.693C74.8979 199.63 74.6695 198.885 74.2128 198.458C73.7561 198.032 73.1122 197.818 72.2812 197.818C71.6373 197.818 71.0234 197.912 70.4394 198.099C69.8554 198.286 69.3014 198.507 68.7773 198.762L68.2045 197.347C68.7586 197.062 69.3949 196.819 70.1137 196.617C70.8324 196.415 71.5886 196.313 72.3822 196.313ZM74.8754 202.76L72.9999 202.838C71.4651 202.898 70.3832 203.149 69.7543 203.591C69.1254 204.033 68.811 204.658 68.811 205.466C68.811 206.17 69.0243 206.69 69.4511 207.027C69.8779 207.364 70.4431 207.533 71.1469 207.533C72.24 207.533 73.1347 207.229 73.831 206.623C74.5273 206.017 74.8754 205.107 74.8754 203.894V202.76ZM82.1923 191.35V195.718C82.1923 196.22 82.1773 196.707 82.1474 197.178C82.1249 197.65 82.1062 198.017 82.0912 198.279H82.1923C82.5292 197.725 83.0159 197.257 83.6522 196.875C84.2886 196.493 85.101 196.302 86.0893 196.302C87.6316 196.302 88.8594 196.838 89.7729 197.908C90.6937 198.971 91.1542 200.555 91.1542 202.659C91.1542 204.044 90.9446 205.212 90.5253 206.163C90.106 207.113 89.5145 207.832 88.7509 208.319C87.9872 208.806 87.085 209.049 86.0443 209.049C85.071 209.049 84.2699 208.869 83.641 208.51C83.0196 208.143 82.5404 207.697 82.2035 207.173H82.0575L81.6757 208.824H80.328V191.35H82.1923ZM85.786 197.863C84.8951 197.863 84.1876 198.039 83.6635 198.391C83.1394 198.736 82.7613 199.26 82.5292 199.963C82.3046 200.66 82.1923 201.543 82.1923 202.614V202.715C82.1923 204.265 82.4506 205.451 82.9672 206.275C83.4838 207.091 84.4234 207.499 85.786 207.499C86.9315 207.499 87.7888 207.08 88.3578 206.241C88.9343 205.403 89.2226 204.205 89.2226 202.647C89.2226 201.06 88.9381 199.866 88.369 199.065C87.8075 198.264 86.9465 197.863 85.786 197.863ZM96.0565 208.824H94.181V191.35H96.0565V208.824ZM104.508 196.291C105.556 196.291 106.454 196.523 107.203 196.987C107.952 197.451 108.524 198.103 108.921 198.941C109.318 199.772 109.516 200.746 109.516 201.861V203.018H101.015C101.037 204.463 101.397 205.564 102.093 206.32C102.789 207.076 103.77 207.454 105.036 207.454C105.814 207.454 106.503 207.383 107.102 207.241C107.701 207.098 108.322 206.889 108.966 206.612V208.251C108.345 208.528 107.727 208.731 107.113 208.858C106.507 208.985 105.788 209.049 104.957 209.049C103.774 209.049 102.741 208.809 101.857 208.33C100.981 207.843 100.3 207.132 99.8133 206.196C99.3267 205.26 99.0834 204.115 99.0834 202.76C99.0834 201.435 99.3042 200.289 99.746 199.323C100.195 198.35 100.824 197.601 101.633 197.077C102.449 196.553 103.407 196.291 104.508 196.291ZM104.485 197.818C103.489 197.818 102.696 198.144 102.104 198.795C101.513 199.447 101.161 200.356 101.049 201.524H107.562C107.555 200.791 107.439 200.147 107.214 199.593C106.997 199.031 106.664 198.597 106.215 198.29C105.765 197.976 105.189 197.818 104.485 197.818ZM120.905 208.824L116.233 196.516H118.232L120.938 203.961C121.125 204.471 121.316 205.032 121.511 205.646C121.706 206.26 121.84 206.754 121.915 207.128H121.994C122.084 206.754 122.234 206.26 122.443 205.646C122.653 205.025 122.844 204.463 123.016 203.961L125.722 196.516H127.722L123.038 208.824H120.905ZM134.073 196.313C135.54 196.313 136.629 196.643 137.341 197.302C138.052 197.961 138.408 199.013 138.408 200.458V208.824H137.049L136.689 207.005H136.599C136.255 207.454 135.896 207.832 135.521 208.139C135.147 208.439 134.713 208.667 134.219 208.824C133.732 208.974 133.133 209.049 132.422 209.049C131.673 209.049 131.007 208.918 130.423 208.656C129.846 208.394 129.389 207.997 129.053 207.465C128.723 206.934 128.558 206.26 128.558 205.444C128.558 204.216 129.045 203.273 130.018 202.614C130.992 201.955 132.474 201.596 134.466 201.536L136.588 201.446V200.693C136.588 199.63 136.36 198.885 135.903 198.458C135.446 198.032 134.803 197.818 133.971 197.818C133.328 197.818 132.714 197.912 132.13 198.099C131.546 198.286 130.992 198.507 130.468 198.762L129.895 197.347C130.449 197.062 131.085 196.819 131.804 196.617C132.523 196.415 133.279 196.313 134.073 196.313ZM136.566 202.76L134.69 202.838C133.155 202.898 132.074 203.149 131.445 203.591C130.816 204.033 130.501 204.658 130.501 205.466C130.501 206.17 130.715 206.69 131.141 207.027C131.568 207.364 132.133 207.533 132.837 207.533C133.93 207.533 134.825 207.229 135.521 206.623C136.218 206.017 136.566 205.107 136.566 203.894V202.76ZM143.894 208.824H142.018V191.35H143.894V208.824ZM157.769 196.516V208.824H156.242L155.972 207.095H155.871C155.617 207.521 155.287 207.881 154.883 208.173C154.479 208.465 154.022 208.682 153.513 208.824C153.011 208.974 152.476 209.049 151.907 209.049C150.934 209.049 150.118 208.892 149.459 208.577C148.8 208.263 148.302 207.776 147.965 207.117C147.636 206.458 147.471 205.612 147.471 204.579V196.516H149.358V204.444C149.358 205.47 149.59 206.237 150.054 206.747C150.518 207.248 151.226 207.499 152.177 207.499C153.09 207.499 153.816 207.327 154.355 206.982C154.902 206.638 155.295 206.133 155.534 205.466C155.774 204.792 155.894 203.969 155.894 202.996V196.516H157.769ZM166.22 196.291C167.269 196.291 168.167 196.523 168.916 196.987C169.664 197.451 170.237 198.103 170.634 198.941C171.031 199.772 171.229 200.746 171.229 201.861V203.018H162.728C162.75 204.463 163.11 205.564 163.806 206.32C164.502 207.076 165.483 207.454 166.748 207.454C167.527 207.454 168.216 207.383 168.815 207.241C169.414 207.098 170.035 206.889 170.679 206.612V208.251C170.058 208.528 169.44 208.731 168.826 208.858C168.219 208.985 167.501 209.049 166.67 209.049C165.487 209.049 164.454 208.809 163.57 208.33C162.694 207.843 162.013 207.132 161.526 206.196C161.039 205.26 160.796 204.115 160.796 202.76C160.796 201.435 161.017 200.289 161.459 199.323C161.908 198.35 162.537 197.601 163.345 197.077C164.162 196.553 165.12 196.291 166.22 196.291ZM166.198 197.818C165.202 197.818 164.409 198.144 163.817 198.795C163.226 199.447 162.874 200.356 162.761 201.524H169.275C169.268 200.791 169.152 200.147 168.927 199.593C168.71 199.031 168.377 198.597 167.927 198.29C167.478 197.976 166.902 197.818 166.198 197.818ZM173.885 207.656C173.885 207.132 174.013 206.762 174.267 206.544C174.522 206.32 174.833 206.208 175.199 206.208C175.581 206.208 175.903 206.32 176.165 206.544C176.427 206.762 176.558 207.132 176.558 207.656C176.558 208.173 176.427 208.551 176.165 208.791C175.903 209.023 175.581 209.139 175.199 209.139C174.833 209.139 174.522 209.023 174.267 208.791C174.013 208.551 173.885 208.173 173.885 207.656ZM173.885 197.695C173.885 197.156 174.013 196.778 174.267 196.561C174.522 196.336 174.833 196.224 175.199 196.224C175.581 196.224 175.903 196.336 176.165 196.561C176.427 196.778 176.558 197.156 176.558 197.695C176.558 198.204 176.427 198.575 176.165 198.807C175.903 199.039 175.581 199.155 175.199 199.155C174.833 199.155 174.522 199.039 174.267 198.807C174.013 198.575 173.885 198.204 173.885 197.695Z" fill="black"/>
<path d="M1298 110.824H270V150.824C270 152.481 271.343 153.824 273 153.824H1295C1296.66 153.824 1298 152.481 1298 150.824V110.824Z" fill="white"/>
<path d="M270 154.824H1298" stroke="#838383" stroke-width="2"/>
<path d="M1298 178.824H270V218.824C270 220.481 271.343 221.824 273 221.824H1295C1296.66 221.824 1298 220.481 1298 218.824V178.824Z" fill="white"/>
<path d="M268 221.324H1300" stroke="#0067C0" stroke-width="4"/>
<path d="M284.795 122.37H286.909V134.847C286.909 135.961 286.705 136.907 286.295 137.685C285.886 138.463 285.31 139.054 284.565 139.458C283.821 139.861 282.943 140.063 281.932 140.063C280.977 140.063 280.128 139.89 279.384 139.543C278.639 139.191 278.054 138.691 277.628 138.043C277.202 137.395 276.989 136.625 276.989 135.733H279.068C279.068 136.228 279.19 136.659 279.435 137.029C279.685 137.392 280.026 137.676 280.457 137.881C280.889 138.086 281.381 138.188 281.932 138.188C282.54 138.188 283.057 138.06 283.483 137.804C283.909 137.549 284.233 137.174 284.455 136.679C284.682 136.179 284.795 135.569 284.795 134.847V122.37ZM291.381 139.824H289.165L295.574 122.37H297.756L304.165 139.824H301.949L296.733 125.131H296.597L291.381 139.824ZM292.199 133.006H301.131V134.881H292.199V133.006ZM305.479 122.37L310.661 137.063H310.865L316.047 122.37H318.263L311.854 139.824H309.672L303.263 122.37H305.479ZM319.718 139.824H317.502L323.911 122.37H326.093L332.502 139.824H330.286L325.07 125.131H324.934L319.718 139.824ZM320.536 133.006H329.468V134.881H320.536V133.006ZM343.502 139.824V141.699H332.593V139.824H343.502ZM345.112 139.824V122.37H347.226V130.142H356.533V122.37H358.646V139.824H356.533V132.017H347.226V139.824H345.112ZM377.125 131.097C377.125 132.938 376.793 134.529 376.128 135.87C375.463 137.211 374.551 138.245 373.392 138.972C372.233 139.699 370.909 140.063 369.42 140.063C367.932 140.063 366.608 139.699 365.449 138.972C364.29 138.245 363.378 137.211 362.713 135.87C362.048 134.529 361.716 132.938 361.716 131.097C361.716 129.256 362.048 127.665 362.713 126.324C363.378 124.983 364.29 123.949 365.449 123.222C366.608 122.495 367.932 122.131 369.42 122.131C370.909 122.131 372.233 122.495 373.392 123.222C374.551 123.949 375.463 124.983 376.128 126.324C376.793 127.665 377.125 129.256 377.125 131.097ZM375.08 131.097C375.08 129.586 374.827 128.31 374.321 127.27C373.821 126.23 373.142 125.444 372.284 124.909C371.432 124.375 370.477 124.108 369.42 124.108C368.364 124.108 367.406 124.375 366.548 124.909C365.696 125.444 365.017 126.23 364.511 127.27C364.011 128.31 363.761 129.586 363.761 131.097C363.761 132.608 364.011 133.884 364.511 134.924C365.017 135.963 365.696 136.75 366.548 137.284C367.406 137.819 368.364 138.086 369.42 138.086C370.477 138.086 371.432 137.819 372.284 137.284C373.142 136.75 373.821 135.963 374.321 134.924C374.827 133.884 375.08 132.608 375.08 131.097ZM380.199 122.37H382.722L388.653 136.858H388.858L394.79 122.37H397.313V139.824H395.335V126.563H395.165L389.71 139.824H387.801L382.347 126.563H382.176V139.824H380.199V122.37ZM401.071 139.824V122.37H411.605V124.245H403.184V130.142H411.059V132.017H403.184V137.949H411.741V139.824H401.071Z" fill="black"/>
<path d="M297.159 194.824H295.045C294.92 194.216 294.702 193.682 294.389 193.222C294.082 192.762 293.707 192.375 293.264 192.063C292.827 191.745 292.341 191.506 291.807 191.347C291.273 191.188 290.716 191.108 290.136 191.108C289.08 191.108 288.122 191.375 287.264 191.909C286.412 192.444 285.733 193.23 285.227 194.27C284.727 195.31 284.477 196.586 284.477 198.097C284.477 199.608 284.727 200.884 285.227 201.924C285.733 202.963 286.412 203.75 287.264 204.284C288.122 204.819 289.08 205.086 290.136 205.086C290.716 205.086 291.273 205.006 291.807 204.847C292.341 204.688 292.827 204.452 293.264 204.14C293.707 203.821 294.082 203.432 294.389 202.972C294.702 202.506 294.92 201.972 295.045 201.37H297.159C297 202.262 296.71 203.06 296.29 203.765C295.869 204.469 295.347 205.069 294.722 205.563C294.097 206.051 293.395 206.424 292.616 206.679C291.844 206.935 291.017 207.063 290.136 207.063C288.648 207.063 287.324 206.699 286.165 205.972C285.006 205.245 284.094 204.211 283.429 202.87C282.764 201.529 282.432 199.938 282.432 198.097C282.432 196.256 282.764 194.665 283.429 193.324C284.094 191.983 285.006 190.949 286.165 190.222C287.324 189.495 288.648 189.131 290.136 189.131C291.017 189.131 291.844 189.259 292.616 189.515C293.395 189.77 294.097 190.145 294.722 190.64C295.347 191.128 295.869 191.725 296.29 192.429C296.71 193.128 297 193.926 297.159 194.824ZM301.288 204.591C300.867 204.591 300.507 204.441 300.205 204.14C299.904 203.838 299.754 203.478 299.754 203.057C299.754 202.637 299.904 202.276 300.205 201.975C300.507 201.674 300.867 201.523 301.288 201.523C301.708 201.523 302.069 201.674 302.37 201.975C302.671 202.276 302.822 202.637 302.822 203.057C302.822 203.336 302.751 203.591 302.609 203.824C302.472 204.057 302.288 204.245 302.055 204.387C301.828 204.523 301.572 204.591 301.288 204.591ZM301.288 195.762C300.867 195.762 300.507 195.611 300.205 195.31C299.904 195.009 299.754 194.648 299.754 194.228C299.754 193.807 299.904 193.446 300.205 193.145C300.507 192.844 300.867 192.694 301.288 192.694C301.708 192.694 302.069 192.844 302.37 193.145C302.671 193.446 302.822 193.807 302.822 194.228C302.822 194.506 302.751 194.762 302.609 194.995C302.472 195.228 302.288 195.415 302.055 195.557C301.828 195.694 301.572 195.762 301.288 195.762ZM310.281 209.449L304.656 188.551H306.497L312.122 209.449H310.281ZM314.299 206.824V189.37H320.196C321.566 189.37 322.685 189.617 323.554 190.111C324.429 190.6 325.077 191.262 325.497 192.097C325.918 192.932 326.128 193.864 326.128 194.892C326.128 195.921 325.918 196.855 325.497 197.696C325.083 198.537 324.441 199.208 323.571 199.708C322.702 200.202 321.588 200.449 320.23 200.449H316.003V198.574H320.162C321.1 198.574 321.853 198.412 322.421 198.088C322.989 197.765 323.401 197.327 323.657 196.776C323.918 196.219 324.049 195.591 324.049 194.892C324.049 194.194 323.918 193.569 323.657 193.017C323.401 192.466 322.986 192.034 322.412 191.722C321.838 191.404 321.077 191.245 320.128 191.245H316.412V206.824H314.299ZM328.78 206.824V193.733H330.723V195.711H330.86C331.098 195.063 331.53 194.537 332.155 194.134C332.78 193.73 333.485 193.529 334.269 193.529C334.417 193.529 334.601 193.532 334.823 193.537C335.044 193.543 335.212 193.551 335.326 193.563V195.608C335.258 195.591 335.101 195.566 334.857 195.532C334.618 195.492 334.366 195.472 334.098 195.472C333.462 195.472 332.894 195.605 332.394 195.873C331.9 196.134 331.508 196.498 331.218 196.963C330.934 197.424 330.792 197.949 330.792 198.54V206.824H328.78ZM342.15 207.097C340.968 207.097 339.931 206.816 339.039 206.253C338.153 205.691 337.459 204.904 336.959 203.892C336.465 202.881 336.218 201.699 336.218 200.347C336.218 198.983 336.465 197.793 336.959 196.776C337.459 195.759 338.153 194.969 339.039 194.407C339.931 193.844 340.968 193.563 342.15 193.563C343.332 193.563 344.366 193.844 345.252 194.407C346.144 194.969 346.837 195.759 347.332 196.776C347.832 197.793 348.082 198.983 348.082 200.347C348.082 201.699 347.832 202.881 347.332 203.892C346.837 204.904 346.144 205.691 345.252 206.253C344.366 206.816 343.332 207.097 342.15 207.097ZM342.15 205.29C343.047 205.29 343.786 205.06 344.366 204.6C344.945 204.14 345.374 203.534 345.653 202.784C345.931 202.034 346.07 201.222 346.07 200.347C346.07 199.472 345.931 198.657 345.653 197.901C345.374 197.145 344.945 196.534 344.366 196.069C343.786 195.603 343.047 195.37 342.15 195.37C341.252 195.37 340.513 195.603 339.934 196.069C339.354 196.534 338.925 197.145 338.647 197.901C338.368 198.657 338.229 199.472 338.229 200.347C338.229 201.222 338.368 202.034 338.647 202.784C338.925 203.534 339.354 204.14 339.934 204.6C340.513 205.06 341.252 205.29 342.15 205.29ZM355.956 212.006C354.984 212.006 354.149 211.881 353.45 211.631C352.751 211.387 352.169 211.063 351.703 210.659C351.243 210.262 350.876 209.836 350.604 209.381L352.206 208.256C352.388 208.495 352.618 208.767 352.896 209.074C353.175 209.387 353.555 209.657 354.038 209.884C354.527 210.117 355.166 210.233 355.956 210.233C357.013 210.233 357.885 209.978 358.572 209.466C359.26 208.955 359.604 208.154 359.604 207.063V204.404H359.433C359.285 204.642 359.075 204.938 358.803 205.29C358.535 205.637 358.149 205.946 357.643 206.219C357.143 206.486 356.467 206.62 355.615 206.62C354.558 206.62 353.609 206.37 352.768 205.87C351.933 205.37 351.271 204.642 350.783 203.688C350.3 202.733 350.058 201.574 350.058 200.211C350.058 198.87 350.294 197.702 350.766 196.708C351.237 195.708 351.893 194.935 352.734 194.39C353.575 193.838 354.547 193.563 355.649 193.563C356.501 193.563 357.178 193.705 357.678 193.989C358.183 194.267 358.57 194.586 358.837 194.944C359.109 195.296 359.32 195.586 359.467 195.813H359.672V193.733H361.615V207.199C361.615 208.324 361.359 209.239 360.848 209.944C360.342 210.654 359.66 211.174 358.803 211.503C357.95 211.838 357.001 212.006 355.956 212.006ZM355.888 204.813C356.695 204.813 357.376 204.628 357.933 204.259C358.49 203.89 358.913 203.358 359.203 202.665C359.493 201.972 359.638 201.142 359.638 200.176C359.638 199.233 359.496 198.401 359.212 197.679C358.928 196.958 358.507 196.392 357.95 195.983C357.393 195.574 356.706 195.37 355.888 195.37C355.035 195.37 354.325 195.586 353.757 196.017C353.195 196.449 352.771 197.029 352.487 197.756C352.209 198.483 352.07 199.29 352.07 200.176C352.07 201.086 352.212 201.89 352.496 202.588C352.785 203.282 353.212 203.827 353.774 204.225C354.342 204.617 355.047 204.813 355.888 204.813ZM364.817 206.824V193.733H366.76V195.711H366.896C367.135 195.063 367.567 194.537 368.192 194.134C368.817 193.73 369.521 193.529 370.305 193.529C370.453 193.529 370.638 193.532 370.859 193.537C371.081 193.543 371.249 193.551 371.362 193.563V195.608C371.294 195.591 371.138 195.566 370.894 195.532C370.655 195.492 370.402 195.472 370.135 195.472C369.499 195.472 368.93 195.605 368.43 195.873C367.936 196.134 367.544 196.498 367.254 196.963C366.97 197.424 366.828 197.949 366.828 198.54V206.824H364.817ZM377.119 207.131C376.289 207.131 375.536 206.975 374.86 206.662C374.184 206.344 373.647 205.887 373.249 205.29C372.852 204.688 372.653 203.961 372.653 203.108C372.653 202.358 372.801 201.75 373.096 201.284C373.392 200.813 373.786 200.444 374.281 200.176C374.775 199.909 375.321 199.711 375.917 199.58C376.519 199.444 377.124 199.336 377.732 199.256C378.528 199.154 379.173 199.077 379.667 199.026C380.167 198.969 380.531 198.875 380.758 198.745C380.991 198.614 381.107 198.387 381.107 198.063V197.995C381.107 197.154 380.877 196.5 380.417 196.034C379.963 195.569 379.272 195.336 378.346 195.336C377.386 195.336 376.633 195.546 376.088 195.966C375.542 196.387 375.159 196.836 374.937 197.313L373.028 196.631C373.369 195.836 373.823 195.216 374.392 194.773C374.965 194.324 375.59 194.012 376.267 193.836C376.948 193.654 377.619 193.563 378.278 193.563C378.698 193.563 379.181 193.614 379.727 193.716C380.278 193.813 380.809 194.015 381.321 194.321C381.838 194.628 382.267 195.091 382.607 195.711C382.948 196.33 383.119 197.159 383.119 198.199V206.824H381.107V205.051H381.005C380.869 205.336 380.642 205.64 380.323 205.963C380.005 206.287 379.582 206.563 379.053 206.79C378.525 207.017 377.88 207.131 377.119 207.131ZM377.426 205.324C378.221 205.324 378.892 205.168 379.437 204.855C379.988 204.543 380.403 204.14 380.681 203.645C380.965 203.151 381.107 202.631 381.107 202.086V200.245C381.022 200.347 380.835 200.441 380.545 200.526C380.261 200.605 379.931 200.676 379.556 200.739C379.187 200.796 378.826 200.847 378.474 200.892C378.127 200.932 377.846 200.966 377.63 200.995C377.107 201.063 376.619 201.174 376.164 201.327C375.715 201.475 375.352 201.699 375.073 202C374.801 202.296 374.664 202.699 374.664 203.211C374.664 203.909 374.923 204.438 375.44 204.796C375.963 205.148 376.624 205.324 377.426 205.324ZM386.31 206.824V193.733H388.253V195.779H388.424C388.696 195.08 389.137 194.537 389.745 194.151C390.353 193.759 391.083 193.563 391.935 193.563C392.799 193.563 393.517 193.759 394.091 194.151C394.671 194.537 395.122 195.08 395.446 195.779H395.583C395.918 195.103 396.421 194.566 397.091 194.168C397.762 193.765 398.566 193.563 399.503 193.563C400.674 193.563 401.631 193.929 402.375 194.662C403.12 195.39 403.492 196.523 403.492 198.063V206.824H401.48V198.063C401.48 197.097 401.216 196.407 400.688 195.992C400.159 195.577 399.537 195.37 398.821 195.37C397.901 195.37 397.188 195.648 396.682 196.205C396.176 196.756 395.924 197.455 395.924 198.301V206.824H393.878V197.858C393.878 197.114 393.637 196.515 393.154 196.06C392.671 195.6 392.049 195.37 391.287 195.37C390.765 195.37 390.276 195.509 389.821 195.787C389.372 196.066 389.009 196.452 388.73 196.946C388.458 197.435 388.321 198 388.321 198.642V206.824H386.31ZM413.232 206.824V189.37H423.698V191.245H415.346V197.142H422.914V199.017H415.346V206.824H413.232ZM426.565 206.824V193.733H428.577V206.824H426.565ZM427.588 191.551C427.196 191.551 426.858 191.418 426.574 191.151C426.295 190.884 426.156 190.563 426.156 190.188C426.156 189.813 426.295 189.492 426.574 189.225C426.858 188.958 427.196 188.824 427.588 188.824C427.98 188.824 428.315 188.958 428.594 189.225C428.878 189.492 429.02 189.813 429.02 190.188C429.02 190.563 428.878 190.884 428.594 191.151C428.315 191.418 427.98 191.551 427.588 191.551ZM433.792 189.37V206.824H431.781V189.37H433.792ZM442.485 207.097C441.223 207.097 440.135 206.819 439.22 206.262C438.311 205.699 437.61 204.915 437.115 203.909C436.627 202.898 436.382 201.722 436.382 200.381C436.382 199.04 436.627 197.858 437.115 196.836C437.61 195.807 438.297 195.006 439.178 194.432C440.064 193.853 441.098 193.563 442.28 193.563C442.962 193.563 443.635 193.676 444.3 193.904C444.965 194.131 445.57 194.5 446.115 195.012C446.661 195.517 447.095 196.188 447.419 197.023C447.743 197.858 447.905 198.887 447.905 200.108V200.961H437.814V199.222H445.86C445.86 198.483 445.712 197.824 445.416 197.245C445.127 196.665 444.712 196.208 444.172 195.873C443.638 195.537 443.007 195.37 442.28 195.37C441.479 195.37 440.786 195.569 440.2 195.966C439.621 196.358 439.175 196.87 438.862 197.5C438.55 198.131 438.394 198.807 438.394 199.529V200.688C438.394 201.676 438.564 202.515 438.905 203.202C439.252 203.884 439.732 204.404 440.345 204.762C440.959 205.114 441.672 205.29 442.485 205.29C443.013 205.29 443.49 205.216 443.916 205.069C444.348 204.915 444.72 204.688 445.033 204.387C445.345 204.08 445.587 203.699 445.757 203.245L447.7 203.79C447.496 204.449 447.152 205.029 446.669 205.529C446.186 206.023 445.59 206.409 444.879 206.688C444.169 206.961 443.371 207.097 442.485 207.097ZM459.757 196.665L457.951 197.176C457.837 196.875 457.669 196.583 457.448 196.299C457.232 196.009 456.936 195.77 456.561 195.583C456.186 195.395 455.706 195.301 455.121 195.301C454.32 195.301 453.652 195.486 453.118 195.855C452.59 196.219 452.326 196.682 452.326 197.245C452.326 197.745 452.507 198.14 452.871 198.429C453.235 198.719 453.803 198.961 454.576 199.154L456.519 199.631C457.689 199.915 458.561 200.35 459.135 200.935C459.709 201.515 459.996 202.262 459.996 203.176C459.996 203.926 459.78 204.597 459.348 205.188C458.922 205.779 458.326 206.245 457.559 206.586C456.791 206.926 455.899 207.097 454.882 207.097C453.547 207.097 452.442 206.807 451.567 206.228C450.692 205.648 450.138 204.801 449.905 203.688L451.814 203.211C451.996 203.915 452.34 204.444 452.845 204.796C453.357 205.148 454.024 205.324 454.848 205.324C455.786 205.324 456.53 205.125 457.081 204.728C457.638 204.324 457.916 203.841 457.916 203.279C457.916 202.824 457.757 202.444 457.439 202.137C457.121 201.824 456.632 201.591 455.973 201.438L453.791 200.926C452.593 200.642 451.712 200.202 451.149 199.605C450.593 199.003 450.314 198.25 450.314 197.347C450.314 196.608 450.522 195.955 450.936 195.387C451.357 194.819 451.928 194.373 452.649 194.049C453.377 193.725 454.201 193.563 455.121 193.563C456.416 193.563 457.434 193.847 458.172 194.415C458.916 194.983 459.445 195.733 459.757 196.665ZM465.772 209.449L460.147 188.551H461.988L467.613 209.449H465.772ZM476.471 189.37H478.585V201.847C478.585 202.961 478.38 203.907 477.971 204.685C477.562 205.463 476.986 206.054 476.241 206.458C475.497 206.861 474.619 207.063 473.608 207.063C472.653 207.063 471.804 206.89 471.059 206.543C470.315 206.191 469.73 205.691 469.304 205.043C468.878 204.395 468.665 203.625 468.665 202.733H470.744C470.744 203.228 470.866 203.659 471.111 204.029C471.361 204.392 471.702 204.676 472.133 204.881C472.565 205.086 473.057 205.188 473.608 205.188C474.216 205.188 474.733 205.06 475.159 204.804C475.585 204.549 475.909 204.174 476.13 203.679C476.358 203.179 476.471 202.569 476.471 201.847V189.37ZM485.92 207.131C485.091 207.131 484.338 206.975 483.662 206.662C482.986 206.344 482.449 205.887 482.051 205.29C481.653 204.688 481.454 203.961 481.454 203.108C481.454 202.358 481.602 201.75 481.898 201.284C482.193 200.813 482.588 200.444 483.082 200.176C483.577 199.909 484.122 199.711 484.719 199.58C485.321 199.444 485.926 199.336 486.534 199.256C487.329 199.154 487.974 199.077 488.469 199.026C488.969 198.969 489.332 198.875 489.56 198.745C489.793 198.614 489.909 198.387 489.909 198.063V197.995C489.909 197.154 489.679 196.5 489.219 196.034C488.764 195.569 488.074 195.336 487.148 195.336C486.187 195.336 485.435 195.546 484.889 195.966C484.344 196.387 483.96 196.836 483.739 197.313L481.829 196.631C482.17 195.836 482.625 195.216 483.193 194.773C483.767 194.324 484.392 194.012 485.068 193.836C485.75 193.654 486.42 193.563 487.079 193.563C487.5 193.563 487.983 193.614 488.528 193.716C489.079 193.813 489.611 194.015 490.122 194.321C490.639 194.628 491.068 195.091 491.409 195.711C491.75 196.33 491.92 197.159 491.92 198.199V206.824H489.909V205.051H489.807C489.67 205.336 489.443 205.64 489.125 205.963C488.807 206.287 488.383 206.563 487.855 206.79C487.327 207.017 486.682 207.131 485.92 207.131ZM486.227 205.324C487.023 205.324 487.693 205.168 488.239 204.855C488.79 204.543 489.204 204.14 489.483 203.645C489.767 203.151 489.909 202.631 489.909 202.086V200.245C489.824 200.347 489.636 200.441 489.347 200.526C489.062 200.605 488.733 200.676 488.358 200.739C487.989 200.796 487.628 200.847 487.275 200.892C486.929 200.932 486.648 200.966 486.432 200.995C485.909 201.063 485.42 201.174 484.966 201.327C484.517 201.475 484.153 201.699 483.875 202C483.602 202.296 483.466 202.699 483.466 203.211C483.466 203.909 483.724 204.438 484.241 204.796C484.764 205.148 485.426 205.324 486.227 205.324ZM505.347 193.733L500.506 206.824H498.461L493.62 193.733H495.802L499.416 204.165H499.552L503.166 193.733H505.347ZM510.976 207.131C510.146 207.131 509.394 206.975 508.717 206.662C508.041 206.344 507.504 205.887 507.107 205.29C506.709 204.688 506.51 203.961 506.51 203.108C506.51 202.358 506.658 201.75 506.953 201.284C507.249 200.813 507.644 200.444 508.138 200.176C508.632 199.909 509.178 199.711 509.774 199.58C510.377 199.444 510.982 199.336 511.59 199.256C512.385 199.154 513.03 199.077 513.524 199.026C514.024 198.969 514.388 198.875 514.615 198.745C514.848 198.614 514.965 198.387 514.965 198.063V197.995C514.965 197.154 514.735 196.5 514.274 196.034C513.82 195.569 513.129 195.336 512.203 195.336C511.243 195.336 510.49 195.546 509.945 195.966C509.399 196.387 509.016 196.836 508.794 197.313L506.885 196.631C507.226 195.836 507.681 195.216 508.249 194.773C508.823 194.324 509.448 194.012 510.124 193.836C510.806 193.654 511.476 193.563 512.135 193.563C512.556 193.563 513.038 193.614 513.584 193.716C514.135 193.813 514.666 194.015 515.178 194.321C515.695 194.628 516.124 195.091 516.465 195.711C516.806 196.33 516.976 197.159 516.976 198.199V206.824H514.965V205.051H514.862C514.726 205.336 514.499 205.64 514.181 205.963C513.862 206.287 513.439 206.563 512.911 206.79C512.382 207.017 511.737 207.131 510.976 207.131ZM511.283 205.324C512.078 205.324 512.749 205.168 513.294 204.855C513.845 204.543 514.26 204.14 514.538 203.645C514.823 203.151 514.965 202.631 514.965 202.086V200.245C514.879 200.347 514.692 200.441 514.402 200.526C514.118 200.605 513.788 200.676 513.413 200.739C513.044 200.796 512.683 200.847 512.331 200.892C511.985 200.932 511.703 200.966 511.487 200.995C510.965 201.063 510.476 201.174 510.021 201.327C509.573 201.475 509.209 201.699 508.931 202C508.658 202.296 508.521 202.699 508.521 203.211C508.521 203.909 508.78 204.438 509.297 204.796C509.82 205.148 510.482 205.324 511.283 205.324ZM523.278 209.449L517.653 188.551H519.494L525.119 209.449H523.278ZM527.023 193.733H529.034V207.779C529.034 208.586 528.895 209.284 528.617 209.875C528.344 210.466 527.929 210.924 527.373 211.248C526.821 211.571 526.125 211.733 525.284 211.733C525.216 211.733 525.148 211.733 525.08 211.733C525.012 211.733 524.944 211.733 524.875 211.733V209.858C524.944 209.858 525.006 209.858 525.063 209.858C525.12 209.858 525.182 209.858 525.25 209.858C525.864 209.858 526.313 209.676 526.597 209.313C526.881 208.955 527.023 208.444 527.023 207.779V193.733ZM528.012 191.551C527.62 191.551 527.282 191.418 526.998 191.151C526.719 190.884 526.58 190.563 526.58 190.188C526.58 189.813 526.719 189.492 526.998 189.225C527.282 188.958 527.62 188.824 528.012 188.824C528.404 188.824 528.739 188.958 529.017 189.225C529.302 189.492 529.444 189.813 529.444 190.188C529.444 190.563 529.302 190.884 529.017 191.151C528.739 191.418 528.404 191.551 528.012 191.551ZM537.182 207.097C536.091 207.097 535.128 206.821 534.292 206.27C533.457 205.713 532.804 204.929 532.332 203.918C531.861 202.901 531.625 201.699 531.625 200.313C531.625 198.938 531.861 197.745 532.332 196.733C532.804 195.722 533.46 194.941 534.301 194.39C535.142 193.838 536.113 193.563 537.216 193.563C538.068 193.563 538.741 193.705 539.236 193.989C539.736 194.267 540.116 194.586 540.378 194.944C540.645 195.296 540.852 195.586 541 195.813H541.17V189.37H543.182V206.824H541.238V204.813H541C540.852 205.051 540.642 205.353 540.369 205.716C540.096 206.074 539.707 206.395 539.201 206.679C538.696 206.958 538.023 207.097 537.182 207.097ZM537.454 205.29C538.261 205.29 538.943 205.08 539.5 204.659C540.057 204.233 540.48 203.645 540.77 202.895C541.059 202.14 541.204 201.267 541.204 200.279C541.204 199.301 541.062 198.446 540.778 197.713C540.494 196.975 540.074 196.401 539.517 195.992C538.96 195.577 538.273 195.37 537.454 195.37C536.602 195.37 535.892 195.588 535.324 196.026C534.761 196.458 534.338 197.046 534.054 197.79C533.775 198.529 533.636 199.358 533.636 200.279C533.636 201.211 533.778 202.057 534.062 202.819C534.352 203.574 534.778 204.176 535.341 204.625C535.909 205.069 536.613 205.29 537.454 205.29ZM548.54 202.051L548.506 199.563H548.915L554.642 193.733H557.131L551.028 199.904H550.858L548.54 202.051ZM546.665 206.824V189.37H548.676V206.824H546.665ZM554.983 206.824L549.869 200.347L551.301 198.949L557.54 206.824H554.983ZM565.638 198.404V200.279H558.001V198.404H565.638ZM567.842 206.824V205.29L573.604 198.983C574.28 198.245 574.837 197.603 575.274 197.057C575.712 196.506 576.036 195.989 576.246 195.506C576.462 195.017 576.57 194.506 576.57 193.972C576.57 193.358 576.422 192.827 576.127 192.378C575.837 191.929 575.439 191.583 574.933 191.338C574.428 191.094 573.859 190.972 573.229 190.972C572.558 190.972 571.973 191.111 571.473 191.39C570.979 191.662 570.595 192.046 570.323 192.54C570.056 193.034 569.922 193.614 569.922 194.279H567.911C567.911 193.256 568.146 192.358 568.618 191.586C569.09 190.813 569.732 190.211 570.544 189.779C571.362 189.347 572.28 189.131 573.297 189.131C574.32 189.131 575.226 189.347 576.016 189.779C576.806 190.211 577.425 190.793 577.874 191.526C578.323 192.259 578.547 193.074 578.547 193.972C578.547 194.614 578.431 195.242 578.198 195.855C577.97 196.463 577.573 197.142 577.004 197.892C576.442 198.637 575.661 199.546 574.661 200.62L570.74 204.813V204.949H578.854V206.824H567.842ZM587.587 207.063C586.303 207.063 585.209 206.713 584.306 206.015C583.402 205.31 582.712 204.29 582.235 202.955C581.757 201.614 581.519 199.995 581.519 198.097C581.519 196.211 581.757 194.6 582.235 193.265C582.718 191.924 583.411 190.901 584.314 190.196C585.223 189.486 586.314 189.131 587.587 189.131C588.86 189.131 589.948 189.486 590.851 190.196C591.76 190.901 592.453 191.924 592.931 193.265C593.414 194.6 593.655 196.211 593.655 198.097C593.655 199.995 593.416 201.614 592.939 202.955C592.462 204.29 591.772 205.31 590.868 206.015C589.965 206.713 588.871 207.063 587.587 207.063ZM587.587 205.188C588.86 205.188 589.848 204.574 590.553 203.347C591.257 202.12 591.61 200.37 591.61 198.097C591.61 196.586 591.448 195.299 591.124 194.236C590.806 193.174 590.345 192.364 589.743 191.807C589.147 191.25 588.428 190.972 587.587 190.972C586.326 190.972 585.34 191.594 584.629 192.838C583.919 194.077 583.564 195.83 583.564 198.097C583.564 199.608 583.723 200.892 584.041 201.949C584.36 203.006 584.817 203.81 585.414 204.361C586.016 204.912 586.74 205.188 587.587 205.188Z" fill="black"/>
<path d="M1306.5 325.324H1310.5V329.324H1306.5V325.324Z" fill="#BFBFBF"/>
<path d="M1316.5 325.324H1312.5V329.324H1316.5V325.324Z" fill="#BFBFBF"/>
<path d="M1316.5 319.324H1312.5V323.324H1316.5V319.324Z" fill="#BFBFBF"/>
<path d="M1322.5 325.324H1318.5V329.324H1322.5V325.324Z" fill="#BFBFBF"/>
<path d="M1322.5 319.324H1318.5V323.324H1322.5V319.324Z" fill="#BFBFBF"/>
<path d="M1322.5 313.324H1318.5V317.324H1322.5V313.324Z" fill="#BFBFBF"/>
</svg>
