<svg width="1002" height="159" viewBox="0 0 1002 159" fill="none" xmlns="http://www.w3.org/2000/svg">
<rect x="1" y="1.32422" width="1000" height="156" stroke="#D3D6D7" stroke-width="2"/>
<rect x="2" y="2.32422" width="998" height="154" fill="#FCFCFC"/>
<path d="M17.5195 24.8281H19.8984V40.332H28.3477V42.3242H17.5195V24.8281ZM38.4075 35.7266H37.6927C36.4348 35.7266 35.4856 35.9492 34.845 36.3945C34.2122 36.832 33.8958 37.4883 33.8958 38.3633C33.8958 39.1523 34.1341 39.7656 34.6106 40.2031C35.0872 40.6406 35.7473 40.8594 36.5911 40.8594C37.7786 40.8594 38.7122 40.4492 39.3919 39.6289C40.0716 38.8008 40.4153 37.6602 40.4231 36.207V35.7266H38.4075ZM42.5911 34.8359V42.3242H40.4231V40.3789C39.9622 41.1602 39.3802 41.7383 38.677 42.1133C37.9817 42.4805 37.1341 42.6641 36.1341 42.6641C34.7981 42.6641 33.7317 42.2891 32.9348 41.5391C32.138 40.7812 31.7395 39.7695 31.7395 38.5039C31.7395 37.043 32.2278 35.9336 33.2044 35.1758C34.1888 34.418 35.6302 34.0391 37.5286 34.0391H40.4231V33.6992C40.4153 32.6523 40.1497 31.8945 39.6263 31.4258C39.1028 30.9492 38.2669 30.7109 37.1184 30.7109C36.3841 30.7109 35.6419 30.8164 34.8919 31.0273C34.1419 31.2383 33.4114 31.5469 32.7005 31.9531V29.7969C33.4973 29.4922 34.2591 29.2656 34.9856 29.1172C35.72 28.9609 36.4309 28.8828 37.1184 28.8828C38.2044 28.8828 39.1302 29.043 39.8958 29.3633C40.6692 29.6836 41.2942 30.1641 41.7708 30.8047C42.0677 31.1953 42.2786 31.6797 42.4036 32.2578C42.5286 32.8281 42.5911 33.6875 42.5911 34.8359ZM56.7642 29.6562V31.7656C56.147 31.4062 55.5259 31.1367 54.9009 30.957C54.2759 30.7773 53.6392 30.6875 52.9908 30.6875C52.0142 30.6875 51.2838 30.8477 50.7994 31.168C50.3228 31.4805 50.0845 31.9609 50.0845 32.6094C50.0845 33.1953 50.2642 33.6328 50.6236 33.9219C50.983 34.2109 51.8775 34.4922 53.3072 34.7656L54.1744 34.9297C55.2447 35.1328 56.0533 35.5391 56.6002 36.1484C57.1548 36.7578 57.4322 37.5508 57.4322 38.5273C57.4322 39.8242 56.9713 40.8398 56.0494 41.5742C55.1275 42.3008 53.8463 42.6641 52.2056 42.6641C51.5572 42.6641 50.8775 42.5938 50.1666 42.4531C49.4556 42.3203 48.6861 42.1172 47.858 41.8438V39.6172C48.6627 40.0312 49.4322 40.3438 50.1666 40.5547C50.9009 40.7578 51.5963 40.8594 52.2525 40.8594C53.2056 40.8594 53.9439 40.668 54.4673 40.2852C54.9908 39.8945 55.2525 39.3516 55.2525 38.6562C55.2525 37.6562 54.2955 36.9648 52.3814 36.582L52.2877 36.5586L51.4791 36.3945C50.2369 36.1523 49.3306 35.7461 48.7603 35.1758C48.19 34.5977 47.9048 33.8125 47.9048 32.8203C47.9048 31.5625 48.3306 30.5938 49.1822 29.9141C50.0338 29.2266 51.2486 28.8828 52.8267 28.8828C53.5298 28.8828 54.2056 28.9492 54.8541 29.082C55.5025 29.207 56.1392 29.3984 56.7642 29.6562ZM67.7381 25.4727V29.1992H72.6366V30.875H67.7381V38C67.7381 38.9688 67.9217 39.6445 68.2889 40.0273C68.6561 40.4102 69.2967 40.6016 70.2108 40.6016H72.6366V42.3242H69.9998C68.3827 42.3242 67.242 42 66.578 41.3516C65.9139 40.7031 65.5819 39.5859 65.5819 38V30.875H62.078V29.1992H65.5819V25.4727H67.7381ZM98.393 37.5664C98.393 38.5352 98.5687 39.2656 98.9203 39.7578C99.2797 40.25 99.807 40.4961 100.502 40.4961H103.022V42.3242H100.291C99.0023 42.3242 98.0023 41.9102 97.2914 41.082C96.5883 40.2539 96.2367 39.082 96.2367 37.5664V25.6484H92.7797V23.9609H98.393V37.5664ZM113.304 30.7109C112.211 30.7109 111.382 31.1367 110.82 31.9883C110.257 32.8398 109.976 34.1016 109.976 35.7734C109.976 37.4375 110.257 38.6992 110.82 39.5586C111.382 40.4102 112.211 40.8359 113.304 40.8359C114.406 40.8359 115.238 40.4102 115.8 39.5586C116.363 38.6992 116.644 37.4375 116.644 35.7734C116.644 34.1016 116.363 32.8398 115.8 31.9883C115.238 31.1367 114.406 30.7109 113.304 30.7109ZM113.304 28.8828C115.125 28.8828 116.515 29.4727 117.476 30.6523C118.445 31.832 118.929 33.5391 118.929 35.7734C118.929 38.0156 118.449 39.7266 117.488 40.9062C116.527 42.0781 115.132 42.6641 113.304 42.6641C111.484 42.6641 110.093 42.0781 109.132 40.9062C108.172 39.7266 107.691 38.0156 107.691 35.7734C107.691 33.5391 108.172 31.832 109.132 30.6523C110.093 29.4727 111.484 28.8828 113.304 28.8828ZM131.321 35.6562C131.321 34.0391 131.056 32.8125 130.524 31.9766C130.001 31.1328 129.235 30.7109 128.228 30.7109C127.173 30.7109 126.368 31.1328 125.813 31.9766C125.259 32.8125 124.981 34.0391 124.981 35.6562C124.981 37.2734 125.259 38.5078 125.813 39.3594C126.376 40.2031 127.188 40.625 128.251 40.625C129.243 40.625 130.001 40.1992 130.524 39.3477C131.056 38.4961 131.321 37.2656 131.321 35.6562ZM133.478 41.4805C133.478 43.4492 133.013 44.9414 132.083 45.957C131.153 46.9727 129.786 47.4805 127.981 47.4805C127.388 47.4805 126.767 47.4258 126.118 47.3164C125.47 47.207 124.821 47.0469 124.173 46.8359V44.7031C124.938 45.0625 125.634 45.3281 126.259 45.5C126.884 45.6719 127.458 45.7578 127.981 45.7578C129.145 45.7578 129.993 45.4414 130.524 44.8086C131.056 44.1758 131.321 43.1719 131.321 41.7969V41.7031V40.2383C130.978 40.9727 130.509 41.5195 129.915 41.8789C129.321 42.2383 128.599 42.418 127.747 42.418C126.216 42.418 124.993 41.8047 124.079 40.5781C123.165 39.3516 122.708 37.7109 122.708 35.6562C122.708 33.5938 123.165 31.9492 124.079 30.7227C124.993 29.4961 126.216 28.8828 127.747 28.8828C128.591 28.8828 129.306 29.0508 129.892 29.3867C130.478 29.7227 130.954 30.2422 131.321 30.9453V29.2461H133.478V41.4805ZM139.448 29.1992H144.967V40.6484H149.244V42.3242H138.533V40.6484H142.811V30.875H139.448V29.1992ZM142.811 24.0898H144.967V26.8203H142.811V24.0898ZM163.945 34.1914V42.3242H161.777V34.1914C161.777 33.0117 161.57 32.1445 161.156 31.5898C160.742 31.0352 160.093 30.7578 159.21 30.7578C158.203 30.7578 157.425 31.1172 156.878 31.8359C156.339 32.5469 156.07 33.5703 156.07 34.9062V42.3242H153.914V29.1992H156.07V31.168C156.453 30.418 156.972 29.8516 157.628 29.4688C158.285 29.0781 159.062 28.8828 159.96 28.8828C161.296 28.8828 162.292 29.3242 162.949 30.207C163.613 31.082 163.945 32.4102 163.945 34.1914ZM172.54 29.8672H175.493V33.418H172.54V29.8672ZM172.54 38.75H175.493V42.3242H172.54V38.75ZM199.902 24.8281H210.202V26.8203H202.281V31.9766H209.464V33.9688H202.281V42.3242H199.902V24.8281ZM225.887 31.9062C225.426 31.5469 224.958 31.2852 224.481 31.1211C224.005 30.957 223.481 30.875 222.911 30.875C221.567 30.875 220.54 31.2969 219.829 32.1406C219.118 32.9844 218.762 34.2031 218.762 35.7969V42.3242H216.594V29.1992H218.762V31.7656C219.122 30.8359 219.673 30.125 220.415 29.6328C221.165 29.1328 222.051 28.8828 223.075 28.8828C223.606 28.8828 224.102 28.9492 224.563 29.082C225.024 29.2148 225.465 29.4219 225.887 29.7031V31.9062ZM230.533 29.1992H236.053V40.6484H240.33V42.3242H229.619V40.6484H233.896V30.875H230.533V29.1992ZM233.896 24.0898H236.053V26.8203H233.896V24.0898ZM258.903 24.8281H262.067L265.09 33.7344L268.137 24.8281H271.313V42.3242H269.122V26.8672L266.004 36.0898H264.211L261.083 26.8672V42.3242H258.903V24.8281ZM281.302 35.7266H280.588C279.33 35.7266 278.381 35.9492 277.74 36.3945C277.107 36.832 276.791 37.4883 276.791 38.3633C276.791 39.1523 277.029 39.7656 277.506 40.2031C277.982 40.6406 278.642 40.8594 279.486 40.8594C280.674 40.8594 281.607 40.4492 282.287 39.6289C282.967 38.8008 283.31 37.6602 283.318 36.207V35.7266H281.302ZM285.486 34.8359V42.3242H283.318V40.3789C282.857 41.1602 282.275 41.7383 281.572 42.1133C280.877 42.4805 280.029 42.6641 279.029 42.6641C277.693 42.6641 276.627 42.2891 275.83 41.5391C275.033 40.7812 274.635 39.7695 274.635 38.5039C274.635 37.043 275.123 35.9336 276.099 35.1758C277.084 34.418 278.525 34.0391 280.424 34.0391H283.318V33.6992C283.31 32.6523 283.045 31.8945 282.521 31.4258C281.998 30.9492 281.162 30.7109 280.013 30.7109C279.279 30.7109 278.537 30.8164 277.787 31.0273C277.037 31.2383 276.306 31.5469 275.595 31.9531V29.7969C276.392 29.4922 277.154 29.2656 277.881 29.1172C278.615 28.9609 279.326 28.8828 280.013 28.8828C281.099 28.8828 282.025 29.043 282.791 29.3633C283.564 29.6836 284.189 30.1641 284.666 30.8047C284.963 31.1953 285.174 31.6797 285.299 32.2578C285.424 32.8281 285.486 33.6875 285.486 34.8359ZM298.312 38.1055C297.952 39.0195 297.495 40.2227 296.94 41.7148C296.167 43.7773 295.647 45.0352 295.382 45.4883C295.022 46.0977 294.573 46.5547 294.034 46.8594C293.495 47.1641 292.866 47.3164 292.147 47.3164H290.413V45.5117H291.69C292.323 45.5117 292.819 45.3281 293.179 44.9609C293.538 44.5938 293.995 43.6445 294.55 42.1133L289.476 29.1992H291.761L295.651 39.4648L299.483 29.1992H301.769L298.312 38.1055ZM322.99 40.332H331.029V42.3242H320.4V40.332C321.861 38.793 323.138 37.4336 324.232 36.2539C325.326 35.0742 326.08 34.2422 326.494 33.7578C327.275 32.8047 327.802 32.0352 328.076 31.4492C328.349 30.8555 328.486 30.25 328.486 29.6328C328.486 28.6562 328.197 27.8906 327.619 27.3359C327.048 26.7812 326.263 26.5039 325.263 26.5039C324.552 26.5039 323.806 26.6328 323.025 26.8906C322.244 27.1484 321.416 27.5391 320.541 28.0625V25.6719C321.345 25.2891 322.134 25 322.908 24.8047C323.689 24.6094 324.459 24.5117 325.216 24.5117C326.927 24.5117 328.302 24.9688 329.341 25.8828C330.388 26.7891 330.912 27.9805 330.912 29.457C330.912 30.207 330.736 30.957 330.384 31.707C330.041 32.457 329.478 33.2852 328.697 34.1914C328.259 34.6992 327.623 35.4023 326.787 36.3008C325.959 37.1992 324.693 38.543 322.99 40.332ZM345.413 25.2148V27.3945C344.921 27.1055 344.397 26.8867 343.843 26.7383C343.288 26.582 342.71 26.5039 342.108 26.5039C340.608 26.5039 339.472 27.0703 338.698 28.2031C337.925 29.3281 337.538 30.9883 337.538 33.1836C337.913 32.4023 338.432 31.8047 339.097 31.3906C339.761 30.9688 340.522 30.7578 341.382 30.7578C343.069 30.7578 344.374 31.2773 345.296 32.3164C346.225 33.3477 346.69 34.8125 346.69 36.7109C346.69 38.6016 346.214 40.0664 345.261 41.1055C344.307 42.1445 342.968 42.6641 341.241 42.6641C339.21 42.6641 337.722 41.9375 336.776 40.4844C335.831 39.0234 335.358 36.7266 335.358 33.5938C335.358 30.6406 335.925 28.3906 337.057 26.8438C338.198 25.2891 339.847 24.5117 342.003 24.5117C342.581 24.5117 343.159 24.5742 343.737 24.6992C344.315 24.8164 344.874 24.9883 345.413 25.2148ZM341.194 32.6094C340.186 32.6094 339.393 32.9727 338.815 33.6992C338.237 34.4258 337.948 35.4297 337.948 36.7109C337.948 37.9922 338.237 38.9961 338.815 39.7227C339.393 40.4492 340.186 40.8125 341.194 40.8125C342.241 40.8125 343.03 40.4688 343.561 39.7812C344.093 39.0859 344.358 38.0625 344.358 36.7109C344.358 35.3516 344.093 34.3281 343.561 33.6406C343.03 32.9531 342.241 32.6094 341.194 32.6094ZM367.326 40.332H371.005V26.9609L367.044 27.8516V25.6953L370.982 24.8281H373.349V40.332H376.982V42.3242H367.326V40.332ZM387.956 26.9844L382.436 36.2305H387.956V26.9844ZM387.569 24.8281H390.311V36.2305H392.643V38.1523H390.311V42.3242H387.956V38.1523H380.538V35.9141L387.569 24.8281ZM400.254 29.8672H403.207V33.418H400.254V29.8672ZM400.254 38.75H403.207V42.3242H400.254V38.75ZM414.075 40.332H422.115V42.3242H411.486V40.332C412.947 38.793 414.224 37.4336 415.318 36.2539C416.411 35.0742 417.165 34.2422 417.579 33.7578C418.361 32.8047 418.888 32.0352 419.161 31.4492C419.435 30.8555 419.572 30.25 419.572 29.6328C419.572 28.6562 419.283 27.8906 418.704 27.3359C418.134 26.7812 417.349 26.5039 416.349 26.5039C415.638 26.5039 414.892 26.6328 414.111 26.8906C413.329 27.1484 412.501 27.5391 411.626 28.0625V25.6719C412.431 25.2891 413.22 25 413.993 24.8047C414.775 24.6094 415.544 24.5117 416.302 24.5117C418.013 24.5117 419.388 24.9688 420.427 25.8828C421.474 26.7891 421.997 27.9805 421.997 29.457C421.997 30.207 421.822 30.957 421.47 31.707C421.126 32.457 420.564 33.2852 419.783 34.1914C419.345 34.6992 418.708 35.4023 417.872 36.3008C417.044 37.1992 415.779 38.543 414.075 40.332ZM433.499 26.9844L427.979 36.2305H433.499V26.9844ZM433.112 24.8281H435.854V36.2305H438.186V38.1523H435.854V42.3242H433.499V38.1523H426.081V35.9141L433.112 24.8281ZM445.797 29.8672H448.75V33.418H445.797V29.8672ZM445.797 38.75H448.75V42.3242H445.797V38.75ZM457.673 24.8281H466.532V26.8203H459.829V31.1211C460.165 30.9961 460.501 30.9062 460.837 30.8516C461.181 30.7891 461.525 30.7578 461.868 30.7578C463.681 30.7578 465.118 31.293 466.181 32.3633C467.243 33.4336 467.775 34.8828 467.775 36.7109C467.775 38.5547 467.216 40.0078 466.099 41.0703C464.989 42.1328 463.47 42.6641 461.54 42.6641C460.61 42.6641 459.759 42.6016 458.985 42.4766C458.22 42.3516 457.532 42.1641 456.923 41.9141V39.5117C457.642 39.9023 458.364 40.1953 459.091 40.3906C459.818 40.5781 460.56 40.6719 461.318 40.6719C462.622 40.6719 463.626 40.3281 464.329 39.6406C465.04 38.9531 465.396 37.9766 465.396 36.7109C465.396 35.4609 465.028 34.4883 464.294 33.793C463.568 33.0977 462.552 32.75 461.247 32.75C460.614 32.75 459.997 32.8242 459.396 32.9727C458.794 33.1133 458.22 33.3281 457.673 33.6172V24.8281ZM479.522 32.9609C480.67 33.2656 481.549 33.8086 482.159 34.5898C482.768 35.3633 483.073 36.332 483.073 37.4961C483.073 39.1055 482.53 40.3711 481.444 41.293C480.366 42.207 478.87 42.6641 476.955 42.6641C476.151 42.6641 475.33 42.5898 474.495 42.4414C473.659 42.293 472.838 42.0781 472.034 41.7969V39.4414C472.83 39.8555 473.616 40.1641 474.389 40.3672C475.163 40.5703 475.932 40.6719 476.698 40.6719C477.995 40.6719 478.991 40.3789 479.686 39.793C480.381 39.207 480.729 38.3633 480.729 37.2617C480.729 36.2461 480.381 35.4414 479.686 34.8477C478.991 34.2461 478.049 33.9453 476.862 33.9453H475.057V32H476.862C477.948 32 478.795 31.7617 479.405 31.2852C480.014 30.8086 480.319 30.1445 480.319 29.293C480.319 28.3945 480.034 27.707 479.463 27.2305C478.901 26.7461 478.096 26.5039 477.049 26.5039C476.354 26.5039 475.635 26.582 474.893 26.7383C474.151 26.8945 473.373 27.1289 472.561 27.4414V25.2617C473.506 25.0117 474.346 24.8242 475.08 24.6992C475.823 24.5742 476.479 24.5117 477.049 24.5117C478.752 24.5117 480.112 24.9414 481.127 25.8008C482.151 26.6523 482.663 27.7852 482.663 29.1992C482.663 30.1602 482.393 30.9609 481.854 31.6016C481.323 32.2422 480.545 32.6953 479.522 32.9609ZM508.009 30.7109C506.915 30.7109 506.087 31.1367 505.524 31.9883C504.962 32.8398 504.681 34.1016 504.681 35.7734C504.681 37.4375 504.962 38.6992 505.524 39.5586C506.087 40.4102 506.915 40.8359 508.009 40.8359C509.11 40.8359 509.942 40.4102 510.505 39.5586C511.067 38.6992 511.349 37.4375 511.349 35.7734C511.349 34.1016 511.067 32.8398 510.505 31.9883C509.942 31.1367 509.11 30.7109 508.009 30.7109ZM508.009 28.8828C509.829 28.8828 511.22 29.4727 512.181 30.6523C513.149 31.832 513.634 33.5391 513.634 35.7734C513.634 38.0156 513.153 39.7266 512.192 40.9062C511.231 42.0781 509.837 42.6641 508.009 42.6641C506.188 42.6641 504.798 42.0781 503.837 40.9062C502.876 39.7266 502.395 38.0156 502.395 35.7734C502.395 33.5391 502.876 31.832 503.837 30.6523C504.798 29.4727 506.188 28.8828 508.009 28.8828ZM528.287 34.1914V42.3242H526.119V34.1914C526.119 33.0117 525.912 32.1445 525.498 31.5898C525.084 31.0352 524.436 30.7578 523.553 30.7578C522.545 30.7578 521.768 31.1172 521.221 31.8359C520.682 32.5469 520.412 33.5703 520.412 34.9062V42.3242H518.256V29.1992H520.412V31.168C520.795 30.418 521.315 29.8516 521.971 29.4688C522.627 29.0781 523.405 28.8828 524.303 28.8828C525.639 28.8828 526.635 29.3242 527.291 30.207C527.955 31.082 528.287 32.4102 528.287 34.1914ZM553.528 25.4727V29.1992H558.427V30.875H553.528V38C553.528 38.9688 553.712 39.6445 554.079 40.0273C554.446 40.4102 555.087 40.6016 556.001 40.6016H558.427V42.3242H555.79C554.173 42.3242 553.032 42 552.368 41.3516C551.704 40.7031 551.372 39.5859 551.372 38V30.875H547.868V29.1992H551.372V25.4727H553.528ZM568.709 25.4727V29.1992H573.607V30.875H568.709V38C568.709 38.9688 568.893 39.6445 569.26 40.0273C569.627 40.4102 570.268 40.6016 571.182 40.6016H573.607V42.3242H570.971C569.354 42.3242 568.213 42 567.549 41.3516C566.885 40.7031 566.553 39.5859 566.553 38V30.875H563.049V29.1992H566.553V25.4727H568.709ZM586.749 38.1055C586.39 39.0195 585.933 40.2227 585.378 41.7148C584.605 43.7773 584.085 45.0352 583.82 45.4883C583.46 46.0977 583.011 46.5547 582.472 46.8594C581.933 47.1641 581.304 47.3164 580.585 47.3164H578.851V45.5117H580.128C580.761 45.5117 581.257 45.3281 581.617 44.9609C581.976 44.5938 582.433 43.6445 582.988 42.1133L577.913 29.1992H580.199L584.089 39.4648L587.921 29.1992H590.206L586.749 38.1055ZM603.278 29.6562V31.7656C602.661 31.4062 602.04 31.1367 601.415 30.957C600.79 30.7773 600.153 30.6875 599.505 30.6875C598.528 30.6875 597.797 30.8477 597.313 31.168C596.837 31.4805 596.598 31.9609 596.598 32.6094C596.598 33.1953 596.778 33.6328 597.137 33.9219C597.497 34.2109 598.391 34.4922 599.821 34.7656L600.688 34.9297C601.758 35.1328 602.567 35.5391 603.114 36.1484C603.669 36.7578 603.946 37.5508 603.946 38.5273C603.946 39.8242 603.485 40.8398 602.563 41.5742C601.641 42.3008 600.36 42.6641 598.719 42.6641C598.071 42.6641 597.391 42.5938 596.68 42.4531C595.969 42.3203 595.2 42.1172 594.372 41.8438V39.6172C595.176 40.0312 595.946 40.3438 596.68 40.5547C597.415 40.7578 598.11 40.8594 598.766 40.8594C599.719 40.8594 600.458 40.668 600.981 40.2852C601.505 39.8945 601.766 39.3516 601.766 38.6562C601.766 37.6562 600.809 36.9648 598.895 36.582L598.801 36.5586L597.993 36.3945C596.751 36.1523 595.844 35.7461 595.274 35.1758C594.704 34.5977 594.419 33.8125 594.419 32.8203C594.419 31.5625 594.844 30.5938 595.696 29.9141C596.547 29.2266 597.762 28.8828 599.34 28.8828C600.044 28.8828 600.719 28.9492 601.368 29.082C602.016 29.207 602.653 29.3984 603.278 29.6562ZM612.717 33.5352C612.717 33.1055 612.865 32.7344 613.162 32.4219C613.467 32.1094 613.83 31.9531 614.252 31.9531C614.689 31.9531 615.064 32.1094 615.377 32.4219C615.689 32.7344 615.846 33.1055 615.846 33.5352C615.846 33.9727 615.689 34.3438 615.377 34.6484C615.072 34.9531 614.697 35.1055 614.252 35.1055C613.814 35.1055 613.447 34.957 613.15 34.6602C612.861 34.3633 612.717 33.9883 612.717 33.5352ZM614.275 26.3867C613.174 26.3867 612.35 26.9805 611.803 28.168C611.264 29.3555 610.994 31.1641 610.994 33.5938C610.994 36.0156 611.264 37.8203 611.803 39.0078C612.35 40.1953 613.174 40.7891 614.275 40.7891C615.385 40.7891 616.209 40.1953 616.748 39.0078C617.295 37.8203 617.568 36.0156 617.568 33.5938C617.568 31.1641 617.295 29.3555 616.748 28.168C616.209 26.9805 615.385 26.3867 614.275 26.3867ZM614.275 24.5117C616.143 24.5117 617.553 25.2773 618.506 26.8086C619.467 28.3398 619.947 30.6016 619.947 33.5938C619.947 36.5781 619.467 38.8359 618.506 40.3672C617.553 41.8984 616.143 42.6641 614.275 42.6641C612.408 42.6641 610.998 41.8984 610.045 40.3672C609.092 38.8359 608.615 36.5781 608.615 33.5938C608.615 30.6016 609.092 28.3398 610.045 26.8086C610.998 25.2773 612.408 24.5117 614.275 24.5117ZM627.898 33.5352C627.898 33.1055 628.046 32.7344 628.343 32.4219C628.648 32.1094 629.011 31.9531 629.433 31.9531C629.87 31.9531 630.245 32.1094 630.558 32.4219C630.87 32.7344 631.027 33.1055 631.027 33.5352C631.027 33.9727 630.87 34.3438 630.558 34.6484C630.253 34.9531 629.878 35.1055 629.433 35.1055C628.995 35.1055 628.628 34.957 628.331 34.6602C628.042 34.3633 627.898 33.9883 627.898 33.5352ZM629.456 26.3867C628.355 26.3867 627.53 26.9805 626.984 28.168C626.445 29.3555 626.175 31.1641 626.175 33.5938C626.175 36.0156 626.445 37.8203 626.984 39.0078C627.53 40.1953 628.355 40.7891 629.456 40.7891C630.566 40.7891 631.39 40.1953 631.929 39.0078C632.476 37.8203 632.749 36.0156 632.749 33.5938C632.749 31.1641 632.476 29.3555 631.929 28.168C631.39 26.9805 630.566 26.3867 629.456 26.3867ZM629.456 24.5117C631.323 24.5117 632.734 25.2773 633.687 26.8086C634.648 28.3398 635.128 30.6016 635.128 33.5938C635.128 36.5781 634.648 38.8359 633.687 40.3672C632.734 41.8984 631.323 42.6641 629.456 42.6641C627.589 42.6641 626.179 41.8984 625.226 40.3672C624.273 38.8359 623.796 36.5781 623.796 33.5938C623.796 30.6016 624.273 28.3398 625.226 26.8086C626.179 25.2773 627.589 24.5117 629.456 24.5117ZM643.079 33.5352C643.079 33.1055 643.227 32.7344 643.524 32.4219C643.829 32.1094 644.192 31.9531 644.614 31.9531C645.051 31.9531 645.426 32.1094 645.739 32.4219C646.051 32.7344 646.208 33.1055 646.208 33.5352C646.208 33.9727 646.051 34.3438 645.739 34.6484C645.434 34.9531 645.059 35.1055 644.614 35.1055C644.176 35.1055 643.809 34.957 643.512 34.6602C643.223 34.3633 643.079 33.9883 643.079 33.5352ZM644.637 26.3867C643.536 26.3867 642.711 26.9805 642.165 28.168C641.625 29.3555 641.356 31.1641 641.356 33.5938C641.356 36.0156 641.625 37.8203 642.165 39.0078C642.711 40.1953 643.536 40.7891 644.637 40.7891C645.747 40.7891 646.571 40.1953 647.11 39.0078C647.657 37.8203 647.93 36.0156 647.93 33.5938C647.93 31.1641 647.657 29.3555 647.11 28.168C646.571 26.9805 645.747 26.3867 644.637 26.3867ZM644.637 24.5117C646.504 24.5117 647.915 25.2773 648.868 26.8086C649.829 28.3398 650.309 30.6016 650.309 33.5938C650.309 36.5781 649.829 38.8359 648.868 40.3672C647.915 41.8984 646.504 42.6641 644.637 42.6641C642.77 42.6641 641.36 41.8984 640.407 40.3672C639.454 38.8359 638.977 36.5781 638.977 33.5938C638.977 30.6016 639.454 28.3398 640.407 26.8086C641.36 25.2773 642.77 24.5117 644.637 24.5117ZM17.7305 54.8281H28.0312V56.8203H20.1094V61.9766H27.293V63.9688H20.1094V72.3242H17.7305V54.8281ZM43.2122 65.2227V66.2773H33.8723V66.3477C33.8723 67.7773 34.2434 68.8828 34.9856 69.6641C35.7356 70.4453 36.7903 70.8359 38.1497 70.8359C38.8372 70.8359 39.5559 70.7266 40.3059 70.5078C41.0559 70.2891 41.8567 69.957 42.7083 69.5117V71.6562C41.888 71.9922 41.095 72.2422 40.3294 72.4062C39.5716 72.5781 38.8372 72.6641 38.1263 72.6641C36.0872 72.6641 34.4934 72.0547 33.345 70.8359C32.1966 69.6094 31.6223 67.9219 31.6223 65.7734C31.6223 63.6797 32.1848 62.0078 33.3098 60.7578C34.4348 59.5078 35.9348 58.8828 37.8098 58.8828C39.4817 58.8828 40.7981 59.4492 41.7591 60.582C42.7278 61.7148 43.2122 63.2617 43.2122 65.2227ZM41.0559 64.5898C41.0247 63.3242 40.7239 62.3633 40.1536 61.707C39.5911 61.043 38.7786 60.7109 37.7161 60.7109C36.677 60.7109 35.8216 61.0547 35.1497 61.7422C34.4778 62.4297 34.0794 63.3828 33.9544 64.6016L41.0559 64.5898ZM57.6783 64.1914V72.3242H55.5103V64.1914C55.5103 63.0117 55.3033 62.1445 54.8892 61.5898C54.4752 61.0352 53.8267 60.7578 52.9439 60.7578C51.9361 60.7578 51.1588 61.1172 50.6119 61.8359C50.0728 62.5469 49.8033 63.5703 49.8033 64.9062V72.3242H47.647V59.1992H49.8033V61.168C50.1861 60.418 50.7056 59.8516 51.3619 59.4688C52.0181 59.0781 52.7955 58.8828 53.6939 58.8828C55.0298 58.8828 56.0259 59.3242 56.6822 60.207C57.3463 61.082 57.6783 62.4102 57.6783 64.1914ZM74.078 61.9062C73.617 61.5469 73.1483 61.2852 72.6717 61.1211C72.1952 60.957 71.6717 60.875 71.1014 60.875C69.7577 60.875 68.7303 61.2969 68.0194 62.1406C67.3084 62.9844 66.953 64.2031 66.953 65.7969V72.3242H64.785V59.1992H66.953V61.7656C67.3123 60.8359 67.8631 60.125 68.6053 59.6328C69.3553 59.1328 70.242 58.8828 71.2655 58.8828C71.7967 58.8828 72.2928 58.9492 72.7537 59.082C73.2147 59.2148 73.6561 59.4219 74.078 59.7031V61.9062ZM78.7238 59.1992H84.2433V70.6484H88.5206V72.3242H77.8097V70.6484H82.087V60.875H78.7238V59.1992ZM82.087 54.0898H84.2433V56.8203H82.087V54.0898ZM102.307 59.6562V61.7656C101.69 61.4062 101.069 61.1367 100.444 60.957C99.8187 60.7773 99.182 60.6875 98.5336 60.6875C97.557 60.6875 96.8266 60.8477 96.3422 61.168C95.8656 61.4805 95.6273 61.9609 95.6273 62.6094C95.6273 63.1953 95.807 63.6328 96.1664 63.9219C96.5258 64.2109 97.4203 64.4922 98.85 64.7656L99.7172 64.9297C100.787 65.1328 101.596 65.5391 102.143 66.1484C102.698 66.7578 102.975 67.5508 102.975 68.5273C102.975 69.8242 102.514 70.8398 101.592 71.5742C100.67 72.3008 99.3891 72.6641 97.7484 72.6641C97.1 72.6641 96.4203 72.5938 95.7094 72.4531C94.9984 72.3203 94.2289 72.1172 93.4008 71.8438V69.6172C94.2055 70.0312 94.975 70.3438 95.7094 70.5547C96.4437 70.7578 97.1391 70.8594 97.7953 70.8594C98.7484 70.8594 99.4867 70.668 100.01 70.2852C100.534 69.8945 100.795 69.3516 100.795 68.6562C100.795 67.6562 99.8383 66.9648 97.9242 66.582L97.8305 66.5586L97.0219 66.3945C95.7797 66.1523 94.8734 65.7461 94.3031 65.1758C93.7328 64.5977 93.4477 63.8125 93.4477 62.8203C93.4477 61.5625 93.8734 60.5938 94.725 59.9141C95.5766 59.2266 96.7914 58.8828 98.3695 58.8828C99.0727 58.8828 99.7484 58.9492 100.397 59.082C101.045 59.207 101.682 59.3984 102.307 59.6562ZM110.257 64.7891H116.363V66.7109H110.257V64.7891ZM122.274 54.8281H125.438L128.462 63.7344L131.509 54.8281H134.685V72.3242H132.493V56.8672L129.376 66.0898H127.583L124.454 56.8672V72.3242H122.274V54.8281ZM144.674 65.7266H143.959C142.701 65.7266 141.752 65.9492 141.112 66.3945C140.479 66.832 140.162 67.4883 140.162 68.3633C140.162 69.1523 140.401 69.7656 140.877 70.2031C141.354 70.6406 142.014 70.8594 142.858 70.8594C144.045 70.8594 144.979 70.4492 145.658 69.6289C146.338 68.8008 146.682 67.6602 146.69 66.207V65.7266H144.674ZM148.858 64.8359V72.3242H146.69V70.3789C146.229 71.1602 145.647 71.7383 144.944 72.1133C144.248 72.4805 143.401 72.6641 142.401 72.6641C141.065 72.6641 139.998 72.2891 139.201 71.5391C138.405 70.7812 138.006 69.7695 138.006 68.5039C138.006 67.043 138.494 65.9336 139.471 65.1758C140.455 64.418 141.897 64.0391 143.795 64.0391H146.69V63.6992C146.682 62.6523 146.416 61.8945 145.893 61.4258C145.369 60.9492 144.533 60.7109 143.385 60.7109C142.651 60.7109 141.908 60.8164 141.158 61.0273C140.408 61.2383 139.678 61.5469 138.967 61.9531V59.7969C139.764 59.4922 140.526 59.2656 141.252 59.1172C141.987 58.9609 142.698 58.8828 143.385 58.8828C144.471 58.8828 145.397 59.043 146.162 59.3633C146.936 59.6836 147.561 60.1641 148.037 60.8047C148.334 61.1953 148.545 61.6797 148.67 62.2578C148.795 62.8281 148.858 63.6875 148.858 64.8359ZM164.062 71.6562C163.484 71.9922 162.886 72.2422 162.269 72.4062C161.66 72.5781 161.035 72.6641 160.394 72.6641C158.363 72.6641 156.773 72.0547 155.625 70.8359C154.484 69.6172 153.914 67.9297 153.914 65.7734C153.914 63.6172 154.484 61.9297 155.625 60.7109C156.773 59.4922 158.363 58.8828 160.394 58.8828C161.027 58.8828 161.644 58.9648 162.246 59.1289C162.847 59.293 163.453 59.5469 164.062 59.8906V62.1523C163.492 61.6445 162.917 61.2773 162.339 61.0508C161.769 60.8242 161.121 60.7109 160.394 60.7109C159.042 60.7109 158.003 61.1484 157.277 62.0234C156.55 62.8984 156.187 64.1484 156.187 65.7734C156.187 67.3906 156.55 68.6406 157.277 69.5234C158.011 70.3984 159.05 70.8359 160.394 70.8359C161.144 70.8359 161.816 70.7227 162.41 70.4961C163.003 70.2617 163.554 69.9023 164.062 69.418V71.6562ZM171.134 63.9688V70.3789H173.934C175.309 70.3789 176.29 70.1406 176.876 69.6641C177.462 69.1797 177.755 68.3867 177.755 67.2852C177.755 66.1445 177.446 65.3086 176.829 64.7773C176.212 64.2383 175.247 63.9688 173.934 63.9688H171.134ZM171.134 56.7734V62.0469H173.887C175.028 62.0469 175.852 61.8281 176.36 61.3906C176.876 60.9531 177.134 60.2461 177.134 59.2695C177.134 58.3867 176.88 57.75 176.372 57.3594C175.872 56.9688 175.044 56.7734 173.887 56.7734H171.134ZM168.755 54.8281H173.934C175.723 54.8281 177.102 55.2148 178.071 55.9883C179.04 56.7617 179.524 57.8555 179.524 59.2695C179.524 60.3398 179.266 61.1836 178.751 61.8008C178.243 62.418 177.477 62.8047 176.454 62.9609C177.602 63.1328 178.501 63.625 179.149 64.4375C179.805 65.2422 180.134 66.2695 180.134 67.5195C180.134 69.1055 179.614 70.3047 178.575 71.1172C177.536 71.9219 175.989 72.3242 173.934 72.3242H168.755V54.8281ZM189.209 60.7109C188.115 60.7109 187.287 61.1367 186.725 61.9883C186.162 62.8398 185.881 64.1016 185.881 65.7734C185.881 67.4375 186.162 68.6992 186.725 69.5586C187.287 70.4102 188.115 70.8359 189.209 70.8359C190.311 70.8359 191.143 70.4102 191.705 69.5586C192.268 68.6992 192.549 67.4375 192.549 65.7734C192.549 64.1016 192.268 62.8398 191.705 61.9883C191.143 61.1367 190.311 60.7109 189.209 60.7109ZM189.209 58.8828C191.029 58.8828 192.42 59.4727 193.381 60.6523C194.35 61.832 194.834 63.5391 194.834 65.7734C194.834 68.0156 194.354 69.7266 193.393 70.9062C192.432 72.0781 191.037 72.6641 189.209 72.6641C187.389 72.6641 185.998 72.0781 185.037 70.9062C184.076 69.7266 183.596 68.0156 183.596 65.7734C183.596 63.5391 184.076 61.832 185.037 60.6523C185.998 59.4727 187.389 58.8828 189.209 58.8828ZM204.39 60.7109C203.296 60.7109 202.468 61.1367 201.906 61.9883C201.343 62.8398 201.062 64.1016 201.062 65.7734C201.062 67.4375 201.343 68.6992 201.906 69.5586C202.468 70.4102 203.296 70.8359 204.39 70.8359C205.492 70.8359 206.324 70.4102 206.886 69.5586C207.449 68.6992 207.73 67.4375 207.73 65.7734C207.73 64.1016 207.449 62.8398 206.886 61.9883C206.324 61.1367 205.492 60.7109 204.39 60.7109ZM204.39 58.8828C206.21 58.8828 207.601 59.4727 208.562 60.6523C209.531 61.832 210.015 63.5391 210.015 65.7734C210.015 68.0156 209.535 69.7266 208.574 70.9062C207.613 72.0781 206.218 72.6641 204.39 72.6641C202.57 72.6641 201.179 72.0781 200.218 70.9062C199.257 69.7266 198.777 68.0156 198.777 65.7734C198.777 63.5391 199.257 61.832 200.218 60.6523C201.179 59.4727 202.57 58.8828 204.39 58.8828ZM215.118 54.0898H217.344V64.6484L223.005 59.1992H225.63L220.462 64.1445L226.438 72.3242H223.801L218.95 65.5508L217.344 67.0625V72.3242H215.118V54.0898ZM231.705 64.7891H237.81V66.7109H231.705V64.7891ZM247.39 56.7734V63.3477H250.132C251.226 63.3477 252.077 63.0586 252.687 62.4805C253.304 61.9023 253.613 61.0938 253.613 60.0547C253.613 59.0156 253.308 58.2109 252.698 57.6406C252.089 57.0625 251.234 56.7734 250.132 56.7734H247.39ZM245.023 54.8281H250.132C252.085 54.8281 253.566 55.2734 254.573 56.1641C255.581 57.0469 256.085 58.3438 256.085 60.0547C256.085 61.7812 255.581 63.0859 254.573 63.9688C253.573 64.8516 252.093 65.293 250.132 65.293H247.39V72.3242H245.023V54.8281ZM271.43 61.9062C270.969 61.5469 270.5 61.2852 270.024 61.1211C269.547 60.957 269.024 60.875 268.454 60.875C267.11 60.875 266.083 61.2969 265.372 62.1406C264.661 62.9844 264.305 64.2031 264.305 65.7969V72.3242H262.137V59.1992H264.305V61.7656C264.665 60.8359 265.215 60.125 265.958 59.6328C266.708 59.1328 267.594 58.8828 268.618 58.8828C269.149 58.8828 269.645 58.9492 270.106 59.082C270.567 59.2148 271.008 59.4219 271.43 59.7031V61.9062ZM280.295 60.7109C279.201 60.7109 278.373 61.1367 277.81 61.9883C277.248 62.8398 276.967 64.1016 276.967 65.7734C276.967 67.4375 277.248 68.6992 277.81 69.5586C278.373 70.4102 279.201 70.8359 280.295 70.8359C281.396 70.8359 282.228 70.4102 282.791 69.5586C283.353 68.6992 283.635 67.4375 283.635 65.7734C283.635 64.1016 283.353 62.8398 282.791 61.9883C282.228 61.1367 281.396 60.7109 280.295 60.7109ZM280.295 58.8828C282.115 58.8828 283.506 59.4727 284.467 60.6523C285.435 61.832 285.92 63.5391 285.92 65.7734C285.92 68.0156 285.439 69.7266 284.478 70.9062C283.517 72.0781 282.123 72.6641 280.295 72.6641C278.474 72.6641 277.084 72.0781 276.123 70.9062C275.162 69.7266 274.681 68.0156 274.681 65.7734C274.681 63.5391 275.162 61.832 276.123 60.6523C277.084 59.4727 278.474 58.8828 280.295 58.8828ZM293.987 59.8672H296.94V63.418H293.987V59.8672ZM293.987 68.75H296.94V72.3242H293.987V68.75ZM316.856 63.1836V65.2227C316.27 65.6836 315.696 66.0234 315.133 66.2422C314.578 66.4531 313.992 66.5586 313.375 66.5586C312.672 66.5586 311.879 66.3594 310.996 65.9609C310.825 65.8828 310.696 65.8281 310.61 65.7969C310.008 65.5391 309.504 65.3633 309.098 65.2695C308.7 65.1758 308.301 65.1289 307.903 65.1289C307.285 65.1289 306.7 65.2461 306.145 65.4805C305.598 65.707 305.039 66.0664 304.469 66.5586V64.5195C305.078 64.0508 305.668 63.7109 306.239 63.5C306.809 63.2891 307.418 63.1836 308.067 63.1836C308.481 63.1836 308.883 63.2266 309.274 63.3125C309.664 63.3984 310.149 63.5625 310.727 63.8047C310.821 63.8438 310.95 63.9023 311.114 63.9805C312.02 64.4102 312.836 64.625 313.563 64.625C314.11 64.625 314.649 64.5078 315.18 64.2734C315.719 64.0312 316.278 63.668 316.856 63.1836ZM346.257 54.0898V55.8828H343.807C343.034 55.8828 342.495 56.043 342.19 56.3633C341.893 56.6758 341.745 57.2344 341.745 58.0391V59.1992H346.257V60.875H341.745V72.3242H339.589V60.875H336.085V59.1992H339.589V58.2852C339.589 56.8477 339.917 55.7891 340.573 55.1094C341.237 54.4297 342.268 54.0898 343.667 54.0898H346.257ZM362.012 65.2227V66.2773H352.672V66.3477C352.672 67.7773 353.043 68.8828 353.785 69.6641C354.535 70.4453 355.59 70.8359 356.949 70.8359C357.637 70.8359 358.356 70.7266 359.106 70.5078C359.856 70.2891 360.656 69.957 361.508 69.5117V71.6562C360.688 71.9922 359.895 72.2422 359.129 72.4062C358.371 72.5781 357.637 72.6641 356.926 72.6641C354.887 72.6641 353.293 72.0547 352.145 70.8359C350.996 69.6094 350.422 67.9219 350.422 65.7734C350.422 63.6797 350.985 62.0078 352.11 60.7578C353.235 59.5078 354.735 58.8828 356.61 58.8828C358.281 58.8828 359.598 59.4492 360.559 60.582C361.527 61.7148 362.012 63.2617 362.012 65.2227ZM359.856 64.5898C359.824 63.3242 359.524 62.3633 358.953 61.707C358.391 61.043 357.578 60.7109 356.516 60.7109C355.477 60.7109 354.621 61.0547 353.949 61.7422C353.277 62.4297 352.879 63.3828 352.754 64.6016L359.856 64.5898ZM376.478 64.1914V72.3242H374.31V64.1914C374.31 63.0117 374.103 62.1445 373.689 61.5898C373.275 61.0352 372.626 60.7578 371.744 60.7578C370.736 60.7578 369.958 61.1172 369.412 61.8359C368.872 62.5469 368.603 63.5703 368.603 64.9062V72.3242H366.447V59.1992H368.603V61.168C368.986 60.418 369.505 59.8516 370.162 59.4688C370.818 59.0781 371.595 58.8828 372.494 58.8828C373.83 58.8828 374.826 59.3242 375.482 60.207C376.146 61.082 376.478 62.4102 376.478 64.1914ZM392.878 61.9062C392.417 61.5469 391.948 61.2852 391.471 61.1211C390.995 60.957 390.471 60.875 389.901 60.875C388.557 60.875 387.53 61.2969 386.819 62.1406C386.108 62.9844 385.753 64.2031 385.753 65.7969V72.3242H383.585V59.1992H385.753V61.7656C386.112 60.8359 386.663 60.125 387.405 59.6328C388.155 59.1328 389.042 58.8828 390.065 58.8828C390.596 58.8828 391.092 58.9492 391.553 59.082C392.014 59.2148 392.456 59.4219 392.878 59.7031V61.9062ZM397.523 59.1992H403.043V70.6484H407.32V72.3242H396.609V70.6484H400.887V60.875H397.523V59.1992ZM400.887 54.0898H403.043V56.8203H400.887V54.0898ZM421.107 59.6562V61.7656C420.49 61.4062 419.868 61.1367 419.243 60.957C418.618 60.7773 417.982 60.6875 417.333 60.6875C416.357 60.6875 415.626 60.8477 415.142 61.168C414.665 61.4805 414.427 61.9609 414.427 62.6094C414.427 63.1953 414.607 63.6328 414.966 63.9219C415.325 64.2109 416.22 64.4922 417.65 64.7656L418.517 64.9297C419.587 65.1328 420.396 65.5391 420.943 66.1484C421.497 66.7578 421.775 67.5508 421.775 68.5273C421.775 69.8242 421.314 70.8398 420.392 71.5742C419.47 72.3008 418.189 72.6641 416.548 72.6641C415.9 72.6641 415.22 72.5938 414.509 72.4531C413.798 72.3203 413.029 72.1172 412.2 71.8438V69.6172C413.005 70.0312 413.775 70.3438 414.509 70.5547C415.243 70.7578 415.939 70.8594 416.595 70.8594C417.548 70.8594 418.286 70.668 418.81 70.2852C419.333 69.8945 419.595 69.3516 419.595 68.6562C419.595 67.6562 418.638 66.9648 416.724 66.582L416.63 66.5586L415.822 66.3945C414.579 66.1523 413.673 65.7461 413.103 65.1758C412.533 64.5977 412.247 63.8125 412.247 62.8203C412.247 61.5625 412.673 60.5938 413.525 59.9141C414.376 59.2266 415.591 58.8828 417.169 58.8828C417.872 58.8828 418.548 58.9492 419.197 59.082C419.845 59.207 420.482 59.3984 421.107 59.6562ZM432.995 65.5273V70.6133C433.854 70.5898 434.526 70.3516 435.01 69.8984C435.495 69.4453 435.737 68.8281 435.737 68.0469C435.737 67.3203 435.518 66.7578 435.081 66.3594C434.643 65.9531 433.948 65.6758 432.995 65.5273ZM431.823 63.3008V58.4609C431.01 58.4922 430.374 58.7266 429.913 59.1641C429.46 59.6016 429.233 60.1875 429.233 60.9219C429.233 61.5938 429.444 62.125 429.866 62.5156C430.295 62.9062 430.948 63.168 431.823 63.3008ZM432.995 75.8516H431.823L431.811 72.3242C431.014 72.2852 430.221 72.1758 429.432 71.9961C428.651 71.8164 427.878 71.5664 427.112 71.2461V69.1367C427.893 69.6211 428.678 69.9922 429.467 70.25C430.264 70.5078 431.049 70.6445 431.823 70.6602V65.293C430.26 65.0508 429.085 64.5742 428.295 63.8633C427.506 63.1523 427.112 62.2109 427.112 61.0391C427.112 59.8125 427.522 58.8359 428.342 58.1094C429.17 57.375 430.331 56.9531 431.823 56.8438V54.0898H432.995L433.006 56.8438C433.624 56.8828 434.249 56.9609 434.881 57.0781C435.514 57.1953 436.159 57.3555 436.815 57.5586V59.5859C436.151 59.25 435.503 58.9922 434.87 58.8125C434.245 58.625 433.62 58.5156 432.995 58.4844V63.5352C434.604 63.7773 435.831 64.2773 436.674 65.0352C437.518 65.793 437.94 66.7734 437.94 67.9766C437.94 69.1797 437.483 70.1836 436.569 70.9883C435.663 71.793 434.475 72.2305 433.006 72.3008L432.995 75.8516ZM462.278 72.5586V60.875H458.564V59.1992H464.435V72.5586C464.435 74.082 464.083 75.2539 463.38 76.0742C462.685 76.9023 461.693 77.3164 460.403 77.3164H457.427V75.4883H460.169C460.872 75.4883 461.4 75.2422 461.751 74.75C462.103 74.2656 462.278 73.5352 462.278 72.5586ZM462.278 54.0898H464.435V56.8203H462.278V54.0898ZM478.655 65.7266H477.94C476.682 65.7266 475.733 65.9492 475.092 66.3945C474.459 66.832 474.143 67.4883 474.143 68.3633C474.143 69.1523 474.381 69.7656 474.858 70.2031C475.334 70.6406 475.995 70.8594 476.838 70.8594C478.026 70.8594 478.959 70.4492 479.639 69.6289C480.319 68.8008 480.663 67.6602 480.67 66.207V65.7266H478.655ZM482.838 64.8359V72.3242H480.67V70.3789C480.209 71.1602 479.627 71.7383 478.924 72.1133C478.229 72.4805 477.381 72.6641 476.381 72.6641C475.045 72.6641 473.979 72.2891 473.182 71.5391C472.385 70.7812 471.987 69.7695 471.987 68.5039C471.987 67.043 472.475 65.9336 473.452 65.1758C474.436 64.418 475.877 64.0391 477.776 64.0391H480.67V63.6992C480.663 62.6523 480.397 61.8945 479.873 61.4258C479.35 60.9492 478.514 60.7109 477.366 60.7109C476.631 60.7109 475.889 60.8164 475.139 61.0273C474.389 61.2383 473.659 61.5469 472.948 61.9531V59.7969C473.745 59.4922 474.506 59.2656 475.233 59.1172C475.967 58.9609 476.678 58.8828 477.366 58.8828C478.452 58.8828 479.377 59.043 480.143 59.3633C480.916 59.6836 481.541 60.1641 482.018 60.8047C482.315 61.1953 482.526 61.6797 482.651 62.2578C482.776 62.8281 482.838 63.6875 482.838 64.8359ZM486.781 59.1992H489.019L492.828 70.2148L496.648 59.1992H498.886L494.222 72.3242H491.445L486.781 59.1992ZM509.017 65.7266H508.302C507.044 65.7266 506.095 65.9492 505.454 66.3945C504.821 66.832 504.505 67.4883 504.505 68.3633C504.505 69.1523 504.743 69.7656 505.22 70.2031C505.696 70.6406 506.356 70.8594 507.2 70.8594C508.388 70.8594 509.321 70.4492 510.001 69.6289C510.681 68.8008 511.024 67.6602 511.032 66.207V65.7266H509.017ZM513.2 64.8359V72.3242H511.032V70.3789C510.571 71.1602 509.989 71.7383 509.286 72.1133C508.591 72.4805 507.743 72.6641 506.743 72.6641C505.407 72.6641 504.341 72.2891 503.544 71.5391C502.747 70.7812 502.349 69.7695 502.349 68.5039C502.349 67.043 502.837 65.9336 503.813 65.1758C504.798 64.418 506.239 64.0391 508.138 64.0391H511.032V63.6992C511.024 62.6523 510.759 61.8945 510.235 61.4258C509.712 60.9492 508.876 60.7109 507.728 60.7109C506.993 60.7109 506.251 60.8164 505.501 61.0273C504.751 61.2383 504.02 61.5469 503.31 61.9531V59.7969C504.106 59.4922 504.868 59.2656 505.595 59.1172C506.329 58.9609 507.04 58.8828 507.728 58.8828C508.813 58.8828 509.739 59.043 510.505 59.3633C511.278 59.6836 511.903 60.1641 512.38 60.8047C512.677 61.1953 512.888 61.6797 513.013 62.2578C513.138 62.8281 513.2 63.6875 513.2 64.8359ZM535.324 64.7891H541.429V66.7109H535.324V64.7891ZM547.505 59.1992H549.743L553.552 70.2148L557.372 59.1992H559.61L554.946 72.3242H552.169L547.505 59.1992ZM574.545 65.2227V66.2773H565.205V66.3477C565.205 67.7773 565.576 68.8828 566.318 69.6641C567.068 70.4453 568.123 70.8359 569.482 70.8359C570.17 70.8359 570.889 70.7266 571.639 70.5078C572.389 70.2891 573.19 69.957 574.041 69.5117V71.6562C573.221 71.9922 572.428 72.2422 571.662 72.4062C570.904 72.5781 570.17 72.6641 569.459 72.6641C567.42 72.6641 565.826 72.0547 564.678 70.8359C563.529 69.6094 562.955 67.9219 562.955 65.7734C562.955 63.6797 563.518 62.0078 564.643 60.7578C565.768 59.5078 567.268 58.8828 569.143 58.8828C570.815 58.8828 572.131 59.4492 573.092 60.582C574.061 61.7148 574.545 63.2617 574.545 65.2227ZM572.389 64.5898C572.357 63.3242 572.057 62.3633 571.486 61.707C570.924 61.043 570.111 60.7109 569.049 60.7109C568.01 60.7109 567.154 61.0547 566.482 61.7422C565.811 62.4297 565.412 63.3828 565.287 64.6016L572.389 64.5898ZM590.23 61.9062C589.769 61.5469 589.3 61.2852 588.824 61.1211C588.347 60.957 587.824 60.875 587.253 60.875C585.91 60.875 584.882 61.2969 584.171 62.1406C583.46 62.9844 583.105 64.2031 583.105 65.7969V72.3242H580.937V59.1992H583.105V61.7656C583.464 60.8359 584.015 60.125 584.757 59.6328C585.507 59.1328 586.394 58.8828 587.417 58.8828C587.949 58.8828 588.445 58.9492 588.906 59.082C589.367 59.2148 589.808 59.4219 590.23 59.7031V61.9062ZM603.278 59.6562V61.7656C602.661 61.4062 602.04 61.1367 601.415 60.957C600.79 60.7773 600.153 60.6875 599.505 60.6875C598.528 60.6875 597.797 60.8477 597.313 61.168C596.837 61.4805 596.598 61.9609 596.598 62.6094C596.598 63.1953 596.778 63.6328 597.137 63.9219C597.497 64.2109 598.391 64.4922 599.821 64.7656L600.688 64.9297C601.758 65.1328 602.567 65.5391 603.114 66.1484C603.669 66.7578 603.946 67.5508 603.946 68.5273C603.946 69.8242 603.485 70.8398 602.563 71.5742C601.641 72.3008 600.36 72.6641 598.719 72.6641C598.071 72.6641 597.391 72.5938 596.68 72.4531C595.969 72.3203 595.2 72.1172 594.372 71.8438V69.6172C595.176 70.0312 595.946 70.3438 596.68 70.5547C597.415 70.7578 598.11 70.8594 598.766 70.8594C599.719 70.8594 600.458 70.668 600.981 70.2852C601.505 69.8945 601.766 69.3516 601.766 68.6562C601.766 67.6562 600.809 66.9648 598.895 66.582L598.801 66.5586L597.993 66.3945C596.751 66.1523 595.844 65.7461 595.274 65.1758C594.704 64.5977 594.419 63.8125 594.419 62.8203C594.419 61.5625 594.844 60.5938 595.696 59.9141C596.547 59.2266 597.762 58.8828 599.34 58.8828C600.044 58.8828 600.719 58.9492 601.368 59.082C602.016 59.207 602.653 59.3984 603.278 59.6562ZM610.057 59.1992H615.576V70.6484H619.853V72.3242H609.143V70.6484H613.42V60.875H610.057V59.1992ZM613.42 54.0898H615.576V56.8203H613.42V54.0898ZM629.456 60.7109C628.362 60.7109 627.534 61.1367 626.972 61.9883C626.409 62.8398 626.128 64.1016 626.128 65.7734C626.128 67.4375 626.409 68.6992 626.972 69.5586C627.534 70.4102 628.362 70.8359 629.456 70.8359C630.558 70.8359 631.39 70.4102 631.952 69.5586C632.515 68.6992 632.796 67.4375 632.796 65.7734C632.796 64.1016 632.515 62.8398 631.952 61.9883C631.39 61.1367 630.558 60.7109 629.456 60.7109ZM629.456 58.8828C631.277 58.8828 632.667 59.4727 633.628 60.6523C634.597 61.832 635.081 63.5391 635.081 65.7734C635.081 68.0156 634.601 69.7266 633.64 70.9062C632.679 72.0781 631.284 72.6641 629.456 72.6641C627.636 72.6641 626.245 72.0781 625.284 70.9062C624.323 69.7266 623.843 68.0156 623.843 65.7734C623.843 63.5391 624.323 61.832 625.284 60.6523C626.245 59.4727 627.636 58.8828 629.456 58.8828ZM649.735 64.1914V72.3242H647.567V64.1914C647.567 63.0117 647.36 62.1445 646.946 61.5898C646.532 61.0352 645.883 60.7578 645 60.7578C643.993 60.7578 643.215 61.1172 642.668 61.8359C642.129 62.5469 641.86 63.5703 641.86 64.9062V72.3242H639.704V59.1992H641.86V61.168C642.243 60.418 642.762 59.8516 643.418 59.4688C644.075 59.0781 644.852 58.8828 645.75 58.8828C647.086 58.8828 648.083 59.3242 648.739 60.207C649.403 61.082 649.735 62.4102 649.735 64.1914ZM22.0312 102.559V90.875H18.3164V89.1992H24.1875V102.559C24.1875 104.082 23.8359 105.254 23.1328 106.074C22.4375 106.902 21.4453 107.316 20.1562 107.316H17.1797V105.488H19.9219C20.625 105.488 21.1523 105.242 21.5039 104.75C21.8555 104.266 22.0312 103.535 22.0312 102.559ZM22.0312 84.0898H24.1875V86.8203H22.0312V84.0898ZM38.4075 95.7266H37.6927C36.4348 95.7266 35.4856 95.9492 34.845 96.3945C34.2122 96.832 33.8958 97.4883 33.8958 98.3633C33.8958 99.1523 34.1341 99.7656 34.6106 100.203C35.0872 100.641 35.7473 100.859 36.5911 100.859C37.7786 100.859 38.7122 100.449 39.3919 99.6289C40.0716 98.8008 40.4153 97.6602 40.4231 96.207V95.7266H38.4075ZM42.5911 94.8359V102.324H40.4231V100.379C39.9622 101.16 39.3802 101.738 38.677 102.113C37.9817 102.48 37.1341 102.664 36.1341 102.664C34.7981 102.664 33.7317 102.289 32.9348 101.539C32.138 100.781 31.7395 99.7695 31.7395 98.5039C31.7395 97.043 32.2278 95.9336 33.2044 95.1758C34.1888 94.418 35.6302 94.0391 37.5286 94.0391H40.4231V93.6992C40.4153 92.6523 40.1497 91.8945 39.6263 91.4258C39.1028 90.9492 38.2669 90.7109 37.1184 90.7109C36.3841 90.7109 35.6419 90.8164 34.8919 91.0273C34.1419 91.2383 33.4114 91.5469 32.7005 91.9531V89.7969C33.4973 89.4922 34.2591 89.2656 34.9856 89.1172C35.72 88.9609 36.4309 88.8828 37.1184 88.8828C38.2044 88.8828 39.1302 89.043 39.8958 89.3633C40.6692 89.6836 41.2942 90.1641 41.7708 90.8047C42.0677 91.1953 42.2786 91.6797 42.4036 92.2578C42.5286 92.8281 42.5911 93.6875 42.5911 94.8359ZM46.5338 89.1992H48.772L52.5806 100.215L56.4009 89.1992H58.6392L53.9752 102.324H51.1978L46.5338 89.1992ZM68.7694 95.7266H68.0545C66.7967 95.7266 65.8475 95.9492 65.2069 96.3945C64.5741 96.832 64.2577 97.4883 64.2577 98.3633C64.2577 99.1523 64.4959 99.7656 64.9725 100.203C65.4491 100.641 66.1092 100.859 66.953 100.859C68.1405 100.859 69.0741 100.449 69.7537 99.6289C70.4334 98.8008 70.7772 97.6602 70.785 96.207V95.7266H68.7694ZM72.953 94.8359V102.324H70.785V100.379C70.3241 101.16 69.742 101.738 69.0389 102.113C68.3436 102.48 67.4959 102.664 66.4959 102.664C65.16 102.664 64.0936 102.289 63.2967 101.539C62.4998 100.781 62.1014 99.7695 62.1014 98.5039C62.1014 97.043 62.5897 95.9336 63.5662 95.1758C64.5506 94.418 65.992 94.0391 67.8905 94.0391H70.785V93.6992C70.7772 92.6523 70.5116 91.8945 69.9881 91.4258C69.4647 90.9492 68.6287 90.7109 67.4803 90.7109C66.7459 90.7109 66.0037 90.8164 65.2537 91.0273C64.5037 91.2383 63.7733 91.5469 63.0623 91.9531V89.7969C63.8592 89.4922 64.6209 89.2656 65.3475 89.1172C66.0819 88.9609 66.7928 88.8828 67.4803 88.8828C68.5662 88.8828 69.492 89.043 70.2577 89.3633C71.0311 89.6836 71.6561 90.1641 72.1327 90.8047C72.4295 91.1953 72.6405 91.6797 72.7655 92.2578C72.8905 92.8281 72.953 93.6875 72.953 94.8359ZM92.0766 89.1992H94.3148L98.1234 100.215L101.944 89.1992H104.182L99.518 102.324H96.7406L92.0766 89.1992ZM119.117 95.2227V96.2773H109.777V96.3477C109.777 97.7773 110.148 98.8828 110.89 99.6641C111.64 100.445 112.695 100.836 114.054 100.836C114.742 100.836 115.461 100.727 116.211 100.508C116.961 100.289 117.761 99.957 118.613 99.5117V101.656C117.793 101.992 117 102.242 116.234 102.406C115.476 102.578 114.742 102.664 114.031 102.664C111.992 102.664 110.398 102.055 109.25 100.836C108.101 99.6094 107.527 97.9219 107.527 95.7734C107.527 93.6797 108.09 92.0078 109.215 90.7578C110.34 89.5078 111.84 88.8828 113.715 88.8828C115.386 88.8828 116.703 89.4492 117.664 90.582C118.632 91.7148 119.117 93.2617 119.117 95.2227ZM116.961 94.5898C116.929 93.3242 116.629 92.3633 116.058 91.707C115.496 91.043 114.683 90.7109 113.621 90.7109C112.582 90.7109 111.726 91.0547 111.054 91.7422C110.382 92.4297 109.984 93.3828 109.859 94.6016L116.961 94.5898ZM134.802 91.9062C134.341 91.5469 133.872 91.2852 133.395 91.1211C132.919 90.957 132.395 90.875 131.825 90.875C130.481 90.875 129.454 91.2969 128.743 92.1406C128.032 92.9844 127.677 94.2031 127.677 95.7969V102.324H125.509V89.1992H127.677V91.7656C128.036 90.8359 128.587 90.125 129.329 89.6328C130.079 89.1328 130.966 88.8828 131.989 88.8828C132.52 88.8828 133.017 88.9492 133.478 89.082C133.938 89.2148 134.38 89.4219 134.802 89.7031V91.9062ZM147.85 89.6562V91.7656C147.233 91.4062 146.612 91.1367 145.987 90.957C145.362 90.7773 144.725 90.6875 144.076 90.6875C143.1 90.6875 142.369 90.8477 141.885 91.168C141.408 91.4805 141.17 91.9609 141.17 92.6094C141.17 93.1953 141.35 93.6328 141.709 93.9219C142.069 94.2109 142.963 94.4922 144.393 94.7656L145.26 94.9297C146.33 95.1328 147.139 95.5391 147.686 96.1484C148.24 96.7578 148.518 97.5508 148.518 98.5273C148.518 99.8242 148.057 100.84 147.135 101.574C146.213 102.301 144.932 102.664 143.291 102.664C142.643 102.664 141.963 102.594 141.252 102.453C140.541 102.32 139.772 102.117 138.944 101.844V99.6172C139.748 100.031 140.518 100.344 141.252 100.555C141.987 100.758 142.682 100.859 143.338 100.859C144.291 100.859 145.03 100.668 145.553 100.285C146.076 99.8945 146.338 99.3516 146.338 98.6562C146.338 97.6562 145.381 96.9648 143.467 96.582L143.373 96.5586L142.565 96.3945C141.323 96.1523 140.416 95.7461 139.846 95.1758C139.276 94.5977 138.99 93.8125 138.99 92.8203C138.99 91.5625 139.416 90.5938 140.268 89.9141C141.119 89.2266 142.334 88.8828 143.912 88.8828C144.615 88.8828 145.291 88.9492 145.94 89.082C146.588 89.207 147.225 89.3984 147.85 89.6562ZM154.628 89.1992H160.148V100.648H164.425V102.324H153.714V100.648H157.992V90.875H154.628V89.1992ZM157.992 84.0898H160.148V86.8203H157.992V84.0898ZM174.028 90.7109C172.934 90.7109 172.106 91.1367 171.544 91.9883C170.981 92.8398 170.7 94.1016 170.7 95.7734C170.7 97.4375 170.981 98.6992 171.544 99.5586C172.106 100.41 172.934 100.836 174.028 100.836C175.13 100.836 175.962 100.41 176.524 99.5586C177.087 98.6992 177.368 97.4375 177.368 95.7734C177.368 94.1016 177.087 92.8398 176.524 91.9883C175.962 91.1367 175.13 90.7109 174.028 90.7109ZM174.028 88.8828C175.848 88.8828 177.239 89.4727 178.2 90.6523C179.169 91.832 179.653 93.5391 179.653 95.7734C179.653 98.0156 179.173 99.7266 178.212 100.906C177.251 102.078 175.856 102.664 174.028 102.664C172.208 102.664 170.817 102.078 169.856 100.906C168.895 99.7266 168.415 98.0156 168.415 95.7734C168.415 93.5391 168.895 91.832 169.856 90.6523C170.817 89.4727 172.208 88.8828 174.028 88.8828ZM194.307 94.1914V102.324H192.139V94.1914C192.139 93.0117 191.932 92.1445 191.518 91.5898C191.104 91.0352 190.455 90.7578 189.572 90.7578C188.565 90.7578 187.787 91.1172 187.24 91.8359C186.701 92.5469 186.432 93.5703 186.432 94.9062V102.324H184.275V89.1992H186.432V91.168C186.815 90.418 187.334 89.8516 187.99 89.4688C188.647 89.0781 189.424 88.8828 190.322 88.8828C191.658 88.8828 192.654 89.3242 193.311 90.207C193.975 91.082 194.307 92.4102 194.307 94.1914ZM223.18 90.9922H220.227V88.5664L222.524 84.0898H224.329L223.18 88.5664V90.9922ZM217.801 90.9922H214.825V88.5664L217.157 84.0898H218.95L217.801 88.5664V90.9922ZM231.904 100.332H239.943V102.324H229.314V100.332C230.775 98.793 232.053 97.4336 233.146 96.2539C234.24 95.0742 234.994 94.2422 235.408 93.7578C236.189 92.8047 236.717 92.0352 236.99 91.4492C237.264 90.8555 237.4 90.25 237.4 89.6328C237.4 88.6562 237.111 87.8906 236.533 87.3359C235.963 86.7812 235.178 86.5039 234.178 86.5039C233.467 86.5039 232.721 86.6328 231.939 86.8906C231.158 87.1484 230.33 87.5391 229.455 88.0625V85.6719C230.26 85.2891 231.049 85 231.822 84.8047C232.603 84.6094 233.373 84.5117 234.131 84.5117C235.842 84.5117 237.217 84.9688 238.256 85.8828C239.303 86.7891 239.826 87.9805 239.826 89.457C239.826 90.207 239.65 90.957 239.299 91.707C238.955 92.457 238.393 93.2852 237.611 94.1914C237.174 94.6992 236.537 95.4023 235.701 96.3008C234.873 97.1992 233.607 98.543 231.904 100.332ZM248.374 93.5352C248.374 93.1055 248.523 92.7344 248.82 92.4219C249.124 92.1094 249.488 91.9531 249.909 91.9531C250.347 91.9531 250.722 92.1094 251.034 92.4219C251.347 92.7344 251.503 93.1055 251.503 93.5352C251.503 93.9727 251.347 94.3438 251.034 94.6484C250.73 94.9531 250.355 95.1055 249.909 95.1055C249.472 95.1055 249.105 94.957 248.808 94.6602C248.519 94.3633 248.374 93.9883 248.374 93.5352ZM249.933 86.3867C248.831 86.3867 248.007 86.9805 247.46 88.168C246.921 89.3555 246.652 91.1641 246.652 93.5938C246.652 96.0156 246.921 97.8203 247.46 99.0078C248.007 100.195 248.831 100.789 249.933 100.789C251.042 100.789 251.866 100.195 252.405 99.0078C252.952 97.8203 253.226 96.0156 253.226 93.5938C253.226 91.1641 252.952 89.3555 252.405 88.168C251.866 86.9805 251.042 86.3867 249.933 86.3867ZM249.933 84.5117C251.8 84.5117 253.21 85.2773 254.163 86.8086C255.124 88.3398 255.605 90.6016 255.605 93.5938C255.605 96.5781 255.124 98.8359 254.163 100.367C253.21 101.898 251.8 102.664 249.933 102.664C248.066 102.664 246.655 101.898 245.702 100.367C244.749 98.8359 244.273 96.5781 244.273 93.5938C244.273 90.6016 244.749 88.3398 245.702 86.8086C246.655 85.2773 248.066 84.5117 249.933 84.5117ZM263.625 98.75H266.579V102.324H263.625V98.75ZM278.736 93.5352C278.736 93.1055 278.885 92.7344 279.181 92.4219C279.486 92.1094 279.849 91.9531 280.271 91.9531C280.709 91.9531 281.084 92.1094 281.396 92.4219C281.709 92.7344 281.865 93.1055 281.865 93.5352C281.865 93.9727 281.709 94.3438 281.396 94.6484C281.092 94.9531 280.717 95.1055 280.271 95.1055C279.834 95.1055 279.467 94.957 279.17 94.6602C278.881 94.3633 278.736 93.9883 278.736 93.5352ZM280.295 86.3867C279.193 86.3867 278.369 86.9805 277.822 88.168C277.283 89.3555 277.013 91.1641 277.013 93.5938C277.013 96.0156 277.283 97.8203 277.822 99.0078C278.369 100.195 279.193 100.789 280.295 100.789C281.404 100.789 282.228 100.195 282.767 99.0078C283.314 97.8203 283.588 96.0156 283.588 93.5938C283.588 91.1641 283.314 89.3555 282.767 88.168C282.228 86.9805 281.404 86.3867 280.295 86.3867ZM280.295 84.5117C282.162 84.5117 283.572 85.2773 284.525 86.8086C285.486 88.3398 285.967 90.6016 285.967 93.5938C285.967 96.5781 285.486 98.8359 284.525 100.367C283.572 101.898 282.162 102.664 280.295 102.664C278.427 102.664 277.017 101.898 276.064 100.367C275.111 98.8359 274.635 96.5781 274.635 93.5938C274.635 90.6016 275.111 88.3398 276.064 86.8086C277.017 85.2773 278.427 84.5117 280.295 84.5117ZM293.987 98.75H296.94V102.324H293.987V98.75ZM306.602 100.332H310.282V86.9609L306.321 87.8516V85.6953L310.258 84.8281H312.625V100.332H316.258V102.324H306.602V100.332ZM327.619 84.0898H330.572V86.5039L328.263 90.9922H326.47L327.619 86.5039V84.0898ZM322.24 84.0898H325.193V86.5039L322.896 90.9922H321.091L322.24 86.5039V84.0898ZM353.352 100.332H361.391V102.324H350.762V100.332C352.223 98.793 353.5 97.4336 354.594 96.2539C355.688 95.0742 356.442 94.2422 356.856 93.7578C357.637 92.8047 358.164 92.0352 358.438 91.4492C358.711 90.8555 358.848 90.25 358.848 89.6328C358.848 88.6562 358.559 87.8906 357.981 87.3359C357.41 86.7812 356.625 86.5039 355.625 86.5039C354.914 86.5039 354.168 86.6328 353.387 86.8906C352.606 87.1484 351.777 87.5391 350.902 88.0625V85.6719C351.707 85.2891 352.496 85 353.27 84.8047C354.051 84.6094 354.82 84.5117 355.578 84.5117C357.289 84.5117 358.664 84.9688 359.703 85.8828C360.75 86.7891 361.274 87.9805 361.274 89.457C361.274 90.207 361.098 90.957 360.746 91.707C360.402 92.457 359.84 93.2852 359.059 94.1914C358.621 94.6992 357.985 95.4023 357.149 96.3008C356.32 97.1992 355.055 98.543 353.352 100.332ZM369.822 93.5352C369.822 93.1055 369.97 92.7344 370.267 92.4219C370.572 92.1094 370.935 91.9531 371.357 91.9531C371.794 91.9531 372.169 92.1094 372.482 92.4219C372.794 92.7344 372.951 93.1055 372.951 93.5352C372.951 93.9727 372.794 94.3438 372.482 94.6484C372.177 94.9531 371.802 95.1055 371.357 95.1055C370.919 95.1055 370.552 94.957 370.255 94.6602C369.966 94.3633 369.822 93.9883 369.822 93.5352ZM371.38 86.3867C370.279 86.3867 369.455 86.9805 368.908 88.168C368.369 89.3555 368.099 91.1641 368.099 93.5938C368.099 96.0156 368.369 97.8203 368.908 99.0078C369.455 100.195 370.279 100.789 371.38 100.789C372.49 100.789 373.314 100.195 373.853 99.0078C374.4 97.8203 374.673 96.0156 374.673 93.5938C374.673 91.1641 374.4 89.3555 373.853 88.168C373.314 86.9805 372.49 86.3867 371.38 86.3867ZM371.38 84.5117C373.247 84.5117 374.658 85.2773 375.611 86.8086C376.572 88.3398 377.052 90.6016 377.052 93.5938C377.052 96.5781 376.572 98.8359 375.611 100.367C374.658 101.898 373.247 102.664 371.38 102.664C369.513 102.664 368.103 101.898 367.15 100.367C366.197 98.8359 365.72 96.5781 365.72 93.5938C365.72 90.6016 366.197 88.3398 367.15 86.8086C368.103 85.2773 369.513 84.5117 371.38 84.5117ZM383.714 100.332H391.753V102.324H381.124V100.332C382.585 98.793 383.862 97.4336 384.956 96.2539C386.05 95.0742 386.803 94.2422 387.217 93.7578C387.999 92.8047 388.526 92.0352 388.8 91.4492C389.073 90.8555 389.21 90.25 389.21 89.6328C389.21 88.6562 388.921 87.8906 388.342 87.3359C387.772 86.7812 386.987 86.5039 385.987 86.5039C385.276 86.5039 384.53 86.6328 383.749 86.8906C382.967 87.1484 382.139 87.5391 381.264 88.0625V85.6719C382.069 85.2891 382.858 85 383.632 84.8047C384.413 84.6094 385.182 84.5117 385.94 84.5117C387.651 84.5117 389.026 84.9688 390.065 85.8828C391.112 86.7891 391.635 87.9805 391.635 89.457C391.635 90.207 391.46 90.957 391.108 91.707C390.764 92.457 390.202 93.2852 389.421 94.1914C388.983 94.6992 388.346 95.4023 387.51 96.3008C386.682 97.1992 385.417 98.543 383.714 100.332ZM403.617 92.9609C404.766 93.2656 405.645 93.8086 406.254 94.5898C406.863 95.3633 407.168 96.332 407.168 97.4961C407.168 99.1055 406.625 100.371 405.539 101.293C404.461 102.207 402.965 102.664 401.051 102.664C400.246 102.664 399.426 102.59 398.59 102.441C397.754 102.293 396.934 102.078 396.129 101.797V99.4414C396.926 99.8555 397.711 100.164 398.484 100.367C399.258 100.57 400.027 100.672 400.793 100.672C402.09 100.672 403.086 100.379 403.781 99.793C404.477 99.207 404.824 98.3633 404.824 97.2617C404.824 96.2461 404.477 95.4414 403.781 94.8477C403.086 94.2461 402.145 93.9453 400.957 93.9453H399.152V92H400.957C402.043 92 402.891 91.7617 403.5 91.2852C404.109 90.8086 404.414 90.1445 404.414 89.293C404.414 88.3945 404.129 87.707 403.559 87.2305C402.996 86.7461 402.191 86.5039 401.145 86.5039C400.449 86.5039 399.73 86.582 398.988 86.7383C398.246 86.8945 397.469 87.1289 396.656 87.4414V85.2617C397.602 85.0117 398.441 84.8242 399.176 84.6992C399.918 84.5742 400.574 84.5117 401.145 84.5117C402.848 84.5117 404.207 84.9414 405.223 85.8008C406.246 86.6523 406.758 87.7852 406.758 89.1992C406.758 90.1602 406.488 90.9609 405.949 91.6016C405.418 92.2422 404.641 92.6953 403.617 92.9609ZM413.876 94.7891H419.982V96.7109H413.876V94.7891ZM430.545 93.5352C430.545 93.1055 430.694 92.7344 430.991 92.4219C431.295 92.1094 431.659 91.9531 432.081 91.9531C432.518 91.9531 432.893 92.1094 433.206 92.4219C433.518 92.7344 433.674 93.1055 433.674 93.5352C433.674 93.9727 433.518 94.3438 433.206 94.6484C432.901 94.9531 432.526 95.1055 432.081 95.1055C431.643 95.1055 431.276 94.957 430.979 94.6602C430.69 94.3633 430.545 93.9883 430.545 93.5352ZM432.104 86.3867C431.003 86.3867 430.178 86.9805 429.631 88.168C429.092 89.3555 428.823 91.1641 428.823 93.5938C428.823 96.0156 429.092 97.8203 429.631 99.0078C430.178 100.195 431.003 100.789 432.104 100.789C433.213 100.789 434.038 100.195 434.577 99.0078C435.124 97.8203 435.397 96.0156 435.397 93.5938C435.397 91.1641 435.124 89.3555 434.577 88.168C434.038 86.9805 433.213 86.3867 432.104 86.3867ZM432.104 84.5117C433.971 84.5117 435.381 85.2773 436.335 86.8086C437.295 88.3398 437.776 90.6016 437.776 93.5938C437.776 96.5781 437.295 98.8359 436.335 100.367C435.381 101.898 433.971 102.664 432.104 102.664C430.237 102.664 428.827 101.898 427.874 100.367C426.92 98.8359 426.444 96.5781 426.444 93.5938C426.444 90.6016 426.92 88.3398 427.874 86.8086C428.827 85.2773 430.237 84.5117 432.104 84.5117ZM448.68 86.9844L443.16 96.2305H448.68V86.9844ZM448.293 84.8281H451.035V96.2305H453.367V98.1523H451.035V102.324H448.68V98.1523H441.262V95.9141L448.293 84.8281ZM459.419 94.7891H465.525V96.7109H459.419V94.7891ZM473.592 100.332H477.272V86.9609L473.311 87.8516V85.6953L477.248 84.8281H479.616V100.332H483.248V102.324H473.592V100.332ZM492.828 94.0156C491.773 94.0156 490.957 94.3125 490.379 94.9062C489.808 95.4922 489.523 96.3242 489.523 97.4023C489.523 98.4805 489.812 99.3203 490.39 99.9219C490.976 100.516 491.789 100.812 492.828 100.812C493.89 100.812 494.707 100.52 495.277 99.9336C495.855 99.3398 496.144 98.4961 496.144 97.4023C496.144 96.332 495.851 95.5 495.265 94.9062C494.687 94.3125 493.875 94.0156 492.828 94.0156ZM490.765 93.0312C489.758 92.7734 488.968 92.293 488.398 91.5898C487.836 90.8867 487.554 90.0391 487.554 89.0469C487.554 87.6562 488.027 86.5547 488.972 85.7422C489.918 84.9219 491.203 84.5117 492.828 84.5117C494.461 84.5117 495.75 84.9219 496.695 85.7422C497.64 86.5547 498.113 87.6562 498.113 89.0469C498.113 90.0391 497.828 90.8867 497.258 91.5898C496.695 92.293 495.91 92.7734 494.902 93.0312C496.074 93.2891 496.968 93.8086 497.586 94.5898C498.211 95.3711 498.523 96.3828 498.523 97.625C498.523 99.2031 498.019 100.438 497.011 101.328C496.004 102.219 494.609 102.664 492.828 102.664C491.047 102.664 489.652 102.223 488.644 101.34C487.644 100.449 487.144 99.2188 487.144 97.6484C487.144 96.3984 487.453 95.3828 488.07 94.6016C488.695 93.8125 489.593 93.2891 490.765 93.0312ZM489.91 89.2695C489.91 90.207 490.16 90.9219 490.66 91.4141C491.16 91.9062 491.883 92.1523 492.828 92.1523C493.781 92.1523 494.508 91.9062 495.008 91.4141C495.508 90.9219 495.758 90.207 495.758 89.2695C495.758 88.3164 495.508 87.5898 495.008 87.0898C494.515 86.5898 493.789 86.3398 492.828 86.3398C491.883 86.3398 491.16 86.5938 490.66 87.1016C490.16 87.6016 489.91 88.3242 489.91 89.2695ZM16.2773 131.609V128.844C16.9883 129.477 17.7227 129.953 18.4805 130.273C19.2383 130.586 20.0234 130.742 20.8359 130.742C21.9531 130.742 22.7305 130.453 23.168 129.875C23.6133 129.289 23.8359 128.203 23.8359 126.617V116.82H19.3711V114.828H26.2031V126.617C26.2031 128.82 25.7891 130.379 24.9609 131.293C24.1406 132.207 22.7656 132.664 20.8359 132.664C20.0859 132.664 19.3398 132.578 18.5977 132.406C17.8555 132.234 17.082 131.969 16.2773 131.609ZM38.4075 125.727H37.6927C36.4348 125.727 35.4856 125.949 34.845 126.395C34.2122 126.832 33.8958 127.488 33.8958 128.363C33.8958 129.152 34.1341 129.766 34.6106 130.203C35.0872 130.641 35.7473 130.859 36.5911 130.859C37.7786 130.859 38.7122 130.449 39.3919 129.629C40.0716 128.801 40.4153 127.66 40.4231 126.207V125.727H38.4075ZM42.5911 124.836V132.324H40.4231V130.379C39.9622 131.16 39.3802 131.738 38.677 132.113C37.9817 132.48 37.1341 132.664 36.1341 132.664C34.7981 132.664 33.7317 132.289 32.9348 131.539C32.138 130.781 31.7395 129.77 31.7395 128.504C31.7395 127.043 32.2278 125.934 33.2044 125.176C34.1888 124.418 35.6302 124.039 37.5286 124.039H40.4231V123.699C40.4153 122.652 40.1497 121.895 39.6263 121.426C39.1028 120.949 38.2669 120.711 37.1184 120.711C36.3841 120.711 35.6419 120.816 34.8919 121.027C34.1419 121.238 33.4114 121.547 32.7005 121.953V119.797C33.4973 119.492 34.2591 119.266 34.9856 119.117C35.72 118.961 36.4309 118.883 37.1184 118.883C38.2044 118.883 39.1302 119.043 39.8958 119.363C40.6692 119.684 41.2942 120.164 41.7708 120.805C42.0677 121.195 42.2786 121.68 42.4036 122.258C42.5286 122.828 42.5911 123.688 42.5911 124.836ZM46.5338 119.199H48.772L52.5806 130.215L56.4009 119.199H58.6392L53.9752 132.324H51.1978L46.5338 119.199ZM68.7694 125.727H68.0545C66.7967 125.727 65.8475 125.949 65.2069 126.395C64.5741 126.832 64.2577 127.488 64.2577 128.363C64.2577 129.152 64.4959 129.766 64.9725 130.203C65.4491 130.641 66.1092 130.859 66.953 130.859C68.1405 130.859 69.0741 130.449 69.7537 129.629C70.4334 128.801 70.7772 127.66 70.785 126.207V125.727H68.7694ZM72.953 124.836V132.324H70.785V130.379C70.3241 131.16 69.742 131.738 69.0389 132.113C68.3436 132.48 67.4959 132.664 66.4959 132.664C65.16 132.664 64.0936 132.289 63.2967 131.539C62.4998 130.781 62.1014 129.77 62.1014 128.504C62.1014 127.043 62.5897 125.934 63.5662 125.176C64.5506 124.418 65.992 124.039 67.8905 124.039H70.785V123.699C70.7772 122.652 70.5116 121.895 69.9881 121.426C69.4647 120.949 68.6287 120.711 67.4803 120.711C66.7459 120.711 66.0037 120.816 65.2537 121.027C64.5037 121.238 63.7733 121.547 63.0623 121.953V119.797C63.8592 119.492 64.6209 119.266 65.3475 119.117C66.0819 118.961 66.7928 118.883 67.4803 118.883C68.5662 118.883 69.492 119.043 70.2577 119.363C71.0311 119.684 71.6561 120.164 72.1327 120.805C72.4295 121.195 72.6405 121.68 72.7655 122.258C72.8905 122.828 72.953 123.688 72.953 124.836ZM86.0948 114.113C85.0558 115.895 84.2784 117.672 83.7628 119.445C83.255 121.211 83.0011 122.992 83.0011 124.789C83.0011 126.578 83.255 128.359 83.7628 130.133C84.2784 131.906 85.0558 133.691 86.0948 135.488H84.2198C83.0402 133.629 82.1613 131.82 81.5831 130.062C81.005 128.297 80.7159 126.539 80.7159 124.789C80.7159 123.047 81.005 121.293 81.5831 119.527C82.1613 117.762 83.0402 115.957 84.2198 114.113H86.0948ZM91.4555 114.828H104.803V116.82H99.3305V132.324H96.9516V116.82H91.4555V114.828ZM107.093 114.828H110.257L113.281 123.734L116.328 114.828H119.504V132.324H117.312V116.867L114.195 126.09H112.402L109.273 116.867V132.324H107.093V114.828ZM125.345 114.113H127.22C128.399 115.957 129.278 117.762 129.856 119.527C130.435 121.293 130.724 123.047 130.724 124.789C130.724 126.547 130.435 128.309 129.856 130.074C129.278 131.84 128.399 133.645 127.22 135.488H125.345C126.384 133.676 127.157 131.883 127.665 130.109C128.181 128.336 128.438 126.562 128.438 124.789C128.438 123.008 128.181 121.23 127.665 119.457C127.157 117.684 126.384 115.902 125.345 114.113ZM163.488 115.426V117.828C162.769 117.367 162.046 117.02 161.32 116.785C160.601 116.551 159.875 116.434 159.14 116.434C158.023 116.434 157.14 116.695 156.492 117.219C155.843 117.734 155.519 118.434 155.519 119.316C155.519 120.09 155.73 120.68 156.152 121.086C156.582 121.492 157.378 121.832 158.542 122.105L159.785 122.387C161.425 122.77 162.621 123.371 163.371 124.191C164.121 125.012 164.496 126.129 164.496 127.543C164.496 129.207 163.98 130.477 162.949 131.352C161.917 132.227 160.417 132.664 158.449 132.664C157.628 132.664 156.804 132.574 155.976 132.395C155.148 132.223 154.316 131.961 153.48 131.609V129.09C154.378 129.66 155.226 130.078 156.023 130.344C156.828 130.609 157.636 130.742 158.449 130.742C159.644 130.742 160.574 130.477 161.238 129.945C161.902 129.406 162.234 128.656 162.234 127.695C162.234 126.82 162.003 126.152 161.542 125.691C161.089 125.23 160.296 124.875 159.164 124.625L157.898 124.332C156.273 123.965 155.093 123.41 154.359 122.668C153.625 121.926 153.257 120.93 153.257 119.68C153.257 118.117 153.781 116.867 154.828 115.93C155.882 114.984 157.281 114.512 159.023 114.512C159.695 114.512 160.402 114.59 161.144 114.746C161.886 114.895 162.667 115.121 163.488 115.426ZM169.118 114.828H179.501V116.82H171.485V122H179.149V123.992H171.485V130.332H179.723V132.324H169.118V114.828ZM206.077 124.062C206.687 124.219 207.206 124.516 207.636 124.953C208.066 125.383 208.601 126.246 209.242 127.543L211.62 132.324H209.077L206.992 127.906C206.39 126.648 205.847 125.84 205.363 125.48C204.886 125.113 204.261 124.93 203.488 124.93H201.226V132.324H198.847V114.828H203.722C205.644 114.828 207.117 115.262 208.14 116.129C209.163 116.996 209.675 118.25 209.675 119.891C209.675 121.047 209.359 121.992 208.726 122.727C208.101 123.453 207.218 123.898 206.077 124.062ZM201.226 116.773V122.984H203.816C204.949 122.984 205.792 122.73 206.347 122.223C206.902 121.715 207.179 120.938 207.179 119.891C207.179 118.883 206.882 118.113 206.288 117.582C205.702 117.043 204.847 116.773 203.722 116.773H201.226ZM214.637 127.355V119.223H216.794V127.355C216.794 128.535 217.001 129.402 217.415 129.957C217.837 130.512 218.485 130.789 219.36 130.789C220.376 130.789 221.153 130.434 221.692 129.723C222.231 129.004 222.501 127.977 222.501 126.641V119.223H224.669V132.324H222.501V130.355C222.118 131.113 221.594 131.688 220.93 132.078C220.274 132.469 219.505 132.664 218.622 132.664C217.278 132.664 216.278 132.227 215.622 131.352C214.965 130.469 214.637 129.137 214.637 127.355ZM239.85 124.191V132.324H237.682V124.191C237.682 123.012 237.475 122.145 237.06 121.59C236.646 121.035 235.998 120.758 235.115 120.758C234.107 120.758 233.33 121.117 232.783 121.836C232.244 122.547 231.975 123.57 231.975 124.906V132.324H229.818V119.199H231.975V121.168C232.357 120.418 232.877 119.852 233.533 119.469C234.189 119.078 234.967 118.883 235.865 118.883C237.201 118.883 238.197 119.324 238.853 120.207C239.518 121.082 239.85 122.41 239.85 124.191ZM249.909 115.473V119.199H254.808V120.875H249.909V128C249.909 128.969 250.093 129.645 250.46 130.027C250.827 130.41 251.468 130.602 252.382 130.602H254.808V132.324H252.171C250.554 132.324 249.413 132 248.749 131.352C248.085 130.703 247.753 129.586 247.753 128V120.875H244.249V119.199H247.753V115.473H249.909ZM260.895 119.199H266.415V130.648H270.692V132.324H259.981V130.648H264.258V120.875H260.895V119.199ZM264.258 114.09H266.415V116.82H264.258V114.09ZM280.998 120.535C281.263 119.973 281.599 119.559 282.006 119.293C282.42 119.02 282.916 118.883 283.494 118.883C284.549 118.883 285.291 119.293 285.72 120.113C286.158 120.926 286.377 122.461 286.377 124.719V132.324H284.408V124.812C284.408 122.961 284.302 121.812 284.092 121.367C283.888 120.914 283.513 120.688 282.967 120.688C282.342 120.688 281.912 120.93 281.677 121.414C281.451 121.891 281.338 123.023 281.338 124.812V132.324H279.369V124.812C279.369 122.938 279.256 121.781 279.029 121.344C278.81 120.906 278.412 120.688 277.834 120.688C277.263 120.688 276.865 120.93 276.638 121.414C276.42 121.891 276.31 123.023 276.31 124.812V132.324H274.353V119.199H276.31V120.324C276.568 119.855 276.888 119.5 277.271 119.258C277.662 119.008 278.103 118.883 278.595 118.883C279.189 118.883 279.681 119.02 280.072 119.293C280.47 119.566 280.779 119.98 280.998 120.535ZM301.288 125.223V126.277H291.948V126.348C291.948 127.777 292.319 128.883 293.062 129.664C293.812 130.445 294.866 130.836 296.226 130.836C296.913 130.836 297.632 130.727 298.382 130.508C299.132 130.289 299.933 129.957 300.784 129.512V131.656C299.964 131.992 299.171 132.242 298.405 132.406C297.647 132.578 296.913 132.664 296.202 132.664C294.163 132.664 292.569 132.055 291.421 130.836C290.272 129.609 289.698 127.922 289.698 125.773C289.698 123.68 290.261 122.008 291.386 120.758C292.511 119.508 294.011 118.883 295.886 118.883C297.558 118.883 298.874 119.449 299.835 120.582C300.804 121.715 301.288 123.262 301.288 125.223ZM299.132 124.59C299.101 123.324 298.8 122.363 298.23 121.707C297.667 121.043 296.855 120.711 295.792 120.711C294.753 120.711 293.897 121.055 293.226 121.742C292.554 122.43 292.155 123.383 292.03 124.602L299.132 124.59ZM320.927 114.828H331.31V116.82H323.295V122H330.959V123.992H323.295V130.332H331.533V132.324H320.927V114.828ZM346.116 124.191V132.324H343.948V124.191C343.948 123.012 343.741 122.145 343.327 121.59C342.913 121.035 342.265 120.758 341.382 120.758C340.374 120.758 339.597 121.117 339.05 121.836C338.511 122.547 338.241 123.57 338.241 124.906V132.324H336.085V119.199H338.241V121.168C338.624 120.418 339.143 119.852 339.8 119.469C340.456 119.078 341.233 118.883 342.132 118.883C343.468 118.883 344.464 119.324 345.12 120.207C345.784 121.082 346.116 122.41 346.116 124.191ZM350.152 119.199H352.391L356.199 130.215L360.02 119.199H362.258L357.594 132.324H354.817L350.152 119.199ZM367.162 119.199H372.681V130.648H376.958V132.324H366.247V130.648H370.525V120.875H367.162V119.199ZM370.525 114.09H372.681V116.82H370.525V114.09ZM392.878 121.906C392.417 121.547 391.948 121.285 391.471 121.121C390.995 120.957 390.471 120.875 389.901 120.875C388.557 120.875 387.53 121.297 386.819 122.141C386.108 122.984 385.753 124.203 385.753 125.797V132.324H383.585V119.199H385.753V121.766C386.112 120.836 386.663 120.125 387.405 119.633C388.155 119.133 389.042 118.883 390.065 118.883C390.596 118.883 391.092 118.949 391.553 119.082C392.014 119.215 392.456 119.422 392.878 119.703V121.906ZM401.742 120.711C400.648 120.711 399.82 121.137 399.258 121.988C398.695 122.84 398.414 124.102 398.414 125.773C398.414 127.438 398.695 128.699 399.258 129.559C399.82 130.41 400.648 130.836 401.742 130.836C402.844 130.836 403.676 130.41 404.238 129.559C404.801 128.699 405.082 127.438 405.082 125.773C405.082 124.102 404.801 122.84 404.238 121.988C403.676 121.137 402.844 120.711 401.742 120.711ZM401.742 118.883C403.562 118.883 404.953 119.473 405.914 120.652C406.883 121.832 407.367 123.539 407.367 125.773C407.367 128.016 406.887 129.727 405.926 130.906C404.965 132.078 403.57 132.664 401.742 132.664C399.922 132.664 398.531 132.078 397.57 130.906C396.609 129.727 396.129 128.016 396.129 125.773C396.129 123.539 396.609 121.832 397.57 120.652C398.531 119.473 399.922 118.883 401.742 118.883ZM422.021 124.191V132.324H419.853V124.191C419.853 123.012 419.646 122.145 419.232 121.59C418.818 121.035 418.169 120.758 417.286 120.758C416.279 120.758 415.501 121.117 414.954 121.836C414.415 122.547 414.146 123.57 414.146 124.906V132.324H411.99V119.199H414.146V121.168C414.529 120.418 415.048 119.852 415.704 119.469C416.361 119.078 417.138 118.883 418.036 118.883C419.372 118.883 420.368 119.324 421.025 120.207C421.689 121.082 422.021 122.41 422.021 124.191ZM432.807 120.535C433.073 119.973 433.409 119.559 433.815 119.293C434.229 119.02 434.725 118.883 435.303 118.883C436.358 118.883 437.1 119.293 437.53 120.113C437.967 120.926 438.186 122.461 438.186 124.719V132.324H436.217V124.812C436.217 122.961 436.112 121.812 435.901 121.367C435.698 120.914 435.323 120.688 434.776 120.688C434.151 120.688 433.721 120.93 433.487 121.414C433.26 121.891 433.147 123.023 433.147 124.812V132.324H431.178V124.812C431.178 122.938 431.065 121.781 430.838 121.344C430.62 120.906 430.221 120.688 429.643 120.688C429.073 120.688 428.674 120.93 428.448 121.414C428.229 121.891 428.12 123.023 428.12 124.812V132.324H426.163V119.199H428.12V120.324C428.378 119.855 428.698 119.5 429.081 119.258C429.471 119.008 429.913 118.883 430.405 118.883C430.999 118.883 431.491 119.02 431.881 119.293C432.28 119.566 432.588 119.98 432.807 120.535ZM453.098 125.223V126.277H443.758V126.348C443.758 127.777 444.129 128.883 444.871 129.664C445.621 130.445 446.676 130.836 448.035 130.836C448.723 130.836 449.441 130.727 450.191 130.508C450.941 130.289 451.742 129.957 452.594 129.512V131.656C451.773 131.992 450.98 132.242 450.215 132.406C449.457 132.578 448.723 132.664 448.012 132.664C445.973 132.664 444.379 132.055 443.23 130.836C442.082 129.609 441.508 127.922 441.508 125.773C441.508 123.68 442.07 122.008 443.195 120.758C444.32 119.508 445.82 118.883 447.695 118.883C449.367 118.883 450.683 119.449 451.644 120.582C452.613 121.715 453.098 123.262 453.098 125.223ZM450.941 124.59C450.91 123.324 450.609 122.363 450.039 121.707C449.476 121.043 448.664 120.711 447.601 120.711C446.562 120.711 445.707 121.055 445.035 121.742C444.363 122.43 443.965 123.383 443.84 124.602L450.941 124.59ZM467.564 124.191V132.324H465.396V124.191C465.396 123.012 465.189 122.145 464.775 121.59C464.36 121.035 463.712 120.758 462.829 120.758C461.821 120.758 461.044 121.117 460.497 121.836C459.958 122.547 459.689 123.57 459.689 124.906V132.324H457.532V119.199H459.689V121.168C460.071 120.418 460.591 119.852 461.247 119.469C461.903 119.078 462.681 118.883 463.579 118.883C464.915 118.883 465.911 119.324 466.568 120.207C467.232 121.082 467.564 122.41 467.564 124.191ZM477.623 115.473V119.199H482.522V120.875H477.623V128C477.623 128.969 477.807 129.645 478.174 130.027C478.541 130.41 479.182 130.602 480.096 130.602H482.522V132.324H479.885C478.268 132.324 477.127 132 476.463 131.352C475.799 130.703 475.467 129.586 475.467 128V120.875H471.963V119.199H475.467V115.473H477.623ZM511.161 114.113C510.122 115.895 509.345 117.672 508.829 119.445C508.321 121.211 508.067 122.992 508.067 124.789C508.067 126.578 508.321 128.359 508.829 130.133C509.345 131.906 510.122 133.691 511.161 135.488H509.286C508.106 133.629 507.228 131.82 506.649 130.062C506.071 128.297 505.782 126.539 505.782 124.789C505.782 123.047 506.071 121.293 506.649 119.527C507.228 117.762 508.106 115.957 509.286 114.113H511.161ZM526.729 125.773C526.729 124.102 526.463 122.84 525.932 121.988C525.401 121.137 524.615 120.711 523.576 120.711C522.53 120.711 521.737 121.141 521.198 122C520.658 122.852 520.389 124.109 520.389 125.773C520.389 127.43 520.658 128.688 521.198 129.547C521.737 130.406 522.53 130.836 523.576 130.836C524.615 130.836 525.401 130.41 525.932 129.559C526.463 128.707 526.729 127.445 526.729 125.773ZM520.389 120.875C520.733 120.234 521.205 119.742 521.807 119.398C522.416 119.055 523.119 118.883 523.916 118.883C525.494 118.883 526.737 119.492 527.643 120.711C528.549 121.922 529.002 123.594 529.002 125.727C529.002 127.891 528.545 129.59 527.631 130.824C526.725 132.051 525.479 132.664 523.893 132.664C523.112 132.664 522.42 132.496 521.819 132.16C521.225 131.816 520.748 131.32 520.389 130.672V132.324H518.233V114.09H520.389V120.875ZM533.437 127.355V119.223H535.593V127.355C535.593 128.535 535.8 129.402 536.214 129.957C536.636 130.512 537.285 130.789 538.16 130.789C539.175 130.789 539.953 130.434 540.492 129.723C541.031 129.004 541.3 127.977 541.3 126.641V119.223H543.468V132.324H541.3V130.355C540.917 131.113 540.394 131.688 539.73 132.078C539.074 132.469 538.304 132.664 537.421 132.664C536.078 132.664 535.078 132.227 534.421 131.352C533.765 130.469 533.437 129.137 533.437 127.355ZM549.333 119.199H554.852V130.648H559.13V132.324H548.419V130.648H552.696V120.875H549.333V119.199ZM552.696 114.09H554.852V116.82H552.696V114.09ZM569.002 127.566C569.002 128.535 569.178 129.266 569.529 129.758C569.889 130.25 570.416 130.496 571.111 130.496H573.631V132.324H570.9C569.611 132.324 568.611 131.91 567.9 131.082C567.197 130.254 566.846 129.082 566.846 127.566V115.648H563.389V113.961H569.002V127.566ZM586.749 120.875V114.09H588.906V132.324H586.749V130.672C586.39 131.32 585.91 131.816 585.308 132.16C584.714 132.496 584.027 132.664 583.245 132.664C581.66 132.664 580.41 132.051 579.495 130.824C578.589 129.59 578.136 127.891 578.136 125.727C578.136 123.594 578.593 121.922 579.507 120.711C580.421 119.492 581.667 118.883 583.245 118.883C584.035 118.883 584.73 119.055 585.331 119.398C585.933 119.734 586.406 120.227 586.749 120.875ZM580.41 125.773C580.41 127.445 580.675 128.707 581.206 129.559C581.738 130.41 582.523 130.836 583.562 130.836C584.601 130.836 585.39 130.406 585.929 129.547C586.476 128.688 586.749 127.43 586.749 125.773C586.749 124.109 586.476 122.852 585.929 122C585.39 121.141 584.601 120.711 583.562 120.711C582.523 120.711 581.738 121.137 581.206 121.988C580.675 122.84 580.41 124.102 580.41 125.773ZM611.428 130.332H619.467V132.324H608.838V130.332C610.299 128.793 611.576 127.434 612.67 126.254C613.764 125.074 614.518 124.242 614.932 123.758C615.713 122.805 616.24 122.035 616.514 121.449C616.787 120.855 616.924 120.25 616.924 119.633C616.924 118.656 616.635 117.891 616.057 117.336C615.486 116.781 614.701 116.504 613.701 116.504C612.99 116.504 612.244 116.633 611.463 116.891C610.682 117.148 609.853 117.539 608.978 118.062V115.672C609.783 115.289 610.572 115 611.346 114.805C612.127 114.609 612.896 114.512 613.654 114.512C615.365 114.512 616.74 114.969 617.779 115.883C618.826 116.789 619.35 117.98 619.35 119.457C619.35 120.207 619.174 120.957 618.822 121.707C618.478 122.457 617.916 123.285 617.135 124.191C616.697 124.699 616.06 125.402 615.225 126.301C614.396 127.199 613.131 128.543 611.428 130.332ZM627.898 123.535C627.898 123.105 628.046 122.734 628.343 122.422C628.648 122.109 629.011 121.953 629.433 121.953C629.87 121.953 630.245 122.109 630.558 122.422C630.87 122.734 631.027 123.105 631.027 123.535C631.027 123.973 630.87 124.344 630.558 124.648C630.253 124.953 629.878 125.105 629.433 125.105C628.995 125.105 628.628 124.957 628.331 124.66C628.042 124.363 627.898 123.988 627.898 123.535ZM629.456 116.387C628.355 116.387 627.53 116.98 626.984 118.168C626.445 119.355 626.175 121.164 626.175 123.594C626.175 126.016 626.445 127.82 626.984 129.008C627.53 130.195 628.355 130.789 629.456 130.789C630.566 130.789 631.39 130.195 631.929 129.008C632.476 127.82 632.749 126.016 632.749 123.594C632.749 121.164 632.476 119.355 631.929 118.168C631.39 116.98 630.566 116.387 629.456 116.387ZM629.456 114.512C631.323 114.512 632.734 115.277 633.687 116.809C634.648 118.34 635.128 120.602 635.128 123.594C635.128 126.578 634.648 128.836 633.687 130.367C632.734 131.898 631.323 132.664 629.456 132.664C627.589 132.664 626.179 131.898 625.226 130.367C624.273 128.836 623.796 126.578 623.796 123.594C623.796 120.602 624.273 118.34 625.226 116.809C626.179 115.277 627.589 114.512 629.456 114.512ZM643.149 128.75H646.102V132.324H643.149V128.75ZM658.26 123.535C658.26 123.105 658.408 122.734 658.705 122.422C659.01 122.109 659.373 121.953 659.795 121.953C660.232 121.953 660.607 122.109 660.92 122.422C661.232 122.734 661.388 123.105 661.388 123.535C661.388 123.973 661.232 124.344 660.92 124.648C660.615 124.953 660.24 125.105 659.795 125.105C659.357 125.105 658.99 124.957 658.693 124.66C658.404 124.363 658.26 123.988 658.26 123.535ZM659.818 116.387C658.717 116.387 657.892 116.98 657.345 118.168C656.806 119.355 656.537 121.164 656.537 123.594C656.537 126.016 656.806 127.82 657.345 129.008C657.892 130.195 658.717 130.789 659.818 130.789C660.927 130.789 661.752 130.195 662.291 129.008C662.838 127.82 663.111 126.016 663.111 123.594C663.111 121.164 662.838 119.355 662.291 118.168C661.752 116.98 660.927 116.387 659.818 116.387ZM659.818 114.512C661.685 114.512 663.095 115.277 664.049 116.809C665.01 118.34 665.49 120.602 665.49 123.594C665.49 126.578 665.01 128.836 664.049 130.367C663.095 131.898 661.685 132.664 659.818 132.664C657.951 132.664 656.541 131.898 655.588 130.367C654.635 128.836 654.158 126.578 654.158 123.594C654.158 120.602 654.635 118.34 655.588 116.809C656.541 115.277 657.951 114.512 659.818 114.512ZM673.511 128.75H676.464V132.324H673.511V128.75ZM686.125 130.332H689.805V116.961L685.844 117.852V115.695L689.782 114.828H692.149V130.332H695.782V132.324H686.125V130.332ZM706.345 118.602V123.805H711.56V125.797H706.345V131H704.377V125.797H699.173V123.805H704.377V118.602H706.345ZM720.307 124.566C721.315 124.566 722.104 124.203 722.675 123.477C723.253 122.75 723.542 121.746 723.542 120.465C723.542 119.184 723.253 118.18 722.675 117.453C722.104 116.727 721.315 116.363 720.307 116.363C719.261 116.363 718.472 116.711 717.94 117.406C717.409 118.094 717.143 119.113 717.143 120.465C717.143 121.824 717.405 122.848 717.929 123.535C718.46 124.223 719.253 124.566 720.307 124.566ZM716.089 131.961V129.781C716.581 130.07 717.104 130.293 717.659 130.449C718.214 130.598 718.792 130.672 719.393 130.672C720.893 130.672 722.026 130.109 722.792 128.984C723.565 127.852 723.952 126.188 723.952 123.992C723.585 124.773 723.069 125.375 722.405 125.797C721.741 126.211 720.979 126.418 720.12 126.418C718.432 126.418 717.124 125.898 716.194 124.859C715.272 123.82 714.811 122.348 714.811 120.441C714.811 118.559 715.284 117.102 716.229 116.07C717.182 115.031 718.526 114.512 720.261 114.512C722.292 114.512 723.78 115.242 724.725 116.703C725.671 118.164 726.143 120.461 726.143 123.594C726.143 126.539 725.573 128.789 724.432 130.344C723.3 131.891 721.651 132.664 719.487 132.664C718.917 132.664 718.343 132.602 717.765 132.477C717.186 132.359 716.628 132.188 716.089 131.961ZM732.676 124.789H738.781V126.711H732.676V124.789ZM748.056 130.332H756.095V132.324H745.466V130.332C746.927 128.793 748.205 127.434 749.298 126.254C750.392 125.074 751.146 124.242 751.56 123.758C752.341 122.805 752.869 122.035 753.142 121.449C753.415 120.855 753.552 120.25 753.552 119.633C753.552 118.656 753.263 117.891 752.685 117.336C752.115 116.781 751.33 116.504 750.33 116.504C749.619 116.504 748.872 116.633 748.091 116.891C747.31 117.148 746.482 117.539 745.607 118.062V115.672C746.412 115.289 747.201 115 747.974 114.805C748.755 114.609 749.525 114.512 750.283 114.512C751.994 114.512 753.369 114.969 754.408 115.883C755.455 116.789 755.978 117.98 755.978 119.457C755.978 120.207 755.802 120.957 755.451 121.707C755.107 122.457 754.544 123.285 753.763 124.191C753.326 124.699 752.689 125.402 751.853 126.301C751.025 127.199 749.759 128.543 748.056 130.332ZM765.85 124.566C766.858 124.566 767.647 124.203 768.218 123.477C768.796 122.75 769.085 121.746 769.085 120.465C769.085 119.184 768.796 118.18 768.218 117.453C767.647 116.727 766.858 116.363 765.85 116.363C764.803 116.363 764.014 116.711 763.483 117.406C762.952 118.094 762.686 119.113 762.686 120.465C762.686 121.824 762.948 122.848 763.471 123.535C764.003 124.223 764.796 124.566 765.85 124.566ZM761.632 131.961V129.781C762.124 130.07 762.647 130.293 763.202 130.449C763.757 130.598 764.335 130.672 764.936 130.672C766.436 130.672 767.569 130.109 768.335 128.984C769.108 127.852 769.495 126.188 769.495 123.992C769.128 124.773 768.612 125.375 767.948 125.797C767.284 126.211 766.522 126.418 765.663 126.418C763.975 126.418 762.667 125.898 761.737 124.859C760.815 123.82 760.354 122.348 760.354 120.441C760.354 118.559 760.827 117.102 761.772 116.07C762.725 115.031 764.069 114.512 765.803 114.512C767.835 114.512 769.323 115.242 770.268 116.703C771.214 118.164 771.686 120.461 771.686 123.594C771.686 126.539 771.116 128.789 769.975 130.344C768.843 131.891 767.194 132.664 765.03 132.664C764.46 132.664 763.885 132.602 763.307 132.477C762.729 132.359 762.171 132.188 761.632 131.961ZM778.125 114.113H780C781.18 115.957 782.059 117.762 782.637 119.527C783.215 121.293 783.504 123.047 783.504 124.789C783.504 126.547 783.215 128.309 782.637 130.074C782.059 131.84 781.18 133.645 780 135.488H778.125C779.164 133.676 779.938 131.883 780.445 130.109C780.961 128.336 781.219 126.562 781.219 124.789C781.219 123.008 780.961 121.23 780.445 119.457C779.938 117.684 779.164 115.902 778.125 114.113Z" fill="black"/>
</svg>
