<svg width="896" height="1844" viewBox="0 0 896 1844" fill="none" xmlns="http://www.w3.org/2000/svg">
<g clip-path="url(#clip0_709_1207)">
<path d="M856 0.824219H40C17.9086 0.824219 0 18.7328 0 40.8242V856.824C0 878.916 17.9086 896.824 40 896.824H856C878.091 896.824 896 878.916 896 856.824V40.8242C896 18.7328 878.091 0.824219 856 0.824219Z" fill="#D3D6D7"/>
<path d="M361.614 623.18C361.614 617.892 365.9 613.605 371.188 613.605C376.476 613.605 380.762 617.892 380.762 623.18V698.178C380.762 703.466 376.476 707.753 371.188 707.753C365.9 707.753 361.614 703.466 361.614 698.178V623.18Z" fill="#A3927F"/>
<path d="M370.59 308.824L425.606 436.481H411.829L447.782 490.735H437.498L472.515 535.415H457.104L493.26 580.095H478.488L524.376 631.157H218L263.739 580.095H248.318L284.356 535.415H269.861L304.467 490.735H294.594L329.989 436.481H316.934L370.59 308.824Z" fill="#8B9569"/>
</g>
<g clip-path="url(#clip1_709_1207)">
<path d="M856 947.824H40C17.9086 947.824 0 965.733 0 987.824V1803.82C0 1825.92 17.9086 1843.82 40 1843.82H856C878.091 1843.82 896 1825.92 896 1803.82V987.824C896 965.733 878.091 947.824 856 947.824Z" fill="black"/>
<path d="M349.614 1570.18C349.614 1564.89 353.9 1560.61 359.188 1560.61C364.476 1560.61 368.762 1564.89 368.762 1570.18V1645.18C368.762 1650.47 364.476 1654.75 359.188 1654.75C353.9 1654.75 349.614 1650.47 349.614 1645.18V1570.18Z" fill="white"/>
<path d="M358.59 1255.82L413.606 1383.48H399.829L435.782 1437.74H425.498L460.515 1482.42H445.104L481.26 1527.1H466.488L512.376 1578.16H206L251.739 1527.1H236.318L272.356 1482.42H257.861L292.467 1437.74H282.594L317.989 1383.48H304.934L358.59 1255.82Z" fill="white"/>
</g>
<defs>
<clipPath id="clip0_709_1207">
<rect width="896" height="897" fill="white"/>
</clipPath>
<clipPath id="clip1_709_1207">
<rect width="896" height="897" fill="white" transform="translate(0 947)"/>
</clipPath>
</defs>
</svg>
