<svg width="353" height="493" viewBox="0 0 353 493" fill="none" xmlns="http://www.w3.org/2000/svg">
<rect y="0.824219" width="353" height="492" fill="#191919"/>
<g clip-path="url(#clip0_439_2963)">
<path fill-rule="evenodd" clip-rule="evenodd" d="M219 47.8242H84V299.824H273V101.824L219 47.8242Z" fill="#F8F9FA"/>
<path fill-rule="evenodd" clip-rule="evenodd" d="M222 50.8242H84V296.824H270V98.8242L273 101.824V296.824V299.824H270H84H81V296.824V50.8242V47.8242H84H219L222 50.8242Z" fill="black" fill-opacity="0.13"/>
<path fill-rule="evenodd" clip-rule="evenodd" d="M87 47.8242H219H270H273V44.8242H270H87H84V47.8242V296.824V299.824H87H270H273V296.824V101.824L270 98.8242V296.824H87V47.8242Z" fill="black" fill-opacity="0.05"/>
<line x1="271.5" y1="299.824" x2="271.5" y2="47.8242" stroke="black" stroke-opacity="0.3" stroke-width="3"/>
<path d="M219 47.8242L273 101.824H219V47.8242Z" fill="#E7E7E7"/>
<path fill-rule="evenodd" clip-rule="evenodd" d="M216 47.8242V104.824H219H273V101.824H219V47.8242H216Z" fill="black" fill-opacity="0.18"/>
<path fill-rule="evenodd" clip-rule="evenodd" d="M219 52.0669V47.8242L219 47.8242L273 101.824H268.757L219 52.0669Z" fill="black" fill-opacity="0.1"/>
<rect x="75" y="161.824" width="204" height="96" fill="#E30012"/>
<line x1="277.5" y1="257.824" x2="277.5" y2="161.824" stroke="black" stroke-opacity="0.35" stroke-width="3"/>
<line x1="76.5" y1="161.824" x2="76.5" y2="257.824" stroke="black" stroke-opacity="0.6" stroke-width="3"/>
<line x1="84" y1="163.324" x2="75" y2="163.324" stroke="black" stroke-opacity="0.4" stroke-width="3"/>
<line x1="75" y1="256.324" x2="84" y2="256.324" stroke="black" stroke-opacity="0.35" stroke-width="3"/>
<line x1="270" y1="256.324" x2="279" y2="256.324" stroke="black" stroke-opacity="0.3" stroke-width="3"/>
<line x1="279" y1="163.324" x2="270" y2="163.324" stroke="black" stroke-opacity="0.3" stroke-width="3"/>
<line x1="270" y1="163.324" x2="84" y2="163.324" stroke="white" stroke-opacity="0.5" stroke-width="3"/>
<line x1="84" y1="256.324" x2="270" y2="256.324" stroke="#960000" stroke-width="3" style="mix-blend-mode:saturation"/>
<line x1="84" y1="256.324" x2="270" y2="256.324" stroke="white" stroke-opacity="0.2" stroke-width="3"/>
<path d="M126.55 204.934H113.916V197.657H126.55C128.617 197.657 130.29 197.32 131.57 196.646C132.873 195.95 133.828 195.006 134.434 193.816C135.041 192.603 135.344 191.222 135.344 189.672C135.344 188.167 135.041 186.763 134.434 185.46C133.828 184.158 132.873 183.102 131.57 182.293C130.29 181.485 128.617 181.081 126.55 181.081H116.948V222.824H107.683V173.77H126.55C130.369 173.77 133.625 174.455 136.321 175.825C139.039 177.172 141.105 179.048 142.52 181.451C143.958 183.832 144.676 186.55 144.676 189.604C144.676 192.771 143.958 195.5 142.52 197.792C141.105 200.083 139.039 201.846 136.321 203.081C133.625 204.316 130.369 204.934 126.55 204.934ZM175.234 222.824H164.655L164.723 215.547H175.234C178.087 215.547 180.479 214.918 182.411 213.66C184.342 212.38 185.802 210.549 186.791 208.168C187.779 205.765 188.273 202.89 188.273 199.543V197.017C188.273 194.434 187.992 192.154 187.431 190.177C186.869 188.201 186.038 186.539 184.938 185.191C183.859 183.843 182.523 182.821 180.928 182.125C179.333 181.429 177.503 181.081 175.437 181.081H164.453V173.77H175.437C178.716 173.77 181.703 174.32 184.398 175.42C187.116 176.521 189.463 178.104 191.44 180.171C193.439 182.215 194.966 184.663 196.022 187.516C197.1 190.368 197.639 193.558 197.639 197.084V199.543C197.639 203.047 197.1 206.237 196.022 209.112C194.966 211.964 193.439 214.413 191.44 216.457C189.463 218.5 187.105 220.073 184.365 221.173C181.625 222.274 178.581 222.824 175.234 222.824ZM169.844 173.77V222.824H160.579V173.77H169.844ZM223.413 173.77V222.824H214.148V173.77H223.413ZM243.19 194.961V202.272H220.987V194.961H243.19ZM245.784 173.77V181.081H220.987V173.77H245.784Z" fill="white"/>
<line x1="102" y1="76.3242" x2="198" y2="76.3242" stroke="black" stroke-opacity="0.1" stroke-width="3"/>
<line x1="102" y1="94.3242" x2="198" y2="94.3242" stroke="black" stroke-opacity="0.1" stroke-width="3"/>
<line x1="102" y1="112.324" x2="252" y2="112.324" stroke="black" stroke-opacity="0.1" stroke-width="3"/>
<line x1="102" y1="130.324" x2="252" y2="130.324" stroke="black" stroke-opacity="0.1" stroke-width="3"/>
<line x1="102" y1="148.324" x2="252" y2="148.324" stroke="black" stroke-opacity="0.1" stroke-width="3"/>
<line x1="102" y1="274.324" x2="252" y2="274.324" stroke="black" stroke-opacity="0.1" stroke-width="3"/>
<line x1="273" y1="259.324" x2="84" y2="259.324" stroke="black" stroke-opacity="0.05" stroke-width="3"/>
</g>
<path d="M57.932 339.781H61.682C61.4867 341.578 60.9724 343.186 60.1391 344.605C59.3057 346.025 58.1273 347.151 56.6039 347.984C55.0805 348.805 53.1794 349.215 50.9008 349.215C49.2341 349.215 47.7172 348.902 46.35 348.277C44.9958 347.652 43.8305 346.767 42.8539 345.621C41.8773 344.462 41.1221 343.076 40.5883 341.461C40.0675 339.833 39.807 338.023 39.807 336.031V333.199C39.807 331.207 40.0675 329.404 40.5883 327.789C41.1221 326.161 41.8839 324.768 42.8734 323.609C43.876 322.451 45.0805 321.559 46.4867 320.934C47.893 320.309 49.475 319.996 51.2328 319.996C53.3813 319.996 55.1977 320.4 56.682 321.207C58.1664 322.014 59.3188 323.134 60.1391 324.566C60.9724 325.986 61.4867 327.633 61.682 329.508H57.932C57.7497 328.18 57.4112 327.04 56.9164 326.09C56.4216 325.126 55.7185 324.384 54.807 323.863C53.8956 323.342 52.7042 323.082 51.2328 323.082C49.9698 323.082 48.8565 323.323 47.893 323.805C46.9425 324.286 46.1417 324.97 45.4906 325.855C44.8526 326.741 44.3708 327.802 44.0453 329.039C43.7198 330.276 43.557 331.65 43.557 333.16V336.031C43.557 337.424 43.7003 338.733 43.9867 339.957C44.2862 341.181 44.7354 342.255 45.3344 343.18C45.9333 344.104 46.6951 344.833 47.6195 345.367C48.544 345.888 49.6378 346.148 50.9008 346.148C52.5023 346.148 53.7784 345.895 54.7289 345.387C55.6794 344.879 56.3956 344.15 56.8773 343.199C57.3721 342.249 57.7237 341.109 57.932 339.781ZM63.5149 338.492V338.043C63.5149 336.52 63.7362 335.107 64.1789 333.805C64.6216 332.49 65.2596 331.35 66.093 330.387C66.9263 329.41 67.9354 328.655 69.1203 328.121C70.3052 327.574 71.6333 327.301 73.1047 327.301C74.5891 327.301 75.9237 327.574 77.1086 328.121C78.3065 328.655 79.3221 329.41 80.1555 330.387C81.0018 331.35 81.6464 332.49 82.0891 333.805C82.5318 335.107 82.7531 336.52 82.7531 338.043V338.492C82.7531 340.016 82.5318 341.428 82.0891 342.73C81.6464 344.033 81.0018 345.172 80.1555 346.148C79.3221 347.112 78.313 347.867 77.1281 348.414C75.9563 348.948 74.6281 349.215 73.1438 349.215C71.6594 349.215 70.3247 348.948 69.1399 348.414C67.955 347.867 66.9393 347.112 66.093 346.148C65.2596 345.172 64.6216 344.033 64.1789 342.73C63.7362 341.428 63.5149 340.016 63.5149 338.492ZM67.1281 338.043V338.492C67.1281 339.547 67.2518 340.543 67.4992 341.48C67.7466 342.405 68.1177 343.225 68.6125 343.941C69.1203 344.658 69.7518 345.224 70.507 345.641C71.2622 346.044 72.1412 346.246 73.1438 346.246C74.1333 346.246 74.9992 346.044 75.7414 345.641C76.4966 345.224 77.1216 344.658 77.6164 343.941C78.1112 343.225 78.4823 342.405 78.7297 341.48C78.9901 340.543 79.1203 339.547 79.1203 338.492V338.043C79.1203 337.001 78.9901 336.018 78.7297 335.094C78.4823 334.156 78.1047 333.329 77.5969 332.613C77.1021 331.884 76.4771 331.311 75.7219 330.895C74.9797 330.478 74.1073 330.27 73.1047 330.27C72.1151 330.27 71.2427 330.478 70.4875 330.895C69.7453 331.311 69.1203 331.884 68.6125 332.613C68.1177 333.329 67.7466 334.156 67.4992 335.094C67.2518 336.018 67.1281 337.001 67.1281 338.043ZM89.4102 318.824V348.824H85.7774V318.824H89.4102ZM92.4539 338.492V338.043C92.4539 336.52 92.6753 335.107 93.118 333.805C93.5607 332.49 94.1987 331.35 95.032 330.387C95.8654 329.41 96.8745 328.655 98.0594 328.121C99.2443 327.574 100.572 327.301 102.044 327.301C103.528 327.301 104.863 327.574 106.048 328.121C107.246 328.655 108.261 329.41 109.095 330.387C109.941 331.35 110.585 332.49 111.028 333.805C111.471 335.107 111.692 336.52 111.692 338.043V338.492C111.692 340.016 111.471 341.428 111.028 342.73C110.585 344.033 109.941 345.172 109.095 346.148C108.261 347.112 107.252 347.867 106.067 348.414C104.895 348.948 103.567 349.215 102.083 349.215C100.598 349.215 99.2638 348.948 98.0789 348.414C96.894 347.867 95.8784 347.112 95.032 346.148C94.1987 345.172 93.5607 344.033 93.118 342.73C92.6753 341.428 92.4539 340.016 92.4539 338.492ZM96.0672 338.043V338.492C96.0672 339.547 96.1909 340.543 96.4383 341.48C96.6857 342.405 97.0568 343.225 97.5516 343.941C98.0594 344.658 98.6909 345.224 99.4461 345.641C100.201 346.044 101.08 346.246 102.083 346.246C103.072 346.246 103.938 346.044 104.68 345.641C105.436 345.224 106.061 344.658 106.555 343.941C107.05 343.225 107.421 342.405 107.669 341.48C107.929 340.543 108.059 339.547 108.059 338.492V338.043C108.059 337.001 107.929 336.018 107.669 335.094C107.421 334.156 107.044 333.329 106.536 332.613C106.041 331.884 105.416 331.311 104.661 330.895C103.919 330.478 103.046 330.27 102.044 330.27C101.054 330.27 100.182 330.478 99.4266 330.895C98.6844 331.311 98.0594 331.884 97.5516 332.613C97.0568 333.329 96.6857 334.156 96.4383 335.094C96.1909 336.018 96.0672 337.001 96.0672 338.043ZM118.037 331.012V348.824H114.423V327.691H117.939L118.037 331.012ZM124.638 327.574L124.619 330.934C124.319 330.868 124.033 330.829 123.759 330.816C123.499 330.79 123.199 330.777 122.861 330.777C122.028 330.777 121.292 330.908 120.654 331.168C120.016 331.428 119.476 331.793 119.033 332.262C118.59 332.73 118.239 333.29 117.978 333.941C117.731 334.579 117.568 335.283 117.49 336.051L116.474 336.637C116.474 335.361 116.598 334.163 116.845 333.043C117.106 331.923 117.503 330.934 118.037 330.074C118.571 329.202 119.248 328.525 120.068 328.043C120.901 327.548 121.891 327.301 123.037 327.301C123.297 327.301 123.597 327.333 123.935 327.398C124.274 327.451 124.508 327.509 124.638 327.574ZM141.881 341.637C141.881 340.973 141.777 340.387 141.569 339.879C141.373 339.358 141.022 338.889 140.514 338.473C140.019 338.056 139.329 337.659 138.444 337.281C137.571 336.904 136.465 336.52 135.123 336.129C133.717 335.712 132.448 335.25 131.315 334.742C130.182 334.221 129.212 333.629 128.405 332.965C127.597 332.301 126.979 331.539 126.549 330.68C126.12 329.82 125.905 328.837 125.905 327.73C125.905 326.624 126.133 325.602 126.588 324.664C127.044 323.727 127.695 322.913 128.541 322.223C129.401 321.52 130.423 320.973 131.608 320.582C132.793 320.191 134.114 319.996 135.573 319.996C137.708 319.996 139.518 320.406 141.002 321.227C142.5 322.034 143.639 323.095 144.42 324.41C145.202 325.712 145.592 327.105 145.592 328.59H141.842C141.842 327.522 141.614 326.578 141.159 325.758C140.703 324.924 140.013 324.273 139.088 323.805C138.164 323.323 136.992 323.082 135.573 323.082C134.232 323.082 133.125 323.284 132.252 323.688C131.38 324.091 130.729 324.638 130.299 325.328C129.883 326.018 129.674 326.806 129.674 327.691C129.674 328.29 129.798 328.837 130.045 329.332C130.306 329.814 130.703 330.263 131.237 330.68C131.784 331.096 132.474 331.48 133.307 331.832C134.153 332.184 135.163 332.522 136.334 332.848C137.949 333.303 139.342 333.811 140.514 334.371C141.686 334.931 142.649 335.562 143.405 336.266C144.173 336.956 144.739 337.743 145.104 338.629C145.482 339.501 145.67 340.491 145.67 341.598C145.67 342.757 145.436 343.805 144.967 344.742C144.498 345.68 143.828 346.48 142.955 347.145C142.083 347.809 141.035 348.323 139.811 348.688C138.6 349.039 137.246 349.215 135.748 349.215C134.433 349.215 133.138 349.033 131.862 348.668C130.599 348.303 129.446 347.757 128.405 347.027C127.376 346.298 126.549 345.4 125.924 344.332C125.312 343.251 125.006 342.001 125.006 340.582H128.756C128.756 341.559 128.945 342.398 129.323 343.102C129.7 343.792 130.215 344.365 130.866 344.82C131.53 345.276 132.278 345.615 133.112 345.836C133.958 346.044 134.837 346.148 135.748 346.148C137.064 346.148 138.177 345.966 139.088 345.602C140 345.237 140.69 344.716 141.159 344.039C141.64 343.362 141.881 342.561 141.881 341.637ZM156.585 346.246C157.445 346.246 158.239 346.07 158.968 345.719C159.697 345.367 160.296 344.885 160.765 344.273C161.234 343.648 161.501 342.939 161.566 342.145H165.003C164.938 343.395 164.515 344.56 163.734 345.641C162.965 346.708 161.956 347.574 160.706 348.238C159.456 348.889 158.083 349.215 156.585 349.215C154.997 349.215 153.61 348.935 152.425 348.375C151.253 347.815 150.277 347.047 149.495 346.07C148.727 345.094 148.148 343.974 147.757 342.711C147.379 341.435 147.191 340.087 147.191 338.668V337.848C147.191 336.428 147.379 335.087 147.757 333.824C148.148 332.548 148.727 331.422 149.495 330.445C150.277 329.469 151.253 328.701 152.425 328.141C153.61 327.581 154.997 327.301 156.585 327.301C158.239 327.301 159.684 327.639 160.921 328.316C162.158 328.98 163.128 329.892 163.831 331.051C164.547 332.197 164.938 333.499 165.003 334.957H161.566C161.501 334.085 161.253 333.297 160.823 332.594C160.407 331.891 159.834 331.331 159.105 330.914C158.389 330.484 157.549 330.27 156.585 330.27C155.478 330.27 154.547 330.491 153.792 330.934C153.05 331.363 152.458 331.949 152.015 332.691C151.585 333.421 151.273 334.234 151.077 335.133C150.895 336.018 150.804 336.923 150.804 337.848V338.668C150.804 339.592 150.895 340.504 151.077 341.402C151.26 342.301 151.566 343.115 151.995 343.844C152.438 344.573 153.03 345.159 153.773 345.602C154.528 346.031 155.465 346.246 156.585 346.246ZM170.879 318.824V348.824H167.266V318.824H170.879ZM170.02 337.457L168.516 337.398C168.529 335.953 168.743 334.618 169.16 333.395C169.577 332.158 170.163 331.083 170.918 330.172C171.673 329.26 172.572 328.557 173.613 328.062C174.668 327.555 175.833 327.301 177.109 327.301C178.151 327.301 179.089 327.444 179.922 327.73C180.755 328.004 181.465 328.447 182.051 329.059C182.65 329.671 183.105 330.465 183.418 331.441C183.73 332.405 183.887 333.583 183.887 334.977V348.824H180.254V334.938C180.254 333.831 180.091 332.945 179.766 332.281C179.44 331.604 178.965 331.116 178.34 330.816C177.715 330.504 176.947 330.348 176.035 330.348C175.137 330.348 174.316 330.536 173.574 330.914C172.845 331.292 172.214 331.812 171.68 332.477C171.159 333.141 170.749 333.902 170.449 334.762C170.163 335.608 170.02 336.507 170.02 337.457ZM196.266 349.215C194.795 349.215 193.46 348.967 192.263 348.473C191.078 347.965 190.055 347.255 189.196 346.344C188.35 345.432 187.699 344.352 187.243 343.102C186.787 341.852 186.559 340.484 186.559 339V338.18C186.559 336.461 186.813 334.931 187.321 333.59C187.829 332.236 188.519 331.09 189.391 330.152C190.264 329.215 191.253 328.505 192.36 328.023C193.467 327.542 194.613 327.301 195.798 327.301C197.308 327.301 198.61 327.561 199.704 328.082C200.811 328.603 201.716 329.332 202.419 330.27C203.122 331.194 203.643 332.288 203.981 333.551C204.32 334.801 204.489 336.168 204.489 337.652V339.273H188.708V336.324H200.876V336.051C200.824 335.113 200.628 334.202 200.29 333.316C199.964 332.431 199.444 331.702 198.727 331.129C198.011 330.556 197.035 330.27 195.798 330.27C194.977 330.27 194.222 330.445 193.532 330.797C192.842 331.135 192.249 331.643 191.755 332.32C191.26 332.997 190.876 333.824 190.602 334.801C190.329 335.777 190.192 336.904 190.192 338.18V339C190.192 340.003 190.329 340.947 190.602 341.832C190.889 342.704 191.299 343.473 191.833 344.137C192.38 344.801 193.037 345.322 193.805 345.699C194.587 346.077 195.472 346.266 196.462 346.266C197.738 346.266 198.819 346.005 199.704 345.484C200.589 344.964 201.364 344.267 202.028 343.395L204.216 345.133C203.76 345.823 203.18 346.48 202.477 347.105C201.774 347.73 200.908 348.238 199.88 348.629C198.864 349.02 197.66 349.215 196.266 349.215ZM210.502 331.891V348.824H206.869V327.691H210.306L210.502 331.891ZM209.759 337.457L208.08 337.398C208.093 335.953 208.282 334.618 208.646 333.395C209.011 332.158 209.551 331.083 210.267 330.172C210.983 329.26 211.875 328.557 212.943 328.062C214.011 327.555 215.248 327.301 216.654 327.301C217.643 327.301 218.555 327.444 219.388 327.73C220.222 328.004 220.944 328.44 221.556 329.039C222.168 329.638 222.643 330.406 222.982 331.344C223.321 332.281 223.49 333.414 223.49 334.742V348.824H219.877V334.918C219.877 333.811 219.688 332.926 219.31 332.262C218.946 331.598 218.425 331.116 217.748 330.816C217.071 330.504 216.276 330.348 215.365 330.348C214.297 330.348 213.405 330.536 212.689 330.914C211.973 331.292 211.4 331.812 210.97 332.477C210.541 333.141 210.228 333.902 210.033 334.762C209.851 335.608 209.759 336.507 209.759 337.457ZM223.451 335.465L221.029 336.207C221.042 335.048 221.231 333.935 221.595 332.867C221.973 331.799 222.513 330.849 223.216 330.016C223.933 329.182 224.811 328.525 225.853 328.043C226.895 327.548 228.086 327.301 229.427 327.301C230.56 327.301 231.563 327.451 232.435 327.75C233.321 328.049 234.063 328.512 234.662 329.137C235.274 329.749 235.736 330.536 236.048 331.5C236.361 332.464 236.517 333.609 236.517 334.938V348.824H232.884V334.898C232.884 333.714 232.696 332.796 232.318 332.145C231.953 331.48 231.433 331.018 230.755 330.758C230.091 330.484 229.297 330.348 228.373 330.348C227.578 330.348 226.875 330.484 226.263 330.758C225.651 331.031 225.137 331.409 224.72 331.891C224.304 332.359 223.985 332.9 223.763 333.512C223.555 334.124 223.451 334.775 223.451 335.465ZM248.955 349.215C247.484 349.215 246.149 348.967 244.952 348.473C243.767 347.965 242.745 347.255 241.885 346.344C241.039 345.432 240.388 344.352 239.932 343.102C239.476 341.852 239.248 340.484 239.248 339V338.18C239.248 336.461 239.502 334.931 240.01 333.59C240.518 332.236 241.208 331.09 242.08 330.152C242.953 329.215 243.942 328.505 245.049 328.023C246.156 327.542 247.302 327.301 248.487 327.301C249.997 327.301 251.299 327.561 252.393 328.082C253.5 328.603 254.405 329.332 255.108 330.27C255.811 331.194 256.332 332.288 256.67 333.551C257.009 334.801 257.178 336.168 257.178 337.652V339.273H241.397V336.324H253.565V336.051C253.513 335.113 253.317 334.202 252.979 333.316C252.653 332.431 252.133 331.702 251.416 331.129C250.7 330.556 249.724 330.27 248.487 330.27C247.666 330.27 246.911 330.445 246.221 330.797C245.531 331.135 244.939 331.643 244.444 332.32C243.949 332.997 243.565 333.824 243.291 334.801C243.018 335.777 242.881 336.904 242.881 338.18V339C242.881 340.003 243.018 340.947 243.291 341.832C243.578 342.704 243.988 343.473 244.522 344.137C245.069 344.801 245.726 345.322 246.495 345.699C247.276 346.077 248.161 346.266 249.151 346.266C250.427 346.266 251.508 346.005 252.393 345.484C253.278 344.964 254.053 344.267 254.717 343.395L256.905 345.133C256.449 345.823 255.87 346.48 255.166 347.105C254.463 347.73 253.597 348.238 252.569 348.629C251.553 349.02 250.349 349.215 248.955 349.215ZM274.831 348.824V351.793H256.921V348.824H274.831ZM280.434 320.387V348.824H276.664V320.387H280.434ZM293.399 346.246C294.259 346.246 295.053 346.07 295.782 345.719C296.511 345.367 297.11 344.885 297.579 344.273C298.048 343.648 298.315 342.939 298.38 342.145H301.817C301.752 343.395 301.329 344.56 300.548 345.641C299.779 346.708 298.77 347.574 297.52 348.238C296.27 348.889 294.897 349.215 293.399 349.215C291.811 349.215 290.424 348.935 289.239 348.375C288.067 347.815 287.091 347.047 286.309 346.07C285.541 345.094 284.962 343.974 284.571 342.711C284.194 341.435 284.005 340.087 284.005 338.668V337.848C284.005 336.428 284.194 335.087 284.571 333.824C284.962 332.548 285.541 331.422 286.309 330.445C287.091 329.469 288.067 328.701 289.239 328.141C290.424 327.581 291.811 327.301 293.399 327.301C295.053 327.301 296.498 327.639 297.735 328.316C298.972 328.98 299.942 329.892 300.645 331.051C301.361 332.197 301.752 333.499 301.817 334.957H298.38C298.315 334.085 298.067 333.297 297.638 332.594C297.221 331.891 296.648 331.331 295.919 330.914C295.203 330.484 294.363 330.27 293.399 330.27C292.292 330.27 291.361 330.491 290.606 330.934C289.864 331.363 289.272 331.949 288.829 332.691C288.399 333.421 288.087 334.234 287.891 335.133C287.709 336.018 287.618 336.923 287.618 337.848V338.668C287.618 339.592 287.709 340.504 287.891 341.402C288.074 342.301 288.38 343.115 288.809 343.844C289.252 344.573 289.845 345.159 290.587 345.602C291.342 346.031 292.279 346.246 293.399 346.246ZM312.849 349.215C311.378 349.215 310.043 348.967 308.845 348.473C307.66 347.965 306.638 347.255 305.779 346.344C304.933 345.432 304.282 344.352 303.826 343.102C303.37 341.852 303.142 340.484 303.142 339V338.18C303.142 336.461 303.396 334.931 303.904 333.59C304.412 332.236 305.102 331.09 305.974 330.152C306.847 329.215 307.836 328.505 308.943 328.023C310.05 327.542 311.196 327.301 312.38 327.301C313.891 327.301 315.193 327.561 316.287 328.082C317.393 328.603 318.298 329.332 319.002 330.27C319.705 331.194 320.226 332.288 320.564 333.551C320.903 334.801 321.072 336.168 321.072 337.652V339.273H305.291V336.324H317.459V336.051C317.407 335.113 317.211 334.202 316.873 333.316C316.547 332.431 316.026 331.702 315.31 331.129C314.594 330.556 313.617 330.27 312.38 330.27C311.56 330.27 310.805 330.445 310.115 330.797C309.425 331.135 308.832 331.643 308.337 332.32C307.843 332.997 307.459 333.824 307.185 334.801C306.912 335.777 306.775 336.904 306.775 338.18V339C306.775 340.003 306.912 340.947 307.185 341.832C307.472 342.704 307.882 343.473 308.416 344.137C308.962 344.801 309.62 345.322 310.388 345.699C311.17 346.077 312.055 346.266 313.045 346.266C314.321 346.266 315.401 346.005 316.287 345.484C317.172 344.964 317.947 344.267 318.611 343.395L320.798 345.133C320.343 345.823 319.763 346.48 319.06 347.105C318.357 347.73 317.491 348.238 316.462 348.629C315.447 349.02 314.242 349.215 312.849 349.215Z" fill="white"/>
<path d="M69.6797 362.824V392.824H66.0469V362.824H69.6797ZM86.1414 389.211V378.332C86.1414 377.499 85.9721 376.776 85.6336 376.164C85.3081 375.539 84.8133 375.057 84.1492 374.719C83.4852 374.38 82.6648 374.211 81.6883 374.211C80.7768 374.211 79.976 374.367 79.2859 374.68C78.6089 374.992 78.075 375.402 77.6844 375.91C77.3068 376.418 77.118 376.965 77.118 377.551H73.5047C73.5047 376.796 73.7 376.047 74.0906 375.305C74.4812 374.562 75.0411 373.892 75.7703 373.293C76.5125 372.681 77.3979 372.199 78.4266 371.848C79.4682 371.483 80.6271 371.301 81.9031 371.301C83.4396 371.301 84.7937 371.561 85.9656 372.082C87.1505 372.603 88.075 373.391 88.7391 374.445C89.4161 375.487 89.7547 376.796 89.7547 378.371V388.215C89.7547 388.918 89.8133 389.667 89.9305 390.461C90.0607 391.255 90.2495 391.939 90.4969 392.512V392.824H86.7273C86.5451 392.408 86.4018 391.854 86.2977 391.164C86.1935 390.461 86.1414 389.81 86.1414 389.211ZM86.7664 380.012L86.8055 382.551H83.1531C82.1245 382.551 81.2065 382.635 80.3992 382.805C79.5919 382.961 78.9148 383.202 78.368 383.527C77.8211 383.853 77.4044 384.263 77.118 384.758C76.8315 385.24 76.6883 385.806 76.6883 386.457C76.6883 387.121 76.838 387.727 77.1375 388.273C77.437 388.82 77.8862 389.257 78.4852 389.582C79.0971 389.895 79.8458 390.051 80.7312 390.051C81.838 390.051 82.8146 389.816 83.6609 389.348C84.5073 388.879 85.1779 388.306 85.6727 387.629C86.1805 386.952 86.4539 386.294 86.493 385.656L88.0359 387.395C87.9448 387.941 87.6974 388.547 87.2937 389.211C86.8901 389.875 86.3497 390.513 85.6727 391.125C85.0086 391.724 84.2143 392.225 83.2898 392.629C82.3784 393.02 81.3497 393.215 80.2039 393.215C78.7716 393.215 77.5151 392.935 76.4344 392.375C75.3667 391.815 74.5333 391.066 73.9344 390.129C73.3484 389.178 73.0555 388.117 73.0555 386.945C73.0555 385.812 73.2768 384.816 73.7195 383.957C74.1622 383.085 74.8003 382.362 75.6336 381.789C76.4669 381.203 77.4695 380.76 78.6414 380.461C79.8133 380.161 81.1219 380.012 82.5672 380.012H86.7664ZM97.2516 376.203V392.824H93.6383V371.691H97.0562L97.2516 376.203ZM96.3922 381.457L94.8883 381.398C94.9013 379.953 95.1161 378.618 95.5328 377.395C95.9495 376.158 96.5354 375.083 97.2906 374.172C98.0458 373.26 98.9443 372.557 99.9859 372.062C101.041 371.555 102.206 371.301 103.482 371.301C104.524 371.301 105.461 371.444 106.295 371.73C107.128 372.004 107.837 372.447 108.423 373.059C109.022 373.671 109.478 374.465 109.791 375.441C110.103 376.405 110.259 377.583 110.259 378.977V392.824H106.627V378.938C106.627 377.831 106.464 376.945 106.138 376.281C105.813 375.604 105.337 375.116 104.712 374.816C104.087 374.504 103.319 374.348 102.408 374.348C101.509 374.348 100.689 374.536 99.9469 374.914C99.2177 375.292 98.5862 375.812 98.0523 376.477C97.5315 377.141 97.1214 377.902 96.8219 378.762C96.5354 379.608 96.3922 380.507 96.3922 381.457ZM127.268 388.723V362.824H130.901V392.824H127.58L127.268 388.723ZM113.049 382.492V382.082C113.049 380.467 113.245 379.003 113.635 377.688C114.039 376.359 114.605 375.22 115.334 374.27C116.077 373.319 116.955 372.59 117.971 372.082C119 371.561 120.146 371.301 121.409 371.301C122.737 371.301 123.896 371.535 124.885 372.004C125.888 372.46 126.734 373.13 127.424 374.016C128.127 374.888 128.681 375.943 129.084 377.18C129.488 378.417 129.768 379.816 129.924 381.379V383.176C129.781 384.725 129.501 386.118 129.084 387.355C128.681 388.592 128.127 389.647 127.424 390.52C126.734 391.392 125.888 392.062 124.885 392.531C123.883 392.987 122.711 393.215 121.37 393.215C120.133 393.215 119 392.948 117.971 392.414C116.955 391.88 116.077 391.132 115.334 390.168C114.605 389.204 114.039 388.072 113.635 386.77C113.245 385.454 113.049 384.029 113.049 382.492ZM116.682 382.082V382.492C116.682 383.547 116.786 384.536 116.995 385.461C117.216 386.385 117.554 387.199 118.01 387.902C118.466 388.605 119.045 389.159 119.748 389.562C120.452 389.953 121.291 390.148 122.268 390.148C123.466 390.148 124.449 389.895 125.217 389.387C125.998 388.879 126.623 388.208 127.092 387.375C127.561 386.542 127.926 385.637 128.186 384.66V379.953C128.03 379.237 127.802 378.547 127.502 377.883C127.216 377.206 126.838 376.607 126.37 376.086C125.914 375.552 125.347 375.129 124.67 374.816C124.006 374.504 123.218 374.348 122.307 374.348C121.317 374.348 120.465 374.556 119.748 374.973C119.045 375.376 118.466 375.936 118.01 376.652C117.554 377.355 117.216 378.176 116.995 379.113C116.786 380.038 116.682 381.027 116.682 382.082ZM142.711 381.457V381.262C142.711 378.423 143.03 375.858 143.668 373.566C144.306 371.262 145.12 369.243 146.109 367.512C147.099 365.78 148.141 364.348 149.234 363.215C150.328 362.069 151.337 361.242 152.262 360.734L153.023 363.117C152.255 363.703 151.474 364.51 150.68 365.539C149.898 366.568 149.176 367.831 148.512 369.328C147.861 370.826 147.333 372.564 146.93 374.543C146.526 376.522 146.324 378.749 146.324 381.223V381.496C146.324 383.97 146.526 386.203 146.93 388.195C147.333 390.174 147.861 391.919 148.512 393.43C149.176 394.94 149.898 396.223 150.68 397.277C151.474 398.345 152.255 399.191 153.023 399.816L152.262 402.004C151.337 401.496 150.328 400.669 149.234 399.523C148.141 398.391 147.099 396.958 146.109 395.227C145.12 393.508 144.306 391.496 143.668 389.191C143.03 386.887 142.711 384.309 142.711 381.457ZM154.739 362.824H158.372V388.723L158.059 392.824H154.739V362.824ZM172.649 382.082V382.492C172.649 384.029 172.467 385.454 172.102 386.77C171.738 388.072 171.204 389.204 170.501 390.168C169.798 391.132 168.938 391.88 167.923 392.414C166.907 392.948 165.742 393.215 164.427 393.215C163.085 393.215 161.907 392.987 160.891 392.531C159.889 392.062 159.042 391.392 158.352 390.52C157.662 389.647 157.109 388.592 156.692 387.355C156.289 386.118 156.009 384.725 155.852 383.176V381.379C156.009 379.816 156.289 378.417 156.692 377.18C157.109 375.943 157.662 374.888 158.352 374.016C159.042 373.13 159.889 372.46 160.891 372.004C161.894 371.535 163.059 371.301 164.387 371.301C165.716 371.301 166.894 371.561 167.923 372.082C168.951 372.59 169.811 373.319 170.501 374.27C171.204 375.22 171.738 376.359 172.102 377.688C172.467 379.003 172.649 380.467 172.649 382.082ZM169.016 382.492V382.082C169.016 381.027 168.919 380.038 168.723 379.113C168.528 378.176 168.216 377.355 167.786 376.652C167.356 375.936 166.79 375.376 166.087 374.973C165.384 374.556 164.518 374.348 163.489 374.348C162.578 374.348 161.783 374.504 161.106 374.816C160.442 375.129 159.876 375.552 159.407 376.086C158.938 376.607 158.554 377.206 158.255 377.883C157.968 378.547 157.753 379.237 157.61 379.953V384.66C157.818 385.572 158.157 386.451 158.626 387.297C159.108 388.13 159.746 388.814 160.54 389.348C161.347 389.882 162.343 390.148 163.528 390.148C164.505 390.148 165.338 389.953 166.028 389.562C166.731 389.159 167.298 388.605 167.727 387.902C168.17 387.199 168.496 386.385 168.704 385.461C168.912 384.536 169.016 383.547 169.016 382.492ZM181.123 390.637L187.002 371.691H190.869L182.392 396.086C182.197 396.607 181.936 397.167 181.611 397.766C181.298 398.378 180.895 398.957 180.4 399.504C179.905 400.051 179.306 400.493 178.603 400.832C177.913 401.184 177.086 401.359 176.123 401.359C175.836 401.359 175.472 401.32 175.029 401.242C174.586 401.164 174.274 401.099 174.091 401.047L174.072 398.117C174.176 398.13 174.339 398.143 174.56 398.156C174.795 398.182 174.957 398.195 175.048 398.195C175.869 398.195 176.565 398.085 177.138 397.863C177.711 397.655 178.193 397.297 178.584 396.789C178.987 396.294 179.332 395.611 179.619 394.738L181.123 390.637ZM176.806 371.691L182.295 388.098L183.232 391.906L180.634 393.234L172.861 371.691H176.806ZM212.933 384.523V364.387H216.683V384.523C216.683 386.398 216.299 387.98 215.53 389.27C214.762 390.559 213.701 391.542 212.347 392.219C211.006 392.883 209.463 393.215 207.718 393.215C205.973 393.215 204.424 392.915 203.07 392.316C201.715 391.717 200.654 390.806 199.886 389.582C199.118 388.358 198.734 386.815 198.734 384.953H202.503C202.503 386.151 202.724 387.134 203.167 387.902C203.61 388.671 204.222 389.237 205.003 389.602C205.797 389.966 206.702 390.148 207.718 390.148C208.708 390.148 209.593 389.94 210.374 389.523C211.168 389.094 211.793 388.462 212.249 387.629C212.705 386.783 212.933 385.747 212.933 384.523ZM219.766 382.492V382.043C219.766 380.52 219.987 379.107 220.43 377.805C220.872 376.49 221.51 375.35 222.344 374.387C223.177 373.41 224.186 372.655 225.371 372.121C226.556 371.574 227.884 371.301 229.355 371.301C230.84 371.301 232.174 371.574 233.359 372.121C234.557 372.655 235.573 373.41 236.406 374.387C237.253 375.35 237.897 376.49 238.34 377.805C238.783 379.107 239.004 380.52 239.004 382.043V382.492C239.004 384.016 238.783 385.428 238.34 386.73C237.897 388.033 237.253 389.172 236.406 390.148C235.573 391.112 234.564 391.867 233.379 392.414C232.207 392.948 230.879 393.215 229.395 393.215C227.91 393.215 226.576 392.948 225.391 392.414C224.206 391.867 223.19 391.112 222.344 390.148C221.51 389.172 220.872 388.033 220.43 386.73C219.987 385.428 219.766 384.016 219.766 382.492ZM223.379 382.043V382.492C223.379 383.547 223.503 384.543 223.75 385.48C223.997 386.405 224.368 387.225 224.863 387.941C225.371 388.658 226.003 389.224 226.758 389.641C227.513 390.044 228.392 390.246 229.395 390.246C230.384 390.246 231.25 390.044 231.992 389.641C232.747 389.224 233.372 388.658 233.867 387.941C234.362 387.225 234.733 386.405 234.98 385.48C235.241 384.543 235.371 383.547 235.371 382.492V382.043C235.371 381.001 235.241 380.018 234.98 379.094C234.733 378.156 234.355 377.329 233.848 376.613C233.353 375.884 232.728 375.311 231.973 374.895C231.23 374.478 230.358 374.27 229.355 374.27C228.366 374.27 227.493 374.478 226.738 374.895C225.996 375.311 225.371 375.884 224.863 376.613C224.368 377.329 223.997 378.156 223.75 379.094C223.503 380.018 223.379 381.001 223.379 382.043ZM245.348 376.203V392.824H241.735V371.691H245.153L245.348 376.203ZM244.489 381.457L242.985 381.398C242.998 379.953 243.213 378.618 243.63 377.395C244.046 376.158 244.632 375.083 245.387 374.172C246.143 373.26 247.041 372.557 248.083 372.062C249.137 371.555 250.303 371.301 251.579 371.301C252.621 371.301 253.558 371.444 254.391 371.73C255.225 372.004 255.934 372.447 256.52 373.059C257.119 373.671 257.575 374.465 257.887 375.441C258.2 376.405 258.356 377.583 258.356 378.977V392.824H254.723V378.938C254.723 377.831 254.561 376.945 254.235 376.281C253.91 375.604 253.434 375.116 252.809 374.816C252.184 374.504 251.416 374.348 250.505 374.348C249.606 374.348 248.786 374.536 248.044 374.914C247.315 375.292 246.683 375.812 246.149 376.477C245.628 377.141 245.218 377.902 244.919 378.762C244.632 379.608 244.489 380.507 244.489 381.457ZM265.658 376.203V392.824H262.045V371.691H265.462L265.658 376.203ZM264.798 381.457L263.295 381.398C263.308 379.953 263.522 378.618 263.939 377.395C264.356 376.158 264.942 375.083 265.697 374.172C266.452 373.26 267.351 372.557 268.392 372.062C269.447 371.555 270.612 371.301 271.888 371.301C272.93 371.301 273.867 371.444 274.701 371.73C275.534 372.004 276.244 372.447 276.83 373.059C277.429 373.671 277.884 374.465 278.197 375.441C278.509 376.405 278.666 377.583 278.666 378.977V392.824H275.033V378.938C275.033 377.831 274.87 376.945 274.545 376.281C274.219 375.604 273.744 375.116 273.119 374.816C272.494 374.504 271.726 374.348 270.814 374.348C269.916 374.348 269.095 374.536 268.353 374.914C267.624 375.292 266.992 375.812 266.459 376.477C265.938 377.141 265.528 377.902 265.228 378.762C264.942 379.608 264.798 380.507 264.798 381.457ZM288.291 390.637L294.17 371.691H298.038L289.561 396.086C289.366 396.607 289.105 397.167 288.78 397.766C288.467 398.378 288.064 398.957 287.569 399.504C287.074 400.051 286.475 400.493 285.772 400.832C285.082 401.184 284.255 401.359 283.291 401.359C283.005 401.359 282.64 401.32 282.198 401.242C281.755 401.164 281.442 401.099 281.26 401.047L281.241 398.117C281.345 398.13 281.508 398.143 281.729 398.156C281.963 398.182 282.126 398.195 282.217 398.195C283.038 398.195 283.734 398.085 284.307 397.863C284.88 397.655 285.362 397.297 285.752 396.789C286.156 396.294 286.501 395.611 286.788 394.738L288.291 390.637ZM283.975 371.691L289.463 388.098L290.401 391.906L287.803 393.234L280.03 371.691H283.975Z" fill="white"/>
<path d="M120.828 412.906L111.414 438.824H107.566L118.406 410.387H120.887L120.828 412.906ZM128.719 438.824L119.285 412.906L119.227 410.387H121.707L132.586 438.824H128.719ZM128.23 428.297V431.383H112.254V428.297H128.23ZM147.343 433.941V417.691H150.976V438.824H147.519L147.343 433.941ZM148.027 429.488L149.53 429.449C149.53 430.855 149.381 432.158 149.081 433.355C148.795 434.54 148.326 435.569 147.675 436.441C147.024 437.314 146.171 437.997 145.116 438.492C144.062 438.974 142.779 439.215 141.269 439.215C140.24 439.215 139.296 439.065 138.437 438.766C137.59 438.466 136.861 438.004 136.249 437.379C135.637 436.754 135.162 435.94 134.823 434.938C134.498 433.935 134.335 432.73 134.335 431.324V417.691H137.948V431.363C137.948 432.314 138.053 433.102 138.261 433.727C138.482 434.339 138.775 434.827 139.14 435.191C139.517 435.543 139.934 435.79 140.39 435.934C140.859 436.077 141.34 436.148 141.835 436.148C143.372 436.148 144.589 435.855 145.487 435.27C146.386 434.671 147.03 433.87 147.421 432.867C147.825 431.852 148.027 430.725 148.027 429.488ZM158.897 408.824V438.824H155.284V408.824H158.897ZM158.037 427.457L156.534 427.398C156.547 425.953 156.761 424.618 157.178 423.395C157.595 422.158 158.181 421.083 158.936 420.172C159.691 419.26 160.59 418.557 161.631 418.062C162.686 417.555 163.851 417.301 165.127 417.301C166.169 417.301 167.107 417.444 167.94 417.73C168.773 418.004 169.483 418.447 170.069 419.059C170.668 419.671 171.123 420.465 171.436 421.441C171.748 422.405 171.905 423.583 171.905 424.977V438.824H168.272V424.938C168.272 423.831 168.109 422.945 167.784 422.281C167.458 421.604 166.983 421.116 166.358 420.816C165.733 420.504 164.965 420.348 164.053 420.348C163.155 420.348 162.334 420.536 161.592 420.914C160.863 421.292 160.232 421.812 159.698 422.477C159.177 423.141 158.767 423.902 158.467 424.762C158.181 425.608 158.037 426.507 158.037 427.457ZM184.435 427.262V427.457C184.435 430.309 184.116 432.887 183.478 435.191C182.84 437.496 182.026 439.508 181.037 441.227C180.047 442.958 179.005 444.391 177.912 445.523C176.818 446.669 175.809 447.496 174.884 448.004L174.123 445.816C174.891 445.23 175.666 444.41 176.447 443.355C177.228 442.314 177.951 441.025 178.615 439.488C179.279 437.965 179.813 436.207 180.216 434.215C180.62 432.21 180.822 429.97 180.822 427.496V427.223C180.822 424.749 180.607 422.516 180.177 420.523C179.748 418.518 179.188 416.754 178.498 415.23C177.821 413.707 177.091 412.424 176.31 411.383C175.542 410.328 174.813 409.514 174.123 408.941L174.884 406.734C175.809 407.242 176.818 408.069 177.912 409.215C179.005 410.348 180.047 411.78 181.037 413.512C182.026 415.243 182.84 417.262 183.478 419.566C184.116 421.858 184.435 424.423 184.435 427.262ZM188.919 436.91C188.919 436.298 189.108 435.784 189.485 435.367C189.876 434.938 190.436 434.723 191.165 434.723C191.894 434.723 192.447 434.938 192.825 435.367C193.216 435.784 193.411 436.298 193.411 436.91C193.411 437.509 193.216 438.017 192.825 438.434C192.447 438.85 191.894 439.059 191.165 439.059C190.436 439.059 189.876 438.85 189.485 438.434C189.108 438.017 188.919 437.509 188.919 436.91ZM201.82 421.754V446.949H198.188V417.691H201.508L201.82 421.754ZM216.059 428.082V428.492C216.059 430.029 215.876 431.454 215.512 432.77C215.147 434.072 214.613 435.204 213.91 436.168C213.22 437.132 212.367 437.88 211.352 438.414C210.336 438.948 209.171 439.215 207.855 439.215C206.514 439.215 205.329 438.993 204.301 438.551C203.272 438.108 202.4 437.464 201.684 436.617C200.967 435.771 200.395 434.755 199.965 433.57C199.548 432.385 199.262 431.051 199.105 429.566V427.379C199.262 425.816 199.555 424.417 199.984 423.18C200.414 421.943 200.98 420.888 201.684 420.016C202.4 419.13 203.266 418.46 204.281 418.004C205.297 417.535 206.469 417.301 207.797 417.301C209.125 417.301 210.303 417.561 211.332 418.082C212.361 418.59 213.227 419.319 213.93 420.27C214.633 421.22 215.16 422.359 215.512 423.688C215.876 425.003 216.059 426.467 216.059 428.082ZM212.426 428.492V428.082C212.426 427.027 212.315 426.038 212.094 425.113C211.872 424.176 211.527 423.355 211.059 422.652C210.603 421.936 210.017 421.376 209.301 420.973C208.585 420.556 207.732 420.348 206.742 420.348C205.831 420.348 205.036 420.504 204.359 420.816C203.695 421.129 203.129 421.552 202.66 422.086C202.191 422.607 201.807 423.206 201.508 423.883C201.221 424.547 201.007 425.237 200.863 425.953V431.012C201.124 431.923 201.488 432.783 201.957 433.59C202.426 434.384 203.051 435.029 203.832 435.523C204.613 436.005 205.596 436.246 206.781 436.246C207.758 436.246 208.598 436.044 209.301 435.641C210.017 435.224 210.603 434.658 211.059 433.941C211.527 433.225 211.872 432.405 212.094 431.48C212.315 430.543 212.426 429.547 212.426 428.492ZM232.788 434.723V408.824H236.421V438.824H233.101L232.788 434.723ZM218.57 428.492V428.082C218.57 426.467 218.765 425.003 219.155 423.688C219.559 422.359 220.126 421.22 220.855 420.27C221.597 419.319 222.476 418.59 223.491 418.082C224.52 417.561 225.666 417.301 226.929 417.301C228.257 417.301 229.416 417.535 230.405 418.004C231.408 418.46 232.254 419.13 232.945 420.016C233.648 420.888 234.201 421.943 234.605 423.18C235.008 424.417 235.288 425.816 235.445 427.379V429.176C235.301 430.725 235.021 432.118 234.605 433.355C234.201 434.592 233.648 435.647 232.945 436.52C232.254 437.392 231.408 438.062 230.405 438.531C229.403 438.987 228.231 439.215 226.89 439.215C225.653 439.215 224.52 438.948 223.491 438.414C222.476 437.88 221.597 437.132 220.855 436.168C220.126 435.204 219.559 434.072 219.155 432.77C218.765 431.454 218.57 430.029 218.57 428.492ZM222.202 428.082V428.492C222.202 429.547 222.307 430.536 222.515 431.461C222.736 432.385 223.075 433.199 223.53 433.902C223.986 434.605 224.566 435.159 225.269 435.562C225.972 435.953 226.812 436.148 227.788 436.148C228.986 436.148 229.969 435.895 230.738 435.387C231.519 434.879 232.144 434.208 232.613 433.375C233.081 432.542 233.446 431.637 233.706 430.66V425.953C233.55 425.237 233.322 424.547 233.023 423.883C232.736 423.206 232.359 422.607 231.89 422.086C231.434 421.552 230.868 421.129 230.191 420.816C229.527 420.504 228.739 420.348 227.827 420.348C226.838 420.348 225.985 420.556 225.269 420.973C224.566 421.376 223.986 421.936 223.53 422.652C223.075 423.355 222.736 424.176 222.515 425.113C222.307 426.038 222.202 427.027 222.202 428.082ZM246.237 438.824H242.623V415.465C242.623 413.941 242.897 412.659 243.444 411.617C244.004 410.562 244.804 409.768 245.846 409.234C246.888 408.688 248.125 408.414 249.557 408.414C249.974 408.414 250.39 408.44 250.807 408.492C251.237 408.544 251.653 408.622 252.057 408.727L251.862 411.676C251.588 411.611 251.276 411.565 250.924 411.539C250.586 411.513 250.247 411.5 249.909 411.5C249.14 411.5 248.476 411.656 247.916 411.969C247.37 412.268 246.953 412.711 246.666 413.297C246.38 413.883 246.237 414.605 246.237 415.465V438.824ZM250.729 417.691V420.465H239.284V417.691H250.729Z" fill="white"/>
<defs>
<clipPath id="clip0_439_2963">
<rect width="204" height="252" fill="white" transform="translate(75 47.8242)"/>
</clipPath>
</defs>
</svg>
