<svg width="1076" height="230" viewBox="0 0 1076 230" fill="none" xmlns="http://www.w3.org/2000/svg">
<rect x="2" y="2" width="1072" height="226" rx="6" fill="#F4F4F4"/>
<rect x="2" y="2" width="1072" height="226" rx="6" stroke="#D3D6D7" stroke-width="4"/>
<rect x="2" y="2" width="1072" height="226" rx="6" stroke="black" stroke-opacity="0.2" stroke-width="4"/>
<path d="M62.176 52.288C60.3627 52.288 58.7413 52.0533 57.312 51.584C55.8827 51.1147 54.6347 50.4427 53.568 49.568L54.528 47.456C55.2747 48.0107 56.0213 48.48 56.768 48.864C57.536 49.2267 58.3573 49.504 59.232 49.696C60.1067 49.8667 61.088 49.952 62.176 49.952C64.0747 49.952 65.4827 49.6 66.4 48.896C67.3173 48.192 67.776 47.2533 67.776 46.08C67.776 45.0773 67.456 44.3093 66.816 43.776C66.176 43.2427 65.056 42.816 63.456 42.496L60.096 41.824C58.0267 41.3973 56.48 40.704 55.456 39.744C54.4533 38.784 53.952 37.4827 53.952 35.84C53.952 34.496 54.2933 33.3227 54.976 32.32C55.68 31.3173 56.6613 30.5387 57.92 29.984C59.1787 29.4293 60.64 29.152 62.304 29.152C63.904 29.152 65.3653 29.3973 66.688 29.888C68.0107 30.3573 69.1413 31.0507 70.08 31.968L69.152 34.016C68.1493 33.12 67.0933 32.48 65.984 32.096C64.896 31.6907 63.6587 31.488 62.272 31.488C60.5227 31.488 59.136 31.872 58.112 32.64C57.1093 33.3867 56.608 34.4107 56.608 35.712C56.608 36.7573 56.928 37.5787 57.568 38.176C58.208 38.752 59.264 39.1893 60.736 39.488L64.128 40.16C66.304 40.608 67.904 41.28 68.928 42.176C69.952 43.072 70.464 44.3307 70.464 45.952C70.464 47.1893 70.1227 48.288 69.44 49.248C68.7787 50.208 67.8293 50.9547 66.592 51.488C65.3547 52.0213 63.8827 52.288 62.176 52.288ZM81.6015 52.288C79.0842 52.288 77.1002 51.5627 75.6495 50.112C74.1988 48.64 73.4735 46.6027 73.4735 44C73.4735 42.3147 73.7935 40.8533 74.4335 39.616C75.0735 38.3573 75.9695 37.3867 77.1215 36.704C78.2735 36 79.5962 35.648 81.0895 35.648C82.5615 35.648 83.7988 35.9573 84.8015 36.576C85.8042 37.1947 86.5722 38.08 87.1055 39.232C87.6388 40.3627 87.9055 41.7067 87.9055 43.264V44.224H75.4575V42.592H86.2095L85.6655 43.008C85.6655 41.3013 85.2815 39.968 84.5135 39.008C83.7455 38.048 82.6042 37.568 81.0895 37.568C79.4895 37.568 78.2415 38.1333 77.3455 39.264C76.4495 40.3733 76.0015 41.8773 76.0015 43.776V44.064C76.0015 46.0693 76.4922 47.5947 77.4735 48.64C78.4762 49.664 79.8735 50.176 81.6655 50.176C82.6255 50.176 83.5215 50.0373 84.3535 49.76C85.2068 49.4613 86.0175 48.9813 86.7855 48.32L87.6815 50.144C86.9775 50.8267 86.0815 51.36 84.9935 51.744C83.9268 52.1067 82.7962 52.288 81.6015 52.288ZM91.8718 52V28.448H94.4638V52H91.8718ZM106.633 52.288C104.115 52.288 102.131 51.5627 100.681 50.112C99.2301 48.64 98.5048 46.6027 98.5048 44C98.5048 42.3147 98.8248 40.8533 99.4648 39.616C100.105 38.3573 101.001 37.3867 102.153 36.704C103.305 36 104.627 35.648 106.121 35.648C107.593 35.648 108.83 35.9573 109.833 36.576C110.835 37.1947 111.603 38.08 112.137 39.232C112.67 40.3627 112.937 41.7067 112.937 43.264V44.224H100.489V42.592H111.241L110.697 43.008C110.697 41.3013 110.313 39.968 109.545 39.008C108.777 38.048 107.635 37.568 106.121 37.568C104.521 37.568 103.273 38.1333 102.377 39.264C101.481 40.3733 101.033 41.8773 101.033 43.776V44.064C101.033 46.0693 101.523 47.5947 102.505 48.64C103.507 49.664 104.905 50.176 106.697 50.176C107.657 50.176 108.553 50.0373 109.385 49.76C110.238 49.4613 111.049 48.9813 111.817 48.32L112.713 50.144C112.009 50.8267 111.113 51.36 110.025 51.744C108.958 52.1067 107.827 52.288 106.633 52.288ZM123.655 52.288C122.076 52.288 120.7 51.9467 119.527 51.264C118.375 50.5813 117.479 49.6107 116.839 48.352C116.22 47.0933 115.911 45.6 115.911 43.872C115.911 42.1227 116.231 40.64 116.871 39.424C117.511 38.1867 118.407 37.248 119.559 36.608C120.732 35.968 122.098 35.648 123.655 35.648C124.679 35.648 125.671 35.8293 126.631 36.192C127.612 36.5547 128.423 37.0667 129.063 37.728L128.135 39.584C127.495 38.9653 126.791 38.5067 126.023 38.208C125.276 37.9093 124.54 37.76 123.815 37.76C122.151 37.76 120.86 38.2827 119.943 39.328C119.026 40.3733 118.567 41.8987 118.567 43.904C118.567 45.888 119.026 47.424 119.943 48.512C120.86 49.6 122.151 50.144 123.815 50.144C124.519 50.144 125.244 50.0053 125.991 49.728C126.759 49.4507 127.474 48.992 128.135 48.352L129.063 50.176C128.402 50.8587 127.58 51.3813 126.599 51.744C125.618 52.1067 124.636 52.288 123.655 52.288ZM138.443 52.288C136.864 52.288 135.659 51.84 134.827 50.944C133.995 50.0267 133.579 48.6507 133.579 46.816V37.952H130.443V35.936H133.579V31.552L136.171 30.816V35.936H140.779V37.952H136.171V46.528C136.171 47.808 136.384 48.7253 136.811 49.28C137.259 49.8133 137.92 50.08 138.795 50.08C139.2 50.08 139.563 50.048 139.883 49.984C140.203 49.8987 140.491 49.8027 140.747 49.696V51.872C140.448 52 140.085 52.096 139.659 52.16C139.253 52.2453 138.848 52.288 138.443 52.288ZM159.03 52.288C157.451 52.288 156.075 51.9467 154.902 51.264C153.75 50.5813 152.854 49.6107 152.214 48.352C151.595 47.0933 151.286 45.6 151.286 43.872C151.286 42.1227 151.606 40.64 152.246 39.424C152.886 38.1867 153.782 37.248 154.934 36.608C156.107 35.968 157.473 35.648 159.03 35.648C160.054 35.648 161.046 35.8293 162.006 36.192C162.987 36.5547 163.798 37.0667 164.438 37.728L163.51 39.584C162.87 38.9653 162.166 38.5067 161.398 38.208C160.651 37.9093 159.915 37.76 159.19 37.76C157.526 37.76 156.235 38.2827 155.318 39.328C154.401 40.3733 153.942 41.8987 153.942 43.904C153.942 45.888 154.401 47.424 155.318 48.512C156.235 49.6 157.526 50.144 159.19 50.144C159.894 50.144 160.619 50.0053 161.366 49.728C162.134 49.4507 162.849 48.992 163.51 48.352L164.438 50.176C163.777 50.8587 162.955 51.3813 161.974 51.744C160.993 52.1067 160.011 52.288 159.03 52.288ZM174.401 52.288C172.865 52.288 171.521 51.9573 170.369 51.296C169.239 50.6133 168.364 49.6533 167.745 48.416C167.127 47.1573 166.817 45.6747 166.817 43.968C166.817 42.24 167.127 40.7573 167.745 39.52C168.364 38.2827 169.239 37.3333 170.369 36.672C171.521 35.9893 172.865 35.648 174.401 35.648C175.959 35.648 177.303 35.9893 178.433 36.672C179.585 37.3333 180.471 38.2827 181.089 39.52C181.729 40.7573 182.049 42.24 182.049 43.968C182.049 45.6747 181.729 47.1573 181.089 48.416C180.471 49.6533 179.585 50.6133 178.433 51.296C177.303 51.9573 175.959 52.288 174.401 52.288ZM174.401 50.176C175.937 50.176 177.153 49.6533 178.049 48.608C178.945 47.5413 179.393 45.9947 179.393 43.968C179.393 41.92 178.935 40.3733 178.017 39.328C177.121 38.2613 175.916 37.728 174.401 37.728C172.887 37.728 171.681 38.2613 170.785 39.328C169.889 40.3733 169.441 41.92 169.441 43.968C169.441 45.9947 169.889 47.5413 170.785 48.608C171.681 49.6533 172.887 50.176 174.401 50.176ZM186.091 52V28.448H188.683V52H186.091ZM200.308 52.288C198.772 52.288 197.428 51.9573 196.276 51.296C195.145 50.6133 194.27 49.6533 193.652 48.416C193.033 47.1573 192.724 45.6747 192.724 43.968C192.724 42.24 193.033 40.7573 193.652 39.52C194.27 38.2827 195.145 37.3333 196.276 36.672C197.428 35.9893 198.772 35.648 200.308 35.648C201.865 35.648 203.209 35.9893 204.34 36.672C205.492 37.3333 206.377 38.2827 206.996 39.52C207.636 40.7573 207.956 42.24 207.956 43.968C207.956 45.6747 207.636 47.1573 206.996 48.416C206.377 49.6533 205.492 50.6133 204.34 51.296C203.209 51.9573 201.865 52.288 200.308 52.288ZM200.308 50.176C201.844 50.176 203.06 49.6533 203.956 48.608C204.852 47.5413 205.3 45.9947 205.3 43.968C205.3 41.92 204.841 40.3733 203.924 39.328C203.028 38.2613 201.822 37.728 200.308 37.728C198.793 37.728 197.588 38.2613 196.692 39.328C195.796 40.3733 195.348 41.92 195.348 43.968C195.348 45.9947 195.796 47.5413 196.692 48.608C197.588 49.6533 198.793 50.176 200.308 50.176ZM211.933 52V39.808C211.933 39.168 211.911 38.5173 211.869 37.856C211.847 37.1947 211.805 36.5547 211.741 35.936H214.237L214.557 39.84L214.109 39.872C214.322 38.912 214.695 38.1227 215.229 37.504C215.762 36.8853 216.391 36.4267 217.117 36.128C217.842 35.808 218.599 35.648 219.389 35.648C219.709 35.648 219.986 35.6587 220.221 35.68C220.477 35.7013 220.711 35.7547 220.925 35.84L220.893 38.144C220.573 38.0373 220.274 37.9733 219.997 37.952C219.741 37.9093 219.442 37.888 219.101 37.888C218.162 37.888 217.341 38.112 216.637 38.56C215.954 39.008 215.431 39.584 215.069 40.288C214.727 40.992 214.557 41.7387 214.557 42.528V52H211.933ZM231.966 52V28.448H234.558V39.488H234.141C234.59 38.2293 235.336 37.28 236.382 36.64C237.448 35.9787 238.675 35.648 240.062 35.648C241.982 35.648 243.411 36.1707 244.35 37.216C245.288 38.24 245.758 39.7973 245.758 41.888V52H243.166V42.048C243.166 40.5547 242.867 39.4667 242.27 38.784C241.694 38.1013 240.755 37.76 239.454 37.76C237.96 37.76 236.766 38.2187 235.87 39.136C234.995 40.0533 234.558 41.2587 234.558 42.752V52H231.966ZM256.828 52.288C255.398 52.288 254.15 51.9573 253.084 51.296C252.017 50.6133 251.185 49.6533 250.588 48.416C250.012 47.1787 249.724 45.696 249.724 43.968C249.724 42.2187 250.012 40.7253 250.588 39.488C251.185 38.2507 252.017 37.3013 253.084 36.64C254.15 35.9787 255.398 35.648 256.828 35.648C258.278 35.648 259.526 36.0213 260.572 36.768C261.638 37.4933 262.342 38.4853 262.684 39.744H262.3L262.652 35.936H265.148C265.084 36.5547 265.02 37.184 264.956 37.824C264.913 38.4427 264.892 39.0507 264.892 39.648V52H262.3V48.224H262.652C262.31 49.4827 261.606 50.4747 260.54 51.2C259.473 51.9253 258.236 52.288 256.828 52.288ZM257.34 50.176C258.876 50.176 260.092 49.6533 260.988 48.608C261.884 47.5413 262.332 45.9947 262.332 43.968C262.332 41.92 261.884 40.3733 260.988 39.328C260.092 38.2613 258.876 37.728 257.34 37.728C255.825 37.728 254.609 38.2613 253.692 39.328C252.796 40.3733 252.348 41.92 252.348 43.968C252.348 45.9947 252.796 47.5413 253.692 48.608C254.609 49.6533 255.825 50.176 257.34 50.176ZM269.839 52V39.808C269.839 39.168 269.818 38.5173 269.775 37.856C269.754 37.1947 269.711 36.5547 269.647 35.936H272.143L272.463 39.84L272.015 39.872C272.228 38.912 272.602 38.1227 273.135 37.504C273.668 36.8853 274.298 36.4267 275.023 36.128C275.748 35.808 276.506 35.648 277.295 35.648C277.615 35.648 277.892 35.6587 278.127 35.68C278.383 35.7013 278.618 35.7547 278.831 35.84L278.799 38.144C278.479 38.0373 278.18 37.9733 277.903 37.952C277.647 37.9093 277.348 37.888 277.007 37.888C276.068 37.888 275.247 38.112 274.543 38.56C273.86 39.008 273.338 39.584 272.975 40.288C272.634 40.992 272.463 41.7387 272.463 42.528V52H269.839ZM281.528 52V39.648C281.528 39.0507 281.496 38.4427 281.432 37.824C281.389 37.184 281.336 36.5547 281.272 35.936H283.768L284.088 39.456H283.704C284.131 38.24 284.803 37.3013 285.72 36.64C286.659 35.9787 287.789 35.648 289.112 35.648C290.456 35.648 291.544 35.968 292.376 36.608C293.229 37.248 293.805 38.24 294.104 39.584H293.624C294.029 38.368 294.744 37.408 295.768 36.704C296.792 36 297.987 35.648 299.352 35.648C301.123 35.648 302.456 36.16 303.352 37.184C304.248 38.1867 304.696 39.776 304.696 41.952V52H302.104V42.112C302.104 40.5973 301.837 39.4987 301.304 38.816C300.771 38.112 299.917 37.76 298.744 37.76C297.4 37.76 296.333 38.2293 295.544 39.168C294.776 40.0853 294.392 41.3227 294.392 42.88V52H291.8V42.112C291.8 40.5973 291.533 39.4987 291 38.816C290.467 38.112 289.613 37.76 288.44 37.76C287.096 37.76 286.04 38.2293 285.272 39.168C284.504 40.0853 284.12 41.3227 284.12 42.88V52H281.528ZM316.214 52.288C314.678 52.288 313.334 51.9573 312.182 51.296C311.051 50.6133 310.176 49.6533 309.558 48.416C308.939 47.1573 308.63 45.6747 308.63 43.968C308.63 42.24 308.939 40.7573 309.558 39.52C310.176 38.2827 311.051 37.3333 312.182 36.672C313.334 35.9893 314.678 35.648 316.214 35.648C317.771 35.648 319.115 35.9893 320.246 36.672C321.398 37.3333 322.283 38.2827 322.902 39.52C323.542 40.7573 323.862 42.24 323.862 43.968C323.862 45.6747 323.542 47.1573 322.902 48.416C322.283 49.6533 321.398 50.6133 320.246 51.296C319.115 51.9573 317.771 52.288 316.214 52.288ZM316.214 50.176C317.75 50.176 318.966 49.6533 319.862 48.608C320.758 47.5413 321.206 45.9947 321.206 43.968C321.206 41.92 320.747 40.3733 319.83 39.328C318.934 38.2613 317.728 37.728 316.214 37.728C314.699 37.728 313.494 38.2613 312.598 39.328C311.702 40.3733 311.254 41.92 311.254 43.968C311.254 45.9947 311.702 47.5413 312.598 48.608C313.494 49.6533 314.699 50.176 316.214 50.176ZM327.903 52V39.648C327.903 39.0507 327.871 38.4427 327.807 37.824C327.764 37.184 327.711 36.5547 327.647 35.936H330.143L330.463 39.456H330.079C330.548 38.2187 331.295 37.28 332.319 36.64C333.364 35.9787 334.57 35.648 335.935 35.648C337.834 35.648 339.263 36.16 340.223 37.184C341.204 38.1867 341.695 39.776 341.695 41.952V52H339.103V42.112C339.103 40.5973 338.794 39.4987 338.175 38.816C337.578 38.112 336.639 37.76 335.359 37.76C333.866 37.76 332.682 38.2187 331.807 39.136C330.932 40.0533 330.495 41.28 330.495 42.816V52H327.903ZM346.653 52V35.936H349.245V52H346.653ZM346.333 32.288V29.376H349.533V32.288H346.333ZM361.03 52.288C359.451 52.288 358.075 51.9467 356.902 51.264C355.75 50.5813 354.854 49.6107 354.214 48.352C353.595 47.0933 353.286 45.6 353.286 43.872C353.286 42.1227 353.606 40.64 354.246 39.424C354.886 38.1867 355.782 37.248 356.934 36.608C358.107 35.968 359.473 35.648 361.03 35.648C362.054 35.648 363.046 35.8293 364.006 36.192C364.987 36.5547 365.798 37.0667 366.438 37.728L365.51 39.584C364.87 38.9653 364.166 38.5067 363.398 38.208C362.651 37.9093 361.915 37.76 361.19 37.76C359.526 37.76 358.235 38.2827 357.318 39.328C356.401 40.3733 355.942 41.8987 355.942 43.904C355.942 45.888 356.401 47.424 357.318 48.512C358.235 49.6 359.526 50.144 361.19 50.144C361.894 50.144 362.619 50.0053 363.366 49.728C364.134 49.4507 364.849 48.992 365.51 48.352L366.438 50.176C365.777 50.8587 364.955 51.3813 363.974 51.744C362.993 52.1067 362.011 52.288 361.03 52.288ZM375.466 52.288C374.186 52.288 372.991 52.1173 371.882 51.776C370.772 51.4133 369.855 50.912 369.13 50.272L370.026 48.448C370.815 49.0667 371.668 49.5253 372.586 49.824C373.524 50.1227 374.495 50.272 375.498 50.272C376.778 50.272 377.738 50.048 378.378 49.6C379.039 49.1307 379.37 48.4907 379.37 47.68C379.37 47.0613 379.156 46.5707 378.73 46.208C378.324 45.824 377.652 45.5253 376.714 45.312L373.738 44.704C372.372 44.4053 371.348 43.904 370.666 43.2C369.983 42.4747 369.642 41.5573 369.642 40.448C369.642 39.5093 369.887 38.688 370.378 37.984C370.868 37.2587 371.583 36.6933 372.522 36.288C373.46 35.8613 374.559 35.648 375.818 35.648C376.991 35.648 378.068 35.8293 379.05 36.192C380.052 36.5333 380.884 37.0347 381.546 37.696L380.618 39.488C379.978 38.8693 379.242 38.4107 378.41 38.112C377.599 37.792 376.756 37.632 375.882 37.632C374.623 37.632 373.674 37.888 373.034 38.4C372.415 38.8907 372.106 39.5413 372.106 40.352C372.106 40.9707 372.298 41.4827 372.682 41.888C373.087 42.272 373.706 42.56 374.538 42.752L377.514 43.36C378.964 43.68 380.042 44.1813 380.746 44.864C381.471 45.5253 381.834 46.4213 381.834 47.552C381.834 48.512 381.567 49.3547 381.034 50.08C380.5 50.784 379.754 51.328 378.794 51.712C377.855 52.096 376.746 52.288 375.466 52.288Z" fill="black"/>
<path d="M1018.5 30.5L1001 46.5L985.5 30.5" stroke="#D3D6D7" stroke-width="4"/>
<path d="M1018.5 30.5L1001 46.5L985.5 30.5" stroke="black" stroke-opacity="0.2" stroke-width="4"/>
<rect x="46" y="93" width="92" height="92" rx="8" fill="#515B48"/>
<path fill-rule="evenodd" clip-rule="evenodd" d="M85 118.863C85 115.072 88.134 112 92 112C95.866 112 99 115.072 99 118.863C99 122.136 96.6622 124.874 93.5342 125.56L93.5342 150.44C96.6622 151.126 99 153.864 99 157.137C99 160.928 95.866 164 92 164C88.134 164 85 160.928 85 157.137C85 153.864 87.3378 151.126 90.4658 150.44L90.4658 125.56C87.3378 124.874 85 122.136 85 118.863ZM92 115.008C89.8286 115.008 88.0684 116.734 88.0684 118.863C88.0684 120.991 89.8286 122.717 92 122.717C94.1714 122.717 95.9316 120.991 95.9316 118.863C95.9316 116.734 94.1714 115.008 92 115.008ZM88.0684 157.137C88.0684 155.009 89.8286 153.283 92 153.283C94.1714 153.283 95.9316 155.009 95.9316 157.137C95.9316 159.266 94.1714 160.992 92 160.992C89.8286 160.992 88.0684 159.266 88.0684 157.137Z" fill="#D3D6D7"/>
<rect x="222" y="93" width="92" height="92" rx="8" fill="#515B48"/>
<path fill-rule="evenodd" clip-rule="evenodd" d="M268 112C263.582 112 260 115.553 260 119.935C260 123.72 262.672 126.886 266.246 127.679L266.246 134.321C262.672 135.114 260 138.28 260 142.065C260 146.447 263.582 150 268 150C272.418 150 276 146.447 276 142.065C276 138.279 273.328 135.113 269.753 134.32V127.68C273.328 126.887 276 123.721 276 119.935C276 115.553 272.418 112 268 112ZM263.507 119.935C263.507 117.474 265.518 115.478 268 115.478C270.482 115.478 272.493 117.474 272.493 119.935C272.493 122.397 270.482 124.392 268 124.392C265.518 124.392 263.507 122.397 263.507 119.935ZM268 137.608C265.518 137.608 263.507 139.603 263.507 142.065C263.507 144.526 265.518 146.522 268 146.522C270.482 146.522 272.493 144.526 272.493 142.065C272.493 139.603 270.482 137.608 268 137.608Z" fill="#D3D6D7"/>
<rect x="400" y="95" width="88" height="88" rx="6" stroke="#D3D6D7" stroke-width="4"/>
<rect x="400" y="95" width="88" height="88" rx="6" stroke="black" stroke-opacity="0.2" stroke-width="4"/>
<path fill-rule="evenodd" clip-rule="evenodd" d="M419.4 121.981C422.599 118.825 427.787 118.825 430.987 121.981C433.75 124.707 434.127 128.896 432.117 132.021L442.183 141.952V127.97C438.522 127.163 435.786 123.938 435.786 120.083C435.786 115.619 439.454 112 443.979 112C448.504 112 452.172 115.619 452.172 120.083C452.172 123.938 449.436 127.163 445.774 127.97L445.774 141.994L455.883 132.021C453.873 128.896 454.25 124.707 457.013 121.981C460.213 118.825 465.401 118.825 468.6 121.981C471.8 125.137 471.8 130.255 468.6 133.411C465.837 136.138 461.591 136.509 458.423 134.526L445.336 147.437C445.187 147.583 445.02 147.699 444.84 147.783C444.585 147.921 444.291 148 443.979 148C443.472 148 443.013 147.793 442.687 147.459C442.679 147.452 442.672 147.444 442.664 147.437L429.577 134.526C426.409 136.509 422.163 136.138 419.4 133.412C416.2 130.255 416.2 125.137 419.4 121.981ZM428.447 124.486C426.65 122.713 423.736 122.713 421.939 124.486C420.142 126.259 420.142 129.133 421.939 130.906C423.736 132.679 426.65 132.679 428.447 130.906C430.244 129.133 430.244 126.259 428.447 124.486ZM439.377 120.083C439.377 117.575 441.437 115.543 443.979 115.543C446.52 115.543 448.581 117.575 448.581 120.083C448.581 122.59 446.52 124.622 443.979 124.622C441.437 124.622 439.377 122.59 439.377 120.083ZM459.553 124.486C461.35 122.713 464.264 122.713 466.061 124.486C467.858 126.259 467.858 129.133 466.061 130.906C464.264 132.679 461.35 132.679 459.553 130.906C457.756 129.133 457.756 126.259 459.553 124.486Z" fill="#D3D6D7"/>
<path fill-rule="evenodd" clip-rule="evenodd" d="M419.4 121.981C422.599 118.825 427.787 118.825 430.987 121.981C433.75 124.707 434.127 128.896 432.117 132.021L442.183 141.952V127.97C438.522 127.163 435.786 123.938 435.786 120.083C435.786 115.619 439.454 112 443.979 112C448.504 112 452.172 115.619 452.172 120.083C452.172 123.938 449.436 127.163 445.774 127.97L445.774 141.994L455.883 132.021C453.873 128.896 454.25 124.707 457.013 121.981C460.213 118.825 465.401 118.825 468.6 121.981C471.8 125.137 471.8 130.255 468.6 133.411C465.837 136.138 461.591 136.509 458.423 134.526L445.336 147.437C445.187 147.583 445.02 147.699 444.84 147.783C444.585 147.921 444.291 148 443.979 148C443.472 148 443.013 147.793 442.687 147.459C442.679 147.452 442.672 147.444 442.664 147.437L429.577 134.526C426.409 136.509 422.163 136.138 419.4 133.412C416.2 130.255 416.2 125.137 419.4 121.981ZM428.447 124.486C426.65 122.713 423.736 122.713 421.939 124.486C420.142 126.259 420.142 129.133 421.939 130.906C423.736 132.679 426.65 132.679 428.447 130.906C430.244 129.133 430.244 126.259 428.447 124.486ZM439.377 120.083C439.377 117.575 441.437 115.543 443.979 115.543C446.52 115.543 448.581 117.575 448.581 120.083C448.581 122.59 446.52 124.622 443.979 124.622C441.437 124.622 439.377 122.59 439.377 120.083ZM459.553 124.486C461.35 122.713 464.264 122.713 466.061 124.486C467.858 126.259 467.858 129.133 466.061 130.906C464.264 132.679 461.35 132.679 459.553 130.906C457.756 129.133 457.756 126.259 459.553 124.486Z" fill="black" fill-opacity="0.2"/>
<rect x="576" y="95" width="88" height="88" rx="6" stroke="#D3D6D7" stroke-width="4"/>
<rect x="576" y="95" width="88" height="88" rx="6" stroke="black" stroke-opacity="0.2" stroke-width="4"/>
<path fill-rule="evenodd" clip-rule="evenodd" d="M620 112C616.079 112 612.901 115.232 612.901 119.218C612.901 121.989 614.437 124.396 616.69 125.606L610.319 149.564C607.792 149.487 605.305 150.789 603.952 153.171C601.992 156.624 603.155 161.038 606.551 163.032C609.946 165.025 614.288 163.842 616.249 160.39C616.624 159.728 616.885 159.031 617.038 158.322H622.962C623.115 159.031 623.376 159.728 623.751 160.39C625.712 163.842 630.054 165.025 633.449 163.032C636.845 161.038 638.008 156.624 636.048 153.171C634.695 150.789 632.209 149.488 629.682 149.564L623.311 125.605C625.564 124.395 627.099 121.989 627.099 119.218C627.099 115.232 623.921 112 620 112ZM616.013 119.218C616.013 116.979 617.798 115.164 620 115.164C622.202 115.164 623.988 116.979 623.988 119.218C623.988 121.457 622.202 123.272 620 123.272C617.798 123.272 616.013 121.457 616.013 119.218ZM619.695 126.43C619.796 126.434 619.898 126.436 620 126.436C620.103 126.436 620.205 126.434 620.306 126.43L626.668 150.353C626.561 150.409 626.455 150.468 626.35 150.529C624.575 151.572 623.409 153.276 622.982 155.158H617.018C616.591 153.276 615.425 151.572 613.65 150.529C613.545 150.468 613.439 150.409 613.333 150.354L619.695 126.43ZM633.353 154.753C634.454 156.693 633.8 159.172 631.893 160.292C629.986 161.411 627.547 160.747 626.446 158.808C625.345 156.869 625.999 154.389 627.906 153.27C629.813 152.15 632.252 152.814 633.353 154.753ZM608.107 160.292C610.014 161.411 612.453 160.747 613.554 158.808C614.655 156.869 614.001 154.389 612.094 153.27C610.187 152.15 607.748 152.814 606.647 154.753C605.546 156.693 606.2 159.172 608.107 160.292Z" fill="#D3D6D7"/>
<path fill-rule="evenodd" clip-rule="evenodd" d="M620 112C616.079 112 612.901 115.232 612.901 119.218C612.901 121.989 614.437 124.396 616.69 125.606L610.319 149.564C607.792 149.487 605.305 150.789 603.952 153.171C601.992 156.624 603.155 161.038 606.551 163.032C609.946 165.025 614.288 163.842 616.249 160.39C616.624 159.728 616.885 159.031 617.038 158.322H622.962C623.115 159.031 623.376 159.728 623.751 160.39C625.712 163.842 630.054 165.025 633.449 163.032C636.845 161.038 638.008 156.624 636.048 153.171C634.695 150.789 632.209 149.488 629.682 149.564L623.311 125.605C625.564 124.395 627.099 121.989 627.099 119.218C627.099 115.232 623.921 112 620 112ZM616.013 119.218C616.013 116.979 617.798 115.164 620 115.164C622.202 115.164 623.988 116.979 623.988 119.218C623.988 121.457 622.202 123.272 620 123.272C617.798 123.272 616.013 121.457 616.013 119.218ZM619.695 126.43C619.796 126.434 619.898 126.436 620 126.436C620.103 126.436 620.205 126.434 620.306 126.43L626.668 150.353C626.561 150.409 626.455 150.468 626.35 150.529C624.575 151.572 623.409 153.276 622.982 155.158H617.018C616.591 153.276 615.425 151.572 613.65 150.529C613.545 150.468 613.439 150.409 613.333 150.354L619.695 126.43ZM633.353 154.753C634.454 156.693 633.8 159.172 631.893 160.292C629.986 161.411 627.547 160.747 626.446 158.808C625.345 156.869 625.999 154.389 627.906 153.27C629.813 152.15 632.252 152.814 633.353 154.753ZM608.107 160.292C610.014 161.411 612.453 160.747 613.554 158.808C614.655 156.869 614.001 154.389 612.094 153.27C610.187 152.15 607.748 152.814 606.647 154.753C605.546 156.693 606.2 159.172 608.107 160.292Z" fill="black" fill-opacity="0.2"/>
<rect x="752" y="95" width="88" height="88" rx="6" stroke="#D3D6D7" stroke-width="4"/>
<rect x="752" y="95" width="88" height="88" rx="6" stroke="black" stroke-opacity="0.2" stroke-width="4"/>
<path fill-rule="evenodd" clip-rule="evenodd" d="M795.949 112C791.589 112 788.054 115.472 788.054 119.754C788.054 122.016 789.04 124.052 790.613 125.469L779.277 144.851C777.239 144.218 774.946 144.396 772.949 145.529C769.173 147.67 767.879 152.413 770.059 156.121C772.239 159.83 777.067 161.101 780.844 158.96C782.821 157.838 784.118 156.003 784.591 153.977H807.409C807.882 156.003 809.179 157.838 811.156 158.96C814.933 161.101 819.761 159.83 821.941 156.122C824.121 152.413 822.827 147.67 819.051 145.529C817.066 144.403 814.789 144.22 812.759 144.84L801.311 125.446C802.869 124.029 803.844 122.004 803.844 119.754C803.844 115.472 800.309 112 795.949 112ZM791.515 119.754C791.515 117.349 793.5 115.399 795.949 115.399C798.398 115.399 800.383 117.349 800.383 119.754C800.383 122.16 798.398 124.11 795.949 124.11C793.5 124.11 791.515 122.16 791.515 119.754ZM798.319 127.153C797.571 127.384 796.775 127.509 795.949 127.509C795.136 127.509 794.352 127.388 793.613 127.164L782.269 146.56C782.832 147.074 783.328 147.679 783.733 148.367C784.149 149.075 784.439 149.82 784.609 150.578H807.391C807.561 149.82 807.851 149.075 808.267 148.367C808.678 147.667 809.184 147.054 809.759 146.534L798.319 127.153ZM817.321 148.473C819.442 149.675 820.168 152.339 818.944 154.422C817.72 156.505 815.008 157.219 812.887 156.016C810.766 154.814 810.039 152.15 811.264 150.067C812.488 147.984 815.2 147.27 817.321 148.473ZM773.056 154.422C774.28 156.505 776.992 157.219 779.113 156.016C781.234 154.813 781.961 152.15 780.736 150.067C779.512 147.984 776.8 147.27 774.679 148.473C772.558 149.675 771.832 152.339 773.056 154.422Z" fill="#D3D6D7"/>
<path fill-rule="evenodd" clip-rule="evenodd" d="M795.949 112C791.589 112 788.054 115.472 788.054 119.754C788.054 122.016 789.04 124.052 790.613 125.469L779.277 144.851C777.239 144.218 774.946 144.396 772.949 145.529C769.173 147.67 767.879 152.413 770.059 156.121C772.239 159.83 777.067 161.101 780.844 158.96C782.821 157.838 784.118 156.003 784.591 153.977H807.409C807.882 156.003 809.179 157.838 811.156 158.96C814.933 161.101 819.761 159.83 821.941 156.122C824.121 152.413 822.827 147.67 819.051 145.529C817.066 144.403 814.789 144.22 812.759 144.84L801.311 125.446C802.869 124.029 803.844 122.004 803.844 119.754C803.844 115.472 800.309 112 795.949 112ZM791.515 119.754C791.515 117.349 793.5 115.399 795.949 115.399C798.398 115.399 800.383 117.349 800.383 119.754C800.383 122.16 798.398 124.11 795.949 124.11C793.5 124.11 791.515 122.16 791.515 119.754ZM798.319 127.153C797.571 127.384 796.775 127.509 795.949 127.509C795.136 127.509 794.352 127.388 793.613 127.164L782.269 146.56C782.832 147.074 783.328 147.679 783.733 148.367C784.149 149.075 784.439 149.82 784.609 150.578H807.391C807.561 149.82 807.851 149.075 808.267 148.367C808.678 147.667 809.184 147.054 809.759 146.534L798.319 127.153ZM817.321 148.473C819.442 149.675 820.168 152.339 818.944 154.422C817.72 156.505 815.008 157.219 812.887 156.016C810.766 154.814 810.039 152.15 811.264 150.067C812.488 147.984 815.2 147.27 817.321 148.473ZM773.056 154.422C774.28 156.505 776.992 157.219 779.113 156.016C781.234 154.813 781.961 152.15 780.736 150.067C779.512 147.984 776.8 147.27 774.679 148.473C772.558 149.675 771.832 152.339 773.056 154.422Z" fill="black" fill-opacity="0.2"/>
<rect x="928" y="95" width="88" height="88" rx="6" stroke="#D3D6D7" stroke-width="4"/>
<rect x="928" y="95" width="88" height="88" rx="6" stroke="black" stroke-opacity="0.2" stroke-width="4"/>
<path fill-rule="evenodd" clip-rule="evenodd" d="M946 120.078C946 115.617 949.617 112 954.078 112C957.896 112 961.096 114.649 961.939 118.21H982.061C982.904 114.649 986.104 112 989.922 112C994.383 112 998 115.617 998 120.078C998 123.896 995.351 127.096 991.79 127.939V148.061C995.351 148.904 998 152.104 998 155.922C998 160.383 994.383 164 989.922 164C986.103 164 982.904 161.35 982.061 157.789H961.939C961.096 161.35 957.897 164 954.078 164C949.617 164 946 160.383 946 155.922C946 152.103 948.65 148.904 952.211 148.061L952.211 127.939C948.65 127.096 946 123.897 946 120.078ZM954.078 115.735C951.679 115.735 949.735 117.679 949.735 120.078C949.735 122.477 951.679 124.421 954.078 124.421C956.477 124.421 958.421 122.477 958.421 120.078C958.421 117.679 956.477 115.735 954.078 115.735ZM955.945 127.939L955.945 148.061C958.907 148.762 961.238 151.093 961.939 154.055H982.061C982.762 151.093 985.093 148.762 988.055 148.061V127.939C985.093 127.238 982.762 124.907 982.061 121.945H961.939C961.238 124.907 958.907 127.238 955.945 127.939ZM989.922 115.735C987.523 115.735 985.579 117.679 985.579 120.078C985.579 122.477 987.523 124.421 989.922 124.421C992.321 124.421 994.265 122.477 994.265 120.078C994.265 117.679 992.321 115.735 989.922 115.735ZM985.579 155.922C985.579 153.523 987.523 151.579 989.922 151.579C992.321 151.579 994.265 153.523 994.265 155.922C994.265 158.321 992.321 160.265 989.922 160.265C987.523 160.265 985.579 158.321 985.579 155.922ZM954.078 151.579C951.679 151.579 949.735 153.523 949.735 155.922C949.735 158.321 951.679 160.265 954.078 160.265C956.477 160.265 958.421 158.321 958.421 155.922C958.421 153.523 956.477 151.579 954.078 151.579Z" fill="#D3D6D7"/>
<path fill-rule="evenodd" clip-rule="evenodd" d="M946 120.078C946 115.617 949.617 112 954.078 112C957.896 112 961.096 114.649 961.939 118.21H982.061C982.904 114.649 986.104 112 989.922 112C994.383 112 998 115.617 998 120.078C998 123.896 995.351 127.096 991.79 127.939V148.061C995.351 148.904 998 152.104 998 155.922C998 160.383 994.383 164 989.922 164C986.103 164 982.904 161.35 982.061 157.789H961.939C961.096 161.35 957.897 164 954.078 164C949.617 164 946 160.383 946 155.922C946 152.103 948.65 148.904 952.211 148.061L952.211 127.939C948.65 127.096 946 123.897 946 120.078ZM954.078 115.735C951.679 115.735 949.735 117.679 949.735 120.078C949.735 122.477 951.679 124.421 954.078 124.421C956.477 124.421 958.421 122.477 958.421 120.078C958.421 117.679 956.477 115.735 954.078 115.735ZM955.945 127.939L955.945 148.061C958.907 148.762 961.238 151.093 961.939 154.055H982.061C982.762 151.093 985.093 148.762 988.055 148.061V127.939C985.093 127.238 982.762 124.907 982.061 121.945H961.939C961.238 124.907 958.907 127.238 955.945 127.939ZM989.922 115.735C987.523 115.735 985.579 117.679 985.579 120.078C985.579 122.477 987.523 124.421 989.922 124.421C992.321 124.421 994.265 122.477 994.265 120.078C994.265 117.679 992.321 115.735 989.922 115.735ZM985.579 155.922C985.579 153.523 987.523 151.579 989.922 151.579C992.321 151.579 994.265 153.523 994.265 155.922C994.265 158.321 992.321 160.265 989.922 160.265C987.523 160.265 985.579 158.321 985.579 155.922ZM954.078 151.579C951.679 151.579 949.735 153.523 949.735 155.922C949.735 158.321 951.679 160.265 954.078 160.265C956.477 160.265 958.421 158.321 958.421 155.922C958.421 153.523 956.477 151.579 954.078 151.579Z" fill="black" fill-opacity="0.2"/>
</svg>
