<svg width="600" height="380" viewBox="0 0 600 380" fill="none" xmlns="http://www.w3.org/2000/svg">
<rect width="600" height="380" rx="11" fill="#F4F4F4"/>
<path fill-rule="evenodd" clip-rule="evenodd" d="M6 4C6 1.79086 7.79086 0 10 0H28C30.2091 0 32 1.79086 32 4C32 6.20914 30.2091 8 28 8H10C7.79086 8 6 6.20914 6 4Z" fill="#D3D6D7"/>
<path fill-rule="evenodd" clip-rule="evenodd" d="M6 4C6 1.79086 7.79086 0 10 0H28C30.2091 0 32 1.79086 32 4C32 6.20914 30.2091 8 28 8H10C7.79086 8 6 6.20914 6 4Z" fill="black" fill-opacity="0.2"/>
<path fill-rule="evenodd" clip-rule="evenodd" d="M48 4C48 1.79086 49.7909 0 52 0H70C72.2091 0 74 1.79086 74 4C74 6.20914 72.2091 8 70 8H52C49.7909 8 48 6.20914 48 4Z" fill="#D3D6D7"/>
<path fill-rule="evenodd" clip-rule="evenodd" d="M48 4C48 1.79086 49.7909 0 52 0H70C72.2091 0 74 1.79086 74 4C74 6.20914 72.2091 8 70 8H52C49.7909 8 48 6.20914 48 4Z" fill="black" fill-opacity="0.2"/>
<path fill-rule="evenodd" clip-rule="evenodd" d="M90 4C90 1.79086 91.7909 0 94 0H112C114.209 0 116 1.79086 116 4C116 6.20914 114.209 8 112 8H94C91.7909 8 90 6.20914 90 4Z" fill="#D3D6D7"/>
<path fill-rule="evenodd" clip-rule="evenodd" d="M90 4C90 1.79086 91.7909 0 94 0H112C114.209 0 116 1.79086 116 4C116 6.20914 114.209 8 112 8H94C91.7909 8 90 6.20914 90 4Z" fill="black" fill-opacity="0.2"/>
<path fill-rule="evenodd" clip-rule="evenodd" d="M132 4C132 1.79086 133.791 0 136 0H154C156.209 0 158 1.79086 158 4C158 6.20914 156.209 8 154 8H136C133.791 8 132 6.20914 132 4Z" fill="#D3D6D7"/>
<path fill-rule="evenodd" clip-rule="evenodd" d="M132 4C132 1.79086 133.791 0 136 0H154C156.209 0 158 1.79086 158 4C158 6.20914 156.209 8 154 8H136C133.791 8 132 6.20914 132 4Z" fill="black" fill-opacity="0.2"/>
<path fill-rule="evenodd" clip-rule="evenodd" d="M174 4C174 1.79086 175.791 0 178 0H196C198.209 0 200 1.79086 200 4C200 6.20914 198.209 8 196 8H178C175.791 8 174 6.20914 174 4Z" fill="#D3D6D7"/>
<path fill-rule="evenodd" clip-rule="evenodd" d="M174 4C174 1.79086 175.791 0 178 0H196C198.209 0 200 1.79086 200 4C200 6.20914 198.209 8 196 8H178C175.791 8 174 6.20914 174 4Z" fill="black" fill-opacity="0.2"/>
<path fill-rule="evenodd" clip-rule="evenodd" d="M216 4C216 1.79086 217.791 0 220 0H238C240.209 0 242 1.79086 242 4C242 6.20914 240.209 8 238 8H220C217.791 8 216 6.20914 216 4Z" fill="#D3D6D7"/>
<path fill-rule="evenodd" clip-rule="evenodd" d="M216 4C216 1.79086 217.791 0 220 0H238C240.209 0 242 1.79086 242 4C242 6.20914 240.209 8 238 8H220C217.791 8 216 6.20914 216 4Z" fill="black" fill-opacity="0.2"/>
<path fill-rule="evenodd" clip-rule="evenodd" d="M258 4C258 1.79086 259.791 0 262 0H280C282.209 0 284 1.79086 284 4C284 6.20914 282.209 8 280 8H262C259.791 8 258 6.20914 258 4Z" fill="#D3D6D7"/>
<path fill-rule="evenodd" clip-rule="evenodd" d="M258 4C258 1.79086 259.791 0 262 0H280C282.209 0 284 1.79086 284 4C284 6.20914 282.209 8 280 8H262C259.791 8 258 6.20914 258 4Z" fill="black" fill-opacity="0.2"/>
<path fill-rule="evenodd" clip-rule="evenodd" d="M300 4C300 1.79086 301.791 0 304 0H322C324.209 0 326 1.79086 326 4C326 6.20914 324.209 8 322 8H304C301.791 8 300 6.20914 300 4Z" fill="#D3D6D7"/>
<path fill-rule="evenodd" clip-rule="evenodd" d="M300 4C300 1.79086 301.791 0 304 0H322C324.209 0 326 1.79086 326 4C326 6.20914 324.209 8 322 8H304C301.791 8 300 6.20914 300 4Z" fill="black" fill-opacity="0.2"/>
<path fill-rule="evenodd" clip-rule="evenodd" d="M342 4C342 1.79086 343.791 0 346 0H364C366.209 0 368 1.79086 368 4C368 6.20914 366.209 8 364 8H346C343.791 8 342 6.20914 342 4Z" fill="#D3D6D7"/>
<path fill-rule="evenodd" clip-rule="evenodd" d="M342 4C342 1.79086 343.791 0 346 0H364C366.209 0 368 1.79086 368 4C368 6.20914 366.209 8 364 8H346C343.791 8 342 6.20914 342 4Z" fill="black" fill-opacity="0.2"/>
<path fill-rule="evenodd" clip-rule="evenodd" d="M384 4C384 1.79086 385.791 0 388 0H406C408.209 0 410 1.79086 410 4C410 6.20914 408.209 8 406 8H388C385.791 8 384 6.20914 384 4Z" fill="#D3D6D7"/>
<path fill-rule="evenodd" clip-rule="evenodd" d="M384 4C384 1.79086 385.791 0 388 0H406C408.209 0 410 1.79086 410 4C410 6.20914 408.209 8 406 8H388C385.791 8 384 6.20914 384 4Z" fill="black" fill-opacity="0.2"/>
<path fill-rule="evenodd" clip-rule="evenodd" d="M426 4C426 1.79086 427.791 0 430 0H448C450.209 0 452 1.79086 452 4C452 6.20914 450.209 8 448 8H430C427.791 8 426 6.20914 426 4Z" fill="#D3D6D7"/>
<path fill-rule="evenodd" clip-rule="evenodd" d="M426 4C426 1.79086 427.791 0 430 0H448C450.209 0 452 1.79086 452 4C452 6.20914 450.209 8 448 8H430C427.791 8 426 6.20914 426 4Z" fill="black" fill-opacity="0.2"/>
<path fill-rule="evenodd" clip-rule="evenodd" d="M468 4C468 1.79086 469.791 0 472 0H490C492.209 0 494 1.79086 494 4C494 6.20914 492.209 8 490 8H472C469.791 8 468 6.20914 468 4Z" fill="#D3D6D7"/>
<path fill-rule="evenodd" clip-rule="evenodd" d="M468 4C468 1.79086 469.791 0 472 0H490C492.209 0 494 1.79086 494 4C494 6.20914 492.209 8 490 8H472C469.791 8 468 6.20914 468 4Z" fill="black" fill-opacity="0.2"/>
<path fill-rule="evenodd" clip-rule="evenodd" d="M510 4C510 1.79086 511.791 0 514 0H532C534.209 0 536 1.79086 536 4C536 6.20914 534.209 8 532 8H514C511.791 8 510 6.20914 510 4Z" fill="#D3D6D7"/>
<path fill-rule="evenodd" clip-rule="evenodd" d="M510 4C510 1.79086 511.791 0 514 0H532C534.209 0 536 1.79086 536 4C536 6.20914 534.209 8 532 8H514C511.791 8 510 6.20914 510 4Z" fill="black" fill-opacity="0.2"/>
<path fill-rule="evenodd" clip-rule="evenodd" d="M552 4C552 1.79086 553.791 0 556 0H574C576.209 0 578 1.79086 578 4C578 6.20914 576.209 8 574 8H556C553.791 8 552 6.20914 552 4Z" fill="#D3D6D7"/>
<path fill-rule="evenodd" clip-rule="evenodd" d="M552 4C552 1.79086 553.791 0 556 0H574C576.209 0 578 1.79086 578 4C578 6.20914 576.209 8 574 8H556C553.791 8 552 6.20914 552 4Z" fill="black" fill-opacity="0.2"/>
<path fill-rule="evenodd" clip-rule="evenodd" d="M14 376C14 373.791 15.7909 372 18 372H36C38.2091 372 40 373.791 40 376C40 378.209 38.2091 380 36 380H18C15.7909 380 14 378.209 14 376Z" fill="#D3D6D7"/>
<path fill-rule="evenodd" clip-rule="evenodd" d="M14 376C14 373.791 15.7909 372 18 372H36C38.2091 372 40 373.791 40 376C40 378.209 38.2091 380 36 380H18C15.7909 380 14 378.209 14 376Z" fill="black" fill-opacity="0.2"/>
<path fill-rule="evenodd" clip-rule="evenodd" d="M56 376C56 373.791 57.7909 372 60 372H78C80.2091 372 82 373.791 82 376C82 378.209 80.2091 380 78 380H60C57.7909 380 56 378.209 56 376Z" fill="#D3D6D7"/>
<path fill-rule="evenodd" clip-rule="evenodd" d="M56 376C56 373.791 57.7909 372 60 372H78C80.2091 372 82 373.791 82 376C82 378.209 80.2091 380 78 380H60C57.7909 380 56 378.209 56 376Z" fill="black" fill-opacity="0.2"/>
<path fill-rule="evenodd" clip-rule="evenodd" d="M98 376C98 373.791 99.7909 372 102 372H120C122.209 372 124 373.791 124 376C124 378.209 122.209 380 120 380H102C99.7909 380 98 378.209 98 376Z" fill="#D3D6D7"/>
<path fill-rule="evenodd" clip-rule="evenodd" d="M98 376C98 373.791 99.7909 372 102 372H120C122.209 372 124 373.791 124 376C124 378.209 122.209 380 120 380H102C99.7909 380 98 378.209 98 376Z" fill="black" fill-opacity="0.2"/>
<path fill-rule="evenodd" clip-rule="evenodd" d="M140 376C140 373.791 141.791 372 144 372H162C164.209 372 166 373.791 166 376C166 378.209 164.209 380 162 380H144C141.791 380 140 378.209 140 376Z" fill="#D3D6D7"/>
<path fill-rule="evenodd" clip-rule="evenodd" d="M140 376C140 373.791 141.791 372 144 372H162C164.209 372 166 373.791 166 376C166 378.209 164.209 380 162 380H144C141.791 380 140 378.209 140 376Z" fill="black" fill-opacity="0.2"/>
<path fill-rule="evenodd" clip-rule="evenodd" d="M182 376C182 373.791 183.791 372 186 372H204C206.209 372 208 373.791 208 376C208 378.209 206.209 380 204 380H186C183.791 380 182 378.209 182 376Z" fill="#D3D6D7"/>
<path fill-rule="evenodd" clip-rule="evenodd" d="M182 376C182 373.791 183.791 372 186 372H204C206.209 372 208 373.791 208 376C208 378.209 206.209 380 204 380H186C183.791 380 182 378.209 182 376Z" fill="black" fill-opacity="0.2"/>
<path fill-rule="evenodd" clip-rule="evenodd" d="M224 376C224 373.791 225.791 372 228 372H246C248.209 372 250 373.791 250 376C250 378.209 248.209 380 246 380H228C225.791 380 224 378.209 224 376Z" fill="#D3D6D7"/>
<path fill-rule="evenodd" clip-rule="evenodd" d="M224 376C224 373.791 225.791 372 228 372H246C248.209 372 250 373.791 250 376C250 378.209 248.209 380 246 380H228C225.791 380 224 378.209 224 376Z" fill="black" fill-opacity="0.2"/>
<path fill-rule="evenodd" clip-rule="evenodd" d="M266 376C266 373.791 267.791 372 270 372H288C290.209 372 292 373.791 292 376C292 378.209 290.209 380 288 380H270C267.791 380 266 378.209 266 376Z" fill="#D3D6D7"/>
<path fill-rule="evenodd" clip-rule="evenodd" d="M266 376C266 373.791 267.791 372 270 372H288C290.209 372 292 373.791 292 376C292 378.209 290.209 380 288 380H270C267.791 380 266 378.209 266 376Z" fill="black" fill-opacity="0.2"/>
<path fill-rule="evenodd" clip-rule="evenodd" d="M308 376C308 373.791 309.791 372 312 372H330C332.209 372 334 373.791 334 376C334 378.209 332.209 380 330 380H312C309.791 380 308 378.209 308 376Z" fill="#D3D6D7"/>
<path fill-rule="evenodd" clip-rule="evenodd" d="M308 376C308 373.791 309.791 372 312 372H330C332.209 372 334 373.791 334 376C334 378.209 332.209 380 330 380H312C309.791 380 308 378.209 308 376Z" fill="black" fill-opacity="0.2"/>
<path fill-rule="evenodd" clip-rule="evenodd" d="M350 376C350 373.791 351.791 372 354 372H372C374.209 372 376 373.791 376 376C376 378.209 374.209 380 372 380H354C351.791 380 350 378.209 350 376Z" fill="#D3D6D7"/>
<path fill-rule="evenodd" clip-rule="evenodd" d="M350 376C350 373.791 351.791 372 354 372H372C374.209 372 376 373.791 376 376C376 378.209 374.209 380 372 380H354C351.791 380 350 378.209 350 376Z" fill="black" fill-opacity="0.2"/>
<path fill-rule="evenodd" clip-rule="evenodd" d="M392 376C392 373.791 393.791 372 396 372H414C416.209 372 418 373.791 418 376C418 378.209 416.209 380 414 380H396C393.791 380 392 378.209 392 376Z" fill="#D3D6D7"/>
<path fill-rule="evenodd" clip-rule="evenodd" d="M392 376C392 373.791 393.791 372 396 372H414C416.209 372 418 373.791 418 376C418 378.209 416.209 380 414 380H396C393.791 380 392 378.209 392 376Z" fill="black" fill-opacity="0.2"/>
<path fill-rule="evenodd" clip-rule="evenodd" d="M434 376C434 373.791 435.791 372 438 372H456C458.209 372 460 373.791 460 376C460 378.209 458.209 380 456 380H438C435.791 380 434 378.209 434 376Z" fill="#D3D6D7"/>
<path fill-rule="evenodd" clip-rule="evenodd" d="M434 376C434 373.791 435.791 372 438 372H456C458.209 372 460 373.791 460 376C460 378.209 458.209 380 456 380H438C435.791 380 434 378.209 434 376Z" fill="black" fill-opacity="0.2"/>
<path fill-rule="evenodd" clip-rule="evenodd" d="M476 376C476 373.791 477.791 372 480 372H498C500.209 372 502 373.791 502 376C502 378.209 500.209 380 498 380H480C477.791 380 476 378.209 476 376Z" fill="#D3D6D7"/>
<path fill-rule="evenodd" clip-rule="evenodd" d="M476 376C476 373.791 477.791 372 480 372H498C500.209 372 502 373.791 502 376C502 378.209 500.209 380 498 380H480C477.791 380 476 378.209 476 376Z" fill="black" fill-opacity="0.2"/>
<path fill-rule="evenodd" clip-rule="evenodd" d="M518 376C518 373.791 519.791 372 522 372H540C542.209 372 544 373.791 544 376C544 378.209 542.209 380 540 380H522C519.791 380 518 378.209 518 376Z" fill="#D3D6D7"/>
<path fill-rule="evenodd" clip-rule="evenodd" d="M518 376C518 373.791 519.791 372 522 372H540C542.209 372 544 373.791 544 376C544 378.209 542.209 380 540 380H522C519.791 380 518 378.209 518 376Z" fill="black" fill-opacity="0.2"/>
<path fill-rule="evenodd" clip-rule="evenodd" d="M560 376C560 373.791 561.791 372 564 372H582C584.209 372 586 373.791 586 376C586 378.209 584.209 380 582 380H564C561.791 380 560 378.209 560 376Z" fill="#D3D6D7"/>
<path fill-rule="evenodd" clip-rule="evenodd" d="M560 376C560 373.791 561.791 372 564 372H582C584.209 372 586 373.791 586 376C586 378.209 584.209 380 582 380H564C561.791 380 560 378.209 560 376Z" fill="black" fill-opacity="0.2"/>
<path fill-rule="evenodd" clip-rule="evenodd" d="M596 5C598.209 5 600 6.79086 600 9L600 27C600 29.2091 598.209 31 596 31C593.791 31 592 29.2091 592 27L592 9C592 6.79086 593.791 5 596 5Z" fill="#D3D6D7"/>
<path fill-rule="evenodd" clip-rule="evenodd" d="M596 5C598.209 5 600 6.79086 600 9L600 27C600 29.2091 598.209 31 596 31C593.791 31 592 29.2091 592 27L592 9C592 6.79086 593.791 5 596 5Z" fill="black" fill-opacity="0.2"/>
<path fill-rule="evenodd" clip-rule="evenodd" d="M596 47C598.209 47 600 48.7909 600 51L600 69C600 71.2091 598.209 73 596 73C593.791 73 592 71.2091 592 69L592 51C592 48.7909 593.791 47 596 47Z" fill="#D3D6D7"/>
<path fill-rule="evenodd" clip-rule="evenodd" d="M596 47C598.209 47 600 48.7909 600 51L600 69C600 71.2091 598.209 73 596 73C593.791 73 592 71.2091 592 69L592 51C592 48.7909 593.791 47 596 47Z" fill="black" fill-opacity="0.2"/>
<path fill-rule="evenodd" clip-rule="evenodd" d="M596 89C598.209 89 600 90.7909 600 93L600 111C600 113.209 598.209 115 596 115C593.791 115 592 113.209 592 111L592 93C592 90.7909 593.791 89 596 89Z" fill="#D3D6D7"/>
<path fill-rule="evenodd" clip-rule="evenodd" d="M596 89C598.209 89 600 90.7909 600 93L600 111C600 113.209 598.209 115 596 115C593.791 115 592 113.209 592 111L592 93C592 90.7909 593.791 89 596 89Z" fill="black" fill-opacity="0.2"/>
<path fill-rule="evenodd" clip-rule="evenodd" d="M596 131C598.209 131 600 132.791 600 135L600 153C600 155.209 598.209 157 596 157C593.791 157 592 155.209 592 153L592 135C592 132.791 593.791 131 596 131Z" fill="#D3D6D7"/>
<path fill-rule="evenodd" clip-rule="evenodd" d="M596 131C598.209 131 600 132.791 600 135L600 153C600 155.209 598.209 157 596 157C593.791 157 592 155.209 592 153L592 135C592 132.791 593.791 131 596 131Z" fill="black" fill-opacity="0.2"/>
<path fill-rule="evenodd" clip-rule="evenodd" d="M596 173C598.209 173 600 174.791 600 177L600 195C600 197.209 598.209 199 596 199C593.791 199 592 197.209 592 195L592 177C592 174.791 593.791 173 596 173Z" fill="#D3D6D7"/>
<path fill-rule="evenodd" clip-rule="evenodd" d="M596 173C598.209 173 600 174.791 600 177L600 195C600 197.209 598.209 199 596 199C593.791 199 592 197.209 592 195L592 177C592 174.791 593.791 173 596 173Z" fill="black" fill-opacity="0.2"/>
<path fill-rule="evenodd" clip-rule="evenodd" d="M596 215C598.209 215 600 216.791 600 219L600 237C600 239.209 598.209 241 596 241C593.791 241 592 239.209 592 237L592 219C592 216.791 593.791 215 596 215Z" fill="#D3D6D7"/>
<path fill-rule="evenodd" clip-rule="evenodd" d="M596 215C598.209 215 600 216.791 600 219L600 237C600 239.209 598.209 241 596 241C593.791 241 592 239.209 592 237L592 219C592 216.791 593.791 215 596 215Z" fill="black" fill-opacity="0.2"/>
<path fill-rule="evenodd" clip-rule="evenodd" d="M596 257C598.209 257 600 258.791 600 261L600 279C600 281.209 598.209 283 596 283C593.791 283 592 281.209 592 279L592 261C592 258.791 593.791 257 596 257Z" fill="#D3D6D7"/>
<path fill-rule="evenodd" clip-rule="evenodd" d="M596 257C598.209 257 600 258.791 600 261L600 279C600 281.209 598.209 283 596 283C593.791 283 592 281.209 592 279L592 261C592 258.791 593.791 257 596 257Z" fill="black" fill-opacity="0.2"/>
<path fill-rule="evenodd" clip-rule="evenodd" d="M596 299C598.209 299 600 300.791 600 303L600 321C600 323.209 598.209 325 596 325C593.791 325 592 323.209 592 321L592 303C592 300.791 593.791 299 596 299Z" fill="#D3D6D7"/>
<path fill-rule="evenodd" clip-rule="evenodd" d="M596 299C598.209 299 600 300.791 600 303L600 321C600 323.209 598.209 325 596 325C593.791 325 592 323.209 592 321L592 303C592 300.791 593.791 299 596 299Z" fill="black" fill-opacity="0.2"/>
<path fill-rule="evenodd" clip-rule="evenodd" d="M596 341C598.209 341 600 342.791 600 345L600 363C600 365.209 598.209 367 596 367C593.791 367 592 365.209 592 363L592 345C592 342.791 593.791 341 596 341Z" fill="#D3D6D7"/>
<path fill-rule="evenodd" clip-rule="evenodd" d="M596 341C598.209 341 600 342.791 600 345L600 363C600 365.209 598.209 367 596 367C593.791 367 592 365.209 592 363L592 345C592 342.791 593.791 341 596 341Z" fill="black" fill-opacity="0.2"/>
<path fill-rule="evenodd" clip-rule="evenodd" d="M4 6C6.20914 6 8 7.79086 8 10L8 28C8 30.2091 6.20914 32 4 32C1.79086 32 -1.05822e-06 30.2091 -9.61651e-07 28L-1.74846e-07 10C-7.8281e-08 7.79086 1.79086 6 4 6Z" fill="#D3D6D7"/>
<path fill-rule="evenodd" clip-rule="evenodd" d="M4 6C6.20914 6 8 7.79086 8 10L8 28C8 30.2091 6.20914 32 4 32C1.79086 32 -1.05822e-06 30.2091 -9.61651e-07 28L-1.74846e-07 10C-7.8281e-08 7.79086 1.79086 6 4 6Z" fill="black" fill-opacity="0.2"/>
<path fill-rule="evenodd" clip-rule="evenodd" d="M4 48C6.20914 48 8 49.7909 8 52L8 70C8 72.2091 6.20914 74 4 74C1.79086 74 -1.05822e-06 72.2091 -9.61651e-07 70L-1.74846e-07 52C-7.8281e-08 49.7909 1.79086 48 4 48Z" fill="#D3D6D7"/>
<path fill-rule="evenodd" clip-rule="evenodd" d="M4 48C6.20914 48 8 49.7909 8 52L8 70C8 72.2091 6.20914 74 4 74C1.79086 74 -1.05822e-06 72.2091 -9.61651e-07 70L-1.74846e-07 52C-7.8281e-08 49.7909 1.79086 48 4 48Z" fill="black" fill-opacity="0.2"/>
<path fill-rule="evenodd" clip-rule="evenodd" d="M4 90C6.20914 90 8 91.7909 8 94L8 112C8 114.209 6.20914 116 4 116C1.79086 116 -1.05822e-06 114.209 -9.61651e-07 112L-1.74846e-07 94C-7.8281e-08 91.7909 1.79086 90 4 90Z" fill="#D3D6D7"/>
<path fill-rule="evenodd" clip-rule="evenodd" d="M4 90C6.20914 90 8 91.7909 8 94L8 112C8 114.209 6.20914 116 4 116C1.79086 116 -1.05822e-06 114.209 -9.61651e-07 112L-1.74846e-07 94C-7.8281e-08 91.7909 1.79086 90 4 90Z" fill="black" fill-opacity="0.2"/>
<path fill-rule="evenodd" clip-rule="evenodd" d="M4 132C6.20914 132 8 133.791 8 136L8 154C8 156.209 6.20914 158 4 158C1.79086 158 -1.05822e-06 156.209 -9.61651e-07 154L-1.74846e-07 136C-7.8281e-08 133.791 1.79086 132 4 132Z" fill="#D3D6D7"/>
<path fill-rule="evenodd" clip-rule="evenodd" d="M4 132C6.20914 132 8 133.791 8 136L8 154C8 156.209 6.20914 158 4 158C1.79086 158 -1.05822e-06 156.209 -9.61651e-07 154L-1.74846e-07 136C-7.8281e-08 133.791 1.79086 132 4 132Z" fill="black" fill-opacity="0.2"/>
<path fill-rule="evenodd" clip-rule="evenodd" d="M4 174C6.20914 174 8 175.791 8 178L8 196C8 198.209 6.20914 200 4 200C1.79086 200 -1.05822e-06 198.209 -9.61651e-07 196L-1.74846e-07 178C-7.8281e-08 175.791 1.79086 174 4 174Z" fill="#D3D6D7"/>
<path fill-rule="evenodd" clip-rule="evenodd" d="M4 174C6.20914 174 8 175.791 8 178L8 196C8 198.209 6.20914 200 4 200C1.79086 200 -1.05822e-06 198.209 -9.61651e-07 196L-1.74846e-07 178C-7.8281e-08 175.791 1.79086 174 4 174Z" fill="black" fill-opacity="0.2"/>
<path fill-rule="evenodd" clip-rule="evenodd" d="M4 216C6.20914 216 8 217.791 8 220L8 238C8 240.209 6.20914 242 4 242C1.79086 242 -1.05822e-06 240.209 -9.61651e-07 238L-1.74846e-07 220C-7.8281e-08 217.791 1.79086 216 4 216Z" fill="#D3D6D7"/>
<path fill-rule="evenodd" clip-rule="evenodd" d="M4 216C6.20914 216 8 217.791 8 220L8 238C8 240.209 6.20914 242 4 242C1.79086 242 -1.05822e-06 240.209 -9.61651e-07 238L-1.74846e-07 220C-7.8281e-08 217.791 1.79086 216 4 216Z" fill="black" fill-opacity="0.2"/>
<path fill-rule="evenodd" clip-rule="evenodd" d="M4 258C6.20914 258 8 259.791 8 262L8 280C8 282.209 6.20914 284 4 284C1.79086 284 -1.05822e-06 282.209 -9.61651e-07 280L-1.74846e-07 262C-7.8281e-08 259.791 1.79086 258 4 258Z" fill="#D3D6D7"/>
<path fill-rule="evenodd" clip-rule="evenodd" d="M4 258C6.20914 258 8 259.791 8 262L8 280C8 282.209 6.20914 284 4 284C1.79086 284 -1.05822e-06 282.209 -9.61651e-07 280L-1.74846e-07 262C-7.8281e-08 259.791 1.79086 258 4 258Z" fill="black" fill-opacity="0.2"/>
<path fill-rule="evenodd" clip-rule="evenodd" d="M4 300C6.20914 300 8 301.791 8 304L8 322C8 324.209 6.20914 326 4 326C1.79086 326 -1.05822e-06 324.209 -9.61651e-07 322L-1.74846e-07 304C-7.8281e-08 301.791 1.79086 300 4 300Z" fill="#D3D6D7"/>
<path fill-rule="evenodd" clip-rule="evenodd" d="M4 300C6.20914 300 8 301.791 8 304L8 322C8 324.209 6.20914 326 4 326C1.79086 326 -1.05822e-06 324.209 -9.61651e-07 322L-1.74846e-07 304C-7.8281e-08 301.791 1.79086 300 4 300Z" fill="black" fill-opacity="0.2"/>
<path fill-rule="evenodd" clip-rule="evenodd" d="M4 342C6.20914 342 8 343.791 8 346L8 364C8 366.209 6.20914 368 4 368C1.79086 368 -1.05822e-06 366.209 -9.61651e-07 364L-1.74846e-07 346C-7.8281e-08 343.791 1.79086 342 4 342Z" fill="#D3D6D7"/>
<path fill-rule="evenodd" clip-rule="evenodd" d="M4 342C6.20914 342 8 343.791 8 346L8 364C8 366.209 6.20914 368 4 368C1.79086 368 -1.05822e-06 366.209 -9.61651e-07 364L-1.74846e-07 346C-7.8281e-08 343.791 1.79086 342 4 342Z" fill="black" fill-opacity="0.2"/>
<rect x="160" y="192" width="188" height="78" rx="12" fill="#515B48"/>
<path d="M228.988 242.252C227.401 242.252 225.964 242.056 224.676 241.664C223.388 241.253 222.268 240.675 221.316 239.928L222.296 237.632C222.931 238.117 223.584 238.519 224.256 238.836C224.947 239.153 225.675 239.396 226.44 239.564C227.224 239.713 228.073 239.788 228.988 239.788C230.556 239.788 231.704 239.508 232.432 238.948C233.179 238.388 233.552 237.651 233.552 236.736C233.552 235.952 233.291 235.345 232.768 234.916C232.264 234.487 231.368 234.141 230.08 233.88L227.028 233.264C225.217 232.891 223.864 232.284 222.968 231.444C222.091 230.585 221.652 229.419 221.652 227.944C221.652 226.749 221.969 225.704 222.604 224.808C223.239 223.912 224.116 223.221 225.236 222.736C226.375 222.251 227.7 222.008 229.212 222.008C230.612 222.008 231.9 222.213 233.076 222.624C234.252 223.016 235.241 223.604 236.044 224.388L235.092 226.6C234.252 225.872 233.356 225.34 232.404 225.004C231.452 224.649 230.369 224.472 229.156 224.472C227.719 224.472 226.589 224.771 225.768 225.368C224.965 225.965 224.564 226.777 224.564 227.804C224.564 228.625 224.816 229.269 225.32 229.736C225.843 230.203 226.701 230.557 227.896 230.8L230.948 231.388C232.833 231.78 234.224 232.387 235.12 233.208C236.016 234.011 236.464 235.121 236.464 236.54C236.464 237.679 236.156 238.677 235.54 239.536C234.943 240.395 234.084 241.067 232.964 241.552C231.844 242.019 230.519 242.252 228.988 242.252ZM245.197 242.252C243.666 242.252 242.509 241.841 241.725 241.02C240.941 240.18 240.549 238.929 240.549 237.268V230.072H237.805V227.888H240.549V224.164L243.377 223.408V227.888H247.297V230.072H243.377V237.016C243.377 238.061 243.563 238.808 243.937 239.256C244.31 239.704 244.851 239.928 245.561 239.928C245.915 239.928 246.223 239.9 246.485 239.844C246.765 239.769 247.017 239.685 247.241 239.592V241.888C246.961 242 246.634 242.084 246.261 242.14C245.887 242.215 245.533 242.252 245.197 242.252ZM255.285 242.252C254.034 242.252 252.942 241.963 252.009 241.384C251.075 240.805 250.347 239.965 249.825 238.864C249.321 237.763 249.069 236.456 249.069 234.944C249.069 233.413 249.321 232.107 249.825 231.024C250.347 229.941 251.075 229.111 252.009 228.532C252.942 227.935 254.034 227.636 255.285 227.636C256.517 227.636 257.59 227.944 258.505 228.56C259.419 229.176 260.026 230.016 260.325 231.08H260.017L260.297 227.888H263.041C262.985 228.467 262.929 229.045 262.873 229.624C262.835 230.184 262.817 230.735 262.817 231.276V242H259.989V238.864H260.297C259.998 239.909 259.382 240.74 258.449 241.356C257.534 241.953 256.479 242.252 255.285 242.252ZM255.985 240.04C257.198 240.04 258.169 239.611 258.897 238.752C259.643 237.893 260.017 236.624 260.017 234.944C260.017 233.264 259.643 232.004 258.897 231.164C258.169 230.305 257.198 229.876 255.985 229.876C254.753 229.876 253.763 230.305 253.017 231.164C252.289 232.004 251.925 233.264 251.925 234.944C251.925 236.624 252.289 237.893 253.017 238.752C253.745 239.611 254.734 240.04 255.985 240.04ZM266.887 242V231.388C266.887 230.809 266.868 230.231 266.831 229.652C266.812 229.055 266.775 228.467 266.719 227.888H269.463L269.771 231.528H269.323C269.51 230.651 269.827 229.923 270.275 229.344C270.723 228.765 271.264 228.336 271.899 228.056C272.552 227.776 273.234 227.636 273.943 227.636C274.242 227.636 274.494 227.655 274.699 227.692C274.904 227.711 275.11 227.748 275.315 227.804L275.287 230.324C274.97 230.193 274.69 230.119 274.447 230.1C274.223 230.063 273.943 230.044 273.607 230.044C272.786 230.044 272.086 230.231 271.507 230.604C270.928 230.959 270.49 231.444 270.191 232.06C269.892 232.676 269.743 233.339 269.743 234.048V242H266.887ZM283.751 242.252C282.221 242.252 281.063 241.841 280.279 241.02C279.495 240.18 279.103 238.929 279.103 237.268V230.072H276.359V227.888H279.103V224.164L281.931 223.408V227.888H285.851V230.072H281.931V237.016C281.931 238.061 282.118 238.808 282.491 239.256C282.865 239.704 283.406 239.928 284.115 239.928C284.47 239.928 284.778 239.9 285.039 239.844C285.319 239.769 285.571 239.685 285.795 239.592V241.888C285.515 242 285.189 242.084 284.815 242.14C284.442 242.215 284.087 242.252 283.751 242.252Z" fill="white"/>
<rect x="358" y="192" width="82" height="82" rx="12" fill="#D3D6D7"/>
<path d="M399 214L388.241 224.993L391.473 228.296L396.714 222.941V240.658H401.286V222.941L406.527 228.296L409.759 224.993L399 214Z" fill="#989A9B"/>
<path d="M387.571 235.987V245.329H410.429V235.987H415V245.329C415 247.909 412.953 250 410.429 250H387.571C385.047 250 383 247.909 383 245.329V235.987H387.571Z" fill="#989A9B"/>
<path d="M157.112 164V147.08H159.104V164H157.112ZM168.171 164.216C166.987 164.216 165.955 163.96 165.075 163.448C164.211 162.936 163.539 162.208 163.059 161.264C162.595 160.32 162.363 159.2 162.363 157.904C162.363 156.592 162.603 155.48 163.083 154.568C163.563 153.64 164.235 152.936 165.099 152.456C165.979 151.976 167.003 151.736 168.171 151.736C168.939 151.736 169.683 151.872 170.403 152.144C171.139 152.416 171.747 152.8 172.227 153.296L171.531 154.688C171.051 154.224 170.523 153.88 169.947 153.656C169.387 153.432 168.835 153.32 168.291 153.32C167.043 153.32 166.075 153.712 165.387 154.496C164.699 155.28 164.355 156.424 164.355 157.928C164.355 159.416 164.699 160.568 165.387 161.384C166.075 162.2 167.043 162.608 168.291 162.608C168.819 162.608 169.363 162.504 169.923 162.296C170.499 162.088 171.035 161.744 171.531 161.264L172.227 162.632C171.731 163.144 171.115 163.536 170.379 163.808C169.643 164.08 168.907 164.216 168.171 164.216ZM180.107 164.216C178.219 164.216 176.731 163.672 175.643 162.584C174.555 161.48 174.011 159.952 174.011 158C174.011 156.736 174.251 155.64 174.731 154.712C175.211 153.768 175.883 153.04 176.747 152.528C177.611 152 178.603 151.736 179.723 151.736C180.827 151.736 181.755 151.968 182.507 152.432C183.259 152.896 183.835 153.56 184.235 154.424C184.635 155.272 184.835 156.28 184.835 157.448V158.168H175.499V156.944H183.563L183.155 157.256C183.155 155.976 182.867 154.976 182.291 154.256C181.715 153.536 180.859 153.176 179.723 153.176C178.523 153.176 177.587 153.6 176.915 154.448C176.243 155.28 175.907 156.408 175.907 157.832V158.048C175.907 159.552 176.275 160.696 177.011 161.48C177.763 162.248 178.811 162.632 180.155 162.632C180.875 162.632 181.547 162.528 182.171 162.32C182.811 162.096 183.419 161.736 183.995 161.24L184.667 162.608C184.139 163.12 183.467 163.52 182.651 163.808C181.851 164.08 181.003 164.216 180.107 164.216ZM187.81 164V146.336H189.754V164H187.81ZM198.113 164.216C197.041 164.216 196.105 163.968 195.305 163.472C194.505 162.96 193.881 162.24 193.433 161.312C193.001 160.384 192.785 159.272 192.785 157.976C192.785 156.664 193.001 155.544 193.433 154.616C193.881 153.688 194.505 152.976 195.305 152.48C196.105 151.984 197.041 151.736 198.113 151.736C199.201 151.736 200.137 152.016 200.921 152.576C201.721 153.12 202.249 153.864 202.505 154.808H202.217L202.481 151.952H204.353C204.305 152.416 204.257 152.888 204.209 153.368C204.177 153.832 204.161 154.288 204.161 154.736V164H202.217V161.168H202.481C202.225 162.112 201.697 162.856 200.897 163.4C200.097 163.944 199.169 164.216 198.113 164.216ZM198.497 162.632C199.649 162.632 200.561 162.24 201.233 161.456C201.905 160.656 202.241 159.496 202.241 157.976C202.241 156.44 201.905 155.28 201.233 154.496C200.561 153.696 199.649 153.296 198.497 153.296C197.361 153.296 196.449 153.696 195.761 154.496C195.089 155.28 194.753 156.44 194.753 157.976C194.753 159.496 195.089 160.656 195.761 161.456C196.449 162.24 197.361 162.632 198.497 162.632ZM207.919 164V154.736C207.919 154.288 207.895 153.832 207.847 153.368C207.815 152.888 207.775 152.416 207.727 151.952H209.599L209.839 154.592H209.551C209.903 153.664 210.463 152.96 211.231 152.48C212.015 151.984 212.919 151.736 213.943 151.736C215.367 151.736 216.439 152.12 217.159 152.888C217.895 153.64 218.263 154.832 218.263 156.464V164H216.319V156.584C216.319 155.448 216.087 154.624 215.623 154.112C215.175 153.584 214.471 153.32 213.511 153.32C212.391 153.32 211.503 153.664 210.847 154.352C210.191 155.04 209.863 155.96 209.863 157.112V164H207.919ZM226.542 164.216C225.486 164.216 224.558 163.968 223.758 163.472C222.958 162.96 222.334 162.24 221.886 161.312C221.454 160.384 221.238 159.272 221.238 157.976C221.238 156.664 221.454 155.544 221.886 154.616C222.334 153.688 222.958 152.976 223.758 152.48C224.558 151.984 225.486 151.736 226.542 151.736C227.63 151.736 228.566 152.008 229.35 152.552C230.15 153.096 230.686 153.832 230.958 154.76H230.67V146.336H232.614V164H230.694V161.12H230.958C230.702 162.08 230.174 162.84 229.374 163.4C228.574 163.944 227.63 164.216 226.542 164.216ZM226.95 162.632C228.086 162.632 228.998 162.24 229.686 161.456C230.374 160.656 230.718 159.496 230.718 157.976C230.718 156.44 230.374 155.28 229.686 154.496C228.998 153.696 228.086 153.296 226.95 153.296C225.814 153.296 224.902 153.696 224.214 154.496C223.542 155.28 223.206 156.44 223.206 157.976C223.206 159.496 223.542 160.656 224.214 161.456C224.902 162.24 225.814 162.632 226.95 162.632ZM246.086 168.32C245.43 167.12 244.886 165.944 244.454 164.792C244.022 163.656 243.702 162.504 243.494 161.336C243.302 160.168 243.206 158.952 243.206 157.688C243.206 156.424 243.302 155.208 243.494 154.04C243.702 152.872 244.022 151.72 244.454 150.584C244.886 149.432 245.43 148.264 246.086 147.08H247.718C246.902 148.872 246.278 150.648 245.846 152.408C245.43 154.152 245.222 155.912 245.222 157.688C245.222 159.448 245.43 161.216 245.846 162.992C246.278 164.752 246.902 166.528 247.718 168.32H246.086ZM256.319 164.216C255.231 164.216 254.295 163.944 253.511 163.4C252.727 162.84 252.199 162.08 251.927 161.12H252.191V164H250.271V146.336H252.215V154.76H251.927C252.199 153.832 252.727 153.096 253.511 152.552C254.295 152.008 255.231 151.736 256.319 151.736C257.407 151.736 258.343 151.992 259.127 152.504C259.927 153 260.543 153.712 260.975 154.64C261.423 155.568 261.647 156.68 261.647 157.976C261.647 159.272 261.423 160.384 260.975 161.312C260.527 162.24 259.903 162.96 259.103 163.472C258.319 163.968 257.391 164.216 256.319 164.216ZM255.911 162.632C257.047 162.632 257.959 162.24 258.647 161.456C259.335 160.672 259.679 159.512 259.679 157.976C259.679 156.44 259.335 155.28 258.647 154.496C257.959 153.696 257.047 153.296 255.911 153.296C254.775 153.296 253.863 153.696 253.175 154.496C252.503 155.28 252.167 156.44 252.167 157.976C252.167 159.496 252.503 160.656 253.175 161.456C253.863 162.24 254.775 162.632 255.911 162.632ZM264.018 169.448L263.562 167.84C264.314 167.664 264.938 167.456 265.434 167.216C265.946 166.992 266.37 166.688 266.706 166.304C267.042 165.92 267.33 165.44 267.57 164.864L268.194 163.448L268.146 164.264L262.89 151.952H265.002L269.346 162.536H268.722L273.018 151.952H275.058L269.49 165.008C269.17 165.776 268.818 166.416 268.434 166.928C268.05 167.456 267.634 167.88 267.186 168.2C266.754 168.536 266.274 168.8 265.746 168.992C265.218 169.184 264.642 169.336 264.018 169.448ZM283.505 168.464C283.249 168.464 282.953 168.448 282.617 168.416C282.297 168.4 281.969 168.352 281.633 168.272V166.616C281.937 166.68 282.217 166.728 282.473 166.76C282.745 166.808 282.985 166.832 283.193 166.832C283.929 166.832 284.481 166.6 284.849 166.136C285.217 165.688 285.401 164.968 285.401 163.976V147.08H287.393V164C287.393 164.96 287.249 165.776 286.961 166.448C286.689 167.12 286.265 167.624 285.689 167.96C285.129 168.296 284.401 168.464 283.505 168.464ZM296.348 164.216C295.196 164.216 294.188 163.968 293.324 163.472C292.476 162.96 291.82 162.24 291.356 161.312C290.892 160.368 290.66 159.256 290.66 157.976C290.66 156.68 290.892 155.568 291.356 154.64C291.82 153.712 292.476 153 293.324 152.504C294.188 151.992 295.196 151.736 296.348 151.736C297.516 151.736 298.524 151.992 299.372 152.504C300.236 153 300.9 153.712 301.364 154.64C301.844 155.568 302.084 156.68 302.084 157.976C302.084 159.256 301.844 160.368 301.364 161.312C300.9 162.24 300.236 162.96 299.372 163.472C298.524 163.968 297.516 164.216 296.348 164.216ZM296.348 162.632C297.5 162.632 298.412 162.24 299.084 161.456C299.756 160.656 300.092 159.496 300.092 157.976C300.092 156.44 299.748 155.28 299.06 154.496C298.388 153.696 297.484 153.296 296.348 153.296C295.212 153.296 294.308 153.696 293.636 154.496C292.964 155.28 292.628 156.44 292.628 157.976C292.628 159.496 292.964 160.656 293.636 161.456C294.308 162.24 295.212 162.632 296.348 162.632ZM305.115 164V154.736C305.115 154.288 305.091 153.832 305.043 153.368C305.011 152.888 304.971 152.416 304.923 151.952H306.795L307.035 154.592H306.747C307.099 153.664 307.659 152.96 308.427 152.48C309.211 151.984 310.115 151.736 311.139 151.736C312.563 151.736 313.635 152.12 314.355 152.888C315.091 153.64 315.459 154.832 315.459 156.464V164H313.515V156.584C313.515 155.448 313.283 154.624 312.819 154.112C312.371 153.584 311.667 153.32 310.707 153.32C309.587 153.32 308.699 153.664 308.043 154.352C307.387 155.04 307.059 155.96 307.059 157.112V164H305.115ZM319.177 164V154.736C319.177 154.288 319.153 153.832 319.105 153.368C319.073 152.888 319.033 152.416 318.985 151.952H320.857L321.097 154.592H320.809C321.161 153.664 321.721 152.96 322.489 152.48C323.273 151.984 324.177 151.736 325.201 151.736C326.625 151.736 327.697 152.12 328.417 152.888C329.153 153.64 329.521 154.832 329.521 156.464V164H327.577V156.584C327.577 155.448 327.345 154.624 326.881 154.112C326.433 153.584 325.729 153.32 324.769 153.32C323.649 153.32 322.761 153.664 322.105 154.352C321.449 155.04 321.121 155.96 321.121 157.112V164H319.177ZM332.643 169.448L332.187 167.84C332.939 167.664 333.563 167.456 334.059 167.216C334.571 166.992 334.995 166.688 335.331 166.304C335.667 165.92 335.955 165.44 336.195 164.864L336.819 163.448L336.771 164.264L331.515 151.952H333.627L337.971 162.536H337.347L341.643 151.952H343.683L338.115 165.008C337.795 165.776 337.443 166.416 337.059 166.928C336.675 167.456 336.259 167.88 335.811 168.2C335.379 168.536 334.899 168.8 334.371 168.992C333.843 169.184 333.267 169.336 332.643 169.448ZM350.666 164L358.13 147.08H359.858L367.442 164H365.378L363.266 159.176L364.154 159.68H353.81L354.77 159.176L352.706 164H350.666ZM358.97 149.36L355.082 158.48L354.506 158.048H363.434L363.002 158.48L359.018 149.36H358.97ZM374.027 164.216C372.603 164.216 371.523 163.824 370.787 163.04C370.067 162.256 369.707 161.056 369.707 159.44V151.952H371.651V159.392C371.651 160.496 371.875 161.312 372.323 161.84C372.771 162.352 373.467 162.608 374.411 162.608C375.467 162.608 376.315 162.264 376.955 161.576C377.595 160.888 377.915 159.968 377.915 158.816V151.952H379.859V164H377.963V161.288H378.275C377.939 162.216 377.395 162.936 376.643 163.448C375.907 163.96 375.035 164.216 374.027 164.216ZM383.63 164V146.336H385.574V154.616H385.262C385.598 153.672 386.158 152.96 386.942 152.48C387.742 151.984 388.662 151.736 389.702 151.736C391.142 151.736 392.214 152.128 392.918 152.912C393.622 153.68 393.974 154.848 393.974 156.416V164H392.03V156.536C392.03 155.416 391.806 154.6 391.358 154.088C390.926 153.576 390.222 153.32 389.246 153.32C388.126 153.32 387.23 153.664 386.558 154.352C385.902 155.04 385.574 155.944 385.574 157.064V164H383.63ZM398.053 168.32H396.445C397.261 166.528 397.877 164.752 398.293 162.992C398.725 161.232 398.941 159.472 398.941 157.712C398.941 155.936 398.725 154.168 398.293 152.408C397.877 150.648 397.261 148.872 396.445 147.08H398.053C398.741 148.264 399.293 149.432 399.709 150.584C400.141 151.72 400.453 152.88 400.645 154.064C400.853 155.232 400.957 156.448 400.957 157.712C400.957 158.96 400.853 160.176 400.645 161.36C400.453 162.528 400.141 163.68 399.709 164.816C399.293 165.968 398.741 167.136 398.053 168.32ZM404.95 164V161.552H407.398V164H404.95ZM409.421 169.28C409.197 169.28 408.917 169.248 408.581 169.184C408.245 169.136 407.965 169.072 407.741 168.992V167.36C407.933 167.424 408.157 167.48 408.413 167.528C408.669 167.592 408.909 167.624 409.133 167.624C409.805 167.624 410.301 167.408 410.621 166.976C410.957 166.56 411.125 165.872 411.125 164.912V151.952H413.069V165.104C413.069 166.48 412.765 167.52 412.157 168.224C411.565 168.928 410.653 169.28 409.421 169.28ZM410.909 149.216V147.032H413.285V149.216H410.909ZM416.724 169.184V154.736C416.724 154.288 416.7 153.832 416.652 153.368C416.62 152.888 416.58 152.416 416.532 151.952H418.404L418.668 154.808H418.38C418.636 153.864 419.156 153.12 419.94 152.576C420.724 152.016 421.66 151.736 422.748 151.736C423.836 151.736 424.772 151.984 425.556 152.48C426.356 152.976 426.98 153.688 427.428 154.616C427.876 155.544 428.1 156.664 428.1 157.976C428.1 159.272 427.876 160.384 427.428 161.312C426.996 162.24 426.38 162.96 425.58 163.472C424.78 163.968 423.836 164.216 422.748 164.216C421.676 164.216 420.748 163.944 419.964 163.4C419.18 162.856 418.66 162.112 418.404 161.168H418.668V169.184H416.724ZM422.364 162.632C423.516 162.632 424.428 162.24 425.1 161.456C425.788 160.656 426.132 159.496 426.132 157.976C426.132 156.44 425.788 155.28 425.1 154.496C424.428 153.696 423.516 153.296 422.364 153.296C421.228 153.296 420.316 153.696 419.628 154.496C418.956 155.28 418.62 156.44 418.62 157.976C418.62 159.496 418.956 160.656 419.628 161.456C420.316 162.24 421.228 162.632 422.364 162.632ZM436.419 169.352C435.379 169.352 434.419 169.224 433.539 168.968C432.659 168.712 431.867 168.32 431.163 167.792L431.739 166.328C432.235 166.68 432.723 166.96 433.203 167.168C433.683 167.376 434.179 167.528 434.691 167.624C435.203 167.736 435.747 167.792 436.323 167.792C437.507 167.792 438.403 167.48 439.011 166.856C439.619 166.232 439.923 165.344 439.923 164.192V160.664H440.163C439.907 161.608 439.379 162.36 438.579 162.92C437.779 163.464 436.843 163.736 435.771 163.736C434.667 163.736 433.707 163.496 432.891 163.016C432.091 162.52 431.467 161.824 431.019 160.928C430.587 160.016 430.371 158.944 430.371 157.712C430.371 156.496 430.587 155.44 431.019 154.544C431.467 153.648 432.091 152.96 432.891 152.48C433.707 151.984 434.667 151.736 435.771 151.736C436.859 151.736 437.795 152.008 438.579 152.552C439.379 153.096 439.907 153.848 440.163 154.808L439.923 154.568L440.139 151.952H442.035C441.971 152.416 441.923 152.888 441.891 153.368C441.859 153.832 441.843 154.288 441.843 154.736V163.928C441.843 165.72 441.379 167.072 440.451 167.984C439.539 168.896 438.195 169.352 436.419 169.352ZM436.131 162.152C437.299 162.152 438.219 161.768 438.891 161C439.563 160.216 439.899 159.12 439.899 157.712C439.899 156.304 439.563 155.216 438.891 154.448C438.219 153.68 437.299 153.296 436.131 153.296C434.979 153.296 434.059 153.68 433.371 154.448C432.683 155.216 432.339 156.304 432.339 157.712C432.339 159.12 432.683 160.216 433.371 161C434.059 161.768 434.979 162.152 436.131 162.152Z" fill="black"/>
</svg>
