<svg width="667" height="541" viewBox="0 0 667 541" fill="none" xmlns="http://www.w3.org/2000/svg">
<rect x="1" y="1.32422" width="665" height="538" stroke="#D3D6D7" stroke-width="2"/>
<rect x="2" y="2.32422" width="663" height="536" fill="#FDFDFD"/>
<rect x="189" y="55.3242" width="288" height="250" rx="14" fill="url(#paint0_linear_700_166)"/>
<rect x="198" y="61.3242" width="272" height="237" rx="10" fill="black"/>
<rect x="216" y="79.3242" width="237" height="201" fill="url(#paint1_linear_700_166)"/>
<path d="M231.414 135.629V125.082L260.711 115.98V115.277L231.414 106.176V95.6289L271.414 110.395V120.863L231.414 135.629Z" fill="white"/>
<path d="M271 143.324H311.5" stroke="white" stroke-width="8"/>
<path d="M257.951 394.355V431.324H253.127V394.355H257.951ZM269.834 394.355V398.367H241.27V394.355H269.834ZM281.389 431.832C279.476 431.832 277.741 431.51 276.184 430.867C274.643 430.207 273.315 429.285 272.197 428.1C271.097 426.915 270.251 425.51 269.658 423.885C269.066 422.26 268.77 420.482 268.77 418.553V417.486C268.77 415.252 269.1 413.263 269.76 411.52C270.42 409.759 271.317 408.27 272.451 407.051C273.585 405.832 274.872 404.91 276.311 404.283C277.749 403.657 279.239 403.344 280.779 403.344C282.743 403.344 284.436 403.682 285.858 404.359C287.296 405.036 288.473 405.984 289.387 407.203C290.301 408.405 290.978 409.827 291.418 411.469C291.858 413.094 292.078 414.871 292.078 416.801V418.908H271.563V415.074H287.381V414.719C287.313 413.5 287.059 412.315 286.619 411.164C286.196 410.013 285.519 409.065 284.588 408.32C283.657 407.576 282.387 407.203 280.779 407.203C279.713 407.203 278.731 407.432 277.834 407.889C276.937 408.329 276.167 408.989 275.524 409.869C274.88 410.749 274.381 411.824 274.025 413.094C273.67 414.363 273.492 415.827 273.492 417.486V418.553C273.492 419.856 273.67 421.083 274.025 422.234C274.398 423.368 274.931 424.367 275.625 425.23C276.336 426.094 277.191 426.771 278.19 427.262C279.205 427.753 280.356 427.998 281.643 427.998C283.302 427.998 284.706 427.66 285.858 426.982C287.009 426.305 288.016 425.4 288.879 424.266L291.723 426.525C291.13 427.423 290.377 428.277 289.463 429.09C288.549 429.902 287.423 430.562 286.086 431.07C284.766 431.578 283.2 431.832 281.389 431.832ZM300.18 408.168V431.324H295.483V403.852H300.053L300.18 408.168ZM308.762 403.699L308.736 408.066C308.347 407.982 307.975 407.931 307.619 407.914C307.281 407.88 306.891 407.863 306.451 407.863C305.368 407.863 304.412 408.033 303.582 408.371C302.753 408.71 302.05 409.184 301.475 409.793C300.899 410.402 300.442 411.13 300.104 411.977C299.782 412.806 299.57 413.72 299.469 414.719L298.149 415.48C298.149 413.822 298.309 412.264 298.631 410.809C298.97 409.353 299.486 408.066 300.18 406.949C300.874 405.815 301.754 404.935 302.82 404.309C303.904 403.665 305.19 403.344 306.68 403.344C307.018 403.344 307.408 403.386 307.848 403.471C308.288 403.538 308.593 403.615 308.762 403.699ZM315.696 409.311V431.324H310.973V403.852H315.442L315.696 409.311ZM314.731 416.547L312.547 416.471C312.564 414.592 312.809 412.857 313.283 411.266C313.757 409.658 314.46 408.261 315.391 407.076C316.322 405.891 317.481 404.977 318.869 404.334C320.257 403.674 321.865 403.344 323.694 403.344C324.98 403.344 326.165 403.53 327.248 403.902C328.332 404.258 329.271 404.825 330.067 405.604C330.862 406.382 331.48 407.381 331.92 408.6C332.36 409.818 332.58 411.291 332.58 413.018V431.324H327.883V413.246C327.883 411.807 327.638 410.656 327.147 409.793C326.673 408.93 325.996 408.303 325.115 407.914C324.235 407.508 323.203 407.305 322.018 407.305C320.63 407.305 319.47 407.55 318.539 408.041C317.608 408.532 316.864 409.209 316.305 410.072C315.746 410.936 315.34 411.926 315.086 413.043C314.849 414.143 314.731 415.311 314.731 416.547ZM332.53 413.957L329.381 414.922C329.398 413.415 329.643 411.968 330.117 410.58C330.608 409.192 331.311 407.956 332.225 406.873C333.156 405.79 334.298 404.935 335.653 404.309C337.007 403.665 338.556 403.344 340.299 403.344C341.772 403.344 343.075 403.538 344.209 403.928C345.36 404.317 346.325 404.918 347.104 405.73C347.899 406.526 348.5 407.55 348.906 408.803C349.313 410.055 349.516 411.545 349.516 413.271V431.324H344.793V413.221C344.793 411.68 344.548 410.487 344.057 409.641C343.583 408.777 342.906 408.176 342.026 407.838C341.162 407.482 340.13 407.305 338.928 407.305C337.895 407.305 336.981 407.482 336.186 407.838C335.39 408.193 334.722 408.684 334.18 409.311C333.638 409.92 333.224 410.622 332.936 411.418C332.665 412.214 332.53 413.06 332.53 413.957ZM359.649 403.852V431.324H354.926V403.852H359.649ZM354.571 396.564C354.571 395.803 354.799 395.16 355.256 394.635C355.73 394.11 356.424 393.848 357.338 393.848C358.235 393.848 358.921 394.11 359.395 394.635C359.886 395.16 360.131 395.803 360.131 396.564C360.131 397.292 359.886 397.919 359.395 398.443C358.921 398.951 358.235 399.205 357.338 399.205C356.424 399.205 355.73 398.951 355.256 398.443C354.799 397.919 354.571 397.292 354.571 396.564ZM369.807 409.717V431.324H365.11V403.852H369.553L369.807 409.717ZM368.69 416.547L366.735 416.471C366.752 414.592 367.031 412.857 367.573 411.266C368.114 409.658 368.876 408.261 369.858 407.076C370.84 405.891 372.008 404.977 373.362 404.334C374.733 403.674 376.248 403.344 377.907 403.344C379.261 403.344 380.48 403.53 381.563 403.902C382.646 404.258 383.569 404.833 384.33 405.629C385.109 406.424 385.702 407.457 386.108 408.727C386.514 409.979 386.717 411.511 386.717 413.322V431.324H381.995V413.271C381.995 411.833 381.783 410.682 381.36 409.818C380.937 408.938 380.319 408.303 379.506 407.914C378.694 407.508 377.695 407.305 376.51 407.305C375.342 407.305 374.276 407.55 373.311 408.041C372.363 408.532 371.542 409.209 370.848 410.072C370.171 410.936 369.638 411.926 369.248 413.043C368.876 414.143 368.69 415.311 368.69 416.547ZM407.971 426.627V412.484C407.971 411.401 407.751 410.462 407.311 409.666C406.888 408.854 406.245 408.227 405.381 407.787C404.518 407.347 403.452 407.127 402.182 407.127C400.997 407.127 399.956 407.33 399.059 407.736C398.179 408.143 397.485 408.676 396.977 409.336C396.486 409.996 396.241 410.707 396.241 411.469H391.543C391.543 410.487 391.797 409.514 392.305 408.549C392.813 407.584 393.541 406.712 394.489 405.934C395.454 405.138 396.605 404.512 397.942 404.055C399.296 403.581 400.803 403.344 402.461 403.344C404.459 403.344 406.219 403.682 407.743 404.359C409.283 405.036 410.485 406.061 411.348 407.432C412.228 408.786 412.668 410.487 412.668 412.535V425.332C412.668 426.246 412.745 427.219 412.897 428.252C413.066 429.285 413.312 430.173 413.633 430.918V431.324H408.733C408.496 430.783 408.31 430.063 408.174 429.166C408.039 428.252 407.971 427.406 407.971 426.627ZM408.784 414.668L408.834 417.969H404.086C402.749 417.969 401.556 418.079 400.506 418.299C399.457 418.502 398.577 418.815 397.866 419.238C397.155 419.661 396.613 420.195 396.241 420.838C395.868 421.464 395.682 422.201 395.682 423.047C395.682 423.91 395.877 424.697 396.266 425.408C396.655 426.119 397.239 426.686 398.018 427.109C398.814 427.516 399.787 427.719 400.938 427.719C402.377 427.719 403.646 427.414 404.747 426.805C405.847 426.195 406.719 425.451 407.362 424.57C408.022 423.69 408.377 422.835 408.428 422.006L410.434 424.266C410.316 424.977 409.994 425.764 409.469 426.627C408.944 427.49 408.242 428.32 407.362 429.115C406.499 429.894 405.466 430.546 404.264 431.07C403.079 431.578 401.742 431.832 400.252 431.832C398.39 431.832 396.757 431.468 395.352 430.74C393.964 430.012 392.881 429.039 392.102 427.82C391.34 426.585 390.959 425.205 390.959 423.682C390.959 422.209 391.247 420.914 391.823 419.797C392.398 418.663 393.228 417.723 394.311 416.979C395.394 416.217 396.698 415.641 398.221 415.252C399.745 414.863 401.446 414.668 403.325 414.668H408.784ZM423.081 392.324V431.324H418.358V392.324H423.081Z" fill="#292B2F"/>
<path d="M247.984 473.871L254.688 454.574H257.953L249.531 477.324H247.203L247.984 473.871ZM241.719 454.574L248.359 473.871L249.188 477.324H246.859L238.453 454.574H241.719ZM267.226 477.637C266.049 477.637 264.981 477.439 264.023 477.043C263.075 476.637 262.257 476.069 261.57 475.34C260.893 474.611 260.372 473.746 260.007 472.746C259.643 471.746 259.461 470.652 259.461 469.465V468.809C259.461 467.434 259.664 466.21 260.07 465.137C260.476 464.053 261.028 463.137 261.726 462.387C262.424 461.637 263.216 461.069 264.101 460.684C264.987 460.298 265.903 460.105 266.851 460.105C268.06 460.105 269.101 460.314 269.976 460.73C270.862 461.147 271.586 461.73 272.148 462.48C272.711 463.22 273.127 464.095 273.398 465.105C273.669 466.105 273.804 467.199 273.804 468.387V469.684H261.179V467.324H270.914V467.105C270.872 466.355 270.716 465.626 270.445 464.918C270.185 464.21 269.768 463.626 269.195 463.168C268.622 462.71 267.841 462.48 266.851 462.48C266.195 462.48 265.591 462.621 265.039 462.902C264.487 463.173 264.013 463.579 263.617 464.121C263.221 464.663 262.914 465.324 262.695 466.105C262.476 466.887 262.367 467.788 262.367 468.809V469.465C262.367 470.267 262.476 471.022 262.695 471.73C262.924 472.428 263.252 473.043 263.679 473.574C264.117 474.105 264.643 474.522 265.257 474.824C265.882 475.126 266.591 475.277 267.382 475.277C268.403 475.277 269.268 475.069 269.976 474.652C270.685 474.236 271.304 473.678 271.836 472.98L273.586 474.371C273.221 474.923 272.757 475.449 272.195 475.949C271.632 476.449 270.94 476.855 270.117 477.168C269.304 477.48 268.341 477.637 267.226 477.637ZM280.39 463.074V477.324H277.499V460.418H280.312L280.39 463.074ZM285.671 460.324L285.656 463.012C285.416 462.96 285.187 462.928 284.968 462.918C284.76 462.897 284.52 462.887 284.249 462.887C283.583 462.887 282.994 462.991 282.484 463.199C281.973 463.408 281.541 463.699 281.187 464.074C280.833 464.449 280.551 464.897 280.343 465.418C280.145 465.928 280.015 466.491 279.952 467.105L279.14 467.574C279.14 466.553 279.239 465.595 279.437 464.699C279.645 463.803 279.963 463.012 280.39 462.324C280.817 461.626 281.359 461.085 282.015 460.699C282.682 460.303 283.473 460.105 284.39 460.105C284.598 460.105 284.838 460.132 285.109 460.184C285.38 460.225 285.567 460.272 285.671 460.324ZM298.507 472.84C298.507 472.423 298.413 472.038 298.226 471.684C298.049 471.319 297.679 470.991 297.116 470.699C296.564 470.397 295.731 470.137 294.616 469.918C293.679 469.72 292.83 469.486 292.069 469.215C291.319 468.944 290.679 468.616 290.147 468.23C289.627 467.845 289.226 467.392 288.944 466.871C288.663 466.35 288.522 465.741 288.522 465.043C288.522 464.376 288.668 463.746 288.96 463.152C289.262 462.559 289.684 462.033 290.226 461.574C290.778 461.116 291.439 460.757 292.21 460.496C292.981 460.236 293.84 460.105 294.788 460.105C296.142 460.105 297.299 460.345 298.257 460.824C299.215 461.303 299.95 461.944 300.46 462.746C300.97 463.538 301.226 464.418 301.226 465.387H298.335C298.335 464.918 298.194 464.465 297.913 464.027C297.642 463.579 297.241 463.21 296.71 462.918C296.189 462.626 295.549 462.48 294.788 462.48C293.986 462.48 293.335 462.605 292.835 462.855C292.345 463.095 291.986 463.402 291.757 463.777C291.538 464.152 291.429 464.548 291.429 464.965C291.429 465.277 291.481 465.559 291.585 465.809C291.7 466.048 291.897 466.272 292.179 466.48C292.46 466.678 292.856 466.866 293.366 467.043C293.877 467.22 294.528 467.397 295.319 467.574C296.705 467.887 297.845 468.262 298.741 468.699C299.637 469.137 300.304 469.673 300.741 470.309C301.179 470.944 301.397 471.715 301.397 472.621C301.397 473.361 301.241 474.038 300.929 474.652C300.627 475.267 300.184 475.798 299.601 476.246C299.028 476.684 298.34 477.027 297.538 477.277C296.746 477.517 295.856 477.637 294.866 477.637C293.377 477.637 292.116 477.371 291.085 476.84C290.054 476.309 289.272 475.621 288.741 474.777C288.21 473.934 287.944 473.043 287.944 472.105H290.851C290.892 472.897 291.121 473.527 291.538 473.996C291.955 474.454 292.465 474.783 293.069 474.98C293.674 475.168 294.272 475.262 294.866 475.262C295.658 475.262 296.319 475.158 296.851 474.949C297.392 474.741 297.804 474.454 298.085 474.09C298.366 473.725 298.507 473.309 298.507 472.84ZM308.655 460.418V477.324H305.749V460.418H308.655ZM305.53 455.934C305.53 455.465 305.671 455.069 305.952 454.746C306.244 454.423 306.671 454.262 307.233 454.262C307.785 454.262 308.207 454.423 308.499 454.746C308.801 455.069 308.952 455.465 308.952 455.934C308.952 456.382 308.801 456.767 308.499 457.09C308.207 457.402 307.785 457.559 307.233 457.559C306.671 457.559 306.244 457.402 305.952 457.09C305.671 456.767 305.53 456.382 305.53 455.934ZM312.85 469.059V468.699C312.85 467.48 313.027 466.35 313.381 465.309C313.735 464.257 314.246 463.345 314.912 462.574C315.579 461.793 316.386 461.189 317.334 460.762C318.282 460.324 319.345 460.105 320.522 460.105C321.709 460.105 322.777 460.324 323.725 460.762C324.683 461.189 325.496 461.793 326.162 462.574C326.84 463.345 327.355 464.257 327.709 465.309C328.064 466.35 328.241 467.48 328.241 468.699V469.059C328.241 470.277 328.064 471.408 327.709 472.449C327.355 473.491 326.84 474.402 326.162 475.184C325.496 475.954 324.689 476.559 323.741 476.996C322.803 477.423 321.741 477.637 320.553 477.637C319.366 477.637 318.298 477.423 317.35 476.996C316.402 476.559 315.59 475.954 314.912 475.184C314.246 474.402 313.735 473.491 313.381 472.449C313.027 471.408 312.85 470.277 312.85 469.059ZM315.741 468.699V469.059C315.741 469.902 315.84 470.699 316.037 471.449C316.235 472.189 316.532 472.845 316.928 473.418C317.334 473.991 317.84 474.444 318.444 474.777C319.048 475.1 319.751 475.262 320.553 475.262C321.345 475.262 322.037 475.1 322.631 474.777C323.235 474.444 323.735 473.991 324.131 473.418C324.527 472.845 324.824 472.189 325.022 471.449C325.23 470.699 325.334 469.902 325.334 469.059V468.699C325.334 467.866 325.23 467.079 325.022 466.34C324.824 465.59 324.522 464.928 324.116 464.355C323.72 463.772 323.22 463.314 322.616 462.98C322.022 462.647 321.324 462.48 320.522 462.48C319.73 462.48 319.032 462.647 318.428 462.98C317.834 463.314 317.334 463.772 316.928 464.355C316.532 464.928 316.235 465.59 316.037 466.34C315.84 467.079 315.741 467.866 315.741 468.699ZM335.076 464.027V477.324H332.186V460.418H334.92L335.076 464.027ZM334.389 468.23L333.186 468.184C333.196 467.027 333.368 465.96 333.701 464.98C334.035 463.991 334.503 463.132 335.107 462.402C335.712 461.673 336.43 461.111 337.264 460.715C338.107 460.309 339.04 460.105 340.061 460.105C340.894 460.105 341.644 460.22 342.311 460.449C342.977 460.668 343.545 461.022 344.014 461.512C344.493 462.001 344.857 462.637 345.107 463.418C345.357 464.189 345.482 465.132 345.482 466.246V477.324H342.576V466.215C342.576 465.329 342.446 464.621 342.186 464.09C341.925 463.548 341.545 463.158 341.045 462.918C340.545 462.668 339.93 462.543 339.201 462.543C338.482 462.543 337.826 462.694 337.232 462.996C336.649 463.298 336.144 463.715 335.717 464.246C335.3 464.777 334.972 465.387 334.732 466.074C334.503 466.751 334.389 467.47 334.389 468.23ZM350.068 475.793C350.068 475.303 350.219 474.892 350.521 474.559C350.834 474.215 351.282 474.043 351.865 474.043C352.448 474.043 352.891 474.215 353.193 474.559C353.506 474.892 353.662 475.303 353.662 475.793C353.662 476.272 353.506 476.678 353.193 477.012C352.891 477.345 352.448 477.512 351.865 477.512C351.282 477.512 350.834 477.345 350.521 477.012C350.219 476.678 350.068 476.272 350.068 475.793ZM350.084 461.996C350.084 461.507 350.235 461.095 350.537 460.762C350.849 460.418 351.297 460.246 351.881 460.246C352.464 460.246 352.907 460.418 353.209 460.762C353.521 461.095 353.677 461.507 353.677 461.996C353.677 462.475 353.521 462.882 353.209 463.215C352.907 463.548 352.464 463.715 351.881 463.715C351.297 463.715 350.849 463.548 350.537 463.215C350.235 462.882 350.084 462.475 350.084 461.996ZM381.114 474.949V477.324H366.224V475.246L373.677 466.949C374.594 465.928 375.302 465.064 375.802 464.355C376.312 463.637 376.666 462.996 376.864 462.434C377.073 461.861 377.177 461.277 377.177 460.684C377.177 459.934 377.021 459.257 376.708 458.652C376.406 458.038 375.958 457.548 375.364 457.184C374.771 456.819 374.052 456.637 373.208 456.637C372.198 456.637 371.354 456.835 370.677 457.23C370.01 457.616 369.51 458.158 369.177 458.855C368.844 459.553 368.677 460.355 368.677 461.262H365.786C365.786 459.98 366.067 458.809 366.63 457.746C367.192 456.684 368.026 455.84 369.13 455.215C370.234 454.579 371.594 454.262 373.208 454.262C374.646 454.262 375.875 454.517 376.896 455.027C377.916 455.527 378.698 456.236 379.239 457.152C379.791 458.059 380.067 459.121 380.067 460.34C380.067 461.007 379.953 461.684 379.724 462.371C379.505 463.048 379.198 463.725 378.802 464.402C378.416 465.079 377.963 465.746 377.442 466.402C376.932 467.059 376.385 467.704 375.802 468.34L369.708 474.949H381.114ZM384.887 475.793C384.887 475.303 385.039 474.892 385.341 474.559C385.653 474.215 386.101 474.043 386.684 474.043C387.268 474.043 387.71 474.215 388.012 474.559C388.325 474.892 388.481 475.303 388.481 475.793C388.481 476.272 388.325 476.678 388.012 477.012C387.71 477.345 387.268 477.512 386.684 477.512C386.101 477.512 385.653 477.345 385.341 477.012C385.039 476.678 384.887 476.272 384.887 475.793ZM407.989 454.574V456.199L398.567 477.324H395.52L404.926 456.949H392.614V454.574H407.989ZM415.824 464.527H417.887C418.897 464.527 419.731 464.361 420.387 464.027C421.054 463.684 421.548 463.22 421.871 462.637C422.205 462.043 422.371 461.376 422.371 460.637C422.371 459.762 422.225 459.027 421.934 458.434C421.642 457.84 421.205 457.392 420.621 457.09C420.038 456.788 419.298 456.637 418.402 456.637C417.59 456.637 416.871 456.798 416.246 457.121C415.632 457.434 415.147 457.882 414.793 458.465C414.449 459.048 414.277 459.736 414.277 460.527H411.387C411.387 459.371 411.679 458.319 412.262 457.371C412.845 456.423 413.663 455.668 414.715 455.105C415.777 454.543 417.007 454.262 418.402 454.262C419.777 454.262 420.981 454.507 422.012 454.996C423.043 455.475 423.845 456.194 424.418 457.152C424.991 458.1 425.277 459.283 425.277 460.699C425.277 461.272 425.142 461.887 424.871 462.543C424.611 463.189 424.199 463.793 423.637 464.355C423.085 464.918 422.366 465.382 421.481 465.746C420.595 466.1 419.533 466.277 418.293 466.277H415.824V464.527ZM415.824 466.902V465.168H418.293C419.741 465.168 420.939 465.34 421.887 465.684C422.835 466.027 423.58 466.486 424.121 467.059C424.673 467.632 425.059 468.262 425.277 468.949C425.507 469.626 425.621 470.303 425.621 470.98C425.621 472.043 425.439 472.986 425.074 473.809C424.72 474.632 424.215 475.329 423.559 475.902C422.913 476.475 422.152 476.908 421.277 477.199C420.402 477.491 419.449 477.637 418.418 477.637C417.429 477.637 416.496 477.496 415.621 477.215C414.757 476.934 413.991 476.527 413.324 475.996C412.658 475.454 412.137 474.793 411.762 474.012C411.387 473.22 411.199 472.319 411.199 471.309H414.09C414.09 472.1 414.262 472.793 414.606 473.387C414.96 473.98 415.46 474.444 416.106 474.777C416.762 475.1 417.533 475.262 418.418 475.262C419.304 475.262 420.064 475.111 420.699 474.809C421.345 474.496 421.84 474.027 422.184 473.402C422.538 472.777 422.715 471.991 422.715 471.043C422.715 470.095 422.517 469.319 422.121 468.715C421.725 468.1 421.163 467.647 420.434 467.355C419.715 467.053 418.866 466.902 417.887 466.902H415.824Z" fill="#79787D"/>
<defs>
<linearGradient id="paint0_linear_700_166" x1="189" y1="55.3242" x2="477.228" y2="305.061" gradientUnits="userSpaceOnUse">
<stop stop-color="#DEE0E2"/>
<stop offset="1" stop-color="#757275"/>
</linearGradient>
<linearGradient id="paint1_linear_700_166" x1="453" y1="79.3242" x2="221.313" y2="286.273" gradientUnits="userSpaceOnUse">
<stop stop-color="#262626"/>
<stop offset="1" stop-color="#262626"/>
</linearGradient>
</defs>
</svg>
