<svg width="215" height="136" viewBox="0 0 215 136" fill="none" xmlns="http://www.w3.org/2000/svg">
<g clip-path="url(#clip0_767_2174)">
<rect width="215" height="136" fill="#F4F4F4"/>
<mask id="mask0_767_2174" style="mask-type:luminance" maskUnits="userSpaceOnUse" x="0" y="0" width="215" height="136">
<path d="M215 0H0V136H215V0Z" fill="white"/>
</mask>
<g mask="url(#mask0_767_2174)">
<path fill-rule="evenodd" clip-rule="evenodd" d="M2.1499 1.43158C2.1499 0.640939 2.79163 0 3.58324 0H10.0333C10.8249 0 11.4666 0.640939 11.4666 1.43158C11.4666 2.22222 10.8249 2.86316 10.0333 2.86316H3.58324C2.79163 2.86316 2.1499 2.22222 2.1499 1.43158Z" fill="#D3D6D7"/>
<path fill-rule="evenodd" clip-rule="evenodd" d="M2.1499 1.43158C2.1499 0.640939 2.79163 0 3.58324 0H10.0333C10.8249 0 11.4666 0.640939 11.4666 1.43158C11.4666 2.22222 10.8249 2.86316 10.0333 2.86316H3.58324C2.79163 2.86316 2.1499 2.22222 2.1499 1.43158Z" fill="black" fill-opacity="0.2"/>
<path fill-rule="evenodd" clip-rule="evenodd" d="M17.2002 1.43158C17.2002 0.640939 17.842 0 18.6336 0H25.0836C25.8753 0 26.5169 0.640939 26.5169 1.43158C26.5169 2.22222 25.8753 2.86316 25.0836 2.86316H18.6336C17.842 2.86316 17.2002 2.22222 17.2002 1.43158Z" fill="#D3D6D7"/>
<path fill-rule="evenodd" clip-rule="evenodd" d="M17.2002 1.43158C17.2002 0.640939 17.842 0 18.6336 0H25.0836C25.8753 0 26.5169 0.640939 26.5169 1.43158C26.5169 2.22222 25.8753 2.86316 25.0836 2.86316H18.6336C17.842 2.86316 17.2002 2.22222 17.2002 1.43158Z" fill="black" fill-opacity="0.2"/>
<path fill-rule="evenodd" clip-rule="evenodd" d="M32.25 1.43158C32.25 0.640939 32.8918 0 33.6834 0H40.1334C40.925 0 41.5667 0.640939 41.5667 1.43158C41.5667 2.22222 40.925 2.86316 40.1334 2.86316H33.6834C32.8918 2.86316 32.25 2.22222 32.25 1.43158Z" fill="#D3D6D7"/>
<path fill-rule="evenodd" clip-rule="evenodd" d="M32.25 1.43158C32.25 0.640939 32.8918 0 33.6834 0H40.1334C40.925 0 41.5667 0.640939 41.5667 1.43158C41.5667 2.22222 40.925 2.86316 40.1334 2.86316H33.6834C32.8918 2.86316 32.25 2.22222 32.25 1.43158Z" fill="black" fill-opacity="0.2"/>
<path fill-rule="evenodd" clip-rule="evenodd" d="M47.3003 1.43158C47.3003 0.640939 47.9421 0 48.7337 0H55.1837C55.9752 0 56.617 0.640939 56.617 1.43158C56.617 2.22222 55.9752 2.86316 55.1837 2.86316H48.7337C47.9421 2.86316 47.3003 2.22222 47.3003 1.43158Z" fill="#D3D6D7"/>
<path fill-rule="evenodd" clip-rule="evenodd" d="M47.3003 1.43158C47.3003 0.640939 47.9421 0 48.7337 0H55.1837C55.9752 0 56.617 0.640939 56.617 1.43158C56.617 2.22222 55.9752 2.86316 55.1837 2.86316H48.7337C47.9421 2.86316 47.3003 2.22222 47.3003 1.43158Z" fill="black" fill-opacity="0.2"/>
<path fill-rule="evenodd" clip-rule="evenodd" d="M62.3501 1.43158C62.3501 0.640939 62.9919 0 63.7835 0H70.2335C71.0251 0 71.6667 0.640939 71.6667 1.43158C71.6667 2.22222 71.0251 2.86316 70.2335 2.86316H63.7835C62.9919 2.86316 62.3501 2.22222 62.3501 1.43158Z" fill="#D3D6D7"/>
<path fill-rule="evenodd" clip-rule="evenodd" d="M62.3501 1.43158C62.3501 0.640939 62.9919 0 63.7835 0H70.2335C71.0251 0 71.6667 0.640939 71.6667 1.43158C71.6667 2.22222 71.0251 2.86316 70.2335 2.86316H63.7835C62.9919 2.86316 62.3501 2.22222 62.3501 1.43158Z" fill="black" fill-opacity="0.2"/>
<path fill-rule="evenodd" clip-rule="evenodd" d="M77.4004 1.43158C77.4004 0.640939 78.0422 0 78.8337 0H85.2837C86.0753 0 86.717 0.640939 86.717 1.43158C86.717 2.22222 86.0753 2.86316 85.2837 2.86316H78.8337C78.0422 2.86316 77.4004 2.22222 77.4004 1.43158Z" fill="#D3D6D7"/>
<path fill-rule="evenodd" clip-rule="evenodd" d="M77.4004 1.43158C77.4004 0.640939 78.0422 0 78.8337 0H85.2837C86.0753 0 86.717 0.640939 86.717 1.43158C86.717 2.22222 86.0753 2.86316 85.2837 2.86316H78.8337C78.0422 2.86316 77.4004 2.22222 77.4004 1.43158Z" fill="black" fill-opacity="0.2"/>
<path fill-rule="evenodd" clip-rule="evenodd" d="M92.4502 1.43158C92.4502 0.640939 93.092 0 93.8836 0H100.334C101.125 0 101.767 0.640939 101.767 1.43158C101.767 2.22222 101.125 2.86316 100.334 2.86316H93.8836C93.092 2.86316 92.4502 2.22222 92.4502 1.43158Z" fill="#D3D6D7"/>
<path fill-rule="evenodd" clip-rule="evenodd" d="M92.4502 1.43158C92.4502 0.640939 93.092 0 93.8836 0H100.334C101.125 0 101.767 0.640939 101.767 1.43158C101.767 2.22222 101.125 2.86316 100.334 2.86316H93.8836C93.092 2.86316 92.4502 2.22222 92.4502 1.43158Z" fill="black" fill-opacity="0.2"/>
<path fill-rule="evenodd" clip-rule="evenodd" d="M107.5 1.43158C107.5 0.640939 108.142 0 108.934 0H115.384C116.176 0 116.817 0.640939 116.817 1.43158C116.817 2.22222 116.176 2.86316 115.384 2.86316H108.934C108.142 2.86316 107.5 2.22222 107.5 1.43158Z" fill="#D3D6D7"/>
<path fill-rule="evenodd" clip-rule="evenodd" d="M107.5 1.43158C107.5 0.640939 108.142 0 108.934 0H115.384C116.176 0 116.817 0.640939 116.817 1.43158C116.817 2.22222 116.176 2.86316 115.384 2.86316H108.934C108.142 2.86316 107.5 2.22222 107.5 1.43158Z" fill="black" fill-opacity="0.2"/>
<path fill-rule="evenodd" clip-rule="evenodd" d="M122.551 1.43158C122.551 0.640939 123.193 0 123.985 0H130.434C131.225 0 131.867 0.640939 131.867 1.43158C131.867 2.22222 131.225 2.86316 130.434 2.86316H123.985C123.193 2.86316 122.551 2.22222 122.551 1.43158Z" fill="#D3D6D7"/>
<path fill-rule="evenodd" clip-rule="evenodd" d="M122.551 1.43158C122.551 0.640939 123.193 0 123.985 0H130.434C131.225 0 131.867 0.640939 131.867 1.43158C131.867 2.22222 131.225 2.86316 130.434 2.86316H123.985C123.193 2.86316 122.551 2.22222 122.551 1.43158Z" fill="black" fill-opacity="0.2"/>
<path fill-rule="evenodd" clip-rule="evenodd" d="M137.601 1.43158C137.601 0.640939 138.243 0 139.034 0H145.484C146.276 0 146.918 0.640939 146.918 1.43158C146.918 2.22222 146.276 2.86316 145.484 2.86316H139.034C138.243 2.86316 137.601 2.22222 137.601 1.43158Z" fill="#D3D6D7"/>
<path fill-rule="evenodd" clip-rule="evenodd" d="M137.601 1.43158C137.601 0.640939 138.243 0 139.034 0H145.484C146.276 0 146.918 0.640939 146.918 1.43158C146.918 2.22222 146.276 2.86316 145.484 2.86316H139.034C138.243 2.86316 137.601 2.22222 137.601 1.43158Z" fill="black" fill-opacity="0.2"/>
<path fill-rule="evenodd" clip-rule="evenodd" d="M152.65 1.43158C152.65 0.640939 153.292 0 154.084 0H160.534C161.325 0 161.967 0.640939 161.967 1.43158C161.967 2.22222 161.325 2.86316 160.534 2.86316H154.084C153.292 2.86316 152.65 2.22222 152.65 1.43158Z" fill="#D3D6D7"/>
<path fill-rule="evenodd" clip-rule="evenodd" d="M152.65 1.43158C152.65 0.640939 153.292 0 154.084 0H160.534C161.325 0 161.967 0.640939 161.967 1.43158C161.967 2.22222 161.325 2.86316 160.534 2.86316H154.084C153.292 2.86316 152.65 2.22222 152.65 1.43158Z" fill="black" fill-opacity="0.2"/>
<path fill-rule="evenodd" clip-rule="evenodd" d="M167.701 1.43158C167.701 0.640939 168.343 0 169.134 0H175.584C176.376 0 177.018 0.640939 177.018 1.43158C177.018 2.22222 176.376 2.86316 175.584 2.86316H169.134C168.343 2.86316 167.701 2.22222 167.701 1.43158Z" fill="#D3D6D7"/>
<path fill-rule="evenodd" clip-rule="evenodd" d="M167.701 1.43158C167.701 0.640939 168.343 0 169.134 0H175.584C176.376 0 177.018 0.640939 177.018 1.43158C177.018 2.22222 176.376 2.86316 175.584 2.86316H169.134C168.343 2.86316 167.701 2.22222 167.701 1.43158Z" fill="black" fill-opacity="0.2"/>
<path fill-rule="evenodd" clip-rule="evenodd" d="M182.75 1.43158C182.75 0.640939 183.392 0 184.184 0H190.634C191.426 0 192.068 0.640939 192.068 1.43158C192.068 2.22222 191.426 2.86316 190.634 2.86316H184.184C183.392 2.86316 182.75 2.22222 182.75 1.43158Z" fill="#D3D6D7"/>
<path fill-rule="evenodd" clip-rule="evenodd" d="M182.75 1.43158C182.75 0.640939 183.392 0 184.184 0H190.634C191.426 0 192.068 0.640939 192.068 1.43158C192.068 2.22222 191.426 2.86316 190.634 2.86316H184.184C183.392 2.86316 182.75 2.22222 182.75 1.43158Z" fill="black" fill-opacity="0.2"/>
<path fill-rule="evenodd" clip-rule="evenodd" d="M197.801 1.43158C197.801 0.640939 198.443 0 199.234 0H205.684C206.475 0 207.117 0.640939 207.117 1.43158C207.117 2.22222 206.475 2.86316 205.684 2.86316H199.234C198.443 2.86316 197.801 2.22222 197.801 1.43158Z" fill="#D3D6D7"/>
<path fill-rule="evenodd" clip-rule="evenodd" d="M197.801 1.43158C197.801 0.640939 198.443 0 199.234 0H205.684C206.475 0 207.117 0.640939 207.117 1.43158C207.117 2.22222 206.475 2.86316 205.684 2.86316H199.234C198.443 2.86316 197.801 2.22222 197.801 1.43158Z" fill="black" fill-opacity="0.2"/>
<path fill-rule="evenodd" clip-rule="evenodd" d="M5.0166 134.568C5.0166 133.778 5.65834 133.137 6.44994 133.137H12.9C13.6915 133.137 14.3333 133.778 14.3333 134.568C14.3333 135.359 13.6915 136 12.9 136H6.44994C5.65834 136 5.0166 135.359 5.0166 134.568Z" fill="#D3D6D7"/>
<path fill-rule="evenodd" clip-rule="evenodd" d="M5.0166 134.568C5.0166 133.778 5.65834 133.137 6.44994 133.137H12.9C13.6915 133.137 14.3333 133.778 14.3333 134.568C14.3333 135.359 13.6915 136 12.9 136H6.44994C5.65834 136 5.0166 135.359 5.0166 134.568Z" fill="black" fill-opacity="0.2"/>
<path fill-rule="evenodd" clip-rule="evenodd" d="M20.0669 134.568C20.0669 133.778 20.7087 133.137 21.5003 133.137H27.9503C28.7419 133.137 29.3836 133.778 29.3836 134.568C29.3836 135.359 28.7419 136 27.9503 136H21.5003C20.7087 136 20.0669 135.359 20.0669 134.568Z" fill="#D3D6D7"/>
<path fill-rule="evenodd" clip-rule="evenodd" d="M20.0669 134.568C20.0669 133.778 20.7087 133.137 21.5003 133.137H27.9503C28.7419 133.137 29.3836 133.778 29.3836 134.568C29.3836 135.359 28.7419 136 27.9503 136H21.5003C20.7087 136 20.0669 135.359 20.0669 134.568Z" fill="black" fill-opacity="0.2"/>
<path fill-rule="evenodd" clip-rule="evenodd" d="M35.1167 134.568C35.1167 133.778 35.7584 133.137 36.5501 133.137H43.0001C43.7917 133.137 44.4333 133.778 44.4333 134.568C44.4333 135.359 43.7917 136 43.0001 136H36.5501C35.7584 136 35.1167 135.359 35.1167 134.568Z" fill="#D3D6D7"/>
<path fill-rule="evenodd" clip-rule="evenodd" d="M35.1167 134.568C35.1167 133.778 35.7584 133.137 36.5501 133.137H43.0001C43.7917 133.137 44.4333 133.778 44.4333 134.568C44.4333 135.359 43.7917 136 43.0001 136H36.5501C35.7584 136 35.1167 135.359 35.1167 134.568Z" fill="black" fill-opacity="0.2"/>
<path fill-rule="evenodd" clip-rule="evenodd" d="M50.167 134.568C50.167 133.778 50.8088 133.137 51.6003 133.137H58.0504C58.8418 133.137 59.4836 133.778 59.4836 134.568C59.4836 135.359 58.8418 136 58.0504 136H51.6003C50.8088 136 50.167 135.359 50.167 134.568Z" fill="#D3D6D7"/>
<path fill-rule="evenodd" clip-rule="evenodd" d="M50.167 134.568C50.167 133.778 50.8088 133.137 51.6003 133.137H58.0504C58.8418 133.137 59.4836 133.778 59.4836 134.568C59.4836 135.359 58.8418 136 58.0504 136H51.6003C50.8088 136 50.167 135.359 50.167 134.568Z" fill="black" fill-opacity="0.2"/>
<path fill-rule="evenodd" clip-rule="evenodd" d="M65.2168 134.568C65.2168 133.778 65.8586 133.137 66.6502 133.137H73.1002C73.8917 133.137 74.5335 133.778 74.5335 134.568C74.5335 135.359 73.8917 136 73.1002 136H66.6502C65.8586 136 65.2168 135.359 65.2168 134.568Z" fill="#D3D6D7"/>
<path fill-rule="evenodd" clip-rule="evenodd" d="M65.2168 134.568C65.2168 133.778 65.8586 133.137 66.6502 133.137H73.1002C73.8917 133.137 74.5335 133.778 74.5335 134.568C74.5335 135.359 73.8917 136 73.1002 136H66.6502C65.8586 136 65.2168 135.359 65.2168 134.568Z" fill="black" fill-opacity="0.2"/>
<path fill-rule="evenodd" clip-rule="evenodd" d="M80.2671 134.568C80.2671 133.778 80.9089 133.137 81.7004 133.137H88.1505C88.942 133.137 89.5838 133.778 89.5838 134.568C89.5838 135.359 88.942 136 88.1505 136H81.7004C80.9089 136 80.2671 135.359 80.2671 134.568Z" fill="#D3D6D7"/>
<path fill-rule="evenodd" clip-rule="evenodd" d="M80.2671 134.568C80.2671 133.778 80.9089 133.137 81.7004 133.137H88.1505C88.942 133.137 89.5838 133.778 89.5838 134.568C89.5838 135.359 88.942 136 88.1505 136H81.7004C80.9089 136 80.2671 135.359 80.2671 134.568Z" fill="black" fill-opacity="0.2"/>
<path fill-rule="evenodd" clip-rule="evenodd" d="M95.3169 134.568C95.3169 133.778 95.9587 133.137 96.7503 133.137H103.201C103.992 133.137 104.633 133.778 104.633 134.568C104.633 135.359 103.992 136 103.201 136H96.7503C95.9587 136 95.3169 135.359 95.3169 134.568Z" fill="#D3D6D7"/>
<path fill-rule="evenodd" clip-rule="evenodd" d="M95.3169 134.568C95.3169 133.778 95.9587 133.137 96.7503 133.137H103.201C103.992 133.137 104.633 133.778 104.633 134.568C104.633 135.359 103.992 136 103.201 136H96.7503C95.9587 136 95.3169 135.359 95.3169 134.568Z" fill="black" fill-opacity="0.2"/>
<path fill-rule="evenodd" clip-rule="evenodd" d="M110.368 134.568C110.368 133.778 111.009 133.137 111.8 133.137H118.25C119.042 133.137 119.684 133.778 119.684 134.568C119.684 135.359 119.042 136 118.25 136H111.8C111.009 136 110.368 135.359 110.368 134.568Z" fill="#D3D6D7"/>
<path fill-rule="evenodd" clip-rule="evenodd" d="M110.368 134.568C110.368 133.778 111.009 133.137 111.8 133.137H118.25C119.042 133.137 119.684 133.778 119.684 134.568C119.684 135.359 119.042 136 118.25 136H111.8C111.009 136 110.368 135.359 110.368 134.568Z" fill="black" fill-opacity="0.2"/>
<path fill-rule="evenodd" clip-rule="evenodd" d="M125.417 134.568C125.417 133.778 126.059 133.137 126.851 133.137H133.301C134.092 133.137 134.733 133.778 134.733 134.568C134.733 135.359 134.092 136 133.301 136H126.851C126.059 136 125.417 135.359 125.417 134.568Z" fill="#D3D6D7"/>
<path fill-rule="evenodd" clip-rule="evenodd" d="M125.417 134.568C125.417 133.778 126.059 133.137 126.851 133.137H133.301C134.092 133.137 134.733 133.778 134.733 134.568C134.733 135.359 134.092 136 133.301 136H126.851C126.059 136 125.417 135.359 125.417 134.568Z" fill="black" fill-opacity="0.2"/>
<path fill-rule="evenodd" clip-rule="evenodd" d="M140.468 134.568C140.468 133.778 141.11 133.137 141.901 133.137H148.35C149.142 133.137 149.784 133.778 149.784 134.568C149.784 135.359 149.142 136 148.35 136H141.901C141.11 136 140.468 135.359 140.468 134.568Z" fill="#D3D6D7"/>
<path fill-rule="evenodd" clip-rule="evenodd" d="M140.468 134.568C140.468 133.778 141.11 133.137 141.901 133.137H148.35C149.142 133.137 149.784 133.778 149.784 134.568C149.784 135.359 149.142 136 148.35 136H141.901C141.11 136 140.468 135.359 140.468 134.568Z" fill="black" fill-opacity="0.2"/>
<path fill-rule="evenodd" clip-rule="evenodd" d="M155.517 134.568C155.517 133.778 156.159 133.137 156.951 133.137H163.401C164.193 133.137 164.835 133.778 164.835 134.568C164.835 135.359 164.193 136 163.401 136H156.951C156.159 136 155.517 135.359 155.517 134.568Z" fill="#D3D6D7"/>
<path fill-rule="evenodd" clip-rule="evenodd" d="M155.517 134.568C155.517 133.778 156.159 133.137 156.951 133.137H163.401C164.193 133.137 164.835 133.778 164.835 134.568C164.835 135.359 164.193 136 163.401 136H156.951C156.159 136 155.517 135.359 155.517 134.568Z" fill="black" fill-opacity="0.2"/>
<path fill-rule="evenodd" clip-rule="evenodd" d="M170.567 134.568C170.567 133.778 171.209 133.137 172 133.137H178.451C179.242 133.137 179.884 133.778 179.884 134.568C179.884 135.359 179.242 136 178.451 136H172C171.209 136 170.567 135.359 170.567 134.568Z" fill="#D3D6D7"/>
<path fill-rule="evenodd" clip-rule="evenodd" d="M170.567 134.568C170.567 133.778 171.209 133.137 172 133.137H178.451C179.242 133.137 179.884 133.778 179.884 134.568C179.884 135.359 179.242 136 178.451 136H172C171.209 136 170.567 135.359 170.567 134.568Z" fill="black" fill-opacity="0.2"/>
<path fill-rule="evenodd" clip-rule="evenodd" d="M185.617 134.568C185.617 133.778 186.259 133.137 187.051 133.137H193.501C194.293 133.137 194.935 133.778 194.935 134.568C194.935 135.359 194.293 136 193.501 136H187.051C186.259 136 185.617 135.359 185.617 134.568Z" fill="#D3D6D7"/>
<path fill-rule="evenodd" clip-rule="evenodd" d="M185.617 134.568C185.617 133.778 186.259 133.137 187.051 133.137H193.501C194.293 133.137 194.935 133.778 194.935 134.568C194.935 135.359 194.293 136 193.501 136H187.051C186.259 136 185.617 135.359 185.617 134.568Z" fill="black" fill-opacity="0.2"/>
<path fill-rule="evenodd" clip-rule="evenodd" d="M200.667 134.568C200.667 133.778 201.309 133.137 202.101 133.137H208.551C209.342 133.137 209.984 133.778 209.984 134.568C209.984 135.359 209.342 136 208.551 136H202.101C201.309 136 200.667 135.359 200.667 134.568Z" fill="#D3D6D7"/>
<path fill-rule="evenodd" clip-rule="evenodd" d="M200.667 134.568C200.667 133.778 201.309 133.137 202.101 133.137H208.551C209.342 133.137 209.984 133.778 209.984 134.568C209.984 135.359 209.342 136 208.551 136H202.101C201.309 136 200.667 135.359 200.667 134.568Z" fill="black" fill-opacity="0.2"/>
<path fill-rule="evenodd" clip-rule="evenodd" d="M213.568 1.78906C214.359 1.78906 215.001 2.43 215.001 3.22064V9.66275C215.001 10.4534 214.359 11.0943 213.568 11.0943C212.777 11.0943 212.135 10.4534 212.135 9.66275V3.22064C212.135 2.43 212.777 1.78906 213.568 1.78906Z" fill="#D3D6D7"/>
<path fill-rule="evenodd" clip-rule="evenodd" d="M213.568 1.78906C214.359 1.78906 215.001 2.43 215.001 3.22064V9.66275C215.001 10.4534 214.359 11.0943 213.568 11.0943C212.777 11.0943 212.135 10.4534 212.135 9.66275V3.22064C212.135 2.43 212.777 1.78906 213.568 1.78906Z" fill="black" fill-opacity="0.2"/>
<path fill-rule="evenodd" clip-rule="evenodd" d="M213.568 16.8213C214.359 16.8213 215.001 17.4622 215.001 18.2528V24.6949C215.001 25.4856 214.359 26.1265 213.568 26.1265C212.777 26.1265 212.135 25.4856 212.135 24.6949V18.2528C212.135 17.4622 212.777 16.8213 213.568 16.8213Z" fill="#D3D6D7"/>
<path fill-rule="evenodd" clip-rule="evenodd" d="M213.568 16.8213C214.359 16.8213 215.001 17.4622 215.001 18.2528V24.6949C215.001 25.4856 214.359 26.1265 213.568 26.1265C212.777 26.1265 212.135 25.4856 212.135 24.6949V18.2528C212.135 17.4622 212.777 16.8213 213.568 16.8213Z" fill="black" fill-opacity="0.2"/>
<path fill-rule="evenodd" clip-rule="evenodd" d="M213.568 31.8525C214.359 31.8525 215.001 32.4935 215.001 33.2841V39.7262C215.001 40.5168 214.359 41.1578 213.568 41.1578C212.777 41.1578 212.135 40.5168 212.135 39.7262V33.2841C212.135 32.4935 212.777 31.8525 213.568 31.8525Z" fill="#D3D6D7"/>
<path fill-rule="evenodd" clip-rule="evenodd" d="M213.568 31.8525C214.359 31.8525 215.001 32.4935 215.001 33.2841V39.7262C215.001 40.5168 214.359 41.1578 213.568 41.1578C212.777 41.1578 212.135 40.5168 212.135 39.7262V33.2841C212.135 32.4935 212.777 31.8525 213.568 31.8525Z" fill="black" fill-opacity="0.2"/>
<path fill-rule="evenodd" clip-rule="evenodd" d="M213.568 46.8838C214.359 46.8838 215.001 47.5248 215.001 48.3154V54.7575C215.001 55.5481 214.359 56.1891 213.568 56.1891C212.777 56.1891 212.135 55.5481 212.135 54.7575V48.3154C212.135 47.5248 212.777 46.8838 213.568 46.8838Z" fill="#D3D6D7"/>
<path fill-rule="evenodd" clip-rule="evenodd" d="M213.568 46.8838C214.359 46.8838 215.001 47.5248 215.001 48.3154V54.7575C215.001 55.5481 214.359 56.1891 213.568 56.1891C212.777 56.1891 212.135 55.5481 212.135 54.7575V48.3154C212.135 47.5248 212.777 46.8838 213.568 46.8838Z" fill="black" fill-opacity="0.2"/>
<path fill-rule="evenodd" clip-rule="evenodd" d="M213.568 61.916C214.359 61.916 215.001 62.557 215.001 63.3476V69.7897C215.001 70.5803 214.359 71.2213 213.568 71.2213C212.777 71.2213 212.135 70.5803 212.135 69.7897V63.3476C212.135 62.557 212.777 61.916 213.568 61.916Z" fill="#D3D6D7"/>
<path fill-rule="evenodd" clip-rule="evenodd" d="M213.568 61.916C214.359 61.916 215.001 62.557 215.001 63.3476V69.7897C215.001 70.5803 214.359 71.2213 213.568 71.2213C212.777 71.2213 212.135 70.5803 212.135 69.7897V63.3476C212.135 62.557 212.777 61.916 213.568 61.916Z" fill="black" fill-opacity="0.2"/>
<path fill-rule="evenodd" clip-rule="evenodd" d="M213.568 76.9473C214.359 76.9473 215.001 77.5883 215.001 78.3789V84.821C215.001 85.6115 214.359 86.2525 213.568 86.2525C212.777 86.2525 212.135 85.6115 212.135 84.821V78.3789C212.135 77.5883 212.777 76.9473 213.568 76.9473Z" fill="#D3D6D7"/>
<path fill-rule="evenodd" clip-rule="evenodd" d="M213.568 76.9473C214.359 76.9473 215.001 77.5883 215.001 78.3789V84.821C215.001 85.6115 214.359 86.2525 213.568 86.2525C212.777 86.2525 212.135 85.6115 212.135 84.821V78.3789C212.135 77.5883 212.777 76.9473 213.568 76.9473Z" fill="black" fill-opacity="0.2"/>
<path fill-rule="evenodd" clip-rule="evenodd" d="M213.568 91.9785C214.359 91.9785 215.001 92.6194 215.001 93.41V99.8521C215.001 100.643 214.359 101.284 213.568 101.284C212.777 101.284 212.135 100.643 212.135 99.8521V93.41C212.135 92.6194 212.777 91.9785 213.568 91.9785Z" fill="#D3D6D7"/>
<path fill-rule="evenodd" clip-rule="evenodd" d="M213.568 91.9785C214.359 91.9785 215.001 92.6194 215.001 93.41V99.8521C215.001 100.643 214.359 101.284 213.568 101.284C212.777 101.284 212.135 100.643 212.135 99.8521V93.41C212.135 92.6194 212.777 91.9785 213.568 91.9785Z" fill="black" fill-opacity="0.2"/>
<path fill-rule="evenodd" clip-rule="evenodd" d="M213.568 107.011C214.359 107.011 215.001 107.652 215.001 108.442V114.884C215.001 115.675 214.359 116.316 213.568 116.316C212.777 116.316 212.135 115.675 212.135 114.884V108.442C212.135 107.652 212.777 107.011 213.568 107.011Z" fill="#D3D6D7"/>
<path fill-rule="evenodd" clip-rule="evenodd" d="M213.568 107.011C214.359 107.011 215.001 107.652 215.001 108.442V114.884C215.001 115.675 214.359 116.316 213.568 116.316C212.777 116.316 212.135 115.675 212.135 114.884V108.442C212.135 107.652 212.777 107.011 213.568 107.011Z" fill="black" fill-opacity="0.2"/>
<path fill-rule="evenodd" clip-rule="evenodd" d="M213.568 122.042C214.359 122.042 215.001 122.683 215.001 123.474V129.916C215.001 130.706 214.359 131.347 213.568 131.347C212.777 131.347 212.135 130.706 212.135 129.916V123.474C212.135 122.683 212.777 122.042 213.568 122.042Z" fill="#D3D6D7"/>
<path fill-rule="evenodd" clip-rule="evenodd" d="M213.568 122.042C214.359 122.042 215.001 122.683 215.001 123.474V129.916C215.001 130.706 214.359 131.347 213.568 131.347C212.777 131.347 212.135 130.706 212.135 129.916V123.474C212.135 122.683 212.777 122.042 213.568 122.042Z" fill="black" fill-opacity="0.2"/>
<path fill-rule="evenodd" clip-rule="evenodd" d="M1.43334 2.14746C2.22495 2.14746 2.86668 2.7884 2.86668 3.57904V10.0212C2.86668 10.8118 2.22495 11.4527 1.43334 11.4527C0.641728 11.4527 -3.46035e-08 10.8118 0 10.0212L2.8194e-07 3.57904C3.16542e-07 2.7884 0.641728 2.14746 1.43334 2.14746Z" fill="#D3D6D7"/>
<path fill-rule="evenodd" clip-rule="evenodd" d="M1.43334 2.14746C2.22495 2.14746 2.86668 2.7884 2.86668 3.57904V10.0212C2.86668 10.8118 2.22495 11.4527 1.43334 11.4527C0.641728 11.4527 -3.46035e-08 10.8118 0 10.0212L2.8194e-07 3.57904C3.16542e-07 2.7884 0.641728 2.14746 1.43334 2.14746Z" fill="black" fill-opacity="0.2"/>
<path fill-rule="evenodd" clip-rule="evenodd" d="M1.43334 17.1787C2.22495 17.1787 2.86668 17.8197 2.86668 18.6103V25.0524C2.86668 25.8431 2.22495 26.484 1.43334 26.484C0.641728 26.484 -3.46035e-08 25.8431 0 25.0524L2.8194e-07 18.6103C3.16542e-07 17.8197 0.641728 17.1787 1.43334 17.1787Z" fill="#D3D6D7"/>
<path fill-rule="evenodd" clip-rule="evenodd" d="M1.43334 17.1787C2.22495 17.1787 2.86668 17.8197 2.86668 18.6103V25.0524C2.86668 25.8431 2.22495 26.484 1.43334 26.484C0.641728 26.484 -3.46035e-08 25.8431 0 25.0524L2.8194e-07 18.6103C3.16542e-07 17.8197 0.641728 17.1787 1.43334 17.1787Z" fill="black" fill-opacity="0.2"/>
<path fill-rule="evenodd" clip-rule="evenodd" d="M1.43334 32.2109C2.22495 32.2109 2.86668 32.8519 2.86668 33.6425V40.0846C2.86668 40.8752 2.22495 41.5162 1.43334 41.5162C0.641728 41.5162 -3.46035e-08 40.8752 0 40.0846L2.8194e-07 33.6425C3.16542e-07 32.8519 0.641728 32.2109 1.43334 32.2109Z" fill="#D3D6D7"/>
<path fill-rule="evenodd" clip-rule="evenodd" d="M1.43334 32.2109C2.22495 32.2109 2.86668 32.8519 2.86668 33.6425V40.0846C2.86668 40.8752 2.22495 41.5162 1.43334 41.5162C0.641728 41.5162 -3.46035e-08 40.8752 0 40.0846L2.8194e-07 33.6425C3.16542e-07 32.8519 0.641728 32.2109 1.43334 32.2109Z" fill="black" fill-opacity="0.2"/>
<path fill-rule="evenodd" clip-rule="evenodd" d="M1.43334 47.2422C2.22495 47.2422 2.86668 47.8832 2.86668 48.6738V55.1159C2.86668 55.9065 2.22495 56.5475 1.43334 56.5475C0.641728 56.5475 -3.46035e-08 55.9065 0 55.1159L2.8194e-07 48.6738C3.16542e-07 47.8832 0.641728 47.2422 1.43334 47.2422Z" fill="#D3D6D7"/>
<path fill-rule="evenodd" clip-rule="evenodd" d="M1.43334 47.2422C2.22495 47.2422 2.86668 47.8832 2.86668 48.6738V55.1159C2.86668 55.9065 2.22495 56.5475 1.43334 56.5475C0.641728 56.5475 -3.46035e-08 55.9065 0 55.1159L2.8194e-07 48.6738C3.16542e-07 47.8832 0.641728 47.2422 1.43334 47.2422Z" fill="black" fill-opacity="0.2"/>
<path fill-rule="evenodd" clip-rule="evenodd" d="M1.43334 62.2734C2.22495 62.2734 2.86668 62.9144 2.86668 63.705V70.1471C2.86668 70.9377 2.22495 71.5786 1.43334 71.5786C0.641728 71.5786 -3.46035e-08 70.9377 0 70.1471L2.8194e-07 63.705C3.16542e-07 62.9144 0.641728 62.2734 1.43334 62.2734Z" fill="#D3D6D7"/>
<path fill-rule="evenodd" clip-rule="evenodd" d="M1.43334 62.2734C2.22495 62.2734 2.86668 62.9144 2.86668 63.705V70.1471C2.86668 70.9377 2.22495 71.5786 1.43334 71.5786C0.641728 71.5786 -3.46035e-08 70.9377 0 70.1471L2.8194e-07 63.705C3.16542e-07 62.9144 0.641728 62.2734 1.43334 62.2734Z" fill="black" fill-opacity="0.2"/>
<path fill-rule="evenodd" clip-rule="evenodd" d="M1.43334 77.3057C2.22495 77.3057 2.86668 77.9467 2.86668 78.7372V85.1793C2.86668 85.9699 2.22495 86.6109 1.43334 86.6109C0.641728 86.6109 -3.46035e-08 85.9699 0 85.1793L2.8194e-07 78.7372C3.16542e-07 77.9467 0.641728 77.3057 1.43334 77.3057Z" fill="#D3D6D7"/>
<path fill-rule="evenodd" clip-rule="evenodd" d="M1.43334 77.3057C2.22495 77.3057 2.86668 77.9467 2.86668 78.7372V85.1793C2.86668 85.9699 2.22495 86.6109 1.43334 86.6109C0.641728 86.6109 -3.46035e-08 85.9699 0 85.1793L2.8194e-07 78.7372C3.16542e-07 77.9467 0.641728 77.3057 1.43334 77.3057Z" fill="black" fill-opacity="0.2"/>
<path fill-rule="evenodd" clip-rule="evenodd" d="M1.43334 92.3369C2.22495 92.3369 2.86668 92.9779 2.86668 93.7685V100.211C2.86668 101.001 2.22495 101.642 1.43334 101.642C0.641728 101.642 -3.46035e-08 101.001 0 100.211L2.8194e-07 93.7685C3.16542e-07 92.9779 0.641728 92.3369 1.43334 92.3369Z" fill="#D3D6D7"/>
<path fill-rule="evenodd" clip-rule="evenodd" d="M1.43334 92.3369C2.22495 92.3369 2.86668 92.9779 2.86668 93.7685V100.211C2.86668 101.001 2.22495 101.642 1.43334 101.642C0.641728 101.642 -3.46035e-08 101.001 0 100.211L2.8194e-07 93.7685C3.16542e-07 92.9779 0.641728 92.3369 1.43334 92.3369Z" fill="black" fill-opacity="0.2"/>
<path fill-rule="evenodd" clip-rule="evenodd" d="M1.43334 107.368C2.22495 107.368 2.86668 108.009 2.86668 108.8V115.242C2.86668 116.033 2.22495 116.674 1.43334 116.674C0.641728 116.674 -3.46035e-08 116.033 0 115.242L2.8194e-07 108.8C3.16542e-07 108.009 0.641728 107.368 1.43334 107.368Z" fill="#D3D6D7"/>
<path fill-rule="evenodd" clip-rule="evenodd" d="M1.43334 107.368C2.22495 107.368 2.86668 108.009 2.86668 108.8V115.242C2.86668 116.033 2.22495 116.674 1.43334 116.674C0.641728 116.674 -3.46035e-08 116.033 0 115.242L2.8194e-07 108.8C3.16542e-07 108.009 0.641728 107.368 1.43334 107.368Z" fill="black" fill-opacity="0.2"/>
<path fill-rule="evenodd" clip-rule="evenodd" d="M1.43334 122.4C2.22495 122.4 2.86668 123.041 2.86668 123.832V130.274C2.86668 131.064 2.22495 131.705 1.43334 131.705C0.641728 131.705 -3.46035e-08 131.064 0 130.274L2.8194e-07 123.832C3.16542e-07 123.041 0.641728 122.4 1.43334 122.4Z" fill="#D3D6D7"/>
<path fill-rule="evenodd" clip-rule="evenodd" d="M1.43334 122.4C2.22495 122.4 2.86668 123.041 2.86668 123.832V130.274C2.86668 131.064 2.22495 131.705 1.43334 131.705C0.641728 131.705 -3.46035e-08 131.064 0 130.274L2.8194e-07 123.832C3.16542e-07 123.041 0.641728 122.4 1.43334 122.4Z" fill="black" fill-opacity="0.2"/>
<path d="M59.9049 86.7265C58.675 86.7265 57.7591 86.413 57.1572 85.7859C56.5638 85.1589 56.2671 84.2355 56.2671 83.0158V77.5272H57.3249V82.9643C57.3249 83.9006 57.5312 84.6049 57.9441 85.0773C58.3569 85.5497 59.0105 85.7859 59.9049 85.7859C60.7477 85.7859 61.3884 85.5497 61.827 85.0773C62.2656 84.6049 62.4849 83.9006 62.4849 82.9643V77.5272H63.5427V83.0158C63.5427 84.2355 63.233 85.1589 62.6139 85.7859C62.0032 86.413 61.1002 86.7265 59.9049 86.7265ZM65.6257 89.3935V81.6372C65.6257 81.3967 65.6128 81.1519 65.587 80.9028C65.5698 80.6451 65.5483 80.3917 65.5225 80.1427H66.5287L66.6706 81.6759H66.5158C66.6533 81.1691 66.9329 80.7697 67.3543 80.4776C67.7757 80.177 68.2788 80.0267 68.8636 80.0267C69.4484 80.0267 69.9515 80.1598 70.3729 80.4261C70.8029 80.6924 71.1384 81.0746 71.3792 81.5728C71.62 82.071 71.7403 82.6723 71.7403 83.3766C71.7403 84.0723 71.62 84.6693 71.3792 85.1675C71.1469 85.6657 70.8159 86.0522 70.3858 86.3271C69.9558 86.5933 69.4484 86.7265 68.8636 86.7265C68.2874 86.7265 67.7886 86.5805 67.3672 86.2884C66.9458 85.9964 66.6663 85.597 66.5287 85.0902H66.6706V89.3935H65.6257ZM68.6572 85.8761C69.2764 85.8761 69.7666 85.6657 70.1278 85.2448C70.4976 84.8153 70.6825 84.1926 70.6825 83.3766C70.6825 82.552 70.4976 81.9293 70.1278 81.5084C69.7666 81.0789 69.2764 80.8642 68.6572 80.8642C68.0466 80.8642 67.5564 81.0789 67.1866 81.5084C66.8254 81.9293 66.6448 82.552 66.6448 83.3766C66.6448 84.1926 66.8254 84.8153 67.1866 85.2448C67.5564 85.6657 68.0466 85.8761 68.6572 85.8761ZM73.3607 86.6105V77.1277H74.4056V86.6105H73.3607ZM79.0919 86.7265C78.4727 86.7265 77.9309 86.5933 77.4665 86.3271C77.0107 86.0522 76.6581 85.6657 76.4087 85.1675C76.1593 84.6607 76.0346 84.0638 76.0346 83.3766C76.0346 82.6808 76.1593 82.0839 76.4087 81.5857C76.6581 81.0875 77.0107 80.7053 77.4665 80.439C77.9309 80.1641 78.4727 80.0267 79.0919 80.0267C79.7197 80.0267 80.2616 80.1641 80.7173 80.439C81.1817 80.7053 81.5386 81.0875 81.788 81.5857C82.0461 82.0839 82.175 82.6808 82.175 83.3766C82.175 84.0638 82.0461 84.6607 81.788 85.1675C81.5386 85.6657 81.1817 86.0522 80.7173 86.3271C80.2616 86.5933 79.7197 86.7265 79.0919 86.7265ZM79.0919 85.8761C79.7111 85.8761 80.2013 85.6657 80.5625 85.2448C80.9237 84.8153 81.1043 84.1926 81.1043 83.3766C81.1043 82.552 80.9195 81.9293 80.5496 81.5084C80.1884 81.0789 79.7025 80.8642 79.0919 80.8642C78.4813 80.8642 77.9954 81.0789 77.6342 81.5084C77.273 81.9293 77.0924 82.552 77.0924 83.3766C77.0924 84.1926 77.273 84.8153 77.6342 85.2448C77.9954 85.6657 78.4813 85.8761 79.0919 85.8761ZM86.2679 86.7265C85.6917 86.7265 85.1886 86.5933 84.7586 86.3271C84.3287 86.0522 83.9932 85.6657 83.7525 85.1675C83.5202 84.6693 83.4041 84.0723 83.4041 83.3766C83.4041 82.6723 83.5202 82.071 83.7525 81.5728C83.9932 81.0746 84.3287 80.6924 84.7586 80.4261C85.1886 80.1598 85.6917 80.0267 86.2679 80.0267C86.8528 80.0267 87.3559 80.177 87.7772 80.4776C88.2072 80.7697 88.4911 81.1691 88.6286 81.6759H88.4739L88.6157 80.1427H89.622C89.5961 80.3917 89.5703 80.6451 89.5446 80.9028C89.5273 81.1519 89.5187 81.3967 89.5187 81.6372V86.6105H88.4739V85.0902H88.6157C88.4782 85.597 88.1943 85.9964 87.7644 86.2884C87.3344 86.5805 86.8355 86.7265 86.2679 86.7265ZM86.4743 85.8761C87.0936 85.8761 87.5838 85.6657 87.9449 85.2448C88.3061 84.8153 88.4868 84.1926 88.4868 83.3766C88.4868 82.552 88.3061 81.9293 87.9449 81.5084C87.5838 81.0789 87.0936 80.8642 86.4743 80.8642C85.8638 80.8642 85.3735 81.0789 85.0037 81.5084C84.6425 81.9293 84.4619 82.552 84.4619 83.3766C84.4619 84.1926 84.6425 84.8153 85.0037 85.2448C85.3735 85.6657 85.8638 85.8761 86.4743 85.8761ZM93.99 86.7265C93.4224 86.7265 92.9236 86.5933 92.4936 86.3271C92.0637 86.0522 91.7283 85.6657 91.4875 85.1675C91.2553 84.6693 91.1391 84.0723 91.1391 83.3766C91.1391 82.6723 91.2553 82.071 91.4875 81.5728C91.7283 81.0746 92.0637 80.6924 92.4936 80.4261C92.9236 80.1598 93.4224 80.0267 93.99 80.0267C94.5749 80.0267 95.078 80.1727 95.4994 80.4648C95.9294 80.7568 96.2175 81.1519 96.3636 81.6501H96.2089V77.1277H97.2537V86.6105H96.2218V85.0644H96.3636C96.2261 85.5798 95.9422 85.9878 95.5123 86.2884C95.0823 86.5805 94.5749 86.7265 93.99 86.7265ZM94.2094 85.8761C94.82 85.8761 95.3102 85.6657 95.68 85.2448C96.0498 84.8153 96.2347 84.1926 96.2347 83.3766C96.2347 82.552 96.0498 81.9293 95.68 81.5084C95.3102 81.0789 94.82 80.8642 94.2094 80.8642C93.5988 80.8642 93.1085 81.0789 92.7387 81.5084C92.3776 81.9293 92.1969 82.552 92.1969 83.3766C92.1969 84.1926 92.3776 84.8153 92.7387 85.2448C93.1085 85.6657 93.5988 85.8761 94.2094 85.8761ZM102.638 86.6105V80.1427H103.682V86.6105H102.638ZM102.509 78.6739V77.5014H103.798V78.6739H102.509ZM105.712 86.6105V81.6372C105.712 81.3967 105.699 81.1519 105.673 80.9028C105.656 80.6451 105.635 80.3917 105.609 80.1427H106.615L106.744 81.5599H106.589C106.761 81.0703 107.031 80.6924 107.402 80.4261C107.78 80.1598 108.236 80.0267 108.768 80.0267C109.311 80.0267 109.75 80.1555 110.085 80.4132C110.429 80.6709 110.661 81.0703 110.781 81.6115H110.588C110.751 81.1219 111.039 80.7353 111.452 80.4519C111.865 80.1684 112.347 80.0267 112.897 80.0267C113.61 80.0267 114.148 80.2328 114.51 80.6451C114.871 81.0488 115.051 81.6888 115.051 82.5649V86.6105H114.006V82.6293C114.006 82.0195 113.899 81.5771 113.684 81.3022C113.469 81.0188 113.125 80.8771 112.652 80.8771C112.11 80.8771 111.68 81.066 111.362 81.444C111.052 81.8133 110.897 82.3115 110.897 82.9385V86.6105H109.853V82.6293C109.853 82.0195 109.745 81.5771 109.53 81.3022C109.315 81.0188 108.971 80.8771 108.498 80.8771C107.956 80.8771 107.53 81.066 107.221 81.444C106.911 81.8133 106.756 82.3115 106.756 82.9385V86.6105H105.712ZM119.501 86.7265C118.925 86.7265 118.421 86.5933 117.992 86.3271C117.561 86.0522 117.226 85.6657 116.986 85.1675C116.753 84.6693 116.637 84.0723 116.637 83.3766C116.637 82.6723 116.753 82.071 116.986 81.5728C117.226 81.0746 117.561 80.6924 117.992 80.4261C118.421 80.1598 118.925 80.0267 119.501 80.0267C120.085 80.0267 120.589 80.177 121.011 80.4776C121.44 80.7697 121.724 81.1691 121.862 81.6759H121.707L121.849 80.1427H122.855C122.829 80.3917 122.804 80.6451 122.778 80.9028C122.761 81.1519 122.752 81.3967 122.752 81.6372V86.6105H121.707V85.0902H121.849C121.711 85.597 121.427 85.9964 120.998 86.2884C120.567 86.5805 120.068 86.7265 119.501 86.7265ZM119.707 85.8761C120.327 85.8761 120.817 85.6657 121.178 85.2448C121.539 84.8153 121.719 84.1926 121.719 83.3766C121.719 82.552 121.539 81.9293 121.178 81.5084C120.817 81.0789 120.327 80.8642 119.707 80.8642C119.097 80.8642 118.607 81.0789 118.237 81.5084C117.876 81.9293 117.695 82.552 117.695 83.3766C117.695 84.1926 117.876 84.8153 118.237 85.2448C118.607 85.6657 119.097 85.8761 119.707 85.8761ZM127.623 89.4837C127.064 89.4837 126.547 89.415 126.075 89.2776C125.601 89.1401 125.176 88.9297 124.797 88.6462L125.108 87.8603C125.374 88.0493 125.636 88.1996 125.895 88.3112C126.152 88.4229 126.418 88.5045 126.694 88.556C126.969 88.6162 127.261 88.6462 127.571 88.6462C128.207 88.6462 128.689 88.4787 129.015 88.1437C129.343 87.8088 129.506 87.332 129.506 86.7136V84.8196H129.635C129.498 85.3264 129.214 85.7301 128.784 86.0307C128.354 86.3228 127.851 86.4688 127.274 86.4688C126.68 86.4688 126.165 86.34 125.726 86.0823C125.297 85.816 124.961 85.4424 124.72 84.9613C124.488 84.4717 124.372 83.8963 124.372 83.2349C124.372 82.5821 124.488 82.0152 124.72 81.5341C124.961 81.0531 125.297 80.6838 125.726 80.4261C126.165 80.1598 126.68 80.0267 127.274 80.0267C127.859 80.0267 128.363 80.1727 128.784 80.4648C129.214 80.7568 129.498 81.1605 129.635 81.6759L129.506 81.547L129.622 80.1427H130.641C130.607 80.3917 130.581 80.6451 130.564 80.9028C130.546 81.1519 130.538 81.3967 130.538 81.6372V86.5719C130.538 87.5339 130.289 88.2597 129.79 88.7493C129.3 89.2389 128.577 89.4837 127.623 89.4837ZM127.467 85.6184C128.095 85.6184 128.59 85.4123 128.951 85C129.313 84.5791 129.493 83.9907 129.493 83.2349C129.493 82.479 129.313 81.8949 128.951 81.4826C128.59 81.0703 128.095 80.8642 127.467 80.8642C126.849 80.8642 126.354 81.0703 125.985 81.4826C125.614 81.8949 125.43 82.479 125.43 83.2349C125.43 83.9907 125.614 84.5791 125.985 85C126.354 85.4123 126.849 85.6184 127.467 85.6184ZM135.421 86.7265C134.407 86.7265 133.607 86.4344 133.022 85.8504C132.438 85.2577 132.145 84.4374 132.145 83.3895C132.145 82.7109 132.273 82.1225 132.532 81.6243C132.79 81.1176 133.151 80.7267 133.615 80.4519C134.08 80.1684 134.613 80.0267 135.215 80.0267C135.809 80.0267 136.307 80.1512 136.712 80.4003C137.115 80.6494 137.426 81.0059 137.64 81.4697C137.855 81.925 137.962 82.4661 137.962 83.0931V83.4797H132.944V82.8226H137.28L137.06 82.9901C137.06 82.3029 136.905 81.7661 136.596 81.3795C136.285 80.993 135.826 80.7998 135.215 80.7998C134.57 80.7998 134.067 81.0274 133.706 81.4826C133.345 81.9293 133.163 82.5348 133.163 83.2993V83.4152C133.163 84.2227 133.362 84.8368 133.757 85.2577C134.162 85.67 134.724 85.8761 135.447 85.8761C135.835 85.8761 136.195 85.8203 136.531 85.7086C136.875 85.5884 137.201 85.3951 137.511 85.1288L137.872 85.8632C137.589 86.1381 137.227 86.3528 136.789 86.5075C136.358 86.6535 135.903 86.7265 135.421 86.7265ZM143.261 86.6105V80.9544H141.996V80.1427H143.544L143.261 80.4132V79.3309C143.261 78.6008 143.446 78.0425 143.816 77.656C144.185 77.2695 144.714 77.0762 145.402 77.0762C145.574 77.0762 145.751 77.0934 145.931 77.1277C146.12 77.1535 146.276 77.1922 146.396 77.2437V78.1069C146.293 78.064 146.163 78.0296 146.008 78.0039C145.862 77.9695 145.712 77.9523 145.557 77.9523C145.29 77.9523 145.062 78.0082 144.873 78.1198C144.684 78.2229 144.542 78.3818 144.447 78.5965C144.353 78.8113 144.306 79.0862 144.306 79.4211V80.3617L144.138 80.1427H146.111V80.9544H144.306V86.6105H143.261ZM147.284 86.6105V80.1427H148.329V86.6105H147.284ZM147.155 78.6739V77.5014H148.445V78.6739H147.155ZM150.358 86.6105V77.1277H151.403V86.6105H150.358ZM156.309 86.7265C155.294 86.7265 154.494 86.4344 153.909 85.8504C153.324 85.2577 153.032 84.4374 153.032 83.3895C153.032 82.7109 153.161 82.1225 153.418 81.6243C153.677 81.1176 154.038 80.7267 154.503 80.4519C154.967 80.1684 155.5 80.0267 156.102 80.0267C156.695 80.0267 157.194 80.1512 157.598 80.4003C158.003 80.6494 158.312 81.0059 158.528 81.4697C158.742 81.925 158.85 82.4661 158.85 83.0931V83.4797H153.832V82.8226H158.166L157.947 82.9901C157.947 82.3029 157.792 81.7661 157.482 81.3795C157.173 80.993 156.712 80.7998 156.102 80.7998C155.457 80.7998 154.954 81.0274 154.593 81.4826C154.231 81.9293 154.051 82.5348 154.051 83.2993V83.4152C154.051 84.2227 154.248 84.8368 154.644 85.2577C155.048 85.67 155.612 85.8761 156.334 85.8761C156.721 85.8761 157.083 85.8203 157.418 85.7086C157.762 85.5884 158.089 85.3951 158.398 85.1288L158.76 85.8632C158.476 86.1381 158.114 86.3528 157.676 86.5075C157.246 86.6535 156.79 86.7265 156.309 86.7265Z" fill="black"/>
<path d="M107.859 46.5264L102.317 51.9911L103.982 53.6328L106.681 50.9708V59.7775H109.036V50.9708L111.736 53.6328L113.402 51.9911L107.859 46.5264Z" fill="#989A9B"/>
<path d="M101.971 57.4551V62.0988H113.746V57.4551H116.101V62.0988C116.101 63.3812 115.046 64.4209 113.746 64.4209H101.971C100.672 64.4209 99.6172 63.3812 99.6172 62.0988V57.4551H101.971Z" fill="#989A9B"/>
</g>
</g>
<defs>
<clipPath id="clip0_767_2174">
<rect width="215" height="136" fill="white"/>
</clipPath>
</defs>
</svg>
