<svg width="908" height="448" viewBox="0 0 908 448" fill="none" xmlns="http://www.w3.org/2000/svg">
<path d="M17 0.824219C7.61133 0.824219 0 8.43555 0 17.8242V447.824H908V17.8242C908 8.43555 900.389 0.824219 891 0.824219H17Z" fill="#373737"/>
<rect x="445" y="188.824" width="19" height="14" fill="url(#paint0_linear_439_1414)"/>
<rect x="424" y="205.824" width="61" height="5" fill="#484848"/>
<path d="M421 205.824C421 203.063 423.239 200.824 426 200.824H483C485.761 200.824 488 203.063 488 205.824H421Z" fill="#CDCDCD"/>
<rect x="388" y="92.8242" width="132" height="96" rx="2" fill="#4B4B4B"/>
<rect x="391" y="92.8242" width="65" height="2" fill="#C2C2C2"/>
<rect x="391" y="97.8242" width="126" height="88" fill="url(#paint1_linear_439_1414)"/>
<rect x="454" y="85.8242" width="76" height="56" rx="3" fill="#777777"/>
<rect x="457" y="89.8242" width="70" height="49" fill="#FAFAFA"/>
<rect x="513" y="87.8242" width="2" height="2" fill="#C4C4C4"/>
<rect x="518" y="87.8242" width="2" height="2" fill="#C4C4C4"/>
<rect x="523" y="87.8242" width="2" height="2" fill="#C4C4C4"/>
<path d="M472.5 117.324L483.307 127.192C483.697 127.547 484.296 127.539 484.675 127.173L511.5 101.324" stroke="#0B87DA" stroke-width="8" stroke-linecap="round"/>
<path d="M120.805 308.824H104.906V280.27H120.805V283.199H108.227V292.438H120.082V295.328H108.227V305.895H120.805V308.824ZM134.262 309.215C131.553 309.215 129.405 308.29 127.816 306.441C126.241 304.592 125.453 301.845 125.453 298.199C125.453 294.514 126.26 291.734 127.875 289.859C129.49 287.971 131.638 287.027 134.32 287.027C135.453 287.027 136.443 287.177 137.289 287.477C138.135 287.776 138.865 288.18 139.477 288.688C140.089 289.182 140.603 289.749 141.02 290.387H141.254C141.202 289.983 141.15 289.43 141.098 288.727C141.046 288.023 141.02 287.451 141.02 287.008V278.434H144.262V308.824H141.645L141.156 305.777H141.02C140.616 306.415 140.102 306.995 139.477 307.516C138.865 308.036 138.129 308.453 137.27 308.766C136.423 309.065 135.421 309.215 134.262 309.215ZM134.77 306.52C137.061 306.52 138.682 305.868 139.633 304.566C140.583 303.264 141.059 301.331 141.059 298.766V298.18C141.059 295.458 140.603 293.368 139.691 291.91C138.793 290.452 137.152 289.723 134.77 289.723C132.777 289.723 131.286 290.491 130.297 292.027C129.307 293.551 128.812 295.634 128.812 298.277C128.812 300.908 129.301 302.939 130.277 304.371C131.267 305.803 132.764 306.52 134.77 306.52ZM154.379 287.418V308.824H151.137V287.418H154.379ZM152.797 279.41C153.331 279.41 153.786 279.586 154.164 279.938C154.555 280.276 154.75 280.81 154.75 281.539C154.75 282.255 154.555 282.789 154.164 283.141C153.786 283.492 153.331 283.668 152.797 283.668C152.237 283.668 151.768 283.492 151.391 283.141C151.026 282.789 150.844 282.255 150.844 281.539C150.844 280.81 151.026 280.276 151.391 279.938C151.768 279.586 152.237 279.41 152.797 279.41ZM168.168 306.559C168.702 306.559 169.249 306.513 169.809 306.422C170.368 306.331 170.824 306.22 171.176 306.09V308.609C170.798 308.779 170.271 308.922 169.594 309.039C168.93 309.156 168.279 309.215 167.641 309.215C166.508 309.215 165.479 309.02 164.555 308.629C163.63 308.225 162.888 307.548 162.328 306.598C161.781 305.647 161.508 304.332 161.508 302.652V289.957H158.461V288.375L161.527 287.105L162.816 282.457H164.77V287.418H171.039V289.957H164.77V302.555C164.77 303.896 165.076 304.898 165.688 305.562C166.312 306.227 167.139 306.559 168.168 306.559ZM192.816 306.559C193.35 306.559 193.897 306.513 194.457 306.422C195.017 306.331 195.473 306.22 195.824 306.09V308.609C195.447 308.779 194.919 308.922 194.242 309.039C193.578 309.156 192.927 309.215 192.289 309.215C191.156 309.215 190.128 309.02 189.203 308.629C188.279 308.225 187.536 307.548 186.977 306.598C186.43 305.647 186.156 304.332 186.156 302.652V289.957H183.109V288.375L186.176 287.105L187.465 282.457H189.418V287.418H195.688V289.957H189.418V302.555C189.418 303.896 189.724 304.898 190.336 305.562C190.961 306.227 191.788 306.559 192.816 306.559ZM203.402 278.434V287.516C203.402 288.036 203.389 288.564 203.363 289.098C203.337 289.618 203.292 290.1 203.227 290.543H203.441C203.884 289.788 204.444 289.156 205.121 288.648C205.811 288.128 206.592 287.737 207.465 287.477C208.337 287.203 209.262 287.066 210.238 287.066C211.957 287.066 213.389 287.34 214.535 287.887C215.694 288.434 216.56 289.28 217.133 290.426C217.719 291.572 218.012 293.056 218.012 294.879V308.824H214.809V295.094C214.809 293.31 214.398 291.975 213.578 291.09C212.771 290.204 211.527 289.762 209.848 289.762C208.259 289.762 206.99 290.068 206.039 290.68C205.102 291.279 204.424 292.164 204.008 293.336C203.604 294.508 203.402 295.94 203.402 297.633V308.824H200.16V278.434H203.402ZM232.934 287.027C234.757 287.027 236.319 287.431 237.621 288.238C238.923 289.046 239.919 290.178 240.609 291.637C241.299 293.082 241.645 294.775 241.645 296.715V298.727H226.859C226.898 301.24 227.523 303.154 228.734 304.469C229.945 305.784 231.651 306.441 233.852 306.441C235.206 306.441 236.404 306.318 237.445 306.07C238.487 305.823 239.568 305.458 240.688 304.977V307.828C239.607 308.31 238.533 308.661 237.465 308.883C236.41 309.104 235.16 309.215 233.715 309.215C231.658 309.215 229.861 308.798 228.324 307.965C226.801 307.118 225.616 305.882 224.77 304.254C223.923 302.626 223.5 300.634 223.5 298.277C223.5 295.973 223.884 293.98 224.652 292.301C225.434 290.608 226.527 289.306 227.934 288.395C229.353 287.483 231.02 287.027 232.934 287.027ZM232.895 289.684C231.163 289.684 229.783 290.25 228.754 291.383C227.725 292.516 227.113 294.098 226.918 296.129H238.246C238.233 294.853 238.031 293.733 237.641 292.77C237.263 291.793 236.684 291.038 235.902 290.504C235.121 289.957 234.118 289.684 232.895 289.684ZM271.391 302.965C271.391 304.332 271.046 305.484 270.355 306.422C269.678 307.346 268.702 308.043 267.426 308.512C266.163 308.98 264.652 309.215 262.895 309.215C261.397 309.215 260.102 309.098 259.008 308.863C257.914 308.629 256.957 308.297 256.137 307.867V304.879C257.009 305.309 258.051 305.699 259.262 306.051C260.473 306.402 261.71 306.578 262.973 306.578C264.822 306.578 266.163 306.279 266.996 305.68C267.829 305.081 268.246 304.267 268.246 303.238C268.246 302.652 268.077 302.138 267.738 301.695C267.413 301.24 266.859 300.803 266.078 300.387C265.297 299.957 264.216 299.488 262.836 298.98C261.469 298.46 260.284 297.945 259.281 297.438C258.292 296.917 257.523 296.285 256.977 295.543C256.443 294.801 256.176 293.837 256.176 292.652C256.176 290.842 256.905 289.456 258.363 288.492C259.835 287.516 261.762 287.027 264.145 287.027C265.434 287.027 266.638 287.158 267.758 287.418C268.891 287.665 269.945 288.004 270.922 288.434L269.828 291.031C268.943 290.654 267.999 290.335 266.996 290.074C265.993 289.814 264.971 289.684 263.93 289.684C262.432 289.684 261.28 289.931 260.473 290.426C259.678 290.921 259.281 291.598 259.281 292.457C259.281 293.121 259.464 293.668 259.828 294.098C260.206 294.527 260.805 294.931 261.625 295.309C262.445 295.686 263.526 296.129 264.867 296.637C266.208 297.132 267.367 297.646 268.344 298.18C269.32 298.701 270.069 299.339 270.59 300.094C271.124 300.836 271.391 301.793 271.391 302.965ZM273.227 287.418H276.703L281.43 299.84C281.703 300.569 281.957 301.272 282.191 301.949C282.426 302.613 282.634 303.251 282.816 303.863C282.999 304.475 283.142 305.068 283.246 305.641H283.383C283.565 304.99 283.826 304.137 284.164 303.082C284.503 302.014 284.867 300.927 285.258 299.82L289.73 287.418H293.227L283.91 311.969C283.415 313.284 282.836 314.43 282.172 315.406C281.521 316.383 280.727 317.132 279.789 317.652C278.852 318.186 277.719 318.453 276.391 318.453C275.779 318.453 275.238 318.414 274.77 318.336C274.301 318.271 273.897 318.193 273.559 318.102V315.504C273.845 315.569 274.19 315.628 274.594 315.68C275.01 315.732 275.44 315.758 275.883 315.758C276.69 315.758 277.387 315.602 277.973 315.289C278.572 314.99 279.086 314.547 279.516 313.961C279.945 313.375 280.316 312.678 280.629 311.871L281.801 308.863L273.227 287.418ZM310.492 302.965C310.492 304.332 310.147 305.484 309.457 306.422C308.78 307.346 307.803 308.043 306.527 308.512C305.264 308.98 303.754 309.215 301.996 309.215C300.499 309.215 299.203 309.098 298.109 308.863C297.016 308.629 296.059 308.297 295.238 307.867V304.879C296.111 305.309 297.152 305.699 298.363 306.051C299.574 306.402 300.811 306.578 302.074 306.578C303.923 306.578 305.264 306.279 306.098 305.68C306.931 305.081 307.348 304.267 307.348 303.238C307.348 302.652 307.178 302.138 306.84 301.695C306.514 301.24 305.961 300.803 305.18 300.387C304.398 299.957 303.318 299.488 301.938 298.98C300.57 298.46 299.385 297.945 298.383 297.438C297.393 296.917 296.625 296.285 296.078 295.543C295.544 294.801 295.277 293.837 295.277 292.652C295.277 290.842 296.007 289.456 297.465 288.492C298.936 287.516 300.863 287.027 303.246 287.027C304.535 287.027 305.74 287.158 306.859 287.418C307.992 287.665 309.047 288.004 310.023 288.434L308.93 291.031C308.044 290.654 307.1 290.335 306.098 290.074C305.095 289.814 304.073 289.684 303.031 289.684C301.534 289.684 300.382 289.931 299.574 290.426C298.78 290.921 298.383 291.598 298.383 292.457C298.383 293.121 298.565 293.668 298.93 294.098C299.307 294.527 299.906 294.931 300.727 295.309C301.547 295.686 302.628 296.129 303.969 296.637C305.31 297.132 306.469 297.646 307.445 298.18C308.422 298.701 309.171 299.339 309.691 300.094C310.225 300.836 310.492 301.793 310.492 302.965ZM322.621 306.559C323.155 306.559 323.702 306.513 324.262 306.422C324.822 306.331 325.277 306.22 325.629 306.09V308.609C325.251 308.779 324.724 308.922 324.047 309.039C323.383 309.156 322.732 309.215 322.094 309.215C320.961 309.215 319.932 309.02 319.008 308.629C318.083 308.225 317.341 307.548 316.781 306.598C316.234 305.647 315.961 304.332 315.961 302.652V289.957H312.914V288.375L315.98 287.105L317.27 282.457H319.223V287.418H325.492V289.957H319.223V302.555C319.223 303.896 319.529 304.898 320.141 305.562C320.766 306.227 321.592 306.559 322.621 306.559ZM338.207 287.027C340.03 287.027 341.592 287.431 342.895 288.238C344.197 289.046 345.193 290.178 345.883 291.637C346.573 293.082 346.918 294.775 346.918 296.715V298.727H332.133C332.172 301.24 332.797 303.154 334.008 304.469C335.219 305.784 336.924 306.441 339.125 306.441C340.479 306.441 341.677 306.318 342.719 306.07C343.76 305.823 344.841 305.458 345.961 304.977V307.828C344.88 308.31 343.806 308.661 342.738 308.883C341.684 309.104 340.434 309.215 338.988 309.215C336.931 309.215 335.134 308.798 333.598 307.965C332.074 307.118 330.889 305.882 330.043 304.254C329.197 302.626 328.773 300.634 328.773 298.277C328.773 295.973 329.158 293.98 329.926 292.301C330.707 290.608 331.801 289.306 333.207 288.395C334.626 287.483 336.293 287.027 338.207 287.027ZM338.168 289.684C336.436 289.684 335.056 290.25 334.027 291.383C332.999 292.516 332.387 294.098 332.191 296.129H343.52C343.507 294.853 343.305 293.733 342.914 292.77C342.536 291.793 341.957 291.038 341.176 290.504C340.395 289.957 339.392 289.684 338.168 289.684ZM375.668 287.027C378.025 287.027 379.802 287.646 381 288.883C382.198 290.107 382.797 292.079 382.797 294.801V308.824H379.594V294.957C379.594 293.225 379.216 291.93 378.461 291.07C377.719 290.198 376.612 289.762 375.141 289.762C373.07 289.762 371.566 290.361 370.629 291.559C369.691 292.757 369.223 294.521 369.223 296.852V308.824H366V294.957C366 293.798 365.831 292.835 365.492 292.066C365.167 291.298 364.672 290.725 364.008 290.348C363.357 289.957 362.53 289.762 361.527 289.762C360.108 289.762 358.969 290.055 358.109 290.641C357.25 291.227 356.625 292.099 356.234 293.258C355.857 294.404 355.668 295.816 355.668 297.496V308.824H352.426V287.418H355.043L355.531 290.445H355.707C356.137 289.703 356.677 289.078 357.328 288.57C357.979 288.062 358.708 287.678 359.516 287.418C360.323 287.158 361.182 287.027 362.094 287.027C363.721 287.027 365.082 287.333 366.176 287.945C367.283 288.544 368.083 289.462 368.578 290.699H368.754C369.457 289.462 370.421 288.544 371.645 287.945C372.868 287.333 374.21 287.027 375.668 287.027ZM408.09 287.027C409.913 287.027 411.475 287.431 412.777 288.238C414.079 289.046 415.076 290.178 415.766 291.637C416.456 293.082 416.801 294.775 416.801 296.715V298.727H402.016C402.055 301.24 402.68 303.154 403.891 304.469C405.102 305.784 406.807 306.441 409.008 306.441C410.362 306.441 411.56 306.318 412.602 306.07C413.643 305.823 414.724 305.458 415.844 304.977V307.828C414.763 308.31 413.689 308.661 412.621 308.883C411.566 309.104 410.316 309.215 408.871 309.215C406.814 309.215 405.017 308.798 403.48 307.965C401.957 307.118 400.772 305.882 399.926 304.254C399.079 302.626 398.656 300.634 398.656 298.277C398.656 295.973 399.04 293.98 399.809 292.301C400.59 290.608 401.684 289.306 403.09 288.395C404.509 287.483 406.176 287.027 408.09 287.027ZM408.051 289.684C406.319 289.684 404.939 290.25 403.91 291.383C402.882 292.516 402.27 294.098 402.074 296.129H413.402C413.389 294.853 413.188 293.733 412.797 292.77C412.419 291.793 411.84 291.038 411.059 290.504C410.277 289.957 409.275 289.684 408.051 289.684ZM432.445 287.027C434.984 287.027 436.905 287.652 438.207 288.902C439.509 290.139 440.16 292.132 440.16 294.879V308.824H436.957V295.094C436.957 293.31 436.547 291.975 435.727 291.09C434.919 290.204 433.676 289.762 431.996 289.762C429.626 289.762 427.96 290.432 426.996 291.773C426.033 293.115 425.551 295.061 425.551 297.613V308.824H422.309V287.418H424.926L425.414 290.504H425.59C426.046 289.749 426.625 289.117 427.328 288.609C428.031 288.089 428.819 287.698 429.691 287.438C430.564 287.164 431.482 287.027 432.445 287.027ZM451.547 308.824L443.422 287.418H446.898L451.605 300.367C451.931 301.253 452.263 302.229 452.602 303.297C452.94 304.365 453.174 305.224 453.305 305.875H453.441C453.598 305.224 453.858 304.365 454.223 303.297C454.587 302.216 454.919 301.24 455.219 300.367L459.926 287.418H463.402L455.258 308.824H451.547ZM470.082 287.418V308.824H466.84V287.418H470.082ZM468.5 279.41C469.034 279.41 469.49 279.586 469.867 279.938C470.258 280.276 470.453 280.81 470.453 281.539C470.453 282.255 470.258 282.789 469.867 283.141C469.49 283.492 469.034 283.668 468.5 283.668C467.94 283.668 467.471 283.492 467.094 283.141C466.729 282.789 466.547 282.255 466.547 281.539C466.547 280.81 466.729 280.276 467.094 279.938C467.471 279.586 467.94 279.41 468.5 279.41ZM486.684 287.027C487.113 287.027 487.562 287.053 488.031 287.105C488.5 287.145 488.917 287.203 489.281 287.281L488.871 290.289C488.52 290.198 488.129 290.126 487.699 290.074C487.27 290.022 486.866 289.996 486.488 289.996C485.629 289.996 484.815 290.172 484.047 290.523C483.292 290.862 482.628 291.357 482.055 292.008C481.482 292.646 481.033 293.421 480.707 294.332C480.382 295.23 480.219 296.233 480.219 297.34V308.824H476.957V287.418H479.652L480.004 291.363H480.141C480.583 290.569 481.117 289.846 481.742 289.195C482.367 288.531 483.09 288.004 483.91 287.613C484.743 287.223 485.668 287.027 486.684 287.027ZM511.781 298.082C511.781 299.84 511.553 301.409 511.098 302.789C510.642 304.169 509.984 305.335 509.125 306.285C508.266 307.236 507.224 307.965 506 308.473C504.789 308.967 503.415 309.215 501.879 309.215C500.447 309.215 499.132 308.967 497.934 308.473C496.749 307.965 495.72 307.236 494.848 306.285C493.988 305.335 493.318 304.169 492.836 302.789C492.367 301.409 492.133 299.84 492.133 298.082C492.133 295.738 492.53 293.746 493.324 292.105C494.118 290.452 495.251 289.195 496.723 288.336C498.207 287.464 499.971 287.027 502.016 287.027C503.969 287.027 505.674 287.464 507.133 288.336C508.604 289.208 509.743 290.471 510.551 292.125C511.371 293.766 511.781 295.751 511.781 298.082ZM495.492 298.082C495.492 299.801 495.72 301.292 496.176 302.555C496.632 303.818 497.335 304.794 498.285 305.484C499.236 306.174 500.46 306.52 501.957 306.52C503.441 306.52 504.659 306.174 505.609 305.484C506.573 304.794 507.283 303.818 507.738 302.555C508.194 301.292 508.422 299.801 508.422 298.082C508.422 296.376 508.194 294.905 507.738 293.668C507.283 292.418 506.579 291.454 505.629 290.777C504.678 290.1 503.448 289.762 501.938 289.762C499.711 289.762 498.077 290.497 497.035 291.969C496.007 293.44 495.492 295.478 495.492 298.082ZM527.523 287.027C530.062 287.027 531.983 287.652 533.285 288.902C534.587 290.139 535.238 292.132 535.238 294.879V308.824H532.035V295.094C532.035 293.31 531.625 291.975 530.805 291.09C529.997 290.204 528.754 289.762 527.074 289.762C524.704 289.762 523.038 290.432 522.074 291.773C521.111 293.115 520.629 295.061 520.629 297.613V308.824H517.387V287.418H520.004L520.492 290.504H520.668C521.124 289.749 521.703 289.117 522.406 288.609C523.109 288.089 523.897 287.698 524.77 287.438C525.642 287.164 526.56 287.027 527.523 287.027ZM565.16 287.027C567.517 287.027 569.294 287.646 570.492 288.883C571.69 290.107 572.289 292.079 572.289 294.801V308.824H569.086V294.957C569.086 293.225 568.708 291.93 567.953 291.07C567.211 290.198 566.104 289.762 564.633 289.762C562.562 289.762 561.059 290.361 560.121 291.559C559.184 292.757 558.715 294.521 558.715 296.852V308.824H555.492V294.957C555.492 293.798 555.323 292.835 554.984 292.066C554.659 291.298 554.164 290.725 553.5 290.348C552.849 289.957 552.022 289.762 551.02 289.762C549.6 289.762 548.461 290.055 547.602 290.641C546.742 291.227 546.117 292.099 545.727 293.258C545.349 294.404 545.16 295.816 545.16 297.496V308.824H541.918V287.418H544.535L545.023 290.445H545.199C545.629 289.703 546.169 289.078 546.82 288.57C547.471 288.062 548.201 287.678 549.008 287.418C549.815 287.158 550.674 287.027 551.586 287.027C553.214 287.027 554.574 287.333 555.668 287.945C556.775 288.544 557.576 289.462 558.07 290.699H558.246C558.949 289.462 559.913 288.544 561.137 287.945C562.361 287.333 563.702 287.027 565.16 287.027ZM587.191 287.027C589.014 287.027 590.577 287.431 591.879 288.238C593.181 289.046 594.177 290.178 594.867 291.637C595.557 293.082 595.902 294.775 595.902 296.715V298.727H581.117C581.156 301.24 581.781 303.154 582.992 304.469C584.203 305.784 585.909 306.441 588.109 306.441C589.464 306.441 590.661 306.318 591.703 306.07C592.745 305.823 593.826 305.458 594.945 304.977V307.828C593.865 308.31 592.79 308.661 591.723 308.883C590.668 309.104 589.418 309.215 587.973 309.215C585.915 309.215 584.118 308.798 582.582 307.965C581.059 307.118 579.874 305.882 579.027 304.254C578.181 302.626 577.758 300.634 577.758 298.277C577.758 295.973 578.142 293.98 578.91 292.301C579.691 290.608 580.785 289.306 582.191 288.395C583.611 287.483 585.277 287.027 587.191 287.027ZM587.152 289.684C585.421 289.684 584.04 290.25 583.012 291.383C581.983 292.516 581.371 294.098 581.176 296.129H592.504C592.491 294.853 592.289 293.733 591.898 292.77C591.521 291.793 590.941 291.038 590.16 290.504C589.379 289.957 588.376 289.684 587.152 289.684ZM611.547 287.027C614.086 287.027 616.007 287.652 617.309 288.902C618.611 290.139 619.262 292.132 619.262 294.879V308.824H616.059V295.094C616.059 293.31 615.648 291.975 614.828 291.09C614.021 290.204 612.777 289.762 611.098 289.762C608.728 289.762 607.061 290.432 606.098 291.773C605.134 293.115 604.652 295.061 604.652 297.613V308.824H601.41V287.418H604.027L604.516 290.504H604.691C605.147 289.749 605.727 289.117 606.43 288.609C607.133 288.089 607.921 287.698 608.793 287.438C609.665 287.164 610.583 287.027 611.547 287.027ZM632.855 306.559C633.389 306.559 633.936 306.513 634.496 306.422C635.056 306.331 635.512 306.22 635.863 306.09V308.609C635.486 308.779 634.958 308.922 634.281 309.039C633.617 309.156 632.966 309.215 632.328 309.215C631.195 309.215 630.167 309.02 629.242 308.629C628.318 308.225 627.576 307.548 627.016 306.598C626.469 305.647 626.195 304.332 626.195 302.652V289.957H623.148V288.375L626.215 287.105L627.504 282.457H629.457V287.418H635.727V289.957H629.457V302.555C629.457 303.896 629.763 304.898 630.375 305.562C631 306.227 631.827 306.559 632.855 306.559ZM655.297 308.824L647.172 287.418H650.648L655.355 300.367C655.681 301.253 656.013 302.229 656.352 303.297C656.69 304.365 656.924 305.224 657.055 305.875H657.191C657.348 305.224 657.608 304.365 657.973 303.297C658.337 302.216 658.669 301.24 658.969 300.367L663.676 287.418H667.152L659.008 308.824H655.297ZM678.598 287.066C681.15 287.066 683.044 287.639 684.281 288.785C685.518 289.931 686.137 291.76 686.137 294.273V308.824H683.773L683.148 305.66H682.992C682.393 306.441 681.768 307.099 681.117 307.633C680.466 308.154 679.711 308.551 678.852 308.824C678.005 309.085 676.964 309.215 675.727 309.215C674.424 309.215 673.266 308.987 672.25 308.531C671.247 308.076 670.453 307.385 669.867 306.461C669.294 305.536 669.008 304.365 669.008 302.945C669.008 300.81 669.854 299.169 671.547 298.023C673.24 296.878 675.818 296.253 679.281 296.148L682.973 295.992V294.684C682.973 292.835 682.576 291.539 681.781 290.797C680.987 290.055 679.867 289.684 678.422 289.684C677.302 289.684 676.234 289.846 675.219 290.172C674.203 290.497 673.24 290.882 672.328 291.324L671.332 288.863C672.296 288.368 673.402 287.945 674.652 287.594C675.902 287.242 677.217 287.066 678.598 287.066ZM682.934 298.277L679.672 298.414C677.003 298.518 675.121 298.954 674.027 299.723C672.934 300.491 672.387 301.578 672.387 302.984C672.387 304.208 672.758 305.113 673.5 305.699C674.242 306.285 675.225 306.578 676.449 306.578C678.35 306.578 679.906 306.051 681.117 304.996C682.328 303.941 682.934 302.359 682.934 300.25V298.277ZM702.543 287.027C702.973 287.027 703.422 287.053 703.891 287.105C704.359 287.145 704.776 287.203 705.141 287.281L704.73 290.289C704.379 290.198 703.988 290.126 703.559 290.074C703.129 290.022 702.725 289.996 702.348 289.996C701.488 289.996 700.674 290.172 699.906 290.523C699.151 290.862 698.487 291.357 697.914 292.008C697.341 292.646 696.892 293.421 696.566 294.332C696.241 295.23 696.078 296.233 696.078 297.34V308.824H692.816V287.418H695.512L695.863 291.363H696C696.443 290.569 696.977 289.846 697.602 289.195C698.227 288.531 698.949 288.004 699.77 287.613C700.603 287.223 701.527 287.027 702.543 287.027ZM712.426 287.418V308.824H709.184V287.418H712.426ZM710.844 279.41C711.378 279.41 711.833 279.586 712.211 279.938C712.602 280.276 712.797 280.81 712.797 281.539C712.797 282.255 712.602 282.789 712.211 283.141C711.833 283.492 711.378 283.668 710.844 283.668C710.284 283.668 709.815 283.492 709.438 283.141C709.073 282.789 708.891 282.255 708.891 281.539C708.891 280.81 709.073 280.276 709.438 279.938C709.815 279.586 710.284 279.41 710.844 279.41ZM727.309 287.066C729.861 287.066 731.755 287.639 732.992 288.785C734.229 289.931 734.848 291.76 734.848 294.273V308.824H732.484L731.859 305.66H731.703C731.104 306.441 730.479 307.099 729.828 307.633C729.177 308.154 728.422 308.551 727.562 308.824C726.716 309.085 725.674 309.215 724.438 309.215C723.135 309.215 721.977 308.987 720.961 308.531C719.958 308.076 719.164 307.385 718.578 306.461C718.005 305.536 717.719 304.365 717.719 302.945C717.719 300.81 718.565 299.169 720.258 298.023C721.951 296.878 724.529 296.253 727.992 296.148L731.684 295.992V294.684C731.684 292.835 731.286 291.539 730.492 290.797C729.698 290.055 728.578 289.684 727.133 289.684C726.013 289.684 724.945 289.846 723.93 290.172C722.914 290.497 721.951 290.882 721.039 291.324L720.043 288.863C721.007 288.368 722.113 287.945 723.363 287.594C724.613 287.242 725.928 287.066 727.309 287.066ZM731.645 298.277L728.383 298.414C725.714 298.518 723.832 298.954 722.738 299.723C721.645 300.491 721.098 301.578 721.098 302.984C721.098 304.208 721.469 305.113 722.211 305.699C722.953 306.285 723.936 306.578 725.16 306.578C727.061 306.578 728.617 306.051 729.828 304.996C731.039 303.941 731.645 302.359 731.645 300.25V298.277ZM744.77 278.434V286.031C744.77 286.904 744.743 287.75 744.691 288.57C744.652 289.391 744.62 290.029 744.594 290.484H744.77C745.355 289.521 746.202 288.707 747.309 288.043C748.415 287.379 749.828 287.047 751.547 287.047C754.229 287.047 756.365 287.978 757.953 289.84C759.555 291.689 760.355 294.443 760.355 298.102C760.355 300.51 759.991 302.542 759.262 304.195C758.533 305.849 757.504 307.099 756.176 307.945C754.848 308.792 753.279 309.215 751.469 309.215C749.776 309.215 748.383 308.902 747.289 308.277C746.208 307.639 745.375 306.865 744.789 305.953H744.535L743.871 308.824H741.527V278.434H744.77ZM751.02 289.762C749.47 289.762 748.24 290.068 747.328 290.68C746.417 291.279 745.759 292.19 745.355 293.414C744.965 294.625 744.77 296.161 744.77 298.023V298.199C744.77 300.895 745.219 302.958 746.117 304.391C747.016 305.81 748.65 306.52 751.02 306.52C753.012 306.52 754.503 305.79 755.492 304.332C756.495 302.874 756.996 300.79 756.996 298.082C756.996 295.322 756.501 293.245 755.512 291.852C754.535 290.458 753.038 289.762 751.02 289.762ZM769.281 308.824H766.02V278.434H769.281V308.824ZM784.379 287.027C786.202 287.027 787.764 287.431 789.066 288.238C790.368 289.046 791.365 290.178 792.055 291.637C792.745 293.082 793.09 294.775 793.09 296.715V298.727H778.305C778.344 301.24 778.969 303.154 780.18 304.469C781.391 305.784 783.096 306.441 785.297 306.441C786.651 306.441 787.849 306.318 788.891 306.07C789.932 305.823 791.013 305.458 792.133 304.977V307.828C791.052 308.31 789.978 308.661 788.91 308.883C787.855 309.104 786.605 309.215 785.16 309.215C783.103 309.215 781.306 308.798 779.77 307.965C778.246 307.118 777.061 305.882 776.215 304.254C775.368 302.626 774.945 300.634 774.945 298.277C774.945 295.973 775.329 293.98 776.098 292.301C776.879 290.608 777.973 289.306 779.379 288.395C780.798 287.483 782.465 287.027 784.379 287.027ZM784.34 289.684C782.608 289.684 781.228 290.25 780.199 291.383C779.171 292.516 778.559 294.098 778.363 296.129H789.691C789.678 294.853 789.477 293.733 789.086 292.77C788.708 291.793 788.129 291.038 787.348 290.504C786.566 289.957 785.564 289.684 784.34 289.684ZM812.445 302.965C812.445 304.332 812.1 305.484 811.41 306.422C810.733 307.346 809.757 308.043 808.48 308.512C807.217 308.98 805.707 309.215 803.949 309.215C802.452 309.215 801.156 309.098 800.062 308.863C798.969 308.629 798.012 308.297 797.191 307.867V304.879C798.064 305.309 799.105 305.699 800.316 306.051C801.527 306.402 802.764 306.578 804.027 306.578C805.876 306.578 807.217 306.279 808.051 305.68C808.884 305.081 809.301 304.267 809.301 303.238C809.301 302.652 809.132 302.138 808.793 301.695C808.467 301.24 807.914 300.803 807.133 300.387C806.352 299.957 805.271 299.488 803.891 298.98C802.523 298.46 801.339 297.945 800.336 297.438C799.346 296.917 798.578 296.285 798.031 295.543C797.497 294.801 797.23 293.837 797.23 292.652C797.23 290.842 797.96 289.456 799.418 288.492C800.889 287.516 802.816 287.027 805.199 287.027C806.488 287.027 807.693 287.158 808.812 287.418C809.945 287.665 811 288.004 811.977 288.434L810.883 291.031C809.997 290.654 809.053 290.335 808.051 290.074C807.048 289.814 806.026 289.684 804.984 289.684C803.487 289.684 802.335 289.931 801.527 290.426C800.733 290.921 800.336 291.598 800.336 292.457C800.336 293.121 800.518 293.668 800.883 294.098C801.26 294.527 801.859 294.931 802.68 295.309C803.5 295.686 804.581 296.129 805.922 296.637C807.263 297.132 808.422 297.646 809.398 298.18C810.375 298.701 811.124 299.339 811.645 300.094C812.178 300.836 812.445 301.793 812.445 302.965Z" fill="white"/>
<path d="M379.474 343.901C378.45 343.901 377.527 344.079 376.706 344.435C375.894 344.782 375.2 345.289 374.624 345.958C374.057 346.618 373.621 347.418 373.316 348.357C373.012 349.297 372.859 350.355 372.859 351.531C372.859 353.089 373.101 354.443 373.583 355.594C374.074 356.736 374.802 357.621 375.767 358.247C376.74 358.873 377.954 359.187 379.41 359.187C380.24 359.187 381.018 359.119 381.746 358.983C382.482 358.84 383.198 358.662 383.892 358.45V360.329C383.215 360.583 382.504 360.769 381.759 360.888C381.014 361.015 380.13 361.078 379.105 361.078C377.218 361.078 375.64 360.689 374.37 359.91C373.109 359.123 372.161 358.014 371.526 356.584C370.9 355.154 370.587 353.465 370.587 351.519C370.587 350.114 370.782 348.831 371.171 347.672C371.569 346.504 372.144 345.497 372.897 344.65C373.659 343.804 374.59 343.152 375.69 342.695C376.799 342.23 378.069 341.997 379.499 341.997C380.438 341.997 381.344 342.09 382.216 342.276C383.088 342.463 383.875 342.729 384.577 343.076L383.714 344.904C383.121 344.633 382.47 344.401 381.759 344.206C381.056 344.003 380.295 343.901 379.474 343.901ZM400.116 353.842C400.116 354.984 399.968 356.004 399.671 356.901C399.375 357.799 398.948 358.556 398.389 359.174C397.831 359.792 397.153 360.266 396.358 360.596C395.571 360.917 394.678 361.078 393.679 361.078C392.748 361.078 391.893 360.917 391.115 360.596C390.345 360.266 389.676 359.792 389.109 359.174C388.55 358.556 388.114 357.799 387.801 356.901C387.497 356.004 387.344 354.984 387.344 353.842C387.344 352.318 387.602 351.023 388.119 349.957C388.635 348.882 389.371 348.065 390.328 347.507C391.292 346.94 392.439 346.656 393.768 346.656C395.038 346.656 396.146 346.94 397.094 347.507C398.051 348.074 398.791 348.895 399.316 349.97C399.849 351.036 400.116 352.327 400.116 353.842ZM389.528 353.842C389.528 354.959 389.676 355.928 389.972 356.749C390.268 357.57 390.725 358.205 391.343 358.653C391.961 359.102 392.757 359.326 393.73 359.326C394.695 359.326 395.486 359.102 396.104 358.653C396.73 358.205 397.192 357.57 397.488 356.749C397.784 355.928 397.932 354.959 397.932 353.842C397.932 352.733 397.784 351.777 397.488 350.973C397.192 350.16 396.735 349.534 396.117 349.094C395.499 348.654 394.699 348.434 393.717 348.434C392.27 348.434 391.208 348.912 390.531 349.868C389.862 350.825 389.528 352.149 389.528 353.842ZM410.868 346.656C412.519 346.656 413.767 347.062 414.613 347.875C415.46 348.679 415.883 349.974 415.883 351.76V360.824H413.801V351.899C413.801 350.74 413.534 349.872 413.001 349.297C412.476 348.721 411.668 348.434 410.576 348.434C409.036 348.434 407.952 348.869 407.326 349.741C406.7 350.613 406.387 351.878 406.387 353.537V360.824H404.279V346.91H405.98L406.298 348.916H406.412C406.708 348.425 407.085 348.015 407.542 347.685C407.999 347.346 408.511 347.092 409.078 346.923C409.645 346.745 410.242 346.656 410.868 346.656ZM425.239 359.352C425.586 359.352 425.941 359.322 426.305 359.263C426.669 359.203 426.965 359.132 427.194 359.047V360.685C426.948 360.795 426.606 360.888 426.165 360.964C425.734 361.04 425.311 361.078 424.896 361.078C424.16 361.078 423.491 360.951 422.89 360.697C422.289 360.435 421.807 359.995 421.443 359.377C421.087 358.759 420.91 357.904 420.91 356.812V348.561H418.929V347.532L420.922 346.707L421.76 343.686H423.03V346.91H427.105V348.561H423.03V356.749C423.03 357.621 423.229 358.272 423.626 358.704C424.033 359.136 424.57 359.352 425.239 359.352ZM436.854 346.656C437.134 346.656 437.426 346.673 437.73 346.707C438.035 346.732 438.306 346.771 438.543 346.821L438.276 348.776C438.048 348.717 437.794 348.671 437.515 348.637C437.235 348.603 436.973 348.586 436.727 348.586C436.169 348.586 435.64 348.7 435.141 348.929C434.65 349.149 434.218 349.47 433.846 349.894C433.473 350.308 433.181 350.812 432.97 351.404C432.758 351.988 432.652 352.64 432.652 353.359V360.824H430.532V346.91H432.284L432.513 349.475H432.601C432.889 348.958 433.236 348.489 433.643 348.065C434.049 347.634 434.518 347.291 435.052 347.037C435.593 346.783 436.194 346.656 436.854 346.656ZM453.688 353.842C453.688 354.984 453.54 356.004 453.244 356.901C452.947 357.799 452.52 358.556 451.961 359.174C451.403 359.792 450.726 360.266 449.93 360.596C449.143 360.917 448.25 361.078 447.251 361.078C446.32 361.078 445.466 360.917 444.687 360.596C443.917 360.266 443.248 359.792 442.681 359.174C442.122 358.556 441.687 357.799 441.373 356.901C441.069 356.004 440.916 354.984 440.916 353.842C440.916 352.318 441.175 351.023 441.691 349.957C442.207 348.882 442.943 348.065 443.9 347.507C444.865 346.94 446.011 346.656 447.34 346.656C448.61 346.656 449.718 346.94 450.666 347.507C451.623 348.074 452.363 348.895 452.888 349.97C453.421 351.036 453.688 352.327 453.688 353.842ZM443.1 353.842C443.1 354.959 443.248 355.928 443.544 356.749C443.841 357.57 444.298 358.205 444.915 358.653C445.533 359.102 446.329 359.326 447.302 359.326C448.267 359.326 449.058 359.102 449.676 358.653C450.302 358.205 450.764 357.57 451.06 356.749C451.356 355.928 451.504 354.959 451.504 353.842C451.504 352.733 451.356 351.777 451.06 350.973C450.764 350.16 450.307 349.534 449.689 349.094C449.071 348.654 448.271 348.434 447.289 348.434C445.842 348.434 444.78 348.912 444.103 349.868C443.434 350.825 443.1 352.149 443.1 353.842ZM459.972 360.824H457.851V341.07H459.972V360.824ZM478.76 346.656C480.495 346.656 481.878 347.253 482.911 348.446C483.944 349.64 484.46 351.434 484.46 353.829C484.46 355.412 484.223 356.741 483.749 357.815C483.275 358.89 482.606 359.703 481.743 360.253C480.888 360.803 479.877 361.078 478.709 361.078C477.973 361.078 477.325 360.981 476.766 360.786C476.208 360.591 475.73 360.329 475.332 359.999C474.934 359.669 474.604 359.309 474.342 358.92H474.189C474.215 359.25 474.244 359.648 474.278 360.113C474.32 360.579 474.342 360.985 474.342 361.332V367.045H472.222V346.91H473.961L474.24 348.967H474.342C474.612 348.544 474.943 348.159 475.332 347.812C475.721 347.456 476.195 347.177 476.754 346.974C477.321 346.762 477.989 346.656 478.76 346.656ZM478.391 348.434C477.427 348.434 476.648 348.62 476.056 348.992C475.472 349.365 475.044 349.923 474.773 350.668C474.502 351.404 474.359 352.331 474.342 353.448V353.854C474.342 355.031 474.469 356.025 474.723 356.838C474.985 357.65 475.412 358.268 476.005 358.691C476.606 359.115 477.41 359.326 478.417 359.326C479.28 359.326 480 359.093 480.575 358.628C481.151 358.162 481.578 357.515 481.857 356.686C482.145 355.848 482.289 354.887 482.289 353.804C482.289 352.162 481.967 350.858 481.324 349.894C480.689 348.92 479.712 348.434 478.391 348.434ZM493.867 346.682C495.525 346.682 496.757 347.054 497.561 347.799C498.365 348.544 498.767 349.733 498.767 351.366V360.824H497.231L496.825 358.768H496.723C496.334 359.275 495.927 359.703 495.504 360.05C495.081 360.388 494.59 360.646 494.032 360.824C493.481 360.993 492.804 361.078 492 361.078C491.154 361.078 490.401 360.93 489.741 360.634C489.089 360.338 488.573 359.889 488.192 359.288C487.819 358.687 487.633 357.925 487.633 357.003C487.633 355.615 488.183 354.549 489.284 353.804C490.384 353.059 492.06 352.653 494.311 352.585L496.71 352.483V351.633C496.71 350.431 496.452 349.589 495.936 349.106C495.42 348.624 494.692 348.383 493.752 348.383C493.024 348.383 492.33 348.489 491.67 348.7C491.01 348.912 490.384 349.161 489.791 349.449L489.144 347.85C489.77 347.528 490.49 347.253 491.302 347.024C492.115 346.796 492.969 346.682 493.867 346.682ZM496.685 353.969L494.565 354.058C492.83 354.125 491.607 354.409 490.896 354.908C490.185 355.408 489.829 356.114 489.829 357.028C489.829 357.824 490.071 358.412 490.553 358.793C491.035 359.174 491.674 359.364 492.47 359.364C493.706 359.364 494.717 359.021 495.504 358.336C496.291 357.65 496.685 356.622 496.685 355.251V353.969ZM510.218 346.656C511.868 346.656 513.116 347.062 513.963 347.875C514.809 348.679 515.232 349.974 515.232 351.76V360.824H513.15V351.899C513.15 350.74 512.884 349.872 512.35 349.297C511.826 348.721 511.017 348.434 509.926 348.434C508.385 348.434 507.302 348.869 506.676 349.741C506.049 350.613 505.736 351.878 505.736 353.537V360.824H503.629V346.91H505.33L505.647 348.916H505.762C506.058 348.425 506.434 348.015 506.891 347.685C507.348 347.346 507.86 347.092 508.428 346.923C508.995 346.745 509.591 346.656 510.218 346.656ZM525.451 346.656C526.636 346.656 527.652 346.919 528.498 347.443C529.345 347.968 529.992 348.704 530.441 349.652C530.889 350.592 531.114 351.692 531.114 352.953V354.261H521.503C521.529 355.894 521.935 357.138 522.722 357.993C523.509 358.848 524.618 359.275 526.048 359.275C526.928 359.275 527.707 359.195 528.384 359.034C529.061 358.873 529.764 358.636 530.491 358.323V360.177C529.789 360.49 529.091 360.718 528.397 360.862C527.711 361.006 526.899 361.078 525.959 361.078C524.622 361.078 523.454 360.807 522.455 360.266C521.465 359.715 520.695 358.911 520.145 357.854C519.595 356.796 519.32 355.501 519.32 353.969C519.32 352.471 519.569 351.176 520.069 350.084C520.576 348.984 521.287 348.137 522.201 347.545C523.124 346.952 524.207 346.656 525.451 346.656ZM525.426 348.383C524.3 348.383 523.403 348.751 522.735 349.487C522.066 350.224 521.668 351.252 521.541 352.572H528.905C528.896 351.743 528.765 351.015 528.511 350.389C528.266 349.754 527.889 349.263 527.381 348.916C526.873 348.561 526.222 348.383 525.426 348.383ZM537.334 360.824H535.214V341.07H537.334V360.824Z" fill="#D8D8D8"/>
<rect x="38" y="435.824" width="833" height="5" fill="#474747"/>
<defs>
<linearGradient id="paint0_linear_439_1414" x1="454.5" y1="188.824" x2="454.5" y2="202.824" gradientUnits="userSpaceOnUse">
<stop stop-color="#818990"/>
<stop offset="1" stop-color="#9EA7B0"/>
</linearGradient>
<linearGradient id="paint1_linear_439_1414" x1="391" y1="97.8242" x2="516.718" y2="186.225" gradientUnits="userSpaceOnUse">
<stop stop-color="#3FE3E7"/>
<stop offset="1" stop-color="#066BBC"/>
</linearGradient>
</defs>
</svg>
