<svg width="1312" height="166" viewBox="0 0 1312 166" fill="none" xmlns="http://www.w3.org/2000/svg">
<rect y="0.824219" width="1312" height="165" fill="black"/>
<path d="M25.1484 49.1758C17.3906 49.1758 13.5117 44.8867 13.5117 36.3086C13.5117 32.2422 14.4902 29.0957 16.4473 26.8691C18.4043 24.6309 21.1641 23.5117 24.7266 23.5117C26.4492 23.5117 27.9492 23.7871 29.2266 24.3379C30.5039 24.877 31.4355 25.6504 32.0215 26.6582L29.4199 29.2422C28.8926 28.4453 28.2188 27.8301 27.3984 27.3965C26.5898 26.9629 25.7109 26.7461 24.7617 26.7461C22.5 26.7461 20.6836 27.5605 19.3125 29.1895C17.9531 30.8184 17.2734 33.1328 17.2734 36.1328C17.2734 42.6719 20.0977 45.9414 25.7461 45.9414C27.4453 45.9414 29.1211 45.5898 30.7734 44.8867L31.582 47.9805C29.543 48.7773 27.3984 49.1758 25.1484 49.1758ZM43.6406 35.043C42.9258 35.043 42.3105 34.791 41.7949 34.2871C41.291 33.7715 41.0391 33.1562 41.0391 32.4414C41.0391 31.7148 41.291 31.0996 41.7949 30.5957C42.3105 30.0918 42.9258 29.8398 43.6406 29.8398C44.3672 29.8398 44.9824 30.0918 45.4863 30.5957C45.9902 31.0996 46.2422 31.7148 46.2422 32.4414C46.2422 33.1562 45.9902 33.7715 45.4863 34.2871C44.9824 34.791 44.3672 35.043 43.6406 35.043ZM43.6406 49.1758C42.9258 49.1758 42.3105 48.9238 41.7949 48.4199C41.291 47.9043 41.0391 47.2891 41.0391 46.5742C41.0391 45.8477 41.291 45.2324 41.7949 44.7285C42.3105 44.2246 42.9258 43.9727 43.6406 43.9727C44.3672 43.9727 44.9824 44.2246 45.4863 44.7285C45.9902 45.2324 46.2422 45.8477 46.2422 46.5742C46.2422 47.2891 45.9902 47.9043 45.4863 48.4199C44.9824 48.9238 44.3672 49.1758 43.6406 49.1758ZM69.5508 52.1641L55.418 20.5234H59.1445L73.2773 52.1641H69.5508ZM85.7578 49.1758C80.4141 49.1758 77.7422 46.3867 77.7422 40.8086V23.8633H81.3984V40.8086C81.3984 42.4727 81.7559 43.7266 82.4707 44.5703C83.1855 45.4141 84.3047 45.8359 85.8281 45.8359C88.7812 45.8359 90.2578 44.1602 90.2578 40.8086V23.8633H93.9141V40.8086C93.9141 43.5977 93.2227 45.6895 91.8398 47.084C90.457 48.4785 88.4297 49.1758 85.7578 49.1758ZM105.48 49.1758C104.074 49.1758 102.867 49.1348 101.859 49.0527C100.863 48.9707 99.9492 48.8359 99.1172 48.6484L99.5391 45.2734C100.77 45.4609 101.854 45.6016 102.791 45.6953C103.74 45.7891 104.637 45.8359 105.48 45.8359C107.367 45.8359 108.732 45.6543 109.576 45.291C110.432 44.916 110.859 44.3242 110.859 43.5156C110.859 42.9531 110.707 42.5371 110.402 42.2676C110.109 41.9863 109.652 41.7695 109.031 41.6172L104.742 40.5273C102.902 40.0586 101.549 39.4785 100.682 38.7871C99.8262 38.0957 99.3984 37.0469 99.3984 35.6406C99.3984 33.6016 100.178 32.125 101.736 31.2109C103.307 30.2969 105.832 29.8398 109.312 29.8398C110.215 29.8398 111.053 29.8691 111.826 29.9277C112.611 29.9746 113.414 30.0625 114.234 30.1914L113.848 33.4258C112.898 33.332 112.061 33.2676 111.334 33.2324C110.607 33.1973 109.898 33.1797 109.207 33.1797C107.121 33.1797 105.609 33.3613 104.672 33.7246C103.734 34.0762 103.266 34.6562 103.266 35.4648C103.266 36.0039 103.459 36.3965 103.846 36.6426C104.232 36.877 104.824 37.0938 105.621 37.293L109.066 38.1367C111.023 38.6055 112.453 39.2324 113.355 40.0176C114.27 40.8027 114.727 41.9453 114.727 43.4453C114.727 45.4492 113.994 46.9082 112.529 47.8223C111.064 48.7246 108.715 49.1758 105.48 49.1758ZM129.633 49.1758C126.457 49.1758 124.002 48.3438 122.268 46.6797C120.545 45.0039 119.684 42.6016 119.684 39.4727C119.684 36.4258 120.416 34.0586 121.881 32.3711C123.346 30.6836 125.414 29.8398 128.086 29.8398C130.605 29.8398 132.551 30.6016 133.922 32.125C135.305 33.6484 135.996 35.8633 135.996 38.7695C135.996 39.625 135.961 40.4219 135.891 41.1602H122.812V38.3125H132.621C132.621 36.6367 132.223 35.3535 131.426 34.4629C130.629 33.5605 129.527 33.1094 128.121 33.1094C126.539 33.1094 125.309 33.6484 124.43 34.7266C123.562 35.8047 123.129 37.3281 123.129 39.2969C123.129 41.4531 123.727 43.0938 124.922 44.2188C126.129 45.3438 127.84 45.9062 130.055 45.9062C130.828 45.9062 131.59 45.8652 132.34 45.7832C133.09 45.6895 133.852 45.5664 134.625 45.4141L135.082 48.6836C133.98 48.8945 132.973 49.0293 132.059 49.0879C131.145 49.1465 130.336 49.1758 129.633 49.1758ZM147.844 40.8086L146.754 34.9727H148.195C148.406 31.5508 150.117 29.8398 153.328 29.8398C155.25 29.8398 156.645 30.3906 157.512 31.4922C158.379 32.5938 158.812 34.375 158.812 36.8359H155.121C155.121 35.4766 154.916 34.498 154.506 33.9004C154.107 33.3027 153.457 33.0039 152.555 33.0039C150.973 33.0039 149.789 33.6836 149.004 35.043C148.23 36.3906 147.844 38.3125 147.844 40.8086ZM139.969 48.8242V45.5547H152.414V48.8242H139.969ZM144.117 48.8242V30.1914H147.141L147.844 35.5352V48.8242H144.117ZM140.672 33.4609V30.1914H146.895L147.246 33.4609H140.672ZM168.762 49.1758C167.355 49.1758 166.148 49.1348 165.141 49.0527C164.145 48.9707 163.23 48.8359 162.398 48.6484L162.82 45.2734C164.051 45.4609 165.135 45.6016 166.072 45.6953C167.021 45.7891 167.918 45.8359 168.762 45.8359C170.648 45.8359 172.014 45.6543 172.857 45.291C173.713 44.916 174.141 44.3242 174.141 43.5156C174.141 42.9531 173.988 42.5371 173.684 42.2676C173.391 41.9863 172.934 41.7695 172.312 41.6172L168.023 40.5273C166.184 40.0586 164.83 39.4785 163.963 38.7871C163.107 38.0957 162.68 37.0469 162.68 35.6406C162.68 33.6016 163.459 32.125 165.018 31.2109C166.588 30.2969 169.113 29.8398 172.594 29.8398C173.496 29.8398 174.334 29.8691 175.107 29.9277C175.893 29.9746 176.695 30.0625 177.516 30.1914L177.129 33.4258C176.18 33.332 175.342 33.2676 174.615 33.2324C173.889 33.1973 173.18 33.1797 172.488 33.1797C170.402 33.1797 168.891 33.3613 167.953 33.7246C167.016 34.0762 166.547 34.6562 166.547 35.4648C166.547 36.0039 166.74 36.3965 167.127 36.6426C167.514 36.877 168.105 37.0938 168.902 37.293L172.348 38.1367C174.305 38.6055 175.734 39.2324 176.637 40.0176C177.551 40.8027 178.008 41.9453 178.008 43.4453C178.008 45.4492 177.275 46.9082 175.811 47.8223C174.346 48.7246 171.996 49.1758 168.762 49.1758ZM196.113 52.1641L181.98 20.5234H185.707L199.84 52.1641H196.113ZM205.008 48.8242V23.8633H208.664V48.8242H205.008ZM205.008 39.0508V35.7109H218.367V39.0508H205.008ZM205.008 27.2031V23.8633H221.531V27.2031H205.008ZM235.102 49.1758C231.926 49.1758 229.471 48.3438 227.736 46.6797C226.014 45.0039 225.152 42.6016 225.152 39.4727C225.152 36.4258 225.885 34.0586 227.35 32.3711C228.814 30.6836 230.883 29.8398 233.555 29.8398C236.074 29.8398 238.02 30.6016 239.391 32.125C240.773 33.6484 241.465 35.8633 241.465 38.7695C241.465 39.625 241.43 40.4219 241.359 41.1602H228.281V38.3125H238.09C238.09 36.6367 237.691 35.3535 236.895 34.4629C236.098 33.5605 234.996 33.1094 233.59 33.1094C232.008 33.1094 230.777 33.6484 229.898 34.7266C229.031 35.8047 228.598 37.3281 228.598 39.2969C228.598 41.4531 229.195 43.0938 230.391 44.2188C231.598 45.3438 233.309 45.9062 235.523 45.9062C236.297 45.9062 237.059 45.8652 237.809 45.7832C238.559 45.6895 239.32 45.5664 240.094 45.4141L240.551 48.6836C239.449 48.8945 238.441 49.0293 237.527 49.0879C236.613 49.1465 235.805 49.1758 235.102 49.1758ZM258.445 48.8242V36.6953C258.445 35.5703 258.152 34.7031 257.566 34.0938C256.98 33.4844 256.16 33.1797 255.105 33.1797C252.176 33.1797 250.711 34.9023 250.711 38.3477L249.621 33.5664H251.062C251.168 32.3125 251.625 31.3809 252.434 30.7715C253.242 30.1504 254.426 29.8398 255.984 29.8398C257.953 29.8398 259.477 30.4375 260.555 31.6328C261.633 32.8281 262.172 34.5156 262.172 36.6953V48.8242H258.445ZM246.984 48.8242V30.1914H250.359L250.711 34.1289V48.8242H246.984ZM274.406 40.8086L273.316 34.9727H274.758C274.969 31.5508 276.68 29.8398 279.891 29.8398C281.812 29.8398 283.207 30.3906 284.074 31.4922C284.941 32.5938 285.375 34.375 285.375 36.8359H281.684C281.684 35.4766 281.479 34.498 281.068 33.9004C280.67 33.3027 280.02 33.0039 279.117 33.0039C277.535 33.0039 276.352 33.6836 275.566 35.043C274.793 36.3906 274.406 38.3125 274.406 40.8086ZM266.531 48.8242V45.5547H278.977V48.8242H266.531ZM270.68 48.8242V30.1914H273.703L274.406 35.5352V48.8242H270.68ZM267.234 33.4609V30.1914H273.457L273.809 33.4609H267.234ZM296.133 48.8242V31.2461H299.859V48.8242H296.133ZM289.031 48.8242V45.5547H296.484V48.8242H289.031ZM299.508 48.8242V45.5547H305.59V48.8242H299.508ZM290.086 33.4609V30.1914H299.859V33.4609H290.086ZM297.873 27.2383C297.158 27.2383 296.543 26.9863 296.027 26.4824C295.523 25.9668 295.271 25.3516 295.271 24.6367C295.271 23.9102 295.523 23.2949 296.027 22.791C296.543 22.2871 297.158 22.0352 297.873 22.0352C298.6 22.0352 299.215 22.2871 299.719 22.791C300.223 23.2949 300.475 23.9102 300.475 24.6367C300.475 25.3516 300.223 25.9668 299.719 26.4824C299.215 26.9863 298.6 27.2383 297.873 27.2383ZM316.418 49.1758C315.012 49.1758 313.805 49.1348 312.797 49.0527C311.801 48.9707 310.887 48.8359 310.055 48.6484L310.477 45.2734C311.707 45.4609 312.791 45.6016 313.729 45.6953C314.678 45.7891 315.574 45.8359 316.418 45.8359C318.305 45.8359 319.67 45.6543 320.514 45.291C321.369 44.916 321.797 44.3242 321.797 43.5156C321.797 42.9531 321.645 42.5371 321.34 42.2676C321.047 41.9863 320.59 41.7695 319.969 41.6172L315.68 40.5273C313.84 40.0586 312.486 39.4785 311.619 38.7871C310.764 38.0957 310.336 37.0469 310.336 35.6406C310.336 33.6016 311.115 32.125 312.674 31.2109C314.244 30.2969 316.77 29.8398 320.25 29.8398C321.152 29.8398 321.99 29.8691 322.764 29.9277C323.549 29.9746 324.352 30.0625 325.172 30.1914L324.785 33.4258C323.836 33.332 322.998 33.2676 322.271 33.2324C321.545 33.1973 320.836 33.1797 320.145 33.1797C318.059 33.1797 316.547 33.3613 315.609 33.7246C314.672 34.0762 314.203 34.6562 314.203 35.4648C314.203 36.0039 314.396 36.3965 314.783 36.6426C315.17 36.877 315.762 37.0938 316.559 37.293L320.004 38.1367C321.961 38.6055 323.391 39.2324 324.293 40.0176C325.207 40.8027 325.664 41.9453 325.664 43.4453C325.664 45.4492 324.932 46.9082 323.467 47.8223C322.002 48.7246 319.652 49.1758 316.418 49.1758ZM330.973 45.0625V41.1953L343.277 36.5195V36.2031L330.973 31.5273V27.6602L347.812 34.5859V38.1367L330.973 45.0625ZM373.758 57.2617L373.582 53.957L377.098 53.6406C378.984 53.4766 380.35 52.9258 381.193 51.9883C382.049 51.0625 382.477 49.6445 382.477 47.7344V42.0742H386.203V47.1719C386.203 49.3867 385.875 51.1914 385.219 52.5859C384.562 53.9805 383.537 55.0293 382.143 55.7324C380.748 56.4473 378.949 56.8867 376.746 57.0508L373.758 57.2617ZM375.234 33.4609V30.1914H382.758V33.4609H375.234ZM382.477 42.6719V30.1914H386.203V42.6719H382.477ZM383.953 27.2383C383.238 27.2383 382.623 26.9863 382.107 26.4824C381.604 25.9668 381.352 25.3516 381.352 24.6367C381.352 23.9102 381.604 23.2949 382.107 22.791C382.623 22.2871 383.238 22.0352 383.953 22.0352C384.68 22.0352 385.295 22.2871 385.799 22.791C386.303 23.2949 386.555 23.9102 386.555 24.6367C386.555 25.3516 386.303 25.9668 385.799 26.4824C385.295 26.9863 384.68 27.2383 383.953 27.2383ZM406.066 49L405.82 43.4805L405.328 41.9336V37.1172C405.328 35.875 404.889 34.9668 404.01 34.3926C403.143 33.8066 401.848 33.4902 400.125 33.4434L395.66 33.3203L396.012 30.0156L399.773 30.0684C402.855 30.1152 405.141 30.7832 406.629 32.0723C408.129 33.3496 408.879 35.2188 408.879 37.6797V45.4492L412.043 45.8359V48.8242L406.066 49ZM399.492 49.1758C397.547 49.1758 396.041 48.707 394.975 47.7695C393.908 46.832 393.375 45.5078 393.375 43.7969C393.375 41.8281 394.107 40.3164 395.572 39.2617C397.049 38.207 399.129 37.6797 401.812 37.6797C402.926 37.6797 403.916 37.75 404.783 37.8906C405.662 38.0195 406.441 38.2188 407.121 38.4883L406.348 41.0195C405.562 40.8438 404.795 40.7441 404.045 40.7207C403.295 40.6855 402.527 40.668 401.742 40.668C398.508 40.668 396.891 41.6523 396.891 43.6211C396.891 44.4414 397.166 45.0742 397.717 45.5195C398.279 45.9648 399.07 46.1875 400.09 46.1875C401.25 46.1875 402.217 45.9883 402.99 45.5898C403.775 45.1914 404.361 44.6816 404.748 44.0605C405.135 43.4395 405.328 42.8008 405.328 42.1445V40.1055L406.418 44.8867H404.941L405.539 44.3242C405.539 45.4023 405.287 46.3047 404.783 47.0312C404.291 47.7461 403.594 48.2852 402.691 48.6484C401.789 49 400.723 49.1758 399.492 49.1758ZM420.85 48.8242L414.188 30.1914H418.16L423.17 45.6602H423.486L428.496 30.1914H432.469L425.807 48.8242H420.85ZM448.254 49L448.008 43.4805L447.516 41.9336V37.1172C447.516 35.875 447.076 34.9668 446.197 34.3926C445.33 33.8066 444.035 33.4902 442.312 33.4434L437.848 33.3203L438.199 30.0156L441.961 30.0684C445.043 30.1152 447.328 30.7832 448.816 32.0723C450.316 33.3496 451.066 35.2188 451.066 37.6797V45.4492L454.23 45.8359V48.8242L448.254 49ZM441.68 49.1758C439.734 49.1758 438.229 48.707 437.162 47.7695C436.096 46.832 435.562 45.5078 435.562 43.7969C435.562 41.8281 436.295 40.3164 437.76 39.2617C439.236 38.207 441.316 37.6797 444 37.6797C445.113 37.6797 446.104 37.75 446.971 37.8906C447.85 38.0195 448.629 38.2188 449.309 38.4883L448.535 41.0195C447.75 40.8438 446.982 40.7441 446.232 40.7207C445.482 40.6855 444.715 40.668 443.93 40.668C440.695 40.668 439.078 41.6523 439.078 43.6211C439.078 44.4414 439.354 45.0742 439.904 45.5195C440.467 45.9648 441.258 46.1875 442.277 46.1875C443.438 46.1875 444.404 45.9883 445.178 45.5898C445.963 45.1914 446.549 44.6816 446.936 44.0605C447.322 43.4395 447.516 42.8008 447.516 42.1445V40.1055L448.605 44.8867H447.129L447.727 44.3242C447.727 45.4023 447.475 46.3047 446.971 47.0312C446.479 47.7461 445.781 48.2852 444.879 48.6484C443.977 49 442.91 49.1758 441.68 49.1758ZM477.82 37.9961V34.7266H495.398V37.9961H477.82ZM505.225 48.8242L498.562 30.1914H502.535L507.545 45.6602H507.861L512.871 30.1914H516.844L510.182 48.8242H505.225ZM530.414 49.1758C527.238 49.1758 524.783 48.3438 523.049 46.6797C521.326 45.0039 520.465 42.6016 520.465 39.4727C520.465 36.4258 521.197 34.0586 522.662 32.3711C524.127 30.6836 526.195 29.8398 528.867 29.8398C531.387 29.8398 533.332 30.6016 534.703 32.125C536.086 33.6484 536.777 35.8633 536.777 38.7695C536.777 39.625 536.742 40.4219 536.672 41.1602H523.594V38.3125H533.402C533.402 36.6367 533.004 35.3535 532.207 34.4629C531.41 33.5605 530.309 33.1094 528.902 33.1094C527.32 33.1094 526.09 33.6484 525.211 34.7266C524.344 35.8047 523.91 37.3281 523.91 39.2969C523.91 41.4531 524.508 43.0938 525.703 44.2188C526.91 45.3438 528.621 45.9062 530.836 45.9062C531.609 45.9062 532.371 45.8652 533.121 45.7832C533.871 45.6895 534.633 45.5664 535.406 45.4141L535.863 48.6836C534.762 48.8945 533.754 49.0293 532.84 49.0879C531.926 49.1465 531.117 49.1758 530.414 49.1758ZM548.625 40.8086L547.535 34.9727H548.977C549.188 31.5508 550.898 29.8398 554.109 29.8398C556.031 29.8398 557.426 30.3906 558.293 31.4922C559.16 32.5938 559.594 34.375 559.594 36.8359H555.902C555.902 35.4766 555.697 34.498 555.287 33.9004C554.889 33.3027 554.238 33.0039 553.336 33.0039C551.754 33.0039 550.57 33.6836 549.785 35.043C549.012 36.3906 548.625 38.3125 548.625 40.8086ZM540.75 48.8242V45.5547H553.195V48.8242H540.75ZM544.898 48.8242V30.1914H547.922L548.625 35.5352V48.8242H544.898ZM541.453 33.4609V30.1914H547.676L548.027 33.4609H541.453ZM569.543 49.1758C568.137 49.1758 566.93 49.1348 565.922 49.0527C564.926 48.9707 564.012 48.8359 563.18 48.6484L563.602 45.2734C564.832 45.4609 565.916 45.6016 566.854 45.6953C567.803 45.7891 568.699 45.8359 569.543 45.8359C571.43 45.8359 572.795 45.6543 573.639 45.291C574.494 44.916 574.922 44.3242 574.922 43.5156C574.922 42.9531 574.77 42.5371 574.465 42.2676C574.172 41.9863 573.715 41.7695 573.094 41.6172L568.805 40.5273C566.965 40.0586 565.611 39.4785 564.744 38.7871C563.889 38.0957 563.461 37.0469 563.461 35.6406C563.461 33.6016 564.24 32.125 565.799 31.2109C567.369 30.2969 569.895 29.8398 573.375 29.8398C574.277 29.8398 575.115 29.8691 575.889 29.9277C576.674 29.9746 577.477 30.0625 578.297 30.1914L577.91 33.4258C576.961 33.332 576.123 33.2676 575.396 33.2324C574.67 33.1973 573.961 33.1797 573.27 33.1797C571.184 33.1797 569.672 33.3613 568.734 33.7246C567.797 34.0762 567.328 34.6562 567.328 35.4648C567.328 36.0039 567.521 36.3965 567.908 36.6426C568.295 36.877 568.887 37.0938 569.684 37.293L573.129 38.1367C575.086 38.6055 576.516 39.2324 577.418 40.0176C578.332 40.8027 578.789 41.9453 578.789 43.4453C578.789 45.4492 578.057 46.9082 576.592 47.8223C575.127 48.7246 572.777 49.1758 569.543 49.1758ZM591.445 48.8242V31.2461H595.172V48.8242H591.445ZM584.344 48.8242V45.5547H591.797V48.8242H584.344ZM594.82 48.8242V45.5547H600.902V48.8242H594.82ZM585.398 33.4609V30.1914H595.172V33.4609H585.398ZM593.186 27.2383C592.471 27.2383 591.855 26.9863 591.34 26.4824C590.836 25.9668 590.584 25.3516 590.584 24.6367C590.584 23.9102 590.836 23.2949 591.34 22.791C591.855 22.2871 592.471 22.0352 593.186 22.0352C593.912 22.0352 594.527 22.2871 595.031 22.791C595.535 23.2949 595.787 23.9102 595.787 24.6367C595.787 25.3516 595.535 25.9668 595.031 26.4824C594.527 26.9863 593.912 27.2383 593.186 27.2383ZM613.172 49.1758C610.594 49.1758 608.59 48.332 607.16 46.6445C605.73 44.957 605.016 42.5781 605.016 39.5078C605.016 36.4258 605.73 34.0469 607.16 32.3711C608.59 30.6836 610.594 29.8398 613.172 29.8398C615.762 29.8398 617.766 30.6836 619.184 32.3711C620.613 34.0469 621.328 36.4258 621.328 39.5078C621.328 42.5781 620.613 44.957 619.184 46.6445C617.766 48.332 615.762 49.1758 613.172 49.1758ZM613.172 45.8359C614.543 45.8359 615.598 45.2852 616.336 44.1836C617.086 43.082 617.461 41.5234 617.461 39.5078C617.461 37.4805 617.086 35.9219 616.336 34.832C615.598 33.7305 614.543 33.1797 613.172 33.1797C611.801 33.1797 610.74 33.7305 609.99 34.832C609.252 35.9219 608.883 37.4805 608.883 39.5078C608.883 41.5234 609.252 43.082 609.99 44.1836C610.74 45.2852 611.801 45.8359 613.172 45.8359ZM638.133 48.8242V36.6953C638.133 35.5703 637.84 34.7031 637.254 34.0938C636.668 33.4844 635.848 33.1797 634.793 33.1797C631.863 33.1797 630.398 34.9023 630.398 38.3477L629.309 33.5664H630.75C630.855 32.3125 631.312 31.3809 632.121 30.7715C632.93 30.1504 634.113 29.8398 635.672 29.8398C637.641 29.8398 639.164 30.4375 640.242 31.6328C641.32 32.8281 641.859 34.5156 641.859 36.6953V48.8242H638.133ZM626.672 48.8242V30.1914H630.047L630.398 34.1289V48.8242H626.672ZM15.1641 102.262L14.9883 98.957L18.5039 98.6406C20.3906 98.4766 21.7559 97.9258 22.5996 96.9883C23.4551 96.0625 23.8828 94.6445 23.8828 92.7344V87.0742H27.6094V92.1719C27.6094 94.3867 27.2812 96.1914 26.625 97.5859C25.9688 98.9805 24.9434 100.029 23.5488 100.732C22.1543 101.447 20.3555 101.887 18.1523 102.051L15.1641 102.262ZM16.6406 78.4609V75.1914H24.1641V78.4609H16.6406ZM23.8828 87.6719V75.1914H27.6094V87.6719H23.8828ZM25.3594 72.2383C24.6445 72.2383 24.0293 71.9863 23.5137 71.4824C23.0098 70.9668 22.7578 70.3516 22.7578 69.6367C22.7578 68.9102 23.0098 68.2949 23.5137 67.791C24.0293 67.2871 24.6445 67.0352 25.3594 67.0352C26.0859 67.0352 26.7012 67.2871 27.2051 67.791C27.709 68.2949 27.9609 68.9102 27.9609 69.6367C27.9609 70.3516 27.709 70.9668 27.2051 71.4824C26.7012 71.9863 26.0859 72.2383 25.3594 72.2383ZM47.4727 94L47.2266 88.4805L46.7344 86.9336V82.1172C46.7344 80.875 46.2949 79.9668 45.416 79.3926C44.5488 78.8066 43.2539 78.4902 41.5312 78.4434L37.0664 78.3203L37.418 75.0156L41.1797 75.0684C44.2617 75.1152 46.5469 75.7832 48.0352 77.0723C49.5352 78.3496 50.2852 80.2188 50.2852 82.6797V90.4492L53.4492 90.8359V93.8242L47.4727 94ZM40.8984 94.1758C38.9531 94.1758 37.4473 93.707 36.3809 92.7695C35.3145 91.832 34.7812 90.5078 34.7812 88.7969C34.7812 86.8281 35.5137 85.3164 36.9785 84.2617C38.4551 83.207 40.5352 82.6797 43.2188 82.6797C44.332 82.6797 45.3223 82.75 46.1895 82.8906C47.0684 83.0195 47.8477 83.2188 48.5273 83.4883L47.7539 86.0195C46.9688 85.8438 46.2012 85.7441 45.4512 85.7207C44.7012 85.6855 43.9336 85.668 43.1484 85.668C39.9141 85.668 38.2969 86.6523 38.2969 88.6211C38.2969 89.4414 38.5723 90.0742 39.123 90.5195C39.6855 90.9648 40.4766 91.1875 41.4961 91.1875C42.6562 91.1875 43.623 90.9883 44.3965 90.5898C45.1816 90.1914 45.7676 89.6816 46.1543 89.0605C46.541 88.4395 46.7344 87.8008 46.7344 87.1445V85.1055L47.8242 89.8867H46.3477L46.9453 89.3242C46.9453 90.4023 46.6934 91.3047 46.1895 92.0312C45.6973 92.7461 45 93.2852 44.0977 93.6484C43.1953 94 42.1289 94.1758 40.8984 94.1758ZM62.2559 93.8242L55.5938 75.1914H59.5664L64.5762 90.6602H64.8926L69.9023 75.1914H73.875L67.2129 93.8242H62.2559ZM89.6602 94L89.4141 88.4805L88.9219 86.9336V82.1172C88.9219 80.875 88.4824 79.9668 87.6035 79.3926C86.7363 78.8066 85.4414 78.4902 83.7188 78.4434L79.2539 78.3203L79.6055 75.0156L83.3672 75.0684C86.4492 75.1152 88.7344 75.7832 90.2227 77.0723C91.7227 78.3496 92.4727 80.2188 92.4727 82.6797V90.4492L95.6367 90.8359V93.8242L89.6602 94ZM83.0859 94.1758C81.1406 94.1758 79.6348 93.707 78.5684 92.7695C77.502 91.832 76.9688 90.5078 76.9688 88.7969C76.9688 86.8281 77.7012 85.3164 79.166 84.2617C80.6426 83.207 82.7227 82.6797 85.4062 82.6797C86.5195 82.6797 87.5098 82.75 88.377 82.8906C89.2559 83.0195 90.0352 83.2188 90.7148 83.4883L89.9414 86.0195C89.1562 85.8438 88.3887 85.7441 87.6387 85.7207C86.8887 85.6855 86.1211 85.668 85.3359 85.668C82.1016 85.668 80.4844 86.6523 80.4844 88.6211C80.4844 89.4414 80.7598 90.0742 81.3105 90.5195C81.873 90.9648 82.6641 91.1875 83.6836 91.1875C84.8438 91.1875 85.8105 90.9883 86.584 90.5898C87.3691 90.1914 87.9551 89.6816 88.3418 89.0605C88.7285 88.4395 88.9219 87.8008 88.9219 87.1445V85.1055L90.0117 89.8867H88.5352L89.1328 89.3242C89.1328 90.4023 88.8809 91.3047 88.377 92.0312C87.8848 92.7461 87.1875 93.2852 86.2852 93.6484C85.3828 94 84.3164 94.1758 83.0859 94.1758ZM125.537 93.8242L118.875 75.1914H122.848L127.857 90.6602H128.174L133.184 75.1914H137.156L130.494 93.8242H125.537ZM150.727 94.1758C147.551 94.1758 145.096 93.3438 143.361 91.6797C141.639 90.0039 140.777 87.6016 140.777 84.4727C140.777 81.4258 141.51 79.0586 142.975 77.3711C144.439 75.6836 146.508 74.8398 149.18 74.8398C151.699 74.8398 153.645 75.6016 155.016 77.125C156.398 78.6484 157.09 80.8633 157.09 83.7695C157.09 84.625 157.055 85.4219 156.984 86.1602H143.906V83.3125H153.715C153.715 81.6367 153.316 80.3535 152.52 79.4629C151.723 78.5605 150.621 78.1094 149.215 78.1094C147.633 78.1094 146.402 78.6484 145.523 79.7266C144.656 80.8047 144.223 82.3281 144.223 84.2969C144.223 86.4531 144.82 88.0938 146.016 89.2188C147.223 90.3438 148.934 90.9062 151.148 90.9062C151.922 90.9062 152.684 90.8652 153.434 90.7832C154.184 90.6895 154.945 90.5664 155.719 90.4141L156.176 93.6836C155.074 93.8945 154.066 94.0293 153.152 94.0879C152.238 94.1465 151.43 94.1758 150.727 94.1758ZM168.938 85.8086L167.848 79.9727H169.289C169.5 76.5508 171.211 74.8398 174.422 74.8398C176.344 74.8398 177.738 75.3906 178.605 76.4922C179.473 77.5938 179.906 79.375 179.906 81.8359H176.215C176.215 80.4766 176.01 79.498 175.6 78.9004C175.201 78.3027 174.551 78.0039 173.648 78.0039C172.066 78.0039 170.883 78.6836 170.098 80.043C169.324 81.3906 168.938 83.3125 168.938 85.8086ZM161.062 93.8242V90.5547H173.508V93.8242H161.062ZM165.211 93.8242V75.1914H168.234L168.938 80.5352V93.8242H165.211ZM161.766 78.4609V75.1914H167.988L168.34 78.4609H161.766ZM189.855 94.1758C188.449 94.1758 187.242 94.1348 186.234 94.0527C185.238 93.9707 184.324 93.8359 183.492 93.6484L183.914 90.2734C185.145 90.4609 186.229 90.6016 187.166 90.6953C188.115 90.7891 189.012 90.8359 189.855 90.8359C191.742 90.8359 193.107 90.6543 193.951 90.291C194.807 89.916 195.234 89.3242 195.234 88.5156C195.234 87.9531 195.082 87.5371 194.777 87.2676C194.484 86.9863 194.027 86.7695 193.406 86.6172L189.117 85.5273C187.277 85.0586 185.924 84.4785 185.057 83.7871C184.201 83.0957 183.773 82.0469 183.773 80.6406C183.773 78.6016 184.553 77.125 186.111 76.2109C187.682 75.2969 190.207 74.8398 193.688 74.8398C194.59 74.8398 195.428 74.8691 196.201 74.9277C196.986 74.9746 197.789 75.0625 198.609 75.1914L198.223 78.4258C197.273 78.332 196.436 78.2676 195.709 78.2324C194.982 78.1973 194.273 78.1797 193.582 78.1797C191.496 78.1797 189.984 78.3613 189.047 78.7246C188.109 79.0762 187.641 79.6562 187.641 80.4648C187.641 81.0039 187.834 81.3965 188.221 81.6426C188.607 81.877 189.199 82.0938 189.996 82.293L193.441 83.1367C195.398 83.6055 196.828 84.2324 197.73 85.0176C198.645 85.8027 199.102 86.9453 199.102 88.4453C199.102 90.4492 198.369 91.9082 196.904 92.8223C195.439 93.7246 193.09 94.1758 189.855 94.1758ZM211.758 93.8242V76.2461H215.484V93.8242H211.758ZM204.656 93.8242V90.5547H212.109V93.8242H204.656ZM215.133 93.8242V90.5547H221.215V93.8242H215.133ZM205.711 78.4609V75.1914H215.484V78.4609H205.711ZM213.498 72.2383C212.783 72.2383 212.168 71.9863 211.652 71.4824C211.148 70.9668 210.896 70.3516 210.896 69.6367C210.896 68.9102 211.148 68.2949 211.652 67.791C212.168 67.2871 212.783 67.0352 213.498 67.0352C214.225 67.0352 214.84 67.2871 215.344 67.791C215.848 68.2949 216.1 68.9102 216.1 69.6367C216.1 70.3516 215.848 70.9668 215.344 71.4824C214.84 71.9863 214.225 72.2383 213.498 72.2383ZM233.484 94.1758C230.906 94.1758 228.902 93.332 227.473 91.6445C226.043 89.957 225.328 87.5781 225.328 84.5078C225.328 81.4258 226.043 79.0469 227.473 77.3711C228.902 75.6836 230.906 74.8398 233.484 74.8398C236.074 74.8398 238.078 75.6836 239.496 77.3711C240.926 79.0469 241.641 81.4258 241.641 84.5078C241.641 87.5781 240.926 89.957 239.496 91.6445C238.078 93.332 236.074 94.1758 233.484 94.1758ZM233.484 90.8359C234.855 90.8359 235.91 90.2852 236.648 89.1836C237.398 88.082 237.773 86.5234 237.773 84.5078C237.773 82.4805 237.398 80.9219 236.648 79.832C235.91 78.7305 234.855 78.1797 233.484 78.1797C232.113 78.1797 231.053 78.7305 230.303 79.832C229.564 80.9219 229.195 82.4805 229.195 84.5078C229.195 86.5234 229.564 88.082 230.303 89.1836C231.053 90.2852 232.113 90.8359 233.484 90.8359ZM258.445 93.8242V81.6953C258.445 80.5703 258.152 79.7031 257.566 79.0938C256.98 78.4844 256.16 78.1797 255.105 78.1797C252.176 78.1797 250.711 79.9023 250.711 83.3477L249.621 78.5664H251.062C251.168 77.3125 251.625 76.3809 252.434 75.7715C253.242 75.1504 254.426 74.8398 255.984 74.8398C257.953 74.8398 259.477 75.4375 260.555 76.6328C261.633 77.8281 262.172 79.5156 262.172 81.6953V93.8242H258.445ZM246.984 93.8242V75.1914H250.359L250.711 79.1289V93.8242H246.984ZM294.867 81.6953C293.027 81.6953 291.633 81.2441 290.684 80.3418C289.734 79.4395 289.26 78.1211 289.26 76.3867C289.26 75.3086 289.512 74.1895 290.016 73.0293C290.52 71.8691 291.293 70.7207 292.336 69.584L293.32 68.5117L295.957 70.832L294.902 71.9746C294.223 72.7012 293.713 73.4395 293.373 74.1895C293.033 74.9277 292.863 75.6602 292.863 76.3867C292.863 77.0664 293.08 77.582 293.514 77.9336C293.947 78.2734 294.574 78.4434 295.395 78.4434H296.186V81.6953H294.867ZM302.953 81.6953C301.113 81.6953 299.719 81.2441 298.77 80.3418C297.82 79.4395 297.346 78.1211 297.346 76.3867C297.346 75.3086 297.598 74.1895 298.102 73.0293C298.605 71.8691 299.379 70.7207 300.422 69.584L301.406 68.5117L304.043 70.832L302.988 71.9746C302.309 72.7012 301.799 73.4395 301.459 74.1895C301.119 74.9277 300.949 75.6602 300.949 76.3867C300.949 77.0664 301.166 77.582 301.6 77.9336C302.033 78.2734 302.66 78.4434 303.48 78.4434H304.271V81.6953H302.953ZM309.984 93.8242V89.8164C313.84 87.6836 316.717 85.4688 318.615 83.1719C320.525 80.8633 321.48 78.4844 321.48 76.0352C321.48 74.6055 321.129 73.5332 320.426 72.8184C319.723 72.1035 318.656 71.7461 317.227 71.7461C316.277 71.7461 315.287 72.0215 314.256 72.5723C313.225 73.123 312.34 73.8555 311.602 74.7695L309.176 72.3613C309.984 71.2012 311.133 70.2695 312.621 69.5664C314.109 68.8633 315.668 68.5117 317.297 68.5117C319.934 68.5117 321.902 69.1387 323.203 70.3926C324.516 71.6348 325.172 73.5156 325.172 76.0352C325.172 78.5547 324.369 80.9746 322.764 83.2949C321.17 85.6035 318.738 87.8242 315.469 89.957V93.8242H309.984ZM311.039 93.8242V90.4844H326.227V93.8242H311.039ZM338.953 94.1758C333.281 94.1758 330.445 89.957 330.445 81.5195C330.445 72.8477 333.281 68.5117 338.953 68.5117C344.625 68.5117 347.461 72.8477 347.461 81.5195C347.461 89.957 344.625 94.1758 338.953 94.1758ZM338.953 84.1562C338.168 84.1562 337.529 83.916 337.037 83.4355C336.557 82.9434 336.316 82.3047 336.316 81.5195C336.316 80.7227 336.557 80.084 337.037 79.6035C337.529 79.123 338.168 78.8828 338.953 78.8828C339.75 78.8828 340.389 79.123 340.869 79.6035C341.35 80.084 341.59 80.7227 341.59 81.5195C341.59 82.3047 341.35 82.9434 340.869 83.4355C340.389 83.916 339.75 84.1562 338.953 84.1562ZM338.953 90.9414C342.117 90.9414 343.699 87.8008 343.699 81.5195C343.699 75.0039 342.117 71.7461 338.953 71.7461C335.789 71.7461 334.207 75.0039 334.207 81.5195C334.207 87.8008 335.789 90.9414 338.953 90.9414ZM360.047 94.1758C359.332 94.1758 358.717 93.9238 358.201 93.4199C357.697 92.9043 357.445 92.2891 357.445 91.5742C357.445 90.8477 357.697 90.2324 358.201 89.7285C358.717 89.2246 359.332 88.9727 360.047 88.9727C360.773 88.9727 361.389 89.2246 361.893 89.7285C362.396 90.2324 362.648 90.8477 362.648 91.5742C362.648 92.2891 362.396 92.9043 361.893 93.4199C361.389 93.9238 360.773 94.1758 360.047 94.1758ZM381.141 94.1758C375.469 94.1758 372.633 89.957 372.633 81.5195C372.633 72.8477 375.469 68.5117 381.141 68.5117C386.812 68.5117 389.648 72.8477 389.648 81.5195C389.648 89.957 386.812 94.1758 381.141 94.1758ZM381.141 84.1562C380.355 84.1562 379.717 83.916 379.225 83.4355C378.744 82.9434 378.504 82.3047 378.504 81.5195C378.504 80.7227 378.744 80.084 379.225 79.6035C379.717 79.123 380.355 78.8828 381.141 78.8828C381.938 78.8828 382.576 79.123 383.057 79.6035C383.537 80.084 383.777 80.7227 383.777 81.5195C383.777 82.3047 383.537 82.9434 383.057 83.4355C382.576 83.916 381.938 84.1562 381.141 84.1562ZM381.141 90.9414C384.305 90.9414 385.887 87.8008 385.887 81.5195C385.887 75.0039 384.305 71.7461 381.141 71.7461C377.977 71.7461 376.395 75.0039 376.395 81.5195C376.395 87.8008 377.977 90.9414 381.141 90.9414ZM402.234 94.1758C401.52 94.1758 400.904 93.9238 400.389 93.4199C399.885 92.9043 399.633 92.2891 399.633 91.5742C399.633 90.8477 399.885 90.2324 400.389 89.7285C400.904 89.2246 401.52 88.9727 402.234 88.9727C402.961 88.9727 403.576 89.2246 404.08 89.7285C404.584 90.2324 404.836 90.8477 404.836 91.5742C404.836 92.2891 404.584 92.9043 404.08 93.4199C403.576 93.9238 402.961 94.1758 402.234 94.1758ZM422.027 93.8242V68.8633H425.684V93.8242H422.027ZM415.77 93.8242V90.4844H422.379V93.8242H415.77ZM425.332 93.8242V90.4844H431.273V93.8242H425.332ZM416.121 74.5234V70.9727L422.027 68.8633V72.4844L416.121 74.5234ZM447.867 82.0469L445.23 79.7266L446.285 78.584C446.965 77.8574 447.475 77.1191 447.814 76.3691C448.154 75.6191 448.324 74.8867 448.324 74.1719C448.324 73.4922 448.107 72.9824 447.674 72.6426C447.252 72.291 446.625 72.1152 445.793 72.1152H445.002V68.8633H446.32C448.172 68.8633 449.566 69.3145 450.504 70.2168C451.453 71.1074 451.928 72.4258 451.928 74.1719C451.928 75.2383 451.676 76.3574 451.172 77.5293C450.668 78.6895 449.895 79.8379 448.852 80.9746L447.867 82.0469ZM439.781 82.0469L437.145 79.7266L438.199 78.584C438.879 77.8574 439.389 77.1191 439.729 76.3691C440.068 75.6191 440.238 74.8867 440.238 74.1719C440.238 73.4922 440.021 72.9824 439.588 72.6426C439.166 72.291 438.539 72.1152 437.707 72.1152H436.916V68.8633H438.234C440.086 68.8633 441.48 69.3145 442.418 70.2168C443.367 71.1074 443.842 72.4258 443.842 74.1719C443.842 75.2383 443.59 76.3574 443.086 77.5293C442.582 78.6895 441.809 79.8379 440.766 80.9746L439.781 82.0469ZM478.734 93.8242V89.8164C482.59 87.6836 485.467 85.4688 487.365 83.1719C489.275 80.8633 490.23 78.4844 490.23 76.0352C490.23 74.6055 489.879 73.5332 489.176 72.8184C488.473 72.1035 487.406 71.7461 485.977 71.7461C485.027 71.7461 484.037 72.0215 483.006 72.5723C481.975 73.123 481.09 73.8555 480.352 74.7695L477.926 72.3613C478.734 71.2012 479.883 70.2695 481.371 69.5664C482.859 68.8633 484.418 68.5117 486.047 68.5117C488.684 68.5117 490.652 69.1387 491.953 70.3926C493.266 71.6348 493.922 73.5156 493.922 76.0352C493.922 78.5547 493.119 80.9746 491.514 83.2949C489.92 85.6035 487.488 87.8242 484.219 89.957V93.8242H478.734ZM479.789 93.8242V90.4844H494.977V93.8242H479.789ZM507.703 94.1758C502.031 94.1758 499.195 89.957 499.195 81.5195C499.195 72.8477 502.031 68.5117 507.703 68.5117C513.375 68.5117 516.211 72.8477 516.211 81.5195C516.211 89.957 513.375 94.1758 507.703 94.1758ZM507.703 84.1562C506.918 84.1562 506.279 83.916 505.787 83.4355C505.307 82.9434 505.066 82.3047 505.066 81.5195C505.066 80.7227 505.307 80.084 505.787 79.6035C506.279 79.123 506.918 78.8828 507.703 78.8828C508.5 78.8828 509.139 79.123 509.619 79.6035C510.1 80.084 510.34 80.7227 510.34 81.5195C510.34 82.3047 510.1 82.9434 509.619 83.4355C509.139 83.916 508.5 84.1562 507.703 84.1562ZM507.703 90.9414C510.867 90.9414 512.449 87.8008 512.449 81.5195C512.449 75.0039 510.867 71.7461 507.703 71.7461C504.539 71.7461 502.957 75.0039 502.957 81.5195C502.957 87.8008 504.539 90.9414 507.703 90.9414ZM520.922 93.8242V89.8164C524.777 87.6836 527.654 85.4688 529.553 83.1719C531.463 80.8633 532.418 78.4844 532.418 76.0352C532.418 74.6055 532.066 73.5332 531.363 72.8184C530.66 72.1035 529.594 71.7461 528.164 71.7461C527.215 71.7461 526.225 72.0215 525.193 72.5723C524.162 73.123 523.277 73.8555 522.539 74.7695L520.113 72.3613C520.922 71.2012 522.07 70.2695 523.559 69.5664C525.047 68.8633 526.605 68.5117 528.234 68.5117C530.871 68.5117 532.84 69.1387 534.141 70.3926C535.453 71.6348 536.109 73.5156 536.109 76.0352C536.109 78.5547 535.307 80.9746 533.701 83.2949C532.107 85.6035 529.676 87.8242 526.406 89.957V93.8242H520.922ZM521.977 93.8242V90.4844H537.164V93.8242H521.977ZM548.379 94.1758C547.09 94.1758 545.906 94.0996 544.828 93.9473C543.762 93.7949 542.812 93.5898 541.98 93.332L542.42 89.9746C543.135 90.1738 543.938 90.3848 544.828 90.6074C545.73 90.8301 546.867 90.9414 548.238 90.9414C550.066 90.9414 551.484 90.5781 552.492 89.8516C553.5 89.125 554.004 88.1055 554.004 86.793C554.004 85.8555 553.711 85.0586 553.125 84.4023C552.551 83.7461 551.713 83.248 550.611 82.9082C549.51 82.5684 548.168 82.3984 546.586 82.3984H546.023L545.602 80.1133L550.98 80.5352C552.973 80.6875 554.59 81.3379 555.832 82.4863C557.074 83.623 557.695 85.1758 557.695 87.1445C557.695 89.3711 556.881 91.0996 555.252 92.3301C553.635 93.5605 551.344 94.1758 548.379 94.1758ZM546.023 82.3984L545.602 80.1133C547.453 79.8672 548.953 79.5039 550.102 79.0234C551.262 78.543 552.111 77.9629 552.65 77.2832C553.201 76.5918 553.477 75.8242 553.477 74.9805C553.477 73.9609 553.143 73.1699 552.475 72.6074C551.818 72.0332 550.875 71.7461 549.645 71.7461C548.754 71.7461 547.805 71.9688 546.797 72.4141C545.801 72.8594 544.857 73.5273 543.967 74.418L541.541 72.0098C542.619 70.791 543.867 69.9062 545.285 69.3555C546.703 68.793 548.285 68.5117 550.031 68.5117C552.305 68.5117 554.062 68.998 555.305 69.9707C556.547 70.9316 557.168 72.3086 557.168 74.1016C557.168 75.6016 556.688 76.9082 555.727 78.0215C554.766 79.123 553.512 79.8789 551.965 80.2891V82.3984H546.023ZM562.195 82.9961V79.7266H579.773V82.9961H562.195ZM592.078 94.1758C586.406 94.1758 583.57 89.957 583.57 81.5195C583.57 72.8477 586.406 68.5117 592.078 68.5117C597.75 68.5117 600.586 72.8477 600.586 81.5195C600.586 89.957 597.75 94.1758 592.078 94.1758ZM592.078 84.1562C591.293 84.1562 590.654 83.916 590.162 83.4355C589.682 82.9434 589.441 82.3047 589.441 81.5195C589.441 80.7227 589.682 80.084 590.162 79.6035C590.654 79.123 591.293 78.8828 592.078 78.8828C592.875 78.8828 593.514 79.123 593.994 79.6035C594.475 80.084 594.715 80.7227 594.715 81.5195C594.715 82.3047 594.475 82.9434 593.994 83.4355C593.514 83.916 592.875 84.1562 592.078 84.1562ZM592.078 90.9414C595.242 90.9414 596.824 87.8008 596.824 81.5195C596.824 75.0039 595.242 71.7461 592.078 71.7461C588.914 71.7461 587.332 75.0039 587.332 81.5195C587.332 87.8008 588.914 90.9414 592.078 90.9414ZM603.926 88.2344L607.441 70.2695H611.238L607.688 88.2344H603.926ZM603.926 88.2344L606.387 84.9648H616.652V88.2344H603.926ZM619.605 88.2344V84.9648H622.312V88.2344H619.605ZM616.301 93.8242V68.8633H619.957V93.8242H616.301ZM625.477 82.9961V79.7266H643.055V82.9961H625.477ZM654.059 93.8242V68.8633H657.715V93.8242H654.059ZM647.801 93.8242V90.4844H654.41V93.8242H647.801ZM657.363 93.8242V90.4844H663.305V93.8242H657.363ZM648.152 74.5234V70.9727L654.059 68.8633V72.4844L648.152 74.5234ZM676.453 94.1758C673.746 94.1758 671.648 93.5488 670.16 92.2949C668.684 91.0293 667.945 89.2539 667.945 86.9688C667.945 84.8711 668.684 83.2539 670.16 82.1172C671.648 80.9688 673.746 80.3945 676.453 80.3945C679.16 80.3945 681.252 80.9688 682.729 82.1172C684.217 83.2539 684.961 84.8711 684.961 86.9688C684.961 89.2539 684.217 91.0293 682.729 92.2949C681.252 93.5488 679.16 94.1758 676.453 94.1758ZM676.453 90.9414C677.988 90.9414 679.172 90.5781 680.004 89.8516C680.848 89.125 681.27 88.1055 681.27 86.793C681.27 85.3867 680.848 84.291 680.004 83.5059C679.172 82.7207 677.988 82.3281 676.453 82.3281C674.918 82.3281 673.729 82.7207 672.885 83.5059C672.053 84.291 671.637 85.3867 671.637 86.793C671.637 88.1055 672.053 89.125 672.885 89.8516C673.729 90.5781 674.918 90.9414 676.453 90.9414ZM673.535 81.4141V79.6211H679.406V81.4141H673.535ZM676.453 78.9531C677.766 78.9531 678.779 78.6543 679.494 78.0566C680.209 77.4473 680.566 76.6094 680.566 75.543C680.566 74.3242 680.209 73.3867 679.494 72.7305C678.779 72.0742 677.766 71.7461 676.453 71.7461C675.141 71.7461 674.127 72.0742 673.412 72.7305C672.697 73.3867 672.34 74.3242 672.34 75.543C672.34 76.6094 672.697 77.4473 673.412 78.0566C674.127 78.6543 675.141 78.9531 676.453 78.9531ZM676.453 80.7109C673.98 80.7109 672.059 80.2012 670.688 79.1816C669.328 78.1504 668.648 76.7031 668.648 74.8398C668.648 72.8359 669.328 71.2832 670.688 70.1816C672.059 69.0684 673.98 68.5117 676.453 68.5117C678.938 68.5117 680.859 69.0684 682.219 70.1816C683.578 71.2832 684.258 72.8359 684.258 74.8398C684.258 76.7031 683.578 78.1504 682.219 79.1816C680.859 80.2012 678.938 80.7109 676.453 80.7109ZM22.0898 139.176C19.3477 139.176 17.2324 138.414 15.7441 136.891C14.2559 135.355 13.5117 133.211 13.5117 130.457H17.168C17.168 132.215 17.6016 133.58 18.4688 134.553C19.3477 135.525 20.584 136.012 22.1777 136.012C23.7246 136.012 24.9141 135.531 25.7461 134.57C26.5898 133.598 27.0117 132.227 27.0117 130.457V113.863H30.668V130.457C30.668 133.223 29.9121 135.367 28.4004 136.891C26.8887 138.414 24.7852 139.176 22.0898 139.176ZM20.6133 117.203V113.863H28.8047V117.203H20.6133ZM47.4727 139L47.2266 133.48L46.7344 131.934V127.117C46.7344 125.875 46.2949 124.967 45.416 124.393C44.5488 123.807 43.2539 123.49 41.5312 123.443L37.0664 123.32L37.418 120.016L41.1797 120.068C44.2617 120.115 46.5469 120.783 48.0352 122.072C49.5352 123.35 50.2852 125.219 50.2852 127.68V135.449L53.4492 135.836V138.824L47.4727 139ZM40.8984 139.176C38.9531 139.176 37.4473 138.707 36.3809 137.77C35.3145 136.832 34.7812 135.508 34.7812 133.797C34.7812 131.828 35.5137 130.316 36.9785 129.262C38.4551 128.207 40.5352 127.68 43.2188 127.68C44.332 127.68 45.3223 127.75 46.1895 127.891C47.0684 128.02 47.8477 128.219 48.5273 128.488L47.7539 131.02C46.9688 130.844 46.2012 130.744 45.4512 130.721C44.7012 130.686 43.9336 130.668 43.1484 130.668C39.9141 130.668 38.2969 131.652 38.2969 133.621C38.2969 134.441 38.5723 135.074 39.123 135.52C39.6855 135.965 40.4766 136.188 41.4961 136.188C42.6562 136.188 43.623 135.988 44.3965 135.59C45.1816 135.191 45.7676 134.682 46.1543 134.061C46.541 133.439 46.7344 132.801 46.7344 132.145V130.105L47.8242 134.887H46.3477L46.9453 134.324C46.9453 135.402 46.6934 136.305 46.1895 137.031C45.6973 137.746 45 138.285 44.0977 138.648C43.1953 139 42.1289 139.176 40.8984 139.176ZM62.2559 138.824L55.5938 120.191H59.5664L64.5762 135.66H64.8926L69.9023 120.191H73.875L67.2129 138.824H62.2559ZM89.6602 139L89.4141 133.48L88.9219 131.934V127.117C88.9219 125.875 88.4824 124.967 87.6035 124.393C86.7363 123.807 85.4414 123.49 83.7188 123.443L79.2539 123.32L79.6055 120.016L83.3672 120.068C86.4492 120.115 88.7344 120.783 90.2227 122.072C91.7227 123.35 92.4727 125.219 92.4727 127.68V135.449L95.6367 135.836V138.824L89.6602 139ZM83.0859 139.176C81.1406 139.176 79.6348 138.707 78.5684 137.77C77.502 136.832 76.9688 135.508 76.9688 133.797C76.9688 131.828 77.7012 130.316 79.166 129.262C80.6426 128.207 82.7227 127.68 85.4062 127.68C86.5195 127.68 87.5098 127.75 88.377 127.891C89.2559 128.02 90.0352 128.219 90.7148 128.488L89.9414 131.02C89.1562 130.844 88.3887 130.744 87.6387 130.721C86.8887 130.686 86.1211 130.668 85.3359 130.668C82.1016 130.668 80.4844 131.652 80.4844 133.621C80.4844 134.441 80.7598 135.074 81.3105 135.52C81.873 135.965 82.6641 136.188 83.6836 136.188C84.8438 136.188 85.8105 135.988 86.584 135.59C87.3691 135.191 87.9551 134.682 88.3418 134.061C88.7285 133.439 88.9219 132.801 88.9219 132.145V130.105L90.0117 134.887H88.5352L89.1328 134.324C89.1328 135.402 88.8809 136.305 88.377 137.031C87.8848 137.746 87.1875 138.285 86.2852 138.648C85.3828 139 84.3164 139.176 83.0859 139.176ZM113.074 142.34C109.266 142.34 106.307 140.939 104.197 138.139C102.1 135.326 101.051 131.359 101.051 126.238C101.051 121.188 102.1 117.279 104.197 114.514C106.307 111.736 109.266 110.348 113.074 110.348H113.918V113.512H113.426C110.648 113.512 108.504 114.625 106.992 116.852C105.492 119.078 104.742 122.207 104.742 126.238C104.742 130.34 105.492 133.521 106.992 135.783C108.504 138.045 110.648 139.176 113.426 139.176H113.918V142.34H113.074ZM126.188 138.824V113.863H129.844V138.824H126.188ZM118.875 117.203V113.863H137.156V117.203H118.875ZM148.512 128.629L149.039 124.586H149.25L151.957 113.863H154.453V118.293H153.434L150.727 128.629H148.512ZM140.812 138.824V113.863H144.328V138.824H140.812ZM147.492 128.629L144.785 118.293H143.766V113.863H146.262L148.969 124.586H149.109L149.461 128.629H147.492ZM153.891 138.824V113.863H157.406V138.824H153.891ZM163.207 142.34V139.176H163.699C166.477 139.176 168.615 138.045 170.115 135.783C171.627 133.521 172.383 130.34 172.383 126.238C172.383 122.207 171.627 119.078 170.115 116.852C168.615 114.625 166.477 113.512 163.699 113.512H163.207V110.348H164.051C167.871 110.348 170.83 111.736 172.928 114.514C175.025 117.279 176.074 121.188 176.074 126.238C176.074 131.359 175.025 135.326 172.928 138.139C170.83 140.939 167.871 142.34 164.051 142.34H163.207ZM211.529 139.176C210.111 139.176 208.781 139.059 207.539 138.824C206.309 138.602 205.166 138.262 204.111 137.805L204.568 134.254C205.857 134.805 207.1 135.227 208.295 135.52C209.502 135.801 210.674 135.941 211.811 135.941C213.451 135.941 214.67 135.654 215.467 135.08C216.264 134.506 216.662 133.633 216.662 132.461C216.662 130.973 215.9 129.883 214.377 129.191L210.053 127.223C208.354 126.449 207.047 125.518 206.133 124.428C205.23 123.338 204.779 121.984 204.779 120.367C204.779 118.188 205.436 116.5 206.748 115.305C208.061 114.109 209.918 113.512 212.32 113.512C213.996 113.512 215.479 113.758 216.768 114.25C218.057 114.742 219.299 115.545 220.494 116.658L218.033 119.154C217.002 118.311 216.035 117.701 215.133 117.326C214.242 116.939 213.311 116.746 212.338 116.746C211.131 116.746 210.193 117.039 209.525 117.625C208.869 118.199 208.541 119.055 208.541 120.191C208.541 121 208.758 121.662 209.191 122.178C209.625 122.682 210.264 123.133 211.107 123.531L214.764 125.254C216.615 126.121 218.021 127.1 218.982 128.189C219.943 129.279 220.424 130.68 220.424 132.391C220.424 134.652 219.686 136.352 218.209 137.488C216.744 138.613 214.518 139.176 211.529 139.176ZM225.75 138.824V113.863H229.406V138.824H225.75ZM225.75 138.824V135.484H242.273V138.824H225.75ZM225.75 127.996V124.656H239.109V127.996H225.75ZM225.75 117.203V113.863H242.273V117.203H225.75ZM270.996 129.332V125.992H276.164C277.559 125.992 278.643 125.623 279.416 124.885C280.201 124.146 280.594 123.109 280.594 121.773C280.594 120.309 280.201 119.184 279.416 118.398C278.643 117.602 277.559 117.203 276.164 117.203H271.066L270.645 113.863H276.164C278.754 113.863 280.752 114.52 282.158 115.832C283.576 117.145 284.285 119.008 284.285 121.422C284.285 123.93 283.576 125.875 282.158 127.258C280.752 128.641 278.754 129.332 276.164 129.332H270.996ZM267.586 138.824V113.863H271.242V138.824H267.586ZM280.98 138.824L275.391 127.082H279.258L285.199 138.824H280.98ZM294.938 139.176C292.98 139.176 291.463 138.596 290.385 137.436C289.318 136.264 288.785 134.617 288.785 132.496V120.191H292.512V132.496C292.512 133.562 292.816 134.389 293.426 134.975C294.035 135.549 294.891 135.836 295.992 135.836C297.352 135.836 298.377 135.408 299.068 134.553C299.76 133.686 300.105 132.238 300.105 130.211L301.055 135.238H299.824C299.531 136.504 298.957 137.477 298.102 138.156C297.246 138.836 296.191 139.176 294.938 139.176ZM300.422 139L300.105 134.535V131.266H303.832V135.449L306.398 135.836V138.824L300.422 139ZM300.105 133.551V120.191H303.832V132.496L300.105 133.551ZM321.727 138.824V126.695C321.727 125.57 321.434 124.703 320.848 124.094C320.262 123.484 319.441 123.18 318.387 123.18C315.457 123.18 313.992 124.902 313.992 128.348L312.902 123.566H314.344C314.449 122.312 314.906 121.381 315.715 120.771C316.523 120.15 317.707 119.84 319.266 119.84C321.234 119.84 322.758 120.438 323.836 121.633C324.914 122.828 325.453 124.516 325.453 126.695V138.824H321.727ZM310.266 138.824V120.191H313.641L313.992 124.129V138.824H310.266ZM342.328 139.176C339.504 139.176 337.459 138.59 336.193 137.418C334.939 136.246 334.312 134.371 334.312 131.793V128.629H338.039V131.617C338.039 133.094 338.396 134.166 339.111 134.834C339.838 135.502 341.027 135.836 342.68 135.836C343.266 135.836 343.887 135.807 344.543 135.748C345.199 135.678 345.949 135.59 346.793 135.484L347.215 138.754C346.395 138.895 345.592 139 344.807 139.07C344.033 139.141 343.207 139.176 342.328 139.176ZM334.312 130.035V114.566H338.039V130.035H334.312ZM329.637 123.461V120.191H346.512V123.461H329.637ZM359.414 138.824V121.246H363.141V138.824H359.414ZM352.312 138.824V135.555H359.766V138.824H352.312ZM362.789 138.824V135.555H368.871V138.824H362.789ZM353.367 123.461V120.191H363.141V123.461H353.367ZM361.154 117.238C360.439 117.238 359.824 116.986 359.309 116.482C358.805 115.967 358.553 115.352 358.553 114.637C358.553 113.91 358.805 113.295 359.309 112.791C359.824 112.287 360.439 112.035 361.154 112.035C361.881 112.035 362.496 112.287 363 112.791C363.504 113.295 363.756 113.91 363.756 114.637C363.756 115.352 363.504 115.967 363 116.482C362.496 116.986 361.881 117.238 361.154 117.238ZM385.992 138.824V124.586C385.992 123.297 385.512 122.652 384.551 122.652C383.332 122.652 382.723 123.496 382.723 125.184L381.457 122.512H382.898C382.957 121.785 383.244 121.158 383.76 120.631C384.287 120.104 385.043 119.84 386.027 119.84C387.316 119.84 388.254 120.186 388.84 120.877C389.426 121.568 389.719 122.688 389.719 124.234V138.824H385.992ZM372.562 138.824V120.191H375.867L376.289 124.129V138.824H372.562ZM379.559 138.824V124.234C379.559 123.18 379.066 122.652 378.082 122.652C376.887 122.652 376.289 123.496 376.289 125.184L375.199 122.512H376.395C376.535 120.73 377.602 119.84 379.594 119.84C380.566 119.84 381.328 120.174 381.879 120.842C382.441 121.51 382.723 122.523 382.723 123.883V138.824H379.559ZM403.852 139.176C400.676 139.176 398.221 138.344 396.486 136.68C394.764 135.004 393.902 132.602 393.902 129.473C393.902 126.426 394.635 124.059 396.1 122.371C397.564 120.684 399.633 119.84 402.305 119.84C404.824 119.84 406.77 120.602 408.141 122.125C409.523 123.648 410.215 125.863 410.215 128.77C410.215 129.625 410.18 130.422 410.109 131.16H397.031V128.312H406.84C406.84 126.637 406.441 125.354 405.645 124.463C404.848 123.561 403.746 123.109 402.34 123.109C400.758 123.109 399.527 123.648 398.648 124.727C397.781 125.805 397.348 127.328 397.348 129.297C397.348 131.453 397.945 133.094 399.141 134.219C400.348 135.344 402.059 135.906 404.273 135.906C405.047 135.906 405.809 135.865 406.559 135.783C407.309 135.689 408.07 135.566 408.844 135.414L409.301 138.684C408.199 138.895 407.191 139.029 406.277 139.088C405.363 139.146 404.555 139.176 403.852 139.176ZM436.688 138.824V113.863H440.344V138.824H436.688ZM436.688 138.824V135.484H453.211V138.824H436.688ZM436.688 127.996V124.656H450.047V127.996H436.688ZM436.688 117.203V113.863H453.211V117.203H436.688ZM469.383 138.824V126.695C469.383 125.57 469.09 124.703 468.504 124.094C467.918 123.484 467.098 123.18 466.043 123.18C463.113 123.18 461.648 124.902 461.648 128.348L460.559 123.566H462C462.105 122.312 462.562 121.381 463.371 120.771C464.18 120.15 465.363 119.84 466.922 119.84C468.891 119.84 470.414 120.438 471.492 121.633C472.57 122.828 473.109 124.516 473.109 126.695V138.824H469.383ZM457.922 138.824V120.191H461.297L461.648 124.129V138.824H457.922ZM484.131 138.824L477.469 120.191H481.441L486.451 135.66H486.768L491.777 120.191H495.75L489.088 138.824H484.131ZM507.07 138.824V121.246H510.797V138.824H507.07ZM499.969 138.824V135.555H507.422V138.824H499.969ZM510.445 138.824V135.555H516.527V138.824H510.445ZM501.023 123.461V120.191H510.797V123.461H501.023ZM508.811 117.238C508.096 117.238 507.48 116.986 506.965 116.482C506.461 115.967 506.209 115.352 506.209 114.637C506.209 113.91 506.461 113.295 506.965 112.791C507.48 112.287 508.096 112.035 508.811 112.035C509.537 112.035 510.152 112.287 510.656 112.791C511.16 113.295 511.412 113.91 511.412 114.637C511.412 115.352 511.16 115.967 510.656 116.482C510.152 116.986 509.537 117.238 508.811 117.238ZM527.531 130.809L526.441 124.973H527.883C528.094 121.551 529.805 119.84 533.016 119.84C534.938 119.84 536.332 120.391 537.199 121.492C538.066 122.594 538.5 124.375 538.5 126.836H534.809C534.809 125.477 534.604 124.498 534.193 123.9C533.795 123.303 533.145 123.004 532.242 123.004C530.66 123.004 529.477 123.684 528.691 125.043C527.918 126.391 527.531 128.312 527.531 130.809ZM519.656 138.824V135.555H532.102V138.824H519.656ZM523.805 138.824V120.191H526.828L527.531 125.535V138.824H523.805ZM520.359 123.461V120.191H526.582L526.934 123.461H520.359ZM549.891 139.176C547.312 139.176 545.309 138.332 543.879 136.645C542.449 134.957 541.734 132.578 541.734 129.508C541.734 126.426 542.449 124.047 543.879 122.371C545.309 120.684 547.312 119.84 549.891 119.84C552.48 119.84 554.484 120.684 555.902 122.371C557.332 124.047 558.047 126.426 558.047 129.508C558.047 132.578 557.332 134.957 555.902 136.645C554.484 138.332 552.48 139.176 549.891 139.176ZM549.891 135.836C551.262 135.836 552.316 135.285 553.055 134.184C553.805 133.082 554.18 131.523 554.18 129.508C554.18 127.48 553.805 125.922 553.055 124.832C552.316 123.73 551.262 123.18 549.891 123.18C548.52 123.18 547.459 123.73 546.709 124.832C545.971 125.922 545.602 127.48 545.602 129.508C545.602 131.523 545.971 133.082 546.709 134.184C547.459 135.285 548.52 135.836 549.891 135.836ZM574.852 138.824V126.695C574.852 125.57 574.559 124.703 573.973 124.094C573.387 123.484 572.566 123.18 571.512 123.18C568.582 123.18 567.117 124.902 567.117 128.348L566.027 123.566H567.469C567.574 122.312 568.031 121.381 568.84 120.771C569.648 120.15 570.832 119.84 572.391 119.84C574.359 119.84 575.883 120.438 576.961 121.633C578.039 122.828 578.578 124.516 578.578 126.695V138.824H574.852ZM563.391 138.824V120.191H566.766L567.117 124.129V138.824H563.391ZM596.93 138.824V124.586C596.93 123.297 596.449 122.652 595.488 122.652C594.27 122.652 593.66 123.496 593.66 125.184L592.395 122.512H593.836C593.895 121.785 594.182 121.158 594.697 120.631C595.225 120.104 595.98 119.84 596.965 119.84C598.254 119.84 599.191 120.186 599.777 120.877C600.363 121.568 600.656 122.688 600.656 124.234V138.824H596.93ZM583.5 138.824V120.191H586.805L587.227 124.129V138.824H583.5ZM590.496 138.824V124.234C590.496 123.18 590.004 122.652 589.02 122.652C587.824 122.652 587.227 123.496 587.227 125.184L586.137 122.512H587.332C587.473 120.73 588.539 119.84 590.531 119.84C591.504 119.84 592.266 120.174 592.816 120.842C593.379 121.51 593.66 122.523 593.66 123.883V138.824H590.496ZM614.789 139.176C611.613 139.176 609.158 138.344 607.424 136.68C605.701 135.004 604.84 132.602 604.84 129.473C604.84 126.426 605.572 124.059 607.037 122.371C608.502 120.684 610.57 119.84 613.242 119.84C615.762 119.84 617.707 120.602 619.078 122.125C620.461 123.648 621.152 125.863 621.152 128.77C621.152 129.625 621.117 130.422 621.047 131.16H607.969V128.312H617.777C617.777 126.637 617.379 125.354 616.582 124.463C615.785 123.561 614.684 123.109 613.277 123.109C611.695 123.109 610.465 123.648 609.586 124.727C608.719 125.805 608.285 127.328 608.285 129.297C608.285 131.453 608.883 133.094 610.078 134.219C611.285 135.344 612.996 135.906 615.211 135.906C615.984 135.906 616.746 135.865 617.496 135.783C618.246 135.689 619.008 135.566 619.781 135.414L620.238 138.684C619.137 138.895 618.129 139.029 617.215 139.088C616.301 139.146 615.492 139.176 614.789 139.176ZM638.133 138.824V126.695C638.133 125.57 637.84 124.703 637.254 124.094C636.668 123.484 635.848 123.18 634.793 123.18C631.863 123.18 630.398 124.902 630.398 128.348L629.309 123.566H630.75C630.855 122.312 631.312 121.381 632.121 120.771C632.93 120.15 634.113 119.84 635.672 119.84C637.641 119.84 639.164 120.438 640.242 121.633C641.32 122.828 641.859 124.516 641.859 126.695V138.824H638.133ZM626.672 138.824V120.191H630.047L630.398 124.129V138.824H626.672ZM658.734 139.176C655.91 139.176 653.865 138.59 652.6 137.418C651.346 136.246 650.719 134.371 650.719 131.793V128.629H654.445V131.617C654.445 133.094 654.803 134.166 655.518 134.834C656.244 135.502 657.434 135.836 659.086 135.836C659.672 135.836 660.293 135.807 660.949 135.748C661.605 135.678 662.355 135.59 663.199 135.484L663.621 138.754C662.801 138.895 661.998 139 661.213 139.07C660.439 139.141 659.613 139.176 658.734 139.176ZM650.719 130.035V114.566H654.445V130.035H650.719ZM646.043 123.461V120.191H662.918V123.461H646.043ZM703.699 142.34C699.891 142.34 696.932 140.939 694.822 138.139C692.725 135.326 691.676 131.359 691.676 126.238C691.676 121.188 692.725 117.279 694.822 114.514C696.932 111.736 699.891 110.348 703.699 110.348H704.543V113.512H704.051C701.273 113.512 699.129 114.625 697.617 116.852C696.117 119.078 695.367 122.207 695.367 126.238C695.367 130.34 696.117 133.521 697.617 135.783C699.129 138.045 701.273 139.176 704.051 139.176H704.543V142.34H703.699ZM715.951 139.176C715.107 139.176 714.275 139.141 713.455 139.07C712.635 139.012 711.803 138.93 710.959 138.824L712.4 135.414C713.021 135.707 713.707 135.883 714.457 135.941C715.207 135.988 715.951 136.012 716.689 136.012C718.928 136.012 720.656 135.338 721.875 133.99C723.105 132.643 723.721 130.738 723.721 128.277C723.721 126.59 723.346 125.289 722.596 124.375C721.857 123.461 720.803 123.004 719.432 123.004C716.268 123.004 714.686 124.785 714.686 128.348L713.596 123.566H715.037C715.213 121.082 716.736 119.84 719.607 119.84C722.092 119.84 724.014 120.572 725.373 122.037C726.732 123.502 727.412 125.582 727.412 128.277C727.412 131.734 726.41 134.418 724.406 136.328C722.414 138.227 719.596 139.176 715.951 139.176ZM710.959 138.824V112.457H714.686V138.508L710.959 138.824ZM737.906 139.176C735.949 139.176 734.432 138.596 733.354 137.436C732.287 136.264 731.754 134.617 731.754 132.496V120.191H735.48V132.496C735.48 133.562 735.785 134.389 736.395 134.975C737.004 135.549 737.859 135.836 738.961 135.836C740.32 135.836 741.346 135.408 742.037 134.553C742.729 133.686 743.074 132.238 743.074 130.211L744.023 135.238H742.793C742.5 136.504 741.926 137.477 741.07 138.156C740.215 138.836 739.16 139.176 737.906 139.176ZM743.391 139L743.074 134.535V131.266H746.801V135.449L749.367 135.836V138.824L743.391 139ZM743.074 133.551V120.191H746.801V132.496L743.074 133.551ZM760.195 138.824V121.246H763.922V138.824H760.195ZM753.094 138.824V135.555H760.547V138.824H753.094ZM763.57 138.824V135.555H769.652V138.824H763.57ZM754.148 123.461V120.191H763.922V123.461H754.148ZM761.936 117.238C761.221 117.238 760.605 116.986 760.09 116.482C759.586 115.967 759.334 115.352 759.334 114.637C759.334 113.91 759.586 113.295 760.09 112.791C760.605 112.287 761.221 112.035 761.936 112.035C762.662 112.035 763.277 112.287 763.781 112.791C764.285 113.295 764.537 113.91 764.537 114.637C764.537 115.352 764.285 115.967 763.781 116.482C763.277 116.986 762.662 117.238 761.936 117.238ZM784.699 139.176C782.543 139.176 780.984 138.59 780.023 137.418C779.062 136.246 778.582 134.371 778.582 131.793V112.457H782.309V131.617C782.309 132.602 782.402 133.404 782.59 134.025C782.777 134.646 783.141 135.104 783.68 135.396C784.23 135.689 785.039 135.836 786.105 135.836C787.078 135.836 788.32 135.613 789.832 135.168L790.254 138.438C789.305 138.695 788.391 138.883 787.512 139C786.645 139.117 785.707 139.176 784.699 139.176ZM773.098 115.727V112.457H778.898V115.727H773.098ZM801.592 139.176C799.154 139.176 797.303 138.373 796.037 136.768C794.783 135.162 794.156 132.801 794.156 129.684C794.156 126.449 794.783 124 796.037 122.336C797.303 120.672 799.154 119.84 801.592 119.84C802.986 119.84 804.117 120.168 804.984 120.824C805.863 121.48 806.379 122.395 806.531 123.566H807.973L806.883 128.875C806.883 126.953 806.502 125.494 805.74 124.498C804.99 123.502 803.883 123.004 802.418 123.004C800.918 123.004 799.781 123.566 799.008 124.691C798.234 125.816 797.848 127.48 797.848 129.684C797.848 131.77 798.234 133.346 799.008 134.412C799.781 135.479 800.918 136.012 802.418 136.012C803.883 136.012 804.99 135.514 805.74 134.518C806.502 133.521 806.883 132.062 806.883 130.141L808.148 135.449H806.531C806.414 136.621 805.916 137.535 805.037 138.191C804.17 138.848 803.021 139.176 801.592 139.176ZM807.27 139L806.883 135.344V112.457H810.609V138.824L807.27 139ZM837.328 138.824V134.816C841.184 132.684 844.061 130.469 845.959 128.172C847.869 125.863 848.824 123.484 848.824 121.035C848.824 119.605 848.473 118.533 847.77 117.818C847.066 117.104 846 116.746 844.57 116.746C843.621 116.746 842.631 117.021 841.6 117.572C840.568 118.123 839.684 118.855 838.945 119.77L836.52 117.361C837.328 116.201 838.477 115.27 839.965 114.566C841.453 113.863 843.012 113.512 844.641 113.512C847.277 113.512 849.246 114.139 850.547 115.393C851.859 116.635 852.516 118.516 852.516 121.035C852.516 123.555 851.713 125.975 850.107 128.295C848.514 130.604 846.082 132.824 842.812 134.957V138.824H837.328ZM838.383 138.824V135.484H853.57V138.824H838.383ZM866.297 139.176C860.625 139.176 857.789 134.957 857.789 126.52C857.789 117.848 860.625 113.512 866.297 113.512C871.969 113.512 874.805 117.848 874.805 126.52C874.805 134.957 871.969 139.176 866.297 139.176ZM866.297 129.156C865.512 129.156 864.873 128.916 864.381 128.436C863.9 127.943 863.66 127.305 863.66 126.52C863.66 125.723 863.9 125.084 864.381 124.604C864.873 124.123 865.512 123.883 866.297 123.883C867.094 123.883 867.732 124.123 868.213 124.604C868.693 125.084 868.934 125.723 868.934 126.52C868.934 127.305 868.693 127.943 868.213 128.436C867.732 128.916 867.094 129.156 866.297 129.156ZM866.297 135.941C869.461 135.941 871.043 132.801 871.043 126.52C871.043 120.004 869.461 116.746 866.297 116.746C863.133 116.746 861.551 120.004 861.551 126.52C861.551 132.801 863.133 135.941 866.297 135.941ZM887.391 139.176C886.676 139.176 886.061 138.924 885.545 138.42C885.041 137.904 884.789 137.289 884.789 136.574C884.789 135.848 885.041 135.232 885.545 134.729C886.061 134.225 886.676 133.973 887.391 133.973C888.117 133.973 888.732 134.225 889.236 134.729C889.74 135.232 889.992 135.848 889.992 136.574C889.992 137.289 889.74 137.904 889.236 138.42C888.732 138.924 888.117 139.176 887.391 139.176ZM908.484 139.176C902.812 139.176 899.977 134.957 899.977 126.52C899.977 117.848 902.812 113.512 908.484 113.512C914.156 113.512 916.992 117.848 916.992 126.52C916.992 134.957 914.156 139.176 908.484 139.176ZM908.484 129.156C907.699 129.156 907.061 128.916 906.568 128.436C906.088 127.943 905.848 127.305 905.848 126.52C905.848 125.723 906.088 125.084 906.568 124.604C907.061 124.123 907.699 123.883 908.484 123.883C909.281 123.883 909.92 124.123 910.4 124.604C910.881 125.084 911.121 125.723 911.121 126.52C911.121 127.305 910.881 127.943 910.4 128.436C909.92 128.916 909.281 129.156 908.484 129.156ZM908.484 135.941C911.648 135.941 913.23 132.801 913.23 126.52C913.23 120.004 911.648 116.746 908.484 116.746C905.32 116.746 903.738 120.004 903.738 126.52C903.738 132.801 905.32 135.941 908.484 135.941ZM929.578 139.176C928.863 139.176 928.248 138.924 927.732 138.42C927.229 137.904 926.977 137.289 926.977 136.574C926.977 135.848 927.229 135.232 927.732 134.729C928.248 134.225 928.863 133.973 929.578 133.973C930.305 133.973 930.92 134.225 931.424 134.729C931.928 135.232 932.18 135.848 932.18 136.574C932.18 137.289 931.928 137.904 931.424 138.42C930.92 138.924 930.305 139.176 929.578 139.176ZM949.371 138.824V113.863H953.027V138.824H949.371ZM943.113 138.824V135.484H949.723V138.824H943.113ZM952.676 138.824V135.484H958.617V138.824H952.676ZM943.465 119.523V115.973L949.371 113.863V117.484L943.465 119.523ZM969.902 135.484V117.238H973.629V135.484H969.902ZM962.977 127.979V124.709H980.555V127.979H962.977ZM991.172 129.93C988.992 129.93 987.311 129.256 986.127 127.908C984.943 126.561 984.352 124.656 984.352 122.195C984.352 119.535 985.102 117.467 986.602 115.99C988.113 114.502 990.211 113.758 992.895 113.758C995.789 113.758 997.916 114.479 999.275 115.92C1000.65 117.361 1001.33 119.605 1001.33 122.652L998.414 125.852H997.113C996.762 127.152 996.059 128.16 995.004 128.875C993.961 129.578 992.684 129.93 991.172 129.93ZM986.637 139.176L986.285 135.836C993.715 135.52 997.43 132.18 997.43 125.816V123.812L1001.33 122.652V124.199C1001.33 128.957 1000.12 132.584 997.693 135.08C995.279 137.564 991.594 138.93 986.637 139.176ZM992.49 126.695C994.119 126.695 995.373 126.273 996.252 125.43C997.131 124.586 997.57 123.391 997.57 121.844C997.57 120.32 997.148 119.131 996.305 118.275C995.461 117.42 994.283 116.992 992.771 116.992C991.283 116.992 990.123 117.449 989.291 118.363C988.459 119.277 988.043 120.555 988.043 122.195C988.043 123.637 988.424 124.75 989.186 125.535C989.959 126.309 991.061 126.695 992.49 126.695ZM1005.16 127.996V124.727H1022.74V127.996H1005.16ZM1027.17 138.824V134.816C1031.03 132.684 1033.9 130.469 1035.8 128.172C1037.71 125.863 1038.67 123.484 1038.67 121.035C1038.67 119.605 1038.32 118.533 1037.61 117.818C1036.91 117.104 1035.84 116.746 1034.41 116.746C1033.46 116.746 1032.47 117.021 1031.44 117.572C1030.41 118.123 1029.53 118.855 1028.79 119.77L1026.36 117.361C1027.17 116.201 1028.32 115.27 1029.81 114.566C1031.3 113.863 1032.86 113.512 1034.48 113.512C1037.12 113.512 1039.09 114.139 1040.39 115.393C1041.7 116.635 1042.36 118.516 1042.36 121.035C1042.36 123.555 1041.56 125.975 1039.95 128.295C1038.36 130.604 1035.93 132.824 1032.66 134.957V138.824H1027.17ZM1028.23 138.824V135.484H1043.41V138.824H1028.23ZM1054.45 129.93C1052.27 129.93 1050.59 129.256 1049.41 127.908C1048.22 126.561 1047.63 124.656 1047.63 122.195C1047.63 119.535 1048.38 117.467 1049.88 115.99C1051.39 114.502 1053.49 113.758 1056.18 113.758C1059.07 113.758 1061.2 114.479 1062.56 115.92C1063.93 117.361 1064.61 119.605 1064.61 122.652L1061.7 125.852H1060.39C1060.04 127.152 1059.34 128.16 1058.29 128.875C1057.24 129.578 1055.96 129.93 1054.45 129.93ZM1049.92 139.176L1049.57 135.836C1057 135.52 1060.71 132.18 1060.71 125.816V123.812L1064.61 122.652V124.199C1064.61 128.957 1063.4 132.584 1060.97 135.08C1058.56 137.564 1054.88 138.93 1049.92 139.176ZM1055.77 126.695C1057.4 126.695 1058.65 126.273 1059.53 125.43C1060.41 124.586 1060.85 123.391 1060.85 121.844C1060.85 120.32 1060.43 119.131 1059.59 118.275C1058.74 117.42 1057.56 116.992 1056.05 116.992C1054.56 116.992 1053.4 117.449 1052.57 118.363C1051.74 119.277 1051.32 120.555 1051.32 122.195C1051.32 123.637 1051.71 124.75 1052.47 125.535C1053.24 126.309 1054.34 126.695 1055.77 126.695ZM1070.24 142.34V139.176H1070.73C1073.51 139.176 1075.65 138.045 1077.15 135.783C1078.66 133.521 1079.41 130.34 1079.41 126.238C1079.41 122.207 1078.66 119.078 1077.15 116.852C1075.65 114.625 1073.51 113.512 1070.73 113.512H1070.24V110.348H1071.08C1074.9 110.348 1077.86 111.736 1079.96 114.514C1082.06 117.279 1083.11 121.188 1083.11 126.238C1083.11 131.359 1082.06 135.326 1079.96 138.139C1077.86 140.939 1074.9 142.34 1071.08 142.34H1070.24Z" fill="white"/>
<path d="M767.207 81.7168C765.674 81.7168 764.512 81.3408 763.721 80.5889C762.93 79.8369 762.534 78.7383 762.534 77.293C762.534 76.3945 762.744 75.4619 763.164 74.4951C763.584 73.5283 764.229 72.5713 765.098 71.624L765.918 70.7305L768.115 72.6641L767.236 73.6162C766.67 74.2217 766.245 74.8369 765.962 75.4619C765.679 76.0771 765.537 76.6875 765.537 77.293C765.537 77.8594 765.718 78.2891 766.079 78.582C766.44 78.8652 766.963 79.0068 767.646 79.0068H768.306V81.7168H767.207ZM773.945 81.7168C772.412 81.7168 771.25 81.3408 770.459 80.5889C769.668 79.8369 769.272 78.7383 769.272 77.293C769.272 76.3945 769.482 75.4619 769.902 74.4951C770.322 73.5283 770.967 72.5713 771.836 71.624L772.656 70.7305L774.854 72.6641L773.975 73.6162C773.408 74.2217 772.983 74.8369 772.7 75.4619C772.417 76.0771 772.275 76.6875 772.275 77.293C772.275 77.8594 772.456 78.2891 772.817 78.582C773.179 78.8652 773.701 79.0068 774.385 79.0068H775.044V81.7168H773.945ZM783.027 94.959V67.8887H786.074V94.959H783.027ZM785.781 94.959V92.1758H792.197V94.959H785.781ZM785.781 70.6719V67.8887H792.197V70.6719H785.781ZM803.564 92.1172C801.279 92.1172 799.517 91.4824 798.276 90.2129C797.036 88.9336 796.416 87.1465 796.416 84.8516H799.463C799.463 86.3164 799.824 87.4541 800.547 88.2646C801.279 89.0752 802.31 89.4805 803.638 89.4805C804.927 89.4805 805.918 89.0801 806.611 88.2793C807.314 87.4688 807.666 86.3262 807.666 84.8516V71.0234H810.713V84.8516C810.713 87.1562 810.083 88.9434 808.823 90.2129C807.563 91.4824 805.811 92.1172 803.564 92.1172ZM802.334 73.8066V71.0234H809.16V73.8066H802.334ZM824.717 91.9707L824.512 87.3711L824.102 86.082V82.0684C824.102 81.0332 823.735 80.2764 823.003 79.7979C822.28 79.3096 821.201 79.0459 819.766 79.0068L816.045 78.9043L816.338 76.1504L819.473 76.1943C822.041 76.2334 823.945 76.79 825.186 77.8643C826.436 78.9287 827.061 80.4863 827.061 82.5371V89.0117L829.697 89.334V91.8242L824.717 91.9707ZM819.238 92.1172C817.617 92.1172 816.362 91.7266 815.474 90.9453C814.585 90.1641 814.141 89.0605 814.141 87.6348C814.141 85.9941 814.751 84.7344 815.972 83.8555C817.202 82.9766 818.936 82.5371 821.172 82.5371C822.1 82.5371 822.925 82.5957 823.647 82.7129C824.38 82.8203 825.029 82.9863 825.596 83.2109L824.951 85.3203C824.297 85.1738 823.657 85.0908 823.032 85.0713C822.407 85.042 821.768 85.0273 821.113 85.0273C818.418 85.0273 817.07 85.8477 817.07 87.4883C817.07 88.1719 817.3 88.6992 817.759 89.0703C818.228 89.4414 818.887 89.627 819.736 89.627C820.703 89.627 821.509 89.4609 822.153 89.1289C822.808 88.7969 823.296 88.3721 823.618 87.8545C823.94 87.3369 824.102 86.8047 824.102 86.2578V84.5586L825.01 88.543H823.779L824.277 88.0742C824.277 88.9727 824.067 89.7246 823.647 90.3301C823.237 90.9258 822.656 91.375 821.904 91.6777C821.152 91.9707 820.264 92.1172 819.238 92.1172ZM837.036 91.8242L831.484 76.2969H834.795L838.97 89.1875H839.233L843.408 76.2969H846.719L841.167 91.8242H837.036ZM859.873 91.9707L859.668 87.3711L859.258 86.082V82.0684C859.258 81.0332 858.892 80.2764 858.159 79.7979C857.437 79.3096 856.357 79.0459 854.922 79.0068L851.201 78.9043L851.494 76.1504L854.629 76.1943C857.197 76.2334 859.102 76.79 860.342 77.8643C861.592 78.9287 862.217 80.4863 862.217 82.5371V89.0117L864.854 89.334V91.8242L859.873 91.9707ZM854.395 92.1172C852.773 92.1172 851.519 91.7266 850.63 90.9453C849.741 90.1641 849.297 89.0605 849.297 87.6348C849.297 85.9941 849.907 84.7344 851.128 83.8555C852.358 82.9766 854.092 82.5371 856.328 82.5371C857.256 82.5371 858.081 82.5957 858.804 82.7129C859.536 82.8203 860.186 82.9863 860.752 83.2109L860.107 85.3203C859.453 85.1738 858.813 85.0908 858.188 85.0713C857.563 85.042 856.924 85.0273 856.27 85.0273C853.574 85.0273 852.227 85.8477 852.227 87.4883C852.227 88.1719 852.456 88.6992 852.915 89.0703C853.384 89.4414 854.043 89.627 854.893 89.627C855.859 89.627 856.665 89.4609 857.31 89.1289C857.964 88.7969 858.452 88.3721 858.774 87.8545C859.097 87.3369 859.258 86.8047 859.258 86.2578V84.5586L860.166 88.543H858.936L859.434 88.0742C859.434 88.9727 859.224 89.7246 858.804 90.3301C858.394 90.9258 857.812 91.375 857.061 91.6777C856.309 91.9707 855.42 92.1172 854.395 92.1172ZM889.565 91.8242L883.706 71.0234H886.841L891.704 89.334H891.968L896.831 71.0234H899.966L894.106 91.8242H889.565ZM910.762 92.1172C908.115 92.1172 906.069 91.4238 904.624 90.0371C903.188 88.6406 902.471 86.6387 902.471 84.0312C902.471 81.4922 903.081 79.5195 904.302 78.1133C905.522 76.707 907.246 76.0039 909.473 76.0039C911.572 76.0039 913.193 76.6387 914.336 77.9082C915.488 79.1777 916.064 81.0234 916.064 83.4453C916.064 84.1582 916.035 84.8223 915.977 85.4375H905.078V83.0645H913.252C913.252 81.668 912.92 80.5986 912.256 79.8564C911.592 79.1045 910.674 78.7285 909.502 78.7285C908.184 78.7285 907.158 79.1777 906.426 80.0762C905.703 80.9746 905.342 82.2441 905.342 83.8848C905.342 85.6816 905.84 87.0488 906.836 87.9863C907.842 88.9238 909.268 89.3926 911.113 89.3926C911.758 89.3926 912.393 89.3584 913.018 89.29C913.643 89.2119 914.277 89.1094 914.922 88.9824L915.303 91.707C914.385 91.8828 913.545 91.9951 912.783 92.0439C912.021 92.0928 911.348 92.1172 910.762 92.1172ZM925.938 85.1445L925.029 80.2812H926.23C926.406 77.4297 927.832 76.0039 930.508 76.0039C932.109 76.0039 933.271 76.4629 933.994 77.3809C934.717 78.2988 935.078 79.7832 935.078 81.834H932.002C932.002 80.7012 931.831 79.8857 931.489 79.3877C931.157 78.8896 930.615 78.6406 929.863 78.6406C928.545 78.6406 927.559 79.207 926.904 80.3398C926.26 81.4629 925.938 83.0645 925.938 85.1445ZM919.375 91.8242V89.0996H929.746V91.8242H919.375ZM922.832 91.8242V76.2969H925.352L925.938 80.75V91.8242H922.832ZM919.961 79.0215V76.2969H925.146L925.439 79.0215H919.961ZM943.369 92.1172C942.197 92.1172 941.191 92.083 940.352 92.0146C939.521 91.9463 938.76 91.834 938.066 91.6777L938.418 88.8652C939.443 89.0215 940.347 89.1387 941.128 89.2168C941.919 89.2949 942.666 89.334 943.369 89.334C944.941 89.334 946.079 89.1826 946.782 88.8799C947.495 88.5674 947.852 88.0742 947.852 87.4004C947.852 86.9316 947.725 86.585 947.471 86.3604C947.227 86.126 946.846 85.9453 946.328 85.8184L942.754 84.9102C941.221 84.5195 940.093 84.0361 939.37 83.46C938.657 82.8838 938.301 82.0098 938.301 80.8379C938.301 79.1387 938.95 77.9082 940.249 77.1465C941.558 76.3848 943.662 76.0039 946.562 76.0039C947.314 76.0039 948.013 76.0283 948.657 76.0771C949.312 76.1162 949.98 76.1895 950.664 76.2969L950.342 78.9922C949.551 78.9141 948.853 78.8604 948.247 78.8311C947.642 78.8018 947.051 78.7871 946.475 78.7871C944.736 78.7871 943.477 78.9385 942.695 79.2412C941.914 79.5342 941.523 80.0176 941.523 80.6914C941.523 81.1406 941.685 81.4678 942.007 81.6729C942.329 81.8682 942.822 82.0488 943.486 82.2148L946.357 82.918C947.988 83.3086 949.18 83.8311 949.932 84.4854C950.693 85.1396 951.074 86.0918 951.074 87.3418C951.074 89.0117 950.464 90.2275 949.243 90.9893C948.022 91.7412 946.064 92.1172 943.369 92.1172ZM961.621 91.8242V77.1758H964.727V91.8242H961.621ZM955.703 91.8242V89.0996H961.914V91.8242H955.703ZM964.434 91.8242V89.0996H969.502V91.8242H964.434ZM956.582 79.0215V76.2969H964.727V79.0215H956.582ZM963.071 73.8359C962.476 73.8359 961.963 73.626 961.533 73.2061C961.113 72.7764 960.903 72.2637 960.903 71.668C960.903 71.0625 961.113 70.5498 961.533 70.1299C961.963 69.71 962.476 69.5 963.071 69.5C963.677 69.5 964.189 69.71 964.609 70.1299C965.029 70.5498 965.239 71.0625 965.239 71.668C965.239 72.2637 965.029 72.7764 964.609 73.2061C964.189 73.626 963.677 73.8359 963.071 73.8359ZM979.727 92.1172C977.578 92.1172 975.908 91.4141 974.717 90.0078C973.525 88.6016 972.93 86.6191 972.93 84.0605C972.93 81.4922 973.525 79.5098 974.717 78.1133C975.908 76.707 977.578 76.0039 979.727 76.0039C981.885 76.0039 983.555 76.707 984.736 78.1133C985.928 79.5098 986.523 81.4922 986.523 84.0605C986.523 86.6191 985.928 88.6016 984.736 90.0078C983.555 91.4141 981.885 92.1172 979.727 92.1172ZM979.727 89.334C980.869 89.334 981.748 88.875 982.363 87.957C982.988 87.0391 983.301 85.7402 983.301 84.0605C983.301 82.3711 982.988 81.0723 982.363 80.1641C981.748 79.2461 980.869 78.7871 979.727 78.7871C978.584 78.7871 977.7 79.2461 977.075 80.1641C976.46 81.0723 976.152 82.3711 976.152 84.0605C976.152 85.7402 976.46 87.0391 977.075 87.957C977.7 88.875 978.584 89.334 979.727 89.334ZM1000.53 91.8242V81.7168C1000.53 80.7793 1000.28 80.0566 999.795 79.5488C999.307 79.041 998.623 78.7871 997.744 78.7871C995.303 78.7871 994.082 80.2227 994.082 83.0938L993.174 79.1094H994.375C994.463 78.0645 994.844 77.2881 995.518 76.7803C996.191 76.2627 997.178 76.0039 998.477 76.0039C1000.12 76.0039 1001.39 76.502 1002.29 77.498C1003.18 78.4941 1003.63 79.9004 1003.63 81.7168V91.8242H1000.53ZM990.977 91.8242V76.2969H993.789L994.082 79.5781V91.8242H990.977ZM1015.18 94.959V67.8887H1018.22V94.959H1015.18ZM1009.05 94.959V92.1758H1015.47V94.959H1009.05ZM1009.05 70.6719V67.8887H1015.47V70.6719H1009.05ZM1035.33 82.0098L1033.13 80.0762L1034.01 79.124C1034.58 78.5186 1035 77.9033 1035.29 77.2783C1035.57 76.6533 1035.71 76.043 1035.71 75.4473C1035.71 74.8809 1035.53 74.4561 1035.17 74.1729C1034.82 73.8799 1034.3 73.7334 1033.6 73.7334H1032.94V71.0234H1034.04C1035.59 71.0234 1036.75 71.3994 1037.53 72.1514C1038.32 72.8936 1038.72 73.9922 1038.72 75.4473C1038.72 76.3359 1038.51 77.2686 1038.09 78.2451C1037.67 79.2119 1037.02 80.1689 1036.15 81.1162L1035.33 82.0098ZM1028.59 82.0098L1026.4 80.0762L1027.28 79.124C1027.84 78.5186 1028.27 77.9033 1028.55 77.2783C1028.83 76.6533 1028.97 76.043 1028.97 75.4473C1028.97 74.8809 1028.79 74.4561 1028.43 74.1729C1028.08 73.8799 1027.56 73.7334 1026.87 73.7334H1026.21V71.0234H1027.3C1028.85 71.0234 1030.01 71.3994 1030.79 72.1514C1031.58 72.8936 1031.98 73.9922 1031.98 75.4473C1031.98 76.3359 1031.77 77.2686 1031.35 78.2451C1030.93 79.2119 1030.28 80.1689 1029.41 81.1162L1028.59 82.0098ZM1064.28 94.959V67.8887H1067.32V94.959H1064.28ZM1067.03 94.959V92.1758H1073.45V94.959H1067.03ZM1067.03 70.6719V67.8887H1073.45V70.6719H1067.03ZM1081.3 83.9141V81.1309H1085.61C1086.77 81.1309 1087.67 80.8232 1088.32 80.208C1088.97 79.5928 1089.3 78.7285 1089.3 77.6152C1089.3 76.3945 1088.97 75.457 1088.32 74.8027C1087.67 74.1387 1086.77 73.8066 1085.61 73.8066H1081.36L1081.01 71.0234H1085.61C1087.76 71.0234 1089.43 71.5703 1090.6 72.6641C1091.78 73.7578 1092.37 75.3105 1092.37 77.3223C1092.37 79.4121 1091.78 81.0332 1090.6 82.1855C1089.43 83.3379 1087.76 83.9141 1085.61 83.9141H1081.3ZM1078.46 91.8242V71.0234H1081.5V91.8242H1078.46ZM1089.62 91.8242L1084.96 82.0391H1088.18L1093.13 91.8242H1089.62ZM1104.12 92.1172C1101.47 92.1172 1099.43 91.4238 1097.98 90.0371C1096.55 88.6406 1095.83 86.6387 1095.83 84.0312C1095.83 81.4922 1096.44 79.5195 1097.66 78.1133C1098.88 76.707 1100.61 76.0039 1102.83 76.0039C1104.93 76.0039 1106.55 76.6387 1107.7 77.9082C1108.85 79.1777 1109.42 81.0234 1109.42 83.4453C1109.42 84.1582 1109.39 84.8223 1109.34 85.4375H1098.44V83.0645H1106.61C1106.61 81.668 1106.28 80.5986 1105.62 79.8564C1104.95 79.1045 1104.03 78.7285 1102.86 78.7285C1101.54 78.7285 1100.52 79.1777 1099.79 80.0762C1099.06 80.9746 1098.7 82.2441 1098.7 83.8848C1098.7 85.6816 1099.2 87.0488 1100.2 87.9863C1101.2 88.9238 1102.63 89.3926 1104.47 89.3926C1105.12 89.3926 1105.75 89.3584 1106.38 89.29C1107 89.2119 1107.64 89.1094 1108.28 88.9824L1108.66 91.707C1107.74 91.8828 1106.9 91.9951 1106.14 92.0439C1105.38 92.0928 1104.71 92.1172 1104.12 92.1172ZM1122.67 92.1172C1120.87 92.1172 1119.57 91.6289 1118.77 90.6523C1117.97 89.6758 1117.57 88.1133 1117.57 85.9648V69.8516H1120.67V85.8184C1120.67 86.6387 1120.75 87.3076 1120.91 87.8252C1121.06 88.3428 1121.37 88.7236 1121.82 88.9678C1122.28 89.2119 1122.95 89.334 1123.84 89.334C1124.65 89.334 1125.68 89.1484 1126.94 88.7773L1127.29 91.502C1126.5 91.7168 1125.74 91.873 1125.01 91.9707C1124.29 92.0684 1123.51 92.1172 1122.67 92.1172ZM1113 72.5762V69.8516H1117.83V72.5762H1113ZM1139.28 92.1172C1136.63 92.1172 1134.58 91.4238 1133.14 90.0371C1131.7 88.6406 1130.99 86.6387 1130.99 84.0312C1130.99 81.4922 1131.6 79.5195 1132.82 78.1133C1134.04 76.707 1135.76 76.0039 1137.99 76.0039C1140.09 76.0039 1141.71 76.6387 1142.85 77.9082C1144 79.1777 1144.58 81.0234 1144.58 83.4453C1144.58 84.1582 1144.55 84.8223 1144.49 85.4375H1133.59V83.0645H1141.77C1141.77 81.668 1141.44 80.5986 1140.77 79.8564C1140.11 79.1045 1139.19 78.7285 1138.02 78.7285C1136.7 78.7285 1135.67 79.1777 1134.94 80.0762C1134.22 80.9746 1133.86 82.2441 1133.86 83.8848C1133.86 85.6816 1134.36 87.0488 1135.35 87.9863C1136.36 88.9238 1137.78 89.3926 1139.63 89.3926C1140.27 89.3926 1140.91 89.3584 1141.53 89.29C1142.16 89.2119 1142.79 89.1094 1143.44 88.9824L1143.82 91.707C1142.9 91.8828 1142.06 91.9951 1141.3 92.0439C1140.54 92.0928 1139.86 92.1172 1139.28 92.1172ZM1158.7 91.9707L1158.5 87.3711L1158.09 86.082V82.0684C1158.09 81.0332 1157.72 80.2764 1156.99 79.7979C1156.26 79.3096 1155.19 79.0459 1153.75 79.0068L1150.03 78.9043L1150.32 76.1504L1153.46 76.1943C1156.03 76.2334 1157.93 76.79 1159.17 77.8643C1160.42 78.9287 1161.04 80.4863 1161.04 82.5371V89.0117L1163.68 89.334V91.8242L1158.7 91.9707ZM1153.22 92.1172C1151.6 92.1172 1150.35 91.7266 1149.46 90.9453C1148.57 90.1641 1148.12 89.0605 1148.12 87.6348C1148.12 85.9941 1148.74 84.7344 1149.96 83.8555C1151.19 82.9766 1152.92 82.5371 1155.16 82.5371C1156.08 82.5371 1156.91 82.5957 1157.63 82.7129C1158.36 82.8203 1159.01 82.9863 1159.58 83.2109L1158.94 85.3203C1158.28 85.1738 1157.64 85.0908 1157.02 85.0713C1156.39 85.042 1155.75 85.0273 1155.1 85.0273C1152.4 85.0273 1151.05 85.8477 1151.05 87.4883C1151.05 88.1719 1151.28 88.6992 1151.74 89.0703C1152.21 89.4414 1152.87 89.627 1153.72 89.627C1154.69 89.627 1155.49 89.4609 1156.14 89.1289C1156.79 88.7969 1157.28 88.3721 1157.6 87.8545C1157.92 87.3369 1158.09 86.8047 1158.09 86.2578V84.5586L1158.99 88.543H1157.76L1158.26 88.0742C1158.26 88.9727 1158.05 89.7246 1157.63 90.3301C1157.22 90.9258 1156.64 91.375 1155.89 91.6777C1155.14 91.9707 1154.25 92.1172 1153.22 92.1172ZM1171.88 92.1172C1170.71 92.1172 1169.71 92.083 1168.87 92.0146C1168.04 91.9463 1167.28 91.834 1166.58 91.6777L1166.93 88.8652C1167.96 89.0215 1168.86 89.1387 1169.64 89.2168C1170.43 89.2949 1171.18 89.334 1171.88 89.334C1173.46 89.334 1174.59 89.1826 1175.3 88.8799C1176.01 88.5674 1176.37 88.0742 1176.37 87.4004C1176.37 86.9316 1176.24 86.585 1175.99 86.3604C1175.74 86.126 1175.36 85.9453 1174.84 85.8184L1171.27 84.9102C1169.74 84.5195 1168.61 84.0361 1167.89 83.46C1167.17 82.8838 1166.82 82.0098 1166.82 80.8379C1166.82 79.1387 1167.47 77.9082 1168.76 77.1465C1170.07 76.3848 1172.18 76.0039 1175.08 76.0039C1175.83 76.0039 1176.53 76.0283 1177.17 76.0771C1177.83 76.1162 1178.5 76.1895 1179.18 76.2969L1178.86 78.9922C1178.07 78.9141 1177.37 78.8604 1176.76 78.8311C1176.16 78.8018 1175.57 78.7871 1174.99 78.7871C1173.25 78.7871 1171.99 78.9385 1171.21 79.2412C1170.43 79.5342 1170.04 80.0176 1170.04 80.6914C1170.04 81.1406 1170.2 81.4678 1170.52 81.6729C1170.84 81.8682 1171.34 82.0488 1172 82.2148L1174.87 82.918C1176.5 83.3086 1177.7 83.8311 1178.45 84.4854C1179.21 85.1396 1179.59 86.0918 1179.59 87.3418C1179.59 89.0117 1178.98 90.2275 1177.76 90.9893C1176.54 91.7412 1174.58 92.1172 1171.88 92.1172ZM1192.01 92.1172C1189.37 92.1172 1187.32 91.4238 1185.87 90.0371C1184.44 88.6406 1183.72 86.6387 1183.72 84.0312C1183.72 81.4922 1184.33 79.5195 1185.55 78.1133C1186.77 76.707 1188.5 76.0039 1190.72 76.0039C1192.82 76.0039 1194.44 76.6387 1195.59 77.9082C1196.74 79.1777 1197.31 81.0234 1197.31 83.4453C1197.31 84.1582 1197.29 84.8223 1197.23 85.4375H1186.33V83.0645H1194.5C1194.5 81.668 1194.17 80.5986 1193.51 79.8564C1192.84 79.1045 1191.92 78.7285 1190.75 78.7285C1189.43 78.7285 1188.41 79.1777 1187.68 80.0762C1186.95 80.9746 1186.59 82.2441 1186.59 83.8848C1186.59 85.6816 1187.09 87.0488 1188.09 87.9863C1189.09 88.9238 1190.52 89.3926 1192.36 89.3926C1193.01 89.3926 1193.64 89.3584 1194.27 89.29C1194.89 89.2119 1195.53 89.1094 1196.17 88.9824L1196.55 91.707C1195.63 91.8828 1194.79 91.9951 1194.03 92.0439C1193.27 92.0928 1192.6 92.1172 1192.01 92.1172ZM1224.63 92.1172C1222.6 92.1172 1221.06 91.4482 1220 90.1104C1218.96 88.7725 1218.44 86.8047 1218.44 84.207C1218.44 81.5117 1218.96 79.4707 1220 78.084C1221.06 76.6973 1222.6 76.0039 1224.63 76.0039C1225.8 76.0039 1226.74 76.2773 1227.46 76.8242C1228.19 77.3711 1228.62 78.1328 1228.75 79.1094H1229.95L1229.04 83.5332C1229.04 81.9316 1228.73 80.7158 1228.09 79.8857C1227.47 79.0557 1226.54 78.6406 1225.32 78.6406C1224.07 78.6406 1223.12 79.1094 1222.48 80.0469C1221.84 80.9844 1221.51 82.3711 1221.51 84.207C1221.51 85.9453 1221.84 87.2588 1222.48 88.1475C1223.12 89.0361 1224.07 89.4805 1225.32 89.4805C1226.54 89.4805 1227.47 89.0654 1228.09 88.2354C1228.73 87.4053 1229.04 86.1895 1229.04 84.5879L1230.1 89.0117H1228.75C1228.65 89.9883 1228.24 90.75 1227.5 91.2969C1226.78 91.8438 1225.83 92.1172 1224.63 92.1172ZM1229.37 91.9707L1229.04 88.9238V69.8516H1232.15V91.8242L1229.37 91.9707ZM1246.59 91.9707L1246.39 87.3711L1245.98 86.082V82.0684C1245.98 81.0332 1245.61 80.2764 1244.88 79.7979C1244.16 79.3096 1243.08 79.0459 1241.64 79.0068L1237.92 78.9043L1238.21 76.1504L1241.35 76.1943C1243.92 76.2334 1245.82 76.79 1247.06 77.8643C1248.31 78.9287 1248.94 80.4863 1248.94 82.5371V89.0117L1251.57 89.334V91.8242L1246.59 91.9707ZM1241.11 92.1172C1239.49 92.1172 1238.24 91.7266 1237.35 90.9453C1236.46 90.1641 1236.02 89.0605 1236.02 87.6348C1236.02 85.9941 1236.63 84.7344 1237.85 83.8555C1239.08 82.9766 1240.81 82.5371 1243.05 82.5371C1243.97 82.5371 1244.8 82.5957 1245.52 82.7129C1246.25 82.8203 1246.9 82.9863 1247.47 83.2109L1246.83 85.3203C1246.17 85.1738 1245.53 85.0908 1244.91 85.0713C1244.28 85.042 1243.64 85.0273 1242.99 85.0273C1240.29 85.0273 1238.95 85.8477 1238.95 87.4883C1238.95 88.1719 1239.17 88.6992 1239.63 89.0703C1240.1 89.4414 1240.76 89.627 1241.61 89.627C1242.58 89.627 1243.38 89.4609 1244.03 89.1289C1244.68 88.7969 1245.17 88.3721 1245.49 87.8545C1245.82 87.3369 1245.98 86.8047 1245.98 86.2578V84.5586L1246.88 88.543H1245.65L1246.15 88.0742C1246.15 88.9727 1245.94 89.7246 1245.52 90.3301C1245.11 90.9258 1244.53 91.375 1243.78 91.6777C1243.03 91.9707 1242.14 92.1172 1241.11 92.1172ZM1263.79 92.1172C1261.44 92.1172 1259.73 91.6289 1258.68 90.6523C1257.63 89.6758 1257.11 88.1133 1257.11 85.9648V83.3281H1260.21V85.8184C1260.21 87.0488 1260.51 87.9424 1261.11 88.499C1261.71 89.0557 1262.71 89.334 1264.08 89.334C1264.57 89.334 1265.09 89.3096 1265.63 89.2607C1266.18 89.2021 1266.81 89.1289 1267.51 89.041L1267.86 91.7656C1267.18 91.8828 1266.51 91.9707 1265.85 92.0293C1265.21 92.0879 1264.52 92.1172 1263.79 92.1172ZM1257.11 84.5V71.6094H1260.21V84.5H1257.11ZM1253.21 79.0215V76.2969H1267.28V79.0215H1253.21ZM1279.9 92.1172C1277.26 92.1172 1275.21 91.4238 1273.76 90.0371C1272.33 88.6406 1271.61 86.6387 1271.61 84.0312C1271.61 81.4922 1272.22 79.5195 1273.44 78.1133C1274.66 76.707 1276.39 76.0039 1278.61 76.0039C1280.71 76.0039 1282.33 76.6387 1283.48 77.9082C1284.63 79.1777 1285.21 81.0234 1285.21 83.4453C1285.21 84.1582 1285.18 84.8223 1285.12 85.4375H1274.22V83.0645H1282.39C1282.39 81.668 1282.06 80.5986 1281.4 79.8564C1280.73 79.1045 1279.81 78.7285 1278.64 78.7285C1277.32 78.7285 1276.3 79.1777 1275.57 80.0762C1274.84 80.9746 1274.48 82.2441 1274.48 83.8848C1274.48 85.6816 1274.98 87.0488 1275.98 87.9863C1276.98 88.9238 1278.41 89.3926 1280.25 89.3926C1280.9 89.3926 1281.53 89.3584 1282.16 89.29C1282.78 89.2119 1283.42 89.1094 1284.06 88.9824L1284.44 91.707C1283.53 91.8828 1282.69 91.9951 1281.92 92.0439C1281.16 92.0928 1280.49 92.1172 1279.9 92.1172ZM1296.43 94.959V67.8887H1299.47V94.959H1296.43ZM1290.3 94.959V92.1758H1296.72V94.959H1290.3ZM1290.3 70.6719V67.8887H1296.72V70.6719H1290.3Z" fill="#8B9569"/>
<rect x="284.5" y="63.3242" width="405" height="36" stroke="#8B9569" stroke-width="3"/>
<path d="M703 80.8242L718 89.4845L718 72.164L703 80.8242ZM749 79.3242L716.5 79.3242L716.5 82.3242L749 82.3242L749 79.3242Z" fill="#8B9569"/>
</svg>
